*
*
G04 PADS 9.5 Build Number: 522968 generated Gerber (RS-274-X) file*
G04 PC Version=2.1*
*
%IN "Plasma_RF_Gen_V1.0_POWE"*%
*
%MOIN*%
*
%FSLAX35Y35*%
*
*
*
*
G04 PC Standard Apertures*
*
*
G04 Thermal Relief Aperture macro.*
%AMTER*
1,1,$1,0,0*
1,0,$1-$2,0,0*
21,0,$3,$4,0,0,45*
21,0,$3,$4,0,0,135*
%
*
*
G04 Annular Aperture macro.*
%AMANN*
1,1,$1,0,0*
1,0,$2,0,0*
%
*
*
G04 Odd Aperture macro.*
%AMODD*
1,1,$1,0,0*
1,0,$1-0.005,0,0*
%
*
*
G04 PC Custom Aperture Macros*
*
*
*
*
*
*
G04 PC Aperture Table*
*
%ADD010C,0.001*%
%ADD011R,0.04724X0.04724*%
%ADD012R,0.16X0.064*%
%ADD013R,0.1063X0.13386*%
%ADD014R,0.09488X0.14606*%
%ADD015R,0.11811X0.15748*%
%ADD016R,0.15748X0.11811*%
%ADD017R,0.23622X0.29528*%
%ADD018R,0.23622X0.7874*%
%ADD019R,0.23622X0.15748*%
%ADD020R,0.23622X0.17717*%
%ADD021R,0.39016X0.98425*%
%ADD022R,0.23622X0.48622*%
%ADD023R,0.23622X0.98425*%
%ADD024R,0.19685X0.3937*%
%ADD025R,0.29921X0.17717*%
%ADD026R,0.17717X0.29921*%
%ADD027R,0.47244X0.31496*%
%ADD028R,0.04724X0.02756*%
%ADD029R,0.02756X0.04724*%
%ADD030R,0.08X0.025*%
%ADD031R,0.04X0.04*%
%ADD032R,0.03937X0.02756*%
%ADD035R,0.27559X0.31496*%
%ADD038R,0.06693X0.21654*%
%ADD039R,0.21654X0.06693*%
%ADD040R,0.025X0.08*%
%ADD041R,0.47244X0.19685*%
%ADD042R,0.19685X0.47244*%
%ADD045R,0.04724X0.10236*%
%ADD046R,0.10236X0.04724*%
%ADD047R,0.064X0.16*%
%ADD049R,0.07X0.05*%
%ADD050C,0.01*%
*
*
*
*
G04 PC Circuitry*
G04 Layer Name Plasma_RF_Gen_V1.0_POWE - circuitry*
%LPD*%
*
*
G04 PC Custom Flashes*
G04 Layer Name Plasma_RF_Gen_V1.0_POWE - flashes*
%LPD*%
*
*
G04 PC Circuitry*
G04 Layer Name Plasma_RF_Gen_V1.0_POWE - circuitry*
%LPD*%
*
G54D10*
G54D11*
G01X155512Y501575D03*
X146850D03*
X537008Y503543D03*
Y512205D03*
X523228Y503543D03*
Y512205D03*
X225984Y368110D03*
Y359449D03*
X472047Y555118D03*
Y546457D03*
X312677Y579173D03*
X304016D03*
X155118Y457874D03*
Y466535D03*
X385003Y560667D03*
X393664D03*
X366142Y409055D03*
X357480D03*
X393701Y592126D03*
X385039D03*
X393701Y601969D03*
X385039D03*
X537008Y357874D03*
Y349213D03*
X523228Y357874D03*
Y349213D03*
X289370Y409055D03*
X280709D03*
X326378Y420472D03*
Y429134D03*
X159055Y368110D03*
Y359449D03*
X300787Y308268D03*
Y316929D03*
X393701Y621654D03*
X385039D03*
Y611811D03*
X393701D03*
Y539961D03*
X385039D03*
X312677Y549646D03*
X304016D03*
X190945Y367717D03*
X182283D03*
X170866Y359449D03*
Y368110D03*
X312677Y569331D03*
X304016D03*
X385003Y531139D03*
X393664D03*
X168504Y458268D03*
X177165D03*
X155118Y533465D03*
Y524803D03*
X146850Y544882D03*
X155512D03*
X146850Y513386D03*
X155512D03*
X509449Y349213D03*
Y357874D03*
X550394Y503543D03*
X559055D03*
X550394Y357874D03*
X559055D03*
X496063D03*
X487402D03*
X155118Y432283D03*
Y440945D03*
X168504Y440551D03*
X177165D03*
X496063Y503543D03*
X487402D03*
X509449Y512205D03*
Y503543D03*
X335827Y592126D03*
X344488D03*
X335827Y537008D03*
X344488D03*
X393664Y550824D03*
X385003D03*
X448425Y546457D03*
Y555118D03*
X123622Y426378D03*
Y435039D03*
X155118Y335827D03*
Y344488D03*
X304016Y559488D03*
X312677D03*
X218110Y335827D03*
Y344488D03*
X166929D03*
Y335827D03*
X187008Y336220D03*
X178346D03*
X203937Y574409D03*
X212598D03*
X203937Y562598D03*
X212598D03*
X318504Y501969D03*
Y493307D03*
X330315Y501969D03*
Y493307D03*
X470079Y602362D03*
Y593701D03*
X481890Y602362D03*
Y593701D03*
X313150Y624567D03*
X304488D03*
Y604094D03*
X313150D03*
X304488Y615118D03*
X313150D03*
G54D12*
X198819Y601969D03*
X225591D03*
G54D13*
X177953Y403150D03*
X199213D03*
X346850Y328346D03*
X325591D03*
X346850Y308661D03*
X325591D03*
X215354Y312598D03*
X236614D03*
X215354Y292913D03*
X236614D03*
G54D14*
X225669Y440551D03*
X202677D03*
X214173D03*
G54D15*
X271260Y501575D03*
Y462205D03*
G54D16*
X769291Y489764D03*
X808661D03*
X769291Y373622D03*
X808661D03*
G54D17*
X550787Y455315D03*
Y406102D03*
G54D18*
X466142Y430709D03*
G54D19*
X422638Y462205D03*
Y399213D03*
G54D20*
X719681Y448185D03*
X719701Y413142D03*
X653555Y448201D03*
X653512Y413280D03*
G54D21*
X686614Y430709D03*
G54D22*
X852051Y395937D03*
X851917Y467429D03*
G54D23*
X970079Y431693D03*
G54D24*
X1019291Y391339D03*
Y472047D03*
G54D25*
X794094Y619685D03*
X661811D03*
X622441Y540945D03*
X754724D03*
X624409Y320472D03*
X756693D03*
X976772Y546850D03*
X1038189D03*
X976772Y582283D03*
X1038189D03*
X794094Y659055D03*
X661811D03*
G54D26*
X1005512Y181890D03*
Y136220D03*
X859843Y181890D03*
Y136220D03*
X785039Y181890D03*
Y136220D03*
X643307Y181890D03*
Y136220D03*
X568504Y181890D03*
Y136220D03*
X426772Y181890D03*
Y136220D03*
G54D27*
X989370Y245669D03*
X872047D03*
X772835D03*
X655512D03*
X556299D03*
X438976D03*
G54D28*
X238386Y367717D03*
X252953D03*
X230512Y336220D03*
X245079D03*
G54D29*
X460236Y543504D03*
Y558071D03*
G54D30*
X360068Y549156D03*
Y554156D03*
Y559156D03*
Y564156D03*
X336068D03*
Y559156D03*
Y554156D03*
Y549156D03*
X360031Y604311D03*
Y609311D03*
Y614311D03*
Y619311D03*
X336031D03*
Y614311D03*
Y609311D03*
Y604311D03*
G54D31*
X394094Y578149D03*
Y570669D03*
X384646Y574409D03*
X210039Y359056D03*
X202559D03*
X206299Y368504D03*
X198622Y344881D03*
X206102D03*
X202362Y335433D03*
G54D32*
X429921Y547047D03*
Y550787D03*
Y554528D03*
X419685D03*
Y547047D03*
G54D35*
X877362Y617717D03*
X952756D03*
G54D38*
X226969Y397638D03*
X248622D03*
X610827Y456299D03*
X589173D03*
X610827Y405118D03*
X589173D03*
G54D39*
X351969Y482874D03*
Y504528D03*
X623622Y512402D03*
Y490748D03*
Y349016D03*
Y370669D03*
X775197Y419882D03*
Y441535D03*
G54D40*
X123996Y387213D03*
X128996D03*
X133996D03*
X138996D03*
Y411213D03*
X133996D03*
X128996D03*
X123996D03*
G54D41*
X390945Y233858D03*
G54D42*
X186614Y205906D03*
G54D45*
X313386Y409055D03*
X303937D03*
X390157D03*
X380709D03*
G54D46*
X344094Y420079D03*
Y429528D03*
X155118Y479134D03*
Y488583D03*
X288976Y307874D03*
Y317323D03*
G54D47*
X271260Y527559D03*
Y554331D03*
X509449Y611417D03*
Y584646D03*
X552756Y611417D03*
Y584646D03*
G54D49*
X588189Y606000D03*
Y594000D03*
X601969Y606000D03*
Y594000D03*
G54D50*
X981390Y491232D02*
X958768D01*
Y372154*
X981390*
Y491232*
X958969Y372154D02*
Y491232D01*
X959469Y372154D02*
Y491232D01*
X959969Y372154D02*
Y491232D01*
X960469Y372154D02*
Y491232D01*
X960969Y372154D02*
Y491232D01*
X961469Y372154D02*
Y491232D01*
X961969Y372154D02*
Y491232D01*
X962469Y372154D02*
Y491232D01*
X962969Y372154D02*
Y491232D01*
X963469Y372154D02*
Y491232D01*
X963969Y372154D02*
Y491232D01*
X964469Y372154D02*
Y491232D01*
X964969Y372154D02*
Y491232D01*
X965469Y372154D02*
Y491232D01*
X965969Y372154D02*
Y491232D01*
X966469Y372154D02*
Y491232D01*
X966969Y372154D02*
Y491232D01*
X967469Y372154D02*
Y491232D01*
X967969Y372154D02*
Y491232D01*
X968469Y372154D02*
Y491232D01*
X968969Y372154D02*
Y491232D01*
X969469Y372154D02*
Y491232D01*
X969969Y372154D02*
Y491232D01*
X970469Y372154D02*
Y491232D01*
X970969Y372154D02*
Y491232D01*
X971469Y372154D02*
Y491232D01*
X971969Y372154D02*
Y491232D01*
X972469Y372154D02*
Y491232D01*
X972969Y372154D02*
Y491232D01*
X973469Y372154D02*
Y491232D01*
X973969Y372154D02*
Y491232D01*
X974469Y372154D02*
Y491232D01*
X974969Y372154D02*
Y491232D01*
X975469Y372154D02*
Y491232D01*
X975969Y372154D02*
Y491232D01*
X976469Y372154D02*
Y491232D01*
X976969Y372154D02*
Y491232D01*
X977469Y372154D02*
Y491232D01*
X977969Y372154D02*
Y491232D01*
X978469Y372154D02*
Y491232D01*
X978969Y372154D02*
Y491232D01*
X979469Y372154D02*
Y491232D01*
X979969Y372154D02*
Y491232D01*
X980469Y372154D02*
Y491232D01*
X980969Y372154D02*
Y491232D01*
X100000Y111811D02*
G75*
G03X111811Y100000I11811J0D01*
G01X1072441*
G03X1084252Y111811I-0J11811*
G01Y678740*
G03X1072441Y690551I-11811J0*
G01X111811*
G03X100000Y678740I0J-11811*
G01Y111811*
X665354Y526772D02*
X749606D01*
Y491732*
X713780*
X707874Y485827*
Y359843*
X665354*
Y526772*
G74*
X0Y0D02*
M02*
