*
*
G04 PADS 9.5 Build Number: 522968 generated Gerber (RS-274-X) file*
G04 PC Version=2.1*
*
%IN "Plasma_RF_Gen_V1.0_POWE"*%
*
%MOIN*%
*
%FSLAX35Y35*%
*
*
*
*
G04 PC Standard Apertures*
*
*
G04 Thermal Relief Aperture macro.*
%AMTER*
1,1,$1,0,0*
1,0,$1-$2,0,0*
21,0,$3,$4,0,0,45*
21,0,$3,$4,0,0,135*
%
*
*
G04 Annular Aperture macro.*
%AMANN*
1,1,$1,0,0*
1,0,$2,0,0*
%
*
*
G04 Odd Aperture macro.*
%AMODD*
1,1,$1,0,0*
1,0,$1-0.005,0,0*
%
*
*
G04 PC Custom Aperture Macros*
*
*
*
*
*
*
G04 PC Aperture Table*
*
%ADD010C,0.001*%
%ADD033C,0.09055*%
%ADD034C,0.33465*%
%ADD036R,0.11024X0.11024*%
%ADD037C,0.11024*%
%ADD043R,0.06X0.06*%
%ADD048C,0.07087*%
%ADD050C,0.01*%
%ADD051C,0.03937*%
%ADD055C,0.01378*%
%ADD059C,0.01772*%
%ADD060C,0.055*%
%ADD110R,0.05906X0.05906*%
%ADD111C,0.06*%
%ADD112C,0.23622*%
*
*
*
*
G04 PC Circuitry*
G04 Layer Name Plasma_RF_Gen_V1.0_POWE - circuitry*
%LPD*%
*
*
G04 PC Custom Flashes*
G04 Layer Name Plasma_RF_Gen_V1.0_POWE - flashes*
%LPD*%
*
*
G04 PC Circuitry*
G04 Layer Name Plasma_RF_Gen_V1.0_POWE - circuitry*
%LPD*%
*
G54D10*
G54D33*
G01X155118Y580315D03*
X145118Y590315D03*
Y570315D03*
X165118D03*
Y590315D03*
X186614Y155118D03*
X196614Y145118D03*
Y165118D03*
X176614D03*
Y145118D03*
X245669Y233858D03*
X332283D03*
X261417Y288976D03*
X288976D03*
X316535D03*
G54D34*
X119685Y119685D03*
Y670866D03*
X1064567D03*
Y119685D03*
X690551D03*
X387402Y670866D03*
X119685Y348031D03*
X387402D03*
G54D36*
X485591Y637055D03*
G54D37*
X470000Y637795D03*
X454409D03*
X438819D03*
G54D43*
X192520Y651181D03*
Y661181D03*
X202520Y651181D03*
Y661181D03*
X212520Y651181D03*
Y661181D03*
X222520Y651181D03*
Y661181D03*
X232520Y651181D03*
Y661181D03*
X292913Y651181D03*
Y661181D03*
X302913Y651181D03*
Y661181D03*
X312913Y651181D03*
Y661181D03*
X322913Y651181D03*
Y661181D03*
X332913Y651181D03*
Y661181D03*
G54D48*
X210394Y507480D03*
X200394Y497480D03*
X190394Y507480D03*
X442362Y353937D03*
X452362Y363937D03*
X462362Y353937D03*
X442362Y509449D03*
X452362Y519449D03*
X462362Y509449D03*
G54D50*
X565662Y542913D02*
G75*
G03X565662I-14875J0D01*
G01X860938D02*
G03X860938I-14875J0D01*
G01Y318504D02*
G03X860938I-14875J0D01*
G01X565662D02*
G03X565662I-14875J0D01*
G01X526292D02*
G03X526292I-14875J0D01*
G01Y542913D02*
G03X526292I-14875J0D01*
G01X459343Y647037D02*
X455698Y650681D01*
X430916*
X427272Y647037*
Y623829*
X430916Y620185*
X455698*
X459343Y623829*
Y647037*
X178240Y170366D02*
Y142807D01*
X194988*
Y170366*
X205799*
Y135933*
X167429*
Y170366*
X178240*
X565662Y542913D02*
G03X565662I-14875J0D01*
G01X860938D02*
G03X860938I-14875J0D01*
G01Y318504D02*
G03X860938I-14875J0D01*
G01X565662D02*
G03X565662I-14875J0D01*
G01X526292D02*
G03X526292I-14875J0D01*
G01Y542913D02*
G03X526292I-14875J0D01*
G01X427272Y646284D02*
X459343D01*
X427272Y645384D02*
X459343D01*
X427272Y644484D02*
X459343D01*
X427272Y643584D02*
X459343D01*
X427272Y642684D02*
X459343D01*
X427272Y641784D02*
X459343D01*
X427272Y640884D02*
X459343D01*
X427272Y639984D02*
X459343D01*
X427272Y639084D02*
X459343D01*
X427272Y638184D02*
X459343D01*
X427272Y637284D02*
X459343D01*
X427272Y636384D02*
X459343D01*
X427272Y635484D02*
X459343D01*
X427272Y634584D02*
X459343D01*
X427272Y633684D02*
X459343D01*
X427272Y632784D02*
X459343D01*
X427272Y631884D02*
X459343D01*
X427272Y630984D02*
X459343D01*
X427272Y630084D02*
X459343D01*
X427272Y629184D02*
X459343D01*
X427272Y628284D02*
X459343D01*
X427272Y627384D02*
X459343D01*
X427272Y626484D02*
X459343D01*
X427272Y625584D02*
X459343D01*
X427272Y624684D02*
X459343D01*
X427317Y623784D02*
X459297D01*
X427418Y647184D02*
X459196D01*
X428217Y622884D02*
X458397D01*
X428318Y648084D02*
X458296D01*
X429117Y621984D02*
X457497D01*
X429218Y648984D02*
X457396D01*
X430017Y621084D02*
X456597D01*
X430118Y649884D02*
X456496D01*
X194988Y170132D02*
X205799D01*
X194988Y169232D02*
X205799D01*
X194988Y168332D02*
X205799D01*
X194988Y167432D02*
X205799D01*
X194988Y166532D02*
X205799D01*
X194988Y165632D02*
X205799D01*
X194988Y164732D02*
X205799D01*
X194988Y163832D02*
X205799D01*
X194988Y162932D02*
X205799D01*
X194988Y162032D02*
X205799D01*
X194988Y161132D02*
X205799D01*
X194988Y160232D02*
X205799D01*
X194988Y159332D02*
X205799D01*
X194988Y158432D02*
X205799D01*
X194988Y157532D02*
X205799D01*
X194988Y156632D02*
X205799D01*
X194988Y155732D02*
X205799D01*
X194988Y154832D02*
X205799D01*
X194988Y153932D02*
X205799D01*
X194988Y153032D02*
X205799D01*
X194988Y152132D02*
X205799D01*
X194988Y151232D02*
X205799D01*
X194988Y150332D02*
X205799D01*
X194988Y149432D02*
X205799D01*
X194988Y148532D02*
X205799D01*
X194988Y147632D02*
X205799D01*
X194988Y146732D02*
X205799D01*
X194988Y145832D02*
X205799D01*
X194988Y144932D02*
X205799D01*
X194988Y144032D02*
X205799D01*
X194988Y143132D02*
X205799D01*
X167429Y142232D02*
X205799D01*
X167429Y141332D02*
X205799D01*
X167429Y140432D02*
X205799D01*
X167429Y139532D02*
X205799D01*
X167429Y138632D02*
X205799D01*
X167429Y137732D02*
X205799D01*
X167429Y136832D02*
X205799D01*
X167429Y170132D02*
X178240D01*
X167429Y169232D02*
X178240D01*
X167429Y168332D02*
X178240D01*
X167429Y167432D02*
X178240D01*
X167429Y166532D02*
X178240D01*
X167429Y165632D02*
X178240D01*
X167429Y164732D02*
X178240D01*
X167429Y163832D02*
X178240D01*
X167429Y162932D02*
X178240D01*
X167429Y162032D02*
X178240D01*
X167429Y161132D02*
X178240D01*
X167429Y160232D02*
X178240D01*
X167429Y159332D02*
X178240D01*
X167429Y158432D02*
X178240D01*
X167429Y157532D02*
X178240D01*
X167429Y156632D02*
X178240D01*
X167429Y155732D02*
X178240D01*
X167429Y154832D02*
X178240D01*
X167429Y153932D02*
X178240D01*
X167429Y153032D02*
X178240D01*
X167429Y152132D02*
X178240D01*
X167429Y151232D02*
X178240D01*
X167429Y150332D02*
X178240D01*
X167429Y149432D02*
X178240D01*
X167429Y148532D02*
X178240D01*
X167429Y147632D02*
X178240D01*
X167429Y146732D02*
X178240D01*
X167429Y145832D02*
X178240D01*
X167429Y144932D02*
X178240D01*
X167429Y144032D02*
X178240D01*
X167429Y143132D02*
X178240D01*
X535919Y543338D02*
X565656D01*
X535921Y542438D02*
X565654D01*
X535972Y544238D02*
X565603D01*
X535977Y541538D02*
X565598D01*
X536080Y545138D02*
X565495D01*
X536088Y540638D02*
X565487D01*
X536245Y546038D02*
X565330D01*
X536256Y539738D02*
X565319D01*
X536468Y546938D02*
X565107D01*
X536482Y538838D02*
X565093D01*
X536752Y547838D02*
X564823D01*
X536770Y537938D02*
X564805D01*
X537101Y548738D02*
X564474D01*
X537123Y537038D02*
X564452D01*
X537520Y549638D02*
X564055D01*
X537546Y536138D02*
X564029D01*
X538015Y550538D02*
X563559D01*
X538046Y535238D02*
X563528D01*
X538598Y551438D02*
X562977D01*
X538634Y534338D02*
X562941D01*
X539279Y552338D02*
X562295D01*
X539322Y533438D02*
X562253D01*
X540079Y553238D02*
X561495D01*
X540129Y532538D02*
X561445D01*
X541027Y554138D02*
X560548D01*
X541087Y531638D02*
X560488D01*
X542170Y555038D02*
X559405D01*
X542243Y530738D02*
X559331D01*
X543603Y555938D02*
X557972D01*
X543697Y529838D02*
X557878D01*
X545556Y556838D02*
X556019D01*
X545696Y528938D02*
X555879D01*
X549565Y557738D02*
X552010D01*
X831195Y543338D02*
X860931D01*
X831196Y542438D02*
X860930D01*
X831248Y544238D02*
X860878D01*
X831252Y541538D02*
X860874D01*
X831356Y545138D02*
X860770D01*
X831364Y540638D02*
X860762D01*
X831520Y546038D02*
X860606D01*
X831531Y539738D02*
X860595D01*
X831743Y546938D02*
X860383D01*
X831758Y538838D02*
X860368D01*
X832027Y547838D02*
X860099D01*
X832045Y537938D02*
X860081D01*
X832376Y548738D02*
X859750D01*
X832398Y537038D02*
X859728D01*
X832795Y549638D02*
X859331D01*
X832821Y536138D02*
X859305D01*
X833291Y550538D02*
X858835D01*
X833322Y535238D02*
X858804D01*
X833873Y551438D02*
X858253D01*
X833910Y534338D02*
X858216D01*
X834555Y552338D02*
X857571D01*
X834597Y533438D02*
X857529D01*
X835355Y553238D02*
X856771D01*
X835405Y532538D02*
X856721D01*
X836302Y554138D02*
X855824D01*
X836362Y531638D02*
X855764D01*
X837446Y555038D02*
X854680D01*
X837519Y530738D02*
X854607D01*
X838878Y555938D02*
X853248D01*
X838973Y529838D02*
X853153D01*
X840832Y556838D02*
X851294D01*
X840971Y528938D02*
X851155D01*
X844840Y557738D02*
X847286D01*
X831195Y318928D02*
X860931D01*
X831196Y318028D02*
X860930D01*
X831248Y319828D02*
X860878D01*
X831252Y317128D02*
X860874D01*
X831356Y320728D02*
X860770D01*
X831364Y316228D02*
X860762D01*
X831520Y321628D02*
X860606D01*
X831531Y315328D02*
X860595D01*
X831743Y322528D02*
X860383D01*
X831758Y314428D02*
X860368D01*
X832027Y323428D02*
X860099D01*
X832045Y313528D02*
X860081D01*
X832376Y324328D02*
X859750D01*
X832398Y312628D02*
X859728D01*
X832795Y325228D02*
X859331D01*
X832821Y311728D02*
X859305D01*
X833291Y326128D02*
X858835D01*
X833322Y310828D02*
X858804D01*
X833873Y327028D02*
X858253D01*
X833910Y309928D02*
X858216D01*
X834555Y327928D02*
X857571D01*
X834597Y309028D02*
X857529D01*
X835355Y328828D02*
X856771D01*
X835405Y308128D02*
X856721D01*
X836302Y329728D02*
X855824D01*
X836362Y307228D02*
X855764D01*
X837446Y330628D02*
X854680D01*
X837519Y306328D02*
X854607D01*
X838878Y331528D02*
X853248D01*
X838973Y305428D02*
X853153D01*
X840832Y332428D02*
X851294D01*
X840971Y304528D02*
X851155D01*
X844840Y333328D02*
X847286D01*
X535919Y318928D02*
X565656D01*
X535921Y318028D02*
X565654D01*
X535972Y319828D02*
X565603D01*
X535977Y317128D02*
X565598D01*
X536080Y320728D02*
X565495D01*
X536088Y316228D02*
X565487D01*
X536245Y321628D02*
X565330D01*
X536256Y315328D02*
X565319D01*
X536468Y322528D02*
X565107D01*
X536482Y314428D02*
X565093D01*
X536752Y323428D02*
X564823D01*
X536770Y313528D02*
X564805D01*
X537101Y324328D02*
X564474D01*
X537123Y312628D02*
X564452D01*
X537520Y325228D02*
X564055D01*
X537546Y311728D02*
X564029D01*
X538015Y326128D02*
X563559D01*
X538046Y310828D02*
X563528D01*
X538598Y327028D02*
X562977D01*
X538634Y309928D02*
X562941D01*
X539279Y327928D02*
X562295D01*
X539322Y309028D02*
X562253D01*
X540079Y328828D02*
X561495D01*
X540129Y308128D02*
X561445D01*
X541027Y329728D02*
X560548D01*
X541087Y307228D02*
X560488D01*
X542170Y330628D02*
X559405D01*
X542243Y306328D02*
X559331D01*
X543603Y331528D02*
X557972D01*
X543697Y305428D02*
X557878D01*
X545556Y332428D02*
X556019D01*
X545696Y304528D02*
X555879D01*
X549565Y333328D02*
X552010D01*
X496549Y318928D02*
X526286D01*
X496550Y318028D02*
X526284D01*
X496602Y319828D02*
X526233D01*
X496607Y317128D02*
X526228D01*
X496710Y320728D02*
X526125D01*
X496718Y316228D02*
X526117D01*
X496875Y321628D02*
X525960D01*
X496886Y315328D02*
X525949D01*
X497098Y322528D02*
X525737D01*
X497112Y314428D02*
X525723D01*
X497382Y323428D02*
X525453D01*
X497400Y313528D02*
X525435D01*
X497730Y324328D02*
X525104D01*
X497753Y312628D02*
X525082D01*
X498149Y325228D02*
X524685D01*
X498176Y311728D02*
X524659D01*
X498645Y326128D02*
X524189D01*
X498676Y310828D02*
X524158D01*
X499228Y327028D02*
X523607D01*
X499264Y309928D02*
X523571D01*
X499909Y327928D02*
X522925D01*
X499952Y309028D02*
X522883D01*
X500709Y328828D02*
X522125D01*
X500759Y308128D02*
X522075D01*
X501657Y329728D02*
X521178D01*
X501716Y307228D02*
X521118D01*
X502800Y330628D02*
X520034D01*
X502873Y306328D02*
X519961D01*
X504233Y331528D02*
X518602D01*
X504327Y305428D02*
X518508D01*
X506186Y332428D02*
X516649D01*
X506325Y304528D02*
X516509D01*
X510195Y333328D02*
X512640D01*
X496549Y543338D02*
X526286D01*
X496550Y542438D02*
X526284D01*
X496602Y544238D02*
X526233D01*
X496607Y541538D02*
X526228D01*
X496710Y545138D02*
X526125D01*
X496718Y540638D02*
X526117D01*
X496875Y546038D02*
X525960D01*
X496886Y539738D02*
X525949D01*
X497098Y546938D02*
X525737D01*
X497112Y538838D02*
X525723D01*
X497382Y547838D02*
X525453D01*
X497400Y537938D02*
X525435D01*
X497730Y548738D02*
X525104D01*
X497753Y537038D02*
X525082D01*
X498149Y549638D02*
X524685D01*
X498176Y536138D02*
X524659D01*
X498645Y550538D02*
X524189D01*
X498676Y535238D02*
X524158D01*
X499228Y551438D02*
X523607D01*
X499264Y534338D02*
X523571D01*
X499909Y552338D02*
X522925D01*
X499952Y533438D02*
X522883D01*
X500709Y553238D02*
X522125D01*
X500759Y532538D02*
X522075D01*
X501657Y554138D02*
X521178D01*
X501716Y531638D02*
X521118D01*
X502800Y555038D02*
X520034D01*
X502873Y530738D02*
X519961D01*
X504233Y555938D02*
X518602D01*
X504327Y529838D02*
X518508D01*
X506186Y556838D02*
X516649D01*
X506325Y528938D02*
X516509D01*
X510195Y557738D02*
X512640D01*
X859555Y318504D02*
G03X859555I-13492J0D01*
G01Y542913D02*
G03X859555I-13492J0D01*
G01X564280Y318504D02*
G03X564280I-13493J0D01*
G01Y542913D02*
G03X564280I-13493J0D01*
G01X524909Y318504D02*
G03X524909I-13492J0D01*
G01Y542913D02*
G03X524909I-13492J0D01*
G01X467587Y353937D02*
G03X467587I-5225J0D01*
G01X457587Y363937D02*
G03X457587I-5225J0D01*
G01X467587Y509449D02*
G03X467587I-5225J0D01*
G01X446012Y637795D02*
G03X446012I-7193J0D01*
G01X405815Y348031D02*
G03X405815I-18413J0D01*
G01X338492Y233858D02*
G03X338492I-6209J0D01*
G01X322744Y288976D02*
G03X322744I-6209J0D01*
G01X295185D02*
G03X295185I-6209J0D01*
G01X267626D02*
G03X267626I-6209J0D01*
G01X251878Y233858D02*
G03X251878I-6209J0D01*
G01X205618Y497480D02*
G03X205618I-5224J0D01*
G01X215618Y507480D02*
G03X215618I-5224J0D01*
G01X195618D02*
G03X195618I-5224J0D01*
G01X171327Y570315D02*
G03X171327I-6209J0D01*
G01X151327D02*
G03X151327I-6209J0D01*
G01X161327Y580315D02*
G03X161327I-6209J0D01*
G01X171327Y590315D02*
G03X171327I-6209J0D01*
G01X151327D02*
G03X151327I-6209J0D01*
G01X457587Y519449D02*
G03X457587I-5225J0D01*
G01X1082571Y126850D02*
Y663702D01*
G03X1081608Y663891I-500J-0*
G01X1057592Y687907D02*
G03X1081608Y663891I6975J-17041D01*
G01X1057592Y687907D02*
G03X1057402Y688870I-190J463D01*
G01X394566*
G03X394377Y687907I0J-500*
G01X380426D02*
G03X394377I6976J-17041D01*
G01X380426D02*
G03X380237Y688870I-189J463D01*
G01X126850*
G03X126660Y687907I-0J-500*
G01X102644Y663891D02*
G03X126660Y687907I17041J6975D01*
G01X102644Y663891D02*
G03X101681Y663702I-463J-189D01*
G01Y355196*
G03X102644Y355007I500J-0*
G01Y341056D02*
G03Y355007I17041J6975D01*
G01Y341056D02*
G03X101681Y340867I-463J-189D01*
G01Y126850*
G03X102644Y126660I500J-0*
G01X126660Y102644D02*
G03X102644Y126660I-6975J17041D01*
G01X126660Y102644D02*
G03X126850Y101681I190J-463D01*
G01X683387*
G03X683576Y102644I-0J500*
G01X697526D02*
G03X683576I-6975J17041D01*
G01X697526D02*
G03X697716Y101681I190J-463D01*
G01X1057402*
G03X1057592Y102644I0J500*
G01X1081608Y126660D02*
G03X1057592Y102644I-17041J-6975D01*
G01X1081608Y126660D02*
G03X1082571Y126850I463J190D01*
G01X859555Y318504D02*
G03X859555I-13492J0D01*
G01Y542913D02*
G03X859555I-13492J0D01*
G01X751287Y526772D02*
Y491732D01*
X749606Y490051D02*
G03X751287Y491732I0J1681D01*
G01X749606Y490051D02*
X714683D01*
G03X714329Y489905I-0J-500*
G01X709702Y485277*
G03X709555Y484923I353J-354*
G01Y359843*
X707874Y358161D02*
G03X709555Y359843I0J1682D01*
G01X707874Y358161D02*
X665354D01*
X663673Y359843D02*
G03X665354Y358161I1681J-0D01*
G01X663673Y359843D02*
Y526772D01*
X665354Y528453D02*
G03X663673Y526772I0J-1681D01*
G01X665354Y528453D02*
X749606D01*
X751287Y526772D02*
G03X749606Y528453I-1681J-0D01*
G01X564280Y318504D02*
G03X564280I-13493J0D01*
G01Y542913D02*
G03X564280I-13493J0D01*
G01X524909Y318504D02*
G03X524909I-13492J0D01*
G01Y542913D02*
G03X524909I-13492J0D01*
G01X467587Y353937D02*
G03X467587I-5225J0D01*
G01X457587Y363937D02*
G03X457587I-5225J0D01*
G01X467587Y509449D02*
G03X467587I-5225J0D01*
G01X495382Y647244D02*
Y627559D01*
X494882Y627059D02*
G03X495382Y627559I-0J500D01*
G01X494882Y627059D02*
X462205D01*
X461705Y627559D02*
G03X462205Y627059I500J0D01*
G01X461705Y627559D02*
Y634189D01*
G03X460763Y634423I-500J-0*
G01Y641167D02*
G03Y634423I-6354J-3372D01*
G01Y641167D02*
G03X461705Y641402I442J235D01*
G01Y647244*
X462205Y647744D02*
G03X461705Y647244I-0J-500D01*
G01X462205Y647744D02*
X494882D01*
X495382Y647244D02*
G03X494882Y647744I-500J0D01*
G01X446012Y637795D02*
G03X446012I-7193J0D01*
G01X405815Y348031D02*
G03X405815I-18413J0D01*
G01X338492Y233858D02*
G03X338492I-6209J0D01*
G01X322744Y288976D02*
G03X322744I-6209J0D01*
G01X335496Y577912D02*
G03X331849Y581559I724J4371D01*
G01X335496Y577912D02*
G03X335061Y577772I-81J-493D01*
G01X328501Y571212*
G03X328354Y570858I353J-354*
G01Y541018*
G03X328563Y540611I500J-0*
G01X323405D02*
G03X328563I2579J-3603D01*
G01X323405D02*
G03X323614Y541018I-291J407D01*
G01Y572047*
X324308Y573723D02*
G03X323614Y572047I1676J-1676D01*
G01X324308Y573723D02*
X331709Y581124D01*
G03X331849Y581559I-353J354*
G01X295185Y288976D02*
G03X295185I-6209J0D01*
G01X393892Y638897D02*
G03X388069Y645260I-1569J4410D01*
G01X393892Y638897D02*
G03X393706Y638779I167J-471D01*
G01X376085Y621159*
X374409Y620465D02*
G03X376085Y621159I0J2370D01*
G01X374409Y620465D02*
X338590D01*
G03X338237Y620318I0J-500*
G01X324117Y606198*
X322441Y605504D02*
G03X324117Y606198I-0J2370D01*
G01X322441Y605504D02*
X300161D01*
G03X299665Y604936I-0J-500*
G01X296000Y608702D02*
G03X299665Y604936I-724J-4371D01*
G01X296000Y608702D02*
G03X296435Y608842I81J494D01*
G01X297143Y609550*
X298819Y610244D02*
G03X297143Y609550I-0J-2370D01*
G01X298819Y610244D02*
X321252D01*
G03X321606Y610391I0J500*
G01X325404Y614189*
G03X325185Y615024I-354J353*
G01X326366Y623722D02*
G03X325185Y615024I12J-4431D01*
G01X326366Y623722D02*
G03X326718Y623869I-2J500D01*
G01X331789Y628940*
X333465Y629634D02*
G03X331789Y628940I-0J-2370D01*
G01X333465Y629634D02*
X370760D01*
G03X371114Y629780I-0J500*
G01X379247Y637914*
G03X379039Y638746I-353J353*
G01X377846Y640354D02*
G03X379039Y638746I1682J0D01*
G01X377846Y640354D02*
Y646260D01*
X379528Y647941D02*
G03X377846Y646260I-0J-1681D01*
G01X379528Y647941D02*
X385433D01*
X387114Y646260D02*
G03X385433Y647941I-1681J-0D01*
G01X387114Y646260D02*
Y645469D01*
G03X388069Y645260I500J-0*
G01X337595Y664181D02*
Y658181D01*
X336584Y656640D02*
G03X337595Y658181I-671J1541D01*
G01X336584Y656640D02*
G03Y655723I200J-459D01*
G01X337595Y654181D02*
G03X336584Y655723I-1682J0D01*
G01X337595Y654181D02*
Y648181D01*
X335913Y646500D02*
G03X337595Y648181I0J1681D01*
G01X335913Y646500D02*
X329913D01*
X328372Y647510D02*
G03X329913Y646500I1541J671D01*
G01X328372Y647510D02*
G03X327455I-459J-199D01*
G01X325913Y646500D02*
G03X327455Y647510I0J1681D01*
G01X325913Y646500D02*
X319913D01*
X318372Y647510D02*
G03X319913Y646500I1541J671D01*
G01X318372Y647510D02*
G03X317455I-459J-199D01*
G01X315913Y646500D02*
G03X317455Y647510I0J1681D01*
G01X315913Y646500D02*
X309913D01*
X308372Y647510D02*
G03X309913Y646500I1541J671D01*
G01X308372Y647510D02*
G03X307455I-459J-199D01*
G01X305913Y646500D02*
G03X307455Y647510I0J1681D01*
G01X305913Y646500D02*
X299913D01*
X298372Y647510D02*
G03X299913Y646500I1541J671D01*
G01X298372Y647510D02*
G03X297455I-459J-199D01*
G01X295913Y646500D02*
G03X297455Y647510I0J1681D01*
G01X295913Y646500D02*
X289913D01*
X288232Y648181D02*
G03X289913Y646500I1681J0D01*
G01X288232Y648181D02*
Y654181D01*
X289243Y655723D02*
G03X288232Y654181I670J-1542D01*
G01X289243Y655723D02*
G03Y656640I-200J458D01*
G01X288232Y658181D02*
G03X289243Y656640I1681J0D01*
G01X288232Y658181D02*
Y664181D01*
X289913Y665862D02*
G03X288232Y664181I0J-1681D01*
G01X289913Y665862D02*
X295913D01*
X297455Y664852D02*
G03X295913Y665862I-1542J-671D01*
G01X297455Y664852D02*
G03X298372I458J199D01*
G01X299913Y665862D02*
G03X298372Y664852I0J-1681D01*
G01X299913Y665862D02*
X305913D01*
X307455Y664852D02*
G03X305913Y665862I-1542J-671D01*
G01X307455Y664852D02*
G03X308372I458J199D01*
G01X309913Y665862D02*
G03X308372Y664852I0J-1681D01*
G01X309913Y665862D02*
X315913D01*
X317455Y664852D02*
G03X315913Y665862I-1542J-671D01*
G01X317455Y664852D02*
G03X318372I458J199D01*
G01X319913Y665862D02*
G03X318372Y664852I0J-1681D01*
G01X319913Y665862D02*
X325913D01*
X327455Y664852D02*
G03X325913Y665862I-1542J-671D01*
G01X327455Y664852D02*
G03X328372I458J199D01*
G01X329913Y665862D02*
G03X328372Y664852I0J-1681D01*
G01X329913Y665862D02*
X335913D01*
X337595Y664181D02*
G03X335913Y665862I-1682J0D01*
G01X267626Y288976D02*
G03X267626I-6209J0D01*
G01X251878Y233858D02*
G03X251878I-6209J0D01*
G01X195572Y158998D02*
G03X197394Y171278I1042J6120D01*
G01X195572Y158997D02*
G03X194988Y158505I-84J-492D01*
G01Y151732*
G03X195572Y151239I500J-0*
G01X190977Y142517D02*
G03X195572Y151239I5637J2601D01*
G01X190977Y142517D02*
G03X190523Y142807I-454J-210D01*
G01X182706*
G03X182252Y142517I-0J-500*
G01X177656Y151239D02*
G03X182252Y142517I-1042J-6121D01*
G01X177656Y151239D02*
G03X178240Y151732I84J493D01*
G01Y158505*
G03X177656Y158997I-500J-0*
G01X175834Y171278D02*
G03X177656Y158998I780J-6160D01*
G01X175834Y171278D02*
G03X176272Y171774I-62J496D01*
G01Y184646*
X176772Y185146D02*
G03X176272Y184646I-0J-500D01*
G01X176772Y185146D02*
X196457D01*
X196957Y184646D02*
G03X196457Y185146I-500J-0D01*
G01X196957Y184646D02*
Y171774D01*
G03X197394Y171278I500J-0*
G01X205618Y497480D02*
G03X205618I-5224J0D01*
G01X215618Y507480D02*
G03X215618I-5224J0D01*
G01X178287Y349783D02*
G03Y354941I3603J2579D01*
G01Y349783D02*
G03X177880Y349992I-407J-291D01*
G01X166535*
X164860Y350686D02*
G03X166535Y349992I1675J1676D01*
G01X164860Y350686D02*
X151474Y364072D01*
X150780Y365748D02*
G03X151474Y364072I2370J0D01*
G01X150780Y365748D02*
Y412591D01*
G03X150633Y412944I-500J-0*
G01X141711Y421867*
G03X141275Y422006I-354J-354*
G01X144923Y425654D02*
G03X141275Y422006I-4372J724D01*
G01X144923Y425654D02*
G03X145062Y425219I493J-82D01*
G01X154826Y415455*
X155520Y413780D02*
G03X154826Y415455I-2370J-0D01*
G01X155520Y413780D02*
Y366937D01*
G03X155666Y366583I500J-0*
G01X167371Y354879*
G03X167724Y354732I353J353*
G01X177880*
G03X178287Y354941I-0J500*
G01X195618Y507480D02*
G03X195618I-5224J0D01*
G01X237201Y664181D02*
Y658181D01*
X236190Y656640D02*
G03X237201Y658181I-670J1541D01*
G01X236190Y656640D02*
G03Y655723I200J-459D01*
G01X237201Y654181D02*
G03X236190Y655723I-1681J0D01*
G01X237201Y654181D02*
Y648181D01*
X235520Y646500D02*
G03X237201Y648181I-0J1681D01*
G01X235520Y646500D02*
X229520D01*
X227978Y647510D02*
G03X229520Y646500I1542J671D01*
G01X227978Y647510D02*
G03X227061I-458J-199D01*
G01X225520Y646500D02*
G03X227061Y647510I-0J1681D01*
G01X225520Y646500D02*
X219520D01*
X217978Y647510D02*
G03X219520Y646500I1542J671D01*
G01X217978Y647510D02*
G03X217061I-458J-199D01*
G01X215520Y646500D02*
G03X217061Y647510I-0J1681D01*
G01X215520Y646500D02*
X209520D01*
X207978Y647510D02*
G03X209520Y646500I1542J671D01*
G01X207978Y647510D02*
G03X207061I-458J-199D01*
G01X205520Y646500D02*
G03X207061Y647510I-0J1681D01*
G01X205520Y646500D02*
X199520D01*
X197978Y647510D02*
G03X199520Y646500I1542J671D01*
G01X197978Y647510D02*
G03X197061I-458J-199D01*
G01X195520Y646500D02*
G03X197061Y647510I-0J1681D01*
G01X195520Y646500D02*
X189520D01*
X187839Y648181D02*
G03X189520Y646500I1681J0D01*
G01X187839Y648181D02*
Y654181D01*
X188849Y655723D02*
G03X187839Y654181I671J-1542D01*
G01X188849Y655723D02*
G03Y656640I-200J458D01*
G01X187839Y658181D02*
G03X188849Y656640I1681J0D01*
G01X187839Y658181D02*
Y664181D01*
X189520Y665862D02*
G03X187839Y664181I-0J-1681D01*
G01X189520Y665862D02*
X195520D01*
X197061Y664852D02*
G03X195520Y665862I-1541J-671D01*
G01X197061Y664852D02*
G03X197978I459J199D01*
G01X199520Y665862D02*
G03X197978Y664852I-0J-1681D01*
G01X199520Y665862D02*
X205520D01*
X207061Y664852D02*
G03X205520Y665862I-1541J-671D01*
G01X207061Y664852D02*
G03X207978I459J199D01*
G01X209520Y665862D02*
G03X207978Y664852I-0J-1681D01*
G01X209520Y665862D02*
X215520D01*
X217061Y664852D02*
G03X215520Y665862I-1541J-671D01*
G01X217061Y664852D02*
G03X217978I459J199D01*
G01X219520Y665862D02*
G03X217978Y664852I-0J-1681D01*
G01X219520Y665862D02*
X225520D01*
X227061Y664852D02*
G03X225520Y665862I-1541J-671D01*
G01X227061Y664852D02*
G03X227978I459J199D01*
G01X229520Y665862D02*
G03X227978Y664852I-0J-1681D01*
G01X229520Y665862D02*
X235520D01*
X237201Y664181D02*
G03X235520Y665862I-1681J0D01*
G01X171327Y570315D02*
G03X171327I-6209J0D01*
G01X151327D02*
G03X151327I-6209J0D01*
G01X161327Y580315D02*
G03X161327I-6209J0D01*
G01X171327Y590315D02*
G03X171327I-6209J0D01*
G01X151327D02*
G03X151327I-6209J0D01*
G01X446149Y505850D02*
G03X438575I-3787J3599D01*
G01X446149D02*
G03X446012Y505506I363J-344D01*
G01Y357880*
G03X446149Y357536I500J0*
G01X438575D02*
G03X446149I3787J-3599D01*
G01X438575D02*
G03X438713Y357880I-362J344D01*
G01Y505506*
G03X438575Y505850I-500J-0*
G01X457587Y519449D02*
G03X457587I-5225J0D01*
G01X1081215Y662999D02*
X1082571D01*
X1080759Y662099D02*
X1082571D01*
X1080238Y661199D02*
X1082571D01*
X1079646Y660299D02*
X1082571D01*
X1078974Y659399D02*
X1082571D01*
X1078209Y658499D02*
X1082571D01*
X1077335Y657599D02*
X1082571D01*
X1076329Y656699D02*
X1082571D01*
X1075151Y655799D02*
X1082571D01*
X1073737Y654899D02*
X1082571D01*
X1071952Y653999D02*
X1082571D01*
X1069401Y653099D02*
X1082571D01*
X337595Y652199D02*
X1082571D01*
X337595Y651299D02*
X1082571D01*
X337595Y650399D02*
X1082571D01*
X337595Y649499D02*
X1082571D01*
X337595Y648599D02*
X1082571D01*
X495090Y647699D02*
X1082571D01*
X495382Y646799D02*
X1082571D01*
X495382Y645899D02*
X1082571D01*
X495382Y644999D02*
X1082571D01*
X495382Y644099D02*
X1082571D01*
X495382Y643199D02*
X1082571D01*
X495382Y642299D02*
X1082571D01*
X495382Y641399D02*
X1082571D01*
X495382Y640499D02*
X1082571D01*
X495382Y639599D02*
X1082571D01*
X495382Y638699D02*
X1082571D01*
X495382Y637799D02*
X1082571D01*
X495382Y636899D02*
X1082571D01*
X495382Y635999D02*
X1082571D01*
X495382Y635099D02*
X1082571D01*
X495382Y634199D02*
X1082571D01*
X495382Y633299D02*
X1082571D01*
X495382Y632399D02*
X1082571D01*
X495382Y631499D02*
X1082571D01*
X495382Y630599D02*
X1082571D01*
X495382Y629699D02*
X1082571D01*
X495382Y628799D02*
X1082571D01*
X495382Y627899D02*
X1082571D01*
X381925Y626999D02*
X1082571D01*
X381025Y626099D02*
X1082571D01*
X380125Y625199D02*
X1082571D01*
X379225Y624299D02*
X1082571D01*
X378325Y623399D02*
X1082571D01*
X377425Y622499D02*
X1082571D01*
X376525Y621599D02*
X1082571D01*
X375437Y620699D02*
X1082571D01*
X337717Y619799D02*
X1082571D01*
X336817Y618899D02*
X1082571D01*
X335917Y617999D02*
X1082571D01*
X335017Y617099D02*
X1082571D01*
X334117Y616199D02*
X1082571D01*
X333217Y615299D02*
X1082571D01*
X332317Y614399D02*
X1082571D01*
X331417Y613499D02*
X1082571D01*
X330517Y612599D02*
X1082571D01*
X329617Y611699D02*
X1082571D01*
X328717Y610799D02*
X1082571D01*
X327817Y609899D02*
X1082571D01*
X326917Y608999D02*
X1082571D01*
X326017Y608099D02*
X1082571D01*
X325117Y607199D02*
X1082571D01*
X324217Y606299D02*
X1082571D01*
X299854Y605399D02*
X1082571D01*
X299704Y604499D02*
X1082571D01*
X299646Y603599D02*
X1082571D01*
X299395Y602699D02*
X1082571D01*
X298912Y601799D02*
X1082571D01*
X298078Y600899D02*
X1082571D01*
X296207Y599999D02*
X1082571D01*
X101681Y599099D02*
X1082571D01*
X101681Y598199D02*
X1082571D01*
X101681Y597299D02*
X1082571D01*
X166357Y596399D02*
X1082571D01*
X168535Y595499D02*
X1082571D01*
X169612Y594599D02*
X1082571D01*
X170324Y593699D02*
X1082571D01*
X170808Y592799D02*
X1082571D01*
X171121Y591899D02*
X1082571D01*
X171289Y590999D02*
X1082571D01*
X171323Y590099D02*
X1082571D01*
X171226Y589199D02*
X1082571D01*
X170990Y588299D02*
X1082571D01*
X170599Y587399D02*
X1082571D01*
X337587Y586499D02*
X1082571D01*
X339161Y585599D02*
X1082571D01*
X339936Y584699D02*
X1082571D01*
X340384Y583799D02*
X1082571D01*
X340609Y582899D02*
X1082571D01*
X340642Y581999D02*
X1082571D01*
X340490Y581099D02*
X1082571D01*
X340131Y580199D02*
X1082571D01*
X339496Y579299D02*
X1082571D01*
X338352Y578399D02*
X1082571D01*
X334788Y577499D02*
X1082571D01*
X333888Y576599D02*
X1082571D01*
X332988Y575699D02*
X1082571D01*
X332088Y574799D02*
X1082571D01*
X331188Y573899D02*
X1082571D01*
X330288Y572999D02*
X1082571D01*
X329388Y572099D02*
X1082571D01*
X328488Y571199D02*
X1082571D01*
X328354Y570299D02*
X1082571D01*
X328354Y569399D02*
X1082571D01*
X328354Y568499D02*
X1082571D01*
X328354Y567599D02*
X1082571D01*
X328354Y566699D02*
X1082571D01*
X328354Y565799D02*
X1082571D01*
X328354Y564899D02*
X1082571D01*
X328354Y563999D02*
X1082571D01*
X328354Y563099D02*
X1082571D01*
X328354Y562199D02*
X1082571D01*
X328354Y561299D02*
X1082571D01*
X328354Y560399D02*
X1082571D01*
X328354Y559499D02*
X1082571D01*
X328354Y558599D02*
X1082571D01*
X328354Y557699D02*
X1082571D01*
X328354Y556799D02*
X1082571D01*
X849726Y555899D02*
X1082571D01*
X852062Y554999D02*
X1082571D01*
X853608Y554099D02*
X1082571D01*
X854795Y553199D02*
X1082571D01*
X855756Y552299D02*
X1082571D01*
X856553Y551399D02*
X1082571D01*
X857221Y550499D02*
X1082571D01*
X857782Y549599D02*
X1082571D01*
X858252Y548699D02*
X1082571D01*
X858640Y547799D02*
X1082571D01*
X858953Y546899D02*
X1082571D01*
X859198Y545999D02*
X1082571D01*
X859377Y545099D02*
X1082571D01*
X859494Y544199D02*
X1082571D01*
X859550Y543299D02*
X1082571D01*
X859545Y542399D02*
X1082571D01*
X859481Y541499D02*
X1082571D01*
X859355Y540599D02*
X1082571D01*
X859167Y539699D02*
X1082571D01*
X858912Y538799D02*
X1082571D01*
X858589Y537899D02*
X1082571D01*
X858190Y536999D02*
X1082571D01*
X857708Y536099D02*
X1082571D01*
X857132Y535199D02*
X1082571D01*
X856447Y534299D02*
X1082571D01*
X855629Y533399D02*
X1082571D01*
X854640Y532499D02*
X1082571D01*
X853413Y531599D02*
X1082571D01*
X851794Y530699D02*
X1082571D01*
X849232Y529799D02*
X1082571D01*
X101681Y528899D02*
X1082571D01*
X750755Y527999D02*
X1082571D01*
X751255Y527099D02*
X1082571D01*
X751287Y526199D02*
X1082571D01*
X751287Y525299D02*
X1082571D01*
X751287Y524399D02*
X1082571D01*
X751287Y523499D02*
X1082571D01*
X751287Y522599D02*
X1082571D01*
X751287Y521699D02*
X1082571D01*
X751287Y520799D02*
X1082571D01*
X751287Y519899D02*
X1082571D01*
X751287Y518999D02*
X1082571D01*
X751287Y518099D02*
X1082571D01*
X751287Y517199D02*
X1082571D01*
X751287Y516299D02*
X1082571D01*
X751287Y515399D02*
X1082571D01*
X751287Y514499D02*
X1082571D01*
X751287Y513599D02*
X1082571D01*
X751287Y512699D02*
X1082571D01*
X751287Y511799D02*
X1082571D01*
X751287Y510899D02*
X1082571D01*
X751287Y509999D02*
X1082571D01*
X751287Y509099D02*
X1082571D01*
X751287Y508199D02*
X1082571D01*
X751287Y507299D02*
X1082571D01*
X751287Y506399D02*
X1082571D01*
X751287Y505499D02*
X1082571D01*
X751287Y504599D02*
X1082571D01*
X751287Y503699D02*
X1082571D01*
X751287Y502799D02*
X1082571D01*
X751287Y501899D02*
X1082571D01*
X751287Y500999D02*
X1082571D01*
X751287Y500099D02*
X1082571D01*
X751287Y499199D02*
X1082571D01*
X751287Y498299D02*
X1082571D01*
X751287Y497399D02*
X1082571D01*
X751287Y496499D02*
X1082571D01*
X751287Y495599D02*
X1082571D01*
X751287Y494699D02*
X1082571D01*
X751287Y493799D02*
X1082571D01*
X751287Y492899D02*
X1082571D01*
X751287Y491999D02*
X1082571D01*
X751163Y491099D02*
X1082571D01*
X750295Y490199D02*
X1082571D01*
X713723Y489299D02*
X1082571D01*
X712823Y488399D02*
X1082571D01*
X711923Y487499D02*
X1082571D01*
X711023Y486599D02*
X1082571D01*
X710123Y485699D02*
X1082571D01*
X709555Y484799D02*
X1082571D01*
X709555Y483899D02*
X1082571D01*
X709555Y482999D02*
X1082571D01*
X709555Y482099D02*
X1082571D01*
X709555Y481199D02*
X1082571D01*
X709555Y480299D02*
X1082571D01*
X709555Y479399D02*
X1082571D01*
X709555Y478499D02*
X1082571D01*
X709555Y477599D02*
X1082571D01*
X709555Y476699D02*
X1082571D01*
X709555Y475799D02*
X1082571D01*
X709555Y474899D02*
X1082571D01*
X709555Y473999D02*
X1082571D01*
X709555Y473099D02*
X1082571D01*
X709555Y472199D02*
X1082571D01*
X709555Y471299D02*
X1082571D01*
X709555Y470399D02*
X1082571D01*
X709555Y469499D02*
X1082571D01*
X709555Y468599D02*
X1082571D01*
X709555Y467699D02*
X1082571D01*
X709555Y466799D02*
X1082571D01*
X709555Y465899D02*
X1082571D01*
X709555Y464999D02*
X1082571D01*
X709555Y464099D02*
X1082571D01*
X709555Y463199D02*
X1082571D01*
X709555Y462299D02*
X1082571D01*
X709555Y461399D02*
X1082571D01*
X709555Y460499D02*
X1082571D01*
X709555Y459599D02*
X1082571D01*
X709555Y458699D02*
X1082571D01*
X709555Y457799D02*
X1082571D01*
X709555Y456899D02*
X1082571D01*
X709555Y455999D02*
X1082571D01*
X709555Y455099D02*
X1082571D01*
X709555Y454199D02*
X1082571D01*
X709555Y453299D02*
X1082571D01*
X709555Y452399D02*
X1082571D01*
X709555Y451499D02*
X1082571D01*
X709555Y450599D02*
X1082571D01*
X709555Y449699D02*
X1082571D01*
X709555Y448799D02*
X1082571D01*
X709555Y447899D02*
X1082571D01*
X709555Y446999D02*
X1082571D01*
X709555Y446099D02*
X1082571D01*
X709555Y445199D02*
X1082571D01*
X709555Y444299D02*
X1082571D01*
X709555Y443399D02*
X1082571D01*
X709555Y442499D02*
X1082571D01*
X709555Y441599D02*
X1082571D01*
X709555Y440699D02*
X1082571D01*
X709555Y439799D02*
X1082571D01*
X709555Y438899D02*
X1082571D01*
X709555Y437999D02*
X1082571D01*
X709555Y437099D02*
X1082571D01*
X709555Y436199D02*
X1082571D01*
X709555Y435299D02*
X1082571D01*
X709555Y434399D02*
X1082571D01*
X709555Y433499D02*
X1082571D01*
X709555Y432599D02*
X1082571D01*
X709555Y431699D02*
X1082571D01*
X709555Y430799D02*
X1082571D01*
X709555Y429899D02*
X1082571D01*
X709555Y428999D02*
X1082571D01*
X709555Y428099D02*
X1082571D01*
X709555Y427199D02*
X1082571D01*
X709555Y426299D02*
X1082571D01*
X709555Y425399D02*
X1082571D01*
X709555Y424499D02*
X1082571D01*
X709555Y423599D02*
X1082571D01*
X709555Y422699D02*
X1082571D01*
X709555Y421799D02*
X1082571D01*
X709555Y420899D02*
X1082571D01*
X709555Y419999D02*
X1082571D01*
X709555Y419099D02*
X1082571D01*
X709555Y418199D02*
X1082571D01*
X709555Y417299D02*
X1082571D01*
X709555Y416399D02*
X1082571D01*
X709555Y415499D02*
X1082571D01*
X709555Y414599D02*
X1082571D01*
X709555Y413699D02*
X1082571D01*
X709555Y412799D02*
X1082571D01*
X709555Y411899D02*
X1082571D01*
X709555Y410999D02*
X1082571D01*
X709555Y410099D02*
X1082571D01*
X709555Y409199D02*
X1082571D01*
X709555Y408299D02*
X1082571D01*
X709555Y407399D02*
X1082571D01*
X709555Y406499D02*
X1082571D01*
X709555Y405599D02*
X1082571D01*
X709555Y404699D02*
X1082571D01*
X709555Y403799D02*
X1082571D01*
X709555Y402899D02*
X1082571D01*
X709555Y401999D02*
X1082571D01*
X709555Y401099D02*
X1082571D01*
X709555Y400199D02*
X1082571D01*
X709555Y399299D02*
X1082571D01*
X709555Y398399D02*
X1082571D01*
X709555Y397499D02*
X1082571D01*
X709555Y396599D02*
X1082571D01*
X709555Y395699D02*
X1082571D01*
X709555Y394799D02*
X1082571D01*
X709555Y393899D02*
X1082571D01*
X709555Y392999D02*
X1082571D01*
X709555Y392099D02*
X1082571D01*
X709555Y391199D02*
X1082571D01*
X709555Y390299D02*
X1082571D01*
X709555Y389399D02*
X1082571D01*
X709555Y388499D02*
X1082571D01*
X709555Y387599D02*
X1082571D01*
X709555Y386699D02*
X1082571D01*
X709555Y385799D02*
X1082571D01*
X709555Y384899D02*
X1082571D01*
X709555Y383999D02*
X1082571D01*
X709555Y383099D02*
X1082571D01*
X709555Y382199D02*
X1082571D01*
X709555Y381299D02*
X1082571D01*
X709555Y380399D02*
X1082571D01*
X709555Y379499D02*
X1082571D01*
X709555Y378599D02*
X1082571D01*
X709555Y377699D02*
X1082571D01*
X709555Y376799D02*
X1082571D01*
X709555Y375899D02*
X1082571D01*
X709555Y374999D02*
X1082571D01*
X709555Y374099D02*
X1082571D01*
X709555Y373199D02*
X1082571D01*
X709555Y372299D02*
X1082571D01*
X709555Y371399D02*
X1082571D01*
X709555Y370499D02*
X1082571D01*
X709555Y369599D02*
X1082571D01*
X709555Y368699D02*
X1082571D01*
X709555Y367799D02*
X1082571D01*
X709555Y366899D02*
X1082571D01*
X709555Y365999D02*
X1082571D01*
X709555Y365099D02*
X1082571D01*
X709555Y364199D02*
X1082571D01*
X709555Y363299D02*
X1082571D01*
X709555Y362399D02*
X1082571D01*
X709555Y361499D02*
X1082571D01*
X709555Y360599D02*
X1082571D01*
X709549Y359699D02*
X1082571D01*
X709192Y358799D02*
X1082571D01*
X465768Y357899D02*
X1082571D01*
X466596Y356999D02*
X1082571D01*
X467118Y356099D02*
X1082571D01*
X467432Y355199D02*
X1082571D01*
X467574Y354299D02*
X1082571D01*
X467559Y353399D02*
X1082571D01*
X467385Y352499D02*
X1082571D01*
X467034Y351599D02*
X1082571D01*
X466462Y350699D02*
X1082571D01*
X465551Y349799D02*
X1082571D01*
X463744Y348899D02*
X1082571D01*
X405815Y347999D02*
X1082571D01*
X405791Y347099D02*
X1082571D01*
X405724Y346199D02*
X1082571D01*
X405611Y345299D02*
X1082571D01*
X405453Y344399D02*
X1082571D01*
X405248Y343499D02*
X1082571D01*
X404995Y342599D02*
X1082571D01*
X404692Y341699D02*
X1082571D01*
X404335Y340799D02*
X1082571D01*
X403922Y339899D02*
X1082571D01*
X403447Y338999D02*
X1082571D01*
X402906Y338099D02*
X1082571D01*
X402291Y337199D02*
X1082571D01*
X401593Y336299D02*
X1082571D01*
X400798Y335399D02*
X1082571D01*
X399888Y334499D02*
X1082571D01*
X398836Y333599D02*
X1082571D01*
X397598Y332699D02*
X1082571D01*
X848362Y331799D02*
X1082571D01*
X851393Y330899D02*
X1082571D01*
X853128Y329999D02*
X1082571D01*
X854417Y329099D02*
X1082571D01*
X855446Y328199D02*
X1082571D01*
X856295Y327299D02*
X1082571D01*
X857004Y326399D02*
X1082571D01*
X857600Y325499D02*
X1082571D01*
X858100Y324599D02*
X1082571D01*
X858515Y323699D02*
X1082571D01*
X858853Y322799D02*
X1082571D01*
X859121Y321899D02*
X1082571D01*
X859322Y320999D02*
X1082571D01*
X859461Y320099D02*
X1082571D01*
X859537Y319199D02*
X1082571D01*
X859554Y318299D02*
X1082571D01*
X859510Y317399D02*
X1082571D01*
X859405Y316499D02*
X1082571D01*
X859239Y315599D02*
X1082571D01*
X859007Y314699D02*
X1082571D01*
X858708Y313799D02*
X1082571D01*
X858336Y312899D02*
X1082571D01*
X857883Y311999D02*
X1082571D01*
X857341Y311099D02*
X1082571D01*
X856696Y310199D02*
X1082571D01*
X855927Y309299D02*
X1082571D01*
X855003Y308399D02*
X1082571D01*
X853868Y307499D02*
X1082571D01*
X852411Y306599D02*
X1082571D01*
X850313Y305699D02*
X1082571D01*
X101681Y304799D02*
X1082571D01*
X101681Y303899D02*
X1082571D01*
X101681Y302999D02*
X1082571D01*
X101681Y302099D02*
X1082571D01*
X101681Y301199D02*
X1082571D01*
X101681Y300299D02*
X1082571D01*
X101681Y299399D02*
X1082571D01*
X101681Y298499D02*
X1082571D01*
X101681Y297599D02*
X1082571D01*
X101681Y296699D02*
X1082571D01*
X101681Y295799D02*
X1082571D01*
X318399Y294899D02*
X1082571D01*
X320186Y293999D02*
X1082571D01*
X321178Y293099D02*
X1082571D01*
X321842Y292199D02*
X1082571D01*
X322293Y291299D02*
X1082571D01*
X322579Y290399D02*
X1082571D01*
X322722Y289499D02*
X1082571D01*
X322733Y288599D02*
X1082571D01*
X322611Y287699D02*
X1082571D01*
X322350Y286799D02*
X1082571D01*
X321928Y285899D02*
X1082571D01*
X321303Y284999D02*
X1082571D01*
X320377Y284099D02*
X1082571D01*
X318808Y283199D02*
X1082571D01*
X101681Y282299D02*
X1082571D01*
X101681Y281399D02*
X1082571D01*
X101681Y280499D02*
X1082571D01*
X101681Y279599D02*
X1082571D01*
X101681Y278699D02*
X1082571D01*
X101681Y277799D02*
X1082571D01*
X101681Y276899D02*
X1082571D01*
X101681Y275999D02*
X1082571D01*
X101681Y275099D02*
X1082571D01*
X101681Y274199D02*
X1082571D01*
X101681Y273299D02*
X1082571D01*
X101681Y272399D02*
X1082571D01*
X101681Y271499D02*
X1082571D01*
X101681Y270599D02*
X1082571D01*
X101681Y269699D02*
X1082571D01*
X101681Y268799D02*
X1082571D01*
X101681Y267899D02*
X1082571D01*
X101681Y266999D02*
X1082571D01*
X101681Y266099D02*
X1082571D01*
X101681Y265199D02*
X1082571D01*
X101681Y264299D02*
X1082571D01*
X101681Y263399D02*
X1082571D01*
X101681Y262499D02*
X1082571D01*
X101681Y261599D02*
X1082571D01*
X101681Y260699D02*
X1082571D01*
X101681Y259799D02*
X1082571D01*
X101681Y258899D02*
X1082571D01*
X101681Y257999D02*
X1082571D01*
X101681Y257099D02*
X1082571D01*
X101681Y256199D02*
X1082571D01*
X101681Y255299D02*
X1082571D01*
X101681Y254399D02*
X1082571D01*
X101681Y253499D02*
X1082571D01*
X101681Y252599D02*
X1082571D01*
X101681Y251699D02*
X1082571D01*
X101681Y250799D02*
X1082571D01*
X101681Y249899D02*
X1082571D01*
X101681Y248999D02*
X1082571D01*
X101681Y248099D02*
X1082571D01*
X101681Y247199D02*
X1082571D01*
X101681Y246299D02*
X1082571D01*
X101681Y245399D02*
X1082571D01*
X101681Y244499D02*
X1082571D01*
X101681Y243599D02*
X1082571D01*
X101681Y242699D02*
X1082571D01*
X101681Y241799D02*
X1082571D01*
X101681Y240899D02*
X1082571D01*
X333202Y239999D02*
X1082571D01*
X335613Y239099D02*
X1082571D01*
X336723Y238199D02*
X1082571D01*
X337452Y237299D02*
X1082571D01*
X337949Y236399D02*
X1082571D01*
X338272Y235499D02*
X1082571D01*
X338448Y234599D02*
X1082571D01*
X338490Y233699D02*
X1082571D01*
X338401Y232799D02*
X1082571D01*
X338175Y231899D02*
X1082571D01*
X337794Y230999D02*
X1082571D01*
X337224Y230099D02*
X1082571D01*
X336387Y229199D02*
X1082571D01*
X335047Y228299D02*
X1082571D01*
X101681Y227399D02*
X1082571D01*
X101681Y226499D02*
X1082571D01*
X101681Y225599D02*
X1082571D01*
X101681Y224699D02*
X1082571D01*
X101681Y223799D02*
X1082571D01*
X101681Y222899D02*
X1082571D01*
X101681Y221999D02*
X1082571D01*
X101681Y221099D02*
X1082571D01*
X101681Y220199D02*
X1082571D01*
X101681Y219299D02*
X1082571D01*
X101681Y218399D02*
X1082571D01*
X101681Y217499D02*
X1082571D01*
X101681Y216599D02*
X1082571D01*
X101681Y215699D02*
X1082571D01*
X101681Y214799D02*
X1082571D01*
X101681Y213899D02*
X1082571D01*
X101681Y212999D02*
X1082571D01*
X101681Y212099D02*
X1082571D01*
X101681Y211199D02*
X1082571D01*
X101681Y210299D02*
X1082571D01*
X101681Y209399D02*
X1082571D01*
X101681Y208499D02*
X1082571D01*
X101681Y207599D02*
X1082571D01*
X101681Y206699D02*
X1082571D01*
X101681Y205799D02*
X1082571D01*
X101681Y204899D02*
X1082571D01*
X101681Y203999D02*
X1082571D01*
X101681Y203099D02*
X1082571D01*
X101681Y202199D02*
X1082571D01*
X101681Y201299D02*
X1082571D01*
X101681Y200399D02*
X1082571D01*
X101681Y199499D02*
X1082571D01*
X101681Y198599D02*
X1082571D01*
X101681Y197699D02*
X1082571D01*
X101681Y196799D02*
X1082571D01*
X101681Y195899D02*
X1082571D01*
X101681Y194999D02*
X1082571D01*
X101681Y194099D02*
X1082571D01*
X101681Y193199D02*
X1082571D01*
X101681Y192299D02*
X1082571D01*
X101681Y191399D02*
X1082571D01*
X101681Y190499D02*
X1082571D01*
X101681Y189599D02*
X1082571D01*
X101681Y188699D02*
X1082571D01*
X101681Y187799D02*
X1082571D01*
X101681Y186899D02*
X1082571D01*
X101681Y185999D02*
X1082571D01*
X196668Y185099D02*
X1082571D01*
X196957Y184199D02*
X1082571D01*
X196957Y183299D02*
X1082571D01*
X196957Y182399D02*
X1082571D01*
X196957Y181499D02*
X1082571D01*
X196957Y180599D02*
X1082571D01*
X196957Y179699D02*
X1082571D01*
X196957Y178799D02*
X1082571D01*
X196957Y177899D02*
X1082571D01*
X196957Y176999D02*
X1082571D01*
X196957Y176099D02*
X1082571D01*
X196957Y175199D02*
X1082571D01*
X196957Y174299D02*
X1082571D01*
X196957Y173399D02*
X1082571D01*
X196957Y172499D02*
X1082571D01*
X196988Y171599D02*
X1082571D01*
X199335Y170699D02*
X1082571D01*
X200693Y169799D02*
X1082571D01*
X201539Y168899D02*
X1082571D01*
X202114Y167999D02*
X1082571D01*
X202498Y167099D02*
X1082571D01*
X202728Y166199D02*
X1082571D01*
X202820Y165299D02*
X1082571D01*
X202781Y164399D02*
X1082571D01*
X202608Y163499D02*
X1082571D01*
X202289Y162599D02*
X1082571D01*
X201796Y161699D02*
X1082571D01*
X201074Y160799D02*
X1082571D01*
X199977Y159899D02*
X1082571D01*
X197663Y158999D02*
X1082571D01*
X194988Y158099D02*
X1082571D01*
X194988Y157199D02*
X1082571D01*
X194988Y156299D02*
X1082571D01*
X194988Y155399D02*
X1082571D01*
X194988Y154499D02*
X1082571D01*
X194988Y153599D02*
X1082571D01*
X194988Y152699D02*
X1082571D01*
X194988Y151799D02*
X1082571D01*
X198880Y150899D02*
X1082571D01*
X200452Y149999D02*
X1082571D01*
X201379Y149099D02*
X1082571D01*
X202005Y148199D02*
X1082571D01*
X202427Y147299D02*
X1082571D01*
X202689Y146399D02*
X1082571D01*
X202811Y145499D02*
X1082571D01*
X202801Y144599D02*
X1082571D01*
X202658Y143699D02*
X1082571D01*
X202373Y142799D02*
X1082571D01*
X201923Y141899D02*
X1082571D01*
X201259Y140999D02*
X1082571D01*
X200268Y140099D02*
X1082571D01*
X198487Y139199D02*
X1082571D01*
X101681Y138299D02*
X1082571D01*
X1069595Y137399D02*
X1082571D01*
X1072074Y136499D02*
X1082571D01*
X1073830Y135599D02*
X1082571D01*
X1075227Y134699D02*
X1082571D01*
X1076393Y133799D02*
X1082571D01*
X1077391Y132899D02*
X1082571D01*
X1078257Y131999D02*
X1082571D01*
X1079016Y131099D02*
X1082571D01*
X1079684Y130199D02*
X1082571D01*
X1080271Y129299D02*
X1082571D01*
X1080788Y128399D02*
X1082571D01*
X1081240Y127499D02*
X1082571D01*
X1081611Y663899D02*
X1082530D01*
X1081638Y126599D02*
X1082503D01*
X392236Y653099D02*
X1059733D01*
X695579Y137399D02*
X1059539D01*
X697230Y102299D02*
X1057888D01*
X394096Y688199D02*
X1057872D01*
X394787Y653999D02*
X1057182D01*
X698058Y136499D02*
X1057060D01*
X698752Y103199D02*
X1056366D01*
X395710Y687299D02*
X1056259D01*
X396572Y654899D02*
X1055397D01*
X699815Y135599D02*
X1055304D01*
X700355Y104099D02*
X1054763D01*
X397291Y686399D02*
X1054678D01*
X397986Y655799D02*
X1053983D01*
X701212Y134699D02*
X1053907D01*
X701658Y104999D02*
X1053460D01*
X398579Y685499D02*
X1053389D01*
X399163Y656699D02*
X1052805D01*
X702377Y133799D02*
X1052741D01*
X702757Y105899D02*
X1052361D01*
X399668Y684599D02*
X1052300D01*
X400170Y657599D02*
X1051799D01*
X703375Y132899D02*
X1051743D01*
X703704Y106799D02*
X1051414D01*
X400607Y683699D02*
X1051362D01*
X401043Y658499D02*
X1050925D01*
X704242Y131999D02*
X1050877D01*
X704529Y107699D02*
X1050589D01*
X401425Y682799D02*
X1050543D01*
X401808Y659399D02*
X1050160D01*
X705000Y131099D02*
X1050118D01*
X705253Y108599D02*
X1049865D01*
X402144Y681899D02*
X1049825D01*
X402481Y660299D02*
X1049488D01*
X705668Y130199D02*
X1049450D01*
X705890Y109499D02*
X1049228D01*
X402776Y680999D02*
X1049192D01*
X403073Y661199D02*
X1048895D01*
X706256Y129299D02*
X1048862D01*
X706451Y110399D02*
X1048667D01*
X403333Y680099D02*
X1048635D01*
X403594Y662099D02*
X1048375D01*
X706772Y128399D02*
X1048346D01*
X706944Y111299D02*
X1048174D01*
X403822Y679199D02*
X1048147D01*
X404050Y662999D02*
X1047919D01*
X707225Y127499D02*
X1047894D01*
X707374Y112199D02*
X1047744D01*
X404248Y678299D02*
X1047720D01*
X404446Y663899D02*
X1047523D01*
X707617Y126599D02*
X1047501D01*
X707746Y113099D02*
X1047372D01*
X404617Y677399D02*
X1047351D01*
X404787Y664799D02*
X1047182D01*
X707955Y125699D02*
X1047163D01*
X708065Y113999D02*
X1047054D01*
X404932Y676499D02*
X1047036D01*
X405075Y665699D02*
X1046893D01*
X708240Y124799D02*
X1046878D01*
X708332Y114899D02*
X1046786D01*
X405196Y675599D02*
X1046772D01*
X405314Y666599D02*
X1046655D01*
X708476Y123899D02*
X1046642D01*
X708550Y115799D02*
X1046568D01*
X405412Y674699D02*
X1046557D01*
X405504Y667499D02*
X1046464D01*
X708664Y122999D02*
X1046454D01*
X708721Y116699D02*
X1046397D01*
X405580Y673799D02*
X1046389D01*
X405649Y668399D02*
X1046320D01*
X708806Y122099D02*
X1046312D01*
X708846Y117599D02*
X1046272D01*
X405702Y672899D02*
X1046266D01*
X405748Y669299D02*
X1046220D01*
X708902Y121199D02*
X1046216D01*
X708926Y118499D02*
X1046192D01*
X405780Y671999D02*
X1046188D01*
X405803Y670199D02*
X1046166D01*
X708954Y120299D02*
X1046164D01*
X708962Y119399D02*
X1046156D01*
X405814Y671099D02*
X1046155D01*
X553087Y331799D02*
X843764D01*
X553956Y529799D02*
X842894D01*
X554451Y555899D02*
X842400D01*
X555038Y305699D02*
X841813D01*
X556117Y330899D02*
X840733D01*
X556518Y530699D02*
X840332D01*
X556786Y554999D02*
X840064D01*
X557136Y306599D02*
X839715D01*
X557852Y329999D02*
X838998D01*
X558137Y531599D02*
X838713D01*
X558332Y554099D02*
X838518D01*
X558593Y307499D02*
X838258D01*
X559141Y329099D02*
X837709D01*
X559365Y532499D02*
X837486D01*
X559520Y553199D02*
X837331D01*
X559727Y308399D02*
X837123D01*
X560171Y328199D02*
X836680D01*
X560353Y533399D02*
X836497D01*
X560480Y552299D02*
X836370D01*
X560652Y309299D02*
X836199D01*
X561019Y327299D02*
X835831D01*
X561171Y534299D02*
X835679D01*
X561277Y551399D02*
X835573D01*
X561420Y310199D02*
X835430D01*
X561729Y326399D02*
X835122D01*
X561856Y535199D02*
X834994D01*
X561945Y550499D02*
X834905D01*
X562066Y311099D02*
X834785D01*
X562325Y325499D02*
X834526D01*
X562432Y536099D02*
X834418D01*
X562507Y549599D02*
X834344D01*
X562608Y311999D02*
X834243D01*
X562825Y324599D02*
X834026D01*
X562914Y536999D02*
X833936D01*
X562976Y548699D02*
X833874D01*
X563060Y312899D02*
X833790D01*
X563239Y323699D02*
X833611D01*
X563313Y537899D02*
X833537D01*
X563364Y547799D02*
X833486D01*
X563433Y313799D02*
X833418D01*
X563578Y322799D02*
X833273D01*
X563637Y538799D02*
X833214D01*
X563678Y546899D02*
X833173D01*
X563732Y314699D02*
X833119D01*
X563845Y321899D02*
X833005D01*
X563891Y539699D02*
X832959D01*
X563922Y545999D02*
X832928D01*
X563963Y315599D02*
X832887D01*
X564047Y320999D02*
X832803D01*
X564080Y540599D02*
X832771D01*
X564101Y545099D02*
X832749D01*
X564130Y316499D02*
X832721D01*
X564185Y320099D02*
X832665D01*
X564205Y541499D02*
X832645D01*
X564218Y544199D02*
X832632D01*
X564234Y317399D02*
X832616D01*
X564262Y319199D02*
X832589D01*
X564270Y542399D02*
X832581D01*
X564274Y543299D02*
X832576D01*
X564278Y318299D02*
X832572D01*
X124713Y137399D02*
X685523D01*
X126364Y102299D02*
X683873D01*
X127192Y136499D02*
X683044D01*
X127886Y103199D02*
X682350D01*
X128948Y135599D02*
X681288D01*
X129489Y104099D02*
X680747D01*
X130345Y134699D02*
X679891D01*
X130792Y104999D02*
X679444D01*
X131511Y133799D02*
X678725D01*
X131891Y105899D02*
X678345D01*
X132509Y132899D02*
X677727D01*
X132838Y106799D02*
X677398D01*
X133375Y131999D02*
X676861D01*
X133663Y107699D02*
X676573D01*
X134134Y131099D02*
X676102D01*
X134387Y108599D02*
X675849D01*
X134802Y130199D02*
X675434D01*
X135024Y109499D02*
X675212D01*
X135390Y129299D02*
X674847D01*
X135585Y110399D02*
X674651D01*
X135906Y128399D02*
X674330D01*
X136078Y111299D02*
X674158D01*
X136358Y127499D02*
X673878D01*
X136508Y112199D02*
X673728D01*
X136751Y126599D02*
X673485D01*
X136880Y113099D02*
X673356D01*
X137089Y125699D02*
X673147D01*
X137198Y113999D02*
X673038D01*
X137374Y124799D02*
X672862D01*
X137465Y114899D02*
X672771D01*
X137610Y123899D02*
X672626D01*
X137684Y115799D02*
X672553D01*
X137798Y122999D02*
X672438D01*
X137855Y116699D02*
X672382D01*
X137940Y122099D02*
X672297D01*
X137980Y117599D02*
X672256D01*
X138036Y121199D02*
X672200D01*
X138060Y118499D02*
X672176D01*
X138088Y120299D02*
X672148D01*
X138096Y119399D02*
X672140D01*
X101681Y527999D02*
X664205D01*
X464275Y358799D02*
X664037D01*
X101681Y527099D02*
X663705D01*
X455417Y359699D02*
X663679D01*
X101681Y526199D02*
X663673D01*
X101681Y525299D02*
X663673D01*
X454034Y524399D02*
X663673D01*
X455663Y523499D02*
X663673D01*
X456530Y522599D02*
X663673D01*
X457077Y521699D02*
X663673D01*
X457409Y520799D02*
X663673D01*
X457567Y519899D02*
X663673D01*
X457567Y518999D02*
X663673D01*
X457409Y518099D02*
X663673D01*
X457077Y517199D02*
X663673D01*
X456530Y516299D02*
X663673D01*
X455662Y515399D02*
X663673D01*
X463701Y514499D02*
X663673D01*
X465536Y513599D02*
X663673D01*
X466453Y512699D02*
X663673D01*
X467028Y511799D02*
X663673D01*
X467381Y510899D02*
X663673D01*
X467558Y509999D02*
X663673D01*
X467575Y509099D02*
X663673D01*
X467435Y508199D02*
X663673D01*
X467124Y507299D02*
X663673D01*
X466604Y506399D02*
X663673D01*
X465781Y505499D02*
X663673D01*
X464304Y504599D02*
X663673D01*
X446012Y503699D02*
X663673D01*
X446012Y502799D02*
X663673D01*
X446012Y501899D02*
X663673D01*
X446012Y500999D02*
X663673D01*
X446012Y500099D02*
X663673D01*
X446012Y499199D02*
X663673D01*
X446012Y498299D02*
X663673D01*
X446012Y497399D02*
X663673D01*
X446012Y496499D02*
X663673D01*
X446012Y495599D02*
X663673D01*
X446012Y494699D02*
X663673D01*
X446012Y493799D02*
X663673D01*
X446012Y492899D02*
X663673D01*
X446012Y491999D02*
X663673D01*
X446012Y491099D02*
X663673D01*
X446012Y490199D02*
X663673D01*
X446012Y489299D02*
X663673D01*
X446012Y488399D02*
X663673D01*
X446012Y487499D02*
X663673D01*
X446012Y486599D02*
X663673D01*
X446012Y485699D02*
X663673D01*
X446012Y484799D02*
X663673D01*
X446012Y483899D02*
X663673D01*
X446012Y482999D02*
X663673D01*
X446012Y482099D02*
X663673D01*
X446012Y481199D02*
X663673D01*
X446012Y480299D02*
X663673D01*
X446012Y479399D02*
X663673D01*
X446012Y478499D02*
X663673D01*
X446012Y477599D02*
X663673D01*
X446012Y476699D02*
X663673D01*
X446012Y475799D02*
X663673D01*
X446012Y474899D02*
X663673D01*
X446012Y473999D02*
X663673D01*
X446012Y473099D02*
X663673D01*
X446012Y472199D02*
X663673D01*
X446012Y471299D02*
X663673D01*
X446012Y470399D02*
X663673D01*
X446012Y469499D02*
X663673D01*
X446012Y468599D02*
X663673D01*
X446012Y467699D02*
X663673D01*
X446012Y466799D02*
X663673D01*
X446012Y465899D02*
X663673D01*
X446012Y464999D02*
X663673D01*
X446012Y464099D02*
X663673D01*
X446012Y463199D02*
X663673D01*
X446012Y462299D02*
X663673D01*
X446012Y461399D02*
X663673D01*
X446012Y460499D02*
X663673D01*
X446012Y459599D02*
X663673D01*
X446012Y458699D02*
X663673D01*
X446012Y457799D02*
X663673D01*
X446012Y456899D02*
X663673D01*
X446012Y455999D02*
X663673D01*
X446012Y455099D02*
X663673D01*
X446012Y454199D02*
X663673D01*
X446012Y453299D02*
X663673D01*
X446012Y452399D02*
X663673D01*
X446012Y451499D02*
X663673D01*
X446012Y450599D02*
X663673D01*
X446012Y449699D02*
X663673D01*
X446012Y448799D02*
X663673D01*
X446012Y447899D02*
X663673D01*
X446012Y446999D02*
X663673D01*
X446012Y446099D02*
X663673D01*
X446012Y445199D02*
X663673D01*
X446012Y444299D02*
X663673D01*
X446012Y443399D02*
X663673D01*
X446012Y442499D02*
X663673D01*
X446012Y441599D02*
X663673D01*
X446012Y440699D02*
X663673D01*
X446012Y439799D02*
X663673D01*
X446012Y438899D02*
X663673D01*
X446012Y437999D02*
X663673D01*
X446012Y437099D02*
X663673D01*
X446012Y436199D02*
X663673D01*
X446012Y435299D02*
X663673D01*
X446012Y434399D02*
X663673D01*
X446012Y433499D02*
X663673D01*
X446012Y432599D02*
X663673D01*
X446012Y431699D02*
X663673D01*
X446012Y430799D02*
X663673D01*
X446012Y429899D02*
X663673D01*
X446012Y428999D02*
X663673D01*
X446012Y428099D02*
X663673D01*
X446012Y427199D02*
X663673D01*
X446012Y426299D02*
X663673D01*
X446012Y425399D02*
X663673D01*
X446012Y424499D02*
X663673D01*
X446012Y423599D02*
X663673D01*
X446012Y422699D02*
X663673D01*
X446012Y421799D02*
X663673D01*
X446012Y420899D02*
X663673D01*
X446012Y419999D02*
X663673D01*
X446012Y419099D02*
X663673D01*
X446012Y418199D02*
X663673D01*
X446012Y417299D02*
X663673D01*
X446012Y416399D02*
X663673D01*
X446012Y415499D02*
X663673D01*
X446012Y414599D02*
X663673D01*
X446012Y413699D02*
X663673D01*
X446012Y412799D02*
X663673D01*
X446012Y411899D02*
X663673D01*
X446012Y410999D02*
X663673D01*
X446012Y410099D02*
X663673D01*
X446012Y409199D02*
X663673D01*
X446012Y408299D02*
X663673D01*
X446012Y407399D02*
X663673D01*
X446012Y406499D02*
X663673D01*
X446012Y405599D02*
X663673D01*
X446012Y404699D02*
X663673D01*
X446012Y403799D02*
X663673D01*
X446012Y402899D02*
X663673D01*
X446012Y401999D02*
X663673D01*
X446012Y401099D02*
X663673D01*
X446012Y400199D02*
X663673D01*
X446012Y399299D02*
X663673D01*
X446012Y398399D02*
X663673D01*
X446012Y397499D02*
X663673D01*
X446012Y396599D02*
X663673D01*
X446012Y395699D02*
X663673D01*
X446012Y394799D02*
X663673D01*
X446012Y393899D02*
X663673D01*
X446012Y392999D02*
X663673D01*
X446012Y392099D02*
X663673D01*
X446012Y391199D02*
X663673D01*
X446012Y390299D02*
X663673D01*
X446012Y389399D02*
X663673D01*
X446012Y388499D02*
X663673D01*
X446012Y387599D02*
X663673D01*
X446012Y386699D02*
X663673D01*
X446012Y385799D02*
X663673D01*
X446012Y384899D02*
X663673D01*
X446012Y383999D02*
X663673D01*
X446012Y383099D02*
X663673D01*
X446012Y382199D02*
X663673D01*
X446012Y381299D02*
X663673D01*
X446012Y380399D02*
X663673D01*
X446012Y379499D02*
X663673D01*
X446012Y378599D02*
X663673D01*
X446012Y377699D02*
X663673D01*
X446012Y376799D02*
X663673D01*
X446012Y375899D02*
X663673D01*
X446012Y374999D02*
X663673D01*
X446012Y374099D02*
X663673D01*
X446012Y373199D02*
X663673D01*
X446012Y372299D02*
X663673D01*
X446012Y371399D02*
X663673D01*
X446012Y370499D02*
X663673D01*
X446012Y369599D02*
X663673D01*
X454512Y368699D02*
X663673D01*
X455881Y367799D02*
X663673D01*
X456666Y366899D02*
X663673D01*
X457163Y365999D02*
X663673D01*
X457456Y365099D02*
X663673D01*
X457580Y364199D02*
X663673D01*
X457547Y363299D02*
X663673D01*
X457355Y362399D02*
X663673D01*
X456983Y361499D02*
X663673D01*
X456381Y360599D02*
X663673D01*
X513717Y331799D02*
X548488D01*
X514586Y529799D02*
X547618D01*
X515081Y555899D02*
X547124D01*
X515667Y305699D02*
X546537D01*
X516747Y330899D02*
X545457D01*
X517148Y530699D02*
X545057D01*
X517416Y554999D02*
X544789D01*
X517766Y306599D02*
X544439D01*
X518482Y329999D02*
X543723D01*
X518767Y531599D02*
X543438D01*
X518962Y554099D02*
X543242D01*
X519223Y307499D02*
X542982D01*
X519771Y329099D02*
X542433D01*
X519995Y532499D02*
X542210D01*
X520149Y553199D02*
X542055D01*
X520357Y308399D02*
X541847D01*
X520801Y328199D02*
X541404D01*
X520983Y533399D02*
X541221D01*
X521110Y552299D02*
X541094D01*
X521281Y309299D02*
X540923D01*
X521649Y327299D02*
X540556D01*
X521801Y534299D02*
X540404D01*
X521907Y551399D02*
X540298D01*
X522050Y310199D02*
X540154D01*
X522359Y326399D02*
X539846D01*
X522486Y535199D02*
X539718D01*
X522575Y550499D02*
X539629D01*
X522696Y311099D02*
X539509D01*
X522955Y325499D02*
X539250D01*
X523062Y536099D02*
X539143D01*
X523137Y549599D02*
X539068D01*
X523238Y311999D02*
X538967D01*
X523454Y324599D02*
X538750D01*
X523544Y536999D02*
X538661D01*
X523606Y548699D02*
X538599D01*
X523690Y312899D02*
X538515D01*
X523869Y323699D02*
X538335D01*
X523943Y537899D02*
X538262D01*
X523994Y547799D02*
X538211D01*
X524062Y313799D02*
X538142D01*
X524208Y322799D02*
X537997D01*
X524267Y538799D02*
X537938D01*
X524307Y546899D02*
X537897D01*
X524362Y314699D02*
X537843D01*
X524475Y321899D02*
X537729D01*
X524521Y539699D02*
X537684D01*
X524552Y545999D02*
X537653D01*
X524593Y315599D02*
X537612D01*
X524677Y320999D02*
X537528D01*
X524709Y540599D02*
X537495D01*
X524731Y545099D02*
X537473D01*
X524760Y316499D02*
X537445D01*
X524815Y320099D02*
X537390D01*
X524835Y541499D02*
X537370D01*
X524848Y544199D02*
X537357D01*
X524864Y317399D02*
X537341D01*
X524892Y319199D02*
X537313D01*
X524900Y542399D02*
X537305D01*
X524904Y543299D02*
X537301D01*
X524908Y318299D02*
X537297D01*
X396093Y331799D02*
X509118D01*
X101681Y529799D02*
X508248D01*
X328354Y555899D02*
X507754D01*
X101681Y305699D02*
X507167D01*
X394148Y330899D02*
X506087D01*
X101681Y530699D02*
X505687D01*
X328354Y554999D02*
X505419D01*
X101681Y306599D02*
X505069D01*
X391126Y329999D02*
X504353D01*
X101681Y531599D02*
X504068D01*
X328354Y554099D02*
X503872D01*
X101681Y307499D02*
X503612D01*
X101681Y329099D02*
X503063D01*
X101681Y532499D02*
X502840D01*
X328354Y553199D02*
X502685D01*
X101681Y308399D02*
X502477D01*
X101681Y328199D02*
X502034D01*
X328555Y533399D02*
X501851D01*
X328354Y552299D02*
X501724D01*
X101681Y309299D02*
X501553D01*
X101681Y327299D02*
X501185D01*
X329491Y534299D02*
X501033D01*
X328354Y551399D02*
X500927D01*
X101681Y310199D02*
X500784D01*
X101681Y326399D02*
X500476D01*
X330029Y535199D02*
X500348D01*
X328354Y550499D02*
X500259D01*
X101681Y311099D02*
X500139D01*
X101681Y325499D02*
X499880D01*
X330321Y536099D02*
X499773D01*
X328354Y549599D02*
X499698D01*
X101681Y311999D02*
X499597D01*
X101681Y324599D02*
X499380D01*
X330415Y536999D02*
X499291D01*
X328354Y548699D02*
X499228D01*
X101681Y312899D02*
X499145D01*
X101681Y323699D02*
X498965D01*
X330325Y537899D02*
X498892D01*
X328354Y547799D02*
X498841D01*
X101681Y313799D02*
X498772D01*
X101681Y322799D02*
X498627D01*
X330037Y538799D02*
X498568D01*
X328354Y546899D02*
X498527D01*
X101681Y314699D02*
X498473D01*
X101681Y321899D02*
X498359D01*
X329505Y539699D02*
X498314D01*
X328354Y545999D02*
X498283D01*
X101681Y315599D02*
X498242D01*
X101681Y320999D02*
X498158D01*
X328581Y540599D02*
X498125D01*
X328354Y545099D02*
X498103D01*
X101681Y316499D02*
X498075D01*
X101681Y320099D02*
X498020D01*
X328354Y541499D02*
X498000D01*
X328354Y544199D02*
X497987D01*
X101681Y317399D02*
X497971D01*
X101681Y319199D02*
X497943D01*
X328354Y542399D02*
X497935D01*
X328354Y543299D02*
X497931D01*
X101681Y318299D02*
X497927D01*
X393944Y647699D02*
X461996D01*
X395441Y646799D02*
X461705D01*
X396221Y645899D02*
X461705D01*
X396688Y644999D02*
X461705D01*
X457874Y644099D02*
X461705D01*
X459157Y643199D02*
X461705D01*
X460018Y642299D02*
X461705D01*
X460024Y633299D02*
X461705D01*
X459165Y632399D02*
X461705D01*
X457887Y631499D02*
X461705D01*
X385525Y630599D02*
X461705D01*
X384625Y629699D02*
X461705D01*
X383725Y628799D02*
X461705D01*
X382825Y627899D02*
X461705D01*
X460635Y641399D02*
X461705D01*
X460639Y634199D02*
X461705D01*
X454033Y514499D02*
X461023D01*
X443744Y348899D02*
X460980D01*
X453307Y358799D02*
X460449D01*
X446012Y504599D02*
X460420D01*
X445536Y513599D02*
X459188D01*
X445551Y349799D02*
X459173D01*
X446012Y357899D02*
X458956D01*
X446012Y505499D02*
X458943D01*
X446453Y512699D02*
X458272D01*
X446462Y350699D02*
X458262D01*
X446596Y356999D02*
X458129D01*
X446604Y506399D02*
X458121D01*
X447028Y511799D02*
X457696D01*
X447034Y351599D02*
X457690D01*
X447118Y356099D02*
X457606D01*
X447124Y507299D02*
X457601D01*
X447381Y510899D02*
X457343D01*
X447385Y352499D02*
X457340D01*
X447432Y355199D02*
X457292D01*
X447435Y508199D02*
X457290D01*
X447558Y509999D02*
X457167D01*
X447559Y353399D02*
X457166D01*
X447574Y354299D02*
X457150D01*
X447575Y509099D02*
X457150D01*
X446012Y358799D02*
X451418D01*
X442284Y644099D02*
X450945D01*
X442296Y631499D02*
X450932D01*
X443701Y514499D02*
X450692D01*
X101681Y524399D02*
X450691D01*
X446012Y368699D02*
X450213D01*
X443567Y643199D02*
X449662D01*
X443574Y632399D02*
X449654D01*
X446012Y359699D02*
X449307D01*
X101681Y515399D02*
X449062D01*
X101681Y523499D02*
X449062D01*
X446012Y367799D02*
X448843D01*
X444428Y642299D02*
X448801D01*
X444433Y633299D02*
X448795D01*
X446012Y360599D02*
X448343D01*
X101681Y516299D02*
X448194D01*
X101681Y522599D02*
X448194D01*
X445044Y641399D02*
X448184D01*
X445048Y634199D02*
X448180D01*
X446012Y366899D02*
X448058D01*
X445484Y640499D02*
X447744D01*
X446012Y361499D02*
X447742D01*
X445487Y635099D02*
X447741D01*
X101681Y517199D02*
X447647D01*
X101681Y521699D02*
X447647D01*
X446012Y365999D02*
X447562D01*
X445782Y639599D02*
X447446D01*
X445784Y635999D02*
X447444D01*
X446012Y362399D02*
X447369D01*
X101681Y518099D02*
X447315D01*
X101681Y520799D02*
X447315D01*
X445955Y638699D02*
X447273D01*
X445956Y636899D02*
X447273D01*
X446012Y365099D02*
X447269D01*
X446012Y637799D02*
X447217D01*
X446012Y363299D02*
X447177D01*
X101681Y518999D02*
X447157D01*
X101681Y519899D02*
X447157D01*
X446012Y364199D02*
X447144D01*
X101681Y514499D02*
X441023D01*
X405795Y348899D02*
X440980D01*
X101681Y513599D02*
X439188D01*
X405730Y349799D02*
X439173D01*
X215228Y505499D02*
X438713D01*
X214752Y504599D02*
X438713D01*
X213998Y503699D02*
X438713D01*
X212713Y502799D02*
X438713D01*
X203182Y501899D02*
X438713D01*
X204256Y500999D02*
X438713D01*
X204915Y500099D02*
X438713D01*
X205327Y499199D02*
X438713D01*
X205554Y498299D02*
X438713D01*
X205617Y497399D02*
X438713D01*
X205525Y496499D02*
X438713D01*
X205268Y495599D02*
X438713D01*
X204816Y494699D02*
X438713D01*
X204100Y493799D02*
X438713D01*
X202904Y492899D02*
X438713D01*
X101681Y491999D02*
X438713D01*
X101681Y491099D02*
X438713D01*
X101681Y490199D02*
X438713D01*
X101681Y489299D02*
X438713D01*
X101681Y488399D02*
X438713D01*
X101681Y487499D02*
X438713D01*
X101681Y486599D02*
X438713D01*
X101681Y485699D02*
X438713D01*
X101681Y484799D02*
X438713D01*
X101681Y483899D02*
X438713D01*
X101681Y482999D02*
X438713D01*
X101681Y482099D02*
X438713D01*
X101681Y481199D02*
X438713D01*
X101681Y480299D02*
X438713D01*
X101681Y479399D02*
X438713D01*
X101681Y478499D02*
X438713D01*
X101681Y477599D02*
X438713D01*
X101681Y476699D02*
X438713D01*
X101681Y475799D02*
X438713D01*
X101681Y474899D02*
X438713D01*
X101681Y473999D02*
X438713D01*
X101681Y473099D02*
X438713D01*
X101681Y472199D02*
X438713D01*
X101681Y471299D02*
X438713D01*
X101681Y470399D02*
X438713D01*
X101681Y469499D02*
X438713D01*
X101681Y468599D02*
X438713D01*
X101681Y467699D02*
X438713D01*
X101681Y466799D02*
X438713D01*
X101681Y465899D02*
X438713D01*
X101681Y464999D02*
X438713D01*
X101681Y464099D02*
X438713D01*
X101681Y463199D02*
X438713D01*
X101681Y462299D02*
X438713D01*
X101681Y461399D02*
X438713D01*
X101681Y460499D02*
X438713D01*
X101681Y459599D02*
X438713D01*
X101681Y458699D02*
X438713D01*
X101681Y457799D02*
X438713D01*
X101681Y456899D02*
X438713D01*
X101681Y455999D02*
X438713D01*
X101681Y455099D02*
X438713D01*
X101681Y454199D02*
X438713D01*
X101681Y453299D02*
X438713D01*
X101681Y452399D02*
X438713D01*
X101681Y451499D02*
X438713D01*
X101681Y450599D02*
X438713D01*
X101681Y449699D02*
X438713D01*
X101681Y448799D02*
X438713D01*
X101681Y447899D02*
X438713D01*
X101681Y446999D02*
X438713D01*
X101681Y446099D02*
X438713D01*
X101681Y445199D02*
X438713D01*
X101681Y444299D02*
X438713D01*
X101681Y443399D02*
X438713D01*
X101681Y442499D02*
X438713D01*
X101681Y441599D02*
X438713D01*
X101681Y440699D02*
X438713D01*
X101681Y439799D02*
X438713D01*
X101681Y438899D02*
X438713D01*
X101681Y437999D02*
X438713D01*
X101681Y437099D02*
X438713D01*
X101681Y436199D02*
X438713D01*
X101681Y435299D02*
X438713D01*
X101681Y434399D02*
X438713D01*
X101681Y433499D02*
X438713D01*
X101681Y432599D02*
X438713D01*
X101681Y431699D02*
X438713D01*
X140854Y430799D02*
X438713D01*
X143242Y429899D02*
X438713D01*
X144124Y428999D02*
X438713D01*
X144635Y428099D02*
X438713D01*
X144906Y427199D02*
X438713D01*
X144982Y426299D02*
X438713D01*
X144947Y425399D02*
X438713D01*
X145782Y424499D02*
X438713D01*
X146682Y423599D02*
X438713D01*
X147582Y422699D02*
X438713D01*
X148482Y421799D02*
X438713D01*
X149382Y420899D02*
X438713D01*
X150282Y419999D02*
X438713D01*
X151182Y419099D02*
X438713D01*
X152082Y418199D02*
X438713D01*
X152982Y417299D02*
X438713D01*
X153882Y416399D02*
X438713D01*
X154782Y415499D02*
X438713D01*
X155374Y414599D02*
X438713D01*
X155520Y413699D02*
X438713D01*
X155520Y412799D02*
X438713D01*
X155520Y411899D02*
X438713D01*
X155520Y410999D02*
X438713D01*
X155520Y410099D02*
X438713D01*
X155520Y409199D02*
X438713D01*
X155520Y408299D02*
X438713D01*
X155520Y407399D02*
X438713D01*
X155520Y406499D02*
X438713D01*
X155520Y405599D02*
X438713D01*
X155520Y404699D02*
X438713D01*
X155520Y403799D02*
X438713D01*
X155520Y402899D02*
X438713D01*
X155520Y401999D02*
X438713D01*
X155520Y401099D02*
X438713D01*
X155520Y400199D02*
X438713D01*
X155520Y399299D02*
X438713D01*
X155520Y398399D02*
X438713D01*
X155520Y397499D02*
X438713D01*
X155520Y396599D02*
X438713D01*
X155520Y395699D02*
X438713D01*
X155520Y394799D02*
X438713D01*
X155520Y393899D02*
X438713D01*
X155520Y392999D02*
X438713D01*
X155520Y392099D02*
X438713D01*
X155520Y391199D02*
X438713D01*
X155520Y390299D02*
X438713D01*
X155520Y389399D02*
X438713D01*
X155520Y388499D02*
X438713D01*
X155520Y387599D02*
X438713D01*
X155520Y386699D02*
X438713D01*
X155520Y385799D02*
X438713D01*
X155520Y384899D02*
X438713D01*
X155520Y383999D02*
X438713D01*
X155520Y383099D02*
X438713D01*
X155520Y382199D02*
X438713D01*
X155520Y381299D02*
X438713D01*
X155520Y380399D02*
X438713D01*
X155520Y379499D02*
X438713D01*
X155520Y378599D02*
X438713D01*
X155520Y377699D02*
X438713D01*
X155520Y376799D02*
X438713D01*
X155520Y375899D02*
X438713D01*
X155520Y374999D02*
X438713D01*
X155520Y374099D02*
X438713D01*
X155520Y373199D02*
X438713D01*
X155520Y372299D02*
X438713D01*
X155520Y371399D02*
X438713D01*
X155520Y370499D02*
X438713D01*
X155520Y369599D02*
X438713D01*
X155520Y368699D02*
X438713D01*
X155520Y367799D02*
X438713D01*
X155521Y366899D02*
X438713D01*
X391431Y365999D02*
X438713D01*
X394313Y365099D02*
X438713D01*
X396215Y364199D02*
X438713D01*
X397696Y363299D02*
X438713D01*
X398918Y362399D02*
X438713D01*
X399959Y361499D02*
X438713D01*
X400860Y360599D02*
X438713D01*
X401647Y359699D02*
X438713D01*
X402339Y358799D02*
X438713D01*
X402948Y357899D02*
X438713D01*
X210645Y512699D02*
X438272D01*
X405621Y350699D02*
X438262D01*
X403484Y356999D02*
X438129D01*
X215505Y506399D02*
X438121D01*
X213334Y511799D02*
X437696D01*
X405466Y351599D02*
X437690D01*
X403954Y356099D02*
X437606D01*
X215615Y507299D02*
X437601D01*
X214345Y510899D02*
X437343D01*
X405265Y352499D02*
X437340D01*
X404363Y355199D02*
X437292D01*
X215569Y508199D02*
X437290D01*
X214971Y509999D02*
X437167D01*
X405015Y353399D02*
X437166D01*
X404716Y354299D02*
X437150D01*
X215361Y509099D02*
X437150D01*
X396937Y644099D02*
X435354D01*
X386425Y631499D02*
X435342D01*
X397003Y643199D02*
X434071D01*
X387325Y632399D02*
X434063D01*
X396894Y642299D02*
X433210D01*
X388225Y633299D02*
X433205D01*
X396597Y641399D02*
X432594D01*
X389125Y634199D02*
X432590D01*
X396068Y640499D02*
X432153D01*
X390025Y635099D02*
X432151D01*
X395180Y639599D02*
X431856D01*
X390925Y635999D02*
X431854D01*
X393625Y638699D02*
X431683D01*
X391825Y636899D02*
X431682D01*
X392725Y637799D02*
X431626D01*
X386302Y647699D02*
X390702D01*
X387025Y646799D02*
X389205D01*
X387114Y645899D02*
X388425D01*
X387444Y644999D02*
X387785D01*
X123409Y329999D02*
X383677D01*
X156251Y365999D02*
X383372D01*
X337595Y653099D02*
X382567D01*
X126380Y688199D02*
X380707D01*
X126432Y330899D02*
X380655D01*
X157151Y365099D02*
X380490D01*
X337595Y653999D02*
X380016D01*
X101681Y638699D02*
X379146D01*
X101681Y637799D02*
X379132D01*
X127993Y687299D02*
X379093D01*
X128377Y331799D02*
X378710D01*
X337524Y647699D02*
X378658D01*
X158051Y364199D02*
X378588D01*
X101681Y636899D02*
X378232D01*
X337434Y654899D02*
X378231D01*
X101681Y639599D02*
X378026D01*
X336870Y646799D02*
X377935D01*
X101681Y645899D02*
X377846D01*
X101681Y644999D02*
X377846D01*
X101681Y644099D02*
X377846D01*
X101681Y643199D02*
X377846D01*
X101681Y642299D02*
X377846D01*
X101681Y641399D02*
X377846D01*
X101681Y640499D02*
X377846D01*
X129574Y686399D02*
X377513D01*
X101681Y635999D02*
X377332D01*
X129881Y332699D02*
X377206D01*
X158951Y363299D02*
X377108D01*
X336461Y655799D02*
X376817D01*
X101681Y635099D02*
X376432D01*
X130863Y685499D02*
X376224D01*
X131120Y333599D02*
X375967D01*
X159851Y362399D02*
X375885D01*
X336706Y656699D02*
X375640D01*
X101681Y634199D02*
X375532D01*
X131952Y684599D02*
X375135D01*
X132172Y334499D02*
X374915D01*
X160751Y361499D02*
X374844D01*
X337490Y657599D02*
X374633D01*
X101681Y633299D02*
X374632D01*
X132890Y683699D02*
X374196D01*
X133082Y335399D02*
X374005D01*
X161651Y360599D02*
X373944D01*
X337595Y658499D02*
X373760D01*
X101681Y632399D02*
X373732D01*
X133709Y682799D02*
X373378D01*
X133876Y336299D02*
X373210D01*
X162551Y359699D02*
X373156D01*
X337595Y659399D02*
X372995D01*
X101681Y631499D02*
X372832D01*
X134427Y681899D02*
X372659D01*
X134575Y337199D02*
X372512D01*
X163451Y358799D02*
X372464D01*
X337595Y660299D02*
X372322D01*
X135060Y680999D02*
X372027D01*
X101681Y630599D02*
X371932D01*
X135190Y338099D02*
X371897D01*
X164351Y357899D02*
X371855D01*
X337595Y661199D02*
X371730D01*
X135617Y680099D02*
X371470D01*
X135731Y338999D02*
X371356D01*
X165251Y356999D02*
X371319D01*
X337595Y662099D02*
X371209D01*
X101681Y629699D02*
X371006D01*
X136105Y679199D02*
X370981D01*
X136205Y339899D02*
X370882D01*
X184272Y356099D02*
X370849D01*
X337595Y662999D02*
X370754D01*
X136532Y678299D02*
X370555D01*
X136618Y340799D02*
X370468D01*
X185294Y355199D02*
X370440D01*
X337595Y663899D02*
X370357D01*
X136901Y677399D02*
X370186D01*
X136975Y341699D02*
X370111D01*
X185875Y354299D02*
X370088D01*
X337477Y664799D02*
X370017D01*
X137216Y676499D02*
X369871D01*
X137279Y342599D02*
X369808D01*
X186198Y353399D02*
X369788D01*
X336637Y665699D02*
X369728D01*
X137480Y675599D02*
X369607D01*
X137532Y343499D02*
X369555D01*
X186319Y352499D02*
X369538D01*
X137597Y666599D02*
X369490D01*
X137695Y674699D02*
X369391D01*
X137737Y344399D02*
X369350D01*
X186255Y351599D02*
X369337D01*
X137788Y667499D02*
X369299D01*
X137863Y673799D02*
X369223D01*
X137895Y345299D02*
X369192D01*
X185997Y350699D02*
X369182D01*
X137932Y668399D02*
X369154D01*
X137986Y672899D02*
X369101D01*
X138007Y346199D02*
X369080D01*
X185504Y349799D02*
X369073D01*
X138032Y669299D02*
X369055D01*
X138064Y671999D02*
X369023D01*
X138075Y347099D02*
X369012D01*
X184654Y348899D02*
X369009D01*
X138086Y670199D02*
X369000D01*
X138097Y671099D02*
X368990D01*
X182661Y347999D02*
X368988D01*
X170015Y586499D02*
X334854D01*
X169156Y585599D02*
X333280D01*
X167765Y584699D02*
X332505D01*
X160257Y583799D02*
X332056D01*
X160764Y582899D02*
X331832D01*
X161094Y581999D02*
X331799D01*
X161277Y581099D02*
X331684D01*
X101681Y628799D02*
X331648D01*
X246587Y239999D02*
X331365D01*
X161326Y580199D02*
X330784D01*
X101681Y627899D02*
X330748D01*
X161243Y579299D02*
X329884D01*
X101681Y626999D02*
X329848D01*
X248433Y228299D02*
X329520D01*
X326637Y665699D02*
X329190D01*
X161024Y578399D02*
X328984D01*
X326870Y646799D02*
X328957D01*
X248999Y239099D02*
X328954D01*
X101681Y626099D02*
X328948D01*
X327482Y664799D02*
X328345D01*
X327598Y647699D02*
X328229D01*
X249772Y229199D02*
X328180D01*
X160651Y577499D02*
X328084D01*
X101681Y625199D02*
X328048D01*
X250109Y238199D02*
X327844D01*
X250610Y230099D02*
X327342D01*
X160092Y576599D02*
X327184D01*
X101681Y624299D02*
X327148D01*
X250838Y237299D02*
X327115D01*
X251180Y230999D02*
X326773D01*
X251334Y236399D02*
X326618D01*
X251561Y231899D02*
X326392D01*
X251657Y235499D02*
X326295D01*
X168211Y575699D02*
X326284D01*
X251787Y232799D02*
X326166D01*
X251834Y234599D02*
X326119D01*
X251876Y233699D02*
X326077D01*
X101681Y614399D02*
X325529D01*
X169413Y574799D02*
X325384D01*
X101681Y623399D02*
X324715D01*
X101681Y613499D02*
X324714D01*
X170188Y573899D02*
X324484D01*
X101681Y615299D02*
X324456D01*
X101681Y612599D02*
X323814D01*
X170717Y572999D02*
X323814D01*
X171065Y572099D02*
X323615D01*
X171264Y571199D02*
X323614D01*
X171327Y570299D02*
X323614D01*
X171259Y569399D02*
X323614D01*
X171055Y568499D02*
X323614D01*
X170701Y567599D02*
X323614D01*
X170165Y566699D02*
X323614D01*
X169379Y565799D02*
X323614D01*
X168153Y564899D02*
X323614D01*
X101681Y563999D02*
X323614D01*
X101681Y563099D02*
X323614D01*
X101681Y562199D02*
X323614D01*
X101681Y561299D02*
X323614D01*
X101681Y560399D02*
X323614D01*
X101681Y559499D02*
X323614D01*
X101681Y558599D02*
X323614D01*
X101681Y557699D02*
X323614D01*
X101681Y556799D02*
X323614D01*
X101681Y555899D02*
X323614D01*
X101681Y554999D02*
X323614D01*
X101681Y554099D02*
X323614D01*
X101681Y553199D02*
X323614D01*
X101681Y552299D02*
X323614D01*
X101681Y551399D02*
X323614D01*
X101681Y550499D02*
X323614D01*
X101681Y549599D02*
X323614D01*
X101681Y548699D02*
X323614D01*
X101681Y547799D02*
X323614D01*
X101681Y546899D02*
X323614D01*
X101681Y545999D02*
X323614D01*
X101681Y545099D02*
X323614D01*
X101681Y544199D02*
X323614D01*
X101681Y543299D02*
X323614D01*
X101681Y542399D02*
X323614D01*
X101681Y541499D02*
X323614D01*
X101681Y533399D02*
X323414D01*
X101681Y540599D02*
X323388D01*
X101681Y622499D02*
X323321D01*
X101681Y616199D02*
X323205D01*
X101681Y611699D02*
X322914D01*
X101681Y621599D02*
X322595D01*
X101681Y617099D02*
X322527D01*
X101681Y534299D02*
X322478D01*
X101681Y539699D02*
X322464D01*
X101681Y620699D02*
X322176D01*
X101681Y617999D02*
X322140D01*
X101681Y610799D02*
X322014D01*
X101681Y619799D02*
X321976D01*
X101681Y618899D02*
X321964D01*
X101681Y535199D02*
X321939D01*
X101681Y538799D02*
X321931D01*
X101681Y536099D02*
X321647D01*
X101681Y537899D02*
X321644D01*
X101681Y536999D02*
X321553D01*
X316637Y665699D02*
X319190D01*
X316870Y646799D02*
X318957D01*
X317482Y664799D02*
X318345D01*
X317598Y647699D02*
X318229D01*
X290840Y294899D02*
X314672D01*
X291249Y283199D02*
X314263D01*
X292627Y293999D02*
X312885D01*
X292818Y284099D02*
X312694D01*
X293619Y293099D02*
X311893D01*
X293744Y284999D02*
X311768D01*
X294283Y292199D02*
X311228D01*
X294369Y285899D02*
X311143D01*
X294734Y291299D02*
X310777D01*
X294791Y286799D02*
X310721D01*
X295020Y290399D02*
X310492D01*
X295052Y287699D02*
X310460D01*
X295163Y289499D02*
X310349D01*
X295174Y288599D02*
X310338D01*
X306637Y665699D02*
X309190D01*
X306870Y646799D02*
X308957D01*
X307482Y664799D02*
X308345D01*
X307598Y647699D02*
X308229D01*
X296637Y665699D02*
X299190D01*
X296870Y646799D02*
X298957D01*
X297482Y664799D02*
X298345D01*
X297598Y647699D02*
X298229D01*
X101681Y609899D02*
X297587D01*
X101681Y608999D02*
X296592D01*
X101681Y599999D02*
X294344D01*
X101681Y608099D02*
X292944D01*
X101681Y600899D02*
X292473D01*
X101681Y607199D02*
X291898D01*
X101681Y601799D02*
X291639D01*
X101681Y606299D02*
X291305D01*
X101681Y602699D02*
X291156D01*
X101681Y605399D02*
X290975D01*
X101681Y603599D02*
X290905D01*
X101681Y604499D02*
X290848D01*
X236068Y655799D02*
X289365D01*
X236243Y665699D02*
X289190D01*
X236313Y656699D02*
X289121D01*
X236476Y646799D02*
X288957D01*
X237040Y654899D02*
X288393D01*
X237083Y664799D02*
X288350D01*
X237097Y657599D02*
X288336D01*
X237130Y647699D02*
X288303D01*
X237201Y663899D02*
X288232D01*
X237201Y662999D02*
X288232D01*
X237201Y662099D02*
X288232D01*
X237201Y661199D02*
X288232D01*
X237201Y660299D02*
X288232D01*
X237201Y659399D02*
X288232D01*
X237201Y658499D02*
X288232D01*
X237201Y653999D02*
X288232D01*
X237201Y653099D02*
X288232D01*
X237201Y652199D02*
X288232D01*
X237201Y651299D02*
X288232D01*
X237201Y650399D02*
X288232D01*
X237201Y649499D02*
X288232D01*
X237201Y648599D02*
X288232D01*
X263281Y294899D02*
X287113D01*
X263690Y283199D02*
X286703D01*
X265068Y293999D02*
X285326D01*
X265259Y284099D02*
X285135D01*
X266060Y293099D02*
X284334D01*
X266184Y284999D02*
X284209D01*
X266724Y292199D02*
X283669D01*
X266809Y285899D02*
X283584D01*
X267175Y291299D02*
X283218D01*
X267232Y286799D02*
X283162D01*
X267461Y290399D02*
X282933D01*
X267493Y287699D02*
X282901D01*
X267604Y289499D02*
X282790D01*
X267615Y288599D02*
X282779D01*
X101681Y294899D02*
X259553D01*
X101681Y283199D02*
X259144D01*
X101681Y293999D02*
X257767D01*
X101681Y284099D02*
X257576D01*
X101681Y293099D02*
X256775D01*
X101681Y284999D02*
X256650D01*
X101681Y292199D02*
X256110D01*
X101681Y285899D02*
X256025D01*
X101681Y291299D02*
X255659D01*
X101681Y286799D02*
X255603D01*
X101681Y290399D02*
X255374D01*
X101681Y287699D02*
X255342D01*
X101681Y289499D02*
X255231D01*
X101681Y288599D02*
X255220D01*
X101681Y239999D02*
X244751D01*
X101681Y228299D02*
X242905D01*
X101681Y239099D02*
X242340D01*
X101681Y229199D02*
X241566D01*
X101681Y238199D02*
X241230D01*
X101681Y230099D02*
X240728D01*
X101681Y237299D02*
X240501D01*
X101681Y230999D02*
X240158D01*
X101681Y236399D02*
X240004D01*
X101681Y231899D02*
X239778D01*
X101681Y235499D02*
X239681D01*
X101681Y232799D02*
X239552D01*
X101681Y234599D02*
X239505D01*
X101681Y233699D02*
X239463D01*
X226243Y665699D02*
X228796D01*
X226476Y646799D02*
X228563D01*
X227088Y664799D02*
X227951D01*
X227204Y647699D02*
X227835D01*
X216243Y665699D02*
X218796D01*
X216476Y646799D02*
X218563D01*
X217088Y664799D02*
X217951D01*
X217204Y647699D02*
X217835D01*
X190645Y512699D02*
X210142D01*
X206243Y665699D02*
X208796D01*
X206476Y646799D02*
X208563D01*
X192713Y502799D02*
X208075D01*
X207088Y664799D02*
X207951D01*
X207204Y647699D02*
X207835D01*
X193334Y511799D02*
X207453D01*
X193998Y503699D02*
X206789D01*
X194345Y510899D02*
X206443D01*
X194752Y504599D02*
X206036D01*
X194971Y509999D02*
X205816D01*
X195228Y505499D02*
X205560D01*
X195361Y509099D02*
X205426D01*
X195505Y506399D02*
X205282D01*
X195569Y508199D02*
X205219D01*
X195615Y507299D02*
X205172D01*
X196243Y665699D02*
X198796D01*
X196476Y646799D02*
X198563D01*
X197088Y664799D02*
X197951D01*
X101681Y492899D02*
X197883D01*
X197204Y647699D02*
X197835D01*
X101681Y501899D02*
X197606D01*
X101681Y493799D02*
X196687D01*
X101681Y500999D02*
X196532D01*
X101681Y494699D02*
X195971D01*
X101681Y500099D02*
X195873D01*
X195412Y158999D02*
X195565D01*
X101681Y495599D02*
X195520D01*
X101681Y499199D02*
X195460D01*
X101681Y496499D02*
X195262D01*
X101681Y498299D02*
X195234D01*
X101681Y497399D02*
X195170D01*
X178487Y139199D02*
X194741D01*
X180268Y140099D02*
X192960D01*
X181259Y140999D02*
X191969D01*
X181923Y141899D02*
X191305D01*
X182614Y142799D02*
X190614D01*
X101681Y512699D02*
X190142D01*
X130269Y655799D02*
X188972D01*
X137358Y665699D02*
X188796D01*
X131447Y656699D02*
X188727D01*
X101681Y646799D02*
X188563D01*
X101681Y502799D02*
X188075D01*
X128855Y654899D02*
X187999D01*
X137070Y664799D02*
X187956D01*
X132453Y657599D02*
X187943D01*
X101681Y647699D02*
X187909D01*
X136729Y663899D02*
X187839D01*
X136333Y662999D02*
X187839D01*
X135877Y662099D02*
X187839D01*
X135356Y661199D02*
X187839D01*
X134764Y660299D02*
X187839D01*
X134092Y659399D02*
X187839D01*
X133327Y658499D02*
X187839D01*
X127070Y653999D02*
X187839D01*
X124519Y653099D02*
X187839D01*
X101681Y652199D02*
X187839D01*
X101681Y651299D02*
X187839D01*
X101681Y650399D02*
X187839D01*
X101681Y649499D02*
X187839D01*
X101681Y648599D02*
X187839D01*
X101681Y511799D02*
X187453D01*
X101681Y503699D02*
X186789D01*
X101681Y510899D02*
X186443D01*
X101681Y504599D02*
X186036D01*
X101681Y509999D02*
X185816D01*
X101681Y505499D02*
X185560D01*
X101681Y509099D02*
X185426D01*
X101681Y506399D02*
X185282D01*
X101681Y508199D02*
X185219D01*
X101681Y507299D02*
X185172D01*
X138098Y347999D02*
X181119D01*
X166151Y356099D02*
X179508D01*
X138078Y348899D02*
X179126D01*
X167051Y355199D02*
X178485D01*
X138013Y349799D02*
X178275D01*
X101681Y158099D02*
X178240D01*
X101681Y157199D02*
X178240D01*
X101681Y156299D02*
X178240D01*
X101681Y155399D02*
X178240D01*
X101681Y154499D02*
X178240D01*
X101681Y153599D02*
X178240D01*
X101681Y152699D02*
X178240D01*
X101681Y151799D02*
X178240D01*
X177664Y158999D02*
X177817D01*
X101681Y185099D02*
X176560D01*
X101681Y184199D02*
X176272D01*
X101681Y183299D02*
X176272D01*
X101681Y182399D02*
X176272D01*
X101681Y181499D02*
X176272D01*
X101681Y180599D02*
X176272D01*
X101681Y179699D02*
X176272D01*
X101681Y178799D02*
X176272D01*
X101681Y177899D02*
X176272D01*
X101681Y176999D02*
X176272D01*
X101681Y176099D02*
X176272D01*
X101681Y175199D02*
X176272D01*
X101681Y174299D02*
X176272D01*
X101681Y173399D02*
X176272D01*
X101681Y172499D02*
X176272D01*
X101681Y171599D02*
X176240D01*
X101681Y158999D02*
X175565D01*
X101681Y139199D02*
X174741D01*
X101681Y150899D02*
X174349D01*
X101681Y170699D02*
X173893D01*
X101681Y159899D02*
X173252D01*
X101681Y140099D02*
X172960D01*
X101681Y149999D02*
X172777D01*
X101681Y169799D02*
X172535D01*
X101681Y160799D02*
X172154D01*
X101681Y140999D02*
X171969D01*
X101681Y149099D02*
X171849D01*
X101681Y168899D02*
X171689D01*
X101681Y161699D02*
X171432D01*
X101681Y141899D02*
X171305D01*
X101681Y148199D02*
X171224D01*
X101681Y167999D02*
X171114D01*
X101681Y162599D02*
X170940D01*
X101681Y142799D02*
X170855D01*
X101681Y147299D02*
X170801D01*
X101681Y167099D02*
X170730D01*
X101681Y163499D02*
X170620D01*
X101681Y143699D02*
X170570D01*
X101681Y146399D02*
X170539D01*
X101681Y166199D02*
X170500D01*
X101681Y164399D02*
X170447D01*
X101681Y144599D02*
X170427D01*
X101681Y145499D02*
X170417D01*
X101681Y165299D02*
X170408D01*
X137904Y350699D02*
X164847D01*
X137750Y351599D02*
X163947D01*
X146357Y596399D02*
X163879D01*
X137548Y352499D02*
X163047D01*
X159515Y584699D02*
X162471D01*
X137299Y353399D02*
X162147D01*
X148153Y564899D02*
X162083D01*
X159270Y575699D02*
X162026D01*
X148535Y595499D02*
X161701D01*
X136999Y354299D02*
X161247D01*
X158378Y585599D02*
X161080D01*
X149379Y565799D02*
X160858D01*
X157967Y574799D02*
X160823D01*
X149612Y594599D02*
X160624D01*
X136646Y355199D02*
X160347D01*
X155674Y586499D02*
X160221D01*
X150165Y566699D02*
X160071D01*
X150188Y573899D02*
X160048D01*
X150324Y593699D02*
X159913D01*
X150599Y587399D02*
X159637D01*
X150701Y567599D02*
X159535D01*
X150717Y572999D02*
X159519D01*
X136237Y356099D02*
X159447D01*
X150808Y592799D02*
X159428D01*
X150990Y588299D02*
X159246D01*
X151055Y568499D02*
X159181D01*
X151065Y572099D02*
X159171D01*
X151121Y591899D02*
X159115D01*
X151226Y589199D02*
X159011D01*
X151259Y569399D02*
X158977D01*
X151264Y571199D02*
X158973D01*
X151289Y590999D02*
X158947D01*
X151323Y590099D02*
X158913D01*
X151327Y570299D02*
X158909D01*
X135767Y356999D02*
X158547D01*
X135231Y357899D02*
X157647D01*
X134622Y358799D02*
X156747D01*
X133930Y359699D02*
X155847D01*
X133143Y360599D02*
X154947D01*
X150015Y586499D02*
X154562D01*
X132242Y361499D02*
X154047D01*
X131202Y362399D02*
X153147D01*
X149413Y574799D02*
X152269D01*
X129979Y363299D02*
X152247D01*
X149156Y585599D02*
X151858D01*
X128498Y364199D02*
X151356D01*
X148211Y575699D02*
X150966D01*
X126596Y365099D02*
X150870D01*
X101681Y411899D02*
X150780D01*
X101681Y410999D02*
X150780D01*
X101681Y410099D02*
X150780D01*
X101681Y409199D02*
X150780D01*
X101681Y408299D02*
X150780D01*
X101681Y407399D02*
X150780D01*
X101681Y406499D02*
X150780D01*
X101681Y405599D02*
X150780D01*
X101681Y404699D02*
X150780D01*
X101681Y403799D02*
X150780D01*
X101681Y402899D02*
X150780D01*
X101681Y401999D02*
X150780D01*
X101681Y401099D02*
X150780D01*
X101681Y400199D02*
X150780D01*
X101681Y399299D02*
X150780D01*
X101681Y398399D02*
X150780D01*
X101681Y397499D02*
X150780D01*
X101681Y396599D02*
X150780D01*
X101681Y395699D02*
X150780D01*
X101681Y394799D02*
X150780D01*
X101681Y393899D02*
X150780D01*
X101681Y392999D02*
X150780D01*
X101681Y392099D02*
X150780D01*
X101681Y391199D02*
X150780D01*
X101681Y390299D02*
X150780D01*
X101681Y389399D02*
X150780D01*
X101681Y388499D02*
X150780D01*
X101681Y387599D02*
X150780D01*
X101681Y386699D02*
X150780D01*
X101681Y385799D02*
X150780D01*
X101681Y384899D02*
X150780D01*
X101681Y383999D02*
X150780D01*
X101681Y383099D02*
X150780D01*
X101681Y382199D02*
X150780D01*
X101681Y381299D02*
X150780D01*
X101681Y380399D02*
X150780D01*
X101681Y379499D02*
X150780D01*
X101681Y378599D02*
X150780D01*
X101681Y377699D02*
X150780D01*
X101681Y376799D02*
X150780D01*
X101681Y375899D02*
X150780D01*
X101681Y374999D02*
X150780D01*
X101681Y374099D02*
X150780D01*
X101681Y373199D02*
X150780D01*
X101681Y372299D02*
X150780D01*
X101681Y371399D02*
X150780D01*
X101681Y370499D02*
X150780D01*
X101681Y369599D02*
X150780D01*
X101681Y368699D02*
X150780D01*
X101681Y367799D02*
X150780D01*
X101681Y366899D02*
X150780D01*
X123714Y365999D02*
X150780D01*
X101681Y412799D02*
X150734D01*
X147765Y584699D02*
X150721D01*
X101681Y576599D02*
X150144D01*
X101681Y583799D02*
X149979D01*
X101681Y413699D02*
X149879D01*
X101681Y577499D02*
X149585D01*
X101681Y582899D02*
X149473D01*
X101681Y578399D02*
X149213D01*
X101681Y581999D02*
X149142D01*
X101681Y579299D02*
X148993D01*
X101681Y414599D02*
X148979D01*
X101681Y581099D02*
X148959D01*
X101681Y580199D02*
X148911D01*
X101681Y415499D02*
X148079D01*
X101681Y416399D02*
X147179D01*
X101681Y417299D02*
X146279D01*
X101681Y418199D02*
X145379D01*
X101681Y419099D02*
X144479D01*
X101681Y596399D02*
X143879D01*
X101681Y419999D02*
X143579D01*
X101681Y420899D02*
X142679D01*
X101681Y584699D02*
X142471D01*
X101681Y564899D02*
X142083D01*
X101681Y575699D02*
X142026D01*
X101681Y421799D02*
X141779D01*
X101681Y595499D02*
X141701D01*
X101681Y585599D02*
X141080D01*
X101681Y565799D02*
X140858D01*
X101681Y574799D02*
X140823D01*
X101681Y594599D02*
X140624D01*
X101681Y430799D02*
X140248D01*
X101681Y586499D02*
X140221D01*
X101681Y566699D02*
X140071D01*
X101681Y573899D02*
X140048D01*
X101681Y593699D02*
X139913D01*
X101681Y587399D02*
X139637D01*
X101681Y567599D02*
X139535D01*
X101681Y572999D02*
X139519D01*
X101681Y592799D02*
X139428D01*
X101681Y588299D02*
X139246D01*
X101681Y568499D02*
X139181D01*
X101681Y572099D02*
X139171D01*
X101681Y591899D02*
X139115D01*
X101681Y589199D02*
X139011D01*
X101681Y569399D02*
X138977D01*
X101681Y571199D02*
X138973D01*
X101681Y590999D02*
X138947D01*
X101681Y590099D02*
X138913D01*
X101681Y570299D02*
X138909D01*
X101681Y422699D02*
X138082D01*
X101681Y429899D02*
X137861D01*
X101681Y423599D02*
X137100D01*
X101681Y428999D02*
X136978D01*
X101681Y424499D02*
X136538D01*
X101681Y428099D02*
X136468D01*
X101681Y425399D02*
X136230D01*
X101681Y427199D02*
X136197D01*
X101681Y426299D02*
X136121D01*
X101681Y329999D02*
X115961D01*
X101681Y365999D02*
X115656D01*
X101681Y653099D02*
X114851D01*
X101681Y137399D02*
X114657D01*
X101681Y330899D02*
X112938D01*
X101681Y365099D02*
X112774D01*
X101681Y653999D02*
X112300D01*
X101681Y136499D02*
X112178D01*
X101681Y331799D02*
X110993D01*
X101681Y364199D02*
X110872D01*
X101681Y654899D02*
X110515D01*
X101681Y135599D02*
X110422D01*
X101681Y332699D02*
X109489D01*
X101681Y363299D02*
X109391D01*
X101681Y655799D02*
X109101D01*
X101681Y134699D02*
X109025D01*
X101681Y333599D02*
X108251D01*
X101681Y362399D02*
X108168D01*
X101681Y656699D02*
X107923D01*
X101681Y133799D02*
X107859D01*
X101681Y334499D02*
X107198D01*
X101681Y361499D02*
X107128D01*
X101681Y657599D02*
X106917D01*
X101681Y132899D02*
X106861D01*
X101681Y335399D02*
X106289D01*
X101681Y360599D02*
X106227D01*
X101681Y658499D02*
X106043D01*
X101681Y131999D02*
X105995D01*
X101681Y336299D02*
X105494D01*
X101681Y359699D02*
X105440D01*
X101681Y659399D02*
X105278D01*
X101681Y131099D02*
X105236D01*
X101681Y337199D02*
X104795D01*
X101681Y358799D02*
X104748D01*
X101681Y660299D02*
X104606D01*
X101681Y130199D02*
X104568D01*
X101681Y338099D02*
X104180D01*
X101681Y357899D02*
X104139D01*
X101681Y661199D02*
X104014D01*
X101681Y129299D02*
X103981D01*
X101681Y338999D02*
X103639D01*
X101681Y356999D02*
X103603D01*
X101681Y662099D02*
X103493D01*
X101681Y128399D02*
X103464D01*
X101681Y339899D02*
X103165D01*
X101681Y356099D02*
X103133D01*
X101681Y662999D02*
X103037D01*
X101681Y127499D02*
X103012D01*
X101681Y340799D02*
X102752D01*
X101681Y355199D02*
X102724D01*
X101722Y663899D02*
X102641D01*
X101749Y126599D02*
X102614D01*
X100000Y111811D02*
G03X111811Y100000I11811J0D01*
G01X1072441*
G03X1084252Y111811I-0J11811*
G01Y678740*
G03X1072441Y690551I-11811J0*
G01X111811*
G03X100000Y678740I0J-11811*
G01Y111811*
X665354Y526772D02*
X749606D01*
Y491732*
X713780*
X707874Y485827*
Y359843*
X665354*
Y526772*
X540945Y273228D02*
X855906D01*
Y588189*
X540945*
Y273228*
G54D51*
X442362Y353937D02*
Y509449D01*
G54D55*
X181890Y352362D02*
X166535D01*
X153150Y365748*
Y413780*
X140551Y426378*
X325984Y537008D02*
Y572047D01*
X336220Y582283*
X295276Y604331D02*
X298819Y607874D01*
X322441*
X337402Y622835*
X374409*
X392323Y640748*
Y643307*
X326772Y619094D02*
Y620571D01*
X333465Y627264*
X371949*
X382480Y637795*
Y643307*
X326772Y619094D02*
X326378Y619291D01*
G54D59*
X550787Y305012D02*
Y306693D01*
X537295Y318504D02*
X538976D01*
X550787Y331996D02*
Y330315D01*
X564280Y318504D02*
X562598D01*
X550787Y529421D02*
Y531102D01*
X537295Y542913D02*
X538976D01*
X550787Y556406D02*
Y554724D01*
X564280Y542913D02*
X562598D01*
X846063Y305012D02*
Y306693D01*
X832571Y318504D02*
X834252D01*
X846063Y331996D02*
Y330315D01*
X859555Y318504D02*
X857874D01*
X511417Y305012D02*
Y306693D01*
X497925Y318504D02*
X499606D01*
X511417Y331996D02*
Y330315D01*
X524909Y318504D02*
X523228D01*
X511417Y529421D02*
Y531102D01*
X497925Y542913D02*
X499606D01*
X511417Y556406D02*
Y554724D01*
X524909Y542913D02*
X523228D01*
X846063Y529421D02*
Y531102D01*
X832571Y542913D02*
X834252D01*
X846063Y556406D02*
Y554724D01*
X859555Y542913D02*
X857874D01*
X222520Y646500D02*
Y648181D01*
X237201Y661181D02*
X235520D01*
X232520Y665862D02*
Y664181D01*
X222520Y665862D02*
Y664181D01*
X232520Y646500D02*
Y648181D01*
X237201Y651181D02*
X235520D01*
X446012Y637795D02*
X444331D01*
X438819Y644988D02*
Y643307D01*
X431626Y637795D02*
X433307D01*
X438819Y630602D02*
Y632283D01*
X454409Y644988D02*
Y643307D01*
X447217Y637795D02*
X448898D01*
X454409Y630602D02*
Y632283D01*
X322913Y665862D02*
Y664181D01*
X337594Y661181D02*
X335913D01*
X332913Y665862D02*
Y664181D01*
Y646500D02*
Y648181D01*
X337594Y651181D02*
X335913D01*
X176614Y138909D02*
Y140591D01*
Y151327D02*
Y149646D01*
X170406Y145118D02*
X172087D01*
X145118Y576524D02*
Y574843D01*
X138909Y570315D02*
X140591D01*
X145118Y564106D02*
Y565787D01*
X151327Y570315D02*
X149646D01*
X165118Y576524D02*
Y574843D01*
X158909Y570315D02*
X160591D01*
X165118Y564106D02*
Y565787D01*
X171327Y570315D02*
X169646D01*
X145118Y596524D02*
Y594843D01*
X138909Y590315D02*
X140591D01*
X145118Y584106D02*
Y585787D01*
X151327Y590315D02*
X149646D01*
X165118Y596524D02*
Y594843D01*
X158909Y590315D02*
X160591D01*
X165118Y584106D02*
Y585787D01*
X171327Y590315D02*
X169646D01*
X196614Y138909D02*
Y140591D01*
X202823Y145118D02*
X201142D01*
X196614Y151327D02*
Y149646D01*
X176614Y158909D02*
Y160591D01*
X170406Y165118D02*
X172087D01*
X196614Y158909D02*
Y160591D01*
X202823Y165118D02*
X201142D01*
G54D60*
X418898Y107874D03*
X458268D03*
X493701D03*
X533071D03*
X572441D03*
X611811D03*
X651181D03*
X729921D03*
X769291D03*
X808661D03*
X848031D03*
X887402D03*
X926772D03*
X966142D03*
X1005512D03*
X1044882D03*
X411024Y123622D03*
Y143307D03*
X442520D03*
Y123622D03*
X497638Y143307D03*
X552756D03*
Y123622D03*
X584252Y143307D03*
Y123622D03*
X627559Y143307D03*
Y123622D03*
X659055Y143307D03*
Y123622D03*
X714173Y143307D03*
Y123622D03*
X769291Y143307D03*
Y123622D03*
X800787Y143307D03*
Y123622D03*
X844094Y143307D03*
Y123622D03*
X875591Y143307D03*
Y123622D03*
X934646Y143307D03*
Y123622D03*
X989764Y143307D03*
Y123622D03*
X1021260Y143307D03*
Y123622D03*
X1072441Y143307D03*
X198425Y312598D03*
X257480Y336220D03*
X288976Y328346D03*
X361417D03*
X509843Y342126D03*
X523228D03*
X537402D03*
X107874Y375591D03*
X145276Y387402D03*
X155118Y351575D03*
X181890Y352362D03*
X191339Y385827D03*
X170866Y385433D03*
X208268D03*
X218110Y353543D03*
X196063Y359055D03*
X257480Y355906D03*
X258268Y379134D03*
X235827Y353937D03*
X140551Y426378D03*
X155118Y424803D03*
X232283Y420472D03*
X196063D03*
X214173D03*
X123622Y442913D03*
X231890Y460236D03*
X220079D03*
X208268D03*
X196063Y459843D03*
X344094Y458268D03*
X326378D03*
X359843D03*
X383465D03*
X407087D03*
X430709D03*
X1040945Y460236D03*
X135433Y501575D03*
X172835D03*
X166929Y477953D03*
X233858Y493701D03*
X231890Y479921D03*
X220079D03*
X196457D03*
X208268D03*
X318504D03*
X330315D03*
X359843Y474016D03*
X383465Y477953D03*
X407087D03*
X428740D03*
X1017323Y501575D03*
X1042913D03*
X1040945Y481890D03*
X135433Y544882D03*
Y513386D03*
Y529134D03*
X174803D03*
X325984Y537008D03*
X353937D03*
X328346Y529134D03*
X373622Y531102D03*
X411024Y525197D03*
X448425Y539764D03*
X509449Y521654D03*
X537402D03*
X523228D03*
X1029134Y527165D03*
X1060630D03*
Y546850D03*
X174803Y560630D03*
X227953Y574409D03*
Y562598D03*
X271260Y574409D03*
X288110Y570315D03*
X296457Y579134D03*
X336220Y582283D03*
X319291Y559449D03*
X359843Y574409D03*
X405118Y560630D03*
Y570472D03*
X472047Y576378D03*
X460236D03*
X483858D03*
X531102D03*
Y586220D03*
X568504Y574409D03*
X580315D03*
Y586220D03*
X592126D03*
Y574409D03*
X603937D03*
Y586220D03*
X1060630D03*
Y566535D03*
X182677Y619685D03*
X222047D03*
X264961Y593701D03*
X257480Y619685D03*
X245669Y601969D03*
X295276Y604331D03*
X297638Y614961D03*
Y624409D03*
X326378Y619291D03*
X355906Y592126D03*
X375591D03*
X402362Y622047D03*
X418898Y600000D03*
X446457D03*
X107874Y635433D03*
X143307Y659055D03*
X172835Y640551D03*
X224016D03*
X275197D03*
X348031Y635433D03*
X367717D03*
X414961D03*
X454331Y662992D03*
X143307Y682677D03*
X182677D03*
X222047D03*
X257480D03*
X292913D03*
X332283D03*
X355906D03*
X414961D03*
X454331D03*
G54D110*
X382480Y643307D03*
G54D111*
X392323D03*
G54D112*
X846063Y542913D03*
X511417D03*
Y318504D03*
X846063D03*
X550787D03*
Y542913D03*
G74*
X0Y0D02*
M02*
