*
*
G04 PADS 9.5 Build Number: 522968 generated Gerber (RS-274-X) file*
G04 PC Version=2.1*
*
%IN "Plasma_RF_Gen_V1.0_POWE"*%
*
%MOIN*%
*
%FSLAX35Y35*%
*
*
*
*
G04 PC Standard Apertures*
*
*
G04 Thermal Relief Aperture macro.*
%AMTER*
1,1,$1,0,0*
1,0,$1-$2,0,0*
21,0,$3,$4,0,0,45*
21,0,$3,$4,0,0,135*
%
*
*
G04 Annular Aperture macro.*
%AMANN*
1,1,$1,0,0*
1,0,$2,0,0*
%
*
*
G04 Odd Aperture macro.*
%AMODD*
1,1,$1,0,0*
1,0,$1-0.005,0,0*
%
*
*
G04 PC Custom Aperture Macros*
*
*
*
*
*
*
G04 PC Aperture Table*
*
%ADD010C,0.001*%
%ADD050C,0.01*%
*
*
*
*
G04 PC Circuitry*
G04 Layer Name Plasma_RF_Gen_V1.0_POWE - circuitry*
%LPD*%
*
*
G04 PC Custom Flashes*
G04 Layer Name Plasma_RF_Gen_V1.0_POWE - flashes*
%LPD*%
*
*
G04 PC Circuitry*
G04 Layer Name Plasma_RF_Gen_V1.0_POWE - circuitry*
%LPD*%
*
G54D10*
G54D50*
G01X151118Y576315D02*
X159118D01*
Y584315*
X151118*
Y576315*
X155118Y580315D02*
Y584315D01*
X141118Y586315D02*
X149118D01*
Y594315*
X141118*
Y586315*
X145118Y590315D02*
Y594315D01*
X141118Y566315D02*
X149118D01*
Y574315*
X141118*
Y566315*
X145118Y570315D02*
Y574315D01*
X161118Y566315D02*
X169118D01*
Y574315*
X161118*
Y566315*
X165118Y570315D02*
Y574315D01*
X161118Y586315D02*
X169118D01*
Y594315*
X161118*
Y586315*
X165118Y590315D02*
Y594315D01*
X115685Y115685D02*
X123685Y123685D01*
X115685D02*
X123685Y115685D01*
X115685Y666866D02*
X123685Y674866D01*
X115685D02*
X123685Y666866D01*
X1060567D02*
X1068567Y674866D01*
X1060567D02*
X1068567Y666866D01*
X1060567Y115685D02*
X1068567Y123685D01*
X1060567D02*
X1068567Y115685D01*
X182614Y151118D02*
X190614D01*
Y159118*
X182614*
Y151118*
X186614Y155118D02*
Y159118D01*
X192614Y141118D02*
X200614D01*
Y149118*
X192614*
Y141118*
X196614Y145118D02*
Y149118D01*
X192614Y161118D02*
X200614D01*
Y169118*
X192614*
Y161118*
X196614Y165118D02*
Y169118D01*
X172614Y161118D02*
X180614D01*
Y169118*
X172614*
Y161118*
X176614Y165118D02*
Y169118D01*
X172614Y141118D02*
X180614D01*
Y149118*
X172614*
Y141118*
X176614Y145118D02*
Y149118D01*
X686551Y115685D02*
X694551Y123685D01*
X686551D02*
X694551Y115685D01*
X383402Y666866D02*
X391402Y674866D01*
X383402D02*
X391402Y666866D01*
X481591Y633055D02*
X489591Y641055D01*
Y633055*
X481591Y641055*
Y633055*
X466000Y633795D02*
X474000Y641795D01*
Y633795*
X466000Y641795*
Y633795*
X450409D02*
X458409Y641795D01*
Y633795*
X450409Y641795*
Y633795*
X434819D02*
X442819Y641795D01*
Y633795*
X434819Y641795*
Y633795*
X188520Y651181D02*
X196520D01*
X192520Y647181D02*
Y655181D01*
X188520Y661181D02*
X196520D01*
X192520Y657181D02*
Y665181D01*
X198520Y651181D02*
X206520D01*
X202520Y647181D02*
Y655181D01*
X198520Y661181D02*
X206520D01*
X202520Y657181D02*
Y665181D01*
X208520Y651181D02*
X216520D01*
X212520Y647181D02*
Y655181D01*
X208520Y661181D02*
X216520D01*
X212520Y657181D02*
Y665181D01*
X218520Y651181D02*
X226520D01*
X222520Y647181D02*
Y655181D01*
X218520Y661181D02*
X226520D01*
X222520Y657181D02*
Y665181D01*
X228520Y651181D02*
X236520D01*
X232520Y647181D02*
Y655181D01*
X228520Y661181D02*
X236520D01*
X232520Y657181D02*
Y665181D01*
X288913Y651181D02*
X296913D01*
X292913Y647181D02*
Y655181D01*
X288913Y661181D02*
X296913D01*
X292913Y657181D02*
Y665181D01*
X298913Y651181D02*
X306913D01*
X302913Y647181D02*
Y655181D01*
X298913Y661181D02*
X306913D01*
X302913Y657181D02*
Y665181D01*
X308913Y651181D02*
X316913D01*
X312913Y647181D02*
Y655181D01*
X308913Y661181D02*
X316913D01*
X312913Y657181D02*
Y665181D01*
X318913Y651181D02*
X326913D01*
X322913Y647181D02*
Y655181D01*
X318913Y661181D02*
X326913D01*
X322913Y657181D02*
Y665181D01*
X328913Y651181D02*
X336913D01*
X332913Y647181D02*
Y655181D01*
X328913Y661181D02*
X336913D01*
X332913Y657181D02*
Y665181D01*
X507417Y314504D02*
X515417D01*
X507417Y322504*
X515417*
X507417Y314504*
X842063D02*
X850063D01*
X842063Y322504*
X850063*
X842063Y314504*
Y538913D02*
X850063D01*
X842063Y546913*
X850063*
X842063Y538913*
X507417D02*
X515417D01*
X507417Y546913*
X515417*
X507417Y538913*
X245669Y229858D02*
X249669Y233858D01*
X245669Y237858*
X241669Y233858*
X245669Y229858*
Y233858D02*
Y237858D01*
X332283Y229858D02*
X336283Y233858D01*
X332283Y237858*
X328283Y233858*
X332283Y229858*
Y233858D02*
Y237858D01*
X261417Y284976D02*
X265417Y288976D01*
X261417Y292976*
X257417Y288976*
X261417Y284976*
Y288976D02*
Y292976D01*
X288976Y284976D02*
X292976Y288976D01*
X288976Y292976*
X284976Y288976*
X288976Y284976*
Y288976D02*
Y292976D01*
X316535Y284976D02*
X320535Y288976D01*
X316535Y292976*
X312535Y288976*
X316535Y284976*
Y288976D02*
Y292976D01*
X206394Y507480D02*
X214394D01*
X210394Y503480D02*
Y511480D01*
X196394Y497480D02*
X204394D01*
X200394Y493480D02*
Y501480D01*
X186394Y507480D02*
X194394D01*
X190394Y503480D02*
Y511480D01*
X438362Y353937D02*
X446362D01*
X442362Y349937D02*
Y357937D01*
X448362Y363937D02*
X456362D01*
X452362Y359937D02*
Y367937D01*
X458362Y353937D02*
X466362D01*
X462362Y349937D02*
Y357937D01*
X438362Y509449D02*
X446362D01*
X442362Y505449D02*
Y513449D01*
X448362Y519449D02*
X456362D01*
X452362Y515449D02*
Y523449D01*
X458362Y509449D02*
X466362D01*
X462362Y505449D02*
Y513449D01*
X115685Y344031D02*
X123685Y352031D01*
X115685D02*
X123685Y344031D01*
X383402D02*
X391402Y352031D01*
X383402D02*
X391402Y344031D01*
X414898Y107874D02*
X422898D01*
X418898Y103874D02*
Y111874D01*
X454268Y107874D02*
X462268D01*
X458268Y103874D02*
Y111874D01*
X489701Y107874D02*
X497701D01*
X493701Y103874D02*
Y111874D01*
X529071Y107874D02*
X537071D01*
X533071Y103874D02*
Y111874D01*
X568441Y107874D02*
X576441D01*
X572441Y103874D02*
Y111874D01*
X607811Y107874D02*
X615811D01*
X611811Y103874D02*
Y111874D01*
X647181Y107874D02*
X655181D01*
X651181Y103874D02*
Y111874D01*
X725921Y107874D02*
X733921D01*
X729921Y103874D02*
Y111874D01*
X765291Y107874D02*
X773291D01*
X769291Y103874D02*
Y111874D01*
X804661Y107874D02*
X812661D01*
X808661Y103874D02*
Y111874D01*
X844031Y107874D02*
X852031D01*
X848031Y103874D02*
Y111874D01*
X883402Y107874D02*
X891402D01*
X887402Y103874D02*
Y111874D01*
X922772Y107874D02*
X930772D01*
X926772Y103874D02*
Y111874D01*
X962142Y107874D02*
X970142D01*
X966142Y103874D02*
Y111874D01*
X1001512Y107874D02*
X1009512D01*
X1005512Y103874D02*
Y111874D01*
X1040882Y107874D02*
X1048882D01*
X1044882Y103874D02*
Y111874D01*
X407024Y123622D02*
X415024D01*
X411024Y119622D02*
Y127622D01*
X407024Y143307D02*
X415024D01*
X411024Y139307D02*
Y147307D01*
X438520Y143307D02*
X446520D01*
X442520Y139307D02*
Y147307D01*
X438520Y123622D02*
X446520D01*
X442520Y119622D02*
Y127622D01*
X493638Y143307D02*
X501638D01*
X497638Y139307D02*
Y147307D01*
X548756Y143307D02*
X556756D01*
X552756Y139307D02*
Y147307D01*
X548756Y123622D02*
X556756D01*
X552756Y119622D02*
Y127622D01*
X580252Y143307D02*
X588252D01*
X584252Y139307D02*
Y147307D01*
X580252Y123622D02*
X588252D01*
X584252Y119622D02*
Y127622D01*
X623559Y143307D02*
X631559D01*
X627559Y139307D02*
Y147307D01*
X623559Y123622D02*
X631559D01*
X627559Y119622D02*
Y127622D01*
X655055Y143307D02*
X663055D01*
X659055Y139307D02*
Y147307D01*
X655055Y123622D02*
X663055D01*
X659055Y119622D02*
Y127622D01*
X710173Y143307D02*
X718173D01*
X714173Y139307D02*
Y147307D01*
X710173Y123622D02*
X718173D01*
X714173Y119622D02*
Y127622D01*
X765291Y143307D02*
X773291D01*
X769291Y139307D02*
Y147307D01*
X765291Y123622D02*
X773291D01*
X769291Y119622D02*
Y127622D01*
X796787Y143307D02*
X804787D01*
X800787Y139307D02*
Y147307D01*
X796787Y123622D02*
X804787D01*
X800787Y119622D02*
Y127622D01*
X840094Y143307D02*
X848094D01*
X844094Y139307D02*
Y147307D01*
X840094Y123622D02*
X848094D01*
X844094Y119622D02*
Y127622D01*
X871591Y143307D02*
X879591D01*
X875591Y139307D02*
Y147307D01*
X871591Y123622D02*
X879591D01*
X875591Y119622D02*
Y127622D01*
X930646Y143307D02*
X938646D01*
X934646Y139307D02*
Y147307D01*
X930646Y123622D02*
X938646D01*
X934646Y119622D02*
Y127622D01*
X985764Y143307D02*
X993764D01*
X989764Y139307D02*
Y147307D01*
X985764Y123622D02*
X993764D01*
X989764Y119622D02*
Y127622D01*
X1017260Y143307D02*
X1025260D01*
X1021260Y139307D02*
Y147307D01*
X1017260Y123622D02*
X1025260D01*
X1021260Y119622D02*
Y127622D01*
X1068441Y143307D02*
X1076441D01*
X1072441Y139307D02*
Y147307D01*
X194425Y312598D02*
X202425D01*
X198425Y308598D02*
Y316598D01*
X253480Y336220D02*
X261480D01*
X257480Y332220D02*
Y340220D01*
X284976Y328346D02*
X292976D01*
X288976Y324346D02*
Y332346D01*
X357417Y328346D02*
X365417D01*
X361417Y324346D02*
Y332346D01*
X505843Y342126D02*
X513843D01*
X509843Y338126D02*
Y346126D01*
X519228Y342126D02*
X527228D01*
X523228Y338126D02*
Y346126D01*
X533402Y342126D02*
X541402D01*
X537402Y338126D02*
Y346126D01*
X103874Y375591D02*
X111874D01*
X107874Y371591D02*
Y379591D01*
X141276Y387402D02*
X149276D01*
X145276Y383402D02*
Y391402D01*
X151118Y351575D02*
X159118D01*
X155118Y347575D02*
Y355575D01*
X177890Y352362D02*
X185890D01*
X181890Y348362D02*
Y356362D01*
X187339Y385827D02*
X195339D01*
X191339Y381827D02*
Y389827D01*
X166866Y385433D02*
X174866D01*
X170866Y381433D02*
Y389433D01*
X204268Y385433D02*
X212268D01*
X208268Y381433D02*
Y389433D01*
X214110Y353543D02*
X222110D01*
X218110Y349543D02*
Y357543D01*
X192063Y359055D02*
X200063D01*
X196063Y355055D02*
Y363055D01*
X253480Y355906D02*
X261480D01*
X257480Y351906D02*
Y359906D01*
X254268Y379134D02*
X262268D01*
X258268Y375134D02*
Y383134D01*
X231827Y353937D02*
X239827D01*
X235827Y349937D02*
Y357937D01*
X136551Y426378D02*
X144551D01*
X140551Y422378D02*
Y430378D01*
X151118Y424803D02*
X159118D01*
X155118Y420803D02*
Y428803D01*
X228283Y420472D02*
X236283D01*
X232283Y416472D02*
Y424472D01*
X192063Y420472D02*
X200063D01*
X196063Y416472D02*
Y424472D01*
X210173Y420472D02*
X218173D01*
X214173Y416472D02*
Y424472D01*
X119622Y442913D02*
X127622D01*
X123622Y438913D02*
Y446913D01*
X227890Y460236D02*
X235890D01*
X231890Y456236D02*
Y464236D01*
X216079Y460236D02*
X224079D01*
X220079Y456236D02*
Y464236D01*
X204268Y460236D02*
X212268D01*
X208268Y456236D02*
Y464236D01*
X192063Y459843D02*
X200063D01*
X196063Y455843D02*
Y463843D01*
X340094Y458268D02*
X348094D01*
X344094Y454268D02*
Y462268D01*
X322378Y458268D02*
X330378D01*
X326378Y454268D02*
Y462268D01*
X355843Y458268D02*
X363843D01*
X359843Y454268D02*
Y462268D01*
X379465Y458268D02*
X387465D01*
X383465Y454268D02*
Y462268D01*
X403087Y458268D02*
X411087D01*
X407087Y454268D02*
Y462268D01*
X426709Y458268D02*
X434709D01*
X430709Y454268D02*
Y462268D01*
X1036945Y460236D02*
X1044945D01*
X1040945Y456236D02*
Y464236D01*
X131433Y501575D02*
X139433D01*
X135433Y497575D02*
Y505575D01*
X168835Y501575D02*
X176835D01*
X172835Y497575D02*
Y505575D01*
X162929Y477953D02*
X170929D01*
X166929Y473953D02*
Y481953D01*
X229858Y493701D02*
X237858D01*
X233858Y489701D02*
Y497701D01*
X227890Y479921D02*
X235890D01*
X231890Y475921D02*
Y483921D01*
X216079Y479921D02*
X224079D01*
X220079Y475921D02*
Y483921D01*
X192457Y479921D02*
X200457D01*
X196457Y475921D02*
Y483921D01*
X204268Y479921D02*
X212268D01*
X208268Y475921D02*
Y483921D01*
X314504Y479921D02*
X322504D01*
X318504Y475921D02*
Y483921D01*
X326315Y479921D02*
X334315D01*
X330315Y475921D02*
Y483921D01*
X355843Y474016D02*
X363843D01*
X359843Y470016D02*
Y478016D01*
X379465Y477953D02*
X387465D01*
X383465Y473953D02*
Y481953D01*
X403087Y477953D02*
X411087D01*
X407087Y473953D02*
Y481953D01*
X424740Y477953D02*
X432740D01*
X428740Y473953D02*
Y481953D01*
X1036945Y491732D02*
X1044945D01*
X1040945Y487732D02*
Y495732D01*
X131433Y544882D02*
X139433D01*
X135433Y540882D02*
Y548882D01*
X131433Y513386D02*
X139433D01*
X135433Y509386D02*
Y517386D01*
X131433Y529134D02*
X139433D01*
X135433Y525134D02*
Y533134D01*
X170803Y529134D02*
X178803D01*
X174803Y525134D02*
Y533134D01*
X321984Y537008D02*
X329984D01*
X325984Y533008D02*
Y541008D01*
X349937Y537008D02*
X357937D01*
X353937Y533008D02*
Y541008D01*
X324346Y529134D02*
X332346D01*
X328346Y525134D02*
Y533134D01*
X369622Y531102D02*
X377622D01*
X373622Y527102D02*
Y535102D01*
X357811Y529134D02*
X365811D01*
X361811Y525134D02*
Y533134D01*
X407024Y525197D02*
X415024D01*
X411024Y521197D02*
Y529197D01*
X444425Y539764D02*
X452425D01*
X448425Y535764D02*
Y543764D01*
X505449Y521654D02*
X513449D01*
X509449Y517654D02*
Y525654D01*
X533402Y521654D02*
X541402D01*
X537402Y517654D02*
Y525654D01*
X519228Y521654D02*
X527228D01*
X523228Y517654D02*
Y525654D01*
X1013323Y513386D02*
X1021323D01*
X1017323Y509386D02*
Y517386D01*
X1056630Y527165D02*
X1064630D01*
X1060630Y523165D02*
Y531165D01*
X1056630Y546850D02*
X1064630D01*
X1060630Y542850D02*
Y550850D01*
X170803Y560630D02*
X178803D01*
X174803Y556630D02*
Y564630D01*
X223953Y574409D02*
X231953D01*
X227953Y570409D02*
Y578409D01*
X223953Y562598D02*
X231953D01*
X227953Y558598D02*
Y566598D01*
X267260Y574409D02*
X275260D01*
X271260Y570409D02*
Y578409D01*
X306630Y554724D02*
X314630D01*
X310630Y550724D02*
Y558724D01*
X332220Y582283D02*
X340220D01*
X336220Y578283D02*
Y586283D01*
X318441Y586220D02*
X326441D01*
X322441Y582220D02*
Y590220D01*
X355843Y574409D02*
X363843D01*
X359843Y570409D02*
Y578409D01*
X401118Y560630D02*
X409118D01*
X405118Y556630D02*
Y564630D01*
X401118Y570472D02*
X409118D01*
X405118Y566472D02*
Y574472D01*
X468047Y576378D02*
X476047D01*
X472047Y572378D02*
Y580378D01*
X456236Y576378D02*
X464236D01*
X460236Y572378D02*
Y580378D01*
X479858Y576378D02*
X487858D01*
X483858Y572378D02*
Y580378D01*
X527102Y576378D02*
X535102D01*
X531102Y572378D02*
Y580378D01*
X527102Y586220D02*
X535102D01*
X531102Y582220D02*
Y590220D01*
X564504Y574409D02*
X572504D01*
X568504Y570409D02*
Y578409D01*
X576315Y574409D02*
X584315D01*
X580315Y570409D02*
Y578409D01*
X576315Y586220D02*
X584315D01*
X580315Y582220D02*
Y590220D01*
X588126Y586220D02*
X596126D01*
X592126Y582220D02*
Y590220D01*
X588126Y574409D02*
X596126D01*
X592126Y570409D02*
Y578409D01*
X599937Y574409D02*
X607937D01*
X603937Y570409D02*
Y578409D01*
X599937Y586220D02*
X607937D01*
X603937Y582220D02*
Y590220D01*
X1056630Y586220D02*
X1064630D01*
X1060630Y582220D02*
Y590220D01*
X1056630Y566535D02*
X1064630D01*
X1060630Y562535D02*
Y570535D01*
X178677Y619685D02*
X186677D01*
X182677Y615685D02*
Y623685D01*
X218047Y619685D02*
X226047D01*
X222047Y615685D02*
Y623685D01*
X253480Y619685D02*
X261480D01*
X257480Y615685D02*
Y623685D01*
X241669Y601969D02*
X249669D01*
X245669Y597969D02*
Y605969D01*
X288913Y617717D02*
X296913D01*
X292913Y613717D02*
Y621717D01*
X351906Y592126D02*
X359906D01*
X355906Y588126D02*
Y596126D01*
X371591Y592126D02*
X379591D01*
X375591Y588126D02*
Y596126D01*
X398362Y622047D02*
X406362D01*
X402362Y618047D02*
Y626047D01*
X414898Y600000D02*
X422898D01*
X418898Y596000D02*
Y604000D01*
X442457Y600000D02*
X450457D01*
X446457Y596000D02*
Y604000D01*
X103874Y635433D02*
X111874D01*
X107874Y631433D02*
Y639433D01*
X139307Y659055D02*
X147307D01*
X143307Y655055D02*
Y663055D01*
X168835Y640551D02*
X176835D01*
X172835Y636551D02*
Y644551D01*
X220016Y640551D02*
X228016D01*
X224016Y636551D02*
Y644551D01*
X271197Y640551D02*
X279197D01*
X275197Y636551D02*
Y644551D01*
X344031Y635433D02*
X352031D01*
X348031Y631433D02*
Y639433D01*
X387339Y635433D02*
X395339D01*
X391339Y631433D02*
Y639433D01*
X363717Y635433D02*
X371717D01*
X367717Y631433D02*
Y639433D01*
X410961Y635433D02*
X418961D01*
X414961Y631433D02*
Y639433D01*
X450331Y662992D02*
X458331D01*
X454331Y658992D02*
Y666992D01*
X433402Y662992D02*
X441402D01*
X437402Y658992D02*
Y666992D01*
X139307Y682677D02*
X147307D01*
X143307Y678677D02*
Y686677D01*
X178677Y682677D02*
X186677D01*
X182677Y678677D02*
Y686677D01*
X218047Y682677D02*
X226047D01*
X222047Y678677D02*
Y686677D01*
X253480Y682677D02*
X261480D01*
X257480Y678677D02*
Y686677D01*
X288913Y682677D02*
X296913D01*
X292913Y678677D02*
Y686677D01*
X328283Y682677D02*
X336283D01*
X332283Y678677D02*
Y686677D01*
X351906Y682677D02*
X359906D01*
X355906Y678677D02*
Y686677D01*
X410961Y682677D02*
X418961D01*
X414961Y678677D02*
Y686677D01*
X450331Y682677D02*
X458331D01*
X454331Y678677D02*
Y686677D01*
X100000Y111811D02*
G75*
G03X111811Y100000I11811J0D01*
G01X1072441*
G03X1084252Y111811I-0J11811*
G01Y678740*
G03X1072441Y690551I-11811J0*
G01X111811*
G03X100000Y678740I0J-11811*
G01Y111811*
X666929Y498031D02*
X706299D01*
Y363386*
X666929*
Y498031*
X296850Y268000D02*
X554850D01*
X296850Y244000D02*
X554850D01*
X296850Y220000D02*
X554850D01*
X296850Y196000D02*
X554850D01*
X296850Y172000D02*
X554850D01*
X296850Y148000D02*
X554850D01*
X296850Y124000D02*
X554850D01*
X296850Y100000D02*
X554850D01*
X296850Y268000D02*
Y100000D01*
X380850Y268000D02*
Y100000D01*
X416850Y268000D02*
Y100000D01*
X452850Y268000D02*
Y100000D01*
X506850Y268000D02*
Y100000D01*
X554850Y268000D02*
Y100000D01*
X332350Y256750D02*
X331805Y257500D01*
X330987Y257875*
X329896*
X329078Y257500*
X328532Y256750*
Y256000*
X328805Y255250*
X329078Y254875*
X329623Y254500*
X331259Y253750*
X331805Y253375*
X332078Y253000*
X332350Y252250*
Y251125*
X331805Y250375*
X330987Y250000*
X329896*
X329078Y250375*
X328532Y251125*
X334805Y257875D02*
Y250000D01*
X341078Y257875D02*
X337259Y250000D01*
Y257875D02*
X341078D01*
X337259Y250000D02*
X341078D01*
X343532Y257875D02*
Y250000D01*
Y257875D02*
X347078D01*
X343532Y254125D02*
X345714D01*
X343532Y250000D02*
X347078D01*
X390714Y257875D02*
X390169Y257500D01*
X389623Y256750*
X389350Y256000*
X389078Y254875*
Y253000*
X389350Y251875*
X389623Y251125*
X390169Y250375*
X390714Y250000*
X391805*
X392350Y250375*
X392896Y251125*
X393169Y251875*
X393441Y253000*
Y254875*
X393169Y256000*
X392896Y256750*
X392350Y257500*
X391805Y257875*
X390714*
X391532Y251500D02*
X393169Y249250D01*
X397805Y257875D02*
Y250000D01*
X395896Y257875D02*
X399714D01*
X402169D02*
X404350Y254125D01*
Y250000*
X406532Y257875D02*
X404350Y254125D01*
X428896Y256750D02*
X428350Y257500D01*
X427532Y257875*
X426441*
X425623Y257500*
X425078Y256750*
Y256000*
X425350Y255250*
X425623Y254875*
X426169Y254500*
X427805Y253750*
X428350Y253375*
X428623Y253000*
X428896Y252250*
Y251125*
X428350Y250375*
X427532Y250000*
X426441*
X425623Y250375*
X425078Y251125*
X431350Y257875D02*
X433532Y254125D01*
Y250000*
X435714Y257875D02*
X433532Y254125D01*
X438169Y257875D02*
Y250000D01*
Y257875D02*
X440350Y250000D01*
X442532Y257875D02*
X440350Y250000D01*
X442532Y257875D02*
Y250000D01*
X464350Y257875D02*
Y250000D01*
Y257875D02*
X466805D01*
X467623Y257500*
X467896Y257125*
X468169Y256375*
Y255250*
X467896Y254500*
X467623Y254125*
X466805Y253750*
X464350*
X470623Y257875D02*
Y250000D01*
X473896*
X478532Y257875D02*
X476350Y250000D01*
X478532Y257875D02*
X480714Y250000D01*
X477169Y252625D02*
X479896D01*
X485078Y257875D02*
Y250000D01*
X483169Y257875D02*
X486987D01*
X489441D02*
Y250000D01*
Y257875D02*
X492987D01*
X489441Y254125D02*
X491623D01*
X489441Y250000D02*
X492987D01*
X495441Y257875D02*
Y250000D01*
Y257875D02*
X497350D01*
X498169Y257500*
X498714Y256750*
X498987Y256000*
X499259Y254875*
Y253000*
X498987Y251875*
X498714Y251125*
X498169Y250375*
X497350Y250000*
X495441*
X523532Y257875D02*
Y250000D01*
X521623Y257875D02*
X525441D01*
X529532D02*
X528987Y257500D01*
X528441Y256750*
X528169Y256000*
X527896Y254875*
Y253000*
X528169Y251875*
X528441Y251125*
X528987Y250375*
X529532Y250000*
X530623*
X531169Y250375*
X531714Y251125*
X531987Y251875*
X532259Y253000*
Y254875*
X531987Y256000*
X531714Y256750*
X531169Y257500*
X530623Y257875*
X529532*
X534714D02*
Y250000D01*
X537987*
X302850Y232375D02*
X303396Y232750D01*
X304214Y233875*
Y226000*
X390987Y232375D02*
X391532Y232750D01*
X392350Y233875*
Y226000*
X398350Y231250D02*
X398078Y230125D01*
X397532Y229375*
X396714Y229000*
X396441*
X395623Y229375*
X395078Y230125*
X394805Y231250*
Y231625*
X395078Y232750*
X395623Y233500*
X396441Y233875*
X396714*
X397532Y233500*
X398078Y232750*
X398350Y231250*
Y229375*
X398078Y227500*
X397532Y226375*
X396714Y226000*
X396169*
X395350Y226375*
X395078Y227125*
X404623Y233875D02*
X401896Y226000D01*
X400805Y233875D02*
X404623D01*
X428850Y232000D02*
X440850D01*
X434850Y226000D02*
Y238000D01*
X461487Y233875D02*
X463669Y230125D01*
Y226000*
X465850Y233875D02*
X463669Y230125D01*
X468305Y233875D02*
Y226000D01*
Y233875D02*
X471850D01*
X468305Y230125D02*
X470487D01*
X468305Y226000D02*
X471850D01*
X478123Y232750D02*
X477578Y233500D01*
X476759Y233875*
X475669*
X474850Y233500*
X474305Y232750*
Y232000*
X474578Y231250*
X474850Y230875*
X475396Y230500*
X477032Y229750*
X477578Y229375*
X477850Y229000*
X478123Y228250*
Y227125*
X477578Y226375*
X476759Y226000*
X475669*
X474850Y226375*
X474305Y227125*
X514669Y232750D02*
Y226000D01*
X512214Y229375D02*
X517123D01*
X524487Y235375D02*
X519578Y223375D01*
X526941Y229375D02*
X531850D01*
X535941Y233875D02*
X535123Y233500D01*
X534578Y232375*
X534305Y230500*
Y229375*
X534578Y227500*
X535123Y226375*
X535941Y226000*
X536487*
X537305Y226375*
X537850Y227500*
X538123Y229375*
Y230500*
X537850Y232375*
X537305Y233500*
X536487Y233875*
X535941*
X540850Y226750D02*
X540578Y226375D01*
X540850Y226000*
X541123Y226375*
X540850Y226750*
X545214Y233875D02*
X544396Y233500D01*
X543850Y232375*
X543578Y230500*
Y229375*
X543850Y227500*
X544396Y226375*
X545214Y226000*
X545759*
X546578Y226375*
X547123Y227500*
X547396Y229375*
Y230500*
X547123Y232375*
X546578Y233500*
X545759Y233875*
X545214*
X305578Y209875D02*
X302850Y204625D01*
X306941*
X305578Y209875D02*
Y202000D01*
X397259Y209875D02*
X396441Y209500D01*
X396169Y208750*
Y208000*
X396441Y207250*
X396987Y206875*
X398078Y206500*
X398896Y206125*
X399441Y205375*
X399714Y204625*
Y203500*
X399441Y202750*
X399169Y202375*
X398350Y202000*
X397259*
X396441Y202375*
X396169Y202750*
X395896Y203500*
Y204625*
X396169Y205375*
X396714Y206125*
X397532Y206500*
X398623Y206875*
X399169Y207250*
X399441Y208000*
Y208750*
X399169Y209500*
X398350Y209875*
X397259*
X428850Y202000D02*
X440850Y214000D01*
X428850D02*
X440850Y202000D01*
X461487Y209875D02*
X463669Y206125D01*
Y202000*
X465850Y209875D02*
X463669Y206125D01*
X468305Y209875D02*
Y202000D01*
Y209875D02*
X471850D01*
X468305Y206125D02*
X470487D01*
X468305Y202000D02*
X471850D01*
X478123Y208750D02*
X477578Y209500D01*
X476759Y209875*
X475669*
X474850Y209500*
X474305Y208750*
Y208000*
X474578Y207250*
X474850Y206875*
X475396Y206500*
X477032Y205750*
X477578Y205375*
X477850Y205000*
X478123Y204250*
Y203125*
X477578Y202375*
X476759Y202000*
X475669*
X474850Y202375*
X474305Y203125*
X514669Y208750D02*
Y202000D01*
X512214Y205375D02*
X517123D01*
X524487Y211375D02*
X519578Y199375D01*
X526941Y205375D02*
X531850D01*
X535941Y209875D02*
X535123Y209500D01*
X534578Y208375*
X534305Y206500*
Y205375*
X534578Y203500*
X535123Y202375*
X535941Y202000*
X536487*
X537305Y202375*
X537850Y203500*
X538123Y205375*
Y206500*
X537850Y208375*
X537305Y209500*
X536487Y209875*
X535941*
X540850Y202750D02*
X540578Y202375D01*
X540850Y202000*
X541123Y202375*
X540850Y202750*
X545214Y209875D02*
X544396Y209500D01*
X543850Y208375*
X543578Y206500*
Y205375*
X543850Y203500*
X544396Y202375*
X545214Y202000*
X545759*
X546578Y202375*
X547123Y203500*
X547396Y205375*
Y206500*
X547123Y208375*
X546578Y209500*
X545759Y209875*
X545214*
X302850Y184375D02*
X303396Y184750D01*
X304214Y185875*
Y178000*
X306941Y178750D02*
X306669Y178375D01*
X306941Y178000*
X307214Y178375*
X306941Y178750*
X313214Y185875D02*
X310487D01*
X310214Y182500*
X310487Y182875*
X311305Y183250*
X312123*
X312941Y182875*
X313487Y182125*
X313759Y181000*
X313487Y180250*
X313214Y179125*
X312669Y178375*
X311850Y178000*
X311032*
X310214Y178375*
X309941Y178750*
X309669Y179500*
X318941Y185875D02*
X316214Y180625D01*
X320305*
X318941Y185875D02*
Y178000D01*
X393987Y184375D02*
X394532Y184750D01*
X395350Y185875*
Y178000*
X399441Y185875D02*
X398623Y185500D01*
X398078Y184375*
X397805Y182500*
Y181375*
X398078Y179500*
X398623Y178375*
X399441Y178000*
X399987*
X400805Y178375*
X401350Y179500*
X401623Y181375*
Y182500*
X401350Y184375*
X400805Y185500*
X399987Y185875*
X399441*
X428850Y178000D02*
X440850D01*
Y190000*
X428850*
Y178000*
X434850Y184000D02*
Y190000D01*
X461487Y185875D02*
X463669Y182125D01*
Y178000*
X465850Y185875D02*
X463669Y182125D01*
X468305Y185875D02*
Y178000D01*
Y185875D02*
X471850D01*
X468305Y182125D02*
X470487D01*
X468305Y178000D02*
X471850D01*
X478123Y184750D02*
X477578Y185500D01*
X476759Y185875*
X475669*
X474850Y185500*
X474305Y184750*
Y184000*
X474578Y183250*
X474850Y182875*
X475396Y182500*
X477032Y181750*
X477578Y181375*
X477850Y181000*
X478123Y180250*
Y179125*
X477578Y178375*
X476759Y178000*
X475669*
X474850Y178375*
X474305Y179125*
X514669Y184750D02*
Y178000D01*
X512214Y181375D02*
X517123D01*
X524487Y187375D02*
X519578Y175375D01*
X526941Y181375D02*
X531850D01*
X535941Y185875D02*
X535123Y185500D01*
X534578Y184375*
X534305Y182500*
Y181375*
X534578Y179500*
X535123Y178375*
X535941Y178000*
X536487*
X537305Y178375*
X537850Y179500*
X538123Y181375*
Y182500*
X537850Y184375*
X537305Y185500*
X536487Y185875*
X535941*
X540850Y178750D02*
X540578Y178375D01*
X540850Y178000*
X541123Y178375*
X540850Y178750*
X545214Y185875D02*
X544396Y185500D01*
X543850Y184375*
X543578Y182500*
Y181375*
X543850Y179500*
X544396Y178375*
X545214Y178000*
X545759*
X546578Y178375*
X547123Y179500*
X547396Y181375*
Y182500*
X547123Y184375*
X546578Y185500*
X545759Y185875*
X545214*
X302850Y160375D02*
X303396Y160750D01*
X304214Y161875*
Y154000*
X306941Y154750D02*
X306669Y154375D01*
X306941Y154000*
X307214Y154375*
X306941Y154750*
X310214Y161875D02*
X313214D01*
X311578Y158875*
X312396*
X312941Y158500*
X313214Y158125*
X313487Y157000*
Y156250*
X313214Y155125*
X312669Y154375*
X311850Y154000*
X311032*
X310214Y154375*
X309941Y154750*
X309669Y155500*
X399305Y161875D02*
X396578D01*
X396305Y158500*
X396578Y158875*
X397396Y159250*
X398214*
X399032Y158875*
X399578Y158125*
X399850Y157000*
X399578Y156250*
X399305Y155125*
X398759Y154375*
X397941Y154000*
X397123*
X396305Y154375*
X396032Y154750*
X395759Y155500*
X434850Y154000D02*
X440850Y160000D01*
X434850Y166000*
X428850Y160000*
X434850Y154000*
Y160000D02*
Y166000D01*
X461487Y161875D02*
X463669Y158125D01*
Y154000*
X465850Y161875D02*
X463669Y158125D01*
X468305Y161875D02*
Y154000D01*
Y161875D02*
X471850D01*
X468305Y158125D02*
X470487D01*
X468305Y154000D02*
X471850D01*
X478123Y160750D02*
X477578Y161500D01*
X476759Y161875*
X475669*
X474850Y161500*
X474305Y160750*
Y160000*
X474578Y159250*
X474850Y158875*
X475396Y158500*
X477032Y157750*
X477578Y157375*
X477850Y157000*
X478123Y156250*
Y155125*
X477578Y154375*
X476759Y154000*
X475669*
X474850Y154375*
X474305Y155125*
X514669Y160750D02*
Y154000D01*
X512214Y157375D02*
X517123D01*
X524487Y163375D02*
X519578Y151375D01*
X526941Y157375D02*
X531850D01*
X535941Y161875D02*
X535123Y161500D01*
X534578Y160375*
X534305Y158500*
Y157375*
X534578Y155500*
X535123Y154375*
X535941Y154000*
X536487*
X537305Y154375*
X537850Y155500*
X538123Y157375*
Y158500*
X537850Y160375*
X537305Y161500*
X536487Y161875*
X535941*
X540850Y154750D02*
X540578Y154375D01*
X540850Y154000*
X541123Y154375*
X540850Y154750*
X545214Y161875D02*
X544396Y161500D01*
X543850Y160375*
X543578Y158500*
Y157375*
X543850Y155500*
X544396Y154375*
X545214Y154000*
X545759*
X546578Y154375*
X547123Y155500*
X547396Y157375*
Y158500*
X547123Y160375*
X546578Y161500*
X545759Y161875*
X545214*
X303396Y137875D02*
X306396D01*
X304759Y134875*
X305578*
X306123Y134500*
X306396Y134125*
X306669Y133000*
Y132250*
X306396Y131125*
X305850Y130375*
X305032Y130000*
X304214*
X303396Y130375*
X303123Y130750*
X302850Y131500*
X309396Y130750D02*
X309123Y130375D01*
X309396Y130000*
X309669Y130375*
X309396Y130750*
X312669Y137875D02*
X315669D01*
X314032Y134875*
X314850*
X315396Y134500*
X315669Y134125*
X315941Y133000*
Y132250*
X315669Y131125*
X315123Y130375*
X314305Y130000*
X313487*
X312669Y130375*
X312396Y130750*
X312123Y131500*
X398487Y137875D02*
X395759Y132625D01*
X399850*
X398487Y137875D02*
Y130000D01*
X428850D02*
X440850D01*
X428850Y142000*
X440850*
X428850Y130000*
X461487Y137875D02*
X463669Y134125D01*
Y130000*
X465850Y137875D02*
X463669Y134125D01*
X468305Y137875D02*
Y130000D01*
Y137875D02*
X471850D01*
X468305Y134125D02*
X470487D01*
X468305Y130000D02*
X471850D01*
X478123Y136750D02*
X477578Y137500D01*
X476759Y137875*
X475669*
X474850Y137500*
X474305Y136750*
Y136000*
X474578Y135250*
X474850Y134875*
X475396Y134500*
X477032Y133750*
X477578Y133375*
X477850Y133000*
X478123Y132250*
Y131125*
X477578Y130375*
X476759Y130000*
X475669*
X474850Y130375*
X474305Y131125*
X514669Y136750D02*
Y130000D01*
X512214Y133375D02*
X517123D01*
X524487Y139375D02*
X519578Y127375D01*
X526941Y133375D02*
X531850D01*
X535941Y137875D02*
X535123Y137500D01*
X534578Y136375*
X534305Y134500*
Y133375*
X534578Y131500*
X535123Y130375*
X535941Y130000*
X536487*
X537305Y130375*
X537850Y131500*
X538123Y133375*
Y134500*
X537850Y136375*
X537305Y137500*
X536487Y137875*
X535941*
X540850Y130750D02*
X540578Y130375D01*
X540850Y130000*
X541123Y130375*
X540850Y130750*
X545214Y137875D02*
X544396Y137500D01*
X543850Y136375*
X543578Y134500*
Y133375*
X543850Y131500*
X544396Y130375*
X545214Y130000*
X545759*
X546578Y130375*
X547123Y131500*
X547396Y133375*
Y134500*
X547123Y136375*
X546578Y137500*
X545759Y137875*
X545214*
X302850Y112375D02*
X303396Y112750D01*
X304214Y113875*
Y106000*
X306941Y106750D02*
X306669Y106375D01*
X306941Y106000*
X307214Y106375*
X306941Y106750*
X311032Y113875D02*
X310214Y113500D01*
X309941Y112750*
Y112000*
X310214Y111250*
X310759Y110875*
X311850Y110500*
X312669Y110125*
X313214Y109375*
X313487Y108625*
Y107500*
X313214Y106750*
X312941Y106375*
X312123Y106000*
X311032*
X310214Y106375*
X309941Y106750*
X309669Y107500*
Y108625*
X309941Y109375*
X310487Y110125*
X311305Y110500*
X312396Y110875*
X312941Y111250*
X313214Y112000*
Y112750*
X312941Y113500*
X312123Y113875*
X311032*
X398487D02*
X395759Y108625D01*
X399850*
X398487Y113875D02*
Y106000D01*
X428850D02*
X440850Y118000D01*
Y106000*
X428850Y118000*
Y106000*
X461487Y113875D02*
X463669Y110125D01*
Y106000*
X465850Y113875D02*
X463669Y110125D01*
X468305Y113875D02*
Y106000D01*
Y113875D02*
X471850D01*
X468305Y110125D02*
X470487D01*
X468305Y106000D02*
X471850D01*
X478123Y112750D02*
X477578Y113500D01*
X476759Y113875*
X475669*
X474850Y113500*
X474305Y112750*
Y112000*
X474578Y111250*
X474850Y110875*
X475396Y110500*
X477032Y109750*
X477578Y109375*
X477850Y109000*
X478123Y108250*
Y107125*
X477578Y106375*
X476759Y106000*
X475669*
X474850Y106375*
X474305Y107125*
X514669Y112750D02*
Y106000D01*
X512214Y109375D02*
X517123D01*
X524487Y115375D02*
X519578Y103375D01*
X526941Y109375D02*
X531850D01*
X535941Y113875D02*
X535123Y113500D01*
X534578Y112375*
X534305Y110500*
Y109375*
X534578Y107500*
X535123Y106375*
X535941Y106000*
X536487*
X537305Y106375*
X537850Y107500*
X538123Y109375*
Y110500*
X537850Y112375*
X537305Y113500*
X536487Y113875*
X535941*
X540850Y106750D02*
X540578Y106375D01*
X540850Y106000*
X541123Y106375*
X540850Y106750*
X545214Y113875D02*
X544396Y113500D01*
X543850Y112375*
X543578Y110500*
Y109375*
X543850Y107500*
X544396Y106375*
X545214Y106000*
X545759*
X546578Y106375*
X547123Y107500*
X547396Y109375*
Y110500*
X547123Y112375*
X546578Y113500*
X545759Y113875*
X545214*
G74*
X0Y0D02*
M02*
