*
*
G04 PADS 9.5 Build Number: 522968 generated Gerber (RS-274-X) file*
G04 PC Version=2.1*
*
%IN "Plasma_RF_Gen_V1.0_POWE"*%
*
%MOIN*%
*
%FSLAX35Y35*%
*
*
*
*
G04 PC Standard Apertures*
*
*
G04 Thermal Relief Aperture macro.*
%AMTER*
1,1,$1,0,0*
1,0,$1-$2,0,0*
21,0,$3,$4,0,0,45*
21,0,$3,$4,0,0,135*
%
*
*
G04 Annular Aperture macro.*
%AMANN*
1,1,$1,0,0*
1,0,$2,0,0*
%
*
*
G04 Odd Aperture macro.*
%AMODD*
1,1,$1,0,0*
1,0,$1-0.005,0,0*
%
*
*
G04 PC Custom Aperture Macros*
*
*
*
*
*
*
G04 PC Aperture Table*
*
%ADD010C,0.001*%
%ADD050C,0.01*%
*
*
*
*
G04 PC Circuitry*
G04 Layer Name Plasma_RF_Gen_V1.0_POWE - circuitry*
%LPD*%
*
*
G04 PC Custom Flashes*
G04 Layer Name Plasma_RF_Gen_V1.0_POWE - flashes*
%LPD*%
*
*
G04 PC Circuitry*
G04 Layer Name Plasma_RF_Gen_V1.0_POWE - circuitry*
%LPD*%
*
G54D10*
G54D50*
G01X151118Y576315D02*
X159118D01*
Y584315*
X151118*
Y576315*
X155118Y580315D02*
Y584315D01*
X141118Y586315D02*
X149118D01*
Y594315*
X141118*
Y586315*
X145118Y590315D02*
Y594315D01*
X141118Y566315D02*
X149118D01*
Y574315*
X141118*
Y566315*
X145118Y570315D02*
Y574315D01*
X161118Y566315D02*
X169118D01*
Y574315*
X161118*
Y566315*
X165118Y570315D02*
Y574315D01*
X161118Y586315D02*
X169118D01*
Y594315*
X161118*
Y586315*
X165118Y590315D02*
Y594315D01*
X115685Y115685D02*
X123685Y123685D01*
X115685D02*
X123685Y115685D01*
X115685Y666866D02*
X123685Y674866D01*
X115685D02*
X123685Y666866D01*
X1060567D02*
X1068567Y674866D01*
X1060567D02*
X1068567Y666866D01*
X1060567Y115685D02*
X1068567Y123685D01*
X1060567D02*
X1068567Y115685D01*
X182614Y151118D02*
X190614D01*
Y159118*
X182614*
Y151118*
X186614Y155118D02*
Y159118D01*
X192614Y141118D02*
X200614D01*
Y149118*
X192614*
Y141118*
X196614Y145118D02*
Y149118D01*
X192614Y161118D02*
X200614D01*
Y169118*
X192614*
Y161118*
X196614Y165118D02*
Y169118D01*
X172614Y161118D02*
X180614D01*
Y169118*
X172614*
Y161118*
X176614Y165118D02*
Y169118D01*
X172614Y141118D02*
X180614D01*
Y149118*
X172614*
Y141118*
X176614Y145118D02*
Y149118D01*
X686551Y115685D02*
X694551Y123685D01*
X686551D02*
X694551Y115685D01*
X383402Y666866D02*
X391402Y674866D01*
X383402D02*
X391402Y666866D01*
X481591Y637055D02*
X489591D01*
X485591Y633055D02*
Y641055D01*
X487591Y642336D02*
Y639055D01*
Y642336D02*
X488613D01*
X488954Y642180*
X489068Y642024*
X489181Y641711*
Y641399*
X489068Y641086*
X488954Y640930*
X488613Y640774*
X487591D02*
X488613D01*
X488954Y640618*
X489068Y640461*
X489181Y640149*
Y639680*
X489068Y639368*
X488954Y639211*
X488613Y639055*
X487591*
X466000Y637795D02*
X474000D01*
X470000Y633795D02*
Y641795D01*
X472000Y643077D02*
Y639795D01*
Y643077D02*
X473023D01*
X473364Y642920*
X473477Y642764*
X473591Y642452*
Y642139*
X473477Y641827*
X473364Y641670*
X473023Y641514*
X472000D02*
X473023D01*
X473364Y641358*
X473477Y641202*
X473591Y640889*
Y640420*
X473477Y640108*
X473364Y639952*
X473023Y639795*
X472000*
X450409Y637795D02*
X458409D01*
X454409Y633795D02*
Y641795D01*
X456409Y643077D02*
Y639795D01*
Y643077D02*
X457432D01*
X457773Y642920*
X457887Y642764*
X458000Y642452*
Y642139*
X457887Y641827*
X457773Y641670*
X457432Y641514*
X456409D02*
X457432D01*
X457773Y641358*
X457887Y641202*
X458000Y640889*
Y640420*
X457887Y640108*
X457773Y639952*
X457432Y639795*
X456409*
X434819Y637795D02*
X442819D01*
X438819Y633795D02*
Y641795D01*
X440819Y643077D02*
Y639795D01*
Y643077D02*
X441842D01*
X442183Y642920*
X442296Y642764*
X442410Y642452*
Y642139*
X442296Y641827*
X442183Y641670*
X441842Y641514*
X440819D02*
X441842D01*
X442183Y641358*
X442296Y641202*
X442410Y640889*
Y640420*
X442296Y640108*
X442183Y639952*
X441842Y639795*
X440819*
X188520Y651181D02*
X196520D01*
X192520Y647181D02*
Y655181D01*
X188520Y661181D02*
X196520D01*
X192520Y657181D02*
Y665181D01*
X198520Y651181D02*
X206520D01*
X202520Y647181D02*
Y655181D01*
X198520Y661181D02*
X206520D01*
X202520Y657181D02*
Y665181D01*
X208520Y651181D02*
X216520D01*
X212520Y647181D02*
Y655181D01*
X208520Y661181D02*
X216520D01*
X212520Y657181D02*
Y665181D01*
X218520Y651181D02*
X226520D01*
X222520Y647181D02*
Y655181D01*
X218520Y661181D02*
X226520D01*
X222520Y657181D02*
Y665181D01*
X228520Y651181D02*
X236520D01*
X232520Y647181D02*
Y655181D01*
X228520Y661181D02*
X236520D01*
X232520Y657181D02*
Y665181D01*
X288913Y651181D02*
X296913D01*
X292913Y647181D02*
Y655181D01*
X288913Y661181D02*
X296913D01*
X292913Y657181D02*
Y665181D01*
X298913Y651181D02*
X306913D01*
X302913Y647181D02*
Y655181D01*
X298913Y661181D02*
X306913D01*
X302913Y657181D02*
Y665181D01*
X308913Y651181D02*
X316913D01*
X312913Y647181D02*
Y655181D01*
X308913Y661181D02*
X316913D01*
X312913Y657181D02*
Y665181D01*
X318913Y651181D02*
X326913D01*
X322913Y647181D02*
Y655181D01*
X318913Y661181D02*
X326913D01*
X322913Y657181D02*
Y665181D01*
X328913Y651181D02*
X336913D01*
X332913Y647181D02*
Y655181D01*
X328913Y661181D02*
X336913D01*
X332913Y657181D02*
Y665181D01*
X245669Y229858D02*
X249669Y233858D01*
X245669Y237858*
X241669Y233858*
X245669Y229858*
Y233858D02*
Y237858D01*
X332283Y229858D02*
X336283Y233858D01*
X332283Y237858*
X328283Y233858*
X332283Y229858*
Y233858D02*
Y237858D01*
X261417Y284976D02*
X265417Y288976D01*
X261417Y292976*
X257417Y288976*
X261417Y284976*
Y288976D02*
Y292976D01*
X288976Y284976D02*
X292976Y288976D01*
X288976Y292976*
X284976Y288976*
X288976Y284976*
Y288976D02*
Y292976D01*
X316535Y284976D02*
X320535Y288976D01*
X316535Y292976*
X312535Y288976*
X316535Y284976*
Y288976D02*
Y292976D01*
X206394Y507480D02*
X214394D01*
X210394Y503480D02*
Y511480D01*
X196394Y497480D02*
X204394D01*
X200394Y493480D02*
Y501480D01*
X186394Y507480D02*
X194394D01*
X190394Y503480D02*
Y511480D01*
X438362Y353937D02*
X446362D01*
X442362Y349937D02*
Y357937D01*
X448362Y363937D02*
X456362D01*
X452362Y359937D02*
Y367937D01*
X458362Y353937D02*
X466362D01*
X462362Y349937D02*
Y357937D01*
X438362Y509449D02*
X446362D01*
X442362Y505449D02*
Y513449D01*
X448362Y519449D02*
X456362D01*
X452362Y515449D02*
Y523449D01*
X458362Y509449D02*
X466362D01*
X462362Y505449D02*
Y513449D01*
X115685Y344031D02*
X123685Y352031D01*
X115685D02*
X123685Y344031D01*
X383402D02*
X391402Y352031D01*
X383402D02*
X391402Y344031D01*
X378480Y643307D02*
X386480D01*
X382480Y639307D02*
Y647307D01*
X385389Y648588D02*
X384480Y645307D01*
X385389Y648588D02*
X386298Y645307D01*
X384821Y646401D02*
X385958D01*
X388323Y639307D02*
X396323Y647307D01*
Y639307*
X388323Y647307*
Y639307*
X842063Y538913D02*
X850063D01*
X842063Y546913*
X850063*
X842063Y538913*
X507417D02*
X515417D01*
X507417Y546913*
X515417*
X507417Y538913*
Y314504D02*
X515417D01*
X507417Y322504*
X515417*
X507417Y314504*
X842063D02*
X850063D01*
X842063Y322504*
X850063*
X842063Y314504*
X546787D02*
X554787D01*
X546787Y322504*
X554787*
X546787Y314504*
Y538913D02*
X554787D01*
X546787Y546913*
X554787*
X546787Y538913*
X414898Y107874D02*
X422898D01*
X418898Y103874D02*
Y111874D01*
X454268Y107874D02*
X462268D01*
X458268Y103874D02*
Y111874D01*
X489701Y107874D02*
X497701D01*
X493701Y103874D02*
Y111874D01*
X529071Y107874D02*
X537071D01*
X533071Y103874D02*
Y111874D01*
X568441Y107874D02*
X576441D01*
X572441Y103874D02*
Y111874D01*
X607811Y107874D02*
X615811D01*
X611811Y103874D02*
Y111874D01*
X647181Y107874D02*
X655181D01*
X651181Y103874D02*
Y111874D01*
X725921Y107874D02*
X733921D01*
X729921Y103874D02*
Y111874D01*
X765291Y107874D02*
X773291D01*
X769291Y103874D02*
Y111874D01*
X804661Y107874D02*
X812661D01*
X808661Y103874D02*
Y111874D01*
X844031Y107874D02*
X852031D01*
X848031Y103874D02*
Y111874D01*
X883402Y107874D02*
X891402D01*
X887402Y103874D02*
Y111874D01*
X922772Y107874D02*
X930772D01*
X926772Y103874D02*
Y111874D01*
X962142Y107874D02*
X970142D01*
X966142Y103874D02*
Y111874D01*
X1001512Y107874D02*
X1009512D01*
X1005512Y103874D02*
Y111874D01*
X1040882Y107874D02*
X1048882D01*
X1044882Y103874D02*
Y111874D01*
X407024Y123622D02*
X415024D01*
X411024Y119622D02*
Y127622D01*
X407024Y143307D02*
X415024D01*
X411024Y139307D02*
Y147307D01*
X438520Y143307D02*
X446520D01*
X442520Y139307D02*
Y147307D01*
X438520Y123622D02*
X446520D01*
X442520Y119622D02*
Y127622D01*
X493638Y143307D02*
X501638D01*
X497638Y139307D02*
Y147307D01*
X548756Y143307D02*
X556756D01*
X552756Y139307D02*
Y147307D01*
X548756Y123622D02*
X556756D01*
X552756Y119622D02*
Y127622D01*
X580252Y143307D02*
X588252D01*
X584252Y139307D02*
Y147307D01*
X580252Y123622D02*
X588252D01*
X584252Y119622D02*
Y127622D01*
X623559Y143307D02*
X631559D01*
X627559Y139307D02*
Y147307D01*
X623559Y123622D02*
X631559D01*
X627559Y119622D02*
Y127622D01*
X655055Y143307D02*
X663055D01*
X659055Y139307D02*
Y147307D01*
X655055Y123622D02*
X663055D01*
X659055Y119622D02*
Y127622D01*
X710173Y143307D02*
X718173D01*
X714173Y139307D02*
Y147307D01*
X710173Y123622D02*
X718173D01*
X714173Y119622D02*
Y127622D01*
X765291Y143307D02*
X773291D01*
X769291Y139307D02*
Y147307D01*
X765291Y123622D02*
X773291D01*
X769291Y119622D02*
Y127622D01*
X796787Y143307D02*
X804787D01*
X800787Y139307D02*
Y147307D01*
X796787Y123622D02*
X804787D01*
X800787Y119622D02*
Y127622D01*
X840094Y143307D02*
X848094D01*
X844094Y139307D02*
Y147307D01*
X840094Y123622D02*
X848094D01*
X844094Y119622D02*
Y127622D01*
X871591Y143307D02*
X879591D01*
X875591Y139307D02*
Y147307D01*
X871591Y123622D02*
X879591D01*
X875591Y119622D02*
Y127622D01*
X930646Y143307D02*
X938646D01*
X934646Y139307D02*
Y147307D01*
X930646Y123622D02*
X938646D01*
X934646Y119622D02*
Y127622D01*
X985764Y143307D02*
X993764D01*
X989764Y139307D02*
Y147307D01*
X985764Y123622D02*
X993764D01*
X989764Y119622D02*
Y127622D01*
X1017260Y143307D02*
X1025260D01*
X1021260Y139307D02*
Y147307D01*
X1017260Y123622D02*
X1025260D01*
X1021260Y119622D02*
Y127622D01*
X1068441Y143307D02*
X1076441D01*
X1072441Y139307D02*
Y147307D01*
X194425Y312598D02*
X202425D01*
X198425Y308598D02*
Y316598D01*
X253480Y336220D02*
X261480D01*
X257480Y332220D02*
Y340220D01*
X284976Y328346D02*
X292976D01*
X288976Y324346D02*
Y332346D01*
X357417Y328346D02*
X365417D01*
X361417Y324346D02*
Y332346D01*
X505843Y342126D02*
X513843D01*
X509843Y338126D02*
Y346126D01*
X519228Y342126D02*
X527228D01*
X523228Y338126D02*
Y346126D01*
X533402Y342126D02*
X541402D01*
X537402Y338126D02*
Y346126D01*
X103874Y375591D02*
X111874D01*
X107874Y371591D02*
Y379591D01*
X141276Y387402D02*
X149276D01*
X145276Y383402D02*
Y391402D01*
X151118Y351575D02*
X159118D01*
X155118Y347575D02*
Y355575D01*
X177890Y352362D02*
X185890D01*
X181890Y348362D02*
Y356362D01*
X187339Y385827D02*
X195339D01*
X191339Y381827D02*
Y389827D01*
X166866Y385433D02*
X174866D01*
X170866Y381433D02*
Y389433D01*
X204268Y385433D02*
X212268D01*
X208268Y381433D02*
Y389433D01*
X214110Y353543D02*
X222110D01*
X218110Y349543D02*
Y357543D01*
X192063Y359055D02*
X200063D01*
X196063Y355055D02*
Y363055D01*
X253480Y355906D02*
X261480D01*
X257480Y351906D02*
Y359906D01*
X254268Y379134D02*
X262268D01*
X258268Y375134D02*
Y383134D01*
X231827Y353937D02*
X239827D01*
X235827Y349937D02*
Y357937D01*
X136551Y426378D02*
X144551D01*
X140551Y422378D02*
Y430378D01*
X151118Y424803D02*
X159118D01*
X155118Y420803D02*
Y428803D01*
X228283Y420472D02*
X236283D01*
X232283Y416472D02*
Y424472D01*
X192063Y420472D02*
X200063D01*
X196063Y416472D02*
Y424472D01*
X210173Y420472D02*
X218173D01*
X214173Y416472D02*
Y424472D01*
X119622Y442913D02*
X127622D01*
X123622Y438913D02*
Y446913D01*
X227890Y460236D02*
X235890D01*
X231890Y456236D02*
Y464236D01*
X216079Y460236D02*
X224079D01*
X220079Y456236D02*
Y464236D01*
X204268Y460236D02*
X212268D01*
X208268Y456236D02*
Y464236D01*
X192063Y459843D02*
X200063D01*
X196063Y455843D02*
Y463843D01*
X340094Y458268D02*
X348094D01*
X344094Y454268D02*
Y462268D01*
X322378Y458268D02*
X330378D01*
X326378Y454268D02*
Y462268D01*
X355843Y458268D02*
X363843D01*
X359843Y454268D02*
Y462268D01*
X379465Y458268D02*
X387465D01*
X383465Y454268D02*
Y462268D01*
X403087Y458268D02*
X411087D01*
X407087Y454268D02*
Y462268D01*
X426709Y458268D02*
X434709D01*
X430709Y454268D02*
Y462268D01*
X1036945Y460236D02*
X1044945D01*
X1040945Y456236D02*
Y464236D01*
X131433Y501575D02*
X139433D01*
X135433Y497575D02*
Y505575D01*
X168835Y501575D02*
X176835D01*
X172835Y497575D02*
Y505575D01*
X162929Y477953D02*
X170929D01*
X166929Y473953D02*
Y481953D01*
X229858Y493701D02*
X237858D01*
X233858Y489701D02*
Y497701D01*
X227890Y479921D02*
X235890D01*
X231890Y475921D02*
Y483921D01*
X216079Y479921D02*
X224079D01*
X220079Y475921D02*
Y483921D01*
X192457Y479921D02*
X200457D01*
X196457Y475921D02*
Y483921D01*
X204268Y479921D02*
X212268D01*
X208268Y475921D02*
Y483921D01*
X314504Y479921D02*
X322504D01*
X318504Y475921D02*
Y483921D01*
X326315Y479921D02*
X334315D01*
X330315Y475921D02*
Y483921D01*
X355843Y474016D02*
X363843D01*
X359843Y470016D02*
Y478016D01*
X379465Y477953D02*
X387465D01*
X383465Y473953D02*
Y481953D01*
X403087Y477953D02*
X411087D01*
X407087Y473953D02*
Y481953D01*
X424740Y477953D02*
X432740D01*
X428740Y473953D02*
Y481953D01*
X1013323Y501575D02*
X1021323D01*
X1017323Y497575D02*
Y505575D01*
X1038913Y501575D02*
X1046913D01*
X1042913Y497575D02*
Y505575D01*
X1036945Y481890D02*
X1044945D01*
X1040945Y477890D02*
Y485890D01*
X131433Y544882D02*
X139433D01*
X135433Y540882D02*
Y548882D01*
X131433Y513386D02*
X139433D01*
X135433Y509386D02*
Y517386D01*
X131433Y529134D02*
X139433D01*
X135433Y525134D02*
Y533134D01*
X170803Y529134D02*
X178803D01*
X174803Y525134D02*
Y533134D01*
X321984Y537008D02*
X329984D01*
X325984Y533008D02*
Y541008D01*
X349937Y537008D02*
X357937D01*
X353937Y533008D02*
Y541008D01*
X324346Y529134D02*
X332346D01*
X328346Y525134D02*
Y533134D01*
X369622Y531102D02*
X377622D01*
X373622Y527102D02*
Y535102D01*
X407024Y525197D02*
X415024D01*
X411024Y521197D02*
Y529197D01*
X444425Y539764D02*
X452425D01*
X448425Y535764D02*
Y543764D01*
X505449Y521654D02*
X513449D01*
X509449Y517654D02*
Y525654D01*
X533402Y521654D02*
X541402D01*
X537402Y517654D02*
Y525654D01*
X519228Y521654D02*
X527228D01*
X523228Y517654D02*
Y525654D01*
X1025134Y527165D02*
X1033134D01*
X1029134Y523165D02*
Y531165D01*
X1056630Y527165D02*
X1064630D01*
X1060630Y523165D02*
Y531165D01*
X1056630Y546850D02*
X1064630D01*
X1060630Y542850D02*
Y550850D01*
X170803Y560630D02*
X178803D01*
X174803Y556630D02*
Y564630D01*
X223953Y574409D02*
X231953D01*
X227953Y570409D02*
Y578409D01*
X223953Y562598D02*
X231953D01*
X227953Y558598D02*
Y566598D01*
X267260Y574409D02*
X275260D01*
X271260Y570409D02*
Y578409D01*
X284110Y570315D02*
X292110D01*
X288110Y566315D02*
Y574315D01*
X292457Y579134D02*
X300457D01*
X296457Y575134D02*
Y583134D01*
X332220Y582283D02*
X340220D01*
X336220Y578283D02*
Y586283D01*
X315291Y559449D02*
X323291D01*
X319291Y555449D02*
Y563449D01*
X355843Y574409D02*
X363843D01*
X359843Y570409D02*
Y578409D01*
X401118Y560630D02*
X409118D01*
X405118Y556630D02*
Y564630D01*
X401118Y570472D02*
X409118D01*
X405118Y566472D02*
Y574472D01*
X468047Y576378D02*
X476047D01*
X472047Y572378D02*
Y580378D01*
X456236Y576378D02*
X464236D01*
X460236Y572378D02*
Y580378D01*
X479858Y576378D02*
X487858D01*
X483858Y572378D02*
Y580378D01*
X527102Y576378D02*
X535102D01*
X531102Y572378D02*
Y580378D01*
X527102Y586220D02*
X535102D01*
X531102Y582220D02*
Y590220D01*
X564504Y574409D02*
X572504D01*
X568504Y570409D02*
Y578409D01*
X576315Y574409D02*
X584315D01*
X580315Y570409D02*
Y578409D01*
X576315Y586220D02*
X584315D01*
X580315Y582220D02*
Y590220D01*
X588126Y586220D02*
X596126D01*
X592126Y582220D02*
Y590220D01*
X588126Y574409D02*
X596126D01*
X592126Y570409D02*
Y578409D01*
X599937Y574409D02*
X607937D01*
X603937Y570409D02*
Y578409D01*
X599937Y586220D02*
X607937D01*
X603937Y582220D02*
Y590220D01*
X1056630Y586220D02*
X1064630D01*
X1060630Y582220D02*
Y590220D01*
X1056630Y566535D02*
X1064630D01*
X1060630Y562535D02*
Y570535D01*
X178677Y619685D02*
X186677D01*
X182677Y615685D02*
Y623685D01*
X218047Y619685D02*
X226047D01*
X222047Y615685D02*
Y623685D01*
X260961Y593701D02*
X268961D01*
X264961Y589701D02*
Y597701D01*
X253480Y619685D02*
X261480D01*
X257480Y615685D02*
Y623685D01*
X241669Y601969D02*
X249669D01*
X245669Y597969D02*
Y605969D01*
X291276Y604331D02*
X299276D01*
X295276Y600331D02*
Y608331D01*
X293638Y614961D02*
X301638D01*
X297638Y610961D02*
Y618961D01*
X293638Y624409D02*
X301638D01*
X297638Y620409D02*
Y628409D01*
X322378Y619291D02*
X330378D01*
X326378Y615291D02*
Y623291D01*
X351906Y592126D02*
X359906D01*
X355906Y588126D02*
Y596126D01*
X371591Y592126D02*
X379591D01*
X375591Y588126D02*
Y596126D01*
X398362Y622047D02*
X406362D01*
X402362Y618047D02*
Y626047D01*
X414898Y600000D02*
X422898D01*
X418898Y596000D02*
Y604000D01*
X442457Y600000D02*
X450457D01*
X446457Y596000D02*
Y604000D01*
X103874Y635433D02*
X111874D01*
X107874Y631433D02*
Y639433D01*
X139307Y659055D02*
X147307D01*
X143307Y655055D02*
Y663055D01*
X168835Y640551D02*
X176835D01*
X172835Y636551D02*
Y644551D01*
X220016Y640551D02*
X228016D01*
X224016Y636551D02*
Y644551D01*
X271197Y640551D02*
X279197D01*
X275197Y636551D02*
Y644551D01*
X344031Y635433D02*
X352031D01*
X348031Y631433D02*
Y639433D01*
X363717Y635433D02*
X371717D01*
X367717Y631433D02*
Y639433D01*
X410961Y635433D02*
X418961D01*
X414961Y631433D02*
Y639433D01*
X450331Y662992D02*
X458331D01*
X454331Y658992D02*
Y666992D01*
X139307Y682677D02*
X147307D01*
X143307Y678677D02*
Y686677D01*
X178677Y682677D02*
X186677D01*
X182677Y678677D02*
Y686677D01*
X218047Y682677D02*
X226047D01*
X222047Y678677D02*
Y686677D01*
X253480Y682677D02*
X261480D01*
X257480Y678677D02*
Y686677D01*
X288913Y682677D02*
X296913D01*
X292913Y678677D02*
Y686677D01*
X328283Y682677D02*
X336283D01*
X332283Y678677D02*
Y686677D01*
X351906Y682677D02*
X359906D01*
X355906Y678677D02*
Y686677D01*
X410961Y682677D02*
X418961D01*
X414961Y678677D02*
Y686677D01*
X450331Y682677D02*
X458331D01*
X454331Y678677D02*
Y686677D01*
X100000Y111811D02*
G75*
G03X111811Y100000I11811J0D01*
G01X1072441*
G03X1084252Y111811I-0J11811*
G01Y678740*
G03X1072441Y690551I-11811J0*
G01X111811*
G03X100000Y678740I0J-11811*
G01Y111811*
X665354Y526772D02*
X749606D01*
Y491732*
X713780*
X707874Y485827*
Y359843*
X665354*
Y526772*
X1281102Y316000D02*
X1539102D01*
X1281102Y292000D02*
X1539102D01*
X1281102Y268000D02*
X1539102D01*
X1281102Y244000D02*
X1539102D01*
X1281102Y220000D02*
X1539102D01*
X1281102Y196000D02*
X1539102D01*
X1281102Y172000D02*
X1539102D01*
X1281102Y148000D02*
X1539102D01*
X1281102Y124000D02*
X1539102D01*
X1281102Y100000D02*
X1539102D01*
X1281102Y316000D02*
Y100000D01*
X1365102Y316000D02*
Y100000D01*
X1401102Y316000D02*
Y100000D01*
X1437102Y316000D02*
Y100000D01*
X1491102Y316000D02*
Y100000D01*
X1539102Y316000D02*
Y100000D01*
X1316602Y304750D02*
X1316057Y305500D01*
X1315239Y305875*
X1314148*
X1313330Y305500*
X1312784Y304750*
Y304000*
X1313057Y303250*
X1313330Y302875*
X1313875Y302500*
X1315511Y301750*
X1316057Y301375*
X1316330Y301000*
X1316602Y300250*
Y299125*
X1316057Y298375*
X1315239Y298000*
X1314148*
X1313330Y298375*
X1312784Y299125*
X1319057Y305875D02*
Y298000D01*
X1325330Y305875D02*
X1321511Y298000D01*
Y305875D02*
X1325330D01*
X1321511Y298000D02*
X1325330D01*
X1327784Y305875D02*
Y298000D01*
Y305875D02*
X1331330D01*
X1327784Y302125D02*
X1329966D01*
X1327784Y298000D02*
X1331330D01*
X1374966Y305875D02*
X1374421Y305500D01*
X1373875Y304750*
X1373602Y304000*
X1373330Y302875*
Y301000*
X1373602Y299875*
X1373875Y299125*
X1374421Y298375*
X1374966Y298000*
X1376057*
X1376602Y298375*
X1377148Y299125*
X1377421Y299875*
X1377693Y301000*
Y302875*
X1377421Y304000*
X1377148Y304750*
X1376602Y305500*
X1376057Y305875*
X1374966*
X1375784Y299500D02*
X1377421Y297250D01*
X1382057Y305875D02*
Y298000D01*
X1380148Y305875D02*
X1383966D01*
X1386421D02*
X1388602Y302125D01*
Y298000*
X1390784Y305875D02*
X1388602Y302125D01*
X1413148Y304750D02*
X1412602Y305500D01*
X1411784Y305875*
X1410693*
X1409875Y305500*
X1409330Y304750*
Y304000*
X1409602Y303250*
X1409875Y302875*
X1410421Y302500*
X1412057Y301750*
X1412602Y301375*
X1412875Y301000*
X1413148Y300250*
Y299125*
X1412602Y298375*
X1411784Y298000*
X1410693*
X1409875Y298375*
X1409330Y299125*
X1415602Y305875D02*
X1417784Y302125D01*
Y298000*
X1419966Y305875D02*
X1417784Y302125D01*
X1422421Y305875D02*
Y298000D01*
Y305875D02*
X1424602Y298000D01*
X1426784Y305875D02*
X1424602Y298000D01*
X1426784Y305875D02*
Y298000D01*
X1448602Y305875D02*
Y298000D01*
Y305875D02*
X1451057D01*
X1451875Y305500*
X1452148Y305125*
X1452421Y304375*
Y303250*
X1452148Y302500*
X1451875Y302125*
X1451057Y301750*
X1448602*
X1454875Y305875D02*
Y298000D01*
X1458148*
X1462784Y305875D02*
X1460602Y298000D01*
X1462784Y305875D02*
X1464966Y298000D01*
X1461421Y300625D02*
X1464148D01*
X1469330Y305875D02*
Y298000D01*
X1467421Y305875D02*
X1471239D01*
X1473693D02*
Y298000D01*
Y305875D02*
X1477239D01*
X1473693Y302125D02*
X1475875D01*
X1473693Y298000D02*
X1477239D01*
X1479693Y305875D02*
Y298000D01*
Y305875D02*
X1481602D01*
X1482421Y305500*
X1482966Y304750*
X1483239Y304000*
X1483511Y302875*
Y301000*
X1483239Y299875*
X1482966Y299125*
X1482421Y298375*
X1481602Y298000*
X1479693*
X1507784Y305875D02*
Y298000D01*
X1505875Y305875D02*
X1509693D01*
X1513784D02*
X1513239Y305500D01*
X1512693Y304750*
X1512421Y304000*
X1512148Y302875*
Y301000*
X1512421Y299875*
X1512693Y299125*
X1513239Y298375*
X1513784Y298000*
X1514875*
X1515421Y298375*
X1515966Y299125*
X1516239Y299875*
X1516511Y301000*
Y302875*
X1516239Y304000*
X1515966Y304750*
X1515421Y305500*
X1514875Y305875*
X1513784*
X1518966D02*
Y298000D01*
X1522239*
X1287102Y280375D02*
X1287648Y280750D01*
X1288466Y281875*
Y274000*
X1375375Y280000D02*
Y280375D01*
X1375648Y281125*
X1375921Y281500*
X1376466Y281875*
X1377557*
X1378102Y281500*
X1378375Y281125*
X1378648Y280375*
Y279625*
X1378375Y278875*
X1377830Y277750*
X1375102Y274000*
X1378921*
X1383011Y281875D02*
X1382193Y281500D01*
X1381648Y280375*
X1381375Y278500*
Y277375*
X1381648Y275500*
X1382193Y274375*
X1383011Y274000*
X1383557*
X1384375Y274375*
X1384921Y275500*
X1385193Y277375*
Y278500*
X1384921Y280375*
X1384375Y281500*
X1383557Y281875*
X1383011*
X1387648Y280375D02*
X1388193Y280750D01*
X1389011Y281875*
Y274000*
X1413102Y280000D02*
X1425102D01*
X1419102Y274000D02*
Y286000D01*
X1445739Y281875D02*
X1447921Y278125D01*
Y274000*
X1450102Y281875D02*
X1447921Y278125D01*
X1452557Y281875D02*
Y274000D01*
Y281875D02*
X1456102D01*
X1452557Y278125D02*
X1454739D01*
X1452557Y274000D02*
X1456102D01*
X1462375Y280750D02*
X1461830Y281500D01*
X1461011Y281875*
X1459921*
X1459102Y281500*
X1458557Y280750*
Y280000*
X1458830Y279250*
X1459102Y278875*
X1459648Y278500*
X1461284Y277750*
X1461830Y277375*
X1462102Y277000*
X1462375Y276250*
Y275125*
X1461830Y274375*
X1461011Y274000*
X1459921*
X1459102Y274375*
X1458557Y275125*
X1498921Y280750D02*
Y274000D01*
X1496466Y277375D02*
X1501375D01*
X1508739Y283375D02*
X1503830Y271375D01*
X1511193Y277375D02*
X1516102D01*
X1520193Y281875D02*
X1519375Y281500D01*
X1518830Y280375*
X1518557Y278500*
Y277375*
X1518830Y275500*
X1519375Y274375*
X1520193Y274000*
X1520739*
X1521557Y274375*
X1522102Y275500*
X1522375Y277375*
Y278500*
X1522102Y280375*
X1521557Y281500*
X1520739Y281875*
X1520193*
X1525102Y274750D02*
X1524830Y274375D01*
X1525102Y274000*
X1525375Y274375*
X1525102Y274750*
X1529466Y281875D02*
X1528648Y281500D01*
X1528102Y280375*
X1527830Y278500*
Y277375*
X1528102Y275500*
X1528648Y274375*
X1529466Y274000*
X1530011*
X1530830Y274375*
X1531375Y275500*
X1531648Y277375*
Y278500*
X1531375Y280375*
X1530830Y281500*
X1530011Y281875*
X1529466*
X1289830Y257875D02*
X1287102Y252625D01*
X1291193*
X1289830Y257875D02*
Y250000D01*
X1381511Y257875D02*
X1380693Y257500D01*
X1380421Y256750*
Y256000*
X1380693Y255250*
X1381239Y254875*
X1382330Y254500*
X1383148Y254125*
X1383693Y253375*
X1383966Y252625*
Y251500*
X1383693Y250750*
X1383421Y250375*
X1382602Y250000*
X1381511*
X1380693Y250375*
X1380421Y250750*
X1380148Y251500*
Y252625*
X1380421Y253375*
X1380966Y254125*
X1381784Y254500*
X1382875Y254875*
X1383421Y255250*
X1383693Y256000*
Y256750*
X1383421Y257500*
X1382602Y257875*
X1381511*
X1413102Y250000D02*
X1425102Y262000D01*
X1413102D02*
X1425102Y250000D01*
X1445739Y257875D02*
X1447921Y254125D01*
Y250000*
X1450102Y257875D02*
X1447921Y254125D01*
X1452557Y257875D02*
Y250000D01*
Y257875D02*
X1456102D01*
X1452557Y254125D02*
X1454739D01*
X1452557Y250000D02*
X1456102D01*
X1462375Y256750D02*
X1461830Y257500D01*
X1461011Y257875*
X1459921*
X1459102Y257500*
X1458557Y256750*
Y256000*
X1458830Y255250*
X1459102Y254875*
X1459648Y254500*
X1461284Y253750*
X1461830Y253375*
X1462102Y253000*
X1462375Y252250*
Y251125*
X1461830Y250375*
X1461011Y250000*
X1459921*
X1459102Y250375*
X1458557Y251125*
X1498921Y256750D02*
Y250000D01*
X1496466Y253375D02*
X1501375D01*
X1508739Y259375D02*
X1503830Y247375D01*
X1511193Y253375D02*
X1516102D01*
X1520193Y257875D02*
X1519375Y257500D01*
X1518830Y256375*
X1518557Y254500*
Y253375*
X1518830Y251500*
X1519375Y250375*
X1520193Y250000*
X1520739*
X1521557Y250375*
X1522102Y251500*
X1522375Y253375*
Y254500*
X1522102Y256375*
X1521557Y257500*
X1520739Y257875*
X1520193*
X1525102Y250750D02*
X1524830Y250375D01*
X1525102Y250000*
X1525375Y250375*
X1525102Y250750*
X1529466Y257875D02*
X1528648Y257500D01*
X1528102Y256375*
X1527830Y254500*
Y253375*
X1528102Y251500*
X1528648Y250375*
X1529466Y250000*
X1530011*
X1530830Y250375*
X1531375Y251500*
X1531648Y253375*
Y254500*
X1531375Y256375*
X1530830Y257500*
X1530011Y257875*
X1529466*
X1287102Y232375D02*
X1287648Y232750D01*
X1288466Y233875*
Y226000*
X1291193Y226750D02*
X1290921Y226375D01*
X1291193Y226000*
X1291466Y226375*
X1291193Y226750*
X1297466Y233875D02*
X1294739D01*
X1294466Y230500*
X1294739Y230875*
X1295557Y231250*
X1296375*
X1297193Y230875*
X1297739Y230125*
X1298011Y229000*
X1297739Y228250*
X1297466Y227125*
X1296921Y226375*
X1296102Y226000*
X1295284*
X1294466Y226375*
X1294193Y226750*
X1293921Y227500*
X1303193Y233875D02*
X1300466Y228625D01*
X1304557*
X1303193Y233875D02*
Y226000D01*
X1378239Y232375D02*
X1378784Y232750D01*
X1379602Y233875*
Y226000*
X1383693Y233875D02*
X1382875Y233500D01*
X1382330Y232375*
X1382057Y230500*
Y229375*
X1382330Y227500*
X1382875Y226375*
X1383693Y226000*
X1384239*
X1385057Y226375*
X1385602Y227500*
X1385875Y229375*
Y230500*
X1385602Y232375*
X1385057Y233500*
X1384239Y233875*
X1383693*
X1413102Y226000D02*
X1425102D01*
Y238000*
X1413102*
Y226000*
X1419102Y232000D02*
Y238000D01*
X1445739Y233875D02*
X1447921Y230125D01*
Y226000*
X1450102Y233875D02*
X1447921Y230125D01*
X1452557Y233875D02*
Y226000D01*
Y233875D02*
X1456102D01*
X1452557Y230125D02*
X1454739D01*
X1452557Y226000D02*
X1456102D01*
X1462375Y232750D02*
X1461830Y233500D01*
X1461011Y233875*
X1459921*
X1459102Y233500*
X1458557Y232750*
Y232000*
X1458830Y231250*
X1459102Y230875*
X1459648Y230500*
X1461284Y229750*
X1461830Y229375*
X1462102Y229000*
X1462375Y228250*
Y227125*
X1461830Y226375*
X1461011Y226000*
X1459921*
X1459102Y226375*
X1458557Y227125*
X1498921Y232750D02*
Y226000D01*
X1496466Y229375D02*
X1501375D01*
X1508739Y235375D02*
X1503830Y223375D01*
X1511193Y229375D02*
X1516102D01*
X1520193Y233875D02*
X1519375Y233500D01*
X1518830Y232375*
X1518557Y230500*
Y229375*
X1518830Y227500*
X1519375Y226375*
X1520193Y226000*
X1520739*
X1521557Y226375*
X1522102Y227500*
X1522375Y229375*
Y230500*
X1522102Y232375*
X1521557Y233500*
X1520739Y233875*
X1520193*
X1525102Y226750D02*
X1524830Y226375D01*
X1525102Y226000*
X1525375Y226375*
X1525102Y226750*
X1529466Y233875D02*
X1528648Y233500D01*
X1528102Y232375*
X1527830Y230500*
Y229375*
X1528102Y227500*
X1528648Y226375*
X1529466Y226000*
X1530011*
X1530830Y226375*
X1531375Y227500*
X1531648Y229375*
Y230500*
X1531375Y232375*
X1530830Y233500*
X1530011Y233875*
X1529466*
X1287102Y208375D02*
X1287648Y208750D01*
X1288466Y209875*
Y202000*
X1291193Y202750D02*
X1290921Y202375D01*
X1291193Y202000*
X1291466Y202375*
X1291193Y202750*
X1294466Y209875D02*
X1297466D01*
X1295830Y206875*
X1296648*
X1297193Y206500*
X1297466Y206125*
X1297739Y205000*
Y204250*
X1297466Y203125*
X1296921Y202375*
X1296102Y202000*
X1295284*
X1294466Y202375*
X1294193Y202750*
X1293921Y203500*
X1383557Y209875D02*
X1380830D01*
X1380557Y206500*
X1380830Y206875*
X1381648Y207250*
X1382466*
X1383284Y206875*
X1383830Y206125*
X1384102Y205000*
X1383830Y204250*
X1383557Y203125*
X1383011Y202375*
X1382193Y202000*
X1381375*
X1380557Y202375*
X1380284Y202750*
X1380011Y203500*
X1419102Y202000D02*
X1425102Y208000D01*
X1419102Y214000*
X1413102Y208000*
X1419102Y202000*
Y208000D02*
Y214000D01*
X1445739Y209875D02*
X1447921Y206125D01*
Y202000*
X1450102Y209875D02*
X1447921Y206125D01*
X1452557Y209875D02*
Y202000D01*
Y209875D02*
X1456102D01*
X1452557Y206125D02*
X1454739D01*
X1452557Y202000D02*
X1456102D01*
X1462375Y208750D02*
X1461830Y209500D01*
X1461011Y209875*
X1459921*
X1459102Y209500*
X1458557Y208750*
Y208000*
X1458830Y207250*
X1459102Y206875*
X1459648Y206500*
X1461284Y205750*
X1461830Y205375*
X1462102Y205000*
X1462375Y204250*
Y203125*
X1461830Y202375*
X1461011Y202000*
X1459921*
X1459102Y202375*
X1458557Y203125*
X1498921Y208750D02*
Y202000D01*
X1496466Y205375D02*
X1501375D01*
X1508739Y211375D02*
X1503830Y199375D01*
X1511193Y205375D02*
X1516102D01*
X1520193Y209875D02*
X1519375Y209500D01*
X1518830Y208375*
X1518557Y206500*
Y205375*
X1518830Y203500*
X1519375Y202375*
X1520193Y202000*
X1520739*
X1521557Y202375*
X1522102Y203500*
X1522375Y205375*
Y206500*
X1522102Y208375*
X1521557Y209500*
X1520739Y209875*
X1520193*
X1525102Y202750D02*
X1524830Y202375D01*
X1525102Y202000*
X1525375Y202375*
X1525102Y202750*
X1529466Y209875D02*
X1528648Y209500D01*
X1528102Y208375*
X1527830Y206500*
Y205375*
X1528102Y203500*
X1528648Y202375*
X1529466Y202000*
X1530011*
X1530830Y202375*
X1531375Y203500*
X1531648Y205375*
Y206500*
X1531375Y208375*
X1530830Y209500*
X1530011Y209875*
X1529466*
X1287648Y185875D02*
X1290648D01*
X1289011Y182875*
X1289830*
X1290375Y182500*
X1290648Y182125*
X1290921Y181000*
Y180250*
X1290648Y179125*
X1290102Y178375*
X1289284Y178000*
X1288466*
X1287648Y178375*
X1287375Y178750*
X1287102Y179500*
X1293648Y178750D02*
X1293375Y178375D01*
X1293648Y178000*
X1293921Y178375*
X1293648Y178750*
X1296921Y185875D02*
X1299921D01*
X1298284Y182875*
X1299102*
X1299648Y182500*
X1299921Y182125*
X1300193Y181000*
Y180250*
X1299921Y179125*
X1299375Y178375*
X1298557Y178000*
X1297739*
X1296921Y178375*
X1296648Y178750*
X1296375Y179500*
X1383557Y184750D02*
X1383284Y185500D01*
X1382466Y185875*
X1381921*
X1381102Y185500*
X1380557Y184375*
X1380284Y182500*
Y180625*
X1380557Y179125*
X1381102Y178375*
X1381921Y178000*
X1382193*
X1383011Y178375*
X1383557Y179125*
X1383830Y180250*
Y180625*
X1383557Y181750*
X1383011Y182500*
X1382193Y182875*
X1381921*
X1381102Y182500*
X1380557Y181750*
X1380284Y180625*
X1413102Y178000D02*
X1425102D01*
X1413102Y190000*
X1425102*
X1413102Y178000*
X1445739Y185875D02*
X1447921Y182125D01*
Y178000*
X1450102Y185875D02*
X1447921Y182125D01*
X1452557Y185875D02*
Y178000D01*
Y185875D02*
X1456102D01*
X1452557Y182125D02*
X1454739D01*
X1452557Y178000D02*
X1456102D01*
X1462375Y184750D02*
X1461830Y185500D01*
X1461011Y185875*
X1459921*
X1459102Y185500*
X1458557Y184750*
Y184000*
X1458830Y183250*
X1459102Y182875*
X1459648Y182500*
X1461284Y181750*
X1461830Y181375*
X1462102Y181000*
X1462375Y180250*
Y179125*
X1461830Y178375*
X1461011Y178000*
X1459921*
X1459102Y178375*
X1458557Y179125*
X1498921Y184750D02*
Y178000D01*
X1496466Y181375D02*
X1501375D01*
X1508739Y187375D02*
X1503830Y175375D01*
X1511193Y181375D02*
X1516102D01*
X1520193Y185875D02*
X1519375Y185500D01*
X1518830Y184375*
X1518557Y182500*
Y181375*
X1518830Y179500*
X1519375Y178375*
X1520193Y178000*
X1520739*
X1521557Y178375*
X1522102Y179500*
X1522375Y181375*
Y182500*
X1522102Y184375*
X1521557Y185500*
X1520739Y185875*
X1520193*
X1525102Y178750D02*
X1524830Y178375D01*
X1525102Y178000*
X1525375Y178375*
X1525102Y178750*
X1529466Y185875D02*
X1528648Y185500D01*
X1528102Y184375*
X1527830Y182500*
Y181375*
X1528102Y179500*
X1528648Y178375*
X1529466Y178000*
X1530011*
X1530830Y178375*
X1531375Y179500*
X1531648Y181375*
Y182500*
X1531375Y184375*
X1530830Y185500*
X1530011Y185875*
X1529466*
X1288739Y161875D02*
X1287921Y161500D01*
X1287375Y160375*
X1287102Y158500*
Y157375*
X1287375Y155500*
X1287921Y154375*
X1288739Y154000*
X1289284*
X1290102Y154375*
X1290648Y155500*
X1290921Y157375*
Y158500*
X1290648Y160375*
X1290102Y161500*
X1289284Y161875*
X1288739*
X1293648Y154750D02*
X1293375Y154375D01*
X1293648Y154000*
X1293921Y154375*
X1293648Y154750*
X1297739Y161875D02*
X1296921Y161500D01*
X1296648Y160750*
Y160000*
X1296921Y159250*
X1297466Y158875*
X1298557Y158500*
X1299375Y158125*
X1299921Y157375*
X1300193Y156625*
Y155500*
X1299921Y154750*
X1299648Y154375*
X1298830Y154000*
X1297739*
X1296921Y154375*
X1296648Y154750*
X1296375Y155500*
Y156625*
X1296648Y157375*
X1297193Y158125*
X1298011Y158500*
X1299102Y158875*
X1299648Y159250*
X1299921Y160000*
Y160750*
X1299648Y161500*
X1298830Y161875*
X1297739*
X1304011D02*
X1303193Y161500D01*
X1302921Y160750*
Y160000*
X1303193Y159250*
X1303739Y158875*
X1304830Y158500*
X1305648Y158125*
X1306193Y157375*
X1306466Y156625*
Y155500*
X1306193Y154750*
X1305921Y154375*
X1305102Y154000*
X1304011*
X1303193Y154375*
X1302921Y154750*
X1302648Y155500*
Y156625*
X1302921Y157375*
X1303466Y158125*
X1304284Y158500*
X1305375Y158875*
X1305921Y159250*
X1306193Y160000*
Y160750*
X1305921Y161500*
X1305102Y161875*
X1304011*
X1312466Y159250D02*
X1312193Y158125D01*
X1311648Y157375*
X1310830Y157000*
X1310557*
X1309739Y157375*
X1309193Y158125*
X1308921Y159250*
Y159625*
X1309193Y160750*
X1309739Y161500*
X1310557Y161875*
X1310830*
X1311648Y161500*
X1312193Y160750*
X1312466Y159250*
Y157375*
X1312193Y155500*
X1311648Y154375*
X1310830Y154000*
X1310284*
X1309466Y154375*
X1309193Y155125*
X1381375Y160375D02*
X1381921Y160750D01*
X1382739Y161875*
Y154000*
X1413102D02*
X1425102Y166000D01*
Y154000*
X1413102Y166000*
Y154000*
X1445739Y161875D02*
X1447921Y158125D01*
Y154000*
X1450102Y161875D02*
X1447921Y158125D01*
X1452557Y161875D02*
Y154000D01*
Y161875D02*
X1456102D01*
X1452557Y158125D02*
X1454739D01*
X1452557Y154000D02*
X1456102D01*
X1462375Y160750D02*
X1461830Y161500D01*
X1461011Y161875*
X1459921*
X1459102Y161500*
X1458557Y160750*
Y160000*
X1458830Y159250*
X1459102Y158875*
X1459648Y158500*
X1461284Y157750*
X1461830Y157375*
X1462102Y157000*
X1462375Y156250*
Y155125*
X1461830Y154375*
X1461011Y154000*
X1459921*
X1459102Y154375*
X1458557Y155125*
X1498921Y160750D02*
Y154000D01*
X1496466Y157375D02*
X1501375D01*
X1508739Y163375D02*
X1503830Y151375D01*
X1511193Y157375D02*
X1516102D01*
X1520193Y161875D02*
X1519375Y161500D01*
X1518830Y160375*
X1518557Y158500*
Y157375*
X1518830Y155500*
X1519375Y154375*
X1520193Y154000*
X1520739*
X1521557Y154375*
X1522102Y155500*
X1522375Y157375*
Y158500*
X1522102Y160375*
X1521557Y161500*
X1520739Y161875*
X1520193*
X1525102Y154750D02*
X1524830Y154375D01*
X1525102Y154000*
X1525375Y154375*
X1525102Y154750*
X1529466Y161875D02*
X1528648Y161500D01*
X1528102Y160375*
X1527830Y158500*
Y157375*
X1528102Y155500*
X1528648Y154375*
X1529466Y154000*
X1530011*
X1530830Y154375*
X1531375Y155500*
X1531648Y157375*
Y158500*
X1531375Y160375*
X1530830Y161500*
X1530011Y161875*
X1529466*
X1288739Y137875D02*
X1287921Y137500D01*
X1287375Y136375*
X1287102Y134500*
Y133375*
X1287375Y131500*
X1287921Y130375*
X1288739Y130000*
X1289284*
X1290102Y130375*
X1290648Y131500*
X1290921Y133375*
Y134500*
X1290648Y136375*
X1290102Y137500*
X1289284Y137875*
X1288739*
X1293648Y130750D02*
X1293375Y130375D01*
X1293648Y130000*
X1293921Y130375*
X1293648Y130750*
X1299921Y135250D02*
X1299648Y134125D01*
X1299102Y133375*
X1298284Y133000*
X1298011*
X1297193Y133375*
X1296648Y134125*
X1296375Y135250*
Y135625*
X1296648Y136750*
X1297193Y137500*
X1298011Y137875*
X1298284*
X1299102Y137500*
X1299648Y136750*
X1299921Y135250*
Y133375*
X1299648Y131500*
X1299102Y130375*
X1298284Y130000*
X1297739*
X1296921Y130375*
X1296648Y131125*
X1381375Y136375D02*
X1381921Y136750D01*
X1382739Y137875*
Y130000*
X1413102Y136000D02*
X1425102D01*
X1419102Y130000D02*
Y142000D01*
X1423848Y145300D02*
X1422102Y139000D01*
X1423848Y145300D02*
X1425593Y139000D01*
X1422757Y141100D02*
X1424939D01*
X1445739Y137875D02*
X1447921Y134125D01*
Y130000*
X1450102Y137875D02*
X1447921Y134125D01*
X1452557Y137875D02*
Y130000D01*
Y137875D02*
X1456102D01*
X1452557Y134125D02*
X1454739D01*
X1452557Y130000D02*
X1456102D01*
X1462375Y136750D02*
X1461830Y137500D01*
X1461011Y137875*
X1459921*
X1459102Y137500*
X1458557Y136750*
Y136000*
X1458830Y135250*
X1459102Y134875*
X1459648Y134500*
X1461284Y133750*
X1461830Y133375*
X1462102Y133000*
X1462375Y132250*
Y131125*
X1461830Y130375*
X1461011Y130000*
X1459921*
X1459102Y130375*
X1458557Y131125*
X1498921Y136750D02*
Y130000D01*
X1496466Y133375D02*
X1501375D01*
X1508739Y139375D02*
X1503830Y127375D01*
X1511193Y133375D02*
X1516102D01*
X1520193Y137875D02*
X1519375Y137500D01*
X1518830Y136375*
X1518557Y134500*
Y133375*
X1518830Y131500*
X1519375Y130375*
X1520193Y130000*
X1520739*
X1521557Y130375*
X1522102Y131500*
X1522375Y133375*
Y134500*
X1522102Y136375*
X1521557Y137500*
X1520739Y137875*
X1520193*
X1525102Y130750D02*
X1524830Y130375D01*
X1525102Y130000*
X1525375Y130375*
X1525102Y130750*
X1529466Y137875D02*
X1528648Y137500D01*
X1528102Y136375*
X1527830Y134500*
Y133375*
X1528102Y131500*
X1528648Y130375*
X1529466Y130000*
X1530011*
X1530830Y130375*
X1531375Y131500*
X1531648Y133375*
Y134500*
X1531375Y136375*
X1530830Y137500*
X1530011Y137875*
X1529466*
X1287102Y112375D02*
X1287648Y112750D01*
X1288466Y113875*
Y106000*
X1291193Y106750D02*
X1290921Y106375D01*
X1291193Y106000*
X1291466Y106375*
X1291193Y106750*
X1295284Y113875D02*
X1294466Y113500D01*
X1294193Y112750*
Y112000*
X1294466Y111250*
X1295011Y110875*
X1296102Y110500*
X1296921Y110125*
X1297466Y109375*
X1297739Y108625*
Y107500*
X1297466Y106750*
X1297193Y106375*
X1296375Y106000*
X1295284*
X1294466Y106375*
X1294193Y106750*
X1293921Y107500*
Y108625*
X1294193Y109375*
X1294739Y110125*
X1295557Y110500*
X1296648Y110875*
X1297193Y111250*
X1297466Y112000*
Y112750*
X1297193Y113500*
X1296375Y113875*
X1295284*
X1382739D02*
X1380011Y108625D01*
X1384102*
X1382739Y113875D02*
Y106000D01*
X1413102Y112000D02*
X1425102D01*
X1419102Y106000D02*
Y118000D01*
X1422102Y121300D02*
Y115000D01*
Y121300D02*
X1424066D01*
X1424721Y121000*
X1424939Y120700*
X1425157Y120100*
Y119500*
X1424939Y118900*
X1424721Y118600*
X1424066Y118300*
X1422102D02*
X1424066D01*
X1424721Y118000*
X1424939Y117700*
X1425157Y117100*
Y116200*
X1424939Y115600*
X1424721Y115300*
X1424066Y115000*
X1422102*
X1445739Y113875D02*
X1447921Y110125D01*
Y106000*
X1450102Y113875D02*
X1447921Y110125D01*
X1452557Y113875D02*
Y106000D01*
Y113875D02*
X1456102D01*
X1452557Y110125D02*
X1454739D01*
X1452557Y106000D02*
X1456102D01*
X1462375Y112750D02*
X1461830Y113500D01*
X1461011Y113875*
X1459921*
X1459102Y113500*
X1458557Y112750*
Y112000*
X1458830Y111250*
X1459102Y110875*
X1459648Y110500*
X1461284Y109750*
X1461830Y109375*
X1462102Y109000*
X1462375Y108250*
Y107125*
X1461830Y106375*
X1461011Y106000*
X1459921*
X1459102Y106375*
X1458557Y107125*
X1498921Y112750D02*
Y106000D01*
X1496466Y109375D02*
X1501375D01*
X1508739Y115375D02*
X1503830Y103375D01*
X1511193Y109375D02*
X1516102D01*
X1520193Y113875D02*
X1519375Y113500D01*
X1518830Y112375*
X1518557Y110500*
Y109375*
X1518830Y107500*
X1519375Y106375*
X1520193Y106000*
X1520739*
X1521557Y106375*
X1522102Y107500*
X1522375Y109375*
Y110500*
X1522102Y112375*
X1521557Y113500*
X1520739Y113875*
X1520193*
X1525102Y106750D02*
X1524830Y106375D01*
X1525102Y106000*
X1525375Y106375*
X1525102Y106750*
X1529466Y113875D02*
X1528648Y113500D01*
X1528102Y112375*
X1527830Y110500*
Y109375*
X1528102Y107500*
X1528648Y106375*
X1529466Y106000*
X1530011*
X1530830Y106375*
X1531375Y107500*
X1531648Y109375*
Y110500*
X1531375Y112375*
X1530830Y113500*
X1530011Y113875*
X1529466*
G74*
X0Y0D02*
M02*
