%
T1C.035F0S0
X039232Y064331
T2C.03543F0S0
X038248Y064331
T3C.03937F0S0
X015512Y035157
X010787Y037559
X014528Y03874
X015512Y04248
X014055Y042638
X012362Y044291
X013543Y050157
X013543Y051339
X013543Y052913
X013543Y054488
X010787Y063543
X014331Y065906
X014331Y068268
X018268Y068268
X020252Y066118
X019252Y066118
X019252Y065118
X020252Y065118
X017283Y064055
X018268Y061969
X01748Y056063
X01748Y052913
X019039Y050748
X017283Y050157
X020039Y049748
X019646Y047992
X016693Y047795
X019606Y045984
X019606Y042047
X019134Y038583
X017087Y038543
X019606Y035906
X018189Y035236
X019843Y03126
X025748Y033622
X021811Y035354
X023583Y035394
X025748Y035591
X020827Y038543
X023228Y042047
X021417Y042047
X023189Y046024
X022008Y046024
X020827Y046024
X023189Y047992
X022008Y047992
X020827Y047992
X023386Y04937
X021039Y050748
X022795Y05626
X022795Y057441
X024567Y060197
X022205Y061969
X025748Y061969
X022402Y064055
X021252Y065118
X022252Y065118
X023252Y065118
X022252Y066118
X021252Y066118
X023252Y066118
X022205Y068268
X025748Y068268
X029291Y068268
X030291Y066118
X029291Y066118
X029291Y065118
X030291Y065118
X02752Y064055
X029764Y062441
X029764Y061496
X029528Y060433
X026496Y05937
X029646Y057913
X027126Y057441
X028811Y057031
X025827Y037913
X028898Y032835
X032638Y045827
X034409Y045827
X03185Y047992
X033031Y047992
X032835Y052913
X032598Y053701
X035394Y053701
X031929Y055945
X033622Y058228
X035591Y059213
X032638Y061929
X034803Y063543
X031291Y065118
X033291Y065118
X032291Y065118
X031291Y066118
X033291Y066118
X032291Y066118
X033228Y068268
X035591Y068268
X036772Y063543
X040236Y062205
X037559Y059213
X035984Y057441
X040512Y057047
X040512Y056063
X037362Y05311
X038346Y047795
X040709Y047795
X035984Y047402
X040709Y045827
X035984Y045827
X038346Y045827
X036142Y032835
X04189Y010787
X041102Y012362
X044252Y012362
X041102Y014331
X044252Y014331
X044236Y035394
X045236Y036394
X043071Y045827
X042874Y047795
X044236Y050945
X045236Y051945
X041102Y05252
X044843Y053976
X044646Y06
X04189Y06
X041496Y063543
X045433Y066299
X041496Y068268
X045433Y068268
X05311Y058622
X046024Y057638
X048386Y057638
X05311Y057638
X047205Y057638
X052323Y052165
X050945Y052165
X046236Y050945
X046236Y035394
X052323Y034213
X050984Y034213
X049764Y014331
X045827Y010787
X04937Y010787
X053307Y010787
X057244Y010787
X055276Y012362
X058425Y012362
X055276Y014331
X058425Y014331
X05374Y034213
X05374Y052165
X058031Y057441
X059213Y057441
X060394Y057441
X05685Y057441
X060394Y058622
X059213Y058622
X058031Y058622
X062756Y014331
X065906Y014331
X062756Y012362
X065906Y012362
X065118Y010787
X061181Y010787
X072992Y010787
X076929Y010787
X071417Y012362
X076929Y012362
X080079Y012362
X071417Y014331
X080079Y014331
X076929Y014331
X084409Y014331
X087559Y014331
X084409Y012362
X087559Y012362
X084803Y010787
X080866Y010787
X08874Y010787
X092677Y010787
X096614Y010787
X100551Y010787
X093465Y012362
X098976Y012362
X098976Y014331
X093465Y014331
X106063Y058622
X106063Y056654
X106063Y054685
X106063Y052717
X102913Y052717
X104291Y050157
X101732Y050157
X104094Y048189
X104094Y046024
X107244Y014331
X102126Y014331
X102126Y012362
X104488Y010787
T4C.05118F0S0
X024567Y023386
X026142Y028898
X028898Y028898
X031654Y028898
X033228Y023386
T5C.06063F0S0
X017661Y014512
X019661Y014512
X018661Y015512
X017661Y016512
X019661Y016512
X016512Y057031
X014512Y057031
X015512Y058031
X016512Y059031
X014512Y059031
T6C.07087F0S0
X045441Y06378
X043882Y06378
X047Y06378
X048559Y063706
T7C.12992F0S0
X051142Y03185
X051142Y054291
X055079Y054291
X055079Y03185
X084606Y03185
X084606Y054291
T8C.15748F0S0
X011969Y011969
X011969Y034803
X011969Y067087
X03874Y067087
X03874Y034803
X069055Y011969
X106457Y011969
X106457Y067087
M30
