*
*
G04 PADS 9.5 Build Number: 522968 generated Gerber (RS-274-X) file*
G04 PC Version=2.1*
*
%IN "Plasma_RF_Gen_V1.0_POWE"*%
*
%MOIN*%
*
%FSLAX35Y35*%
*
*
*
*
G04 PC Standard Apertures*
*
*
G04 Thermal Relief Aperture macro.*
%AMTER*
1,1,$1,0,0*
1,0,$1-$2,0,0*
21,0,$3,$4,0,0,45*
21,0,$3,$4,0,0,135*
%
*
*
G04 Annular Aperture macro.*
%AMANN*
1,1,$1,0,0*
1,0,$2,0,0*
%
*
*
G04 Odd Aperture macro.*
%AMODD*
1,1,$1,0,0*
1,0,$1-0.005,0,0*
%
*
*
G04 PC Custom Aperture Macros*
*
*
*
*
*
*
G04 PC Aperture Table*
*
%ADD010C,0.001*%
%ADD050C,0.01*%
%ADD083C,0.09252*%
%ADD084C,0.33661*%
%ADD086R,0.1122X0.1122*%
%ADD087C,0.1122*%
%ADD093R,0.06197X0.06197*%
%ADD094C,0.13189*%
%ADD098C,0.07283*%
*
*
*
*
G04 PC Circuitry*
G04 Layer Name Plasma_RF_Gen_V1.0_POWE - circuitry*
%LPD*%
*
*
G04 PC Custom Flashes*
G04 Layer Name Plasma_RF_Gen_V1.0_POWE - flashes*
%LPD*%
*
*
G04 PC Circuitry*
G04 Layer Name Plasma_RF_Gen_V1.0_POWE - circuitry*
%LPD*%
*
G54D10*
G54D50*
G01X100000Y111811D02*
G75*
G03X111811Y100000I11811J0D01*
G01X1072441*
G03X1084252Y111811I-0J11811*
G01Y678740*
G03X1072441Y690551I-11811J0*
G01X111811*
G03X100000Y678740I0J-11811*
G01Y111811*
X666929Y498031D02*
X706299D01*
Y363386*
X666929*
Y498031*
G54D83*
X155118Y580315D03*
X145118Y590315D03*
Y570315D03*
X165118D03*
Y590315D03*
X186614Y155118D03*
X196614Y145118D03*
Y165118D03*
X176614D03*
Y145118D03*
X245669Y233858D03*
X332283D03*
X261417Y288976D03*
X288976D03*
X316535D03*
G54D84*
X119685Y119685D03*
Y670866D03*
X1064567D03*
Y119685D03*
X690551D03*
X387402Y670866D03*
X119685Y348031D03*
X387402D03*
G54D86*
X485591Y637055D03*
G54D87*
X470000Y637795D03*
X454409D03*
X438819D03*
G54D93*
X192520Y651181D03*
Y661181D03*
X202520Y651181D03*
Y661181D03*
X212520Y651181D03*
Y661181D03*
X222520Y651181D03*
Y661181D03*
X232520Y651181D03*
Y661181D03*
X292913Y651181D03*
Y661181D03*
X302913Y651181D03*
Y661181D03*
X312913Y651181D03*
Y661181D03*
X322913Y651181D03*
Y661181D03*
X332913Y651181D03*
Y661181D03*
G54D94*
X511417Y318504D03*
X846063D03*
Y542913D03*
X511417D03*
G54D98*
X210394Y507480D03*
X200394Y497480D03*
X190394Y507480D03*
X442362Y353937D03*
X452362Y363937D03*
X462362Y353937D03*
X442362Y509449D03*
X452362Y519449D03*
X462362Y509449D03*
G74*
X0Y0D02*
M02*
