*
*
G04 PADS 9.5 Build Number: 522968 generated Gerber (RS-274-X) file*
G04 PC Version=2.1*
*
%IN "Plasma_RF_Gen_V1.0_POWE"*%
*
%MOIN*%
*
%FSLAX35Y35*%
*
*
*
*
G04 PC Standard Apertures*
*
*
G04 Thermal Relief Aperture macro.*
%AMTER*
1,1,$1,0,0*
1,0,$1-$2,0,0*
21,0,$3,$4,0,0,45*
21,0,$3,$4,0,0,135*
%
*
*
G04 Annular Aperture macro.*
%AMANN*
1,1,$1,0,0*
1,0,$2,0,0*
%
*
*
G04 Odd Aperture macro.*
%AMODD*
1,1,$1,0,0*
1,0,$1-0.005,0,0*
%
*
*
G04 PC Custom Aperture Macros*
*
*
*
*
*
*
G04 PC Aperture Table*
*
%ADD010C,0.001*%
%ADD050C,0.01*%
%ADD100C,0.008*%
%ADD101C,0.006*%
%ADD102C,0.00394*%
%ADD103C,0.012*%
%ADD104C,0.005*%
%ADD105C,0.007*%
%ADD106C,0.00039*%
%ADD107C,0.00787*%
%ADD108C,0.00492*%
%ADD109C,0.0015*%
*
*
*
*
G04 PC Circuitry*
G04 Layer Name Plasma_RF_Gen_V1.0_POWE - circuitry*
%LPD*%
*
*
G04 PC Custom Flashes*
G04 Layer Name Plasma_RF_Gen_V1.0_POWE - flashes*
%LPD*%
*
*
G04 PC Circuitry*
G04 Layer Name Plasma_RF_Gen_V1.0_POWE - circuitry*
%LPD*%
*
G54D10*
G54D50*
G01X203205Y595969D02*
G75*
G03X221205I9000J2976D01*
G01Y607969D02*
G03X203205I-9000J-2977D01*
G01X227362Y452362D02*
X200984D01*
Y428740*
X227362*
Y452362*
X243701Y509449D02*
Y454331D01*
X298819*
Y509449*
X243701*
X761417Y462205D02*
X816535D01*
Y517323*
X761417*
Y462205*
Y346063D02*
X816535D01*
Y401181*
X761417*
Y346063*
X550787Y470079D02*
X466142D01*
Y391339*
X550787*
Y470079*
X667106Y497953D02*
Y363465D01*
X706122*
Y497953*
X667106*
X851969Y375591D02*
X970079D01*
Y487795*
X851969*
Y375591*
X366982Y549317D02*
Y548917D01*
X366582Y549117*
X366982Y549317*
X366945Y604472D02*
Y604072D01*
X366545Y604272*
X366945Y604472*
X385370Y578909D02*
G03X385370I-1000J0D01*
G01X891339Y580315D02*
Y655118D01*
X938583D02*
G03X891339I-23622J-1652D01*
G01X938583D02*
Y580315D01*
X891339D02*
G03X938583I23622J1652D01*
G01X425787Y659055D02*
X498622D01*
Y698425*
X425787*
Y659055*
X458268Y698425D02*
X466142D01*
Y690551*
X458268*
Y698425*
X425787Y659055D02*
X498622D01*
Y698425*
X425787*
Y659055*
X458268Y698425D02*
X466142D01*
Y690551*
X458268*
Y698425*
X124157Y380299D02*
X123757D01*
X123957Y380699*
X124157Y380299*
X182520Y671181D02*
X242520D01*
Y641181*
X182520*
Y671181*
X282913D02*
X342913D01*
Y641181*
X282913*
Y671181*
X211799Y368780D02*
G03X211799I-1000J0D01*
G01X198862Y335157D02*
G03X198862I-1000J0D01*
G01X275197Y265354D02*
X302756D01*
Y202362*
X275197*
Y265354*
X265354Y239764D02*
X312598D01*
X265354Y227953D02*
X312598D01*
X313780Y413780D02*
X303543D01*
Y404331*
X313780*
Y413780*
X348819Y419685D02*
Y429921D01*
X339370*
Y419685*
X348819*
X277260Y531945D02*
G03Y549945I-2977J9000D01*
G01X265260D02*
G03Y531945I2976J-9000D01*
G01X390551Y413780D02*
X380315D01*
Y404331*
X390551*
Y413780*
X503449Y607031D02*
G03Y589031I2976J-9000D01*
G01X515449D02*
G03Y607031I-2977J9000D01*
G01X546756D02*
G03Y589031I2976J-9000D01*
G01X558756D02*
G03Y607031I-2977J9000D01*
G01X159843Y478740D02*
Y488976D01*
X150394*
Y478740*
X159843*
X293701Y307480D02*
Y317717D01*
X284252*
Y307480*
X293701*
X100000Y111811D02*
G03X111811Y100000I11811J0D01*
G01X1072441*
G03X1084252Y111811I-0J11811*
G01Y678740*
G03X1072441Y690551I-11811J0*
G01X111811*
G03X100000Y678740I0J-11811*
G01Y111811*
X666929Y498031D02*
X706299D01*
Y363386*
X666929*
Y498031*
G54D100*
X150197Y500000D02*
Y503150D01*
X159055Y498031D02*
X143307D01*
Y505118*
X159055*
Y498031*
X152165Y500000D02*
Y503150D01*
X535433Y508858D02*
X538583D01*
X533465Y500000D02*
Y515748D01*
X540551*
Y500000*
X533465*
X535433Y506890D02*
X538583D01*
X521654Y508858D02*
X524803D01*
X519685Y500000D02*
Y515748D01*
X526772*
Y500000*
X519685*
X521654Y506890D02*
X524803D01*
X227559Y362795D02*
X224409D01*
X229528Y371654D02*
Y355906D01*
X222441*
Y371654*
X229528*
X227559Y364764D02*
X224409D01*
X473622Y549803D02*
X470472D01*
X475591Y558661D02*
Y542913D01*
X468504*
Y558661*
X475591*
X473622Y551772D02*
X470472D01*
X307677Y616142D02*
Y619291D01*
X316535Y614173D02*
X300787D01*
Y621260*
X316535*
Y614173*
X309646Y616142D02*
Y619291D01*
X153543Y463189D02*
X156693D01*
X151575Y454331D02*
Y470079D01*
X158661*
Y454331*
X151575*
X153543Y461220D02*
X156693D01*
X390318Y562242D02*
Y559092D01*
X381459Y564210D02*
X397207D01*
Y557123*
X381459*
Y564210*
X388349Y562242D02*
Y559092D01*
X360827Y407480D02*
Y410630D01*
X369685Y405512D02*
X353937D01*
Y412598*
X369685*
Y405512*
X362795Y407480D02*
Y410630D01*
X388386Y590551D02*
Y593701D01*
X397244Y588583D02*
X381496D01*
Y595669*
X397244*
Y588583*
X390354Y590551D02*
Y593701D01*
X388386Y600394D02*
Y603543D01*
X397244Y598425D02*
X381496D01*
Y605512*
X397244*
Y598425*
X390354Y600394D02*
Y603543D01*
X538583Y352559D02*
X535433D01*
X540551Y361417D02*
Y345669D01*
X533465*
Y361417*
X540551*
X538583Y354528D02*
X535433D01*
X524803Y352559D02*
X521654D01*
X526772Y361417D02*
Y345669D01*
X519685*
Y361417*
X526772*
X524803Y354528D02*
X521654D01*
X284055Y407480D02*
Y410630D01*
X292913Y405512D02*
X277165D01*
Y412598*
X292913*
Y405512*
X286024Y407480D02*
Y410630D01*
X324803Y425787D02*
X327953D01*
X322835Y416929D02*
Y432677D01*
X329921*
Y416929*
X322835*
X324803Y423819D02*
X327953D01*
X160630Y362795D02*
X157480D01*
X162598Y371654D02*
Y355906D01*
X155512*
Y371654*
X162598*
X160630Y364764D02*
X157480D01*
X299213Y313583D02*
X302362D01*
X297244Y304724D02*
Y320472D01*
X304331*
Y304724*
X297244*
X299213Y311614D02*
X302362D01*
X195669Y595969D02*
Y589370D01*
X200000Y585039*
X228740*
Y596469*
X195669Y607969D02*
Y614567D01*
X200000Y618898*
X228740*
Y607469*
Y607481D02*
X214705D01*
X228740Y596457D02*
X214705D01*
X390945Y621654D02*
X387795D01*
X389370Y620079D02*
Y623228D01*
X397244Y618110D02*
X381496D01*
Y625197*
X397244*
Y618110*
X387795Y611811D02*
X390945D01*
X389370Y613386D02*
Y610236D01*
X381496Y615354D02*
X397244D01*
Y608268*
X381496*
Y615354*
X390945Y539961D02*
X387795D01*
X389370Y538386D02*
Y541535D01*
X397244Y536417D02*
X381496D01*
Y543504*
X397244*
Y536417*
X310236Y576378D02*
X307087D01*
X308661Y574803D02*
Y577953D01*
X316535Y572835D02*
X300787D01*
Y579921*
X316535*
Y572835*
X188189Y367717D02*
X185039D01*
X186614Y366142D02*
Y369291D01*
X194488Y364173D02*
X178740D01*
Y371260*
X194488*
Y364173*
X170866Y362205D02*
Y365354D01*
X169291Y363780D02*
X172441D01*
X167323Y355906D02*
Y371654D01*
X174409*
Y355906*
X167323*
X310236Y607874D02*
X307087D01*
X308661Y606299D02*
Y609449D01*
X316535Y604331D02*
X300787D01*
Y611417*
X316535*
Y604331*
X387758Y531139D02*
X390908D01*
X389333Y532714D02*
Y529564D01*
X381459Y534682D02*
X397207D01*
Y527596*
X381459*
Y534682*
X171260Y458268D02*
X174409D01*
X172835Y459843D02*
Y456693D01*
X164961Y461811D02*
X180709D01*
Y454724*
X164961*
Y461811*
X155118Y530709D02*
Y527559D01*
X156693Y529134D02*
X153543D01*
X158661Y537008D02*
Y521260D01*
X151575*
Y537008*
X158661*
X149606Y544882D02*
X152756D01*
X151181Y546457D02*
Y543307D01*
X143307Y548425D02*
X159055D01*
Y541339*
X143307*
Y548425*
X149606Y513386D02*
X152756D01*
X151181Y514961D02*
Y511811D01*
X143307Y516929D02*
X159055D01*
Y509843*
X143307*
Y516929*
X509449Y351969D02*
Y355118D01*
X507874Y353543D02*
X511024D01*
X505906Y345669D02*
Y361417D01*
X512992*
Y345669*
X505906*
X553150Y503543D02*
X556299D01*
X554724Y505118D02*
Y501969D01*
X546850Y507087D02*
X562598D01*
Y500000*
X546850*
Y507087*
X553150Y357874D02*
X556299D01*
X554724Y359449D02*
Y356299D01*
X546850Y361417D02*
X562598D01*
Y354331*
X546850*
Y361417*
X493307Y357874D02*
X490157D01*
X491732Y356299D02*
Y359449D01*
X499606Y354331D02*
X483858D01*
Y361417*
X499606*
Y354331*
X155118Y435039D02*
Y438189D01*
X153543Y436614D02*
X156693D01*
X151575Y428740D02*
Y444488D01*
X158661*
Y428740*
X151575*
X171260Y440551D02*
X174409D01*
X172835Y442126D02*
Y438976D01*
X164961Y444094D02*
X180709D01*
Y437008*
X164961*
Y444094*
X493307Y503543D02*
X490157D01*
X491732Y501969D02*
Y505118D01*
X499606Y500000D02*
X483858D01*
Y507087*
X499606*
Y500000*
X509449Y509449D02*
Y506299D01*
X511024Y507874D02*
X507874D01*
X512992Y515748D02*
Y500000D01*
X505906*
Y515748*
X512992*
X171654Y410630D02*
X205512D01*
Y395669*
X171654*
Y410630*
X188583D02*
Y395669D01*
X189783Y410630D02*
Y395670D01*
X187383Y410630D02*
Y395670D01*
X188983Y410630D02*
Y395670D01*
X188183Y410630D02*
Y395670D01*
X775197Y635433D02*
X680709D01*
Y603937*
X775197*
Y635433*
X641339Y525197D02*
X735827D01*
Y556693*
X641339*
Y525197*
X643307Y304724D02*
X737795D01*
Y336220*
X643307*
Y304724*
X1009449Y161024D02*
X1001575D01*
X1009449Y157087D02*
X1001575D01*
X1005512D02*
Y151969D01*
Y161024D02*
Y166142D01*
X863780Y161024D02*
X855906D01*
X863780Y157087D02*
X855906D01*
X859843D02*
Y151969D01*
Y161024D02*
Y166142D01*
X788976Y161024D02*
X781102D01*
X788976Y157087D02*
X781102D01*
X785039D02*
Y151969D01*
Y161024D02*
Y166142D01*
X647244Y161024D02*
X639370D01*
X647244Y157087D02*
X639370D01*
X643307D02*
Y151969D01*
Y161024D02*
Y166142D01*
X572441Y161024D02*
X564567D01*
X572441Y157087D02*
X564567D01*
X568504D02*
Y151969D01*
Y161024D02*
Y166142D01*
X430709Y161024D02*
X422835D01*
X430709Y157087D02*
X422835D01*
X426772D02*
Y151969D01*
Y161024D02*
Y166142D01*
X1005512Y550787D02*
Y542913D01*
X1009449Y550787D02*
Y542913D01*
Y546850D02*
X1014567D01*
X1005512D02*
X1000394D01*
X1005512Y586220D02*
Y578346D01*
X1009449Y586220D02*
Y578346D01*
Y582283D02*
X1014567D01*
X1005512D02*
X1000394D01*
X1013386Y277165D02*
X848031D01*
Y214173*
X1013386*
Y277165*
X796850D02*
X631496D01*
Y214173*
X796850*
Y277165*
X580315D02*
X414961D01*
Y214173*
X580315*
Y277165*
X341142Y593701D02*
Y590551D01*
X332283Y595669D02*
X348031D01*
Y588583*
X332283*
Y595669*
X339173Y593701D02*
Y590551D01*
X341142Y538583D02*
Y535433D01*
X332283Y540551D02*
X348031D01*
Y533465*
X332283*
Y540551*
X339173Y538583D02*
Y535433D01*
X390908Y550824D02*
X387758D01*
X389333Y549249D02*
Y552399D01*
X397207Y547281D02*
X381459D01*
Y554368*
X397207*
Y547281*
X448425Y549213D02*
Y552362D01*
X446850Y550787D02*
X450000D01*
X444882Y542913D02*
Y558661D01*
X451969*
Y542913*
X444882*
X775197Y674803D02*
X680709D01*
Y643307*
X775197*
Y674803*
X240157Y401575D02*
Y393701D01*
X221654Y410433D02*
X253937D01*
Y384843*
X221654*
Y410433*
X235433Y401575D02*
Y393701D01*
X348031Y496063D02*
X355906D01*
X339173Y477559D02*
Y509843D01*
X364764*
Y477559*
X339173*
X348031Y491339D02*
X355906D01*
X597638Y452362D02*
Y460236D01*
X616142Y443504D02*
X583858D01*
Y469094*
X616142*
Y443504*
X602362Y452362D02*
Y460236D01*
X597638Y401181D02*
Y409055D01*
X616142Y392323D02*
X583858D01*
Y417913*
X616142*
Y392323*
X602362Y401181D02*
Y409055D01*
X627559Y499213D02*
X619685D01*
X636417Y517717D02*
Y485433D01*
X610827*
Y517717*
X636417*
X627559Y503937D02*
X619685D01*
Y362205D02*
X627559D01*
X610827Y343701D02*
Y375984D01*
X636417*
Y343701*
X610827*
X619685Y357480D02*
X627559D01*
X771260Y433071D02*
X779134D01*
X762402Y414567D02*
Y446850D01*
X787992*
Y414567*
X762402*
X771260Y428346D02*
X779134D01*
X122047Y431693D02*
X125197D01*
X120079Y422835D02*
Y438583D01*
X127165*
Y422835*
X120079*
X122047Y429724D02*
X125197D01*
X153543Y341142D02*
X156693D01*
X151575Y332283D02*
Y348031D01*
X158661*
Y332283*
X151575*
X153543Y339173D02*
X156693D01*
X309646Y587795D02*
Y584646D01*
X300787Y589764D02*
X316535D01*
Y582677*
X300787*
Y589764*
X307677Y587795D02*
Y584646D01*
X216535Y341142D02*
X219685D01*
X214567Y332283D02*
Y348031D01*
X221654*
Y332283*
X214567*
X216535Y339173D02*
X219685D01*
X166929Y341732D02*
Y338583D01*
X168504Y340157D02*
X165354D01*
X170472Y348031D02*
Y332283D01*
X163386*
Y348031*
X170472*
X184252Y336220D02*
X181102D01*
X182677Y334646D02*
Y337795D01*
X190551Y332677D02*
X174803D01*
Y339764*
X190551*
Y332677*
X353150Y320866D02*
X319291D01*
Y335827*
X353150*
Y320866*
X336220D02*
Y335827D01*
X335020Y320866D02*
Y335826D01*
X337420Y320866D02*
Y335826D01*
X335820Y320866D02*
Y335826D01*
X336620Y320866D02*
Y335826D01*
X353150Y301181D02*
X319291D01*
Y316142*
X353150*
Y301181*
X336220D02*
Y316142D01*
X335020Y301181D02*
Y316141D01*
X337420Y301181D02*
Y316141D01*
X335820Y301181D02*
Y316141D01*
X336620Y301181D02*
Y316141D01*
X209055Y320079D02*
X242913D01*
Y305118*
X209055*
Y320079*
X225984D02*
Y305118D01*
X227184Y320078D02*
Y305118D01*
X224784Y320078D02*
Y305118D01*
X226384Y320078D02*
Y305118D01*
X225584Y320078D02*
Y305118D01*
X209055Y300394D02*
X242913D01*
Y285433*
X209055*
Y300394*
X225984D02*
Y285433D01*
X227184Y300393D02*
Y285433D01*
X224784Y300393D02*
Y285433D01*
X226384Y300393D02*
Y285433D01*
X225584Y300393D02*
Y285433D01*
X209252Y575984D02*
Y572835D01*
X200394Y577953D02*
X216142D01*
Y570866*
X200394*
Y577953*
X207283Y575984D02*
Y572835D01*
X209252Y564173D02*
Y561024D01*
X200394Y566142D02*
X216142D01*
Y559055*
X200394*
Y566142*
X207283Y564173D02*
Y561024D01*
X320079Y496654D02*
X316929D01*
X322047Y505512D02*
Y489764D01*
X314961*
Y505512*
X322047*
X320079Y498622D02*
X316929D01*
X331890Y496654D02*
X328740D01*
X333858Y505512D02*
Y489764D01*
X326772*
Y505512*
X333858*
X331890Y498622D02*
X328740D01*
X471654Y597047D02*
X468504D01*
X473622Y605906D02*
Y590157D01*
X466535*
Y605906*
X473622*
X471654Y599016D02*
X468504D01*
X483465Y597047D02*
X480315D01*
X485433Y605906D02*
Y590157D01*
X478346*
Y605906*
X485433*
X483465Y599016D02*
X480315D01*
X277260Y524409D02*
X283858D01*
X288189Y528740*
Y557480*
X276760*
X265260Y524409D02*
X258661D01*
X254331Y528740*
Y557480*
X265760*
X265748D02*
Y543445D01*
X276772Y557480D02*
Y543445D01*
X224409Y507480D02*
G03X224409I-24015J0D01*
G01X205394D02*
G03X205394I-5000J0D01*
G01X476378Y353937D02*
G03X476378I-24016J0D01*
G01X457362D02*
G03X457362I-5000J0D01*
G01X476378Y509449D02*
G03X476378I-24016J0D01*
G01X457362D02*
G03X457362I-5000J0D01*
G01X503449Y614567D02*
X496850D01*
X492520Y610236*
Y581496*
X503949*
X515449Y614567D02*
X522047D01*
X526378Y610236*
Y581496*
X514949*
X514961D02*
Y595531D01*
X503937Y581496D02*
Y595531D01*
X546756Y614567D02*
X540157D01*
X535827Y610236*
Y581496*
X547256*
X558756Y614567D02*
X565354D01*
X569685Y610236*
Y581496*
X558256*
X558268D02*
Y595531D01*
X547244Y581496D02*
Y595531D01*
X592689Y610000D02*
Y590000D01*
X583689*
Y610000*
X592689*
X589689Y600984D02*
X586689D01*
X589764Y599016D02*
X586614D01*
X606469Y610000D02*
Y590000D01*
X597469*
Y610000*
X606469*
X603469Y600984D02*
X600469D01*
X603543Y599016D02*
X600394D01*
G54D101*
X228740Y590157D02*
X214173D01*
Y613780*
X228740*
Y613386D02*
X214173D01*
X228740Y612992D02*
X214173D01*
X228740Y612598D02*
X214173D01*
X228740Y612205D02*
X214173D01*
X228740Y611811D02*
X214173D01*
X228740Y611417D02*
X214173D01*
X228740Y611024D02*
X214173D01*
X228740Y610630D02*
X214173D01*
X228740Y610236D02*
X214173D01*
X228740Y609843D02*
X214173D01*
X228740Y609449D02*
X214173D01*
X228740Y609055D02*
X214173D01*
X228740Y608661D02*
X214173D01*
X228740Y608268D02*
X214173D01*
X228740Y607874D02*
X214173D01*
X228740Y590551D02*
X214173D01*
X228740Y590945D02*
X214173D01*
X228740Y591339D02*
X214173D01*
X228740Y591732D02*
X214173D01*
X228740Y592126D02*
X214173D01*
X228740Y592520D02*
X214173D01*
X228740Y592913D02*
X214173D01*
X228740Y593307D02*
X214173D01*
X228740Y593701D02*
X214173D01*
X228740Y594094D02*
X214173D01*
X228740Y594488D02*
X214173D01*
X228740Y594882D02*
X214173D01*
X228740Y595276D02*
X214173D01*
X228740Y595669D02*
X214173D01*
X228740Y596063D02*
X214173D01*
X214567Y595669D02*
Y607874D01*
X214961Y595669D02*
Y607874D01*
X215354Y595669D02*
Y607874D01*
X215748Y595669D02*
Y607874D01*
X365682Y549117D02*
X367382Y548417D01*
Y549817*
X365682Y549117*
X365645Y604272D02*
X367345Y603572D01*
Y604972*
X365645Y604272*
X427362Y544882D02*
Y556693D01*
X422244*
Y544882*
X427362*
X422441Y545079D02*
X427165D01*
X422441Y545551D02*
X427165D01*
X422441Y546024D02*
X427165D01*
X422441Y546496D02*
X427165D01*
X422441Y546969D02*
X427165D01*
X432874Y547047D02*
X433858Y546063D01*
Y548031*
X432874Y547047*
X123957Y381599D02*
X123257Y379899D01*
X124657*
X123957Y381599*
X283071Y557480D02*
Y542913D01*
X259449*
Y557480*
X259843D02*
Y542913D01*
X260236Y557480D02*
Y542913D01*
X260630Y557480D02*
Y542913D01*
X261024Y557480D02*
Y542913D01*
X261417Y557480D02*
Y542913D01*
X261811Y557480D02*
Y542913D01*
X262205Y557480D02*
Y542913D01*
X262598Y557480D02*
Y542913D01*
X262992Y557480D02*
Y542913D01*
X263386Y557480D02*
Y542913D01*
X263780Y557480D02*
Y542913D01*
X264173Y557480D02*
Y542913D01*
X264567Y557480D02*
Y542913D01*
X264961Y557480D02*
Y542913D01*
X265354Y557480D02*
Y542913D01*
X282677Y557480D02*
Y542913D01*
X282283Y557480D02*
Y542913D01*
X281890Y557480D02*
Y542913D01*
X281496Y557480D02*
Y542913D01*
X281102Y557480D02*
Y542913D01*
X280709Y557480D02*
Y542913D01*
X280315Y557480D02*
Y542913D01*
X279921Y557480D02*
Y542913D01*
X279528Y557480D02*
Y542913D01*
X279134Y557480D02*
Y542913D01*
X278740Y557480D02*
Y542913D01*
X278346Y557480D02*
Y542913D01*
X277953Y557480D02*
Y542913D01*
X277559Y557480D02*
Y542913D01*
X277165Y557480D02*
Y542913D01*
X277559Y543307D02*
X265354D01*
X277559Y543701D02*
X265354D01*
X277559Y544094D02*
X265354D01*
X277559Y544488D02*
X265354D01*
X497638Y581496D02*
Y596063D01*
X521260*
Y581496*
X520866D02*
Y596063D01*
X520472Y581496D02*
Y596063D01*
X520079Y581496D02*
Y596063D01*
X519685Y581496D02*
Y596063D01*
X519291Y581496D02*
Y596063D01*
X518898Y581496D02*
Y596063D01*
X518504Y581496D02*
Y596063D01*
X518110Y581496D02*
Y596063D01*
X517717Y581496D02*
Y596063D01*
X517323Y581496D02*
Y596063D01*
X516929Y581496D02*
Y596063D01*
X516535Y581496D02*
Y596063D01*
X516142Y581496D02*
Y596063D01*
X515748Y581496D02*
Y596063D01*
X515354Y581496D02*
Y596063D01*
X498031Y581496D02*
Y596063D01*
X498425Y581496D02*
Y596063D01*
X498819Y581496D02*
Y596063D01*
X499213Y581496D02*
Y596063D01*
X499606Y581496D02*
Y596063D01*
X500000Y581496D02*
Y596063D01*
X500394Y581496D02*
Y596063D01*
X500787Y581496D02*
Y596063D01*
X501181Y581496D02*
Y596063D01*
X501575Y581496D02*
Y596063D01*
X501969Y581496D02*
Y596063D01*
X502362Y581496D02*
Y596063D01*
X502756Y581496D02*
Y596063D01*
X503150Y581496D02*
Y596063D01*
X503543Y581496D02*
Y596063D01*
X503150Y595669D02*
X515354D01*
X503150Y595276D02*
X515354D01*
X503150Y594882D02*
X515354D01*
X503150Y594488D02*
X515354D01*
X540945Y581496D02*
Y596063D01*
X564567*
Y581496*
X564173D02*
Y596063D01*
X563780Y581496D02*
Y596063D01*
X563386Y581496D02*
Y596063D01*
X562992Y581496D02*
Y596063D01*
X562598Y581496D02*
Y596063D01*
X562205Y581496D02*
Y596063D01*
X561811Y581496D02*
Y596063D01*
X561417Y581496D02*
Y596063D01*
X561024Y581496D02*
Y596063D01*
X560630Y581496D02*
Y596063D01*
X560236Y581496D02*
Y596063D01*
X559843Y581496D02*
Y596063D01*
X559449Y581496D02*
Y596063D01*
X559055Y581496D02*
Y596063D01*
X558661Y581496D02*
Y596063D01*
X541339Y581496D02*
Y596063D01*
X541732Y581496D02*
Y596063D01*
X542126Y581496D02*
Y596063D01*
X542520Y581496D02*
Y596063D01*
X542913Y581496D02*
Y596063D01*
X543307Y581496D02*
Y596063D01*
X543701Y581496D02*
Y596063D01*
X544094Y581496D02*
Y596063D01*
X544488Y581496D02*
Y596063D01*
X544882Y581496D02*
Y596063D01*
X545276Y581496D02*
Y596063D01*
X545669Y581496D02*
Y596063D01*
X546063Y581496D02*
Y596063D01*
X546457Y581496D02*
Y596063D01*
X546850Y581496D02*
Y596063D01*
X546457Y595669D02*
X558661D01*
X546457Y595276D02*
X558661D01*
X546457Y594882D02*
X558661D01*
X546457Y594488D02*
X558661D01*
X286214Y560945D02*
X286351Y560570D01*
X286623Y560195*
X286896Y560007*
X287442*
X287714Y560195*
X287987Y560570*
X288123Y560945*
X288260Y561507*
Y562445*
X288123Y563007*
X287987Y563382*
X287714Y563757*
X287442Y563945*
X286896*
X286623Y563757*
X286351Y563382*
X286214Y563007*
X284714Y560007D02*
X283214D01*
X284033Y561507*
X283623*
X283351Y561695*
X283214Y561882*
X283078Y562445*
Y562820*
X283214Y563382*
X283487Y563757*
X283896Y563945*
X284305*
X284714Y563757*
X284851Y563570*
X284987Y563195*
X281851Y560757D02*
X281578Y560570D01*
X281169Y560007*
Y563945*
X537801Y578031D02*
X537665Y578406D01*
X537392Y578781*
X537120Y578969*
X536574*
X536301Y578781*
X536029Y578406*
X535892Y578031*
X535756Y577469*
Y576531*
X535892Y575969*
X536029Y575594*
X536301Y575219*
X536574Y575031*
X537120*
X537392Y575219*
X537665Y575594*
X537801Y575969*
X540392Y578969D02*
X539029Y576344D01*
X541074*
X540392Y578969D02*
Y575031D01*
X542438Y578031D02*
Y578219D01*
X542574Y578594*
X542710Y578781*
X542983Y578969*
X543529*
X543801Y578781*
X543938Y578594*
X544074Y578219*
Y577844*
X543938Y577469*
X543665Y576906*
X542301Y575031*
X544210*
G54D102*
X233858Y371260D02*
X255906D01*
Y364173*
X233858*
Y371260*
X241732D02*
Y364173D01*
X234252Y371260D02*
Y364173D01*
X234646Y371260D02*
Y364173D01*
X235039Y371260D02*
Y364173D01*
X235433Y371260D02*
Y364173D01*
X456693Y538976D02*
Y561024D01*
X463780*
Y538976*
X456693*
Y546850D02*
X463780D01*
X456693Y539370D02*
X463780D01*
X456693Y539764D02*
X463780D01*
X456693Y540157D02*
X463780D01*
X456693Y540551D02*
X463780D01*
X225984Y339764D02*
X248031D01*
Y332677*
X225984*
Y339764*
X233858D02*
Y332677D01*
X226378Y339764D02*
Y332677D01*
X226772Y339764D02*
Y332677D01*
X227165Y339764D02*
Y332677D01*
X227559Y339764D02*
Y332677D01*
G54D103*
X353375Y546156D02*
Y567156D01*
X354359Y546156D02*
Y567156D01*
X353338Y601311D02*
Y622311D01*
X354322Y601311D02*
Y622311D01*
X389370Y569685D02*
X389270Y579133D01*
X395669Y574409D02*
X389370D01*
X120996Y393906D02*
X141996D01*
X120996Y392922D02*
X141996D01*
X192520Y640181D02*
X187520Y635181D01*
X197520*
X192520Y640181*
Y639181D02*
X189520Y635681D01*
X195520*
X192520Y639181*
Y637681D02*
X191020Y636681D01*
X194020*
X192520Y637681*
X292913Y640181D02*
X287913Y635181D01*
X297913*
X292913Y640181*
Y639181D02*
X289913Y635681D01*
X295913*
X292913Y639181*
Y637681D02*
X291413Y636681D01*
X294413*
X292913Y637681*
X201575Y363780D02*
X211023Y363880D01*
X206299Y357481D02*
Y363780D01*
X207086Y340157D02*
X197638Y340057D01*
X202362Y346456D02*
Y340157D01*
G54D104*
X367682Y550317D02*
Y547917D01*
X364882Y549117*
X367682Y550317*
X367645Y605472D02*
Y603072D01*
X364845Y604272*
X367645Y605472*
X125157Y379599D02*
X122757D01*
X123957Y382399*
X125157Y379599*
X192256Y574941D02*
X192142Y575253D01*
X191915Y575566*
X191688Y575722*
X191233*
X191006Y575566*
X190778Y575253*
X190665Y574941*
X190551Y574472*
Y573691*
X190665Y573222*
X190778Y572910*
X191006Y572597*
X191233Y572441*
X191688*
X191915Y572597*
X192142Y572910*
X192256Y573222*
X193278Y575097D02*
X193506Y575253D01*
X193847Y575722*
Y572441*
X195097Y575722D02*
X196347D01*
X195665Y574472*
X196006*
X196233Y574316*
X196347Y574160*
X196460Y573691*
Y573378*
X196347Y572910*
X196119Y572597*
X195778Y572441*
X195438*
X195097Y572597*
X194983Y572753*
X194869Y573066*
X192256Y563130D02*
X192142Y563442D01*
X191915Y563755*
X191688Y563911*
X191233*
X191006Y563755*
X190778Y563442*
X190665Y563130*
X190551Y562661*
Y561880*
X190665Y561411*
X190778Y561099*
X191006Y560786*
X191233Y560630*
X191688*
X191915Y560786*
X192142Y561099*
X192256Y561411*
X193278Y563286D02*
X193506Y563442D01*
X193847Y563911*
Y560630*
X196006Y563911D02*
X194869Y561724D01*
X196574*
X196006Y563911D02*
Y560630D01*
X320610Y470593D02*
X320923Y470706D01*
X321235Y470934*
X321391Y471161*
Y471615*
X321235Y471843*
X320923Y472070*
X320610Y472184*
X320141Y472297*
X319360*
X318891Y472184*
X318579Y472070*
X318266Y471843*
X318110Y471615*
Y471161*
X318266Y470934*
X318579Y470706*
X318891Y470593*
X320766Y469570D02*
X320923Y469343D01*
X321391Y469002*
X318110*
X320923Y466615D02*
X321235Y466729D01*
X321391Y467070*
Y467297*
X321235Y467638*
X320766Y467865*
X319985Y467979*
X319204*
X318579Y467865*
X318266Y467638*
X318110Y467297*
Y467184*
X318266Y466843*
X318579Y466615*
X319048Y466502*
X319204*
X319673Y466615*
X319985Y466843*
X320141Y467184*
Y467297*
X319985Y467638*
X319673Y467865*
X319204Y467979*
X332421Y470593D02*
X332734Y470706D01*
X333046Y470934*
X333203Y471161*
Y471615*
X333046Y471843*
X332734Y472070*
X332421Y472184*
X331953Y472297*
X331171*
X330703Y472184*
X330390Y472070*
X330078Y471843*
X329921Y471615*
Y471161*
X330078Y470934*
X330390Y470706*
X330703Y470593*
X332578Y469570D02*
X332734Y469343D01*
X333203Y469002*
X329921*
X333203Y467411D02*
X333046Y467752D01*
X332734Y467865*
X332421*
X332109Y467752*
X331953Y467525*
X331796Y467070*
X331640Y466729*
X331328Y466502*
X331015Y466388*
X330546*
X330234Y466502*
X330078Y466615*
X329921Y466956*
Y467411*
X330078Y467752*
X330234Y467865*
X330546Y467979*
X331015*
X331328Y467865*
X331640Y467638*
X331796Y467297*
X331953Y466843*
X332109Y466615*
X332421Y466502*
X332734*
X333046Y466615*
X333203Y466956*
Y467411*
X472185Y570986D02*
X472498Y571100D01*
X472810Y571327*
X472966Y571555*
Y572009*
X472810Y572236*
X472498Y572464*
X472185Y572577*
X471716Y572691*
X470935*
X470466Y572577*
X470154Y572464*
X469841Y572236*
X469685Y572009*
Y571555*
X469841Y571327*
X470154Y571100*
X470466Y570986*
X472185Y569850D02*
X472341D01*
X472654Y569736*
X472810Y569623*
X472966Y569395*
Y568941*
X472810Y568714*
X472654Y568600*
X472341Y568486*
X472029*
X471716Y568600*
X471248Y568827*
X469685Y569964*
Y568373*
X472185Y567236D02*
X472341D01*
X472654Y567123*
X472810Y567009*
X472966Y566782*
Y566327*
X472810Y566100*
X472654Y565986*
X472341Y565873*
X472029*
X471716Y565986*
X471248Y566214*
X469685Y567350*
Y565759*
X483996Y570986D02*
X484309Y571100D01*
X484621Y571327*
X484777Y571555*
Y572009*
X484621Y572236*
X484309Y572464*
X483996Y572577*
X483527Y572691*
X482746*
X482277Y572577*
X481965Y572464*
X481652Y572236*
X481496Y572009*
Y571555*
X481652Y571327*
X481965Y571100*
X482277Y570986*
X484777Y568827D02*
X482590Y569964D01*
Y568259*
X484777Y568827D02*
X481496D01*
X484777Y567009D02*
Y565759D01*
X483527Y566441*
Y566100*
X483371Y565873*
X483215Y565759*
X482746Y565645*
X482434*
X481965Y565759*
X481652Y565986*
X481496Y566327*
Y566668*
X481652Y567009*
X481809Y567123*
X482121Y567236*
X383465Y420210D02*
Y416929D01*
X384828*
X385851Y419585D02*
X386078Y419742D01*
X386419Y420210*
Y416929*
X387555Y419429D02*
Y419585D01*
X387669Y419898*
X387783Y420054*
X388010Y420210*
X388465*
X388692Y420054*
X388805Y419898*
X388919Y419585*
Y419273*
X388805Y418960*
X388578Y418492*
X387442Y416929*
X389033*
X205394Y533543D02*
X204303Y537480D01*
X203212Y533543D02*
X204303Y537480D01*
X201985Y533543D02*
Y537480D01*
Y533543D02*
X200757D01*
X200348Y533730*
X200212Y533918*
X200076Y534293*
Y534668*
X200212Y535043*
X200348Y535230*
X200757Y535418*
X201985*
X201030D02*
X200076Y537480D01*
X198848Y534293D02*
X198576Y534105D01*
X198166Y533543*
Y537480*
X447362Y327875D02*
X448453Y323937D01*
X449544Y327875D02*
X448453Y323937D01*
X450771Y327875D02*
Y323937D01*
Y327875D02*
X451999D01*
X452408Y327687*
X452544Y327500*
X452680Y327125*
Y326750*
X452544Y326375*
X452408Y326187*
X451999Y326000*
X450771*
X451726D02*
X452680Y323937D01*
X454044Y326937D02*
Y327125D01*
X454180Y327500*
X454317Y327687*
X454589Y327875*
X455135*
X455408Y327687*
X455544Y327500*
X455680Y327125*
Y326750*
X455544Y326375*
X455271Y325812*
X453908Y323937*
X455817*
X447362Y483386D02*
X448453Y479449D01*
X449544Y483386D02*
X448453Y479449D01*
X450771Y483386D02*
Y479449D01*
Y483386D02*
X451999D01*
X452408Y483199*
X452544Y483011*
X452680Y482636*
Y482261*
X452544Y481886*
X452408Y481699*
X451999Y481511*
X450771*
X451726D02*
X452680Y479449D01*
X454180Y483386D02*
X455680D01*
X454862Y481886*
X455271*
X455544Y481699*
X455680Y481511*
X455817Y480949*
Y480574*
X455680Y480011*
X455408Y479636*
X454999Y479449*
X454589*
X454180Y479636*
X454044Y479824*
X453908Y480199*
X580189Y605455D02*
X580564Y605591D01*
X580939Y605864*
X581126Y606136*
Y606682*
X580939Y606955*
X580564Y607227*
X580189Y607364*
X579626Y607500*
X578689*
X578126Y607364*
X577751Y607227*
X577376Y606955*
X577189Y606682*
Y606136*
X577376Y605864*
X577751Y605591*
X578126Y605455*
X580189Y604091D02*
X580376D01*
X580751Y603955*
X580939Y603818*
X581126Y603545*
Y603000*
X580939Y602727*
X580751Y602591*
X580376Y602455*
X580001*
X579626Y602591*
X579064Y602864*
X577189Y604227*
Y602318*
X580376Y601091D02*
X580564Y600818D01*
X581126Y600409*
X577189*
X593969Y605455D02*
X594344Y605591D01*
X594719Y605864*
X594906Y606136*
Y606682*
X594719Y606955*
X594344Y607227*
X593969Y607364*
X593406Y607500*
X592469*
X591906Y607364*
X591531Y607227*
X591156Y606955*
X590969Y606682*
Y606136*
X591156Y605864*
X591531Y605591*
X591906Y605455*
X594906Y602864D02*
X592281Y604227D01*
Y602182*
X594906Y602864D02*
X590969D01*
X594156Y600955D02*
X594344Y600682D01*
X594906Y600273*
X590969*
X162992Y487140D02*
Y483858D01*
X164356*
X165378Y486515D02*
X165606Y486671D01*
X165947Y487140*
Y483858*
G54D105*
X355068Y545656D02*
Y567656D01*
X341068*
Y545656*
X346568*
Y547656*
X349568*
Y545656*
X355068*
X355031Y600811D02*
Y622811D01*
X341031*
Y600811*
X346531*
Y602811*
X349531*
Y600811*
X355031*
X120496Y392213D02*
X142496D01*
Y406213*
X120496*
Y400713*
X122496*
Y397713*
X120496*
Y392213*
G54D106*
X166929Y568504D02*
Y592126D01*
X143307*
Y568504*
X166929*
X146457Y592126D02*
Y595276D01*
X163780*
Y592126*
X146457*
X149606Y595276D02*
Y621260D01*
X160630*
Y595276*
X149606*
X174803Y166929D02*
Y143307D01*
X198425*
Y166929*
X174803*
X195276Y143307D02*
Y140157D01*
X177953*
Y143307*
X195276*
X192126Y140157D02*
Y114173D01*
X181102*
Y140157*
X192126*
G54D107*
X307904Y410644D02*
G03X309480I788J-1501D01*
G01X306693Y407480D02*
G03X308267Y410630I656J1641D01*
G01X345683Y425560D02*
G03Y423984I-1501J-788D01*
G01X342520Y426772D02*
G03X345670Y425198I1640J-657D01*
G01X384676Y410644D02*
G03X386252I788J-1501D01*
G01X383465Y407480D02*
G03X385039Y410630I656J1641D01*
G01X156707Y484615D02*
G03Y483039I-1501J-788D01*
G01X153543Y485827D02*
G03X156693Y484253I1641J-656D01*
G01X290565Y313355D02*
G03Y311780I-1501J-788D01*
G01X287402Y314567D02*
G03X290552Y312993I1640J-656D01*
G54D108*
G01X163882Y501673D02*
X163771Y501981D01*
X163547Y502288*
X163323Y502442*
X162876*
X162652Y502288*
X162428Y501981*
X162317Y501673*
X162205Y501212*
Y500443*
X162317Y499982*
X162428Y499674*
X162652Y499366*
X162876Y499213*
X163323*
X163547Y499366*
X163771Y499674*
X163882Y499982*
X164889Y501827D02*
X165113Y501981D01*
X165448Y502442*
Y499213*
X535930Y496949D02*
X535818Y497256D01*
X535594Y497564*
X535370Y497718*
X534923*
X534699Y497564*
X534476Y497256*
X534364Y496949*
X534252Y496487*
Y495719*
X534364Y495257*
X534476Y494950*
X534699Y494642*
X534923Y494488*
X535370*
X535594Y494642*
X535818Y494950*
X535930Y495257*
X536936Y497103D02*
X537160Y497256D01*
X537496Y497718*
Y494488*
X539173Y497718D02*
X538838Y497564D01*
X538614Y497103*
X538502Y496334*
Y495872*
X538614Y495103*
X538838Y494642*
X539173Y494488*
X539397*
X539732Y494642*
X539956Y495103*
X540068Y495872*
Y496334*
X539956Y497103*
X539732Y497564*
X539397Y497718*
X539173*
X522938Y496555D02*
X522826Y496863D01*
X522602Y497170*
X522378Y497324*
X521931*
X521707Y497170*
X521484Y496863*
X521372Y496555*
X521260Y496094*
Y495325*
X521372Y494863*
X521484Y494556*
X521707Y494248*
X521931Y494094*
X522378*
X522602Y494248*
X522826Y494556*
X522938Y494863*
X523944Y496709D02*
X524168Y496863D01*
X524503Y497324*
Y494094*
X525510Y496709D02*
X525734Y496863D01*
X526069Y497324*
Y494094*
X225693Y376083D02*
X225582Y376390D01*
X225358Y376698*
X225134Y376852*
X224687*
X224463Y376698*
X224239Y376390*
X224128Y376083*
X224016Y375621*
Y374852*
X224128Y374391*
X224239Y374083*
X224463Y373776*
X224687Y373622*
X225134*
X225358Y373776*
X225582Y374083*
X225693Y374391*
X226700Y376236D02*
X226924Y376390D01*
X227259Y376852*
Y373622*
X229720Y376852D02*
X228601D01*
X228490Y375468*
X228601Y375621*
X228937Y375775*
X229273*
X229608Y375621*
X229832Y375314*
X229944Y374852*
X229832Y374545*
X229720Y374083*
X229496Y373776*
X229161Y373622*
X228825*
X228490Y373776*
X228378Y373930*
X228266Y374237*
X469788Y563091D02*
X469676Y563398D01*
X469452Y563706*
X469229Y563859*
X468781*
X468558Y563706*
X468334Y563398*
X468222Y563091*
X468110Y562629*
Y561860*
X468222Y561399*
X468334Y561091*
X468558Y560784*
X468781Y560630*
X469229*
X469452Y560784*
X469676Y561091*
X469788Y561399*
X470906Y563091D02*
Y563244D01*
X471018Y563552*
X471130Y563706*
X471354Y563859*
X471801*
X472025Y563706*
X472137Y563552*
X472249Y563244*
Y562937*
X472137Y562629*
X471913Y562168*
X470795Y560630*
X472360*
X473926Y563859D02*
X473591Y563706D01*
X473479Y563398*
Y563091*
X473591Y562783*
X473814Y562629*
X474262Y562475*
X474597Y562322*
X474821Y562014*
X474933Y561706*
Y561245*
X474821Y560937*
X474821D02*
X474709Y560784D01*
X474374Y560630*
X473926*
X473591Y560784*
X473479Y560937*
X473479D02*
X473367Y561245D01*
Y561706*
X473479Y562014*
X473703Y562322*
X474038Y562475*
X474486Y562629*
X474709Y562783*
X474821Y563091*
Y563398*
X474709Y563706*
X474374Y563859*
X473926*
X320965Y619976D02*
X321272Y620088D01*
X321580Y620311*
X321734Y620535*
Y620982*
X321580Y621206*
X321272Y621430*
X320965Y621542*
X320503Y621654*
X319734*
X319273Y621542*
X318965Y621430*
X318658Y621206*
X318504Y620982*
Y620535*
X318658Y620311*
X318965Y620088*
X319273Y619976*
X320965Y618857D02*
X321118D01*
X321426Y618746*
X321580Y618634*
X321734Y618410*
Y617963*
X321580Y617739*
X321426Y617627*
X321118Y617515*
X320811*
X320503Y617627*
X320042Y617851*
X318504Y618969*
Y617403*
X320657Y614943D02*
X320196Y615055D01*
X319888Y615278*
X319734Y615614*
Y615726*
X319888Y616061*
X320196Y616285*
X320657Y616397*
X320811*
X321272Y616285*
X321580Y616061*
X321734Y615726*
Y615614*
X321580Y615278*
X321272Y615055*
X320657Y614943*
X319888*
X319119Y615055*
X318658Y615278*
X318504Y615614*
Y615838*
X318658Y616173*
X318965Y616285*
X163095Y467815D02*
X162983Y468123D01*
X162759Y468430*
X162536Y468584*
X162088*
X161865Y468430*
X161641Y468123*
X161529Y467815*
X161417Y467354*
Y466585*
X161529Y466123*
X161641Y465816*
X161865Y465508*
X162088Y465354*
X162536*
X162759Y465508*
X162983Y465816*
X163095Y466123*
X164325Y468584D02*
X165556D01*
X164885Y467354*
X165220*
X165444Y467200*
X165556Y467046*
X165668Y466585*
X165668D02*
Y466277D01*
X165668D02*
X165556Y465816D01*
X165332Y465508*
X164996Y465354*
X164661*
X164325Y465508*
X164213Y465662*
X164102Y465969*
X374512Y561516D02*
X374401Y561823D01*
X374401D02*
X374177Y562131D01*
X373953Y562285*
X373506*
X373282Y562131*
X373058Y561823*
X372946Y561516*
X372835Y561054*
Y560285*
X372946Y559824*
X373058Y559516*
X373282Y559209*
X373506Y559055*
X373953*
X374177Y559209*
X374401Y559516*
X374401D02*
X374512Y559824D01*
X375743Y562285D02*
X376973D01*
X376302Y561054*
X376637*
X376861Y560901*
X376973Y560747*
X377085Y560285*
Y559978*
X376973Y559516*
X376749Y559209*
X376414Y559055*
X376078*
X375743Y559209*
X375631Y559363*
X375519Y559670*
X378763Y562285D02*
X378427Y562131D01*
X378203Y561670*
X378091Y560901*
Y560439*
X378203Y559670*
X378427Y559209*
X378763Y559055*
X378986*
X379322Y559209*
X379545Y559670*
X379657Y560439*
Y560901*
X379545Y561670*
X379322Y562131*
X378986Y562285*
X378763*
X361520Y417421D02*
X361408Y417729D01*
X361185Y418036*
X360961Y418190*
X360514*
X360290Y418036*
X360066Y417729*
X359954Y417421*
X359843Y416960*
Y416191*
X359954Y415730*
X360066Y415422*
X360290Y415114*
X360514Y414961*
X360961*
X361185Y415114*
X361408Y415422*
X361520Y415730*
X362751Y418190D02*
X363981D01*
X363310Y416960*
X363645*
X363869Y416806*
X363981Y416652*
X364093Y416191*
Y415883*
X363981Y415422*
X363757Y415114*
X363422Y414961*
X363086*
X362751Y415114*
X362639Y415268*
X362527Y415576*
X366218Y418190D02*
X365099Y416037D01*
X366777*
X366218Y418190D02*
Y414961D01*
X401751Y592618D02*
X401639Y592926D01*
X401416Y593233*
X401192Y593387*
X400745*
X400521Y593233*
X400297Y592926*
X400185Y592618*
X400074Y592157*
Y591388*
X400185Y590926*
X400297Y590619*
X400521Y590311*
X400745Y590157*
X401192*
X401416Y590311*
X401639Y590619*
X401751Y590926*
X402982Y593387D02*
X404212D01*
X403541Y592157*
X403876*
X404100Y592003*
X404212Y591849*
X404324Y591388*
Y591080*
X404212Y590619*
X403988Y590311*
X403653Y590157*
X403317*
X402982Y590311*
X402870Y590465*
X402758Y590773*
X406673Y592926D02*
X406561Y593233D01*
X406225Y593387*
X406002*
X405666Y593233*
X405442Y592772*
X405330Y592003*
Y591234*
X405442Y590619*
X405666Y590311*
X406002Y590157*
X406113*
X406449Y590311*
X406673Y590619*
X406784Y591080*
Y591234*
X406673Y591695*
X406449Y592003*
X406113Y592157*
X406002*
X405666Y592003*
X405442Y591695*
X405330Y591234*
X400964Y602461D02*
X400852Y602768D01*
X400628Y603076*
X400405Y603230*
X399957*
X399734Y603076*
X399510Y602768*
X399398Y602461*
X399286Y601999*
Y601230*
X399398Y600769*
X399510Y600461*
X399734Y600154*
X399957Y600000*
X400405*
X400628Y600154*
X400852Y600461*
X400964Y600769*
X402194Y603230D02*
X403425D01*
X402753Y601999*
X403089*
X403313Y601845*
X403425Y601692*
X403536Y601230*
Y600923*
X403425Y600461*
X403201Y600154*
X402865Y600000*
X402530*
X402194Y600154*
X402082Y600308*
X401971Y600615*
X406109Y603230D02*
X404990Y600000D01*
X404543Y603230D02*
X406109D01*
X535142Y367421D02*
X535030Y367729D01*
X534807Y368036*
X534583Y368190*
X534136*
X533912Y368036*
X533688Y367729*
X533576Y367421*
X533465Y366960*
Y366191*
X533576Y365730*
X533688Y365422*
X533912Y365114*
X534136Y364961*
X534583*
X534807Y365114*
X535030Y365422*
X535142Y365730*
X536373Y368190D02*
X537603D01*
X536932Y366960*
X537267*
X537491Y366806*
X537603Y366652*
X537715Y366191*
Y365883*
X537603Y365422*
X537379Y365114*
X537044Y364961*
X536708*
X536373Y365114*
X536261Y365268*
X536149Y365576*
X540175Y367114D02*
X540064Y366652D01*
X539840Y366345*
X539504Y366191*
X539392*
X539057Y366345*
X538833Y366652*
X538721Y367114*
Y367267*
X538833Y367729*
X539057Y368036*
X539392Y368190*
X539504*
X539840Y368036*
X540064Y367729*
X540175Y367114*
Y366345*
X540064Y365576*
X539840Y365114*
X539504Y364961*
X539281*
X538945Y365114*
X538833Y365422*
X520969Y367421D02*
X520857Y367729D01*
X520634Y368036*
X520634D02*
X520410Y368190D01*
X519962*
X519739Y368036*
X519515Y367729*
X519403Y367421*
X519291Y366960*
Y366191*
X519403Y365730*
X519515Y365422*
X519739Y365114*
X519962Y364961*
X520410*
X520634Y365114*
X520634D02*
X520857Y365422D01*
X520969Y365730*
X523094Y368190D02*
X521976Y366037D01*
X523653*
X523094Y368190D02*
Y364961D01*
X525331Y368190D02*
X524996Y368036D01*
X524772Y367575*
X524660Y366806*
Y366345*
X524772Y365576*
X524996Y365114*
X525331Y364961*
X525555*
X525890Y365114*
X526114Y365576*
X526226Y366345*
Y366806*
X526114Y367575*
X525890Y368036*
X525555Y368190*
X525331*
X284749Y417421D02*
X284637Y417729D01*
X284413Y418036*
X284189Y418190*
X283742*
X283518Y418036*
X283295Y417729*
X283183Y417421*
X283071Y416960*
Y416191*
X283183Y415730*
X283295Y415422*
X283518Y415114*
X283742Y414961*
X284189*
X284413Y415114*
X284637Y415422*
X284749Y415730*
X287097Y417729D02*
X286986Y418036D01*
X286650Y418190*
X286426*
X286091Y418036*
X285867Y417575*
X285755Y416806*
Y416037*
X285867Y415422*
X286091Y415114*
X286426Y414961*
X286538*
X286874Y415114*
X287097Y415422*
X287209Y415883*
Y416037*
X287097Y416499*
X286874Y416806*
X286538Y416960*
X286426*
X286091Y416806*
X285867Y416499*
X285755Y416037*
X326087Y439075D02*
X325975Y439382D01*
X325752Y439690*
X325528Y439844*
X325081*
X324857Y439690*
X324633Y439382*
X324521Y439075*
X324409Y438613*
Y437844*
X324521Y437383*
X324633Y437076*
X324857Y436768*
X325081Y436614*
X325528*
X325752Y436768*
X325975Y437076*
X326087Y437383*
X328660Y439844D02*
X327541Y436614D01*
X327094Y439844D02*
X328660D01*
X158764Y376083D02*
X158652Y376390D01*
X158429Y376698*
X158205Y376852*
X157758*
X157534Y376698*
X157310Y376390*
X157198Y376083*
X157087Y375621*
Y374852*
X157198Y374391*
X157310Y374083*
X157534Y373776*
X157758Y373622*
X158205*
X158429Y373776*
X158652Y374083*
X158764Y374391*
X160330Y376852D02*
X159995Y376698D01*
X159883Y376390*
Y376083*
X159995Y375775*
X160218Y375621*
X160666Y375468*
X161001Y375314*
X161225Y375006*
X161337Y374699*
Y374237*
X161225Y373930*
X161113Y373776*
X160778Y373622*
X160330*
X159995Y373776*
X159883Y373930*
X159771Y374237*
Y374699*
X159883Y375006*
X160106Y375314*
X160442Y375468*
X160889Y375621*
X161113Y375775*
X161225Y376083*
Y376390*
X161113Y376698*
X160778Y376852*
X160330*
X300497Y301280D02*
X300385Y301587D01*
X300161Y301895*
X299937Y302048*
X299490*
X299266Y301895*
X299043Y301587*
X298931Y301280*
X298819Y300818*
Y300049*
X298931Y299588*
X299043Y299280*
X299266Y298973*
X299490Y298819*
X299937*
X300161Y298973*
X300385Y299280*
X300497Y299588*
X302957Y300972D02*
X302845Y300511D01*
X302622Y300203*
X302286Y300049*
X302174*
X301839Y300203*
X301615Y300511*
X301503Y300972*
Y301126*
X301615Y301587*
X301839Y301895*
X302174Y302048*
X302286*
X302622Y301895*
X302845Y301587*
X302957Y300972*
Y300203*
X302845Y299434*
X302622Y298973*
X302286Y298819*
X302062*
X301727Y298973*
X301615Y299280*
X209945Y624114D02*
X209834Y624422D01*
X209610Y624729*
X209386Y624883*
X208939*
X208715Y624729*
X208491Y624422*
X208380Y624114*
X208268Y623653*
Y622884*
X208380Y622422*
X208491Y622115*
X208715Y621807*
X208939Y621654*
X209386*
X209610Y621807*
X209834Y622115*
X209945Y622422*
X211064Y624114D02*
Y624268D01*
X211176Y624576*
X211288Y624729*
X211511Y624883*
X211959*
X212182Y624729*
X212294Y624576*
X212406Y624268*
Y623960*
X212294Y623653*
X212071Y623191*
X210952Y621654*
X212518*
X373696Y623702D02*
Y620472D01*
Y623702D02*
X374702D01*
X375038Y623548*
X375150Y623394*
X375262Y623087*
Y622779*
X375150Y622472*
X375038Y622318*
X374702Y622164*
X373696*
X374479D02*
X375262Y620472D01*
X376268Y623087D02*
X376492Y623241D01*
X376827Y623702*
Y620472*
X399286Y613072D02*
Y609843D01*
Y613072D02*
X400293D01*
X400628Y612918*
X400740Y612765*
X400852Y612457*
Y612149*
X400740Y611842*
X400628Y611688*
X400293Y611534*
X399286*
X400069D02*
X400852Y609843D01*
X401859Y612457D02*
X402082Y612611D01*
X402418Y613072*
Y609843*
X403425Y612457D02*
X403648Y612611D01*
X403984Y613072*
Y609843*
X399213Y541025D02*
Y537795D01*
Y541025D02*
X400219D01*
X400555Y540871*
X400667Y540717*
X400778Y540410*
Y540102*
X400667Y539795*
X400555Y539641*
X400219Y539487*
X399213*
X399996D02*
X400778Y537795D01*
X401785Y540410D02*
X402009Y540563D01*
X402344Y541025*
Y537795*
X403575Y541025D02*
X404805D01*
X404134Y539795*
X404469*
X404693Y539641*
X404805Y539487*
X404917Y539026*
Y538718*
X404805Y538257*
X404581Y537949*
X404246Y537795*
X403910*
X403575Y537949*
X403463Y538103*
X403351Y538410*
X292950Y577602D02*
Y574373D01*
Y577602D02*
X293957D01*
X294292Y577448*
X294404Y577295*
X294516Y576987*
Y576679*
X294404Y576372*
X294292Y576218*
X293957Y576064*
X292950*
X293733D02*
X294516Y574373D01*
X295523Y576987D02*
X295746Y577141D01*
X296082Y577602*
Y574373*
X298207Y577602D02*
X297089Y575449D01*
X298766*
X298207Y577602D02*
Y574373D01*
X182677Y376852D02*
Y373622D01*
Y376852D02*
X183684D01*
X184019Y376698*
X184131Y376544*
X184243Y376236*
Y375929*
X184131Y375621*
X184019Y375468*
X183684Y375314*
X182677*
X183460D02*
X184243Y373622D01*
X185250Y376236D02*
X185473Y376390D01*
X185809Y376852*
Y373622*
X188270Y376852D02*
X187151D01*
X187039Y375468*
X187151Y375621*
X187487Y375775*
X187822*
X188158Y375621*
X188381Y375314*
X188493Y374852*
X188381Y374545*
X188270Y374083*
X188046Y373776*
X187710Y373622*
X187375*
X187039Y373776*
X186927Y373930*
X186815Y374237*
X168898Y376852D02*
Y373622D01*
Y376852D02*
X169904D01*
X170240Y376698*
X170352Y376544*
X170463Y376236*
Y375929*
X170352Y375621*
X170240Y375468*
X169904Y375314*
X168898*
X169681D02*
X170463Y373622D01*
X171470Y376236D02*
X171694Y376390D01*
X172029Y376852*
Y373622*
X174378Y376390D02*
X174266Y376698D01*
X173931Y376852*
X173707*
X173372Y376698*
X173148Y376236*
X173036Y375468*
Y374699*
X173148Y374083*
X173372Y373776*
X173707Y373622*
X173819*
X174154Y373776*
X174378Y374083*
X174490Y374545*
Y374699*
X174378Y375160*
X174154Y375468*
X173819Y375621*
X173707*
X173372Y375468*
X173148Y375160*
X173036Y374699*
X321734Y609843D02*
X318504D01*
X321734D02*
Y608836D01*
X321580Y608500*
X321426Y608389*
X321118Y608277*
X320811*
X320503Y608389*
X320349Y608500*
X320196Y608836*
Y609843*
Y609060D02*
X318504Y608277D01*
X321118Y607270D02*
X321272Y607046D01*
X321734Y606711*
X318504*
X321734Y604138D02*
X318504Y605257D01*
X321734Y605704D02*
Y604138D01*
X399213Y532757D02*
Y529528D01*
Y532757D02*
X400219D01*
X400555Y532603*
X400667Y532450*
X400778Y532142*
Y531834*
X400667Y531527*
X400555Y531373*
X400219Y531219*
X399213*
X399996D02*
X400778Y529528D01*
X401785Y532142D02*
X402009Y532296D01*
X402344Y532757*
Y529528*
X404805Y531681D02*
X404693Y531219D01*
X404469Y530912*
X404134Y530758*
X404022*
X403686Y530912*
X403463Y531219*
X403351Y531681*
Y531834*
X403463Y532296*
X403686Y532603*
X404022Y532757*
X404134*
X404469Y532603*
X404693Y532296*
X404805Y531681*
Y530912*
X404693Y530143*
X404469Y529681*
X404134Y529528*
X403910*
X403575Y529681*
X403463Y529989*
X171654Y467797D02*
Y464567D01*
Y467797D02*
X172660D01*
X172996Y467643*
X173108Y467489*
X173219Y467181*
Y466874*
X173108Y466566*
X172996Y466412*
X172660Y466259*
X171654*
X172436D02*
X173219Y464567D01*
X174338Y467028D02*
Y467181D01*
X174450Y467489*
X174562Y467643*
X174785Y467797*
X175233*
X175456Y467643*
X175568Y467489*
X175680Y467181*
Y466874*
X175568Y466566*
X175344Y466105*
X174226Y464567*
X175792*
X162205Y530789D02*
Y527559D01*
Y530789D02*
X163211D01*
X163547Y530635*
X163659Y530481*
X163771Y530173*
Y529866*
X163659Y529558*
X163547Y529405*
X163211Y529251*
X162205*
X162988D02*
X163771Y527559D01*
X164889Y530020D02*
Y530173D01*
X165001Y530481*
X165113Y530635*
X165336Y530789*
X165784*
X166008Y530635*
X166119Y530481*
X166231Y530173*
Y529866*
X166119Y529558*
X165896Y529097*
X164777Y527559*
X166343*
X168021Y530789D02*
X167685Y530635D01*
X167462Y530173*
X167350Y529405*
Y528943*
X167462Y528174*
X167685Y527713*
X168021Y527559*
X168244*
X168580Y527713*
X168804Y528174*
X168916Y528943*
Y529405*
X168804Y530173*
X168580Y530635*
X168244Y530789*
X168021*
X162205Y546537D02*
Y543307D01*
Y546537D02*
X163211D01*
X163547Y546383*
X163659Y546229*
X163771Y545922*
Y545614*
X163659Y545306*
X163547Y545153*
X163211Y544999*
X162205*
X162988D02*
X163771Y543307D01*
X164889Y545768D02*
Y545922D01*
X165001Y546229*
X165113Y546383*
X165336Y546537*
X165784*
X166008Y546383*
X166119Y546229*
X166231Y545922*
Y545614*
X166119Y545306*
X165896Y544845*
X164777Y543307*
X166343*
X167350Y545922D02*
X167573Y546075D01*
X167909Y546537*
Y543307*
X162205Y515041D02*
Y511811D01*
Y515041D02*
X163211D01*
X163547Y514887*
X163659Y514733*
X163771Y514425*
Y514118*
X163659Y513810*
X163547Y513656*
X163211Y513503*
X162205*
X162988D02*
X163771Y511811D01*
X164889Y514272D02*
Y514425D01*
X165001Y514733*
X165113Y514887*
X165336Y515041*
X165784*
X166008Y514887*
X166119Y514733*
X166231Y514425*
Y514118*
X166119Y513810*
X165896Y513349*
X164777Y511811*
X166343*
X167462Y514272D02*
Y514425D01*
X167573Y514733*
X167685Y514887*
X167909Y515041*
X168356*
X168580Y514887*
X168692Y514733*
X168804Y514425*
Y514118*
X168692Y513810*
X168468Y513349*
X167350Y511811*
X168916*
X505906Y368190D02*
Y364961D01*
Y368190D02*
X506912D01*
X507248Y368036*
X507360Y367883*
X507471Y367575*
Y367267*
X507360Y366960*
X507248Y366806*
X506912Y366652*
X505906*
X506688D02*
X507471Y364961D01*
X508590Y367421D02*
Y367575D01*
X508702Y367883*
X508814Y368036*
X509037Y368190*
X509485*
X509708Y368036*
X509820Y367883*
X509932Y367575*
Y367267*
X509820Y366960*
X509596Y366499*
X508478Y364961*
X510044*
X512169Y368190D02*
X511050Y366037D01*
X512728*
X512169Y368190D02*
Y364961D01*
X550394Y498111D02*
Y494882D01*
Y498111D02*
X551400D01*
X551736Y497958*
X551848Y497804*
X551960Y497496*
Y497189*
X551848Y496881*
X551736Y496727*
X551400Y496574*
X550394*
X551177D02*
X551960Y494882D01*
X553078Y497343D02*
Y497496D01*
X553190Y497804*
X553302Y497958*
X553525Y498111*
X553973*
X554196Y497958*
X554308Y497804*
X554420Y497496*
Y497189*
X554308Y496881*
X554085Y496420*
X552966Y494882*
X554532*
X556993Y498111D02*
X555874D01*
X555762Y496727*
X555874Y496881*
X556210Y497035*
X556545*
X556881Y496881*
X557105Y496574*
X557216Y496112*
X557105Y495805*
X556993Y495343*
X556769Y495036*
X556433Y494882*
X556098*
X555762Y495036*
X555651Y495189*
X555651D02*
X555539Y495497D01*
X550787Y366615D02*
Y363386D01*
Y366615D02*
X551794D01*
X552130Y366462*
X552241Y366308*
X552353Y366000*
Y365693*
X552241Y365385*
X552130Y365231*
X551794Y365078*
X550787*
X551570D02*
X552353Y363386D01*
X553472Y365846D02*
Y366000D01*
X553584Y366308*
X553695Y366462*
X553919Y366615*
X554366*
X554366D02*
X554590Y366462D01*
X554702Y366308*
X554814Y366000*
Y365693*
X554702Y365385*
X554478Y364924*
X553360Y363386*
X554926*
X557275Y366154D02*
X557163Y366462D01*
X556827Y366615*
X556603*
X556268Y366462*
X556044Y366000*
X555932Y365231*
Y364462*
X556044Y363847*
X556268Y363540*
X556603Y363386*
X556715*
X557051Y363540*
X557275Y363847*
X557386Y364309*
Y364462*
X557275Y364924*
X557051Y365231*
X556715Y365385*
X556603*
X556268Y365231*
X556044Y364924*
X555932Y364462*
X488583Y366615D02*
Y363386D01*
Y366615D02*
X489589D01*
X489925Y366462*
X490037Y366308*
X490149Y366000*
Y365693*
X490037Y365385*
X489925Y365231*
X489589Y365078*
X488583*
X489366D02*
X490149Y363386D01*
X491267Y365846D02*
Y366000D01*
X491379Y366308*
X491491Y366462*
X491714Y366615*
X492162*
X492385Y366462*
X492497Y366308*
X492609Y366000*
Y365693*
X492497Y365385*
X492274Y364924*
X491155Y363386*
X492721*
X495293Y366615D02*
X494175Y363386D01*
X493728Y366615D02*
X495293D01*
X159843Y450474D02*
Y447244D01*
Y450474D02*
X160849D01*
X161185Y450320*
X161297Y450166*
X161408Y449859*
Y449551*
X161297Y449243*
X161185Y449090*
X160849Y448936*
X159843*
X160625D02*
X161408Y447244D01*
X162639Y450474D02*
X163869D01*
X163198Y449243*
X163533*
X163757Y449090*
X163869Y448936*
X163981Y448474*
Y448167*
X163869Y447705*
X163645Y447398*
X163310Y447244*
X162974*
X162639Y447398*
X162527Y447552*
X162415Y447859*
X171654Y448899D02*
Y445669D01*
Y448899D02*
X172660D01*
X172996Y448745*
X173108Y448591*
X173219Y448284*
Y447976*
X173108Y447669*
X172996Y447515*
X172660Y447361*
X171654*
X172436D02*
X173219Y445669D01*
X175344Y448899D02*
X174226Y446746D01*
X175904*
X175344Y448899D02*
Y445669D01*
X489764Y498899D02*
Y495669D01*
Y498899D02*
X490770D01*
X491106Y498745*
X491218Y498591*
X491330Y498284*
Y497976*
X491218Y497669*
X491106Y497515*
X490770Y497361*
X489764*
X490547D02*
X491330Y495669D01*
X493678Y498438D02*
X493567Y498745D01*
X493231Y498899*
X493007*
X492672Y498745*
X492448Y498284*
X492336Y497515*
Y496746*
X492448Y496131*
X492672Y495823*
X493007Y495669*
X493119*
X493455Y495823*
X493678Y496131*
X493790Y496592*
Y496746*
X493678Y497207*
X493455Y497515*
X493119Y497669*
X493007*
X492672Y497515*
X492448Y497207*
X492336Y496746*
X507480Y497718D02*
Y494488D01*
Y497718D02*
X508487D01*
X508822Y497564*
X508934Y497410*
X509046Y497103*
Y496795*
X508934Y496487*
X508822Y496334*
X508487Y496180*
X507480*
X508263D02*
X509046Y494488D01*
X511619Y497718D02*
X510500Y494488D01*
X510053Y497718D02*
X511619D01*
X187402Y416615D02*
Y413386D01*
Y416615D02*
X188408D01*
X188744Y416462*
X188856Y416308*
X188967Y416000*
Y415693*
X188856Y415385*
X188744Y415231*
X188408Y415078*
X187402*
X188185D02*
X188967Y413386D01*
X190086Y415846D02*
Y416000D01*
X190198Y416308*
X190310Y416462*
X190533Y416615*
X190981*
X191204Y416462*
X191316Y416308*
X191428Y416000*
Y415693*
X191316Y415385*
X191093Y414924*
X189974Y413386*
X191540*
X192770Y416615D02*
X194001D01*
X193329Y415385*
X193665*
X193889Y415231*
X194001Y415078*
X194112Y414616*
Y414309*
X194001Y413847*
X193777Y413540*
X193441Y413386*
X193106*
X192770Y413540*
X192658Y413693*
X192547Y414001*
X191222Y453623D02*
X190999Y453469D01*
X190775Y453162*
X190663Y452854*
X190551Y452393*
Y451624*
X190663Y451163*
X190775Y450855*
X190999Y450547*
X191222Y450394*
X191670*
X191893Y450547*
X192117Y450855*
X192229Y451163*
X192341Y451624*
Y452393*
X192229Y452854*
X192117Y453162*
X191893Y453469*
X191670Y453623*
X191222*
X191558Y451009D02*
X192229Y450086D01*
X193347Y453008D02*
X193571Y453162D01*
X193907Y453623*
Y450394*
X247638Y517403D02*
Y514173D01*
X248980*
X250098Y516634D02*
Y516788D01*
X250210Y517095*
X250322Y517249*
X250546Y517403*
X250993*
X251217Y517249*
X251329Y517095*
X251441Y516788*
Y516480*
X251329Y516172*
X251105Y515711*
X249987Y514173*
X251552*
X767717Y512285D02*
Y509055D01*
X769059*
X771184Y512285D02*
X770065Y510132D01*
X771743*
X771184Y512285D02*
Y509055D01*
X767717Y396143D02*
Y392913D01*
X769059*
X771519Y396143D02*
X770401D01*
X770289Y394759*
X770401Y394913*
X770736Y395066*
X771072*
X771407Y394913*
X771631Y394605*
X771743Y394144*
X771631Y393836*
X771519Y393375*
X771296Y393067*
X770960Y392913*
X770625*
X770289Y393067*
X770177Y393221*
X770065Y393529*
X478736Y479214D02*
Y475984D01*
X477953Y479214D02*
X479519D01*
X480525D02*
X482091Y475984D01*
Y479214D02*
X480525Y475984D01*
X483098Y478599D02*
X483321Y478752D01*
X483657Y479214*
Y475984*
X689844Y430038D02*
X689690Y430261D01*
X689382Y430485*
X689075Y430597*
X688613Y430709*
X687844*
X687383Y430597*
X687076Y430485*
X686768Y430261*
X686614Y430038*
Y429590*
X686768Y429366*
X686768D02*
X687076Y429143D01*
X687383Y429031*
X687844Y428919*
X688613*
X689075Y429031*
X689382Y429143*
X689690Y429366*
X689690D02*
X689844Y429590D01*
Y430038*
X687229Y429702D02*
X686307Y429031D01*
X689075Y427801D02*
X689229D01*
X689536Y427689*
X689690Y427577*
X689844Y427353*
Y426906*
X689690Y426682*
X689536Y426570*
X689229Y426458*
X688921*
X688613Y426570*
X688152Y426794*
X686614Y427912*
Y426347*
X905901Y502836D02*
Y499606D01*
X905118Y502836D02*
X906684D01*
X907691D02*
X909256Y499606D01*
Y502836D02*
X907691Y499606D01*
X910375Y502067D02*
Y502221D01*
X910487Y502528*
X910599Y502682*
X910822Y502836*
X911270*
X911493Y502682*
X911605Y502528*
X911717Y502221*
Y501913*
X911605Y501606*
X911382Y501144*
X910263Y499606*
X911829*
X724016Y601261D02*
Y598031D01*
Y601261D02*
X725022D01*
X725358Y601107*
X725470Y600953*
X725582Y600646*
Y600338*
X725470Y600031*
X725358Y599877*
X725022Y599723*
X724016*
X724799D02*
X725582Y598031D01*
X726588Y600646D02*
X726812Y600800D01*
X727147Y601261*
Y598031*
X728825Y601261D02*
X728490Y601107D01*
X728266Y600646*
X728154Y599877*
Y599416*
X728266Y598647*
X728490Y598185*
X728825Y598031*
X729049*
X729384Y598185*
X729608Y598647*
X729720Y599416*
Y599877*
X729608Y600646*
X729384Y601107*
X729049Y601261*
X728825*
X655118Y563859D02*
Y560630D01*
Y563859D02*
X656125D01*
X656125D02*
X656460Y563706D01*
X656572Y563552*
X656684Y563244*
Y562937*
X656572Y562629*
X656460Y562475*
X656125Y562322*
X655118*
X655901D02*
X656684Y560630D01*
X658250Y563859D02*
X657914Y563706D01*
X657802Y563398*
Y563091*
X657914Y562783*
X658138Y562629*
X658585Y562475*
X658921Y562322*
X659145Y562014*
X659256Y561706*
Y561245*
X659145Y560938*
X659145D02*
X659033Y560784D01*
X658697Y560630*
X658250*
X657914Y560784*
X657802Y560938*
X657802D02*
X657691Y561245D01*
Y561706*
X657802Y562014*
X658026Y562322*
X658362Y562475*
X658809Y562629*
X659033Y562783*
X659145Y563091*
Y563398*
X659033Y563706*
X658697Y563859*
X658697D02*
X658250D01*
X651181Y300080D02*
Y296850D01*
Y300080D02*
X652188D01*
X652523Y299926*
X652635Y299772*
X652747Y299465*
Y299157*
X652635Y298850*
X652523Y298696*
X652188Y298542*
X651181*
X651964D02*
X652747Y296850D01*
X655208Y299003D02*
X655096Y298542D01*
X654872Y298234*
X654872D02*
X654537Y298081D01*
X654425*
X654089Y298234*
X654089D02*
X653865Y298542D01*
X653754Y299003*
Y299157*
X653865Y299619*
X654089Y299926*
X654425Y300080*
X654537*
X654872Y299926*
X655096Y299619*
X655208Y299003*
Y298234*
X655208D02*
X655096Y297466D01*
X654872Y297004*
X654537Y296850*
X654313*
X653977Y297004*
X653865Y297312*
X1022938Y185138D02*
X1022826Y185445D01*
X1022602Y185753*
X1022378Y185907*
X1021931*
X1021707Y185753*
X1021484Y185445*
X1021372Y185138*
X1021260Y184676*
Y183907*
X1021372Y183446*
X1021484Y183139*
X1021707Y182831*
X1021931Y182677*
X1022378*
X1022602Y182831*
X1022826Y183139*
X1022938Y183446*
X1024056Y185138D02*
Y185292D01*
X1024168Y185599*
X1024280Y185753*
X1024503Y185907*
X1024951*
X1025174Y185753*
X1025286Y185599*
X1025398Y185292*
Y184984*
X1025286Y184676*
X1025063Y184215*
X1023944Y182677*
X1025510*
X1026740Y185907D02*
X1027971D01*
X1027300Y184676*
X1027635*
X1027859Y184523*
X1027971Y184369*
X1028082Y183907*
Y183600*
X1027971Y183139*
X1027747Y182831*
X1027411Y182677*
X1027076*
X1026740Y182831*
X1026628Y182985*
X1026517Y183292*
X877268Y185138D02*
X877156Y185445D01*
X876933Y185753*
X876709Y185907*
X876262*
X876038Y185753*
X875814Y185445*
X875702Y185138*
X875591Y184676*
Y183907*
X875702Y183446*
X875814Y183139*
X876038Y182831*
X876262Y182677*
X876709*
X876933Y182831*
X877156Y183139*
X877268Y183446*
X878387Y185138D02*
Y185292D01*
X878499Y185599*
X878610Y185753*
X878834Y185907*
X879281*
X879505Y185753*
X879617Y185599*
X879729Y185292*
Y184984*
X879617Y184676*
X879393Y184215*
X878275Y182677*
X879841*
X881966Y185907D02*
X880847Y183754D01*
X882525*
X881966Y185907D02*
Y182677D01*
X802465Y185138D02*
X802353Y185445D01*
X802130Y185753*
X801906Y185907*
X801458*
X801235Y185753*
X801011Y185445*
X800899Y185138*
X800787Y184676*
Y183907*
X800899Y183446*
X801011Y183139*
X801235Y182831*
X801458Y182677*
X801906*
X802130Y182831*
X802353Y183139*
X802465Y183446*
X803584Y185138D02*
Y185292D01*
X803695Y185599*
X803807Y185753*
X804031Y185907*
X804478*
X804702Y185753*
X804814Y185599*
X804926Y185292*
Y184984*
X804814Y184676*
X804590Y184215*
X803472Y182677*
X805038*
X807498Y185907D02*
X806380D01*
X806268Y184523*
X806380Y184676*
X806715Y184830*
X807051*
X807386Y184676*
X807610Y184369*
X807722Y183907*
X807610Y183600*
X807498Y183139*
X807275Y182831*
X806939Y182677*
X806603*
X806268Y182831*
X806156Y182985*
X806044Y183292*
X660733Y185138D02*
X660621Y185445D01*
X660397Y185753*
X660174Y185907*
X659726*
X659503Y185753*
X659279Y185445*
X659167Y185138*
X659055Y184676*
Y183907*
X659167Y183446*
X659279Y183139*
X659503Y182831*
X659726Y182677*
X660174*
X660397Y182831*
X660621Y183139*
X660733Y183446*
X661851Y185138D02*
Y185292D01*
X661963Y185599*
X662075Y185753*
X662299Y185907*
X662746*
X662970Y185753*
X663082Y185599*
X663193Y185292*
Y184984*
X663082Y184676*
X662858Y184215*
X661739Y182677*
X663305*
X665654Y185445D02*
X665542Y185753D01*
X665207Y185907*
X664983*
X664647Y185753*
X664424Y185292*
X664312Y184523*
Y183754*
X664424Y183139*
X664647Y182831*
X664983Y182677*
X665095*
X665430Y182831*
X665654Y183139*
X665766Y183600*
Y183754*
X665654Y184215*
X665430Y184523*
X665095Y184676*
X664983*
X664647Y184523*
X664424Y184215*
X664312Y183754*
X585930Y185138D02*
X585818Y185445D01*
X585594Y185753*
X585370Y185907*
X584923*
X584699Y185753*
X584476Y185445*
X584364Y185138*
X584252Y184676*
Y183907*
X584364Y183446*
X584476Y183139*
X584699Y182831*
X584923Y182677*
X585370*
X585594Y182831*
X585818Y183139*
X585930Y183446*
X587160Y185907D02*
X588390D01*
X587719Y184676*
X588055*
X588278Y184523*
X588390Y184369*
X588502Y183907*
Y183600*
X588390Y183139*
X588167Y182831*
X587831Y182677*
X587496*
X587160Y182831*
X587048Y182985*
X586936Y183292*
X589621Y185138D02*
Y185292D01*
X589732Y185599*
X589844Y185753*
X590068Y185907*
X590515*
X590739Y185753*
X590851Y185599*
X590963Y185292*
Y184984*
X590851Y184676*
X590627Y184215*
X589509Y182677*
X591075*
X446166Y185138D02*
X446054Y185445D01*
X445830Y185753*
X445607Y185907*
X445159*
X444936Y185753*
X444712Y185445*
X444600Y185138*
X444488Y184676*
Y183907*
X444600Y183446*
X444712Y183139*
X444936Y182831*
X445159Y182677*
X445607*
X445830Y182831*
X446054Y183139*
X446166Y183446*
X447396Y185907D02*
X448627D01*
X447955Y184676*
X448291*
X448515Y184523*
X448627Y184369*
X448738Y183907*
Y183600*
X448627Y183139*
X448403Y182831*
X448067Y182677*
X447732*
X447396Y182831*
X447284Y182985*
X447173Y183292*
X449969Y185907D02*
X451199D01*
X450528Y184676*
X450863*
X451087Y184523*
X451199Y184369*
X451311Y183907*
Y183600*
X451199Y183139*
X450975Y182831*
X450640Y182677*
X450304*
X449969Y182831*
X449857Y182985*
X449745Y183292*
X1007213Y560700D02*
X1007101Y561008D01*
X1006878Y561315*
X1006654Y561469*
X1006207*
X1005983Y561315*
X1005759Y561008*
X1005647Y560700*
X1005535Y560239*
Y559470*
X1005647Y559008*
X1005759Y558701*
X1005983Y558393*
X1006207Y558240*
X1006654*
X1006878Y558393*
X1007101Y558701*
X1007213Y559008*
X1008220Y560854D02*
X1008443Y561008D01*
X1008779Y561469*
Y558240*
X1011240Y560393D02*
X1011128Y559931D01*
X1010904Y559624*
X1010569Y559470*
X1010457*
X1010121Y559624*
X1009898Y559931*
X1009786Y560393*
Y560546*
X1009898Y561008*
X1010121Y561315*
X1010457Y561469*
X1010569*
X1010904Y561315*
X1011128Y561008*
X1011240Y560393*
Y559624*
X1011128Y558855*
X1010904Y558393*
X1010569Y558240*
X1010345*
X1010009Y558393*
X1009898Y558701*
X1007213Y596133D02*
X1007101Y596441D01*
X1006878Y596748*
X1006654Y596902*
X1006207*
X1005983Y596748*
X1005759Y596441*
X1005647Y596133*
X1005535Y595672*
Y594903*
X1005647Y594442*
X1005759Y594134*
X1005983Y593826*
X1006207Y593673*
X1006654*
X1006878Y593826*
X1007101Y594134*
X1007213Y594442*
X1008332Y596133D02*
Y596287D01*
X1008443Y596595*
X1008555Y596748*
X1008779Y596902*
X1009226*
X1009450Y596748*
X1009562Y596595*
X1009674Y596287*
Y595979*
X1009562Y595672*
X1009338Y595211*
X1008220Y593673*
X1009786*
X1011463Y596902D02*
X1011128Y596748D01*
X1010904Y596287*
X1010792Y595518*
Y595057*
X1010904Y594288*
X1011128Y593826*
X1011463Y593673*
X1011687*
X1012023Y593826*
X1012246Y594288*
X1012358Y595057*
Y595518*
X1012246Y596287*
X1012023Y596748*
X1011687Y596902*
X1011463*
X934646Y284332D02*
Y281102D01*
X935988*
X938560Y284332D02*
X937442Y281102D01*
X936994Y284332D02*
X938560D01*
X714173D02*
Y281102D01*
X715515*
X717081Y284332D02*
X716746Y284178D01*
X716634Y283871*
Y283563*
X716746Y283255*
X716969Y283102*
X717417Y282948*
X717752Y282794*
X717976Y282486*
X718088Y282179*
Y281718*
X717976Y281410*
X717864Y281256*
X717529Y281102*
X717081*
X716746Y281256*
X716634Y281410*
X716522Y281718*
Y282179*
X716634Y282486*
X716858Y282794*
X717193Y282948*
X717640Y283102*
X717864Y283255*
X717976Y283563*
Y283871*
X717864Y284178*
X717529Y284332*
X717081*
X499606D02*
Y281102D01*
X500948*
X503409Y283255D02*
X503297Y282794D01*
X503074Y282486*
X502738Y282333*
X502626*
X502291Y282486*
X502067Y282794*
X501955Y283255*
Y283409*
X502067Y283871*
X502291Y284178*
X502626Y284332*
X502738*
X503074Y284178*
X503297Y283871*
X503409Y283255*
Y282486*
X503297Y281718*
X503074Y281256*
X502738Y281102*
X502514*
X502179Y281256*
X502067Y281564*
X243921Y375052D02*
Y371822D01*
Y375052D02*
X244704D01*
X245040Y374898*
X245263Y374590*
X245375Y374283*
X245487Y373821*
Y373053*
X245375Y372591*
X245263Y372284*
X245040Y371976*
X244704Y371822*
X243921*
X246494Y374437D02*
X246717Y374590D01*
X247053Y375052*
Y371822*
X458268Y567797D02*
Y564567D01*
Y567797D02*
X459051D01*
X459386Y567643*
X459610Y567335*
X459722Y567028*
X459834Y566566*
Y565797*
X459722Y565336*
X459610Y565028*
X459386Y564721*
X459051Y564567*
X458268*
X461064Y567797D02*
X462294D01*
X461623Y566566*
X461959*
X462182Y566412*
X462294Y566259*
X462406Y565797*
Y565490*
X462294Y565028*
X462071Y564721*
X461735Y564567*
X461399*
X461064Y564721*
X460952Y564875*
X460840Y565182*
X338189Y585513D02*
Y582283D01*
Y585513D02*
X339196D01*
X339531Y585359*
X339643Y585205*
X339755Y584898*
Y584590*
X339643Y584283*
X339531Y584129*
X339196Y583975*
X338189D02*
X339196D01*
X339531Y583821*
X339643Y583668*
X339755Y583360*
Y582899*
X339643Y582591*
X339531Y582437*
X339196Y582283*
X338189*
X342439Y584744D02*
X342327Y585052D01*
X342104Y585359*
X341880Y585513*
X341433*
X341209Y585359*
X340985Y585052*
X340873Y584744*
X340761Y584283*
Y583514*
X340873Y583052*
X340985Y582745*
X341209Y582437*
X341433Y582283*
X341880*
X342104Y582437*
X342327Y582745*
X342439Y583052*
X343446Y584898D02*
X343669Y585052D01*
X344005Y585513*
Y582283*
X342163Y531146D02*
Y527916D01*
Y531146D02*
X343169D01*
X343505Y530992*
X343617Y530838*
X343729Y530530*
Y530223*
X343617Y529915*
X343505Y529761*
X343169Y529608*
X342163D02*
X343169D01*
X343505Y529454*
X343617Y529300*
X343729Y528992*
Y528531*
X343617Y528224*
X343505Y528070*
X343169Y527916*
X342163*
X346413Y530377D02*
X346301Y530684D01*
X346077Y530992*
X345854Y531146*
X345406*
X345183Y530992*
X344959Y530684*
X344847Y530377*
X344735Y529915*
Y529146*
X344847Y528685*
X344959Y528377*
X345183Y528070*
X345406Y527916*
X345854*
X346077Y528070*
X346301Y528377*
X346413Y528685*
X347643Y531146D02*
X348874D01*
X348203Y529915*
X348538*
X348762Y529761*
X348874Y529608*
X348985Y529146*
Y528839*
X348874Y528377*
X348650Y528070*
X348314Y527916*
X347979*
X347643Y528070*
X347531Y528224*
X347420Y528531*
X349992Y530530D02*
X350216Y530684D01*
X350551Y531146*
Y527916*
X345312Y574059D02*
Y571752D01*
X345424Y571291*
X345648Y570983*
X345983Y570829*
X346207*
X346543Y570983*
X346766Y571291*
X346878Y571752*
Y574059*
X347997Y573290D02*
Y573444D01*
X348109Y573751*
X348220Y573905*
X348444Y574059*
X348891*
X348891D02*
X349115Y573905D01*
X349227Y573751*
X349339Y573444*
Y573136*
X349227Y572829*
X349003Y572367*
X347885Y570829*
X349451*
X344882Y628820D02*
Y626513D01*
X344994Y626052*
X345217Y625744*
X345553Y625591*
X345777*
X346112Y625744*
X346336Y626052*
X346448Y626513*
Y628820*
X348573D02*
X347454Y626667D01*
X349132*
X348573Y628820D02*
Y625591D01*
X399213Y552048D02*
Y548819D01*
Y552048D02*
X400219D01*
X400555Y551895*
X400667Y551741*
X400778Y551433*
Y551126*
X400667Y550818*
X400555Y550664*
X400219Y550511*
X399213*
X399996D02*
X400778Y548819D01*
X401785Y551433D02*
X402009Y551587D01*
X402344Y552048*
Y548819*
X403463Y551280D02*
Y551433D01*
X403575Y551741*
X403686Y551895*
X403910Y552048*
X404358*
X404581Y551895*
X404693Y551741*
X404805Y551433*
Y551126*
X404693Y550818*
X404469Y550357*
X403351Y548819*
X404917*
X446457Y565828D02*
Y562598D01*
Y565828D02*
X447463D01*
X447799Y565674*
X447911Y565520*
X448023Y565213*
Y564905*
X447911Y564598*
X447799Y564444*
X447463Y564290*
X446457*
X447240D02*
X448023Y562598D01*
X450483Y565828D02*
X449365D01*
X449253Y564444*
X449365Y564598*
X449700Y564751*
X450036*
X450371Y564598*
X450595Y564290*
X450707Y563829*
X450595Y563521*
X450483Y563060*
X450259Y562752*
X449924Y562598*
X449588*
X449253Y562752*
X449141Y562906*
X449029Y563214*
X398819Y580789D02*
Y577559D01*
Y580789D02*
X399602D01*
X399937Y580635*
X400161Y580327*
X400273Y580020*
X400385Y579558*
Y578789*
X400273Y578328*
X400161Y578020*
X399937Y577713*
X399602Y577559*
X398819*
X402510Y580789D02*
X401391Y578636D01*
X403069*
X402510Y580789D02*
Y577559D01*
X424541Y564010D02*
Y561703D01*
X424653Y561242*
X424876Y560934*
X425212Y560780*
X425436*
X425771Y560934*
X425995Y561242*
X426107Y561703*
Y564010*
X427113Y563395D02*
X427337Y563548D01*
X427673Y564010*
Y560780*
X724016Y683938D02*
Y680709D01*
Y683938D02*
X725022D01*
X725358Y683784*
X725470Y683631*
X725582Y683323*
Y683016*
X725582D02*
X725470Y682708D01*
X725358Y682554*
X725022Y682400*
X724016*
X724799D02*
X725582Y680709D01*
X726700Y683169D02*
Y683323D01*
X726812Y683631*
X726924Y683784*
X727147Y683938*
X727595*
X727819Y683784*
X727930Y683631*
X728042Y683323*
Y683016*
X728042D02*
X727930Y682708D01*
X727707Y682247*
X726588Y680709*
X728154*
X729720Y683938D02*
X729384Y683784D01*
X729273Y683477*
Y683169*
X729384Y682862*
X729608Y682708*
X730055Y682554*
X730391Y682400*
X730615Y682093*
X730727Y681785*
Y681324*
X730615Y681016*
X730503Y680862*
X730167Y680709*
X729720*
X729384Y680862*
X729273Y681016*
X729161Y681324*
Y681785*
X729273Y682093*
X729496Y682400*
X729832Y682554*
X730279Y682708*
X730503Y682862*
X730615Y683169*
Y683477*
X730503Y683784*
X730167Y683938*
X729720*
X135254Y583514D02*
Y579577D01*
X135075Y578839*
X134896Y578593*
X134538Y578346*
X134180*
X133822Y578593*
X133644Y578839*
X133465Y579577*
Y580069*
X137223Y583514D02*
X139191D01*
X138117Y581545*
X138654*
X139012Y581299*
X139191Y581053*
X139370Y580315*
Y579823*
X139191Y579085*
X138833Y578593*
X138296Y578346*
X137759*
X137223Y578593*
X137044Y578839*
X136865Y579331*
X119685Y122915D02*
Y119685D01*
Y122915D02*
X120692D01*
X121027Y122761*
X121139Y122607*
X121251Y122299*
Y121838*
X121139Y121531*
X121027Y121377*
X120692Y121223*
X119685*
X122258Y122299D02*
X122481Y122453D01*
X122817Y122915*
Y119685*
X119685Y674096D02*
Y670866D01*
Y674096D02*
X120692D01*
X121027Y673942*
X121139Y673788*
X121251Y673481*
Y673019*
X121139Y672712*
X121027Y672558*
X120692Y672404*
X119685*
X122369Y673327D02*
Y673481D01*
X122481Y673788*
X122593Y673942*
X122817Y674096*
X123264*
X123488Y673942*
X123600Y673788*
X123712Y673481*
Y673173*
X123600Y672865*
X123376Y672404*
X122258Y670866*
X123823*
X1064567Y674096D02*
Y670866D01*
Y674096D02*
X1065574D01*
X1065909Y673942*
X1066021Y673788*
X1066133Y673481*
Y673019*
X1066021Y672712*
X1065909Y672558*
X1065574Y672404*
X1064567*
X1067363Y674096D02*
X1068593D01*
X1067922Y672865*
X1068258*
X1068482Y672712*
X1068593Y672558*
X1068705Y672096*
Y671789*
X1068593Y671328*
X1068370Y671020*
X1068034Y670866*
X1067699*
X1067363Y671020*
X1067251Y671174*
X1067139Y671481*
X1064567Y122915D02*
Y119685D01*
Y122915D02*
X1065574D01*
X1065909Y122761*
X1066021Y122607*
X1066133Y122299*
Y121838*
X1066021Y121531*
X1065909Y121377*
X1065574Y121223*
X1064567*
X1068258Y122915D02*
X1067139Y120762D01*
X1068817*
X1068258Y122915D02*
Y119685D01*
X885433Y678033D02*
Y674803D01*
X886775*
X889124Y677571D02*
X889012Y677879D01*
X888677Y678033*
X888453*
X888117Y677879*
X887894Y677418*
X887782Y676649*
Y675880*
X887894Y675265*
X888117Y674957*
X888453Y674803*
X888565*
X888900Y674957*
X889124Y675265*
X889236Y675726*
Y675880*
X889124Y676341*
X888900Y676649*
X888565Y676802*
X888453*
X888117Y676649*
X887894Y676341*
X887782Y675880*
X166750Y157530D02*
Y153593D01*
X166571Y152854*
X166392Y152608*
X166034Y152362*
X165676*
X165319Y152608*
X165140Y152854*
X164961Y153593*
Y154085*
X168540Y156299D02*
Y156545D01*
X168719Y157037*
X168898Y157283*
X169256Y157530*
X169971*
X170329Y157283*
X170508Y157037*
X170687Y156545*
Y156053*
X170508Y155561*
X170150Y154823*
X168361Y152362*
X170866*
X690551Y122915D02*
Y119685D01*
Y122915D02*
X691558D01*
X691893Y122761*
X692005Y122607*
X692117Y122299*
Y121838*
X692005Y121531*
X691893Y121377*
X691558Y121223*
X690551*
X694690Y122915D02*
X693571Y119685D01*
X693124Y122915D02*
X694690D01*
X387402Y674096D02*
Y670866D01*
Y674096D02*
X388408D01*
X388744Y673942*
X388856Y673788*
X388967Y673481*
Y673019*
X388856Y672712*
X388744Y672558*
X388408Y672404*
X387402*
X390533Y674096D02*
X390198Y673942D01*
X390086Y673634*
Y673327*
X390198Y673019*
X390421Y672865*
X390869Y672712*
X391204Y672558*
X391428Y672250*
X391540Y671943*
Y671481*
X391428Y671174*
X391316Y671020*
X390981Y670866*
X390533*
X390198Y671020*
X390086Y671174*
X389974Y671481*
Y671943*
X390086Y672250*
X390310Y672558*
X390645Y672712*
X391093Y672865*
X391316Y673019*
X391428Y673327*
Y673634*
X391316Y673942*
X390981Y674096*
X390533*
X416750Y668159D02*
Y664222D01*
X416571Y663484*
X416392Y663238*
X416034Y662992*
X415676*
X415319Y663238*
X415140Y663484*
X414961Y664222*
Y664715*
X420150Y668159D02*
X418361Y664715D01*
X421045*
X420150Y668159D02*
Y662992D01*
X237504Y415453D02*
X237393Y415760D01*
X237169Y416068*
X236945Y416222*
X236498*
X236274Y416068*
X236050Y415760*
X235939Y415453*
X235827Y414991*
Y414222*
X235939Y413761*
X236050Y413453*
X236274Y413146*
X236498Y412992*
X236945*
X237169Y413146*
X237393Y413453*
X237504Y413761*
X238511Y415607D02*
X238735Y415760D01*
X239070Y416222*
Y412992*
X240748Y416222D02*
X240412Y416068D01*
X240189Y415607*
X240077Y414838*
Y414376*
X240189Y413607*
X240412Y413146*
X240748Y412992*
X240972*
X241307Y413146*
X241531Y413607*
X241643Y414376*
Y414838*
X241531Y415607*
X241307Y416068*
X240972Y416222*
X240748*
X243321D02*
X242985Y416068D01*
X242761Y415607*
X242649Y414838*
Y414376*
X242761Y413607*
X242985Y413146*
X243321Y412992*
X243544*
X243880Y413146*
X244103Y413607*
X244215Y414376*
Y414838*
X244103Y415607*
X243880Y416068*
X243544Y416222*
X243321*
X349709Y516240D02*
X349597Y516548D01*
X349374Y516855*
X349150Y517009*
X348703*
X348479Y516855*
X348255Y516548*
X348143Y516240*
X348031Y515779*
Y515010*
X348143Y514548*
X348255Y514241*
X348479Y513933*
X348703Y513780*
X349150*
X349374Y513933*
X349597Y514241*
X349709Y514548*
X350716Y516394D02*
X350940Y516548D01*
X351275Y517009*
Y513780*
X352953Y517009D02*
X352617Y516855D01*
X352394Y516394*
X352282Y515625*
Y515164*
X352394Y514395*
X352617Y513933*
X352953Y513780*
X353176*
X353512Y513933*
X353736Y514395*
X353848Y515164*
Y515625*
X353736Y516394*
X353512Y516855*
X353176Y517009*
X352953*
X354854Y516394D02*
X355078Y516548D01*
X355413Y517009*
Y513780*
X591835Y476476D02*
X591723Y476784D01*
X591500Y477092*
X591276Y477245*
X590829*
X590605Y477092*
X590381Y476784*
X590269Y476476*
X590157Y476015*
Y475246*
X590269Y474785*
X590381Y474477*
X590605Y474170*
X590829Y474016*
X591276*
X591500Y474170*
X591723Y474477*
X591835Y474785*
X592842Y476630D02*
X593065Y476784D01*
X593065D02*
X593401Y477245D01*
Y474016*
X595079Y477245D02*
X594743Y477092D01*
X594520Y476630*
X594408Y475861*
Y475400*
X594520Y474631*
X594743Y474170*
X595079Y474016*
X595302*
X595638Y474170*
X595862Y474631*
X595974Y475400*
Y475861*
X595862Y476630*
X595638Y477092*
X595302Y477245*
X595079*
X597092Y476476D02*
Y476630D01*
X597204Y476938*
X597316Y477092*
X597539Y477245*
X597987*
X598210Y477092*
X598322Y476938*
X598434Y476630*
Y476323*
X598322Y476015*
X598099Y475554*
X596980Y474016*
X598546*
X597741Y387894D02*
X597629Y388201D01*
X597405Y388509*
X597181Y388663*
X596734*
X596510Y388509*
X596287Y388201*
X596175Y387894*
X596063Y387432*
Y386663*
X596175Y386202*
X596287Y385894*
X596510Y385587*
X596734Y385433*
X597181*
X597405Y385587*
X597629Y385894*
X597741Y386202*
X598747Y388047D02*
X598971Y388201D01*
X599307Y388663*
Y385433*
X600984Y388663D02*
X600649Y388509D01*
X600425Y388047*
X600313Y387279*
Y386817*
X600425Y386048*
X600649Y385587*
X600984Y385433*
X601208*
X601543Y385587*
X601767Y386048*
X601879Y386817*
Y387279*
X601767Y388047*
X601543Y388509*
X601208Y388663*
X600984*
X603109D02*
X604340D01*
X603669Y387432*
X604004*
X604228Y387279*
X604340Y387125*
X604452Y386663*
Y386356*
X604340Y385894*
X604116Y385587*
X603780Y385433*
X603445*
X603109Y385587*
X602997Y385741*
X602886Y386048*
X621363Y482382D02*
X621251Y482689D01*
X621027Y482997*
X620804Y483151*
X620356*
X620132Y482997*
X619909Y482689*
X619797Y482382*
X619685Y481921*
Y481152*
X619797Y480690*
X619909Y480383*
X620132Y480075*
X620356Y479921*
X620804*
X621027Y480075*
X621251Y480383*
X621363Y480690*
X622369Y482536D02*
X622593Y482689D01*
X622929Y483151*
Y479921*
X624606Y483151D02*
X624271Y482997D01*
X624047Y482536*
X623935Y481767*
Y481305*
X624047Y480536*
X624271Y480075*
X624606Y479921*
X624830*
X625166Y480075*
X625389Y480536*
X625501Y481305*
Y481767*
X625389Y482536*
X625166Y482997*
X624830Y483151*
X624606*
X627626D02*
X626508Y480998D01*
X628185*
X627626Y483151D02*
Y479921D01*
X623331Y381988D02*
X623219Y382296D01*
X622996Y382603*
X622772Y382757*
X622325*
X622101Y382603*
X621877Y382296*
X621765Y381988*
X621654Y381527*
Y380758*
X621765Y380297*
X621877Y379989*
X622101Y379681*
X622325Y379528*
X622772*
X622996Y379681*
X623219Y379989*
X623331Y380297*
X624338Y382142D02*
X624562Y382296D01*
X624897Y382757*
Y379528*
X626575Y382757D02*
X626239Y382603D01*
X626016Y382142*
X625904Y381373*
Y380912*
X626016Y380143*
X626239Y379681*
X626575Y379528*
X626798*
X627134Y379681*
X627358Y380143*
X627470Y380912*
Y381373*
X627358Y382142*
X627134Y382603*
X626798Y382757*
X626575*
X629930D02*
X628812D01*
X628700Y381373*
X628812Y381527*
X629147Y381681*
X629483*
X629818Y381527*
X630042Y381219*
X630154Y380758*
X630042Y380450*
X629930Y379989*
X629707Y379681*
X629371Y379528*
X629035*
X628700Y379681*
X628588Y379835*
X628476Y380143*
X792623Y433169D02*
X792511Y433477D01*
X792287Y433784*
X792063Y433938*
X791616*
X791392Y433784*
X791169Y433477*
X791057Y433169*
X790945Y432708*
Y431939*
X791057Y431478*
X791169Y431170*
X791392Y430862*
X791616Y430709*
X792063*
X792287Y430862*
X792511Y431170*
X792623Y431478*
X793629Y433323D02*
X793853Y433477D01*
X794188Y433938*
Y430709*
X795866Y433938D02*
X795531Y433784D01*
X795307Y433323*
X795195Y432554*
Y432093*
X795307Y431324*
X795531Y430862*
X795866Y430709*
X796090*
X796425Y430862*
X796649Y431324*
X796761Y432093*
Y432554*
X796649Y433323*
X796425Y433784*
X796090Y433938*
X795866*
X799110Y433477D02*
X798998Y433784D01*
X798662Y433938*
X798439*
X798103Y433784*
X797879Y433323*
X797768Y432554*
Y431785*
X797879Y431170*
X798103Y430862*
X798439Y430709*
X798550*
X798886Y430862*
X799110Y431170*
X799222Y431631*
Y431785*
X799110Y432247*
X798886Y432554*
X798550Y432708*
X798439*
X798103Y432554*
X797879Y432247*
X797768Y431785*
X114487Y428740D02*
X117717D01*
X114487D02*
Y429747D01*
X114641Y430082*
X114795Y430194*
X115102Y430306*
X115410*
X115717Y430194*
X115871Y430082*
X116025Y429747*
Y428740D02*
Y429747D01*
X116179Y430082*
X116332Y430194*
X116640Y430306*
X117101*
X117409Y430194*
X117563Y430082*
X117717Y429747*
Y428740*
X115256Y432990D02*
X114948Y432878D01*
X114641Y432655*
X114487Y432431*
Y431984*
X114641Y431760*
X114948Y431536*
X115256Y431424*
X115717Y431313*
X116486*
X116948Y431424*
X117255Y431536*
X117563Y431760*
X117717Y431984*
Y432431*
X117563Y432655*
X117255Y432878*
X116948Y432990*
X115256Y434109D02*
X115102D01*
X114795Y434221*
X114641Y434332*
X114641D02*
X114487Y434556D01*
Y435004*
X114641Y435227*
X114795Y435339*
X115102Y435451*
X115410*
X115717Y435339*
X116179Y435115*
X117717Y433997*
Y435563*
X113780Y414253D02*
Y411946D01*
X113891Y411485*
X114115Y411177*
X114451Y411024*
X114674*
X115010Y411177*
X115234Y411485*
X115345Y411946*
Y414253*
X117806D02*
X116688D01*
X116576Y412869*
X116688Y413023*
X117023Y413177*
X117359*
X117694Y413023*
X117918Y412715*
X118030Y412254*
X117918Y411946*
X117806Y411485*
X117582Y411177*
X117247Y411024*
X116911*
X116576Y411177*
X116464Y411331*
X116352Y411639*
X387003Y250867D02*
Y247638D01*
X386220Y250867D02*
X387786D01*
X388793D02*
Y247638D01*
Y250867D02*
X389800D01*
X390135Y250714*
X390247Y250560*
X390359Y250252*
Y249791*
X390247Y249483*
X390135Y249329*
X389800Y249176*
X388793*
X391365Y250252D02*
X391589Y250406D01*
X391925Y250867*
Y247638*
X166925Y212678D02*
Y209449D01*
X166142Y212678D02*
X167708D01*
X168714D02*
Y209449D01*
Y212678D02*
X169721D01*
X170056Y212525*
X170168Y212371*
X170280Y212063*
Y211602*
X170168Y211294*
X170056Y211140*
X170056D02*
X169721Y210987D01*
X168714*
X171399Y211909D02*
Y212063D01*
X171510Y212371*
X171622Y212525*
X171846Y212678*
X172293*
X172517Y212525*
X172629Y212371*
X172741Y212063*
Y211756*
X172629Y211448*
X172405Y210987*
X171287Y209449*
X172853*
X220079Y685876D02*
Y680709D01*
X222584Y685876D02*
Y680709D01*
X220079Y683415D02*
X222584D01*
X224195Y685876D02*
Y680709D01*
Y685876D02*
X225447D01*
X225984Y685630*
X226342Y685138*
X226521Y684646*
X226700Y683907*
Y682677*
X226521Y681939*
X226342Y681447*
X225984Y680955*
X225447Y680709*
X224195*
X228311Y684892D02*
X228669Y685138D01*
X229205Y685876*
Y680709*
X310630Y681939D02*
Y676772D01*
X313135Y681939D02*
Y676772D01*
X310630Y679478D02*
X313135D01*
X314746Y681939D02*
Y676772D01*
Y681939D02*
X315999D01*
X316535Y681693*
X316893Y681201*
X317072Y680709*
X317251Y679970*
Y678740*
X317072Y678002*
X316893Y677510*
X316535Y677018*
X315999Y676772*
X314746*
X319041Y680709D02*
Y680955D01*
X319220Y681447*
X319399Y681693*
X319757Y681939*
X320472*
X320830Y681693*
X321009Y681447*
X321188Y680955*
Y680463*
X321009Y679970*
X320651Y679232*
X318862Y676772*
X321367*
X235827Y345356D02*
Y342126D01*
Y345356D02*
X236610D01*
X236945Y345202*
X237169Y344894*
X237281Y344587*
X237393Y344125*
Y343356*
X237281Y342895*
X237169Y342587*
X236945Y342280*
X236610Y342126*
X235827*
X239853Y345356D02*
X238735D01*
X238623Y343971*
X238735Y344125*
X239070Y344279*
X239406*
X239741Y344125*
X239965Y343818*
X240077Y343356*
X239965Y343049*
X239853Y342587*
X239630Y342280*
X239294Y342126*
X238958*
X238623Y342280*
X238511Y342434*
X238399Y342741*
X154827Y328839D02*
X154715Y329146D01*
X154492Y329454*
X154268Y329608*
X153821*
X153597Y329454*
X153373Y329146*
X153261Y328839*
X153150Y328377*
Y327608*
X153261Y327147*
X153373Y326839*
X153597Y326532*
X153821Y326378*
X154268*
X154492Y326532*
X154715Y326839*
X154827Y327147*
X155834Y328992D02*
X156058Y329146D01*
X156393Y329608*
Y326378*
X157512Y328839D02*
Y328992D01*
X157623Y329300*
X157735Y329454*
X157959Y329608*
X158406*
X158630Y329454*
X158742Y329300*
X158854Y328992*
Y328685*
X158742Y328377*
X158518Y327916*
X157400Y326378*
X158966*
X294591Y586713D02*
X294479Y587020D01*
X294256Y587328*
X294032Y587482*
X293584*
X293361Y587328*
X293137Y587020*
X293025Y586713*
X292913Y586251*
Y585482*
X293025Y585021*
X293137Y584713*
X293361Y584406*
X293584Y584252*
X294032*
X294256Y584406*
X294479Y584713*
X294591Y585021*
X296716Y587482D02*
X295598Y585328D01*
X297275*
X296716Y587482D02*
Y584252D01*
X217819Y328839D02*
X217708Y329146D01*
X217484Y329454*
X217260Y329608*
X216813*
X216589Y329454*
X216365Y329146*
X216254Y328839*
X216142Y328377*
Y327608*
X216254Y327147*
X216365Y326839*
X216589Y326532*
X216813Y326378*
X217260*
X217484Y326532*
X217708Y326839*
X217819Y327147*
X220280Y329608D02*
X219162D01*
X219050Y328223*
X219162Y328377*
X219497Y328531*
X219833*
X220168Y328377*
X220392Y328070*
X220504Y327608*
X220392Y327301*
X220280Y326839*
X220056Y326532*
X219721Y326378*
X219385*
X219050Y326532*
X218938Y326686*
X218826Y326993*
X202362Y376852D02*
Y373622D01*
Y376852D02*
X203145D01*
X203481Y376698*
X203704Y376390*
X203816Y376083*
X203928Y375621*
Y374852*
X203816Y374391*
X203704Y374083*
X203481Y373776*
X203145Y373622*
X202362*
X205047Y376083D02*
Y376236D01*
X205158Y376544*
X205270Y376698*
X205494Y376852*
X205941*
X206165Y376698*
X206277Y376544*
X206389Y376236*
Y375929*
X206277Y375621*
X206053Y375160*
X204935Y373622*
X206501*
X200394Y329608D02*
Y326378D01*
Y329608D02*
X201177D01*
X201512Y329454*
X201736Y329146*
X201848Y328839*
X201960Y328377*
Y327608*
X201848Y327147*
X201736Y326839*
X201512Y326532*
X201177Y326378*
X200394*
X204308Y329146D02*
X204196Y329454D01*
X203861Y329608*
X203637*
X203302Y329454*
X203078Y328992*
X202966Y328223*
Y327454*
X203078Y326839*
X203302Y326532*
X203637Y326378*
X203749*
X204085Y326532*
X204308Y326839*
X204420Y327301*
Y327454*
X204308Y327916*
X204085Y328223*
X203749Y328377*
X203637*
X203302Y328223*
X203078Y327916*
X202966Y327454*
X164961Y329608D02*
Y326378D01*
Y329608D02*
X165967D01*
X166303Y329454*
X166415Y329300*
X166526Y328992*
Y328685*
X166415Y328377*
X166303Y328223*
X165967Y328070*
X164961*
X165744D02*
X166526Y326378D01*
X167757Y329608D02*
X168987D01*
X168316Y328377*
X168652*
X168875Y328223*
X168987Y328070*
X169099Y327608*
Y327301*
X168987Y326839*
X168763Y326532*
X168428Y326378*
X168092*
X167757Y326532*
X167645Y326686*
X167533Y326993*
X170777Y329608D02*
X170441Y329454D01*
X170217Y328992*
X170106Y328223*
Y327762*
X170217Y326993*
X170441Y326532*
X170777Y326378*
X171000*
X171336Y326532*
X171560Y326993*
X171671Y327762*
Y328223*
X171560Y328992*
X171336Y329454*
X171000Y329608*
X170777*
X178740D02*
Y326378D01*
Y329608D02*
X179747D01*
X180082Y329454*
X180194Y329300*
X180306Y328992*
Y328685*
X180194Y328377*
X180082Y328223*
X179747Y328070*
X178740*
X179523D02*
X180306Y326378D01*
X181536Y329608D02*
X182767D01*
X182096Y328377*
X182431*
X182655Y328223*
X182767Y328070*
X182878Y327608*
Y327301*
X182767Y326839*
X182543Y326532*
X182207Y326378*
X181872*
X181536Y326532*
X181424Y326686*
X181313Y326993*
X183885Y328992D02*
X184109Y329146D01*
X184444Y329608*
Y326378*
X334252Y343387D02*
Y340157D01*
Y343387D02*
X335259D01*
X335594Y343233*
X335706Y343079*
X335818Y342772*
Y342464*
X335706Y342157*
X335594Y342003*
X335259Y341849*
X334252*
X335035D02*
X335818Y340157D01*
X336824Y342772D02*
X337048Y342926D01*
X337384Y343387*
Y340157*
X338950Y343387D02*
X338614Y343233D01*
X338502Y342926*
Y342618*
X338614Y342311*
X338838Y342157*
X339285Y342003*
X339621Y341849*
X339844Y341542*
X339956Y341234*
Y340773*
X339844Y340465*
X339732Y340311*
X339397Y340157*
X338950*
X338614Y340311*
X338502Y340465*
X338390Y340773*
Y341234*
X338502Y341542*
X338726Y341849*
X339061Y342003*
X339509Y342157*
X339732Y342311*
X339844Y342618*
Y342926*
X339732Y343233*
X339397Y343387*
X338950*
X334252Y298111D02*
Y294882D01*
Y298111D02*
X335259D01*
X335594Y297958*
X335706Y297804*
X335818Y297496*
Y297189*
X335706Y296881*
X335594Y296727*
X335259Y296574*
X334252*
X335035D02*
X335818Y294882D01*
X336936Y297343D02*
Y297496D01*
X337048Y297804*
X337160Y297958*
X337384Y298111*
X337831*
X338055Y297958*
X338167Y297804*
X338278Y297496*
Y297189*
X338167Y296881*
X337943Y296420*
X336824Y294882*
X338390*
X340851Y297035D02*
X340739Y296574D01*
X340515Y296266*
X340180Y296112*
X340068*
X339732Y296266*
X339509Y296574*
X339397Y297035*
Y297189*
X339509Y297650*
X339732Y297958*
X340068Y298111*
X340180*
X340515Y297958*
X340739Y297650*
X340851Y297035*
Y296266*
X340739Y295497*
X340515Y295036*
X340180Y294882*
X339956*
X339621Y295036*
X339509Y295343*
X222047Y325671D02*
Y322441D01*
Y325671D02*
X223054D01*
X223389Y325517*
X223501Y325363*
X223613Y325055*
Y324748*
X223501Y324440*
X223389Y324286*
X223054Y324133*
X222047*
X222830D02*
X223613Y322441D01*
X224843Y325671D02*
X226074D01*
X225403Y324440*
X225738*
X225962Y324286*
X226074Y324133*
X226186Y323671*
Y323364*
X226074Y322902*
X225850Y322595*
X225514Y322441*
X225179*
X224843Y322595*
X224732Y322749*
X224620Y323056*
X227304Y324902D02*
Y325055D01*
X227416Y325363*
X227528Y325517*
X227751Y325671*
X228199*
X228423Y325517*
X228534Y325363*
X228646Y325055*
Y324748*
X228534Y324440*
X228311Y323979*
X227192Y322441*
X228758*
X222047Y282363D02*
Y279134D01*
Y282363D02*
X223054D01*
X223389Y282210*
X223501Y282056*
X223613Y281748*
Y281441*
X223501Y281133*
X223389Y280979*
X223054Y280826*
X222047*
X222830D02*
X223613Y279134D01*
X224843Y282363D02*
X226074D01*
X225403Y281133*
X225738*
X225962Y280979*
X226074Y280826*
X226186Y280364*
Y280057*
X226074Y279595*
X225850Y279288*
X225514Y279134*
X225179*
X224843Y279288*
X224732Y279441*
X224620Y279749*
X227416Y282363D02*
X228646D01*
X227975Y281133*
X228311*
X228534Y280979*
X228646Y280826*
X228758Y280364*
Y280057*
X228646Y279595*
X228423Y279288*
X228087Y279134*
X227751*
X227416Y279288*
X227304Y279441*
X227192Y279749*
X261127Y261909D02*
X261015Y262217D01*
X260791Y262525*
X260567Y262678*
X260120*
X259896Y262525*
X259673Y262217*
X259561Y261909*
X259449Y261448*
Y260679*
X259561Y260218*
X259673Y259910*
X259896Y259603*
X260120Y259449*
X260567*
X260791Y259603*
X261015Y259910*
X261127Y260218*
X262916Y262678D02*
Y259449D01*
X262133Y262678D02*
X263699D01*
X264706Y262063D02*
X264929Y262217D01*
X265265Y262678*
Y259449*
X306693Y420159D02*
Y416929D01*
X308035*
X309042Y419544D02*
X309265Y419697D01*
X309601Y420159*
Y416929*
X310608Y419544D02*
X310831Y419697D01*
X311167Y420159*
Y416929*
X342126Y439844D02*
Y436614D01*
X343468*
X344698Y439844D02*
X345929D01*
X345258Y438613*
X345593*
X345817Y438460*
X345929Y438306*
X346041Y437844*
Y437537*
X345929Y437076*
X345705Y436768*
X345370Y436614*
X345034*
X344698Y436768*
X344587Y436922*
X344475Y437229*
X507190Y628051D02*
X507078Y628359D01*
X506854Y628666*
X506630Y628820*
X506183*
X505959Y628666*
X505736Y628359*
X505624Y628051*
X505512Y627590*
Y626821*
X505624Y626359*
X505624D02*
X505736Y626052D01*
X505959Y625744*
X506183Y625591*
X506630*
X506854Y625744*
X507078Y626052*
X507190Y626359*
X508196Y628205D02*
X508420Y628359D01*
X508755Y628820*
Y625591*
X511328Y628820D02*
X510209Y625591D01*
X509762Y628820D02*
X511328D01*
X287008Y302048D02*
Y298819D01*
X288350*
X289357Y301433D02*
X289580Y301587D01*
X289916Y302048*
Y298819*
X291594Y302048D02*
X291258Y301895D01*
X291034Y301433*
X290923Y300664*
Y300203*
X291034Y299434*
X291258Y298973*
X291594Y298819*
X291817*
X292153Y298973*
X292377Y299434*
X292488Y300203*
Y300664*
X292377Y301433*
X292153Y301895*
X291817Y302048*
X291594*
G54D109*
X119685Y349016D02*
Y348031D01*
Y349016D02*
X119992D01*
X120094Y348969*
X120128Y348922*
X120162Y348828*
Y348688*
X120128Y348594*
X120094Y348547*
X119992Y348500*
X119685*
X120912Y349016D02*
X120571D01*
X120537Y348594*
X120571Y348641*
X120674Y348688*
X120776*
X120878Y348641*
X120946Y348547*
X120980Y348406*
X120946Y348313*
X120912Y348172*
X120844Y348078*
X120742Y348031*
X120640*
X120537Y348078*
X120503Y348125*
X120469Y348219*
X387402Y349016D02*
Y348031D01*
Y349016D02*
X387708D01*
X387811Y348969*
X387845Y348922*
X387879Y348828*
Y348688*
X387845Y348594*
X387811Y348547*
X387708Y348500*
X387402*
X388595Y348875D02*
X388561Y348969D01*
X388458Y349016*
X388390*
X388288Y348969*
X388220Y348828*
X388186Y348594*
Y348360*
X388220Y348172*
X388288Y348078*
X388390Y348031*
X388424*
X388527Y348078*
X388595Y348172*
X388629Y348313*
Y348360*
X388595Y348500*
X388527Y348594*
X388424Y348641*
X388390*
X388288Y348594*
X388220Y348500*
X388186Y348360*
G74*
X0Y0D02*
M02*
