*
*
G04 PADS 9.5 Build Number: 522968 generated Gerber (RS-274-X) file*
G04 PC Version=2.1*
*
%IN "RF-GEN_RF_V2.0_PCB_2019"*%
*
%MOIN*%
*
%FSLAX35Y35*%
*
*
*
*
G04 PC Standard Apertures*
*
*
G04 Thermal Relief Aperture macro.*
%AMTER*
1,1,$1,0,0*
1,0,$1-$2,0,0*
21,0,$3,$4,0,0,45*
21,0,$3,$4,0,0,135*
%
*
*
G04 Annular Aperture macro.*
%AMANN*
1,1,$1,0,0*
1,0,$2,0,0*
%
*
*
G04 Odd Aperture macro.*
%AMODD*
1,1,$1,0,0*
1,0,$1-0.005,0,0*
%
*
*
G04 PC Custom Aperture Macros*
*
*
*
*
*
*
G04 PC Aperture Table*
*
%ADD050C,0.01*%
%ADD061R,0.04921X0.04921*%
%ADD074R,0.19882X0.39567*%
%ADD083C,0.09252*%
%ADD086R,0.1122X0.1122*%
%ADD087C,0.1122*%
%ADD090R,0.02697X0.08197*%
%ADD095R,0.04921X0.10433*%
%ADD096R,0.10433X0.04921*%
%ADD098C,0.07283*%
%ADD099R,0.07197X0.05197*%
%ADD113R,0.06102X0.06102*%
%ADD114C,0.06197*%
%ADD116C,0.00004*%
%ADD129C,0.15945*%
%ADD130R,0.12008X0.12008*%
%ADD131C,0.12008*%
%ADD132C,0.13976*%
%ADD133C,0.08071*%
%ADD134R,0.06197X0.10597*%
%ADD135C,0.0689*%
%ADD136C,0.12795*%
%ADD137C,0.07677*%
%ADD138C,0.31693*%
*
*
*
*
G04 PC Circuitry*
G04 Layer Name RF-GEN_RF_V2.0_PCB_2019 - circuitry*
%LPD*%
*
*
G04 PC Custom Flashes*
G04 Layer Name RF-GEN_RF_V2.0_PCB_2019 - flashes*
%LPD*%
*
*
G04 PC Circuitry*
G04 Layer Name RF-GEN_RF_V2.0_PCB_2019 - circuitry*
%LPD*%
*
G54D50*
G01X289476Y493201D02*
X678240D01*
Y101484*
X289476*
Y493201*
Y492983D02*
X678240D01*
X289476Y492083D02*
X678240D01*
X289476Y491183D02*
X678240D01*
X289476Y490283D02*
X678240D01*
X289476Y489383D02*
X678240D01*
X289476Y488483D02*
X678240D01*
X289476Y487583D02*
X678240D01*
X289476Y486683D02*
X678240D01*
X289476Y485783D02*
X678240D01*
X289476Y484883D02*
X678240D01*
X289476Y483983D02*
X678240D01*
X289476Y483083D02*
X678240D01*
X289476Y482183D02*
X678240D01*
X289476Y481283D02*
X678240D01*
X289476Y480383D02*
X678240D01*
X289476Y479483D02*
X678240D01*
X289476Y478583D02*
X678240D01*
X289476Y477683D02*
X678240D01*
X289476Y476783D02*
X678240D01*
X289476Y475883D02*
X678240D01*
X289476Y474983D02*
X678240D01*
X289476Y474083D02*
X678240D01*
X289476Y473183D02*
X678240D01*
X289476Y472283D02*
X678240D01*
X289476Y471383D02*
X678240D01*
X289476Y470483D02*
X678240D01*
X289476Y469583D02*
X678240D01*
X289476Y468683D02*
X678240D01*
X289476Y467783D02*
X678240D01*
X289476Y466883D02*
X678240D01*
X289476Y465983D02*
X678240D01*
X289476Y465083D02*
X678240D01*
X289476Y464183D02*
X678240D01*
X289476Y463283D02*
X678240D01*
X289476Y462383D02*
X678240D01*
X289476Y461483D02*
X678240D01*
X289476Y460583D02*
X678240D01*
X289476Y459683D02*
X678240D01*
X289476Y458783D02*
X678240D01*
X289476Y457883D02*
X678240D01*
X289476Y456983D02*
X678240D01*
X289476Y456083D02*
X678240D01*
X289476Y455183D02*
X678240D01*
X289476Y454283D02*
X678240D01*
X289476Y453383D02*
X678240D01*
X289476Y452483D02*
X678240D01*
X289476Y451583D02*
X678240D01*
X289476Y450683D02*
X678240D01*
X289476Y449783D02*
X678240D01*
X289476Y448883D02*
X678240D01*
X289476Y447983D02*
X678240D01*
X289476Y447083D02*
X678240D01*
X289476Y446183D02*
X678240D01*
X289476Y445283D02*
X678240D01*
X289476Y444383D02*
X678240D01*
X289476Y443483D02*
X678240D01*
X289476Y442583D02*
X678240D01*
X289476Y441683D02*
X678240D01*
X289476Y440783D02*
X678240D01*
X289476Y439883D02*
X678240D01*
X289476Y438983D02*
X678240D01*
X289476Y438083D02*
X678240D01*
X289476Y437183D02*
X678240D01*
X289476Y436283D02*
X678240D01*
X289476Y435383D02*
X678240D01*
X289476Y434483D02*
X678240D01*
X289476Y433583D02*
X678240D01*
X289476Y432683D02*
X678240D01*
X289476Y431783D02*
X678240D01*
X289476Y430883D02*
X678240D01*
X289476Y429983D02*
X678240D01*
X289476Y429083D02*
X678240D01*
X289476Y428183D02*
X678240D01*
X289476Y427283D02*
X678240D01*
X289476Y426383D02*
X678240D01*
X289476Y425483D02*
X678240D01*
X289476Y424583D02*
X678240D01*
X289476Y423683D02*
X678240D01*
X289476Y422783D02*
X678240D01*
X289476Y421883D02*
X678240D01*
X289476Y420983D02*
X678240D01*
X289476Y420083D02*
X678240D01*
X289476Y419183D02*
X678240D01*
X289476Y418283D02*
X678240D01*
X289476Y417383D02*
X678240D01*
X289476Y416483D02*
X678240D01*
X289476Y415583D02*
X678240D01*
X289476Y414683D02*
X678240D01*
X289476Y413783D02*
X678240D01*
X289476Y412883D02*
X678240D01*
X289476Y411983D02*
X678240D01*
X289476Y411083D02*
X678240D01*
X289476Y410183D02*
X678240D01*
X289476Y409283D02*
X678240D01*
X289476Y408383D02*
X678240D01*
X289476Y407483D02*
X678240D01*
X289476Y406583D02*
X678240D01*
X289476Y405683D02*
X678240D01*
X289476Y404783D02*
X678240D01*
X289476Y403883D02*
X678240D01*
X289476Y402983D02*
X678240D01*
X289476Y402083D02*
X678240D01*
X289476Y401183D02*
X678240D01*
X289476Y400283D02*
X678240D01*
X289476Y399383D02*
X678240D01*
X289476Y398483D02*
X678240D01*
X289476Y397583D02*
X678240D01*
X289476Y396683D02*
X678240D01*
X289476Y395783D02*
X678240D01*
X289476Y394883D02*
X678240D01*
X289476Y393983D02*
X678240D01*
X289476Y393083D02*
X678240D01*
X289476Y392183D02*
X678240D01*
X289476Y391283D02*
X678240D01*
X289476Y390383D02*
X678240D01*
X289476Y389483D02*
X678240D01*
X289476Y388583D02*
X678240D01*
X289476Y387683D02*
X678240D01*
X289476Y386783D02*
X678240D01*
X289476Y385883D02*
X678240D01*
X289476Y384983D02*
X678240D01*
X289476Y384083D02*
X678240D01*
X289476Y383183D02*
X678240D01*
X289476Y382283D02*
X678240D01*
X289476Y381383D02*
X678240D01*
X289476Y380483D02*
X678240D01*
X289476Y379583D02*
X678240D01*
X289476Y378683D02*
X678240D01*
X289476Y377783D02*
X678240D01*
X289476Y376883D02*
X678240D01*
X289476Y375983D02*
X678240D01*
X289476Y375083D02*
X678240D01*
X289476Y374183D02*
X678240D01*
X289476Y373283D02*
X678240D01*
X289476Y372383D02*
X678240D01*
X289476Y371483D02*
X678240D01*
X289476Y370583D02*
X678240D01*
X289476Y369683D02*
X678240D01*
X289476Y368783D02*
X678240D01*
X289476Y367883D02*
X678240D01*
X289476Y366983D02*
X678240D01*
X289476Y366083D02*
X678240D01*
X289476Y365183D02*
X678240D01*
X289476Y364283D02*
X678240D01*
X289476Y363383D02*
X678240D01*
X289476Y362483D02*
X678240D01*
X289476Y361583D02*
X678240D01*
X289476Y360683D02*
X678240D01*
X289476Y359783D02*
X678240D01*
X289476Y358883D02*
X678240D01*
X289476Y357983D02*
X678240D01*
X289476Y357083D02*
X678240D01*
X289476Y356183D02*
X678240D01*
X289476Y355283D02*
X678240D01*
X289476Y354383D02*
X678240D01*
X289476Y353483D02*
X678240D01*
X289476Y352583D02*
X678240D01*
X289476Y351683D02*
X678240D01*
X289476Y350783D02*
X678240D01*
X289476Y349883D02*
X678240D01*
X289476Y348983D02*
X678240D01*
X289476Y348083D02*
X678240D01*
X289476Y347183D02*
X678240D01*
X289476Y346283D02*
X678240D01*
X289476Y345383D02*
X678240D01*
X289476Y344483D02*
X678240D01*
X289476Y343583D02*
X678240D01*
X289476Y342683D02*
X678240D01*
X289476Y341783D02*
X678240D01*
X289476Y340883D02*
X678240D01*
X289476Y339983D02*
X678240D01*
X289476Y339083D02*
X678240D01*
X289476Y338183D02*
X678240D01*
X289476Y337283D02*
X678240D01*
X289476Y336383D02*
X678240D01*
X289476Y335483D02*
X678240D01*
X289476Y334583D02*
X678240D01*
X289476Y333683D02*
X678240D01*
X289476Y332783D02*
X678240D01*
X289476Y331883D02*
X678240D01*
X289476Y330983D02*
X678240D01*
X289476Y330083D02*
X678240D01*
X289476Y329183D02*
X678240D01*
X289476Y328283D02*
X678240D01*
X289476Y327383D02*
X678240D01*
X289476Y326483D02*
X678240D01*
X289476Y325583D02*
X678240D01*
X289476Y324683D02*
X678240D01*
X289476Y323783D02*
X678240D01*
X289476Y322883D02*
X678240D01*
X289476Y321983D02*
X678240D01*
X289476Y321083D02*
X678240D01*
X289476Y320183D02*
X678240D01*
X289476Y319283D02*
X678240D01*
X289476Y318383D02*
X678240D01*
X289476Y317483D02*
X678240D01*
X289476Y316583D02*
X678240D01*
X289476Y315683D02*
X678240D01*
X289476Y314783D02*
X678240D01*
X289476Y313883D02*
X678240D01*
X289476Y312983D02*
X678240D01*
X289476Y312083D02*
X678240D01*
X289476Y311183D02*
X678240D01*
X289476Y310283D02*
X678240D01*
X289476Y309383D02*
X678240D01*
X289476Y308483D02*
X678240D01*
X289476Y307583D02*
X678240D01*
X289476Y306683D02*
X678240D01*
X289476Y305783D02*
X678240D01*
X289476Y304883D02*
X678240D01*
X289476Y303983D02*
X678240D01*
X289476Y303083D02*
X678240D01*
X289476Y302183D02*
X678240D01*
X289476Y301283D02*
X678240D01*
X289476Y300383D02*
X678240D01*
X289476Y299483D02*
X678240D01*
X289476Y298583D02*
X678240D01*
X289476Y297683D02*
X678240D01*
X289476Y296783D02*
X678240D01*
X289476Y295883D02*
X678240D01*
X289476Y294983D02*
X678240D01*
X289476Y294083D02*
X678240D01*
X289476Y293183D02*
X678240D01*
X289476Y292283D02*
X678240D01*
X289476Y291383D02*
X678240D01*
X289476Y290483D02*
X678240D01*
X289476Y289583D02*
X678240D01*
X289476Y288683D02*
X678240D01*
X289476Y287783D02*
X678240D01*
X289476Y286883D02*
X678240D01*
X289476Y285983D02*
X678240D01*
X289476Y285083D02*
X678240D01*
X289476Y284183D02*
X678240D01*
X289476Y283283D02*
X678240D01*
X289476Y282383D02*
X678240D01*
X289476Y281483D02*
X678240D01*
X289476Y280583D02*
X678240D01*
X289476Y279683D02*
X678240D01*
X289476Y278783D02*
X678240D01*
X289476Y277883D02*
X678240D01*
X289476Y276983D02*
X678240D01*
X289476Y276083D02*
X678240D01*
X289476Y275183D02*
X678240D01*
X289476Y274283D02*
X678240D01*
X289476Y273383D02*
X678240D01*
X289476Y272483D02*
X678240D01*
X289476Y271583D02*
X678240D01*
X289476Y270683D02*
X678240D01*
X289476Y269783D02*
X678240D01*
X289476Y268883D02*
X678240D01*
X289476Y267983D02*
X678240D01*
X289476Y267083D02*
X678240D01*
X289476Y266183D02*
X678240D01*
X289476Y265283D02*
X678240D01*
X289476Y264383D02*
X678240D01*
X289476Y263483D02*
X678240D01*
X289476Y262583D02*
X678240D01*
X289476Y261683D02*
X678240D01*
X289476Y260783D02*
X678240D01*
X289476Y259883D02*
X678240D01*
X289476Y258983D02*
X678240D01*
X289476Y258083D02*
X678240D01*
X289476Y257183D02*
X678240D01*
X289476Y256283D02*
X678240D01*
X289476Y255383D02*
X678240D01*
X289476Y254483D02*
X678240D01*
X289476Y253583D02*
X678240D01*
X289476Y252683D02*
X678240D01*
X289476Y251783D02*
X678240D01*
X289476Y250883D02*
X678240D01*
X289476Y249983D02*
X678240D01*
X289476Y249083D02*
X678240D01*
X289476Y248183D02*
X678240D01*
X289476Y247283D02*
X678240D01*
X289476Y246383D02*
X678240D01*
X289476Y245483D02*
X678240D01*
X289476Y244583D02*
X678240D01*
X289476Y243683D02*
X678240D01*
X289476Y242783D02*
X678240D01*
X289476Y241883D02*
X678240D01*
X289476Y240983D02*
X678240D01*
X289476Y240083D02*
X678240D01*
X289476Y239183D02*
X678240D01*
X289476Y238283D02*
X678240D01*
X289476Y237383D02*
X678240D01*
X289476Y236483D02*
X678240D01*
X289476Y235583D02*
X678240D01*
X289476Y234683D02*
X678240D01*
X289476Y233783D02*
X678240D01*
X289476Y232883D02*
X678240D01*
X289476Y231983D02*
X678240D01*
X289476Y231083D02*
X678240D01*
X289476Y230183D02*
X678240D01*
X289476Y229283D02*
X678240D01*
X289476Y228383D02*
X678240D01*
X289476Y227483D02*
X678240D01*
X289476Y226583D02*
X678240D01*
X289476Y225683D02*
X678240D01*
X289476Y224783D02*
X678240D01*
X289476Y223883D02*
X678240D01*
X289476Y222983D02*
X678240D01*
X289476Y222083D02*
X678240D01*
X289476Y221183D02*
X678240D01*
X289476Y220283D02*
X678240D01*
X289476Y219383D02*
X678240D01*
X289476Y218483D02*
X678240D01*
X289476Y217583D02*
X678240D01*
X289476Y216683D02*
X678240D01*
X289476Y215783D02*
X678240D01*
X289476Y214883D02*
X678240D01*
X289476Y213983D02*
X678240D01*
X289476Y213083D02*
X678240D01*
X289476Y212183D02*
X678240D01*
X289476Y211283D02*
X678240D01*
X289476Y210383D02*
X678240D01*
X289476Y209483D02*
X678240D01*
X289476Y208583D02*
X678240D01*
X289476Y207683D02*
X678240D01*
X289476Y206783D02*
X678240D01*
X289476Y205883D02*
X678240D01*
X289476Y204983D02*
X678240D01*
X289476Y204083D02*
X678240D01*
X289476Y203183D02*
X678240D01*
X289476Y202283D02*
X678240D01*
X289476Y201383D02*
X678240D01*
X289476Y200483D02*
X678240D01*
X289476Y199583D02*
X678240D01*
X289476Y198683D02*
X678240D01*
X289476Y197783D02*
X678240D01*
X289476Y196883D02*
X678240D01*
X289476Y195983D02*
X678240D01*
X289476Y195083D02*
X678240D01*
X289476Y194183D02*
X678240D01*
X289476Y193283D02*
X678240D01*
X289476Y192383D02*
X678240D01*
X289476Y191483D02*
X678240D01*
X289476Y190583D02*
X678240D01*
X289476Y189683D02*
X678240D01*
X289476Y188783D02*
X678240D01*
X289476Y187883D02*
X678240D01*
X289476Y186983D02*
X678240D01*
X289476Y186083D02*
X678240D01*
X289476Y185183D02*
X678240D01*
X289476Y184283D02*
X678240D01*
X289476Y183383D02*
X678240D01*
X289476Y182483D02*
X678240D01*
X289476Y181583D02*
X678240D01*
X289476Y180683D02*
X678240D01*
X289476Y179783D02*
X678240D01*
X289476Y178883D02*
X678240D01*
X289476Y177983D02*
X678240D01*
X289476Y177083D02*
X678240D01*
X289476Y176183D02*
X678240D01*
X289476Y175283D02*
X678240D01*
X289476Y174383D02*
X678240D01*
X289476Y173483D02*
X678240D01*
X289476Y172583D02*
X678240D01*
X289476Y171683D02*
X678240D01*
X289476Y170783D02*
X678240D01*
X289476Y169883D02*
X678240D01*
X289476Y168983D02*
X678240D01*
X289476Y168083D02*
X678240D01*
X289476Y167183D02*
X678240D01*
X289476Y166283D02*
X678240D01*
X289476Y165383D02*
X678240D01*
X289476Y164483D02*
X678240D01*
X289476Y163583D02*
X678240D01*
X289476Y162683D02*
X678240D01*
X289476Y161783D02*
X678240D01*
X289476Y160883D02*
X678240D01*
X289476Y159983D02*
X678240D01*
X289476Y159083D02*
X678240D01*
X289476Y158183D02*
X678240D01*
X289476Y157283D02*
X678240D01*
X289476Y156383D02*
X678240D01*
X289476Y155483D02*
X678240D01*
X289476Y154583D02*
X678240D01*
X289476Y153683D02*
X678240D01*
X289476Y152783D02*
X678240D01*
X289476Y151883D02*
X678240D01*
X289476Y150983D02*
X678240D01*
X289476Y150083D02*
X678240D01*
X289476Y149183D02*
X678240D01*
X289476Y148283D02*
X678240D01*
X289476Y147383D02*
X678240D01*
X289476Y146483D02*
X678240D01*
X289476Y145583D02*
X678240D01*
X289476Y144683D02*
X678240D01*
X289476Y143783D02*
X678240D01*
X289476Y142883D02*
X678240D01*
X289476Y141983D02*
X678240D01*
X289476Y141083D02*
X678240D01*
X289476Y140183D02*
X678240D01*
X289476Y139283D02*
X678240D01*
X289476Y138383D02*
X678240D01*
X289476Y137483D02*
X678240D01*
X289476Y136583D02*
X678240D01*
X289476Y135683D02*
X678240D01*
X289476Y134783D02*
X678240D01*
X289476Y133883D02*
X678240D01*
X289476Y132983D02*
X678240D01*
X289476Y132083D02*
X678240D01*
X289476Y131183D02*
X678240D01*
X289476Y130283D02*
X678240D01*
X289476Y129383D02*
X678240D01*
X289476Y128483D02*
X678240D01*
X289476Y127583D02*
X678240D01*
X289476Y126683D02*
X678240D01*
X289476Y125783D02*
X678240D01*
X289476Y124883D02*
X678240D01*
X289476Y123983D02*
X678240D01*
X289476Y123083D02*
X678240D01*
X289476Y122183D02*
X678240D01*
X289476Y121283D02*
X678240D01*
X289476Y120383D02*
X678240D01*
X289476Y119483D02*
X678240D01*
X289476Y118583D02*
X678240D01*
X289476Y117683D02*
X678240D01*
X289476Y116783D02*
X678240D01*
X289476Y115883D02*
X678240D01*
X289476Y114983D02*
X678240D01*
X289476Y114083D02*
X678240D01*
X289476Y113183D02*
X678240D01*
X289476Y112283D02*
X678240D01*
X289476Y111383D02*
X678240D01*
X289476Y110483D02*
X678240D01*
X289476Y109583D02*
X678240D01*
X289476Y108683D02*
X678240D01*
X289476Y107783D02*
X678240D01*
X289476Y106883D02*
X678240D01*
X289476Y105983D02*
X678240D01*
X289476Y105083D02*
X678240D01*
X289476Y104183D02*
X678240D01*
X289476Y103283D02*
X678240D01*
X289476Y102383D02*
X678240D01*
X100000Y100000D02*
X1044882D01*
Y493701*
X100000*
Y100000*
X473031Y401181D02*
X475000Y403150D01*
X512402*
X514370Y401181*
Y243701*
X512402Y241732*
X475000*
X473031Y243701*
Y401181*
G54D61*
X187008Y353937D03*
X178346D03*
X162992Y322835D03*
Y314173D03*
Y354528D03*
Y363189D03*
X153740Y300787D03*
X162402D03*
X153150Y282677D03*
Y291339D03*
X162992Y282677D03*
Y291339D03*
X257480Y393701D03*
Y385039D03*
X245669D03*
Y393701D03*
Y259843D03*
Y251181D03*
X257480D03*
Y259843D03*
X219094Y470472D03*
Y461811D03*
X211220Y438976D03*
Y430315D03*
X191535Y438976D03*
Y430315D03*
X181693D03*
Y438976D03*
X201378D03*
Y430315D03*
X171850D03*
Y438976D03*
X153150Y465551D03*
Y456890D03*
X176772D03*
Y465551D03*
G54D74*
X810630Y363780D03*
Y283071D03*
G54D83*
X127559Y300787D03*
X117559Y290787D03*
X137559D03*
Y310787D03*
X117559D03*
X1025197Y407087D03*
X1035197Y417087D03*
X1015197D03*
Y397087D03*
X1035197D03*
G54D86*
X122638Y371728D03*
G54D87*
Y387328D03*
G54D90*
X191909Y454142D03*
X196909D03*
X201909D03*
X206909D03*
Y478142D03*
X201909D03*
X196909D03*
X191909D03*
G54D95*
X148031Y343110D03*
X138583D03*
X209055Y353937D03*
X199606D03*
G54D96*
X162992Y342913D03*
Y333465D03*
G54D98*
X192362Y393307D03*
X202362Y403307D03*
X212362Y393307D03*
X192362Y251575D03*
X202362Y261575D03*
X212362Y251575D03*
X123622Y206299D03*
G54D99*
X164961Y455220D03*
Y467220D03*
G54D113*
X123622Y440551D03*
G54D114*
Y430709D03*
Y420866D03*
G54D116*
G54D129*
X245472Y292913D03*
Y355906D03*
G54D130*
X123622Y175118D03*
G54D131*
Y190709D03*
Y221890D03*
Y237480D03*
G54D132*
X897244Y174803D03*
X956299D03*
X897244Y401181D03*
X956299D03*
X970079Y251575D03*
Y310630D03*
X712205Y174803D03*
X771260D03*
G54D133*
X862795Y160807D03*
Y125807D03*
X980138Y214173D03*
X1015138D03*
X980138Y174803D03*
X1015138D03*
X865531Y438583D03*
X830531D03*
X865531Y411024D03*
X830531D03*
X983858Y417146D03*
Y452146D03*
X759665Y438583D03*
X794665D03*
X759665Y411024D03*
X794665D03*
G54D134*
X162008Y250787D03*
Y236614D03*
X161024Y390157D03*
Y404331D03*
G54D135*
X985827Y395276D03*
X177756Y300787D03*
X224016Y355906D03*
X837205Y183661D03*
X147244Y481890D03*
X119685Y332283D03*
X800787Y115748D03*
X1029134Y344094D03*
G54D136*
X119685Y119685D03*
Y474016D03*
X1025197D03*
Y119685D03*
X277165D03*
X690551D03*
Y474016D03*
X277165D03*
G54D137*
X282087Y429646D03*
Y439646D03*
G54D138*
X316535Y127559D03*
Y462205D03*
X651181D03*
Y127559D03*
X0Y0D02*
M02*
