*
*
G04 PADS 9.5 Build Number: 522968 generated Gerber (RS-274-X) file*
G04 PC Version=2.1*
*
%IN "RF-GEN_RF_V2.0_PCB_2019"*%
*
%MOIN*%
*
%FSLAX35Y35*%
*
*
*
*
G04 PC Standard Apertures*
*
*
G04 Thermal Relief Aperture macro.*
%AMTER*
1,1,$1,0,0*
1,0,$1-$2,0,0*
21,0,$3,$4,0,0,45*
21,0,$3,$4,0,0,135*
%
*
*
G04 Annular Aperture macro.*
%AMANN*
1,1,$1,0,0*
1,0,$2,0,0*
%
*
*
G04 Odd Aperture macro.*
%AMODD*
1,1,$1,0,0*
1,0,$1-0.005,0,0*
%
*
*
G04 PC Custom Aperture Macros*
*
*
*
*
*
*
G04 PC Aperture Table*
*
%ADD010C,0.001*%
%ADD050C,0.01*%
%ADD061R,0.04921X0.04921*%
%ADD066R,0.15945X0.12008*%
%ADD067R,0.23819X0.29724*%
%ADD068R,0.23819X0.78937*%
%ADD070R,0.23819X0.17913*%
%ADD072R,0.23819X0.48819*%
%ADD073R,0.23819X0.98622*%
%ADD074R,0.19882X0.39567*%
%ADD075R,0.30118X0.17913*%
%ADD083C,0.09252*%
%ADD086R,0.1122X0.1122*%
%ADD087C,0.1122*%
%ADD088R,0.0689X0.2185*%
%ADD089R,0.2185X0.0689*%
%ADD097R,0.06597X0.16197*%
%ADD098C,0.07283*%
%ADD099R,0.07197X0.05197*%
%ADD113R,0.06102X0.06102*%
%ADD114C,0.06197*%
%ADD116C,0.00004*%
%ADD130R,0.12008X0.12008*%
%ADD131C,0.12008*%
%ADD132C,0.13976*%
%ADD133C,0.08071*%
%ADD135C,0.0689*%
%ADD136C,0.12795*%
%ADD137C,0.07677*%
%ADD138C,0.31693*%
%ADD139R,0.15945X0.15945*%
%ADD140R,0.39213X0.82874*%
*
*
*
*
G04 PC Circuitry*
G04 Layer Name RF-GEN_RF_V2.0_PCB_2019 - circuitry*
%LPD*%
*
*
G04 PC Custom Flashes*
G04 Layer Name RF-GEN_RF_V2.0_PCB_2019 - flashes*
%LPD*%
*
*
G04 PC Circuitry*
G04 Layer Name RF-GEN_RF_V2.0_PCB_2019 - circuitry*
%LPD*%
*
G54D10*
G01X100000Y100000D02*
X100003D01*
X100000Y493701D02*
X100003D01*
X100000D02*
X100003D01*
X1044882D02*
X1044885D01*
G54D50*
X772827Y263787D02*
X750008D01*
Y383063*
X772827*
Y263787*
X750307D02*
Y383063D01*
X750807Y263787D02*
Y383063D01*
X751307Y263787D02*
Y383063D01*
X751807Y263787D02*
Y383063D01*
X752307Y263787D02*
Y383063D01*
X752807Y263787D02*
Y383063D01*
X753307Y263787D02*
Y383063D01*
X753807Y263787D02*
Y383063D01*
X754307Y263787D02*
Y383063D01*
X754807Y263787D02*
Y383063D01*
X755307Y263787D02*
Y383063D01*
X755807Y263787D02*
Y383063D01*
X756307Y263787D02*
Y383063D01*
X756807Y263787D02*
Y383063D01*
X757307Y263787D02*
Y383063D01*
X757807Y263787D02*
Y383063D01*
X758307Y263787D02*
Y383063D01*
X758807Y263787D02*
Y383063D01*
X759307Y263787D02*
Y383063D01*
X759807Y263787D02*
Y383063D01*
X760307Y263787D02*
Y383063D01*
X760807Y263787D02*
Y383063D01*
X761307Y263787D02*
Y383063D01*
X761807Y263787D02*
Y383063D01*
X762307Y263787D02*
Y383063D01*
X762807Y263787D02*
Y383063D01*
X763307Y263787D02*
Y383063D01*
X763807Y263787D02*
Y383063D01*
X764307Y263787D02*
Y383063D01*
X764807Y263787D02*
Y383063D01*
X765307Y263787D02*
Y383063D01*
X765807Y263787D02*
Y383063D01*
X766307Y263787D02*
Y383063D01*
X766807Y263787D02*
Y383063D01*
X767307Y263787D02*
Y383063D01*
X767807Y263787D02*
Y383063D01*
X768307Y263787D02*
Y383063D01*
X768807Y263787D02*
Y383063D01*
X769307Y263787D02*
Y383063D01*
X769807Y263787D02*
Y383063D01*
X770307Y263787D02*
Y383063D01*
X770807Y263787D02*
Y383063D01*
X771307Y263787D02*
Y383063D01*
X771807Y263787D02*
Y383063D01*
X772307Y263787D02*
Y383063D01*
X772807Y263787D02*
Y383063D01*
X100000Y100000D02*
X1044882D01*
Y493701*
X100000*
Y100000*
X473031Y401181D02*
X475000Y403150D01*
X512402*
X514370Y401181*
Y243701*
X512402Y241732*
X475000*
X473031Y243701*
Y401181*
X40945Y100000D02*
Y290100D01*
Y100000D02*
X38445Y110000D01*
X43445*
X40945Y100000*
Y493701D02*
Y303600D01*
Y493701D02*
X43445Y483701D01*
X38445*
X40945Y493701*
X95000Y100000D02*
X35945D01*
X95000Y493701D02*
X35945D01*
X23786Y298413D02*
X24240Y298725D01*
X24922Y299663*
Y293100*
X28331Y299663D02*
X27649Y299350D01*
X27195Y298413*
X26968Y296850*
Y295913*
X27195Y294350*
X27649Y293413*
X28331Y293100*
X28786*
X29468Y293413*
X29922Y294350*
X30149Y295913*
Y296850*
X29922Y298413*
X29468Y299350*
X28786Y299663*
X28331*
X33559D02*
X32877Y299350D01*
X32422Y298413*
X32195Y296850*
Y295913*
X32422Y294350*
X32877Y293413*
X33559Y293100*
X34013*
X34695Y293413*
X35149Y294350*
X35377Y295913*
Y296850*
X35149Y298413*
X34695Y299350*
X34013Y299663*
X33559*
X37649Y293725D02*
X37422Y293413D01*
X37649Y293100*
X37877Y293413*
X37649Y293725*
X41286Y299663D02*
X40604Y299350D01*
X40149Y298413*
X39922Y296850*
Y295913*
X40149Y294350*
X40604Y293413*
X41286Y293100*
X41740*
X42422Y293413*
X42877Y294350*
X43104Y295913*
Y296850*
X42877Y298413*
X42422Y299350*
X41740Y299663*
X41286*
X45149Y297475D02*
Y293100D01*
Y296225D02*
X45831Y297163D01*
X46286Y297475*
X46968*
X47422Y297163*
X47649Y296225*
Y293100*
Y296225D02*
X48331Y297163D01*
X48786Y297475*
X49468*
X49922Y297163*
X50149Y296225*
Y293100*
X52195Y297475D02*
Y293100D01*
Y296225D02*
X52877Y297163D01*
X53331Y297475*
X54013*
X54468Y297163*
X54695Y296225*
Y293100*
Y296225D02*
X55377Y297163D01*
X55831Y297475*
X56513*
X56968Y297163*
X57195Y296225*
Y293100*
X100000Y548819D02*
X551145D01*
X100000D02*
X110000Y551319D01*
Y546319*
X100000Y548819*
X1044882D02*
X593736D01*
X1044882D02*
X1034882Y546319D01*
Y551319*
X1044882Y548819*
X100000Y498701D02*
Y553819D01*
X1044882Y498701D02*
Y553819D01*
X554373Y550069D02*
Y550381D01*
X554600Y551006*
X554827Y551319*
X555282Y551631*
X556191*
X556645Y551319*
X556873Y551006*
X557100Y550381*
Y549756*
X556873Y549131*
X556418Y548194*
X554145Y545069*
X557327*
X561645Y551631D02*
X559373Y547256D01*
X562782*
X561645Y551631D02*
Y545069D01*
X566191Y551631D02*
X565509Y551319D01*
X565055Y550381*
X564827Y548819*
Y547881*
X565055Y546319*
X565509Y545381*
X566191Y545069*
X566645*
X567327Y545381*
X567782Y546319*
X568009Y547881*
Y548819*
X567782Y550381*
X567327Y551319*
X566645Y551631*
X566191*
X570282Y545694D02*
X570055Y545381D01*
X570282Y545069*
X570509Y545381*
X570282Y545694*
X573918Y551631D02*
X573236Y551319D01*
X572782Y550381*
X572555Y548819*
Y547881*
X572782Y546319*
X573236Y545381*
X573918Y545069*
X574373*
X575055Y545381*
X575509Y546319*
X575736Y547881*
Y548819*
X575509Y550381*
X575055Y551319*
X574373Y551631*
X573918*
X577782Y549444D02*
Y545069D01*
Y548194D02*
X578464Y549131D01*
X578918Y549444*
X579600*
X580055Y549131*
X580282Y548194*
Y545069*
Y548194D02*
X580964Y549131D01*
X581418Y549444*
X582100*
X582555Y549131*
X582782Y548194*
Y545069*
X584827Y549444D02*
Y545069D01*
Y548194D02*
X585509Y549131D01*
X585964Y549444*
X586645*
X587100Y549131*
X587327Y548194*
Y545069*
Y548194D02*
X588009Y549131D01*
X588464Y549444*
X589145*
X589600Y549131*
X589827Y548194*
Y545069*
G54D61*
X382480Y260827D03*
Y252165D03*
X370669Y260827D03*
Y252165D03*
X382480Y387992D03*
Y396654D03*
X370669Y387992D03*
Y396654D03*
X399213Y261024D03*
Y269685D03*
Y387795D03*
Y379134D03*
X465157Y159449D03*
Y150787D03*
X476969Y159449D03*
Y150787D03*
G54D66*
X564567Y275197D03*
X603937D03*
X564567Y373622D03*
X603937D03*
G54D67*
X373622Y299803D03*
Y349016D03*
G54D68*
X288976Y324409D03*
G54D70*
X526768Y306933D03*
X526787Y341976D03*
X460642Y306917D03*
X460598Y341839D03*
G54D72*
X643390Y359181D03*
X643256Y287689D03*
G54D73*
X761417Y323425D03*
G54D74*
X810630Y363780D03*
Y283071D03*
G54D75*
X431496Y227953D03*
X563780D03*
X433465Y421850D03*
X565748D03*
G54D83*
X127559Y300787D03*
X117559Y290787D03*
X137559D03*
Y310787D03*
X117559D03*
X1025197Y407087D03*
X1035197Y417087D03*
X1015197D03*
Y397087D03*
X1035197D03*
G54D86*
X122638Y371728D03*
G54D87*
Y387328D03*
G54D88*
X427756Y302756D03*
X406102D03*
X427756Y346063D03*
X406102D03*
G54D89*
X430709Y248622D03*
Y270276D03*
Y400197D03*
Y378543D03*
X568504Y335236D03*
Y313583D03*
G54D97*
X546850Y163583D03*
Y136811D03*
X592126Y163583D03*
Y136811D03*
G54D98*
X192362Y393307D03*
X202362Y403307D03*
X212362Y393307D03*
X192362Y251575D03*
X202362Y261575D03*
X212362Y251575D03*
X123622Y206299D03*
G54D99*
X493701Y159150D03*
Y147150D03*
X507480Y159150D03*
Y147150D03*
G54D113*
X123622Y440551D03*
G54D114*
Y430709D03*
Y420866D03*
G54D116*
G54D130*
Y175118D03*
G54D131*
Y190709D03*
Y221890D03*
Y237480D03*
G54D132*
X897244Y174803D03*
X956299D03*
X897244Y401181D03*
X956299D03*
X970079Y251575D03*
Y310630D03*
X712205Y174803D03*
X771260D03*
G54D133*
X862795Y160807D03*
Y125807D03*
X980138Y214173D03*
X1015138D03*
X980138Y174803D03*
X1015138D03*
X865531Y438583D03*
X830531D03*
X865531Y411024D03*
X830531D03*
X983858Y417146D03*
Y452146D03*
X759665Y438583D03*
X794665D03*
X759665Y411024D03*
X794665D03*
G54D135*
X985827Y395276D03*
X177756Y300787D03*
X224016Y355906D03*
X837205Y183661D03*
X147244Y481890D03*
X119685Y332283D03*
X800787Y115748D03*
X1029134Y344094D03*
G54D136*
X119685Y119685D03*
Y474016D03*
X1025197D03*
Y119685D03*
X277165D03*
X690551D03*
Y474016D03*
X277165D03*
G54D137*
X282087Y429646D03*
Y439646D03*
G54D138*
X316535Y127559D03*
Y462205D03*
X651181D03*
Y127559D03*
G54D139*
X245472Y292913D03*
Y355906D03*
G54D140*
X493701Y324409D03*
X0Y0D02*
M02*
