*
*
G04 PADS 9.5 Build Number: 522968 generated Gerber (RS-274-X) file*
G04 PC Version=2.1*
*
%IN "RF-GEN_RF_V2.0_PCB_2019"*%
*
%MOIN*%
*
%FSLAX35Y35*%
*
*
*
*
G04 PC Standard Apertures*
*
*
G04 Thermal Relief Aperture macro.*
%AMTER*
1,1,$1,0,0*
1,0,$1-$2,0,0*
21,0,$3,$4,0,0,45*
21,0,$3,$4,0,0,135*
%
*
*
G04 Annular Aperture macro.*
%AMANN*
1,1,$1,0,0*
1,0,$2,0,0*
%
*
*
G04 Odd Aperture macro.*
%AMODD*
1,1,$1,0,0*
1,0,$1-0.005,0,0*
%
*
*
G04 PC Custom Aperture Macros*
*
*
*
*
*
*
G04 PC Aperture Table*
*
%ADD010C,0.001*%
%ADD050C,0.01*%
%ADD100C,0.008*%
%ADD101C,0.006*%
%ADD103C,0.012*%
%ADD104C,0.005*%
%ADD105C,0.007*%
%ADD106C,0.00039*%
%ADD107C,0.00787*%
%ADD108C,0.00492*%
%ADD116C,0.00004*%
%ADD128C,0.00984*%
*
*
*
*
G04 PC Circuitry*
G04 Layer Name RF-GEN_RF_V2.0_PCB_2019 - circuitry*
%LPD*%
*
*
G04 PC Custom Flashes*
G04 Layer Name RF-GEN_RF_V2.0_PCB_2019 - flashes*
%LPD*%
*
*
G04 PC Circuitry*
G04 Layer Name RF-GEN_RF_V2.0_PCB_2019 - circuitry*
%LPD*%
*
G54D10*
G01X296850Y107874D02*
Y127559D01*
X100000Y100000D02*
X100003D01*
X100000Y493701D02*
X100003D01*
X100000D02*
X100003D01*
X1044882D02*
X1044885D01*
G54D50*
X158268Y343307D02*
Y333071D01*
X167717*
Y343307*
X158268*
X148425Y347835D02*
X138189D01*
Y338386*
X148425*
Y347835*
X209449Y358661D02*
X199213D01*
Y349213*
X209449*
Y358661*
X112795Y160878D02*
Y251720D01*
X143307*
Y160878*
X112795D02*
X143307D01*
X112795Y164815D02*
X141339D01*
Y247783*
X112795*
Y160878D02*
X109843D01*
Y164815*
X112795*
X112980Y247783D02*
X110240D01*
Y251720*
X112980*
X114764Y164815D02*
Y168752D01*
X112795*
X114831Y247783D02*
Y243846D01*
X112862*
X110894Y211102D02*
Y202244D01*
X112862*
X110894Y211102D02*
X112862D01*
X111811Y356964D02*
Y401255D01*
X142323*
Y356964*
X111811D02*
X142323D01*
X111811Y359917D02*
X140354D01*
Y398302*
X111811*
Y356964D02*
X108858D01*
Y359917*
X111811*
Y398302D02*
X108858D01*
Y401255*
X111811*
X113780Y359917D02*
Y363854D01*
X111811*
X113780Y398302D02*
Y394365D01*
X111811*
X109843Y383539D02*
Y374680D01*
X111811*
X109843Y383539D02*
X111811D01*
X160461Y457720D02*
Y451220D01*
X169461*
Y457720*
X160461Y464720D02*
Y471220D01*
X169461*
Y464720*
X160461Y461220D02*
X169461D01*
X192070Y447228D02*
X191670D01*
X191870Y447628*
X192070Y447228*
X110827Y450394D02*
Y411024D01*
X130512*
Y444488*
X124606Y450394*
X110827*
X118701Y448425D02*
Y450394D01*
X114764*
Y448425*
X112795*
X118701Y412992D02*
Y411024D01*
X114764*
X112795Y448425D02*
Y412992D01*
X114764*
X118701D02*
X128543D01*
Y443504*
X123622Y448425*
X118701*
X114764Y412992D02*
Y411024D01*
X903150Y137402D02*
Y212205D01*
X950394D02*
G75*
G03X903150I-23622J-1652D01*
G01X950394D02*
Y137402D01*
X903150D02*
G03X950394I23622J1651D01*
G01X903150Y363780D02*
Y438583D01*
X950394D02*
G03X903150I-23622J-1652D01*
G01X950394D02*
Y363780D01*
X903150D02*
G03X950394I23622J1651D01*
G01X1007480Y257480D02*
X932677D01*
Y304724D02*
G03Y257480I1652J-23622D01*
G01Y304724D02*
X1007480D01*
Y257480D02*
G03Y304724I-1651J23622D01*
G01X871795Y119307D02*
X853795D01*
Y167307*
X871795*
Y119307*
X1021638Y223173D02*
Y205173D01*
X973638*
Y223173*
X1021638*
Y183803D02*
Y165803D01*
X973638*
Y183803*
X1021638*
X824031Y429583D02*
Y447583D01*
X872031*
Y429583*
X824031*
Y402024D02*
Y420024D01*
X872031*
Y402024*
X824031*
X974858Y458646D02*
X992858D01*
Y410646*
X974858*
Y458646*
X801165Y447583D02*
Y429583D01*
X753165*
Y447583*
X801165*
Y420024D02*
Y402024D01*
X753165*
Y420024*
X801165*
X718110Y137402D02*
Y212205D01*
X765354D02*
G03X718110I-23622J-1652D01*
G01X765354D02*
Y137402D01*
X718110D02*
G03X765354I23622J1651D01*
G01X166008Y233201D02*
Y242701D01*
X158008*
Y233201*
X155508*
Y243701*
X168508*
Y233201*
X166008*
X155508Y243201D02*
X168008D01*
X157508D02*
Y233201D01*
X157008Y243201D02*
Y233201D01*
X156508Y243201D02*
Y233201D01*
X156008Y243201D02*
Y233201D01*
X166508Y243201D02*
Y233201D01*
X167008Y243201D02*
Y233201D01*
X167508Y243201D02*
Y233201D01*
X168008Y243201D02*
Y233201D01*
X157024Y407744D02*
Y398244D01*
X165024*
Y407744*
X167524*
Y397244*
X154524*
Y407744*
X157024*
X167524Y397744D02*
X155024D01*
X165524D02*
Y407744D01*
X166024Y397744D02*
Y407744D01*
X166524Y397744D02*
Y407744D01*
X167024Y397744D02*
Y407744D01*
X156524Y397744D02*
Y407744D01*
X156024Y397744D02*
Y407744D01*
X155524Y397744D02*
Y407744D01*
X155024Y397744D02*
Y407744D01*
X513209Y257165D02*
Y391654D01*
X474193*
Y257165*
X513209*
X296850Y107874D02*
X414961D01*
X395276*
X422835D02*
X540945D01*
X152244Y218638D02*
X152869Y218865D01*
X153494Y219320*
X153807Y219775*
Y220684*
X153494Y221138*
X152869Y221593*
X152244Y221820*
X151307Y222047*
X149744*
X148807Y221820*
X148182Y221593*
X147557Y221138*
X147244Y220684*
Y219775*
X147557Y219320*
X148182Y218865*
X148807Y218638*
X153807Y216593D02*
X147244D01*
X153807D02*
X147244Y213411D01*
X153807D02*
X147244D01*
X153807Y210911D02*
Y208411D01*
X151307Y209775*
Y209093*
X150994Y208638*
X150682Y208411*
X149744Y208184*
X149119*
X148182Y208411*
X147557Y208865*
X147244Y209547*
Y210229*
X147557Y210911*
X147869Y211138*
X148494Y211365*
X153807Y204775D02*
X153494Y205456D01*
X152557Y205911*
X150994Y206138*
X150057*
X148494Y205911*
X147557Y205456*
X147244Y204775*
Y204320*
X147557Y203638*
X148494Y203184*
X150057Y202956*
X150994*
X152557Y203184*
X153494Y203638*
X153807Y204320*
Y204775*
Y199547D02*
X153494Y200229D01*
X152557Y200684*
X150994Y200911*
X150057*
X148494Y200684*
X147557Y200229*
X147244Y199547*
Y199093*
X147557Y198411*
X148494Y197956*
X150057Y197729*
X150994*
X152557Y197956*
X153494Y198411*
X153807Y199093*
Y199547*
X151260Y387929D02*
X151885Y388157D01*
X152510Y388611*
X152822Y389066*
Y389975*
X152510Y390429*
X151885Y390884*
X151260Y391111*
X150322Y391339*
X148760*
X147822Y391111*
X147197Y390884*
X146572Y390429*
X146260Y389975*
Y389066*
X146572Y388611*
X147197Y388157*
X147822Y387929*
X152822Y385884D02*
X146260D01*
X152822D02*
X146260Y382702D01*
X152822D02*
X146260D01*
X152822Y380202D02*
Y377702D01*
X150322Y379066*
Y378384*
X150010Y377929*
X149697Y377702*
X148760Y377475*
X148135*
X147197Y377702*
X146572Y378157*
X146260Y378839*
Y379520*
X146572Y380202*
X146885Y380429*
X147510Y380657*
X152822Y374066D02*
X152510Y374748D01*
X151572Y375202*
X150010Y375429*
X149072*
X147510Y375202*
X146572Y374748*
X146260Y374066*
Y373611*
X146572Y372929*
X147510Y372475*
X149072Y372248*
X150010*
X151572Y372475*
X152510Y372929*
X152822Y373611*
Y374066*
X151572Y370202D02*
X151885Y369748D01*
X152822Y369066*
X146260*
X139449Y442063D02*
X140074Y442291D01*
X140699Y442745*
X141011Y443200*
Y444109*
X140699Y444563*
X140074Y445018*
X139449Y445245*
X138511Y445472*
X136949*
X136011Y445245*
X135386Y445018*
X134761Y444563*
X134449Y444109*
Y443200*
X134761Y442745*
X135386Y442291*
X136011Y442063*
X141011Y440018D02*
X134449D01*
X141011D02*
X134449Y436836D01*
X141011D02*
X134449D01*
X141011Y434336D02*
Y431836D01*
X138511Y433200*
Y432518*
X138199Y432063*
X137886Y431836*
X136949Y431609*
X136324*
X135386Y431836*
X134761Y432291*
X134449Y432972*
Y433654*
X134761Y434336*
X135074Y434563*
X135699Y434791*
X141011Y428200D02*
X140699Y428882D01*
X139761Y429336*
X138199Y429563*
X137261*
X135699Y429336*
X134761Y428882*
X134449Y428200*
Y427745*
X134761Y427063*
X135699Y426609*
X137261Y426382*
X138199*
X139761Y426609*
X140699Y427063*
X141011Y427745*
Y428200*
X139449Y424109D02*
X139761D01*
X140386Y423882*
X140699Y423654*
X141011Y423200*
Y422291*
X140699Y421836*
X140386Y421609*
X139761Y421382*
X139136*
X138511Y421609*
X137574Y422063*
X134449Y424336*
Y421154*
X271964Y439338D02*
X272589Y439792D01*
X272901Y440474*
Y441383*
X272589Y442065*
X271964Y442520*
X271339*
X270714Y442292*
X270401Y442065*
X270089Y441611*
X269464Y440247*
X269151Y439792*
X268839Y439565*
X268214Y439338*
X267276*
X266651Y439792*
X266339Y440474*
Y441383*
X266651Y442065*
X267276Y442520*
X272901Y437292D02*
X266339D01*
X272901D02*
Y434338D01*
X269776Y437292D02*
Y435474D01*
X266339Y437292D02*
Y434338D01*
X272901Y432292D02*
X266339D01*
X272901D02*
X266339Y430474D01*
X272901Y428656D02*
X266339Y430474D01*
X272901Y428656D02*
X266339D01*
X271651Y426611D02*
X271964Y426156D01*
X272901Y425474*
X266339*
X673819Y449082D02*
Y442520D01*
X677001Y449082D02*
Y442520D01*
X673819Y445957D02*
X677001D01*
X682228Y448145D02*
X681773Y448770D01*
X681092Y449082*
X680183*
X679501Y448770*
X679046Y448145*
Y447520*
X679273Y446895*
X679501Y446582*
X679955Y446270*
X681319Y445645*
X681773Y445332*
X682001Y445020*
X682228Y444395*
Y443457*
X681773Y442832*
X681092Y442520*
X680183*
X679501Y442832*
X679046Y443457*
X686546Y449082D02*
X684273Y444707D01*
X687683*
X686546Y449082D02*
Y442520D01*
X100000Y100000D02*
X1044882D01*
Y493701*
X100000*
Y100000*
X473031Y401181D02*
X475000Y403150D01*
X512402*
X514370Y401181*
Y243701*
X512402Y241732*
X475000*
X473031Y243701*
Y401181*
X40945Y100000D02*
Y290100D01*
Y100000D02*
X38445Y110000D01*
X43445*
X40945Y100000*
Y493701D02*
Y303600D01*
Y493701D02*
X43445Y483701D01*
X38445*
X40945Y493701*
X95000Y100000D02*
X35945D01*
X95000Y493701D02*
X35945D01*
X23786Y298413D02*
X24240Y298725D01*
X24922Y299663*
Y293100*
X28331Y299663D02*
X27649Y299350D01*
X27195Y298413*
X26968Y296850*
Y295913*
X27195Y294350*
X27649Y293413*
X28331Y293100*
X28786*
X29468Y293413*
X29922Y294350*
X30149Y295913*
Y296850*
X29922Y298413*
X29468Y299350*
X28786Y299663*
X28331*
X33559D02*
X32877Y299350D01*
X32422Y298413*
X32195Y296850*
Y295913*
X32422Y294350*
X32877Y293413*
X33559Y293100*
X34013*
X34695Y293413*
X35149Y294350*
X35377Y295913*
Y296850*
X35149Y298413*
X34695Y299350*
X34013Y299663*
X33559*
X37649Y293725D02*
X37422Y293413D01*
X37649Y293100*
X37877Y293413*
X37649Y293725*
X41286Y299663D02*
X40604Y299350D01*
X40149Y298413*
X39922Y296850*
Y295913*
X40149Y294350*
X40604Y293413*
X41286Y293100*
X41740*
X42422Y293413*
X42877Y294350*
X43104Y295913*
Y296850*
X42877Y298413*
X42422Y299350*
X41740Y299663*
X41286*
X45149Y297475D02*
Y293100D01*
Y296225D02*
X45831Y297163D01*
X46286Y297475*
X46968*
X47422Y297163*
X47649Y296225*
Y293100*
Y296225D02*
X48331Y297163D01*
X48786Y297475*
X49468*
X49922Y297163*
X50149Y296225*
Y293100*
X52195Y297475D02*
Y293100D01*
Y296225D02*
X52877Y297163D01*
X53331Y297475*
X54013*
X54468Y297163*
X54695Y296225*
Y293100*
Y296225D02*
X55377Y297163D01*
X55831Y297475*
X56513*
X56968Y297163*
X57195Y296225*
Y293100*
X100000Y548819D02*
X551145D01*
X100000D02*
X110000Y551319D01*
Y546319*
X100000Y548819*
X1044882D02*
X593736D01*
X1044882D02*
X1034882Y546319D01*
Y551319*
X1044882Y548819*
X100000Y498701D02*
Y553819D01*
X1044882Y498701D02*
Y553819D01*
X554373Y550069D02*
Y550381D01*
X554600Y551006*
X554827Y551319*
X555282Y551631*
X556191*
X556645Y551319*
X556873Y551006*
X557100Y550381*
Y549756*
X556873Y549131*
X556418Y548194*
X554145Y545069*
X557327*
X561645Y551631D02*
X559373Y547256D01*
X562782*
X561645Y551631D02*
Y545069D01*
X566191Y551631D02*
X565509Y551319D01*
X565055Y550381*
X564827Y548819*
Y547881*
X565055Y546319*
X565509Y545381*
X566191Y545069*
X566645*
X567327Y545381*
X567782Y546319*
X568009Y547881*
Y548819*
X567782Y550381*
X567327Y551319*
X566645Y551631*
X566191*
X570282Y545694D02*
X570055Y545381D01*
X570282Y545069*
X570509Y545381*
X570282Y545694*
X573918Y551631D02*
X573236Y551319D01*
X572782Y550381*
X572555Y548819*
Y547881*
X572782Y546319*
X573236Y545381*
X573918Y545069*
X574373*
X575055Y545381*
X575509Y546319*
X575736Y547881*
Y548819*
X575509Y550381*
X575055Y551319*
X574373Y551631*
X573918*
X577782Y549444D02*
Y545069D01*
Y548194D02*
X578464Y549131D01*
X578918Y549444*
X579600*
X580055Y549131*
X580282Y548194*
Y545069*
Y548194D02*
X580964Y549131D01*
X581418Y549444*
X582100*
X582555Y549131*
X582782Y548194*
Y545069*
X584827Y549444D02*
Y545069D01*
Y548194D02*
X585509Y549131D01*
X585964Y549444*
X586645*
X587100Y549131*
X587327Y548194*
Y545069*
Y548194D02*
X588009Y549131D01*
X588464Y549444*
X589145*
X589600Y549131*
X589827Y548194*
Y545069*
G54D100*
X181693Y352362D02*
Y355512D01*
X190551Y350394D02*
X174803D01*
Y357480*
X190551*
Y350394*
X183661Y352362D02*
Y355512D01*
X164567Y317520D02*
X161417D01*
X166535Y326378D02*
Y310630D01*
X159449*
Y326378*
X166535*
X164567Y319488D02*
X161417D01*
Y359843D02*
X164567D01*
X159449Y350984D02*
Y366732D01*
X166535*
Y350984*
X159449*
X161417Y357874D02*
X164567D01*
X156496Y300787D02*
X159646D01*
X158071Y302362D02*
Y299213D01*
X150197Y304331D02*
X165945D01*
Y297244*
X150197*
Y304331*
X153150Y285433D02*
Y288583D01*
X151575Y287008D02*
X154724D01*
X149606Y279134D02*
Y294882D01*
X156693*
Y279134*
X149606*
X162992Y285433D02*
Y288583D01*
X161417Y287008D02*
X164567D01*
X159449Y279134D02*
Y294882D01*
X166535*
Y279134*
X159449*
X257480Y390945D02*
Y387795D01*
X259055Y389370D02*
X255906D01*
X261024Y397244D02*
Y381496D01*
X253937*
Y397244*
X261024*
X245669Y387795D02*
Y390945D01*
X244094Y389370D02*
X247244D01*
X242126Y381496D02*
Y397244D01*
X249213*
Y381496*
X242126*
X245669Y257087D02*
Y253937D01*
X247244Y255512D02*
X244094D01*
X249213Y263386D02*
Y247638D01*
X242126*
Y263386*
X249213*
X257480Y253937D02*
Y257087D01*
X255906Y255512D02*
X259055D01*
X253937Y247638D02*
Y263386D01*
X261024*
Y247638*
X253937*
X226378Y393307D02*
G03X226378I-24016J0D01*
G01X207362D02*
G03X207362I-5000J0D01*
G01X226378Y251575D02*
G03X226378I-24016J0D01*
G01X207362D02*
G03X207362I-5000J0D01*
G01X219094Y467717D02*
Y464567D01*
X220669Y466142D02*
X217520D01*
X222638Y474016D02*
Y458268D01*
X215551*
Y474016*
X222638*
X211220Y436220D02*
Y433071D01*
X212795Y434646D02*
X209646D01*
X214764Y442520D02*
Y426772D01*
X207677*
Y442520*
X214764*
X191535Y436220D02*
Y433071D01*
X193110Y434646D02*
X189961D01*
X195079Y442520D02*
Y426772D01*
X187992*
Y442520*
X195079*
X181693Y433071D02*
Y436220D01*
X180118Y434646D02*
X183268D01*
X178150Y426772D02*
Y442520D01*
X185236*
Y426772*
X178150*
X202953Y433661D02*
X199803D01*
X204921Y442520D02*
Y426772D01*
X197835*
Y442520*
X204921*
X202953Y435630D02*
X199803D01*
X170276D02*
X173425D01*
X168307Y426772D02*
Y442520D01*
X175394*
Y426772*
X168307*
X170276Y433661D02*
X173425D01*
X154724Y460236D02*
X151575D01*
X156693Y469094D02*
Y453346D01*
X149606*
Y469094*
X156693*
X154724Y462205D02*
X151575D01*
X175197D02*
X178346D01*
X173228Y453346D02*
Y469094D01*
X180315*
Y453346*
X173228*
X175197Y460236D02*
X178346D01*
X866295Y145307D02*
X859295D01*
X866295Y141307D02*
X859295D01*
X862795D02*
Y130807D01*
Y145307D02*
Y155807D01*
X995638Y217673D02*
Y210673D01*
X999638Y217673D02*
Y210673D01*
Y214173D02*
X1010138D01*
X995638D02*
X985138D01*
X995638Y178303D02*
Y171303D01*
X999638Y178303D02*
Y171303D01*
Y174803D02*
X1010138D01*
X995638D02*
X985138D01*
X850031Y435083D02*
Y442083D01*
X846031Y435083D02*
Y442083D01*
Y438583D02*
X835531D01*
X850031D02*
X860531D01*
X850031Y407524D02*
Y414524D01*
X846031Y407524D02*
Y414524D01*
Y411024D02*
X835531D01*
X850031D02*
X860531D01*
X980358Y432646D02*
X987358D01*
X980358Y436646D02*
X987358D01*
X983858D02*
Y447146D01*
Y432646D02*
Y422146D01*
X775165Y442083D02*
Y435083D01*
X779165Y442083D02*
Y435083D01*
Y438583D02*
X789665D01*
X775165D02*
X764665D01*
X775165Y414524D02*
Y407524D01*
X779165Y414524D02*
Y407524D01*
Y411024D02*
X789665D01*
X775165D02*
X764665D01*
X157508Y253937D02*
X156102D01*
X153346Y251201*
X153347Y233101*
X157008*
X166508Y253937D02*
X167913D01*
X170669Y251201*
Y233101*
X167008*
X165524Y387008D02*
X166929D01*
X169685Y389744*
Y407844*
X166024*
X156524Y387008D02*
X155118D01*
X152362Y389744*
X152363Y407844*
X156024*
X990157Y395276D02*
G03X990157I-4330J0D01*
G01X182087Y300787D02*
G03X182087I-4331J0D01*
G01X228346Y355906D02*
G03X228346I-4330J0D01*
G01X841535Y183661D02*
G03X841535I-4330J0D01*
G01X151575Y481890D02*
G03X151575I-4331J0D01*
G01X124016Y332283D02*
G03X124016I-4331J0D01*
G01X805118Y115748D02*
G03X805118I-4331J0D01*
G01X1033465Y344094D02*
G03X1033465I-4331J0D01*
G01X289087Y423146D02*
Y446146D01*
X276587*
Y423146*
X289087*
X288387Y446146D02*
Y423146D01*
X287687Y446146D02*
Y423146D01*
G54D101*
X191870Y448528D02*
X191170Y446828D01*
X192570*
X191870Y448528*
X166008Y237201D02*
G03Y249701I-2875J6250D01*
G01X158008D02*
G03Y237201I2875J-6250D01*
G01X157024Y403744D02*
G03Y391244I2874J-6250D01*
G01X165024D02*
G03Y403744I-2875J6250D01*
G01X152242Y260480D02*
X152106Y260855D01*
X151833Y261230*
X151560Y261418*
X151015*
X150742Y261230*
X150470Y260855*
X150333Y260480*
X150197Y259918*
Y258980*
X150333Y258418*
X150470Y258043*
X150742Y257668*
X151015Y257480*
X151560*
X151833Y257668*
X152106Y258043*
X152242Y258418*
X153606Y260480D02*
Y260668D01*
X153742Y261043*
X153879Y261230*
X154151Y261418*
X154697*
X154970Y261230*
X155106Y261043*
X155242Y260668*
Y260293*
X155106Y259918*
X154833Y259355*
X153470Y257480*
X155379*
X158515Y261418D02*
X157151Y257480D01*
X156606Y261418D02*
X158515D01*
X149290Y414024D02*
X149153Y414399D01*
X148880Y414774*
X148608Y414961*
X148062*
X147790Y414774*
X147517Y414399*
X147380Y414024*
X147244Y413461*
Y412524*
X147380Y411961*
X147517Y411586*
X147790Y411211*
X148062Y411024*
X148608*
X148880Y411211*
X149153Y411586*
X149290Y411961*
X150790Y414961D02*
X152290D01*
X151471Y413461*
X151880*
X152153Y413274*
X152290Y413086*
X152426Y412524*
Y412149*
X152290Y411586*
X152017Y411211*
X151608Y411024*
X151199*
X150790Y411211*
X150653Y411399*
X150517Y411774*
X155426Y414961D02*
X154062D01*
X153926Y413274*
X154062Y413461*
X154471Y413649*
X154880*
X155290Y413461*
X155562Y413086*
X155699Y412524*
X155562Y412149*
X155426Y411586*
X155153Y411211*
X154744Y411024*
X154335*
X153926Y411211*
X153790Y411399*
X153653Y411774*
G54D103*
X188909Y460835D02*
X209909D01*
X188909Y459851D02*
X209909D01*
G54D104*
X193070Y446528D02*
X190670D01*
X191870Y449328*
X193070Y446528*
X198425Y364108D02*
Y360827D01*
X199789*
X200812Y363483D02*
X201039Y363639D01*
X201380Y364108*
Y360827*
X202516Y363327D02*
Y363483D01*
X202630Y363796*
X202743Y363952*
X202971Y364108*
X203425*
X203652Y363952*
X203766Y363796*
X203880Y363483*
Y363171*
X203766Y362858*
X203539Y362389*
X202402Y360827*
X203993*
X177756Y419882D02*
X178847Y415945D01*
X179938Y419882D02*
X178847Y415945D01*
X181165Y419882D02*
Y415945D01*
Y419882D02*
X182392D01*
X182801Y419695*
X182938Y419507*
X183074Y419132*
Y418757*
X182938Y418382*
X182801Y418195*
X182392Y418007*
X181165*
X182120D02*
X183074Y415945D01*
X184438Y418945D02*
Y419132D01*
X184574Y419507*
X184710Y419695*
X184983Y419882*
X185529*
X185801Y419695*
X185938Y419507*
X186074Y419132*
Y418757*
X185938Y418382*
X185665Y417820*
X184301Y415945*
X186210*
X175787Y276182D02*
X176878Y272244D01*
X177969Y276182D02*
X176878Y272244D01*
X179196Y276182D02*
Y272244D01*
Y276182D02*
X180424D01*
X180833Y275994*
X180969Y275807*
X181106Y275432*
Y275057*
X180969Y274682*
X180833Y274494*
X180424Y274307*
X179196*
X180151D02*
X181106Y272244D01*
X182606Y276182D02*
X184106D01*
X183287Y274682*
X183696*
X183969Y274494*
X184106Y274307*
X184242Y273744*
Y273369*
X184106Y272807*
X183833Y272432*
X183424Y272244*
X183015*
X182606Y272432*
X182469Y272619*
X182333Y272994*
X183661Y455315D02*
Y452503D01*
X183798Y451940*
X184071Y451565*
X184480Y451378*
X184752*
X185161Y451565*
X185434Y451940*
X185571Y452503*
Y455315*
X186798Y454565D02*
X187071Y454753D01*
X187480Y455315*
Y451378*
X982874Y388714D02*
Y385433D01*
Y388714D02*
X983897D01*
X984238Y388558*
X984351Y388402*
X984465Y388089*
Y387777*
X984351Y387464*
X984238Y387308*
X983897Y387152*
X982874*
X983669D02*
X984465Y385433D01*
X985488Y388714D02*
Y385433D01*
Y388714D02*
X986965D01*
X985488Y387152D02*
X986397D01*
X988669Y388714D02*
X988442Y388558D01*
X988215Y388246*
X988101Y387933*
X987988Y387464*
Y386683*
X988101Y386214*
X988215Y385902*
X988442Y385589*
X988669Y385433*
X989124*
X989351Y385589*
X989579Y385902*
X989692Y386214*
X989806Y386683*
Y387464*
X989692Y387933*
X989579Y388246*
X989351Y388558*
X989124Y388714*
X988669*
X174803Y294226D02*
Y290945D01*
Y294226D02*
X175826D01*
X176167Y294070*
X176280Y293914*
X176394Y293601*
Y293289*
X176280Y292976*
X176167Y292820*
X175826Y292664*
X174803*
X175599D02*
X176394Y290945D01*
X177417Y294226D02*
Y290945D01*
Y294226D02*
X178894D01*
X177417Y292664D02*
X178326D01*
X179917Y294226D02*
Y290945D01*
X180940Y294226D02*
Y290945D01*
Y294226D02*
X182530Y290945D01*
Y294226D02*
Y290945D01*
X221063Y349344D02*
Y346063D01*
Y349344D02*
X222086D01*
X222427Y349188*
X222540Y349032*
X222654Y348719*
Y348407*
X222540Y348094*
X222427Y347938*
X222086Y347782*
X221063*
X221858D02*
X222654Y346063D01*
X223677Y349344D02*
Y346063D01*
Y349344D02*
X225154D01*
X223677Y347782D02*
X224586D01*
X226177Y349344D02*
Y346063D01*
X227199Y349344D02*
Y346063D01*
Y349344D02*
X228790Y346063D01*
Y349344D02*
Y346063D01*
X229927Y348563D02*
Y348719D01*
X230040Y349032*
X230154Y349188*
X230381Y349344*
X230836*
X231063Y349188*
X231177Y349032*
X231290Y348719*
Y348407*
X231177Y348094*
X230949Y347625*
X229813Y346063*
X231404*
X834252Y177100D02*
Y173819D01*
Y177100D02*
X835275D01*
X835616Y176944*
X835729Y176788*
X835843Y176475*
Y176163*
X835729Y175850*
X835616Y175694*
X835275Y175538*
X834252*
X835047D02*
X835843Y173819D01*
X836866Y177100D02*
Y173819D01*
Y177100D02*
X838343D01*
X836866Y175538D02*
X837775D01*
X839366Y177100D02*
Y173819D01*
X840388Y177100D02*
Y173819D01*
Y177100D02*
X841866D01*
X840388Y175538D02*
X841297D01*
X154272Y481960D02*
X154158Y482272D01*
X153931Y482585*
X153704Y482741*
X153249*
X153022Y482585*
X152795Y482272*
X152681Y481960*
X152567Y481491*
Y480710*
X152681Y480241*
X152795Y479929*
X153022Y479616*
X153249Y479460*
X153704*
X153931Y479616*
X154158Y479929*
X154272Y480241*
Y480710*
X153704D02*
X154272D01*
X155295Y482741D02*
Y479460D01*
Y482741D02*
X156885Y479460D01*
Y482741D02*
Y479460D01*
X157908Y482741D02*
Y479460D01*
Y482741D02*
X158704D01*
X159045Y482585*
X159272Y482272*
X159385Y481960*
X159499Y481491*
Y480710*
X159385Y480241*
X159272Y479929*
X159045Y479616*
X158704Y479460*
X157908*
X160522Y482116D02*
X160749Y482272D01*
X161090Y482741*
Y479460*
X115484Y324941D02*
X115370Y325253D01*
X115143Y325566*
X114916Y325722*
X114461*
X114234Y325566*
X114007Y325253*
X113893Y324941*
X113780Y324472*
Y323691*
X113893Y323222*
X114007Y322910*
X114234Y322597*
X114461Y322441*
X114916*
X115143Y322597*
X115370Y322910*
X115484Y323222*
Y323691*
X114916D02*
X115484D01*
X116507Y325722D02*
Y322441D01*
Y325722D02*
X118098Y322441D01*
Y325722D02*
Y322441D01*
X119120Y325722D02*
Y322441D01*
Y325722D02*
X119916D01*
X120257Y325566*
X120484Y325253*
X120598Y324941*
X120711Y324472*
Y323691*
X120598Y323222*
X120484Y322910*
X120257Y322597*
X119916Y322441*
X119120*
X121848Y324941D02*
Y325097D01*
X121961Y325410*
X122075Y325566*
X122302Y325722*
X122757*
X122984Y325566*
X123098Y325410*
X123211Y325097*
Y324785*
X123098Y324472*
X122870Y324003*
X121734Y322441*
X123325*
X796586Y108406D02*
X796473Y108718D01*
X796246Y109031*
X796018Y109187*
X795564*
X795336Y109031*
X795109Y108718*
X794996Y108406*
X794882Y107937*
Y107156*
X794996Y106687*
X795109Y106374*
X795336Y106062*
X795564Y105906*
X796018*
X796246Y106062*
X796473Y106374*
X796586Y106687*
Y107156*
X796018D02*
X796586D01*
X797609Y109187D02*
Y105906D01*
Y109187D02*
X799200Y105906D01*
Y109187D02*
Y105906D01*
X800223Y109187D02*
Y105906D01*
Y109187D02*
X801018D01*
X801359Y109031*
X801586Y108718*
X801700Y108406*
X801814Y107937*
Y107156*
X801700Y106687*
X801586Y106374*
X801359Y106062*
X801018Y105906*
X800223*
X803064Y109187D02*
X804314D01*
X803632Y107937*
X803973*
X804200Y107781*
X804314Y107624*
X804427Y107156*
Y106843*
X804314Y106374*
X804086Y106062*
X803746Y105906*
X803405*
X803064Y106062*
X802950Y106218*
X802836Y106531*
X1024933Y336752D02*
X1024819Y337064D01*
X1024592Y337377*
X1024365Y337533*
X1023910*
X1023683Y337377*
X1023456Y337064*
X1023342Y336752*
X1023228Y336283*
Y335502*
X1023342Y335033*
X1023456Y334721*
X1023683Y334408*
X1023910Y334252*
X1024365*
X1024592Y334408*
X1024819Y334721*
X1024933Y335033*
Y335502*
X1024365D02*
X1024933D01*
X1025956Y337533D02*
Y334252D01*
Y337533D02*
X1027547Y334252D01*
Y337533D02*
Y334252D01*
X1028569Y337533D02*
Y334252D01*
Y337533D02*
X1029365D01*
X1029706Y337377*
X1029933Y337064*
X1030047Y336752*
X1030160Y336283*
Y335502*
X1030047Y335033*
X1029933Y334721*
X1029706Y334408*
X1029365Y334252*
X1028569*
X1032319Y337533D02*
X1031183Y335346D01*
X1032887*
X1032319Y337533D02*
Y334252D01*
X119685Y122966D02*
Y119685D01*
X121276Y122966D02*
Y119685D01*
X119685Y121404D02*
X121276D01*
X122299Y122341D02*
X122526Y122498D01*
X122867Y122966*
Y119685*
X119685Y477297D02*
Y474016D01*
X121276Y477297D02*
Y474016D01*
X119685Y475734D02*
X121276D01*
X122412Y476516D02*
Y476672D01*
X122526Y476984*
X122526D02*
X122640Y477141D01*
X122867Y477297*
X123321*
X123549Y477141*
X123662Y476984*
X123662D02*
X123776Y476672D01*
Y476359*
X123776D02*
X123662Y476047D01*
X123435Y475578*
X122299Y474016*
X123890*
X1025197Y477297D02*
Y474016D01*
X1026788Y477297D02*
Y474016D01*
X1025197Y475734D02*
X1026788D01*
X1028038Y477297D02*
X1029288D01*
X1028606Y476047*
X1028947*
X1029174Y475891*
X1029288Y475734*
X1029288D02*
X1029401Y475266D01*
Y474953*
X1029288Y474484*
X1029288D02*
X1029060Y474172D01*
X1028720Y474016*
X1028379*
X1028038Y474172*
X1027924Y474328*
X1027810Y474641*
X1025197Y122966D02*
Y119685D01*
X1026788Y122966D02*
Y119685D01*
X1025197Y121404D02*
X1026788D01*
X1028947Y122966D02*
X1027810Y120779D01*
X1029515*
X1028947Y122966D02*
Y119685D01*
X277165Y122966D02*
Y119685D01*
X278756Y122966D02*
Y119685D01*
X277165Y121404D02*
X278756D01*
X281256Y122966D02*
X280120D01*
X280006Y121560*
X280120Y121716*
X280461Y121873*
X280802*
X281143Y121716*
X281370Y121404*
X281484Y120935*
X281370Y120623*
X281256Y120154*
X281029Y119841*
X280688Y119685*
X280347*
X280006Y119841*
X279893Y119998*
X279779Y120310*
X690551Y122966D02*
Y119685D01*
X692142Y122966D02*
Y119685D01*
X690551Y121404D02*
X692142D01*
X694528Y122498D02*
X694415Y122810D01*
X694074Y122966*
X693847*
X693506Y122810*
X693278Y122341*
X693165Y121560*
Y120779*
X693278Y120154*
X693506Y119841*
X693847Y119685*
X693960*
X694301Y119841*
X694528Y120154*
X694642Y120623*
Y120779*
X694528Y121248*
X694301Y121560*
X693960Y121716*
X693847*
X693506Y121560*
X693278Y121248*
X693165Y120779*
X690551Y477297D02*
Y474016D01*
X692142Y477297D02*
Y474016D01*
X690551Y475734D02*
X692142D01*
X694756Y477297D02*
X693619Y474016D01*
X693165Y477297D02*
X694756D01*
X277165D02*
Y474016D01*
X278756Y477297D02*
Y474016D01*
X277165Y475734D02*
X278756D01*
X280347Y477297D02*
X280006Y477141D01*
X279893Y476828*
Y476516*
X280006Y476203*
X280234Y476047*
X280688Y475891*
X281029Y475734*
X281029D02*
X281256Y475422D01*
X281370Y475109*
X281370D02*
Y474641D01*
X281256Y474328*
X281143Y474172*
X280802Y474016*
X280347*
X280006Y474172*
X279893Y474328*
X279779Y474641*
Y475109*
X279779D02*
X279893Y475422D01*
X280120Y475734*
X280120D02*
X280461Y475891D01*
X280915Y476047*
X281143Y476203*
X281256Y476516*
Y476828*
X281143Y477141*
X280802Y477297*
X280347*
G54D105*
X188409Y459142D02*
X210409D01*
Y473142*
X188409*
Y467642*
X190409*
Y464642*
X188409*
Y459142*
X161024Y476969D02*
Y473031D01*
Y476969D02*
X162251D01*
X162660Y476781*
X162796Y476594*
X162933Y476219*
Y475844*
X162796Y475469*
X162660Y475281*
X162251Y475094*
X161024D02*
X162251D01*
X162660Y474906*
X162796Y474719*
X162933Y474344*
Y473781*
X162796Y473406*
X162660Y473219*
X162251Y473031*
X161024*
X164160Y476969D02*
Y473031D01*
Y476969D02*
X165115D01*
X165524Y476781*
X165796Y476406*
X165933Y476031*
X166069Y475469*
Y474531*
X165933Y473969*
X165796Y473594*
X165524Y473219*
X165115Y473031*
X164160*
X167296Y476219D02*
X167569Y476406D01*
X167978Y476969*
Y473031*
G54D106*
X139370Y312598D02*
X115748D01*
Y288976*
X139370*
Y312598*
X115748Y292126D02*
X112598D01*
Y309449*
X115748*
Y292126*
X112598Y295276D02*
X86614D01*
Y306299*
X112598*
Y295276*
X1013386Y395276D02*
X1037008D01*
Y418898*
X1013386*
Y395276*
X1037008Y415748D02*
X1040157D01*
Y398425*
X1037008*
Y415748*
X1040157Y412598D02*
X1066142D01*
Y401575*
X1040157*
Y412598*
G54D107*
X161404Y337432D02*
G03Y339008I1500J788D01*
G01X164567Y336221D02*
G03X161417Y337795I-1640J656D01*
G01X142550Y344699D02*
G03X144126I788J-1501D01*
G01X141339Y341535D02*
G03X142913Y344685I656J1641D01*
G01X203574Y355526D02*
G03X205150I788J-1501D01*
G01X202362Y352362D02*
G03X203936Y355512I656J1641D01*
G54D108*
G01X176481Y361319D02*
X176369Y361626D01*
X176145Y361934*
X175922Y362088*
X175474*
X175251Y361934*
X175027Y361626*
X174915Y361319*
X174803Y360858*
Y360089*
X174915Y359627*
X175027Y359320*
X175251Y359012*
X175474Y358858*
X175922*
X176145Y359012*
X176369Y359320*
X176481Y359627*
X177711Y362088D02*
X178941D01*
X178270Y360858*
X178606*
X178830Y360704*
X178941Y360550*
X179053Y360089*
Y359781*
X178941Y359320*
X178718Y359012*
X178382Y358858*
X178047*
X177711Y359012*
X177599Y359166*
X177487Y359473*
X181178Y362088D02*
X180060Y359935D01*
X181738*
X181178Y362088D02*
Y358858D01*
X170374Y324700D02*
X170682Y324812D01*
X170989Y325036*
X171143Y325259*
Y325707*
X170989Y325931*
X170682Y326154*
X170374Y326266*
X169913Y326378*
X169144*
X168682Y326266*
X168375Y326154*
X168067Y325931*
X167913Y325707*
Y325259*
X168067Y325036*
X168375Y324812*
X168682Y324700*
X170682Y322351D02*
X170989Y322463D01*
X171143Y322799*
Y323023*
X170989Y323358*
X170528Y323582*
X169759Y323694*
X168990*
X168375Y323582*
X168067Y323358*
X167913Y323023*
Y322911*
X168067Y322575*
X168375Y322351*
X168836Y322240*
X168990*
X169451Y322351*
X169759Y322575*
X169913Y322911*
Y323023*
X169759Y323358*
X169451Y323582*
X168990Y323694*
X170374Y364070D02*
X170682Y364182D01*
X170989Y364406*
X171143Y364630*
Y365077*
X170989Y365301*
X170682Y365524*
X170374Y365636*
X169913Y365748*
X169144*
X168682Y365636*
X168375Y365524*
X168067Y365301*
X167913Y365077*
Y364630*
X168067Y364406*
X168375Y364182*
X168682Y364070*
X171143Y361498D02*
X167913Y362616D01*
X171143Y363064D02*
Y361498D01*
X150197Y308938D02*
Y305709D01*
Y308938D02*
X151203D01*
X151539Y308784*
X151651Y308631*
X151763Y308323*
Y308016*
X151763D02*
X151651Y307708D01*
X151539Y307554*
X151203Y307400*
X150197*
X150980D02*
X151763Y305709D01*
X152881Y308169D02*
Y308323D01*
X152993Y308631*
X153105Y308784*
X153329Y308938*
X153776*
X154000Y308784*
X154111Y308631*
X154223Y308323*
Y308016*
X154223D02*
X154111Y307708D01*
X153888Y307247*
X152769Y305709*
X154335*
X156013Y308938D02*
X155677Y308784D01*
X155454Y308323*
X155342Y307554*
Y307093*
X155454Y306324*
X155677Y305862*
X156013Y305709*
X156237*
X156572Y305862*
X156796Y306324*
X156908Y307093*
Y307554*
X156796Y308323*
X156572Y308784*
X156237Y308938*
X156013*
X150197Y270552D02*
Y267323D01*
Y270552D02*
X151203D01*
X151539Y270399*
X151651Y270245*
X151763Y269937*
Y269630*
X151651Y269322*
X151539Y269168*
X151203Y269015*
X150197*
X150980D02*
X151763Y267323D01*
X152881Y269783D02*
Y269937D01*
X152993Y270245*
X153105Y270399*
X153329Y270552*
X153776*
X154000Y270399*
X154111Y270245*
X154223Y269937*
Y269630*
X154111Y269322*
X153888Y268861*
X152769Y267323*
X154335*
X155342Y269937D02*
X155566Y270091D01*
X155566D02*
X155901Y270552D01*
Y267323*
X160039Y270552D02*
Y267323D01*
Y270552D02*
X161046D01*
X161382Y270399*
X161493Y270245*
X161605Y269937*
Y269630*
X161493Y269322*
X161382Y269168*
X161046Y269015*
X160039*
X160822D02*
X161605Y267323D01*
X162724Y269783D02*
Y269937D01*
X162836Y270245*
X162947Y270399*
X163171Y270552*
X163618*
X163842Y270399*
X163954Y270245*
X164066Y269937*
Y269630*
X163954Y269322*
X163730Y268861*
X162612Y267323*
X164178*
X165296Y269783D02*
Y269937D01*
X165408Y270245*
X165520Y270399*
X165744Y270552*
X166191*
X166415Y270399*
X166526Y270245*
X166638Y269937*
Y269630*
X166526Y269322*
X166303Y268861*
X165184Y267323*
X166750*
X254528Y378820D02*
Y375591D01*
Y378820D02*
X255534D01*
X255870Y378666*
X255982Y378513*
X256093Y378205*
Y377897*
X255982Y377590*
X255870Y377436*
X255534Y377282*
X254528*
X255310D02*
X256093Y375591D01*
X257212Y378051D02*
Y378205D01*
X257324Y378513*
X257436Y378666*
X257659Y378820*
X258107*
X258330Y378666*
X258442Y378513*
X258554Y378205*
Y377897*
X258442Y377590*
X258219Y377128*
X257100Y375591*
X258666*
X260791Y378820D02*
X259673Y376667D01*
X261350*
X260791Y378820D02*
Y375591D01*
X242717Y378820D02*
Y375591D01*
Y378820D02*
X243723D01*
X244059Y378666*
X244171Y378513*
X244282Y378205*
Y377897*
X244171Y377590*
X244059Y377436*
X243723Y377282*
X242717*
X243499D02*
X244282Y375591D01*
X245401Y378051D02*
Y378205D01*
X245513Y378513*
X245625Y378666*
X245848Y378820*
X246296*
X246519Y378666*
X246631Y378513*
X246743Y378205*
Y377897*
X246631Y377590*
X246407Y377128*
X245289Y375591*
X246855*
X249427Y378820D02*
X248309Y375591D01*
X247861Y378820D02*
X249427D01*
X244685Y268584D02*
Y265354D01*
Y268584D02*
X245692D01*
X246027Y268430*
X246139Y268276*
X246251Y267969*
Y267661*
X246139Y267354*
X246027Y267200*
X245692Y267046*
X244685*
X245468D02*
X246251Y265354D01*
X248600Y268123D02*
X248488Y268430D01*
X248152Y268584*
X247929*
X247593Y268430*
X247369Y267969*
X247258Y267200*
Y266431*
X247369Y265816*
X247593Y265508*
X247929Y265354*
X248040*
X248376Y265508*
X248600Y265816*
X248712Y266277*
Y266431*
X248600Y266892*
X248376Y267200*
X248040Y267354*
X247929*
X247593Y267200*
X247369Y266892*
X247258Y266431*
X255512Y268584D02*
Y265354D01*
Y268584D02*
X256518D01*
X256854Y268430*
X256966Y268276*
X257078Y267969*
Y267661*
X256966Y267354*
X256854Y267200*
X256518Y267046*
X255512*
X256295D02*
X257078Y265354D01*
X259650Y268584D02*
X258532Y265354D01*
X258084Y268584D02*
X259650D01*
X127380Y321703D02*
Y317766D01*
X127201Y317028*
X127022Y316781*
X126664Y316535*
X126306*
X125948Y316781*
X125770Y317028*
X125591Y317766*
Y318258*
X129349Y321703D02*
X131317D01*
X130243Y319734*
X130780*
X131138Y319488*
X131317Y319242*
X131496Y318504*
Y318012*
X131317Y317274*
X130959Y316781*
X130422Y316535*
X129885*
X129349Y316781*
X129170Y317028*
X128991Y317520*
X1023049Y388632D02*
Y384695D01*
X1022870Y383957*
X1022691Y383711*
X1022334Y383465*
X1021976*
X1021618Y383711*
X1021439Y383957*
X1021260Y384695*
Y385187*
X1024839Y387402D02*
Y387648D01*
X1025018Y388140*
X1025197Y388386*
X1025555Y388632*
X1026271*
X1026628Y388386*
X1026807Y388140*
X1026986Y387648*
Y387156*
X1026807Y386663*
X1026450Y385925*
X1024660Y383465*
X1027165*
X173111Y344094D02*
X169882D01*
Y342752*
X172496Y341746D02*
X172650Y341522D01*
X173111Y341186*
X169882*
X172496Y340180D02*
X172650Y339956D01*
X173111Y339621*
X169882*
X137402Y353230D02*
Y350000D01*
X138744*
X139974Y353230D02*
X141204D01*
X140533Y351999*
X140869*
X141093Y351845*
X141204Y351692*
X141316Y351230*
Y350923*
X141204Y350461*
X140981Y350154*
X140645Y350000*
X140310*
X139974Y350154*
X139862Y350308*
X139750Y350615*
X217126Y479214D02*
Y475984D01*
Y479214D02*
X218133D01*
X218468Y479060*
X218580Y478906*
X218692Y478599*
Y478291*
X218580Y477984*
X218468Y477830*
X218133Y477676*
X217126*
X217909D02*
X218692Y475984D01*
X219698Y478599D02*
X219922Y478752D01*
X220258Y479214*
Y475984*
X209252Y447718D02*
Y444488D01*
Y447718D02*
X210259D01*
X210594Y447564*
X210706Y447410*
X210818Y447103*
Y446795*
X210706Y446487*
X210594Y446334*
X210259Y446180*
X209252*
X210035D02*
X210818Y444488D01*
X211936Y446949D02*
Y447103D01*
X212048Y447410*
X212160Y447564*
X212384Y447718*
X212831*
X213055Y447564*
X213167Y447410*
X213278Y447103*
Y446795*
X213167Y446487*
X212943Y446026*
X211824Y444488*
X213390*
X189567Y425080D02*
Y421850D01*
Y425080D02*
X190574D01*
X190909Y424926*
X191021Y424772*
X191133Y424465*
Y424157*
X191021Y423850*
X190909Y423696*
X190574Y423542*
X189567*
X190350D02*
X191133Y421850D01*
X192363Y425080D02*
X193593D01*
X192922Y423850*
X193258*
X193482Y423696*
X193593Y423542*
X193705Y423081*
Y422773*
X193593Y422312*
X193370Y422004*
X193034Y421850*
X192699*
X192363Y422004*
X192251Y422158*
X192139Y422466*
X178740Y425080D02*
Y421850D01*
Y425080D02*
X179747D01*
X180082Y424926*
X180194Y424772*
X180306Y424465*
Y424157*
X180194Y423850*
X180082Y423696*
X179747Y423542*
X178740*
X179523D02*
X180306Y421850D01*
X182431Y425080D02*
X181313Y422927D01*
X182990*
X182431Y425080D02*
Y421850D01*
X201087Y446949D02*
X200975Y447256D01*
X200752Y447564*
X200528Y447718*
X200081*
X199857Y447564*
X199633Y447256*
X199521Y446949*
X199409Y446487*
Y445719*
X199521Y445257*
X199633Y444950*
X199857Y444642*
X200081Y444488*
X200528*
X200752Y444642*
X200975Y444950*
X201087Y445257*
X202094Y447103D02*
X202317Y447256D01*
X202653Y447718*
Y444488*
X171560Y424311D02*
X171448Y424619D01*
X171224Y424926*
X171000Y425080*
X170553*
X170329Y424926*
X170106Y424619*
X169994Y424311*
X169882Y423850*
Y423081*
X169994Y422619*
X170106Y422312*
X170329Y422004*
X170553Y421850*
X171000*
X171224Y422004*
X171448Y422312*
X171560Y422619*
X172678Y424311D02*
Y424465D01*
X172790Y424772*
X172902Y424926*
X173125Y425080*
X173573*
X173797Y424926*
X173908Y424772*
X174020Y424465*
Y424157*
X173908Y423850*
X173685Y423388*
X172566Y421850*
X174132*
X151875Y450886D02*
X151763Y451193D01*
X151539Y451501*
X151315Y451655*
X150868*
X150644Y451501*
X150421Y451193*
X150309Y450886*
X150197Y450424*
Y449656*
X150309Y449194*
X150421Y448887*
X150644Y448579*
X150868Y448425*
X151315*
X151539Y448579*
X151763Y448887*
X151875Y449194*
X153105Y451655D02*
X154335D01*
X153664Y450424*
X154000*
X154223Y450271*
X154335Y450117*
X154447Y449656*
Y449348*
X154335Y448887*
X154111Y448579*
X153776Y448425*
X153440*
X153105Y448579*
X152993Y448733*
X152881Y449040*
X176481Y473524D02*
X176369Y473831D01*
X176145Y474139*
X175922Y474293*
X175474*
X175251Y474139*
X175027Y473831*
X174915Y473524*
X174803Y473062*
Y472293*
X174915Y471832*
X175027Y471524*
X175251Y471217*
X175474Y471063*
X175922*
X176145Y471217*
X176369Y471524*
X176481Y471832*
X178606Y474293D02*
X177487Y472140D01*
X179165*
X178606Y474293D02*
Y471063D01*
X903150Y237088D02*
Y233858D01*
X904492*
X907064Y237088D02*
X905946Y233858D01*
X905498Y237088D02*
X907064D01*
X903150Y459529D02*
Y456299D01*
X904492*
X906952Y458452D02*
X906841Y457991D01*
X906617Y457683*
X906281Y457530*
X906169*
X905834Y457683*
X905610Y457991*
X905498Y458452*
Y458606*
X905610Y459067*
X905834Y459375*
X906169Y459529*
X906281*
X906617Y459375*
X906841Y459067*
X906952Y458452*
Y457683*
X906841Y456914*
X906617Y456453*
X906281Y456299*
X906058*
X905722Y456453*
X905610Y456761*
X1025197Y250314D02*
Y253543D01*
X1023855*
X1022289Y250314D02*
X1022624Y250468D01*
X1022736Y250775*
Y251083*
X1022624Y251390*
X1022401Y251544*
X1021953Y251698*
X1021618Y251852*
X1021394Y252159*
X1021282Y252467*
Y252928*
X1021394Y253236*
X1021506Y253390*
X1021841Y253543*
X1022289*
X1022624Y253390*
X1022736Y253236*
X1022848Y252928*
Y252467*
X1022736Y252159*
X1022513Y251852*
X1022177Y251698*
X1021730Y251544*
X1021506Y251390*
X1021394Y251083*
Y250775*
X1021506Y250468*
X1021841Y250314*
X1022289*
X869976Y114272D02*
X870088Y113964D01*
X870311Y113656*
X870535Y113503*
X870982*
X871206Y113656*
X871430Y113964*
X871542Y114272*
X871654Y114733*
Y115502*
X871542Y115963*
X871430Y116271*
X871206Y116578*
X870982Y116732*
X870535*
X870311Y116578*
X870088Y116271*
X869976Y115963*
X868857Y114272D02*
Y114118D01*
X868746Y113810*
X868634Y113656*
X868410Y113503*
X867963*
X867739Y113656*
X867627Y113810*
X867515Y114118*
Y114425*
X867627Y114733*
X867851Y115194*
X868969Y116732*
X867403*
X866173Y113503D02*
X864943D01*
X865614Y114733*
X865278*
X865055Y114887*
X864943Y115041*
X864831Y115502*
Y115810*
X864943Y116271*
X865166Y116578*
X865502Y116732*
X865838*
X866173Y116578*
X866285Y116425*
X866397Y116117*
X975693Y227461D02*
X975582Y227768D01*
X975358Y228076*
X975134Y228230*
X974687*
X974463Y228076*
X974239Y227768*
X974128Y227461*
X974016Y226999*
Y226230*
X974128Y225769*
X974239Y225461*
X974463Y225154*
X974687Y225000*
X975134*
X975358Y225154*
X975582Y225461*
X975693Y225769*
X976812Y227461D02*
Y227614D01*
X976924Y227922*
X977036Y228076*
X977259Y228230*
X977707*
X977930Y228076*
X978042Y227922*
X978154Y227614*
Y227307*
X978042Y226999*
X977819Y226538*
X976700Y225000*
X978266*
X980727Y228230D02*
X979608D01*
X979496Y226845*
X979608Y226999*
X979944Y227153*
X980279*
X980615Y226999*
X980838Y226692*
X980950Y226230*
X980838Y225923*
X980727Y225461*
X980503Y225154*
X980167Y225000*
X979832*
X979496Y225154*
X979384Y225308*
X979273Y225615*
X975693Y188091D02*
X975582Y188398D01*
X975358Y188706*
X975134Y188859*
X975134D02*
X974687D01*
X974687D02*
X974463Y188706D01*
X974239Y188398*
X974128Y188091*
X974016Y187629*
Y186860*
X974128Y186399*
X974239Y186091*
X974463Y185784*
X974687Y185630*
X975134*
X975358Y185784*
X975582Y186091*
X975693Y186399*
X976812Y188091D02*
Y188244D01*
X976924Y188552*
X977036Y188706*
X977259Y188859*
X977259D02*
X977707D01*
X977707D02*
X977930Y188706D01*
X978042Y188552*
X978154Y188244*
Y187937*
X978042Y187629*
X977819Y187168*
X976700Y185630*
X978266*
X980391Y188859D02*
X979273Y186706D01*
X980950*
X980391Y188859D02*
Y185630D01*
X833961Y452854D02*
X833849Y453162D01*
X833626Y453469*
X833402Y453623*
X832955*
X832731Y453469*
X832507Y453162*
X832395Y452854*
X832283Y452393*
Y451624*
X832395Y451163*
X832507Y450855*
X832731Y450547*
X832955Y450394*
X833402*
X833626Y450547*
X833849Y450855*
X833961Y451163*
X835080Y452854D02*
Y453008D01*
X835191Y453316*
X835303Y453469*
X835527Y453623*
X835974*
X836198Y453469*
X836310Y453316*
X836422Y453008*
Y452701*
X836310Y452393*
X836086Y451932*
X834968Y450394*
X836534*
X838882Y453162D02*
X838771Y453469D01*
X838435Y453623*
X838211*
X837876Y453469*
X837652Y453008*
X837540Y452239*
Y451470*
X837652Y450855*
X837876Y450547*
X838211Y450394*
X838323*
X838659Y450547*
X838882Y450855*
X838994Y451316*
Y451470*
X838882Y451932*
X838659Y452239*
X838323Y452393*
X838211*
X837876Y452239*
X837652Y451932*
X837540Y451470*
X833961Y425295D02*
X833849Y425603D01*
X833626Y425910*
X833402Y426064*
X832955*
X832731Y425910*
X832507Y425603*
X832395Y425295*
X832283Y424834*
Y424065*
X832395Y423604*
X832507Y423296*
X832731Y422988*
X832955Y422835*
X833402*
X833626Y422988*
X833849Y423296*
X833961Y423604*
X835191Y426064D02*
X836422D01*
X835751Y424834*
X836086*
X836310Y424680*
X836422Y424526*
X836534Y424065*
Y423757*
X836422Y423296*
X836198Y422988*
X835863Y422835*
X835527*
X835191Y422988*
X835080Y423142*
X834968Y423450*
X837652Y425295D02*
Y425449D01*
X837764Y425757*
X837876Y425910*
X838099Y426064*
X838099D02*
X838547D01*
X838771Y425910*
X838882Y425757*
X838994Y425449*
Y425141*
X838882Y424834*
X838659Y424373*
X837540Y422835*
X839106*
X976678Y462697D02*
X976566Y463004D01*
X976342Y463312*
X976118Y463466*
X975671*
X975447Y463312*
X975224Y463004*
X975112Y462697*
X975000Y462235*
Y461467*
X975112Y461005*
X975224Y460698*
X975447Y460390*
X975671Y460236*
X976118*
X976342Y460390*
X976566Y460698*
X976678Y461005*
X977908Y463466D02*
X979138D01*
X978467Y462235*
X978803*
X979026Y462082*
X979138Y461928*
X979250Y461467*
Y461159*
X979138Y460698*
X978915Y460390*
X978579Y460236*
X978244*
X977908Y460390*
X977796Y460544*
X977684Y460851*
X980480Y463466D02*
X981711D01*
X981040Y462235*
X981375*
X981599Y462082*
X981711Y461928*
X981823Y461467*
Y461159*
X981711Y460698*
X981487Y460390*
X981152Y460236*
X980816*
X980480Y460390*
X980369Y460544*
X980257Y460851*
X755221Y451870D02*
X755109Y452178D01*
X754885Y452485*
X754662Y452639*
X754214*
X753991Y452485*
X753767Y452178*
X753655Y451870*
X753543Y451409*
Y450640*
X753655Y450178*
X753767Y449871*
X753991Y449563*
X754214Y449409*
X754662*
X754885Y449563*
X755109Y449871*
X755221Y450178*
X756339Y451870D02*
Y452024D01*
X756451Y452331*
X756563Y452485*
X756787Y452639*
X757234*
X757458Y452485*
X757570Y452331*
X757682Y452024*
Y451716*
X757570Y451409*
X757346Y450947*
X756228Y449409*
X757793*
X759471Y452639D02*
X759136Y452485D01*
X758912Y452024*
X758800Y451255*
Y450794*
X758912Y450025*
X759136Y449563*
X759471Y449409*
X759695*
X760030Y449563*
X760254Y450025*
X760366Y450794*
Y451255*
X760254Y452024*
X760030Y452485*
X759695Y452639*
X759471*
X755221Y424311D02*
X755109Y424619D01*
X754885Y424926*
X754662Y425080*
X754214*
X753991Y424926*
X753767Y424619*
X753655Y424311*
X753543Y423850*
Y423081*
X753655Y422619*
X753767Y422312*
X753991Y422004*
X754214Y421850*
X754662*
X754885Y422004*
X755109Y422312*
X755221Y422619*
X756228Y424465D02*
X756451Y424619D01*
X756787Y425080*
Y421850*
X759247Y424003D02*
X759136Y423542D01*
X758912Y423234*
X758912D02*
X758576Y423081D01*
X758465*
X758129Y423234*
X758129D02*
X757905Y423542D01*
X757793Y424003*
Y424157*
X757905Y424619*
X758129Y424926*
X758465Y425080*
X758576*
X758912Y424926*
X759136Y424619*
X759247Y424003*
Y423234*
X759247D02*
X759136Y422466D01*
X758912Y422004*
X758576Y421850*
X758353*
X758017Y422004*
X757905Y422312*
X712205Y235119D02*
Y231890D01*
X713547*
X715896Y234658D02*
X715784Y234966D01*
X715448Y235119*
X715225*
X714889Y234966*
X714665Y234504*
X714554Y233735*
Y232966*
X714665Y232351*
X714889Y232044*
X715225Y231890*
X715336*
X715672Y232044*
X715896Y232351*
X716008Y232813*
X716008D02*
Y232966D01*
X715896Y233428*
X715672Y233735*
X715336Y233889*
X715225*
X714889Y233735*
X714665Y233428*
X714554Y232966*
G54D116*
G54D128*
X296850Y107874D02*
X670866D01*
Y481890*
X296850*
Y107874*
X500197Y269409D02*
G03X500197I-6496J0D01*
G01Y379409D02*
G03X500197I-6496J0D01*
G01X500395D02*
G03X500395I-6694J0D01*
G01X500394Y269291D02*
G03X500394I-6693J0D01*
G01X487205Y379409D02*
X500197D01*
X493701Y385906D02*
Y372913D01*
Y275906D02*
Y262913D01*
X487008Y269291D02*
X500197D01*
G74*
X0Y0D02*
M02*
