*
*
G04 PADS 9.5 Build Number: 522968 generated Gerber (RS-274-X) file*
G04 PC Version=2.1*
*
%IN "RF-GEN_RF_V2.0_PCB_2019"*%
*
%MOIN*%
*
%FSLAX35Y35*%
*
*
*
*
G04 PC Standard Apertures*
*
*
G04 Thermal Relief Aperture macro.*
%AMTER*
1,1,$1,0,0*
1,0,$1-$2,0,0*
21,0,$3,$4,0,0,45*
21,0,$3,$4,0,0,135*
%
*
*
G04 Annular Aperture macro.*
%AMANN*
1,1,$1,0,0*
1,0,$2,0,0*
%
*
*
G04 Odd Aperture macro.*
%AMODD*
1,1,$1,0,0*
1,0,$1-0.005,0,0*
%
*
*
G04 PC Custom Aperture Macros*
*
*
*
*
*
*
G04 PC Aperture Table*
*
%ADD010C,0.001*%
%ADD050C,0.01*%
%ADD100C,0.008*%
%ADD101C,0.006*%
%ADD104C,0.005*%
%ADD108C,0.00492*%
%ADD116C,0.00004*%
%ADD128C,0.00984*%
*
*
*
*
G04 PC Circuitry*
G04 Layer Name RF-GEN_RF_V2.0_PCB_2019 - circuitry*
%LPD*%
*
*
G04 PC Custom Flashes*
G04 Layer Name RF-GEN_RF_V2.0_PCB_2019 - flashes*
%LPD*%
*
*
G04 PC Circuitry*
G04 Layer Name RF-GEN_RF_V2.0_PCB_2019 - circuitry*
%LPD*%
*
G54D10*
G01X100000Y100000D02*
X100003D01*
X100000Y493701D02*
X100003D01*
X100000D02*
X100003D01*
X1044882D02*
X1044885D01*
G54D50*
X556693Y302756D02*
X611811D01*
Y247638*
X556693*
Y302756*
Y401181D02*
X611811D01*
Y346063*
X556693*
Y401181*
X373622Y285039D02*
X288976D01*
Y363780*
X373622*
Y285039*
X474193Y257165D02*
Y391654D01*
X513209*
Y257165*
X474193*
X643307Y379528D02*
X761417D01*
Y267323*
X643307*
Y379528*
X552850Y141197D02*
G75*
G03Y159197I-2976J9000D01*
G01X540850D02*
G03Y141197I2977J-9000D01*
G01X598126D02*
G03Y159197I-2976J9000D01*
G01X586126D02*
G03Y141197I2976J-9000D01*
G01X330693Y378216D02*
Y371654D01*
X332283Y378216D02*
X329102D01*
X327056D02*
X323874Y371654D01*
Y378216D02*
X327056Y371654D01*
X321829Y376966D02*
X321374Y377279D01*
X320693Y378216*
Y371654*
X532869Y383324D02*
X533323Y383012D01*
X533778Y382387*
X534005Y381762*
X534233Y380824*
Y379262*
X534005Y378324*
X533778Y377699*
X533323Y377074*
X532869Y376762*
X531960*
X531505Y377074*
X531051Y377699*
X530823Y378324*
X530596Y379262*
Y380824*
X530823Y381762*
X531051Y382387*
X531505Y383012*
X531960Y383324*
X532869*
X532187Y378012D02*
X530823Y376137D01*
X528323Y381762D02*
Y382074D01*
X528096Y382699*
X527869Y383012*
X527414Y383324*
X526505*
X526051Y383012*
X525823Y382699*
X525596Y382074*
Y381449*
X525823Y380824*
X526278Y379887*
X528551Y376762*
X525369*
X738173Y396917D02*
Y390354D01*
X739764Y396917D02*
X736582D01*
X734537D02*
X731355Y390354D01*
Y396917D02*
X734537Y390354D01*
X729082Y395354D02*
Y395667D01*
X728855Y396292*
X728627Y396604*
X728173Y396917*
X727264*
X726809Y396604*
X726582Y396292*
X726355Y395667*
Y395042*
X726582Y394417*
X727037Y393479*
X729309Y390354*
X726127*
X100000Y100000D02*
X1044882D01*
Y493701*
X100000*
Y100000*
X473031Y401181D02*
X475000Y403150D01*
X512402*
X514370Y401181*
Y243701*
X512402Y241732*
X475000*
X473031Y243701*
Y401181*
X40945Y100000D02*
Y290100D01*
Y100000D02*
X38445Y110000D01*
X43445*
X40945Y100000*
Y493701D02*
Y303600D01*
Y493701D02*
X43445Y483701D01*
X38445*
X40945Y493701*
X95000Y100000D02*
X35945D01*
X95000Y493701D02*
X35945D01*
X23786Y298413D02*
X24240Y298725D01*
X24922Y299663*
Y293100*
X28331Y299663D02*
X27649Y299350D01*
X27195Y298413*
X26968Y296850*
Y295913*
X27195Y294350*
X27649Y293413*
X28331Y293100*
X28786*
X29468Y293413*
X29922Y294350*
X30149Y295913*
Y296850*
X29922Y298413*
X29468Y299350*
X28786Y299663*
X28331*
X33559D02*
X32877Y299350D01*
X32422Y298413*
X32195Y296850*
Y295913*
X32422Y294350*
X32877Y293413*
X33559Y293100*
X34013*
X34695Y293413*
X35149Y294350*
X35377Y295913*
Y296850*
X35149Y298413*
X34695Y299350*
X34013Y299663*
X33559*
X37649Y293725D02*
X37422Y293413D01*
X37649Y293100*
X37877Y293413*
X37649Y293725*
X41286Y299663D02*
X40604Y299350D01*
X40149Y298413*
X39922Y296850*
Y295913*
X40149Y294350*
X40604Y293413*
X41286Y293100*
X41740*
X42422Y293413*
X42877Y294350*
X43104Y295913*
Y296850*
X42877Y298413*
X42422Y299350*
X41740Y299663*
X41286*
X45149Y297475D02*
Y293100D01*
Y296225D02*
X45831Y297163D01*
X46286Y297475*
X46968*
X47422Y297163*
X47649Y296225*
Y293100*
Y296225D02*
X48331Y297163D01*
X48786Y297475*
X49468*
X49922Y297163*
X50149Y296225*
Y293100*
X52195Y297475D02*
Y293100D01*
Y296225D02*
X52877Y297163D01*
X53331Y297475*
X54013*
X54468Y297163*
X54695Y296225*
Y293100*
Y296225D02*
X55377Y297163D01*
X55831Y297475*
X56513*
X56968Y297163*
X57195Y296225*
Y293100*
X100000Y548819D02*
X551145D01*
X100000D02*
X110000Y551319D01*
Y546319*
X100000Y548819*
X1044882D02*
X593736D01*
X1044882D02*
X1034882Y546319D01*
Y551319*
X1044882Y548819*
X100000Y498701D02*
Y553819D01*
X1044882Y498701D02*
Y553819D01*
X554373Y550069D02*
Y550381D01*
X554600Y551006*
X554827Y551319*
X555282Y551631*
X556191*
X556645Y551319*
X556873Y551006*
X557100Y550381*
Y549756*
X556873Y549131*
X556418Y548194*
X554145Y545069*
X557327*
X561645Y551631D02*
X559373Y547256D01*
X562782*
X561645Y551631D02*
Y545069D01*
X566191Y551631D02*
X565509Y551319D01*
X565055Y550381*
X564827Y548819*
Y547881*
X565055Y546319*
X565509Y545381*
X566191Y545069*
X566645*
X567327Y545381*
X567782Y546319*
X568009Y547881*
Y548819*
X567782Y550381*
X567327Y551319*
X566645Y551631*
X566191*
X570282Y545694D02*
X570055Y545381D01*
X570282Y545069*
X570509Y545381*
X570282Y545694*
X573918Y551631D02*
X573236Y551319D01*
X572782Y550381*
X572555Y548819*
Y547881*
X572782Y546319*
X573236Y545381*
X573918Y545069*
X574373*
X575055Y545381*
X575509Y546319*
X575736Y547881*
Y548819*
X575509Y550381*
X575055Y551319*
X574373Y551631*
X573918*
X577782Y549444D02*
Y545069D01*
Y548194D02*
X578464Y549131D01*
X578918Y549444*
X579600*
X580055Y549131*
X580282Y548194*
Y545069*
Y548194D02*
X580964Y549131D01*
X581418Y549444*
X582100*
X582555Y549131*
X582782Y548194*
Y545069*
X584827Y549444D02*
Y545069D01*
Y548194D02*
X585509Y549131D01*
X585964Y549444*
X586645*
X587100Y549131*
X587327Y548194*
Y545069*
Y548194D02*
X588009Y549131D01*
X588464Y549444*
X589145*
X589600Y549131*
X589827Y548194*
Y545069*
G54D100*
X380906Y255512D02*
X384055D01*
X378937Y264370D02*
Y248622D01*
X386024*
Y264370*
X378937*
X380906Y257480D02*
X384055D01*
X369094Y255512D02*
X372244D01*
X367126Y264370D02*
Y248622D01*
X374213*
Y264370*
X367126*
X369094Y257480D02*
X372244D01*
X384055Y393307D02*
X380906D01*
X386024Y384449D02*
Y400197D01*
X378937*
Y384449*
X386024*
X384055Y391339D02*
X380906D01*
X372244Y393307D02*
X369094D01*
X374213Y384449D02*
Y400197D01*
X367126*
Y384449*
X374213*
X372244Y391339D02*
X369094D01*
X399213Y263780D02*
Y266929D01*
X400787Y265354D02*
X397638D01*
X402756Y257480D02*
Y273228D01*
X395669*
Y257480*
X402756*
X399213Y385039D02*
Y381890D01*
X397638Y383465D02*
X400787D01*
X395669Y391339D02*
Y375591D01*
X402756*
Y391339*
X395669*
X450394Y243701D02*
X544882D01*
Y212205*
X450394*
Y243701*
X452362Y437598D02*
X546850D01*
Y406102*
X452362*
Y437598*
X414567Y306693D02*
Y298819D01*
X433071Y315551D02*
X400787D01*
Y289961*
X433071*
Y315551*
X419291Y306693D02*
Y298819D01*
X414567Y350000D02*
Y342126D01*
X433071Y358858D02*
X400787D01*
Y333268*
X433071*
Y358858*
X419291Y350000D02*
Y342126D01*
X434646Y261811D02*
X426772D01*
X443504Y243307D02*
Y275591D01*
X417913*
Y243307*
X443504*
X434646Y257087D02*
X426772D01*
Y387008D02*
X434646D01*
X417913Y405512D02*
Y373228D01*
X443504*
Y405512*
X417913*
X426772Y391732D02*
X434646D01*
X564567Y322047D02*
X572441D01*
X555709Y340551D02*
Y308268D01*
X581299*
Y340551*
X555709*
X564567Y326772D02*
X572441D01*
X463583Y154134D02*
X466732D01*
X461614Y162992D02*
Y147244D01*
X468701*
Y162992*
X461614*
X463583Y156102D02*
X466732D01*
X475394Y154134D02*
X478543D01*
X473425Y162992D02*
Y147244D01*
X480512*
Y162992*
X473425*
X475394Y156102D02*
X478543D01*
X552850Y166732D02*
X559449D01*
X563780Y162402*
Y133661*
X552350*
X540850Y166732D02*
X534252D01*
X529921Y162402*
Y133661*
X541350*
X541338Y133662D02*
Y147697D01*
X552362Y133662D02*
Y147697D01*
X598126Y166732D02*
X604724D01*
X609055Y162402*
Y133661*
X597626*
X586126Y166732D02*
X579528D01*
X575197Y162402*
Y133661*
X586626*
X586614Y133662D02*
Y147697D01*
X597638Y133662D02*
Y147697D01*
X489201Y163150D02*
Y143150D01*
X498201*
Y163150*
X489201*
X492201Y154134D02*
X495201D01*
X492126Y152165D02*
X495276D01*
X502980Y163150D02*
Y143150D01*
X511980*
Y163150*
X502980*
X505980Y154134D02*
X508980D01*
X505906Y152165D02*
X509055D01*
G54D101*
X558661Y133661D02*
Y148228D01*
X535039*
Y133661*
X535433D02*
Y148228D01*
X535827Y133661D02*
Y148228D01*
X536220Y133661D02*
Y148228D01*
X536614Y133661D02*
Y148228D01*
X537008Y133661D02*
Y148228D01*
X537402Y133661D02*
Y148228D01*
X537795Y133661D02*
Y148228D01*
X538189Y133661D02*
Y148228D01*
X538583Y133661D02*
Y148228D01*
X538976Y133661D02*
Y148228D01*
X539370Y133661D02*
Y148228D01*
X539764Y133661D02*
Y148228D01*
X540157Y133661D02*
Y148228D01*
X540551Y133661D02*
Y148228D01*
X540945Y133661D02*
Y148228D01*
X558268Y133661D02*
Y148228D01*
X557874Y133661D02*
Y148228D01*
X557480Y133661D02*
Y148228D01*
X557087Y133661D02*
Y148228D01*
X556693Y133661D02*
Y148228D01*
X556299Y133661D02*
Y148228D01*
X555906Y133661D02*
Y148228D01*
X555512Y133661D02*
Y148228D01*
X555118Y133661D02*
Y148228D01*
X554724Y133661D02*
Y148228D01*
X554331Y133661D02*
Y148228D01*
X553937Y133661D02*
Y148228D01*
X553543Y133661D02*
Y148228D01*
X553150Y133661D02*
Y148228D01*
X552756Y133661D02*
Y148228D01*
X553150Y147835D02*
X540945D01*
X553150Y147441D02*
X540945D01*
X553150Y147047D02*
X540945D01*
X553150Y146654D02*
X540945D01*
X603937Y133661D02*
Y148228D01*
X580315*
Y133661*
X580709D02*
Y148228D01*
X581102Y133661D02*
Y148228D01*
X581496Y133661D02*
Y148228D01*
X581890Y133661D02*
Y148228D01*
X582283Y133661D02*
Y148228D01*
X582677Y133661D02*
Y148228D01*
X583071Y133661D02*
Y148228D01*
X583465Y133661D02*
Y148228D01*
X583858Y133661D02*
Y148228D01*
X584252Y133661D02*
Y148228D01*
X584646Y133661D02*
Y148228D01*
X585039Y133661D02*
Y148228D01*
X585433Y133661D02*
Y148228D01*
X585827Y133661D02*
Y148228D01*
X586220Y133661D02*
Y148228D01*
X603543Y133661D02*
Y148228D01*
X603150Y133661D02*
Y148228D01*
X602756Y133661D02*
Y148228D01*
X602362Y133661D02*
Y148228D01*
X601969Y133661D02*
Y148228D01*
X601575Y133661D02*
Y148228D01*
X601181Y133661D02*
Y148228D01*
X600787Y133661D02*
Y148228D01*
X600394Y133661D02*
Y148228D01*
X600000Y133661D02*
Y148228D01*
X599606Y133661D02*
Y148228D01*
X599213Y133661D02*
Y148228D01*
X598819Y133661D02*
Y148228D01*
X598425Y133661D02*
Y148228D01*
X598031Y133661D02*
Y148228D01*
X598425Y147835D02*
X586220D01*
X598425Y147441D02*
X586220D01*
X598425Y147047D02*
X586220D01*
X598425Y146654D02*
X586220D01*
X604844Y174850D02*
X604981Y175225D01*
X605253Y175600*
X605526Y175788*
X606072*
X606344Y175600*
X606617Y175225*
X606753Y174850*
X606890Y174288*
Y173350*
X606753Y172788*
X606617Y172413*
X606344Y172038*
X606072Y171850*
X605526*
X605253Y172038*
X604981Y172413*
X604844Y172788*
X602253Y175788D02*
X603617Y173163D01*
X601572*
X602253Y175788D02*
Y171850D01*
X600208Y174850D02*
Y175038D01*
X600072Y175413*
X599935Y175600*
X599662Y175788*
X599117*
X598844Y175600*
X598708Y175413*
X598572Y175038*
Y174663*
X598708Y174288*
X598981Y173725*
X600344Y171850*
X598435*
G54D104*
X466406Y167461D02*
X466519Y167773D01*
X466747Y168086*
X466974Y168242*
X467428*
X467656Y168086*
X467883Y167773*
X467997Y167461*
X468110Y166992*
Y166211*
X467997Y165742*
X467883Y165429*
X467656Y165117*
X467428Y164961*
X466974*
X466747Y165117*
X466519Y165429*
X466406Y165742*
X465269Y167461D02*
Y167617D01*
X465156Y167929*
X465042Y168086*
X464815Y168242*
X464360*
X464133Y168086*
X464019Y167929*
X463906Y167617*
Y167304*
X464019Y166992*
X464247Y166523*
X465383Y164961*
X463792*
X462656Y167461D02*
Y167617D01*
X462542Y167929*
X462428Y168086*
X462201Y168242*
X461747*
X461519Y168086*
X461406Y167929*
X461292Y167617*
Y167304*
X461406Y166992*
X461633Y166523*
X462769Y164961*
X461178*
X478217Y167461D02*
X478330Y167773D01*
X478558Y168086*
X478785Y168242*
X479239*
X479467Y168086*
X479694Y167773*
X479808Y167461*
X479921Y166992*
Y166211*
X479808Y165742*
X479694Y165429*
X479467Y165117*
X479239Y164961*
X478785*
X478558Y165117*
X478330Y165429*
X478217Y165742*
X476058Y168242D02*
X477194Y166054D01*
X475489*
X476058Y168242D02*
Y164961D01*
X474239Y168242D02*
X472989D01*
X473671Y166992*
X473330*
X473103Y166836*
X472989Y166679*
X472876Y166211*
Y165898*
X472989Y165429*
X473217Y165117*
X473558Y164961*
X473899*
X474239Y165117*
X474353Y165273*
X474467Y165586*
X494608Y167961D02*
X494744Y168336D01*
X495017Y168711*
X495290Y168898*
X495835*
X496108Y168711*
X496381Y168336*
X496517Y167961*
X496654Y167398*
Y166461*
X496517Y165898*
X496381Y165523*
X496108Y165148*
X495835Y164961*
X495290*
X495017Y165148*
X494744Y165523*
X494608Y165898*
X493244Y167961D02*
Y168148D01*
X493108Y168523*
X492972Y168711*
X492699Y168898*
X492154*
X491881Y168711*
X491744Y168523*
X491608Y168148*
Y167773*
X491744Y167398*
X492017Y166836*
X493381Y164961*
X491472*
X490244Y168148D02*
X489972Y168336D01*
X489563Y168898*
Y164961*
X508388Y167961D02*
X508524Y168336D01*
X508797Y168711*
X509069Y168898*
X509615*
X509888Y168711*
X510160Y168336*
X510297Y167961*
X510433Y167398*
Y166461*
X510297Y165898*
X510160Y165523*
X509888Y165148*
X509615Y164961*
X509069*
X508797Y165148*
X508524Y165523*
X508388Y165898*
X505797Y168898D02*
X507160Y166273D01*
X505115*
X505797Y168898D02*
Y164961D01*
X503888Y168148D02*
X503615Y168336D01*
X503206Y168898*
Y164961*
G54D108*
X383755Y268799D02*
X383867Y269107D01*
X384091Y269414*
X384315Y269568*
X384762*
X384986Y269414*
X385209Y269107*
X385321Y268799*
X385433Y268338*
Y267569*
X385321Y267108*
X385209Y266800*
X384986Y266492*
X384762Y266339*
X384315*
X384091Y266492*
X383867Y266800*
X383755Y267108*
X382749Y268953D02*
X382525Y269107D01*
X382190Y269568*
Y266339*
X380512Y269568D02*
X380847Y269414D01*
X381071Y268953*
X381183Y268184*
Y267723*
X381071Y266954*
X380847Y266492*
X380512Y266339*
X380288*
X379953Y266492*
X379729Y266954*
X379617Y267723*
Y268184*
X379729Y268953*
X379953Y269414*
X380288Y269568*
X380512*
X370960Y268799D02*
X371072Y269107D01*
X371296Y269414*
X371519Y269568*
X371967*
X372190Y269414*
X372414Y269107*
X372526Y268799*
X372638Y268338*
Y267569*
X372526Y267108*
X372414Y266800*
X372190Y266492*
X371967Y266339*
X371519*
X371296Y266492*
X371072Y266800*
X370960Y267108*
X369953Y268953D02*
X369730Y269107D01*
X369394Y269568*
Y266339*
X368388Y268953D02*
X368164Y269107D01*
X367828Y269568*
Y266339*
X384740Y381988D02*
X384851Y382296D01*
X385075Y382603*
X385299Y382757*
X385746*
X385970Y382603*
X386194Y382296*
X386305Y381988*
X386417Y381527*
Y380758*
X386305Y380297*
X386194Y379989*
X385970Y379681*
X385746Y379528*
X385299*
X385075Y379681*
X384851Y379989*
X384740Y380297*
X383509Y382757D02*
X382279D01*
X382950Y381527*
X382615*
X382391Y381373*
X382279Y381219*
X382167Y380758*
Y380450*
X382279Y379989*
X382503Y379681*
X382838Y379528*
X383174*
X383509Y379681*
X383621Y379835*
X383733Y380143*
X379707Y381681D02*
X379818Y381219D01*
X380042Y380912*
X380378Y380758*
X380489*
X380825Y380912*
X381049Y381219*
X381161Y381681*
Y381834*
X381049Y382296*
X380825Y382603*
X380489Y382757*
X380378*
X380042Y382603*
X379818Y382296*
X379707Y381681*
Y380912*
X379818Y380143*
X380042Y379681*
X380378Y379528*
X380601*
X380937Y379681*
X381049Y379989*
X371944Y381988D02*
X372056Y382296D01*
X372280Y382603*
X372504Y382757*
X372951*
X373175Y382603*
X373398Y382296*
X373510Y381988*
X373622Y381527*
Y380758*
X373510Y380297*
X373398Y379989*
X373175Y379681*
X372951Y379528*
X372504*
X372280Y379681*
X372056Y379989*
X371944Y380297*
X369819Y382757D02*
X370938Y380604D01*
X369260*
X369819Y382757D02*
Y379528D01*
X367582Y382757D02*
X367918Y382603D01*
X368142Y382142*
X368253Y381373*
Y380912*
X368142Y380143*
X367918Y379681*
X367582Y379528*
X367359*
X367023Y379681*
X366799Y380143*
X366688Y380912*
Y381373*
X366799Y382142*
X367023Y382603*
X367359Y382757*
X367582*
X402165Y255789D02*
Y252559D01*
Y255789D02*
X401159D01*
X400823Y255635*
X400711Y255481*
X400599Y255173*
Y254866*
X400711Y254558*
X400823Y254405*
X401159Y254251*
X402165*
X401382D02*
X400599Y252559D01*
X399481Y255020D02*
Y255173D01*
X399369Y255481*
X399257Y255635*
X399034Y255789*
X398586*
X398363Y255635*
X398251Y255481*
X398139Y255173*
Y254866*
X398251Y254558*
X398474Y254097*
X399593Y252559*
X398027*
X395566Y255789D02*
X396685D01*
X396797Y254405*
X396685Y254558*
X396349Y254712*
X396014*
X395678Y254558*
X395455Y254251*
X395343Y253789*
X395455Y253482*
X395566Y253020*
X395790Y252713*
X396126Y252559*
X396461*
X396797Y252713*
X396909Y252867*
X397020Y253174*
X402165Y396537D02*
Y393307D01*
Y396537D02*
X401159D01*
X400823Y396383*
X400711Y396229*
X400599Y395922*
X400599D02*
Y395614D01*
X400599D02*
X400711Y395306D01*
X400823Y395153*
X401159Y394999*
X402165*
X401382D02*
X400599Y393307D01*
X399481Y395768D02*
Y395922D01*
X399369Y396229*
X399257Y396383*
X399034Y396537*
X398586*
X398363Y396383*
X398251Y396229*
X398139Y395922*
Y395614*
X398251Y395306*
X398474Y394845*
X399593Y393307*
X398027*
X395678Y396075D02*
X395790Y396383D01*
X396126Y396537*
X396349*
X396685Y396383*
X396909Y395922*
X397020Y395153*
Y394384*
X396909Y393768*
X396685Y393461*
X396349Y393307*
X396237*
X395902Y393461*
X395678Y393768*
X395566Y394230*
Y394384*
X395678Y394845*
X395902Y395153*
X396237Y395306*
X396349*
X396685Y395153*
X396909Y394845*
X397020Y394384*
X609843Y309922D02*
Y306693D01*
X608500*
X606375Y309922D02*
X607494Y307769D01*
X605816*
X606375Y309922D02*
Y306693D01*
X609843Y408348D02*
Y405118D01*
X608500*
X606040Y408348D02*
X607158D01*
X607270Y406964*
X607158Y407117*
X606823Y407271*
X606487*
X606152Y407117*
X605928Y406810*
X605816Y406348*
X605928Y406041*
X606040Y405579*
X606263Y405272*
X606599Y405118*
X606935*
X606935D02*
X607270Y405272D01*
X607382Y405426*
X607494Y405733*
X542913Y209529D02*
Y206299D01*
Y209529D02*
X541907D01*
X541571Y209375*
X541459Y209221*
X541348Y208914*
Y208606*
X541459Y208298*
X541571Y208145*
X541907Y207991*
X542913*
X542130D02*
X541348Y206299D01*
X539782Y209529D02*
X540117Y209375D01*
X540229Y209067*
Y208760*
X540117Y208452*
X539894Y208298*
X539446Y208145*
X539111Y207991*
X538887Y207683*
X538775Y207376*
Y206914*
X538887Y206607*
X538999Y206453*
X539334Y206299*
X539782*
X540117Y206453*
X540229Y206607*
X540341Y206914*
Y207376*
X540229Y207683*
X540005Y207991*
X539670Y208145*
X539222Y208298*
X538999Y208452*
X538887Y208760*
Y209067*
X538999Y209375*
X539334Y209529*
X539782*
X544882Y444765D02*
Y441535D01*
Y444765D02*
X543875D01*
X543540Y444611*
X543428Y444457*
X543316Y444150*
Y443842*
X543428Y443535*
X543540Y443381*
X543875Y443227*
X544882*
X544099D02*
X543316Y441535D01*
X540855Y443688D02*
X540967Y443227D01*
X541191Y442920*
X541526Y442766*
X541638*
X541974Y442920*
X542198Y443227*
X542309Y443688*
Y443842*
X542198Y444304*
X541974Y444611*
X541638Y444765*
X541526*
X541191Y444611*
X540967Y444304*
X540855Y443688*
Y442920*
X540967Y442151*
X541191Y441689*
X541526Y441535*
X541750*
X542086Y441689*
X542198Y441997*
X430999Y287500D02*
X431111Y287808D01*
X431335Y288115*
X431559Y288269*
X432006*
X432230Y288115*
X432453Y287808*
X432565Y287500*
X432677Y287039*
Y286270*
X432565Y285808*
X432453Y285501*
X432230Y285193*
X432006Y285039*
X431559*
X431335Y285193*
X431111Y285501*
X430999Y285808*
X429993Y287654D02*
X429769Y287808D01*
X429434Y288269*
Y285039*
X427756Y288269D02*
X428091Y288115D01*
X428315Y287654*
X428427Y286885*
Y286423*
X428315Y285655*
X428091Y285193*
X427756Y285039*
X427532*
X427197Y285193*
X426973Y285655*
X426861Y286423*
Y286885*
X426973Y287654*
X427197Y288115*
X427532Y288269*
X427756*
X425743Y287500D02*
Y287654D01*
X425631Y287961*
X425519Y288115*
X425295Y288269*
X424848*
X424624Y288115*
X424512Y287961*
X424401Y287654*
X424401D02*
Y287346D01*
X424401D02*
X424512Y287039D01*
X424736Y286577*
X425855Y285039*
X424289*
X430999Y364272D02*
X431111Y364579D01*
X431335Y364887*
X431559Y365041*
X432006*
X432230Y364887*
X432453Y364579*
X432565Y364272*
X432677Y363810*
Y363041*
X432565Y362580*
X432453Y362272*
X432230Y361965*
X432006Y361811*
X431559*
X431335Y361965*
X431111Y362272*
X430999Y362580*
X429993Y364425D02*
X429769Y364579D01*
X429434Y365041*
Y361811*
X427756Y365041D02*
X428091Y364887D01*
X428315Y364425*
X428427Y363656*
Y363195*
X428315Y362426*
X428091Y361965*
X427756Y361811*
X427532*
X427197Y361965*
X426973Y362426*
X426861Y363195*
Y363656*
X426973Y364425*
X427197Y364887*
X427532Y365041*
X427756*
X425631D02*
X424401D01*
X424401D02*
X425072Y363810D01*
X424736*
X424512Y363656*
X424401Y363503*
X424401D02*
X424289Y363041D01*
Y362734*
X424401Y362272*
X424401D02*
X424624Y361965D01*
X424960Y361811*
X425295*
X425631Y361965*
X425743Y362119*
X425855Y362426*
X415453Y245378D02*
X415760Y245267D01*
X416068Y245043*
X416222Y244819*
Y244372*
X416068Y244148*
X415760Y243924*
X415453Y243813*
X414991Y243701*
X414222*
X413761Y243813*
X413453Y243924*
X413146Y244148*
X412992Y244372*
Y244819*
X413146Y245043*
X413453Y245267*
X413761Y245378*
X415607Y246385D02*
X415760Y246609D01*
X416222Y246944*
X412992*
X416222Y248622D02*
X416068Y248287D01*
X415607Y248063*
X414838Y247951*
X414376*
X413607Y248063*
X413146Y248287*
X412992Y248622*
Y248846*
X413146Y249181*
X413607Y249405*
X414376Y249517*
X414838*
X415607Y249405*
X416068Y249181*
X416222Y248846*
Y248622*
Y251642D02*
X414069Y250523D01*
Y252201*
X416222Y251642D02*
X412992D01*
X415453Y375300D02*
X415760Y375188D01*
X416068Y374964*
X416222Y374741*
Y374293*
X416068Y374069*
X415760Y373846*
X415453Y373734*
X414991Y373622*
X414222*
X413761Y373734*
X413453Y373846*
X413146Y374069*
X412992Y374293*
Y374741*
X413146Y374964*
X413453Y375188*
X413761Y375300*
X415607Y376306D02*
X415760Y376530D01*
X416222Y376866*
X412992*
X416222Y378543D02*
X416068Y378208D01*
X415607Y377984*
X414838Y377872*
X414376*
X413607Y377984*
X413146Y378208*
X412992Y378543*
Y378767*
X413146Y379103*
X413607Y379326*
X414376Y379438*
X414838*
X415607Y379326*
X416068Y379103*
X416222Y378767*
Y378543*
Y381899D02*
Y380780D01*
X414838Y380668*
X414991Y380780*
X415145Y381116*
Y381451*
X414991Y381787*
X414684Y382011*
X414222Y382122*
X413915Y382011*
X413453Y381899*
X413146Y381675*
X412992Y381339*
Y381004*
X413146Y380668*
X413300Y380557*
X413607Y380445*
X586713Y310339D02*
X587020Y310227D01*
X587328Y310004*
X587482Y309780*
Y309332*
X587482D02*
X587328Y309109D01*
X587020Y308885*
X586713Y308773*
X586251Y308661*
X585482*
X585021Y308773*
X584713Y308885*
X584406Y309109*
X584252Y309332*
X584252D02*
Y309780D01*
X584406Y310004*
X584713Y310227*
X585021Y310339*
X586866Y311346D02*
X587020Y311569D01*
X587482Y311905*
X584252*
X587482Y313583D02*
X587328Y313247D01*
X586866Y313023*
X586097Y312912*
X585636*
X584867Y313023*
X584406Y313247*
X584252Y313583*
Y313806*
X584406Y314142*
X584867Y314366*
X585636Y314477*
X586097*
X586866Y314366*
X587328Y314142*
X587482Y313806*
Y313583*
X587020Y316826D02*
X587328Y316714D01*
X587482Y316379*
Y316155*
X587328Y315820*
X586866Y315596*
X586097Y315484*
X585328*
X584713Y315596*
X584406Y315820*
X584252Y316155*
Y316267*
X584406Y316603*
X584713Y316826*
X585175Y316938*
X585328*
X585790Y316826*
X586097Y316603*
X586251Y316267*
Y316155*
X586097Y315820*
X585790Y315596*
X585328Y315484*
X558952Y174311D02*
X559064Y174619D01*
X559288Y174926*
X559511Y175080*
X559959*
X560183Y174926*
X560406Y174619*
X560518Y174311*
X560630Y173850*
Y173081*
X560518Y172619*
X560406Y172312*
X560183Y172004*
X559959Y171850*
X559511*
X559288Y172004*
X559064Y172312*
X558952Y172619*
X557946Y174465D02*
X557722Y174619D01*
X557386Y175080*
Y171850*
X554814Y175080D02*
X555932Y171850D01*
X556380Y175080D02*
X554814D01*
G54D116*
G54D128*
X500197Y379409D02*
G03X500197I-6496J0D01*
G01Y269409D02*
G03X500197I-6496J0D01*
G74*
G01X0Y0D02*
M02*
