*
*
G04 PADS 9.5 Build Number: 522968 generated Gerber (RS-274-X) file*
G04 PC Version=2.1*
*
%IN "RF-GEN_RF_V2.0_PCB_2019"*%
*
%MOIN*%
*
%FSLAX35Y35*%
*
*
*
*
G04 PC Standard Apertures*
*
*
G04 Thermal Relief Aperture macro.*
%AMTER*
1,1,$1,0,0*
1,0,$1-$2,0,0*
21,0,$3,$4,0,0,45*
21,0,$3,$4,0,0,135*
%
*
*
G04 Annular Aperture macro.*
%AMANN*
1,1,$1,0,0*
1,0,$2,0,0*
%
*
*
G04 Odd Aperture macro.*
%AMODD*
1,1,$1,0,0*
1,0,$1-0.005,0,0*
%
*
*
G04 PC Custom Aperture Macros*
*
*
*
*
*
*
G04 PC Aperture Table*
*
%ADD010C,0.001*%
%ADD011R,0.04724X0.04724*%
%ADD016R,0.15748X0.11811*%
%ADD017R,0.23622X0.29528*%
%ADD018R,0.23622X0.7874*%
%ADD020R,0.23622X0.17717*%
%ADD022R,0.23622X0.48622*%
%ADD023R,0.23622X0.98425*%
%ADD024R,0.19685X0.3937*%
%ADD025R,0.29921X0.17717*%
%ADD033C,0.09055*%
%ADD036R,0.11024X0.11024*%
%ADD037C,0.11024*%
%ADD038R,0.06693X0.21654*%
%ADD039R,0.21654X0.06693*%
%ADD047R,0.064X0.16*%
%ADD048C,0.07087*%
%ADD049R,0.07X0.05*%
%ADD050C,0.01*%
%ADD051C,0.03937*%
%ADD053C,0.11811*%
%ADD056C,0.07874*%
%ADD058C,0.05906*%
%ADD059C,0.01772*%
%ADD110R,0.05906X0.05906*%
%ADD111C,0.06*%
%ADD116C,0.00004*%
%ADD117R,0.11811X0.11811*%
%ADD118C,0.1378*%
%ADD120C,0.06693*%
%ADD121C,0.12598*%
%ADD122C,0.0748*%
%ADD123C,0.31496*%
%ADD126R,0.15748X0.15748*%
%ADD127R,0.39016X0.82677*%
*
*
*
*
G04 PC Circuitry*
G04 Layer Name RF-GEN_RF_V2.0_PCB_2019 - circuitry*
%LPD*%
*
*
G04 PC Custom Flashes*
G04 Layer Name RF-GEN_RF_V2.0_PCB_2019 - flashes*
%LPD*%
*
*
G04 PC Circuitry*
G04 Layer Name RF-GEN_RF_V2.0_PCB_2019 - circuitry*
%LPD*%
*
G54D10*
G01X100000Y100000D02*
X100003D01*
X100000Y493701D02*
X100003D01*
X100000D02*
X100003D01*
X1044882D02*
X1044885D01*
G54D11*
X382480Y260827D03*
Y252165D03*
X370669Y260827D03*
Y252165D03*
X382480Y387992D03*
Y396654D03*
X370669Y387992D03*
Y396654D03*
X399213Y261024D03*
Y269685D03*
Y387795D03*
Y379134D03*
X465157Y159449D03*
Y150787D03*
X476969Y159449D03*
Y150787D03*
G54D16*
X564567Y275197D03*
X603937D03*
X564567Y373622D03*
X603937D03*
G54D17*
X373622Y299803D03*
Y349016D03*
G54D18*
X288976Y324409D03*
G54D20*
X526768Y306933D03*
X526787Y341976D03*
X460642Y306917D03*
X460598Y341839D03*
G54D22*
X643390Y359181D03*
X643256Y287689D03*
G54D23*
X761417Y323425D03*
G54D24*
X810630Y363780D03*
Y283071D03*
G54D25*
X431496Y227953D03*
X563780D03*
X433465Y421850D03*
X565748D03*
G54D33*
X127559Y300787D03*
X117559Y290787D03*
X137559D03*
Y310787D03*
X117559D03*
X1025197Y407087D03*
X1035197Y417087D03*
X1015197D03*
Y397087D03*
X1035197D03*
G54D36*
X122638Y371728D03*
G54D37*
Y387328D03*
G54D38*
X427756Y302756D03*
X406102D03*
X427756Y346063D03*
X406102D03*
G54D39*
X430709Y248622D03*
Y270276D03*
Y400197D03*
Y378543D03*
X568504Y335236D03*
Y313583D03*
G54D47*
X546850Y163583D03*
Y136811D03*
X592126Y163583D03*
Y136811D03*
G54D48*
X192362Y393307D03*
X202362Y403307D03*
X212362Y393307D03*
X192362Y251575D03*
X202362Y261575D03*
X212362Y251575D03*
X123622Y206299D03*
G54D49*
X493701Y159150D03*
Y147150D03*
X507480Y159150D03*
Y147150D03*
G54D50*
X772728Y263886D02*
X750106D01*
Y382965*
X772728*
Y263886*
X750307D02*
Y382965D01*
X750807Y263886D02*
Y382965D01*
X751307Y263886D02*
Y382965D01*
X751807Y263886D02*
Y382965D01*
X752307Y263886D02*
Y382965D01*
X752807Y263886D02*
Y382965D01*
X753307Y263886D02*
Y382965D01*
X753807Y263886D02*
Y382965D01*
X754307Y263886D02*
Y382965D01*
X754807Y263886D02*
Y382965D01*
X755307Y263886D02*
Y382965D01*
X755807Y263886D02*
Y382965D01*
X756307Y263886D02*
Y382965D01*
X756807Y263886D02*
Y382965D01*
X757307Y263886D02*
Y382965D01*
X757807Y263886D02*
Y382965D01*
X758307Y263886D02*
Y382965D01*
X758807Y263886D02*
Y382965D01*
X759307Y263886D02*
Y382965D01*
X759807Y263886D02*
Y382965D01*
X760307Y263886D02*
Y382965D01*
X760807Y263886D02*
Y382965D01*
X761307Y263886D02*
Y382965D01*
X761807Y263886D02*
Y382965D01*
X762307Y263886D02*
Y382965D01*
X762807Y263886D02*
Y382965D01*
X763307Y263886D02*
Y382965D01*
X763807Y263886D02*
Y382965D01*
X764307Y263886D02*
Y382965D01*
X764807Y263886D02*
Y382965D01*
X765307Y263886D02*
Y382965D01*
X765807Y263886D02*
Y382965D01*
X766307Y263886D02*
Y382965D01*
X766807Y263886D02*
Y382965D01*
X767307Y263886D02*
Y382965D01*
X767807Y263886D02*
Y382965D01*
X768307Y263886D02*
Y382965D01*
X768807Y263886D02*
Y382965D01*
X769307Y263886D02*
Y382965D01*
X769807Y263886D02*
Y382965D01*
X770307Y263886D02*
Y382965D01*
X770807Y263886D02*
Y382965D01*
X771307Y263886D02*
Y382965D01*
X771807Y263886D02*
Y382965D01*
X772307Y263886D02*
Y382965D01*
X113492Y192313D02*
X117136Y195957D01*
X717903*
X721547Y192313*
Y163199*
X717903Y159555*
X117136*
X113492Y163199*
Y192313*
X763886Y157294D02*
X765561Y155618D01*
X786801*
X788476Y157294*
Y236112*
X772728Y251860*
Y444281*
X771053Y445957*
X743908*
X742232Y444281*
Y245384*
X763886Y223731*
Y157294*
X297350Y141131D02*
X299026Y142807D01*
X667706*
X669382Y141131*
Y104144*
X667706Y102469*
X299026*
X297350Y104144*
Y141131*
X362311Y289183D02*
X363987Y287508D01*
X385226*
X387048Y289330*
X389163Y291445*
X408848*
X410524Y293120*
Y312391*
X408848Y314067*
X363987*
X362311Y312391*
Y289183*
X425303Y312391D02*
X428947Y316035D01*
X467903*
X471547Y312391*
Y300995*
X467903Y297350*
X446250*
X442020Y293120*
Y267823*
X420382*
Y274005*
X425303Y278927*
Y312391*
X362311Y359635D02*
X363987Y361311D01*
X385226*
X387048Y359489*
X389163Y357374*
X408848*
X410524Y355698*
Y336428*
X408848Y334752*
X363987*
X362311Y336428*
Y359635*
X425303Y336428D02*
X428947Y332783D01*
X467903*
X471547Y336428*
Y347824*
X467903Y351469*
X446250*
X442020Y355698*
Y380996*
X420382*
Y374813*
X425303Y369892*
Y336428*
X419398Y220579D02*
X438083D01*
Y249106*
X419398*
Y220579*
X421366Y401681D02*
X440051D01*
Y430209*
X421366*
Y401681*
X515854Y316328D02*
X517530Y318004D01*
X578139*
X579815Y316328*
Y308869*
X578139Y307193*
X574202*
X571941Y304932*
Y222254*
X570265Y220579*
X554932*
X553256Y222254*
Y293120*
X550995Y295382*
X517530*
X515854Y297057*
Y316328*
Y332491D02*
X517530Y330815D01*
X578139*
X579815Y332491*
Y339950*
X578139Y341626*
X574202*
X571941Y343887*
Y426565*
X570265Y428240*
X554932*
X553256Y426565*
Y355698*
X550995Y353437*
X517530*
X515854Y351761*
Y332491*
X596563Y261624D02*
X598239Y259949D01*
X652943*
X654618Y261624*
Y308454*
X652943Y310130*
X633672*
X631996Y308454*
Y292706*
X629735Y290445*
X598239*
X596563Y288769*
Y261624*
Y385226D02*
X598239Y386902D01*
X652943*
X654618Y385226*
Y338396*
X652943Y336720*
X633672*
X631996Y338396*
Y354144*
X629735Y356406*
X598239*
X596563Y358081*
Y385226*
X113492Y191954D02*
X721547D01*
X113492Y191054D02*
X721547D01*
X113492Y190154D02*
X721547D01*
X113492Y189254D02*
X721547D01*
X113492Y188354D02*
X721547D01*
X113492Y187454D02*
X721547D01*
X113492Y186554D02*
X721547D01*
X113492Y185654D02*
X721547D01*
X113492Y184754D02*
X721547D01*
X113492Y183854D02*
X721547D01*
X113492Y182954D02*
X721547D01*
X113492Y182054D02*
X721547D01*
X113492Y181154D02*
X721547D01*
X113492Y180254D02*
X721547D01*
X113492Y179354D02*
X721547D01*
X113492Y178454D02*
X721547D01*
X113492Y177554D02*
X721547D01*
X113492Y176654D02*
X721547D01*
X113492Y175754D02*
X721547D01*
X113492Y174854D02*
X721547D01*
X113492Y173954D02*
X721547D01*
X113492Y173054D02*
X721547D01*
X113492Y172154D02*
X721547D01*
X113492Y171254D02*
X721547D01*
X113492Y170354D02*
X721547D01*
X113492Y169454D02*
X721547D01*
X113492Y168554D02*
X721547D01*
X113492Y167654D02*
X721547D01*
X113492Y166754D02*
X721547D01*
X113492Y165854D02*
X721547D01*
X113492Y164954D02*
X721547D01*
X113492Y164054D02*
X721547D01*
X113538Y163154D02*
X721502D01*
X114033Y192854D02*
X721006D01*
X114438Y162254D02*
X720602D01*
X114933Y193754D02*
X720106D01*
X115338Y161354D02*
X719702D01*
X115833Y194654D02*
X719206D01*
X116238Y160454D02*
X718802D01*
X116733Y195554D02*
X718306D01*
X751900Y235717D02*
X788476D01*
X752800Y234817D02*
X788476D01*
X753700Y233917D02*
X788476D01*
X754600Y233017D02*
X788476D01*
X755500Y232117D02*
X788476D01*
X756400Y231217D02*
X788476D01*
X757300Y230317D02*
X788476D01*
X758200Y229417D02*
X788476D01*
X759100Y228517D02*
X788476D01*
X760000Y227617D02*
X788476D01*
X760900Y226717D02*
X788476D01*
X761800Y225817D02*
X788476D01*
X762700Y224917D02*
X788476D01*
X763600Y224017D02*
X788476D01*
X763886Y223117D02*
X788476D01*
X763886Y222217D02*
X788476D01*
X763886Y221317D02*
X788476D01*
X763886Y220417D02*
X788476D01*
X763886Y219517D02*
X788476D01*
X763886Y218617D02*
X788476D01*
X763886Y217717D02*
X788476D01*
X763886Y216817D02*
X788476D01*
X763886Y215917D02*
X788476D01*
X763886Y215017D02*
X788476D01*
X763886Y214117D02*
X788476D01*
X763886Y213217D02*
X788476D01*
X763886Y212317D02*
X788476D01*
X763886Y211417D02*
X788476D01*
X763886Y210517D02*
X788476D01*
X763886Y209617D02*
X788476D01*
X763886Y208717D02*
X788476D01*
X763886Y207817D02*
X788476D01*
X763886Y206917D02*
X788476D01*
X763886Y206017D02*
X788476D01*
X763886Y205117D02*
X788476D01*
X763886Y204217D02*
X788476D01*
X763886Y203317D02*
X788476D01*
X763886Y202417D02*
X788476D01*
X763886Y201517D02*
X788476D01*
X763886Y200617D02*
X788476D01*
X763886Y199717D02*
X788476D01*
X763886Y198817D02*
X788476D01*
X763886Y197917D02*
X788476D01*
X763886Y197017D02*
X788476D01*
X763886Y196117D02*
X788476D01*
X763886Y195217D02*
X788476D01*
X763886Y194317D02*
X788476D01*
X763886Y193417D02*
X788476D01*
X763886Y192517D02*
X788476D01*
X763886Y191617D02*
X788476D01*
X763886Y190717D02*
X788476D01*
X763886Y189817D02*
X788476D01*
X763886Y188917D02*
X788476D01*
X763886Y188017D02*
X788476D01*
X763886Y187117D02*
X788476D01*
X763886Y186217D02*
X788476D01*
X763886Y185317D02*
X788476D01*
X763886Y184417D02*
X788476D01*
X763886Y183517D02*
X788476D01*
X763886Y182617D02*
X788476D01*
X763886Y181717D02*
X788476D01*
X763886Y180817D02*
X788476D01*
X763886Y179917D02*
X788476D01*
X763886Y179017D02*
X788476D01*
X763886Y178117D02*
X788476D01*
X763886Y177217D02*
X788476D01*
X763886Y176317D02*
X788476D01*
X763886Y175417D02*
X788476D01*
X763886Y174517D02*
X788476D01*
X763886Y173617D02*
X788476D01*
X763886Y172717D02*
X788476D01*
X763886Y171817D02*
X788476D01*
X763886Y170917D02*
X788476D01*
X763886Y170017D02*
X788476D01*
X763886Y169117D02*
X788476D01*
X763886Y168217D02*
X788476D01*
X763886Y167317D02*
X788476D01*
X763886Y166417D02*
X788476D01*
X763886Y165517D02*
X788476D01*
X763886Y164617D02*
X788476D01*
X763886Y163717D02*
X788476D01*
X763886Y162817D02*
X788476D01*
X763886Y161917D02*
X788476D01*
X763886Y161017D02*
X788476D01*
X763886Y160117D02*
X788476D01*
X763886Y159217D02*
X788476D01*
X763886Y158317D02*
X788476D01*
X763886Y157417D02*
X788476D01*
X751000Y236617D02*
X787971D01*
X764663Y156517D02*
X787699D01*
X750100Y237517D02*
X787071D01*
X749200Y238417D02*
X786171D01*
X748300Y239317D02*
X785271D01*
X747400Y240217D02*
X784371D01*
X746500Y241117D02*
X783471D01*
X745600Y242017D02*
X782571D01*
X744700Y242917D02*
X781671D01*
X743800Y243817D02*
X780771D01*
X742900Y244717D02*
X779871D01*
X742232Y245617D02*
X778971D01*
X742232Y246517D02*
X778071D01*
X742232Y247417D02*
X777171D01*
X742232Y248317D02*
X776271D01*
X742232Y249217D02*
X775371D01*
X742232Y250117D02*
X774471D01*
X742232Y251017D02*
X773571D01*
X742232Y443617D02*
X772728D01*
X742232Y442717D02*
X772728D01*
X742232Y441817D02*
X772728D01*
X742232Y440917D02*
X772728D01*
X742232Y440017D02*
X772728D01*
X742232Y439117D02*
X772728D01*
X742232Y438217D02*
X772728D01*
X742232Y437317D02*
X772728D01*
X742232Y436417D02*
X772728D01*
X742232Y435517D02*
X772728D01*
X742232Y434617D02*
X772728D01*
X742232Y433717D02*
X772728D01*
X742232Y432817D02*
X772728D01*
X742232Y431917D02*
X772728D01*
X742232Y431017D02*
X772728D01*
X742232Y430117D02*
X772728D01*
X742232Y429217D02*
X772728D01*
X742232Y428317D02*
X772728D01*
X742232Y427417D02*
X772728D01*
X742232Y426517D02*
X772728D01*
X742232Y425617D02*
X772728D01*
X742232Y424717D02*
X772728D01*
X742232Y423817D02*
X772728D01*
X742232Y422917D02*
X772728D01*
X742232Y422017D02*
X772728D01*
X742232Y421117D02*
X772728D01*
X742232Y420217D02*
X772728D01*
X742232Y419317D02*
X772728D01*
X742232Y418417D02*
X772728D01*
X742232Y417517D02*
X772728D01*
X742232Y416617D02*
X772728D01*
X742232Y415717D02*
X772728D01*
X742232Y414817D02*
X772728D01*
X742232Y413917D02*
X772728D01*
X742232Y413017D02*
X772728D01*
X742232Y412117D02*
X772728D01*
X742232Y411217D02*
X772728D01*
X742232Y410317D02*
X772728D01*
X742232Y409417D02*
X772728D01*
X742232Y408517D02*
X772728D01*
X742232Y407617D02*
X772728D01*
X742232Y406717D02*
X772728D01*
X742232Y405817D02*
X772728D01*
X742232Y404917D02*
X772728D01*
X742232Y404017D02*
X772728D01*
X742232Y403117D02*
X772728D01*
X742232Y402217D02*
X772728D01*
X742232Y401317D02*
X772728D01*
X742232Y400417D02*
X772728D01*
X742232Y399517D02*
X772728D01*
X742232Y398617D02*
X772728D01*
X742232Y397717D02*
X772728D01*
X742232Y396817D02*
X772728D01*
X742232Y395917D02*
X772728D01*
X742232Y395017D02*
X772728D01*
X742232Y394117D02*
X772728D01*
X742232Y393217D02*
X772728D01*
X742232Y392317D02*
X772728D01*
X742232Y391417D02*
X772728D01*
X742232Y390517D02*
X772728D01*
X742232Y389617D02*
X772728D01*
X742232Y388717D02*
X772728D01*
X742232Y387817D02*
X772728D01*
X742232Y386917D02*
X772728D01*
X742232Y386017D02*
X772728D01*
X742232Y385117D02*
X772728D01*
X742232Y384217D02*
X772728D01*
X742232Y383317D02*
X772728D01*
X742232Y382417D02*
X772728D01*
X742232Y381517D02*
X772728D01*
X742232Y380617D02*
X772728D01*
X742232Y379717D02*
X772728D01*
X742232Y378817D02*
X772728D01*
X742232Y377917D02*
X772728D01*
X742232Y377017D02*
X772728D01*
X742232Y376117D02*
X772728D01*
X742232Y375217D02*
X772728D01*
X742232Y374317D02*
X772728D01*
X742232Y373417D02*
X772728D01*
X742232Y372517D02*
X772728D01*
X742232Y371617D02*
X772728D01*
X742232Y370717D02*
X772728D01*
X742232Y369817D02*
X772728D01*
X742232Y368917D02*
X772728D01*
X742232Y368017D02*
X772728D01*
X742232Y367117D02*
X772728D01*
X742232Y366217D02*
X772728D01*
X742232Y365317D02*
X772728D01*
X742232Y364417D02*
X772728D01*
X742232Y363517D02*
X772728D01*
X742232Y362617D02*
X772728D01*
X742232Y361717D02*
X772728D01*
X742232Y360817D02*
X772728D01*
X742232Y359917D02*
X772728D01*
X742232Y359017D02*
X772728D01*
X742232Y358117D02*
X772728D01*
X742232Y357217D02*
X772728D01*
X742232Y356317D02*
X772728D01*
X742232Y355417D02*
X772728D01*
X742232Y354517D02*
X772728D01*
X742232Y353617D02*
X772728D01*
X742232Y352717D02*
X772728D01*
X742232Y351817D02*
X772728D01*
X742232Y350917D02*
X772728D01*
X742232Y350017D02*
X772728D01*
X742232Y349117D02*
X772728D01*
X742232Y348217D02*
X772728D01*
X742232Y347317D02*
X772728D01*
X742232Y346417D02*
X772728D01*
X742232Y345517D02*
X772728D01*
X742232Y344617D02*
X772728D01*
X742232Y343717D02*
X772728D01*
X742232Y342817D02*
X772728D01*
X742232Y341917D02*
X772728D01*
X742232Y341017D02*
X772728D01*
X742232Y340117D02*
X772728D01*
X742232Y339217D02*
X772728D01*
X742232Y338317D02*
X772728D01*
X742232Y337417D02*
X772728D01*
X742232Y336517D02*
X772728D01*
X742232Y335617D02*
X772728D01*
X742232Y334717D02*
X772728D01*
X742232Y333817D02*
X772728D01*
X742232Y332917D02*
X772728D01*
X742232Y332017D02*
X772728D01*
X742232Y331117D02*
X772728D01*
X742232Y330217D02*
X772728D01*
X742232Y329317D02*
X772728D01*
X742232Y328417D02*
X772728D01*
X742232Y327517D02*
X772728D01*
X742232Y326617D02*
X772728D01*
X742232Y325717D02*
X772728D01*
X742232Y324817D02*
X772728D01*
X742232Y323917D02*
X772728D01*
X742232Y323017D02*
X772728D01*
X742232Y322117D02*
X772728D01*
X742232Y321217D02*
X772728D01*
X742232Y320317D02*
X772728D01*
X742232Y319417D02*
X772728D01*
X742232Y318517D02*
X772728D01*
X742232Y317617D02*
X772728D01*
X742232Y316717D02*
X772728D01*
X742232Y315817D02*
X772728D01*
X742232Y314917D02*
X772728D01*
X742232Y314017D02*
X772728D01*
X742232Y313117D02*
X772728D01*
X742232Y312217D02*
X772728D01*
X742232Y311317D02*
X772728D01*
X742232Y310417D02*
X772728D01*
X742232Y309517D02*
X772728D01*
X742232Y308617D02*
X772728D01*
X742232Y307717D02*
X772728D01*
X742232Y306817D02*
X772728D01*
X742232Y305917D02*
X772728D01*
X742232Y305017D02*
X772728D01*
X742232Y304117D02*
X772728D01*
X742232Y303217D02*
X772728D01*
X742232Y302317D02*
X772728D01*
X742232Y301417D02*
X772728D01*
X742232Y300517D02*
X772728D01*
X742232Y299617D02*
X772728D01*
X742232Y298717D02*
X772728D01*
X742232Y297817D02*
X772728D01*
X742232Y296917D02*
X772728D01*
X742232Y296017D02*
X772728D01*
X742232Y295117D02*
X772728D01*
X742232Y294217D02*
X772728D01*
X742232Y293317D02*
X772728D01*
X742232Y292417D02*
X772728D01*
X742232Y291517D02*
X772728D01*
X742232Y290617D02*
X772728D01*
X742232Y289717D02*
X772728D01*
X742232Y288817D02*
X772728D01*
X742232Y287917D02*
X772728D01*
X742232Y287017D02*
X772728D01*
X742232Y286117D02*
X772728D01*
X742232Y285217D02*
X772728D01*
X742232Y284317D02*
X772728D01*
X742232Y283417D02*
X772728D01*
X742232Y282517D02*
X772728D01*
X742232Y281617D02*
X772728D01*
X742232Y280717D02*
X772728D01*
X742232Y279817D02*
X772728D01*
X742232Y278917D02*
X772728D01*
X742232Y278017D02*
X772728D01*
X742232Y277117D02*
X772728D01*
X742232Y276217D02*
X772728D01*
X742232Y275317D02*
X772728D01*
X742232Y274417D02*
X772728D01*
X742232Y273517D02*
X772728D01*
X742232Y272617D02*
X772728D01*
X742232Y271717D02*
X772728D01*
X742232Y270817D02*
X772728D01*
X742232Y269917D02*
X772728D01*
X742232Y269017D02*
X772728D01*
X742232Y268117D02*
X772728D01*
X742232Y267217D02*
X772728D01*
X742232Y266317D02*
X772728D01*
X742232Y265417D02*
X772728D01*
X742232Y264517D02*
X772728D01*
X742232Y263617D02*
X772728D01*
X742232Y262717D02*
X772728D01*
X742232Y261817D02*
X772728D01*
X742232Y260917D02*
X772728D01*
X742232Y260017D02*
X772728D01*
X742232Y259117D02*
X772728D01*
X742232Y258217D02*
X772728D01*
X742232Y257317D02*
X772728D01*
X742232Y256417D02*
X772728D01*
X742232Y255517D02*
X772728D01*
X742232Y254617D02*
X772728D01*
X742232Y253717D02*
X772728D01*
X742232Y252817D02*
X772728D01*
X742232Y251917D02*
X772728D01*
X742468Y444517D02*
X772493D01*
X743368Y445417D02*
X771593D01*
X297350Y140267D02*
X669382D01*
X297350Y139367D02*
X669382D01*
X297350Y138467D02*
X669382D01*
X297350Y137567D02*
X669382D01*
X297350Y136667D02*
X669382D01*
X297350Y135767D02*
X669382D01*
X297350Y134867D02*
X669382D01*
X297350Y133967D02*
X669382D01*
X297350Y133067D02*
X669382D01*
X297350Y132167D02*
X669382D01*
X297350Y131267D02*
X669382D01*
X297350Y130367D02*
X669382D01*
X297350Y129467D02*
X669382D01*
X297350Y128567D02*
X669382D01*
X297350Y127667D02*
X669382D01*
X297350Y126767D02*
X669382D01*
X297350Y125867D02*
X669382D01*
X297350Y124967D02*
X669382D01*
X297350Y124067D02*
X669382D01*
X297350Y123167D02*
X669382D01*
X297350Y122267D02*
X669382D01*
X297350Y121367D02*
X669382D01*
X297350Y120467D02*
X669382D01*
X297350Y119567D02*
X669382D01*
X297350Y118667D02*
X669382D01*
X297350Y117767D02*
X669382D01*
X297350Y116867D02*
X669382D01*
X297350Y115967D02*
X669382D01*
X297350Y115067D02*
X669382D01*
X297350Y114167D02*
X669382D01*
X297350Y113267D02*
X669382D01*
X297350Y112367D02*
X669382D01*
X297350Y111467D02*
X669382D01*
X297350Y110567D02*
X669382D01*
X297350Y109667D02*
X669382D01*
X297350Y108767D02*
X669382D01*
X297350Y107867D02*
X669382D01*
X297350Y106967D02*
X669382D01*
X297350Y106067D02*
X669382D01*
X297350Y105167D02*
X669382D01*
X297350Y104267D02*
X669382D01*
X297386Y141167D02*
X669346D01*
X298127Y103367D02*
X668605D01*
X298286Y142067D02*
X668446D01*
X362311Y311807D02*
X410524D01*
X362311Y310907D02*
X410524D01*
X362311Y310007D02*
X410524D01*
X362311Y309107D02*
X410524D01*
X362311Y308207D02*
X410524D01*
X362311Y307307D02*
X410524D01*
X362311Y306407D02*
X410524D01*
X362311Y305507D02*
X410524D01*
X362311Y304607D02*
X410524D01*
X362311Y303707D02*
X410524D01*
X362311Y302807D02*
X410524D01*
X362311Y301907D02*
X410524D01*
X362311Y301007D02*
X410524D01*
X362311Y300107D02*
X410524D01*
X362311Y299207D02*
X410524D01*
X362311Y298307D02*
X410524D01*
X362311Y297407D02*
X410524D01*
X362311Y296507D02*
X410524D01*
X362311Y295607D02*
X410524D01*
X362311Y294707D02*
X410524D01*
X362311Y293807D02*
X410524D01*
X362311Y292907D02*
X410310D01*
X362626Y312707D02*
X410208D01*
X362311Y292007D02*
X409410D01*
X363526Y313607D02*
X409308D01*
X362311Y291107D02*
X388825D01*
X362311Y290207D02*
X387925D01*
X362311Y289307D02*
X387025D01*
X363088Y288407D02*
X386125D01*
X425303Y311922D02*
X471547D01*
X425303Y311022D02*
X471547D01*
X425303Y310122D02*
X471547D01*
X425303Y309222D02*
X471547D01*
X425303Y308322D02*
X471547D01*
X425303Y307422D02*
X471547D01*
X425303Y306522D02*
X471547D01*
X425303Y305622D02*
X471547D01*
X425303Y304722D02*
X471547D01*
X425303Y303822D02*
X471547D01*
X425303Y302922D02*
X471547D01*
X425303Y302022D02*
X471547D01*
X425303Y301122D02*
X471547D01*
X425733Y312822D02*
X471117D01*
X425303Y300222D02*
X470774D01*
X426633Y313722D02*
X470217D01*
X425303Y299322D02*
X469874D01*
X427533Y314622D02*
X469317D01*
X425303Y298422D02*
X468974D01*
X428433Y315522D02*
X468417D01*
X425303Y297522D02*
X468074D01*
X425303Y296622D02*
X445521D01*
X425303Y295722D02*
X444621D01*
X425303Y294822D02*
X443721D01*
X425303Y293922D02*
X442821D01*
X425303Y293022D02*
X442020D01*
X425303Y292122D02*
X442020D01*
X425303Y291222D02*
X442020D01*
X425303Y290322D02*
X442020D01*
X425303Y289422D02*
X442020D01*
X425303Y288522D02*
X442020D01*
X425303Y287622D02*
X442020D01*
X425303Y286722D02*
X442020D01*
X425303Y285822D02*
X442020D01*
X425303Y284922D02*
X442020D01*
X425303Y284022D02*
X442020D01*
X425303Y283122D02*
X442020D01*
X425303Y282222D02*
X442020D01*
X425303Y281322D02*
X442020D01*
X425303Y280422D02*
X442020D01*
X425303Y279522D02*
X442020D01*
X424998Y278622D02*
X442020D01*
X424098Y277722D02*
X442020D01*
X423198Y276822D02*
X442020D01*
X422298Y275922D02*
X442020D01*
X421398Y275022D02*
X442020D01*
X420498Y274122D02*
X442020D01*
X420382Y273222D02*
X442020D01*
X420382Y272322D02*
X442020D01*
X420382Y271422D02*
X442020D01*
X420382Y270522D02*
X442020D01*
X420382Y269622D02*
X442020D01*
X420382Y268722D02*
X442020D01*
X362311Y355451D02*
X410524D01*
X362311Y354551D02*
X410524D01*
X362311Y353651D02*
X410524D01*
X362311Y352751D02*
X410524D01*
X362311Y351851D02*
X410524D01*
X362311Y350951D02*
X410524D01*
X362311Y350051D02*
X410524D01*
X362311Y349151D02*
X410524D01*
X362311Y348251D02*
X410524D01*
X362311Y347351D02*
X410524D01*
X362311Y346451D02*
X410524D01*
X362311Y345551D02*
X410524D01*
X362311Y344651D02*
X410524D01*
X362311Y343751D02*
X410524D01*
X362311Y342851D02*
X410524D01*
X362311Y341951D02*
X410524D01*
X362311Y341051D02*
X410524D01*
X362311Y340151D02*
X410524D01*
X362311Y339251D02*
X410524D01*
X362311Y338351D02*
X410524D01*
X362311Y337451D02*
X410524D01*
X362311Y336551D02*
X410524D01*
X362311Y356351D02*
X409871D01*
X363088Y335651D02*
X409747D01*
X362311Y357251D02*
X408971D01*
X362311Y358151D02*
X388386D01*
X362311Y359051D02*
X387486D01*
X362626Y359951D02*
X386586D01*
X363526Y360851D02*
X385686D01*
X425303Y347182D02*
X471547D01*
X425303Y346282D02*
X471547D01*
X425303Y345382D02*
X471547D01*
X425303Y344482D02*
X471547D01*
X425303Y343582D02*
X471547D01*
X425303Y342682D02*
X471547D01*
X425303Y341782D02*
X471547D01*
X425303Y340882D02*
X471547D01*
X425303Y339982D02*
X471547D01*
X425303Y339082D02*
X471547D01*
X425303Y338182D02*
X471547D01*
X425303Y337282D02*
X471547D01*
X425349Y336382D02*
X471502D01*
X425303Y348082D02*
X471289D01*
X426249Y335482D02*
X470602D01*
X425303Y348982D02*
X470389D01*
X427149Y334582D02*
X469702D01*
X425303Y349882D02*
X469489D01*
X428049Y333682D02*
X468802D01*
X425303Y350782D02*
X468589D01*
X425303Y351682D02*
X446036D01*
X425303Y352582D02*
X445136D01*
X425303Y353482D02*
X444236D01*
X425303Y354382D02*
X443336D01*
X425303Y355282D02*
X442436D01*
X420382Y380482D02*
X442020D01*
X420382Y379582D02*
X442020D01*
X420382Y378682D02*
X442020D01*
X420382Y377782D02*
X442020D01*
X420382Y376882D02*
X442020D01*
X420382Y375982D02*
X442020D01*
X420382Y375082D02*
X442020D01*
X421013Y374182D02*
X442020D01*
X421913Y373282D02*
X442020D01*
X422813Y372382D02*
X442020D01*
X423713Y371482D02*
X442020D01*
X424613Y370582D02*
X442020D01*
X425303Y369682D02*
X442020D01*
X425303Y368782D02*
X442020D01*
X425303Y367882D02*
X442020D01*
X425303Y366982D02*
X442020D01*
X425303Y366082D02*
X442020D01*
X425303Y365182D02*
X442020D01*
X425303Y364282D02*
X442020D01*
X425303Y363382D02*
X442020D01*
X425303Y362482D02*
X442020D01*
X425303Y361582D02*
X442020D01*
X425303Y360682D02*
X442020D01*
X425303Y359782D02*
X442020D01*
X425303Y358882D02*
X442020D01*
X425303Y357982D02*
X442020D01*
X425303Y357082D02*
X442020D01*
X425303Y356182D02*
X442020D01*
X419398Y248477D02*
X438083D01*
X419398Y247577D02*
X438083D01*
X419398Y246677D02*
X438083D01*
X419398Y245777D02*
X438083D01*
X419398Y244877D02*
X438083D01*
X419398Y243977D02*
X438083D01*
X419398Y243077D02*
X438083D01*
X419398Y242177D02*
X438083D01*
X419398Y241277D02*
X438083D01*
X419398Y240377D02*
X438083D01*
X419398Y239477D02*
X438083D01*
X419398Y238577D02*
X438083D01*
X419398Y237677D02*
X438083D01*
X419398Y236777D02*
X438083D01*
X419398Y235877D02*
X438083D01*
X419398Y234977D02*
X438083D01*
X419398Y234077D02*
X438083D01*
X419398Y233177D02*
X438083D01*
X419398Y232277D02*
X438083D01*
X419398Y231377D02*
X438083D01*
X419398Y230477D02*
X438083D01*
X419398Y229577D02*
X438083D01*
X419398Y228677D02*
X438083D01*
X419398Y227777D02*
X438083D01*
X419398Y226877D02*
X438083D01*
X419398Y225977D02*
X438083D01*
X419398Y225077D02*
X438083D01*
X419398Y224177D02*
X438083D01*
X419398Y223277D02*
X438083D01*
X419398Y222377D02*
X438083D01*
X419398Y221477D02*
X438083D01*
X421366Y429580D02*
X440051D01*
X421366Y428680D02*
X440051D01*
X421366Y427780D02*
X440051D01*
X421366Y426880D02*
X440051D01*
X421366Y425980D02*
X440051D01*
X421366Y425080D02*
X440051D01*
X421366Y424180D02*
X440051D01*
X421366Y423280D02*
X440051D01*
X421366Y422380D02*
X440051D01*
X421366Y421480D02*
X440051D01*
X421366Y420580D02*
X440051D01*
X421366Y419680D02*
X440051D01*
X421366Y418780D02*
X440051D01*
X421366Y417880D02*
X440051D01*
X421366Y416980D02*
X440051D01*
X421366Y416080D02*
X440051D01*
X421366Y415180D02*
X440051D01*
X421366Y414280D02*
X440051D01*
X421366Y413380D02*
X440051D01*
X421366Y412480D02*
X440051D01*
X421366Y411580D02*
X440051D01*
X421366Y410680D02*
X440051D01*
X421366Y409780D02*
X440051D01*
X421366Y408880D02*
X440051D01*
X421366Y407980D02*
X440051D01*
X421366Y407080D02*
X440051D01*
X421366Y406180D02*
X440051D01*
X421366Y405280D02*
X440051D01*
X421366Y404380D02*
X440051D01*
X421366Y403480D02*
X440051D01*
X421366Y402580D02*
X440051D01*
X515854Y315977D02*
X579815D01*
X515854Y315077D02*
X579815D01*
X515854Y314177D02*
X579815D01*
X515854Y313277D02*
X579815D01*
X515854Y312377D02*
X579815D01*
X515854Y311477D02*
X579815D01*
X515854Y310577D02*
X579815D01*
X515854Y309677D02*
X579815D01*
X515854Y308777D02*
X579724D01*
X516403Y316877D02*
X579266D01*
X515854Y307877D02*
X578824D01*
X517303Y317777D02*
X578366D01*
X515854Y306977D02*
X573987D01*
X515854Y306077D02*
X573087D01*
X515854Y305177D02*
X572187D01*
X515854Y304277D02*
X571941D01*
X515854Y303377D02*
X571941D01*
X515854Y302477D02*
X571941D01*
X515854Y301577D02*
X571941D01*
X515854Y300677D02*
X571941D01*
X515854Y299777D02*
X571941D01*
X515854Y298877D02*
X571941D01*
X515854Y297977D02*
X571941D01*
X515854Y297077D02*
X571941D01*
X516734Y296177D02*
X571941D01*
X551099Y295277D02*
X571941D01*
X551999Y294377D02*
X571941D01*
X552899Y293477D02*
X571941D01*
X553256Y292577D02*
X571941D01*
X553256Y291677D02*
X571941D01*
X553256Y290777D02*
X571941D01*
X553256Y289877D02*
X571941D01*
X553256Y288977D02*
X571941D01*
X553256Y288077D02*
X571941D01*
X553256Y287177D02*
X571941D01*
X553256Y286277D02*
X571941D01*
X553256Y285377D02*
X571941D01*
X553256Y284477D02*
X571941D01*
X553256Y283577D02*
X571941D01*
X553256Y282677D02*
X571941D01*
X553256Y281777D02*
X571941D01*
X553256Y280877D02*
X571941D01*
X553256Y279977D02*
X571941D01*
X553256Y279077D02*
X571941D01*
X553256Y278177D02*
X571941D01*
X553256Y277277D02*
X571941D01*
X553256Y276377D02*
X571941D01*
X553256Y275477D02*
X571941D01*
X553256Y274577D02*
X571941D01*
X553256Y273677D02*
X571941D01*
X553256Y272777D02*
X571941D01*
X553256Y271877D02*
X571941D01*
X553256Y270977D02*
X571941D01*
X553256Y270077D02*
X571941D01*
X553256Y269177D02*
X571941D01*
X553256Y268277D02*
X571941D01*
X553256Y267377D02*
X571941D01*
X553256Y266477D02*
X571941D01*
X553256Y265577D02*
X571941D01*
X553256Y264677D02*
X571941D01*
X553256Y263777D02*
X571941D01*
X553256Y262877D02*
X571941D01*
X553256Y261977D02*
X571941D01*
X553256Y261077D02*
X571941D01*
X553256Y260177D02*
X571941D01*
X553256Y259277D02*
X571941D01*
X553256Y258377D02*
X571941D01*
X553256Y257477D02*
X571941D01*
X553256Y256577D02*
X571941D01*
X553256Y255677D02*
X571941D01*
X553256Y254777D02*
X571941D01*
X553256Y253877D02*
X571941D01*
X553256Y252977D02*
X571941D01*
X553256Y252077D02*
X571941D01*
X553256Y251177D02*
X571941D01*
X553256Y250277D02*
X571941D01*
X553256Y249377D02*
X571941D01*
X553256Y248477D02*
X571941D01*
X553256Y247577D02*
X571941D01*
X553256Y246677D02*
X571941D01*
X553256Y245777D02*
X571941D01*
X553256Y244877D02*
X571941D01*
X553256Y243977D02*
X571941D01*
X553256Y243077D02*
X571941D01*
X553256Y242177D02*
X571941D01*
X553256Y241277D02*
X571941D01*
X553256Y240377D02*
X571941D01*
X553256Y239477D02*
X571941D01*
X553256Y238577D02*
X571941D01*
X553256Y237677D02*
X571941D01*
X553256Y236777D02*
X571941D01*
X553256Y235877D02*
X571941D01*
X553256Y234977D02*
X571941D01*
X553256Y234077D02*
X571941D01*
X553256Y233177D02*
X571941D01*
X553256Y232277D02*
X571941D01*
X553256Y231377D02*
X571941D01*
X553256Y230477D02*
X571941D01*
X553256Y229577D02*
X571941D01*
X553256Y228677D02*
X571941D01*
X553256Y227777D02*
X571941D01*
X553256Y226877D02*
X571941D01*
X553256Y225977D02*
X571941D01*
X553256Y225077D02*
X571941D01*
X553256Y224177D02*
X571941D01*
X553256Y223277D02*
X571941D01*
X553256Y222377D02*
X571941D01*
X554033Y221477D02*
X571164D01*
X515854Y339814D02*
X579815D01*
X515854Y338914D02*
X579815D01*
X515854Y338014D02*
X579815D01*
X515854Y337114D02*
X579815D01*
X515854Y336214D02*
X579815D01*
X515854Y335314D02*
X579815D01*
X515854Y334414D02*
X579815D01*
X515854Y333514D02*
X579815D01*
X515854Y332614D02*
X579815D01*
X515854Y340714D02*
X579052D01*
X516631Y331714D02*
X579038D01*
X515854Y341614D02*
X578152D01*
X515854Y342514D02*
X573315D01*
X515854Y343414D02*
X572415D01*
X553256Y426214D02*
X571941D01*
X553256Y425314D02*
X571941D01*
X553256Y424414D02*
X571941D01*
X553256Y423514D02*
X571941D01*
X553256Y422614D02*
X571941D01*
X553256Y421714D02*
X571941D01*
X553256Y420814D02*
X571941D01*
X553256Y419914D02*
X571941D01*
X553256Y419014D02*
X571941D01*
X553256Y418114D02*
X571941D01*
X553256Y417214D02*
X571941D01*
X553256Y416314D02*
X571941D01*
X553256Y415414D02*
X571941D01*
X553256Y414514D02*
X571941D01*
X553256Y413614D02*
X571941D01*
X553256Y412714D02*
X571941D01*
X553256Y411814D02*
X571941D01*
X553256Y410914D02*
X571941D01*
X553256Y410014D02*
X571941D01*
X553256Y409114D02*
X571941D01*
X553256Y408214D02*
X571941D01*
X553256Y407314D02*
X571941D01*
X553256Y406414D02*
X571941D01*
X553256Y405514D02*
X571941D01*
X553256Y404614D02*
X571941D01*
X553256Y403714D02*
X571941D01*
X553256Y402814D02*
X571941D01*
X553256Y401914D02*
X571941D01*
X553256Y401014D02*
X571941D01*
X553256Y400114D02*
X571941D01*
X553256Y399214D02*
X571941D01*
X553256Y398314D02*
X571941D01*
X553256Y397414D02*
X571941D01*
X553256Y396514D02*
X571941D01*
X553256Y395614D02*
X571941D01*
X553256Y394714D02*
X571941D01*
X553256Y393814D02*
X571941D01*
X553256Y392914D02*
X571941D01*
X553256Y392014D02*
X571941D01*
X553256Y391114D02*
X571941D01*
X553256Y390214D02*
X571941D01*
X553256Y389314D02*
X571941D01*
X553256Y388414D02*
X571941D01*
X553256Y387514D02*
X571941D01*
X553256Y386614D02*
X571941D01*
X553256Y385714D02*
X571941D01*
X553256Y384814D02*
X571941D01*
X553256Y383914D02*
X571941D01*
X553256Y383014D02*
X571941D01*
X553256Y382114D02*
X571941D01*
X553256Y381214D02*
X571941D01*
X553256Y380314D02*
X571941D01*
X553256Y379414D02*
X571941D01*
X553256Y378514D02*
X571941D01*
X553256Y377614D02*
X571941D01*
X553256Y376714D02*
X571941D01*
X553256Y375814D02*
X571941D01*
X553256Y374914D02*
X571941D01*
X553256Y374014D02*
X571941D01*
X553256Y373114D02*
X571941D01*
X553256Y372214D02*
X571941D01*
X553256Y371314D02*
X571941D01*
X553256Y370414D02*
X571941D01*
X553256Y369514D02*
X571941D01*
X553256Y368614D02*
X571941D01*
X553256Y367714D02*
X571941D01*
X553256Y366814D02*
X571941D01*
X553256Y365914D02*
X571941D01*
X553256Y365014D02*
X571941D01*
X553256Y364114D02*
X571941D01*
X553256Y363214D02*
X571941D01*
X553256Y362314D02*
X571941D01*
X553256Y361414D02*
X571941D01*
X553256Y360514D02*
X571941D01*
X553256Y359614D02*
X571941D01*
X553256Y358714D02*
X571941D01*
X553256Y357814D02*
X571941D01*
X553256Y356914D02*
X571941D01*
X553256Y356014D02*
X571941D01*
X552671Y355114D02*
X571941D01*
X551771Y354214D02*
X571941D01*
X517407Y353314D02*
X571941D01*
X516507Y352414D02*
X571941D01*
X515854Y351514D02*
X571941D01*
X515854Y350614D02*
X571941D01*
X515854Y349714D02*
X571941D01*
X515854Y348814D02*
X571941D01*
X515854Y347914D02*
X571941D01*
X515854Y347014D02*
X571941D01*
X515854Y346114D02*
X571941D01*
X515854Y345214D02*
X571941D01*
X515854Y344314D02*
X571941D01*
X553805Y427114D02*
X571392D01*
X554705Y428014D02*
X570492D01*
X631996Y307648D02*
X654618D01*
X631996Y306748D02*
X654618D01*
X631996Y305848D02*
X654618D01*
X631996Y304948D02*
X654618D01*
X631996Y304048D02*
X654618D01*
X631996Y303148D02*
X654618D01*
X631996Y302248D02*
X654618D01*
X631996Y301348D02*
X654618D01*
X631996Y300448D02*
X654618D01*
X631996Y299548D02*
X654618D01*
X631996Y298648D02*
X654618D01*
X631996Y297748D02*
X654618D01*
X631996Y296848D02*
X654618D01*
X631996Y295948D02*
X654618D01*
X631996Y295048D02*
X654618D01*
X631996Y294148D02*
X654618D01*
X631996Y293248D02*
X654618D01*
X631637Y292348D02*
X654618D01*
X630737Y291448D02*
X654618D01*
X629837Y290548D02*
X654618D01*
X597441Y289648D02*
X654618D01*
X596563Y288748D02*
X654618D01*
X596563Y287848D02*
X654618D01*
X596563Y286948D02*
X654618D01*
X596563Y286048D02*
X654618D01*
X596563Y285148D02*
X654618D01*
X596563Y284248D02*
X654618D01*
X596563Y283348D02*
X654618D01*
X596563Y282448D02*
X654618D01*
X596563Y281548D02*
X654618D01*
X596563Y280648D02*
X654618D01*
X596563Y279748D02*
X654618D01*
X596563Y278848D02*
X654618D01*
X596563Y277948D02*
X654618D01*
X596563Y277048D02*
X654618D01*
X596563Y276148D02*
X654618D01*
X596563Y275248D02*
X654618D01*
X596563Y274348D02*
X654618D01*
X596563Y273448D02*
X654618D01*
X596563Y272548D02*
X654618D01*
X596563Y271648D02*
X654618D01*
X596563Y270748D02*
X654618D01*
X596563Y269848D02*
X654618D01*
X596563Y268948D02*
X654618D01*
X596563Y268048D02*
X654618D01*
X596563Y267148D02*
X654618D01*
X596563Y266248D02*
X654618D01*
X596563Y265348D02*
X654618D01*
X596563Y264448D02*
X654618D01*
X596563Y263548D02*
X654618D01*
X596563Y262648D02*
X654618D01*
X596563Y261748D02*
X654618D01*
X632089Y308548D02*
X654525D01*
X597340Y260848D02*
X653841D01*
X632989Y309448D02*
X653625D01*
X596563Y384419D02*
X654618D01*
X596563Y383519D02*
X654618D01*
X596563Y382619D02*
X654618D01*
X596563Y381719D02*
X654618D01*
X596563Y380819D02*
X654618D01*
X596563Y379919D02*
X654618D01*
X596563Y379019D02*
X654618D01*
X596563Y378119D02*
X654618D01*
X596563Y377219D02*
X654618D01*
X596563Y376319D02*
X654618D01*
X596563Y375419D02*
X654618D01*
X596563Y374519D02*
X654618D01*
X596563Y373619D02*
X654618D01*
X596563Y372719D02*
X654618D01*
X596563Y371819D02*
X654618D01*
X596563Y370919D02*
X654618D01*
X596563Y370019D02*
X654618D01*
X596563Y369119D02*
X654618D01*
X596563Y368219D02*
X654618D01*
X596563Y367319D02*
X654618D01*
X596563Y366419D02*
X654618D01*
X596563Y365519D02*
X654618D01*
X596563Y364619D02*
X654618D01*
X596563Y363719D02*
X654618D01*
X596563Y362819D02*
X654618D01*
X596563Y361919D02*
X654618D01*
X596563Y361019D02*
X654618D01*
X596563Y360119D02*
X654618D01*
X596563Y359219D02*
X654618D01*
X596563Y358319D02*
X654618D01*
X597225Y357419D02*
X654618D01*
X598125Y356519D02*
X654618D01*
X630521Y355619D02*
X654618D01*
X631421Y354719D02*
X654618D01*
X631996Y353819D02*
X654618D01*
X631996Y352919D02*
X654618D01*
X631996Y352019D02*
X654618D01*
X631996Y351119D02*
X654618D01*
X631996Y350219D02*
X654618D01*
X631996Y349319D02*
X654618D01*
X631996Y348419D02*
X654618D01*
X631996Y347519D02*
X654618D01*
X631996Y346619D02*
X654618D01*
X631996Y345719D02*
X654618D01*
X631996Y344819D02*
X654618D01*
X631996Y343919D02*
X654618D01*
X631996Y343019D02*
X654618D01*
X631996Y342119D02*
X654618D01*
X631996Y341219D02*
X654618D01*
X631996Y340319D02*
X654618D01*
X631996Y339419D02*
X654618D01*
X631996Y338519D02*
X654618D01*
X596656Y385319D02*
X654525D01*
X632773Y337619D02*
X653841D01*
X597556Y386219D02*
X653625D01*
X1040658Y119685D02*
G75*
G03X1040658I-15461J0D01*
G01X1034161Y344094D02*
G03X1034161I-5027J0D01*
G01X1040658Y474016D02*
G03X1040658I-15461J0D01*
G01X988538Y214173D02*
G03X988538I-8617J0D01*
G01X984358Y251575D02*
G03X984358I-14279J0D01*
G01Y310630D02*
G03X984358I-14279J0D01*
G01X990854Y395276D02*
G03X990854I-5027J0D01*
G01X992475Y416929D02*
G03X992475I-8617J0D01*
G01X989476Y452146D02*
G03X989476I-5618J0D01*
G01X970579Y401181D02*
G03X970579I-14280J0D01*
G01X911524Y174803D02*
G03X911524I-14280J0D01*
G01Y401181D02*
G03X911524I-14280J0D01*
G01X868413Y125807D02*
G03X868413I-5618J0D01*
G01X871412Y161024D02*
G03X871412I-8617J0D01*
G01X874364Y411024D02*
G03X874364I-8616J0D01*
G01Y438583D02*
G03X874364I-8616J0D01*
G01X842232Y183661D02*
G03X842232I-5027J0D01*
G01X805815Y115748D02*
G03X805815I-5028J0D01*
G01X706012Y119685D02*
G03X706012I-15461J0D01*
G01X292626D02*
G03X292626I-15461J0D01*
G01X135146D02*
G03X135146I-15461J0D01*
G01X836150Y411024D02*
G03X836150I-5619J0D01*
G01Y438583D02*
G03X836150I-5619J0D01*
G01X706012Y474016D02*
G03X706012I-15461J0D01*
G01X668610Y462205D02*
G03X668610I-17429J0D01*
G01X333965D02*
G03X333965I-17430J0D01*
G01X292626Y474016D02*
G03X292626I-15461J0D01*
G01X217587Y251575D02*
G03X217587I-5225J0D01*
G01X197587D02*
G03X197587I-5225J0D01*
G01X207587Y261575D02*
G03X207587I-5225J0D01*
G01X217587Y393307D02*
G03X217587I-5225J0D01*
G01X197587D02*
G03X197587I-5225J0D01*
G01X207587Y403307D02*
G03X207587I-5225J0D01*
G01X182783Y300787D02*
G03X182783I-5027J0D01*
G01X152272Y481890D02*
G03X152272I-5028J0D01*
G01X124713Y332283D02*
G03X124713I-5028J0D01*
G01X129831Y387328D02*
G03X129831I-7193J0D01*
G01X135146Y474016D02*
G03X135146I-15461J0D01*
G01X1020756Y174803D02*
G03X1020756I-5618J0D01*
G01Y214173D02*
G03X1020756I-5618J0D01*
G01X1043201Y102181D02*
Y491520D01*
G03X1042701Y492020I-500J-0*
G01X102181*
G03X101681Y491520I0J-500*
G01Y211236*
G03X102181Y210736I500J0*
G01X120439*
G03X120710Y210816I-0J500*
G01X126535D02*
G03X120710I-2913J-4517D01*
G01X126535D02*
G03X126806Y210736I271J420D01*
G01X402150*
G03X402650Y211236I-0J500*
G01Y256557*
G03X402018Y257040I-500J0*
G01X401575Y256980D02*
G03X402018Y257040I-0J1681D01*
G01X401575Y256980D02*
X396850D01*
X395887Y257284D02*
G03X396850Y256980I963J1377D01*
G01X395887Y257284D02*
G03X395600Y257374I-287J-410D01*
G01X386335*
G03X385993Y257239I-0J-500*
G01X385566Y256947D02*
G03X385993Y257239I-723J1518D01*
G01X385567Y256947D02*
G03Y256045I215J-451D01*
G01X386524Y254528D02*
G03X385566Y256045I-1681J-0D01*
G01X386524Y254528D02*
Y249803D01*
X384843Y248122D02*
G03X386524Y249803I-0J1681D01*
G01X384843Y248122D02*
X380118D01*
X378437Y249803D02*
G03X380118Y248122I1681J0D01*
G01X378437Y249803D02*
Y254528D01*
X379394Y256045D02*
G03X378437Y254528I724J-1517D01*
G01X379394Y256045D02*
G03Y256947I-215J451D01*
G01X379155Y257087D02*
G03X379394Y256947I963J1378D01*
G01X379155Y257087D02*
G03X378868Y257177I-287J-410D01*
G01X374281*
G03X373995Y257087I0J-500*
G01X373755Y256947D02*
G03X373995Y257087I-724J1518D01*
G01X373755Y256947D02*
G03Y256045I216J-451D01*
G01X374713Y254528D02*
G03X373755Y256045I-1682J-0D01*
G01X374713Y254528D02*
Y249803D01*
X373031Y248122D02*
G03X374713Y249803I0J1681D01*
G01X373031Y248122D02*
X368307D01*
X366626Y249803D02*
G03X368307Y248122I1681J0D01*
G01X366626Y249803D02*
Y254528D01*
X367583Y256045D02*
G03X366626Y254528I724J-1517D01*
G01X367583Y256045D02*
G03Y256947I-215J451D01*
G01X367344Y257087D02*
G03X367583Y256947I963J1378D01*
G01X367344Y257087D02*
G03X367057Y257177I-287J-410D01*
G01X275581*
G03X275160Y256947I0J-500*
G01X270392Y264001D02*
G03X275160Y256947I868J-4552D01*
G01X270392Y264001D02*
G03X270533Y264050I-94J491D01*
G01X272244Y264476D02*
G03X270533Y264050I0J-3649D01*
G01X272244Y264476D02*
X367057D01*
G03X367344Y264567I0J500*
G01X368307Y264870D02*
G03X367344Y264567I0J-1681D01*
G01X368307Y264870D02*
X373031D01*
X373995Y264567D02*
G03X373031Y264870I-964J-1378D01*
G01X373995Y264567D02*
G03X374281Y264476I286J409D01*
G01X378868*
G03X379155Y264567I0J500*
G01X380118Y264870D02*
G03X379155Y264567I0J-1681D01*
G01X380118Y264870D02*
X384843D01*
X385540Y264718D02*
G03X384843Y264870I-697J-1529D01*
G01X385540Y264718D02*
G03X385748Y264673I208J455D01*
G01X395600*
G03X395887Y264764I0J500*
G01X396126Y264903D02*
G03X395887Y264763I724J-1517D01*
G01X396126Y264903D02*
G03Y265806I-215J451D01*
G01X395169Y267323D02*
G03X396126Y265806I1681J-0D01*
G01X395169Y267323D02*
Y272047D01*
X396850Y273728D02*
G03X395169Y272047I0J-1681D01*
G01X396850Y273728D02*
X401575D01*
X402018Y273669D02*
G03X401575Y273728I-443J-1622D01*
G01X402018Y273669D02*
G03X402650Y274151I132J482D01*
G01Y274783*
G03X402503Y275136I-500J-0*
G01X401120Y276519*
G03X400767Y276665I-353J-354*
G01X271654*
X271300Y276812D02*
G03X271654Y276665I354J353D01*
G01X271300Y276812D02*
X267363Y280749D01*
X267217Y281102D02*
G03X267363Y280749I500J0D01*
G01X267217Y281102D02*
Y336791D01*
G03X267070Y337144I-500J-0*
G01X263719Y340495*
G03X263365Y340642I-354J-353*
G01X225984*
X225631Y340788D02*
G03X225984Y340642I353J354D01*
G01X225631Y340788D02*
X223662Y342757D01*
X223516Y343110D02*
G03X223662Y342757I500J0D01*
G01X223516Y343110D02*
Y350469D01*
G03X223106Y350961I-500J0*
G01Y360850D02*
G03Y350961I910J-4944D01*
G01Y360850D02*
G03X223516Y361342I-90J492D01*
G01Y363780*
X223662Y364133D02*
G03X223516Y363780I354J-353D01*
G01X223662Y364133D02*
X227599Y368070D01*
X227953Y368217D02*
G03X227599Y368070I-0J-500D01*
G01X227953Y368217D02*
X400767D01*
G03X401120Y368363I-0J500*
G01X402503Y369746*
G03X402650Y370099I-353J353*
G01Y374668*
G03X402018Y375150I-500J-0*
G01X401575Y375091D02*
G03X402018Y375150I-0J1681D01*
G01X401575Y375091D02*
X396850D01*
X395169Y376772D02*
G03X396850Y375091I1681J-0D01*
G01X395169Y376772D02*
Y381496D01*
X396126Y383013D02*
G03X395169Y381496I724J-1517D01*
G01X396126Y383013D02*
G03Y383916I-215J452D01*
G01X395887Y384055D02*
G03X396126Y383916I963J1378D01*
G01X395887Y384055D02*
G03X395600Y384146I-287J-409D01*
G01X385748*
G03X385540Y384101I0J-500*
G01X384843Y383949D02*
G03X385540Y384101I-0J1681D01*
G01X384843Y383949D02*
X380118D01*
X379155Y384252D02*
G03X380118Y383949I963J1378D01*
G01X379155Y384252D02*
G03X378868Y384342I-287J-410D01*
G01X378868D02*
X374281D01*
X374281D02*
G03X373995Y384252I0J-500D01*
G01X373031Y383949D02*
G03X373995Y384252I0J1681D01*
G01X373031Y383949D02*
X368307D01*
X367344Y384252D02*
G03X368307Y383949I963J1378D01*
G01X367344Y384252D02*
G03X367057Y384342I-287J-410D01*
G01X367057D02*
X277125D01*
X277125D02*
G03X276650Y383997I0J-500D01*
G01X271925Y390056D02*
G03X276650Y383997I319J-4623D01*
G01X271925Y390056D02*
G03X272245Y390201I-34J499D01*
G01X272616Y390573*
X275197Y391642D02*
G03X272616Y390573I-0J-3650D01*
G01X275197Y391642D02*
X367057D01*
G03X367344Y391732I0J500*
G01X367583Y391872D02*
G03X367344Y391732I724J-1518D01*
G01X367583Y391872D02*
G03Y392774I-215J451D01*
G01X366626Y394291D02*
G03X367583Y392774I1681J0D01*
G01X366626Y394291D02*
Y399016D01*
X368307Y400697D02*
G03X366626Y399016I0J-1681D01*
G01X368307Y400697D02*
X373031D01*
X374713Y399016D02*
G03X373031Y400697I-1682J-0D01*
G01X374713Y399016D02*
Y394291D01*
X373755Y392774D02*
G03X374713Y394291I-724J1517D01*
G01X373755Y392774D02*
G03Y391872I216J-451D01*
G01X373995Y391732D02*
G03X373755Y391872I-964J-1378D01*
G01X373995Y391732D02*
G03X374281Y391642I286J410D01*
G01X378868*
G03X379155Y391732I0J500*
G01X379394Y391872D02*
G03X379155Y391732I724J-1518D01*
G01X379394Y391872D02*
G03Y392774I-215J451D01*
G01X378437Y394291D02*
G03X379394Y392774I1681J0D01*
G01X378437Y394291D02*
Y399016D01*
X380118Y400697D02*
G03X378437Y399016I0J-1681D01*
G01X380118Y400697D02*
X384843D01*
X386524Y399016D02*
G03X384843Y400697I-1681J-0D01*
G01X386524Y399016D02*
Y394291D01*
X385566Y392774D02*
G03X386524Y394291I-723J1517D01*
G01X385567Y392774D02*
G03Y391872I215J-451D01*
G01X385993Y391580D02*
G03X385566Y391872I-1150J-1226D01*
G01X385993Y391580D02*
G03X386335Y391445I342J365D01*
G01X395600*
G03X395887Y391535I0J500*
G01X396850Y391839D02*
G03X395887Y391535I0J-1682D01*
G01X396850Y391839D02*
X401575D01*
X402018Y391779D02*
G03X401575Y391839I-443J-1622D01*
G01X402018Y391779D02*
G03X402650Y392262I132J483D01*
G01Y440551*
X402796Y440905D02*
G03X402650Y440551I354J-354D01*
G01X402796Y440905D02*
X404765Y442873D01*
X405118Y443020D02*
G03X404765Y442873I0J-500D01*
G01X405118Y443020D02*
X590157D01*
X590511Y442873D02*
G03X590157Y443020I-354J-353D01*
G01X590511Y442873D02*
X592480Y440905D01*
X592626Y440551D02*
G03X592480Y440905I-500J0D01*
G01X592626Y440551D02*
Y413406D01*
G03X592772Y413053I500J0*
G01X594155Y411670*
G03X594509Y411524I354J354*
G01X724984*
G03X725484Y412024I0J500*
G01Y458268*
X725631Y458621D02*
G03X725484Y458268I353J-353D01*
G01X725631Y458621D02*
X729568Y462558D01*
X729921Y462705D02*
G03X729568Y462558I0J-500D01*
G01X729921Y462705D02*
X785039D01*
X785393Y462558D02*
G03X785039Y462705I-354J-353D01*
G01X785393Y462558D02*
X789330Y458621D01*
X789476Y458268D02*
G03X789330Y458621I-500J-0D01*
G01X789476Y458268D02*
Y442513D01*
G03X790360Y442192I500J-0*
G01Y434974D02*
G03Y442192I4305J3609D01*
G01Y434974D02*
G03X789476Y434653I-384J-321D01*
G01Y414954*
G03X790360Y414632I500J-0*
G01Y407415D02*
G03Y414632I4305J3609D01*
G01Y407415D02*
G03X789476Y407094I-384J-321D01*
G01Y316950*
G03X789623Y316596I500J-0*
G01X796911Y309308*
G03X797265Y309161I354J353*
G01X822441*
X822795Y309015D02*
G03X822441Y309161I-354J-354D01*
G01X822795Y309015D02*
X826732Y305078D01*
X826878Y304724D02*
G03X826732Y305078I-500J0D01*
G01X826878Y304724D02*
Y253543D01*
X826732Y253190D02*
G03X826878Y253543I-354J353D01*
G01X826732Y253190D02*
X822795Y249253D01*
X822441Y249106D02*
G03X822795Y249253I-0J500D01*
G01X822441Y249106D02*
X809076D01*
G03X808722Y248960I-0J-500*
G01X801434Y241672*
G03X801287Y241318I353J-354*
G01Y145276*
X801141Y144922D02*
G03X801287Y145276I-354J354D01*
G01X801141Y144922D02*
X799172Y142954D01*
X798819Y142807D02*
G03X799172Y142954I-0J500D01*
G01X798819Y142807D02*
X661377D01*
G03X661092Y141896I-0J-500*
G01X641270D02*
G03X661092I9911J-14337D01*
G01X641270D02*
G03X640985Y142807I-285J411D01*
G01X597507*
G03X597007Y142307I0J-500*
G01Y128811*
X595326Y127130D02*
G03X597007Y128811I-0J1681D01*
G01X595326Y127130D02*
X588926D01*
X587245Y128811D02*
G03X588926Y127130I1681J0D01*
G01X587245Y128811D02*
Y142307D01*
G03X586745Y142807I-500J0*
G01X552232*
G03X551732Y142307I-0J-500*
G01Y128811*
X550050Y127130D02*
G03X551732Y128811I0J1681D01*
G01X550050Y127130D02*
X543650D01*
X541969Y128811D02*
G03X543650Y127130I1681J0D01*
G01X541969Y128811D02*
Y142307D01*
G03X541469Y142807I-500J0*
G01X355915*
G03X355910I0J-500*
G01X355904D02*
G03X355910I0J500D01*
G01X355904D02*
X326731D01*
G03X326447Y141896I0J-500*
G01X306624D02*
G03X326447I9911J-14337D01*
G01X306624D02*
G03X306340Y142807I-284J411D01*
G01X102181*
G03X101681Y142307I0J-500*
G01Y102181*
G03X102181Y101681I500J0*
G01X1042701*
G03X1043201Y102181I-0J500*
G01X1040658Y119685D02*
G03X1040658I-15461J0D01*
G01X1034161Y344094D02*
G03X1034161I-5027J0D01*
G01X1033741Y411051D02*
G03X1029161Y415631I1456J6036D01*
G01X1033741Y411051D02*
G03X1033161Y410374I-117J-486D01*
G01Y403799D02*
G03Y410374I-7964J3288D01*
G01Y403799D02*
G03X1033741Y403122I463J-191D01*
G01X1029161Y398543D02*
G03X1033741Y403122I6036J-1456D01*
G01X1029161Y398543D02*
G03X1028484Y399122I-486J117D01*
G01X1021909D02*
G03X1028484I3288J7965D01*
G01X1021909D02*
G03X1021232Y398543I-191J-462D01*
G01X1016653Y403122D02*
G03X1021232Y398543I-1456J-6035D01*
G01X1016653Y403122D02*
G03X1017232Y403799I117J486D01*
G01Y410374D02*
G03Y403799I7965J-3287D01*
G01Y410374D02*
G03X1016653Y411051I-462J191D01*
G01X1021232Y415631D02*
G03X1016653Y411051I-6035J1456D01*
G01X1021232Y415631D02*
G03X1021909Y415051I486J-118D01*
G01X1028484D02*
G03X1021909I-3287J-7964D01*
G01X1028484D02*
G03X1029161Y415631I191J462D01*
G01X1040658Y474016D02*
G03X1040658I-15461J0D01*
G01X971465Y173148D02*
G03Y176458I8456J1655D01*
G01Y173148D02*
G03X970478Y173111I-490J-96D01*
G01Y176495D02*
G03Y173111I-14179J-1692D01*
G01Y176495D02*
G03X971465Y176458I497J59D01*
G01X988538Y214173D02*
G03X988538I-8617J0D01*
G01X984358Y251575D02*
G03X984358I-14279J0D01*
G01Y310630D02*
G03X984358I-14279J0D01*
G01X990854Y395276D02*
G03X990854I-5027J0D01*
G01X992475Y416929D02*
G03X992475I-8617J0D01*
G01X989476Y452146D02*
G03X989476I-5618J0D01*
G01X970579Y401181D02*
G03X970579I-14280J0D01*
G01X911524Y174803D02*
G03X911524I-14280J0D01*
G01Y401181D02*
G03X911524I-14280J0D01*
G01X868413Y125807D02*
G03X868413I-5618J0D01*
G01X871412Y161024D02*
G03X871412I-8617J0D01*
G01X874364Y411024D02*
G03X874364I-8616J0D01*
G01Y438583D02*
G03X874364I-8616J0D01*
G01X842232Y183661D02*
G03X842232I-5027J0D01*
G01X805815Y115748D02*
G03X805815I-5028J0D01*
G01X706012Y119685D02*
G03X706012I-15461J0D01*
G01X292626D02*
G03X292626I-15461J0D01*
G01X135146D02*
G03X135146I-15461J0D01*
G01X836150Y411024D02*
G03X836150I-5619J0D01*
G01Y438583D02*
G03X836150I-5619J0D01*
G01X822154Y383465D02*
Y344094D01*
X820472Y342413D02*
G03X822154Y344094I0J1681D01*
G01X820472Y342413D02*
X800787D01*
X799106Y344094D02*
G03X800787Y342413I1681J0D01*
G01X799106Y344094D02*
Y383465D01*
X800787Y385146D02*
G03X799106Y383465I0J-1681D01*
G01X800787Y385146D02*
X820472D01*
X822154Y383465D02*
G03X820472Y385146I-1682J-0D01*
G01X706012Y474016D02*
G03X706012I-15461J0D01*
G01X668610Y462205D02*
G03X668610I-17429J0D01*
G01X333965D02*
G03X333965I-17430J0D01*
G01X284991Y435068D02*
G03X279182I-2904J4578D01*
G01X284991D02*
G03Y434223I268J-422D01*
G01X279182D02*
G03X284991I2905J-4577D01*
G01X279182D02*
G03Y435068I-267J423D01*
G01X292626Y474016D02*
G03X292626I-15461J0D01*
G01X217587Y251575D02*
G03X217587I-5225J0D01*
G01X197587D02*
G03X197587I-5225J0D01*
G01X207587Y261575D02*
G03X207587I-5225J0D01*
G01X217587Y393307D02*
G03X217587I-5225J0D01*
G01X197587D02*
G03X197587I-5225J0D01*
G01X207587Y403307D02*
G03X207587I-5225J0D01*
G01X182783Y300787D02*
G03X182783I-5027J0D01*
G01X136103Y304752D02*
G03X131524Y309331I1456J6035D01*
G01X136103Y304752D02*
G03X135524Y304075I-117J-486D01*
G01Y297500D02*
G03Y304075I-7965J3287D01*
G01Y297500D02*
G03X136103Y296823I462J-191D01*
G01X131524Y292243D02*
G03X136103Y296823I6035J-1456D01*
G01X131524Y292243D02*
G03X130847Y292823I-487J118D01*
G01X124271D02*
G03X130847I3288J7964D01*
G01X124271D02*
G03X123595Y292243I-190J-462D01*
G01X119015Y296823D02*
G03X123595Y292243I-1456J-6036D01*
G01X119015Y296823D02*
G03X119595Y297500I117J486D01*
G01Y304075D02*
G03Y297500I7964J-3288D01*
G01Y304075D02*
G03X119015Y304752I-463J191D01*
G01X123595Y309331D02*
G03X119015Y304752I-6036J1456D01*
G01X123595Y309331D02*
G03X124271Y308752I486J-117D01*
G01X130847D02*
G03X124271I-3288J-7965D01*
G01X130847D02*
G03X131524Y309331I190J462D01*
G01X152272Y481890D02*
G03X152272I-5028J0D01*
G01X124713Y332283D02*
G03X124713I-5028J0D01*
G01X129831Y377239D02*
Y366216D01*
X128150Y364535D02*
G03X129831Y366216I-0J1681D01*
G01X128150Y364535D02*
X117126D01*
X115445Y366216D02*
G03X117126Y364535I1681J-0D01*
G01X115445Y366216D02*
Y377239D01*
X117126Y378920D02*
G03X115445Y377239I-0J-1681D01*
G01X117126Y378920D02*
X128150D01*
X129831Y377239D02*
G03X128150Y378920I-1681J0D01*
G01X129831Y387328D02*
G03X129831I-7193J0D01*
G01X125086Y426262D02*
G03X125575Y434963I-1464J4447D01*
G01X125086Y426262D02*
G03Y425312I156J-475D01*
G01X122158D02*
G03X125086I1464J-4446D01*
G01X122158D02*
G03Y426262I-156J475D01*
G01X121669Y434963D02*
G03X122158Y426262I1953J-4254D01*
G01X121669Y434963D02*
G03X121460Y435917I-209J454D01*
G01X120669*
X118988Y437598D02*
G03X120669Y435917I1681J0D01*
G01X118988Y437598D02*
Y443504D01*
X120669Y445185D02*
G03X118988Y443504I0J-1681D01*
G01X120669Y445185D02*
X126575D01*
X128256Y443504D02*
G03X126575Y445185I-1681J-0D01*
G01X128256Y443504D02*
Y437598D01*
X126575Y435917D02*
G03X128256Y437598I-0J1681D01*
G01X126575Y435917D02*
X125784D01*
G03X125575Y434963I-0J-500*
G01X135146Y474016D02*
G03X135146I-15461J0D01*
G01X125640Y230167D02*
G03X121604I-2018J7313D01*
G01X125640D02*
G03Y229203I133J-482D01*
G01X121604D02*
G03X125640I2018J-7313D01*
G01X121604D02*
G03Y230167I-133J482D01*
G01X255028Y300787D02*
Y285039D01*
X253346Y283358D02*
G03X255028Y285039I0J1681D01*
G01X253346Y283358D02*
X237598D01*
X235917Y285039D02*
G03X237598Y283358I1681J0D01*
G01X235917Y285039D02*
Y300787D01*
X237598Y302469D02*
G03X235917Y300787I0J-1682D01*
G01X237598Y302469D02*
X253346D01*
X255028Y300787D02*
G03X253346Y302469I-1682J0D01*
G01X1020756Y174803D02*
G03X1020756I-5618J0D01*
G01Y214173D02*
G03X1020756I-5618J0D01*
G01X101681Y491099D02*
X1043201D01*
X101681Y490199D02*
X1043201D01*
X1027534Y489299D02*
X1043201D01*
X1030868Y488399D02*
X1043201D01*
X1032763Y487499D02*
X1043201D01*
X1034180Y486599D02*
X1043201D01*
X1035323Y485699D02*
X1043201D01*
X1036277Y484799D02*
X1043201D01*
X1037086Y483899D02*
X1043201D01*
X1037780Y482999D02*
X1043201D01*
X1038376Y482099D02*
X1043201D01*
X1038888Y481199D02*
X1043201D01*
X1039323Y480299D02*
X1043201D01*
X1039690Y479399D02*
X1043201D01*
X1039993Y478499D02*
X1043201D01*
X1040237Y477599D02*
X1043201D01*
X1040423Y476699D02*
X1043201D01*
X1040554Y475799D02*
X1043201D01*
X1040632Y474899D02*
X1043201D01*
X1040657Y473999D02*
X1043201D01*
X1040630Y473099D02*
X1043201D01*
X1040550Y472199D02*
X1043201D01*
X1040417Y471299D02*
X1043201D01*
X1040228Y470399D02*
X1043201D01*
X1039983Y469499D02*
X1043201D01*
X1039677Y468599D02*
X1043201D01*
X1039308Y467699D02*
X1043201D01*
X1038870Y466799D02*
X1043201D01*
X1038355Y465899D02*
X1043201D01*
X1037756Y464999D02*
X1043201D01*
X1037058Y464099D02*
X1043201D01*
X1036243Y463199D02*
X1043201D01*
X1035284Y462299D02*
X1043201D01*
X1034132Y461399D02*
X1043201D01*
X1032702Y460499D02*
X1043201D01*
X1030781Y459599D02*
X1043201D01*
X1027299Y458699D02*
X1043201D01*
X789476Y457799D02*
X1043201D01*
X986854Y456899D02*
X1043201D01*
X987947Y455999D02*
X1043201D01*
X988638Y455099D02*
X1043201D01*
X989088Y454199D02*
X1043201D01*
X989357Y453299D02*
X1043201D01*
X989471Y452399D02*
X1043201D01*
X989439Y451499D02*
X1043201D01*
X989259Y450599D02*
X1043201D01*
X988916Y449699D02*
X1043201D01*
X988371Y448799D02*
X1043201D01*
X987536Y447899D02*
X1043201D01*
X986110Y446999D02*
X1043201D01*
X869961Y446099D02*
X1043201D01*
X871268Y445199D02*
X1043201D01*
X872195Y444299D02*
X1043201D01*
X872893Y443399D02*
X1043201D01*
X873423Y442499D02*
X1043201D01*
X873819Y441599D02*
X1043201D01*
X874101Y440699D02*
X1043201D01*
X874278Y439799D02*
X1043201D01*
X874359Y438899D02*
X1043201D01*
X874345Y437999D02*
X1043201D01*
X874236Y437099D02*
X1043201D01*
X874028Y436199D02*
X1043201D01*
X873714Y435299D02*
X1043201D01*
X873280Y434399D02*
X1043201D01*
X872705Y433499D02*
X1043201D01*
X871948Y432599D02*
X1043201D01*
X870930Y431699D02*
X1043201D01*
X869443Y430799D02*
X1043201D01*
X789476Y429899D02*
X1043201D01*
X789476Y428999D02*
X1043201D01*
X789476Y428099D02*
X1043201D01*
X789476Y427199D02*
X1043201D01*
X789476Y426299D02*
X1043201D01*
X985442Y425399D02*
X1043201D01*
X987975Y424499D02*
X1043201D01*
X989313Y423599D02*
X1043201D01*
X1037852Y422699D02*
X1043201D01*
X1039240Y421799D02*
X1043201D01*
X1040097Y420899D02*
X1043201D01*
X1040680Y419999D02*
X1043201D01*
X1041070Y419099D02*
X1043201D01*
X1041305Y418199D02*
X1043201D01*
X1041402Y417299D02*
X1043201D01*
X1041367Y416399D02*
X1043201D01*
X1041199Y415499D02*
X1043201D01*
X1040885Y414599D02*
X1043201D01*
X1040400Y413699D02*
X1043201D01*
X1039687Y412799D02*
X1043201D01*
X1038608Y411899D02*
X1043201D01*
X1036415Y410999D02*
X1043201D01*
X1033270Y410099D02*
X1043201D01*
X1033550Y409199D02*
X1043201D01*
X1033728Y408299D02*
X1043201D01*
X1033808Y407399D02*
X1043201D01*
X1033793Y406499D02*
X1043201D01*
X1033684Y405599D02*
X1043201D01*
X1033476Y404699D02*
X1043201D01*
X1033161Y403799D02*
X1043201D01*
X1037380Y402899D02*
X1043201D01*
X1038994Y401999D02*
X1043201D01*
X1039935Y401099D02*
X1043201D01*
X1040569Y400199D02*
X1043201D01*
X1040998Y399299D02*
X1043201D01*
X1041265Y398399D02*
X1043201D01*
X1041392Y397499D02*
X1043201D01*
X1041386Y396599D02*
X1043201D01*
X1041248Y395699D02*
X1043201D01*
X1040969Y394799D02*
X1043201D01*
X1040525Y393899D02*
X1043201D01*
X1039870Y392999D02*
X1043201D01*
X1038894Y392099D02*
X1043201D01*
X1037167Y391199D02*
X1043201D01*
X986539Y390299D02*
X1043201D01*
X964366Y389399D02*
X1043201D01*
X962861Y388499D02*
X1043201D01*
X960706Y387599D02*
X1043201D01*
X789476Y386699D02*
X1043201D01*
X789476Y385799D02*
X1043201D01*
X821350Y384899D02*
X1043201D01*
X822066Y383999D02*
X1043201D01*
X822154Y383099D02*
X1043201D01*
X822154Y382199D02*
X1043201D01*
X822154Y381299D02*
X1043201D01*
X822154Y380399D02*
X1043201D01*
X822154Y379499D02*
X1043201D01*
X822154Y378599D02*
X1043201D01*
X822154Y377699D02*
X1043201D01*
X822154Y376799D02*
X1043201D01*
X822154Y375899D02*
X1043201D01*
X822154Y374999D02*
X1043201D01*
X822154Y374099D02*
X1043201D01*
X822154Y373199D02*
X1043201D01*
X822154Y372299D02*
X1043201D01*
X822154Y371399D02*
X1043201D01*
X822154Y370499D02*
X1043201D01*
X822154Y369599D02*
X1043201D01*
X822154Y368699D02*
X1043201D01*
X822154Y367799D02*
X1043201D01*
X822154Y366899D02*
X1043201D01*
X822154Y365999D02*
X1043201D01*
X822154Y365099D02*
X1043201D01*
X822154Y364199D02*
X1043201D01*
X822154Y363299D02*
X1043201D01*
X822154Y362399D02*
X1043201D01*
X822154Y361499D02*
X1043201D01*
X822154Y360599D02*
X1043201D01*
X822154Y359699D02*
X1043201D01*
X822154Y358799D02*
X1043201D01*
X822154Y357899D02*
X1043201D01*
X822154Y356999D02*
X1043201D01*
X822154Y356099D02*
X1043201D01*
X822154Y355199D02*
X1043201D01*
X822154Y354299D02*
X1043201D01*
X822154Y353399D02*
X1043201D01*
X822154Y352499D02*
X1043201D01*
X822154Y351599D02*
X1043201D01*
X822154Y350699D02*
X1043201D01*
X822154Y349799D02*
X1043201D01*
X1030616Y348899D02*
X1043201D01*
X1032301Y347999D02*
X1043201D01*
X1033165Y347099D02*
X1043201D01*
X1033700Y346199D02*
X1043201D01*
X1034015Y345299D02*
X1043201D01*
X1034152Y344399D02*
X1043201D01*
X1034126Y343499D02*
X1043201D01*
X1033934Y342599D02*
X1043201D01*
X1033554Y341699D02*
X1043201D01*
X1032930Y340799D02*
X1043201D01*
X1031904Y339899D02*
X1043201D01*
X789476Y338999D02*
X1043201D01*
X789476Y338099D02*
X1043201D01*
X789476Y337199D02*
X1043201D01*
X789476Y336299D02*
X1043201D01*
X789476Y335399D02*
X1043201D01*
X789476Y334499D02*
X1043201D01*
X789476Y333599D02*
X1043201D01*
X789476Y332699D02*
X1043201D01*
X789476Y331799D02*
X1043201D01*
X789476Y330899D02*
X1043201D01*
X789476Y329999D02*
X1043201D01*
X789476Y329099D02*
X1043201D01*
X789476Y328199D02*
X1043201D01*
X789476Y327299D02*
X1043201D01*
X789476Y326399D02*
X1043201D01*
X789476Y325499D02*
X1043201D01*
X973042Y324599D02*
X1043201D01*
X975833Y323699D02*
X1043201D01*
X977550Y322799D02*
X1043201D01*
X978849Y321899D02*
X1043201D01*
X979897Y320999D02*
X1043201D01*
X980767Y320099D02*
X1043201D01*
X981502Y319199D02*
X1043201D01*
X982124Y318299D02*
X1043201D01*
X982652Y317399D02*
X1043201D01*
X983097Y316499D02*
X1043201D01*
X983466Y315599D02*
X1043201D01*
X983766Y314699D02*
X1043201D01*
X984002Y313799D02*
X1043201D01*
X984177Y312899D02*
X1043201D01*
X984293Y311999D02*
X1043201D01*
X984351Y311099D02*
X1043201D01*
X984352Y310199D02*
X1043201D01*
X984296Y309299D02*
X1043201D01*
X984183Y308399D02*
X1043201D01*
X984011Y307499D02*
X1043201D01*
X983777Y306599D02*
X1043201D01*
X983480Y305699D02*
X1043201D01*
X983113Y304799D02*
X1043201D01*
X982672Y303899D02*
X1043201D01*
X982148Y302999D02*
X1043201D01*
X981530Y302099D02*
X1043201D01*
X980801Y301199D02*
X1043201D01*
X979936Y300299D02*
X1043201D01*
X978897Y299399D02*
X1043201D01*
X977611Y298499D02*
X1043201D01*
X975918Y297599D02*
X1043201D01*
X973213Y296699D02*
X1043201D01*
X826878Y295799D02*
X1043201D01*
X826878Y294899D02*
X1043201D01*
X826878Y293999D02*
X1043201D01*
X826878Y293099D02*
X1043201D01*
X826878Y292199D02*
X1043201D01*
X826878Y291299D02*
X1043201D01*
X826878Y290399D02*
X1043201D01*
X826878Y289499D02*
X1043201D01*
X826878Y288599D02*
X1043201D01*
X826878Y287699D02*
X1043201D01*
X826878Y286799D02*
X1043201D01*
X826878Y285899D02*
X1043201D01*
X826878Y284999D02*
X1043201D01*
X826878Y284099D02*
X1043201D01*
X826878Y283199D02*
X1043201D01*
X826878Y282299D02*
X1043201D01*
X826878Y281399D02*
X1043201D01*
X826878Y280499D02*
X1043201D01*
X826878Y279599D02*
X1043201D01*
X826878Y278699D02*
X1043201D01*
X826878Y277799D02*
X1043201D01*
X826878Y276899D02*
X1043201D01*
X826878Y275999D02*
X1043201D01*
X826878Y275099D02*
X1043201D01*
X826878Y274199D02*
X1043201D01*
X826878Y273299D02*
X1043201D01*
X826878Y272399D02*
X1043201D01*
X826878Y271499D02*
X1043201D01*
X826878Y270599D02*
X1043201D01*
X826878Y269699D02*
X1043201D01*
X826878Y268799D02*
X1043201D01*
X826878Y267899D02*
X1043201D01*
X826878Y266999D02*
X1043201D01*
X826878Y266099D02*
X1043201D01*
X974356Y265199D02*
X1043201D01*
X976560Y264299D02*
X1043201D01*
X978085Y263399D02*
X1043201D01*
X979275Y262499D02*
X1043201D01*
X980249Y261599D02*
X1043201D01*
X981063Y260699D02*
X1043201D01*
X981752Y259799D02*
X1043201D01*
X982337Y258899D02*
X1043201D01*
X982832Y257999D02*
X1043201D01*
X983247Y257099D02*
X1043201D01*
X983589Y256199D02*
X1043201D01*
X983864Y255299D02*
X1043201D01*
X984076Y254399D02*
X1043201D01*
X984228Y253499D02*
X1043201D01*
X984322Y252599D02*
X1043201D01*
X984358Y251699D02*
X1043201D01*
X984337Y250799D02*
X1043201D01*
X984260Y249899D02*
X1043201D01*
X984124Y248999D02*
X1043201D01*
X983929Y248099D02*
X1043201D01*
X983671Y247199D02*
X1043201D01*
X983348Y246299D02*
X1043201D01*
X982954Y245399D02*
X1043201D01*
X982482Y244499D02*
X1043201D01*
X981923Y243599D02*
X1043201D01*
X981264Y242699D02*
X1043201D01*
X980487Y241799D02*
X1043201D01*
X979562Y240899D02*
X1043201D01*
X978439Y239999D02*
X1043201D01*
X977025Y239099D02*
X1043201D01*
X975077Y238199D02*
X1043201D01*
X970392Y237299D02*
X1043201D01*
X801287Y236399D02*
X1043201D01*
X801287Y235499D02*
X1043201D01*
X801287Y234599D02*
X1043201D01*
X801287Y233699D02*
X1043201D01*
X801287Y232799D02*
X1043201D01*
X801287Y231899D02*
X1043201D01*
X801287Y230999D02*
X1043201D01*
X801287Y230099D02*
X1043201D01*
X801287Y229199D02*
X1043201D01*
X801287Y228299D02*
X1043201D01*
X801287Y227399D02*
X1043201D01*
X801287Y226499D02*
X1043201D01*
X801287Y225599D02*
X1043201D01*
X801287Y224699D02*
X1043201D01*
X801287Y223799D02*
X1043201D01*
X801287Y222899D02*
X1043201D01*
X983527Y221999D02*
X1043201D01*
X985048Y221099D02*
X1043201D01*
X986080Y220199D02*
X1043201D01*
X1017438Y219299D02*
X1043201D01*
X1018840Y218399D02*
X1043201D01*
X1019666Y217499D02*
X1043201D01*
X1020205Y216599D02*
X1043201D01*
X1020545Y215699D02*
X1043201D01*
X1020721Y214799D02*
X1043201D01*
X1020749Y213899D02*
X1043201D01*
X1020632Y212999D02*
X1043201D01*
X1020359Y212099D02*
X1043201D01*
X1019904Y211199D02*
X1043201D01*
X1019206Y210299D02*
X1043201D01*
X1018099Y209399D02*
X1043201D01*
X986405Y208499D02*
X1043201D01*
X985491Y207599D02*
X1043201D01*
X984208Y206699D02*
X1043201D01*
X981948Y205799D02*
X1043201D01*
X801287Y204899D02*
X1043201D01*
X801287Y203999D02*
X1043201D01*
X801287Y203099D02*
X1043201D01*
X801287Y202199D02*
X1043201D01*
X801287Y201299D02*
X1043201D01*
X801287Y200399D02*
X1043201D01*
X801287Y199499D02*
X1043201D01*
X801287Y198599D02*
X1043201D01*
X801287Y197699D02*
X1043201D01*
X801287Y196799D02*
X1043201D01*
X801287Y195899D02*
X1043201D01*
X801287Y194999D02*
X1043201D01*
X801287Y194099D02*
X1043201D01*
X801287Y193199D02*
X1043201D01*
X801287Y192299D02*
X1043201D01*
X801287Y191399D02*
X1043201D01*
X801287Y190499D02*
X1043201D01*
X801287Y189599D02*
X1043201D01*
X959589Y188699D02*
X1043201D01*
X962217Y187799D02*
X1043201D01*
X963889Y186899D02*
X1043201D01*
X965163Y185999D02*
X1043201D01*
X966194Y185099D02*
X1043201D01*
X967052Y184199D02*
X1043201D01*
X981359Y183299D02*
X1043201D01*
X983989Y182399D02*
X1043201D01*
X985345Y181499D02*
X1043201D01*
X986297Y180599D02*
X1043201D01*
X1017894Y179699D02*
X1043201D01*
X1019087Y178799D02*
X1043201D01*
X1019826Y177899D02*
X1043201D01*
X1020309Y176999D02*
X1043201D01*
X1020605Y176099D02*
X1043201D01*
X1020742Y175199D02*
X1043201D01*
X1020733Y174299D02*
X1043201D01*
X1020578Y173399D02*
X1043201D01*
X1020262Y172499D02*
X1043201D01*
X1019752Y171599D02*
X1043201D01*
X1018974Y170699D02*
X1043201D01*
X1017691Y169799D02*
X1043201D01*
X986197Y168899D02*
X1043201D01*
X985207Y167999D02*
X1043201D01*
X983779Y167099D02*
X1043201D01*
X980374Y166199D02*
X1043201D01*
X966956Y165299D02*
X1043201D01*
X966079Y164399D02*
X1043201D01*
X965024Y163499D02*
X1043201D01*
X963712Y162599D02*
X1043201D01*
X961972Y161699D02*
X1043201D01*
X959089Y160799D02*
X1043201D01*
X871338Y159899D02*
X1043201D01*
X871170Y158999D02*
X1043201D01*
X870900Y158099D02*
X1043201D01*
X870516Y157199D02*
X1043201D01*
X870001Y156299D02*
X1043201D01*
X869322Y155399D02*
X1043201D01*
X868423Y154499D02*
X1043201D01*
X867167Y153599D02*
X1043201D01*
X865017Y152699D02*
X1043201D01*
X801287Y151799D02*
X1043201D01*
X801287Y150899D02*
X1043201D01*
X801287Y149999D02*
X1043201D01*
X801287Y149099D02*
X1043201D01*
X801287Y148199D02*
X1043201D01*
X801287Y147299D02*
X1043201D01*
X801287Y146399D02*
X1043201D01*
X801287Y145499D02*
X1043201D01*
X800818Y144599D02*
X1043201D01*
X799918Y143699D02*
X1043201D01*
X661286Y142799D02*
X1043201D01*
X661088Y141899D02*
X1043201D01*
X662278Y140999D02*
X1043201D01*
X663286Y140099D02*
X1043201D01*
X664154Y139199D02*
X1043201D01*
X664908Y138299D02*
X1043201D01*
X665567Y137399D02*
X1043201D01*
X666143Y136499D02*
X1043201D01*
X666645Y135599D02*
X1043201D01*
X1028888Y134699D02*
X1043201D01*
X1031508Y133799D02*
X1043201D01*
X1033224Y132899D02*
X1043201D01*
X1034546Y131999D02*
X1043201D01*
X1035626Y131099D02*
X1043201D01*
X1036532Y130199D02*
X1043201D01*
X1037305Y129299D02*
X1043201D01*
X1037968Y128399D02*
X1043201D01*
X1038538Y127499D02*
X1043201D01*
X1039026Y126599D02*
X1043201D01*
X1039440Y125699D02*
X1043201D01*
X1039787Y124799D02*
X1043201D01*
X1040072Y123899D02*
X1043201D01*
X1040298Y122999D02*
X1043201D01*
X1040468Y122099D02*
X1043201D01*
X1040583Y121199D02*
X1043201D01*
X1040645Y120299D02*
X1043201D01*
X1040655Y119399D02*
X1043201D01*
X1040612Y118499D02*
X1043201D01*
X1040516Y117599D02*
X1043201D01*
X1040366Y116699D02*
X1043201D01*
X1040161Y115799D02*
X1043201D01*
X1039898Y114899D02*
X1043201D01*
X1039574Y113999D02*
X1043201D01*
X1039184Y113099D02*
X1043201D01*
X1038724Y112199D02*
X1043201D01*
X1038185Y111299D02*
X1043201D01*
X1037558Y110399D02*
X1043201D01*
X1036827Y109499D02*
X1043201D01*
X1035973Y108599D02*
X1043201D01*
X1034962Y107699D02*
X1043201D01*
X1033739Y106799D02*
X1043201D01*
X1032195Y105899D02*
X1043201D01*
X1030028Y104999D02*
X1043201D01*
X101681Y104099D02*
X1043201D01*
X101681Y103199D02*
X1043201D01*
X101681Y102299D02*
X1043201D01*
X102038Y491999D02*
X1042844D01*
X1033375Y410999D02*
X1033978D01*
X1017167Y391199D02*
X1033227D01*
X1017852Y422699D02*
X1032541D01*
X1018894Y392099D02*
X1031500D01*
X1019240Y421799D02*
X1031154D01*
X1019870Y392999D02*
X1030524D01*
X1020097Y420899D02*
X1030296D01*
X1020525Y393899D02*
X1029869D01*
X1020680Y419999D02*
X1029713D01*
X1020969Y394799D02*
X1029425D01*
X1021070Y419099D02*
X1029323D01*
X1027062Y415499D02*
X1029175D01*
X1021248Y395699D02*
X1029145D01*
X1021265Y398399D02*
X1029128D01*
X1021305Y418199D02*
X1029089D01*
X1021367Y416399D02*
X1029026D01*
X1021386Y396599D02*
X1029007D01*
X1021392Y397499D02*
X1029002D01*
X1021402Y417299D02*
X1028992D01*
X822154Y348899D02*
X1027652D01*
X789476Y339899D02*
X1026364D01*
X822154Y347999D02*
X1025966D01*
X789476Y340799D02*
X1025337D01*
X822154Y347099D02*
X1025103D01*
X789476Y341699D02*
X1024714D01*
X822154Y346199D02*
X1024568D01*
X821240Y342599D02*
X1024334D01*
X822154Y345299D02*
X1024253D01*
X822044Y343499D02*
X1024142D01*
X822154Y344399D02*
X1024115D01*
X1021219Y415499D02*
X1023332D01*
X789253Y458699D02*
X1023095D01*
X692889Y489299D02*
X1022859D01*
X694242Y134699D02*
X1021506D01*
X695383Y104999D02*
X1020365D01*
X788353Y459599D02*
X1019613D01*
X696222Y488399D02*
X1019526D01*
X696863Y133799D02*
X1018885D01*
X697549Y105899D02*
X1018199D01*
X787453Y460499D02*
X1017692D01*
X698117Y487499D02*
X1017631D01*
X970337Y403799D02*
X1017232D01*
X698578Y132899D02*
X1017170D01*
X989111Y410099D02*
X1017124D01*
X1016415Y410999D02*
X1017019D01*
X970139Y404699D02*
X1016918D01*
X987664Y409199D02*
X1016843D01*
X969878Y405599D02*
X1016710D01*
X968678Y408299D02*
X1016666D01*
X699094Y106799D02*
X1016654D01*
X969552Y406499D02*
X1016601D01*
X969154Y407399D02*
X1016586D01*
X786553Y461399D02*
X1016261D01*
X699535Y486599D02*
X1016213D01*
X699900Y131999D02*
X1015848D01*
X700316Y107699D02*
X1015432D01*
X785653Y462299D02*
X1015110D01*
X700677Y485699D02*
X1015071D01*
X864683Y131099D02*
X1014768D01*
X701327Y108599D02*
X1014421D01*
X701598Y463199D02*
X1014150D01*
X701631Y484799D02*
X1014117D01*
X990109Y410999D02*
X1013978D01*
X866299Y130199D02*
X1013861D01*
X702182Y109499D02*
X1013566D01*
X702412Y464099D02*
X1013336D01*
X702441Y483899D02*
X1013307D01*
X988769Y391199D02*
X1013227D01*
X867197Y129299D02*
X1013089D01*
X970475Y402899D02*
X1013013D01*
X986847Y219299D02*
X1012837D01*
X702912Y110399D02*
X1012836D01*
X703110Y464999D02*
X1012638D01*
X703134Y482999D02*
X1012614D01*
X986935Y169799D02*
X1012585D01*
X990258Y422699D02*
X1012541D01*
X867780Y128399D02*
X1012426D01*
X987012Y179699D02*
X1012382D01*
X803128Y111299D02*
X1012208D01*
X987094Y209399D02*
X1012177D01*
X703710Y465899D02*
X1012038D01*
X703731Y482099D02*
X1012017D01*
X868153Y127499D02*
X1011856D01*
X990854Y411899D02*
X1011786D01*
X804348Y112199D02*
X1011670D01*
X704224Y466799D02*
X1011524D01*
X704242Y481199D02*
X1011506D01*
X989723Y392099D02*
X1011500D01*
X987430Y218399D02*
X1011435D01*
X970555Y401999D02*
X1011400D01*
X868357Y126599D02*
X1011368D01*
X987497Y170699D02*
X1011302D01*
X805060Y113099D02*
X1011209D01*
X987555Y178799D02*
X1011188D01*
X990967Y421799D02*
X1011154D01*
X704662Y467699D02*
X1011086D01*
X704678Y480299D02*
X1011070D01*
X987617Y210299D02*
X1011069D01*
X868412Y125699D02*
X1010954D01*
X805501Y113999D02*
X1010820D01*
X705032Y468599D02*
X1010716D01*
X991420Y412799D02*
X1010707D01*
X705044Y479399D02*
X1010704D01*
X987870Y217499D02*
X1010610D01*
X868322Y124799D02*
X1010606D01*
X990309Y392999D02*
X1010524D01*
X987920Y171599D02*
X1010523D01*
X805743Y114899D02*
X1010496D01*
X970579Y401099D02*
X1010459D01*
X987962Y177899D02*
X1010449D01*
X705337Y469499D02*
X1010411D01*
X705348Y478499D02*
X1010400D01*
X988008Y211199D02*
X1010372D01*
X868079Y123899D02*
X1010321D01*
X991506Y420899D02*
X1010296D01*
X805815Y115799D02*
X1010233D01*
X705583Y470399D02*
X1010165D01*
X705591Y477599D02*
X1010157D01*
X867661Y122999D02*
X1010095D01*
X988189Y216599D02*
X1010070D01*
X805724Y116699D02*
X1010027D01*
X988224Y172499D02*
X1010014D01*
X991846Y413699D02*
X1009994D01*
X705771Y471299D02*
X1009977D01*
X705777Y476699D02*
X1009971D01*
X988253Y176999D02*
X1009966D01*
X867016Y122099D02*
X1009926D01*
X988284Y212099D02*
X1009917D01*
X805462Y117599D02*
X1009878D01*
X990662Y393899D02*
X1009869D01*
X705905Y472199D02*
X1009843D01*
X705909Y475799D02*
X1009839D01*
X986846Y400199D02*
X1009824D01*
X866009Y121199D02*
X1009810D01*
X804996Y118499D02*
X1009782D01*
X705985Y473099D02*
X1009763D01*
X705987Y474899D02*
X1009761D01*
X863900Y120299D02*
X1009748D01*
X804244Y119399D02*
X1009739D01*
X706012Y473999D02*
X1009736D01*
X988402Y215699D02*
X1009731D01*
X991909Y419999D02*
X1009713D01*
X988422Y173399D02*
X1009698D01*
X988440Y176099D02*
X1009671D01*
X988457Y212999D02*
X1009644D01*
X988515Y214799D02*
X1009555D01*
X988523Y174299D02*
X1009542D01*
X988529Y175199D02*
X1009534D01*
X988533Y213899D02*
X1009526D01*
X992153Y414599D02*
X1009508D01*
X990832Y394799D02*
X1009425D01*
X988842Y399299D02*
X1009396D01*
X992197Y419099D02*
X1009323D01*
X992355Y415499D02*
X1009195D01*
X990837Y395699D02*
X1009145D01*
X989767Y398399D02*
X1009128D01*
X992381Y418199D02*
X1009089D01*
X992458Y416399D02*
X1009026D01*
X990677Y396599D02*
X1009007D01*
X990336Y397499D02*
X1009002D01*
X992467Y417299D02*
X1008992D01*
X965545Y390299D02*
X985115D01*
X970545Y400199D02*
X984807D01*
X966510Y391199D02*
X982885D01*
X970454Y399299D02*
X982812D01*
X789476Y425399D02*
X982274D01*
X967318Y392099D02*
X981930D01*
X970305Y398399D02*
X981887D01*
X867595Y446999D02*
X981606D01*
X968002Y392999D02*
X981344D01*
X970096Y397499D02*
X981317D01*
X968582Y393899D02*
X980991D01*
X969824Y396599D02*
X980976D01*
X789476Y456899D02*
X980863D01*
X969073Y394799D02*
X980822D01*
X969484Y395699D02*
X980817D01*
X789476Y447899D02*
X980180D01*
X968115Y409199D02*
X980053D01*
X789476Y455999D02*
X979770D01*
X789476Y424499D02*
X979742D01*
X967695Y166199D02*
X979468D01*
X789476Y448799D02*
X979346D01*
X789476Y455099D02*
X979079D01*
X789476Y449699D02*
X978801D01*
X789476Y454199D02*
X978629D01*
X967452Y410099D02*
X978606D01*
X967777Y183299D02*
X978483D01*
X789476Y450599D02*
X978457D01*
X789476Y423599D02*
X978403D01*
X789476Y453299D02*
X978360D01*
X789476Y451499D02*
X978278D01*
X789476Y452399D02*
X978246D01*
X801287Y205799D02*
X977894D01*
X966668Y410999D02*
X977608D01*
X789476Y422699D02*
X977459D01*
X965735Y411899D02*
X976863D01*
X789476Y421799D02*
X976750D01*
X801287Y221999D02*
X976315D01*
X964602Y412799D02*
X976296D01*
X789476Y420899D02*
X976211D01*
X968322Y167099D02*
X976063D01*
X963171Y413699D02*
X975870D01*
X968391Y182399D02*
X975853D01*
X789476Y419999D02*
X975807D01*
X801287Y206699D02*
X975635D01*
X961185Y414599D02*
X975563D01*
X868754Y419099D02*
X975520D01*
X873111Y415499D02*
X975361D01*
X870519Y418199D02*
X975336D01*
X872482Y416399D02*
X975258D01*
X871653Y417299D02*
X975250D01*
X801287Y221099D02*
X974795D01*
X968853Y167999D02*
X974635D01*
X968912Y181499D02*
X974498D01*
X801287Y207599D02*
X974352D01*
X801287Y220199D02*
X973762D01*
X969301Y168899D02*
X973646D01*
X969350Y180599D02*
X973545D01*
X801287Y208499D02*
X973437D01*
X801287Y219299D02*
X972995D01*
X969673Y169799D02*
X972907D01*
X969713Y179699D02*
X972831D01*
X801287Y209399D02*
X972749D01*
X801287Y218399D02*
X972412D01*
X969976Y170699D02*
X972345D01*
X970008Y178799D02*
X972287D01*
X801287Y210299D02*
X972225D01*
X801287Y217499D02*
X971972D01*
X970215Y171599D02*
X971923D01*
X970239Y177899D02*
X971880D01*
X801287Y211199D02*
X971835D01*
X801287Y216599D02*
X971653D01*
X970392Y172499D02*
X971619D01*
X970409Y176999D02*
X971589D01*
X801287Y212099D02*
X971558D01*
X801287Y215699D02*
X971441D01*
X801287Y212999D02*
X971385D01*
X970614Y173399D02*
X971335D01*
X801287Y214799D02*
X971328D01*
X801287Y213899D02*
X971309D01*
X970769Y176099D02*
X971181D01*
X801287Y237299D02*
X969766D01*
X789476Y324599D02*
X967116D01*
X826878Y296699D02*
X966944D01*
X826878Y265199D02*
X965801D01*
X801287Y238199D02*
X965080D01*
X789476Y323699D02*
X964324D01*
X826878Y297599D02*
X964240D01*
X826878Y264299D02*
X963597D01*
X801287Y239099D02*
X963132D01*
X789476Y322799D02*
X962607D01*
X826878Y298499D02*
X962546D01*
X826878Y263399D02*
X962072D01*
X801287Y239999D02*
X961718D01*
X789476Y321899D02*
X961308D01*
X826878Y299399D02*
X961260D01*
X826878Y262499D02*
X960882D01*
X801287Y240899D02*
X960596D01*
X789476Y320999D02*
X960261D01*
X826878Y300299D02*
X960221D01*
X826878Y261599D02*
X959909D01*
X801561Y241799D02*
X959670D01*
X789476Y320099D02*
X959390D01*
X826878Y301199D02*
X959357D01*
X826878Y260699D02*
X959094D01*
X802461Y242699D02*
X958893D01*
X789476Y319199D02*
X958656D01*
X826878Y302099D02*
X958628D01*
X826878Y259799D02*
X958405D01*
X803361Y243599D02*
X958234D01*
X789476Y318299D02*
X958033D01*
X826878Y302999D02*
X958009D01*
X826878Y258899D02*
X957820D01*
X804261Y244499D02*
X957676D01*
X789476Y317399D02*
X957505D01*
X826878Y303899D02*
X957485D01*
X826878Y257999D02*
X957326D01*
X805161Y245399D02*
X957204D01*
X789720Y316499D02*
X957061D01*
X826872Y304799D02*
X957044D01*
X826878Y257099D02*
X956911D01*
X806061Y246299D02*
X956810D01*
X790620Y315599D02*
X956692D01*
X826111Y305699D02*
X956678D01*
X826878Y256199D02*
X956569D01*
X806961Y247199D02*
X956486D01*
X791520Y314699D02*
X956391D01*
X825211Y306599D02*
X956380D01*
X826878Y255299D02*
X956293D01*
X807861Y248099D02*
X956229D01*
X792420Y313799D02*
X956155D01*
X824311Y307499D02*
X956147D01*
X826878Y254399D02*
X956081D01*
X808766Y248999D02*
X956033D01*
X793320Y312899D02*
X955981D01*
X823411Y308399D02*
X955975D01*
X826876Y253499D02*
X955929D01*
X823440Y249899D02*
X955898D01*
X794220Y311999D02*
X955865D01*
X796921Y309299D02*
X955861D01*
X826140Y252599D02*
X955836D01*
X824340Y250799D02*
X955820D01*
X795120Y311099D02*
X955807D01*
X796020Y310199D02*
X955806D01*
X825240Y251699D02*
X955800D01*
X900033Y160799D02*
X953510D01*
X900533Y188699D02*
X953010D01*
X901651Y387599D02*
X951892D01*
X902130Y414599D02*
X951413D01*
X902917Y161699D02*
X950627D01*
X903162Y187799D02*
X950381D01*
X903806Y388499D02*
X949737D01*
X904115Y413699D02*
X949428D01*
X904657Y162599D02*
X948886D01*
X904834Y186899D02*
X948710D01*
X905311Y389399D02*
X948232D01*
X905547Y412799D02*
X947996D01*
X905968Y163499D02*
X947575D01*
X906108Y185999D02*
X947435D01*
X906490Y390299D02*
X947054D01*
X906680Y411899D02*
X946863D01*
X907024Y164399D02*
X946519D01*
X907139Y185099D02*
X946404D01*
X907455Y391199D02*
X946089D01*
X907613Y410999D02*
X945930D01*
X907901Y165299D02*
X945642D01*
X907997Y184199D02*
X945546D01*
X908263Y392099D02*
X945280D01*
X908397Y410099D02*
X945147D01*
X908640Y166199D02*
X944903D01*
X908722Y183299D02*
X944822D01*
X908947Y392999D02*
X944596D01*
X909060Y409199D02*
X944483D01*
X909267Y167099D02*
X944276D01*
X909336Y182399D02*
X944207D01*
X909527Y393899D02*
X944016D01*
X909623Y408299D02*
X943920D01*
X909798Y167999D02*
X943745D01*
X909857Y181499D02*
X943687D01*
X910018Y394799D02*
X943525D01*
X910099Y407399D02*
X943444D01*
X910246Y168899D02*
X943298D01*
X910295Y180599D02*
X943249D01*
X910429Y395699D02*
X943114D01*
X910497Y406499D02*
X943047D01*
X910618Y169799D02*
X942925D01*
X910658Y179699D02*
X942885D01*
X910768Y396599D02*
X942775D01*
X910823Y405599D02*
X942720D01*
X910921Y170699D02*
X942622D01*
X910953Y178799D02*
X942590D01*
X911041Y397499D02*
X942503D01*
X911084Y404699D02*
X942460D01*
X911159Y171599D02*
X942384D01*
X911184Y177899D02*
X942359D01*
X911250Y398399D02*
X942293D01*
X911282Y403799D02*
X942262D01*
X911336Y172499D02*
X942207D01*
X911354Y176999D02*
X942189D01*
X911399Y399299D02*
X942144D01*
X911420Y402899D02*
X942123D01*
X911454Y173399D02*
X942089D01*
X911465Y176099D02*
X942079D01*
X911490Y400199D02*
X942053D01*
X911500Y401999D02*
X942043D01*
X911515Y174299D02*
X942029D01*
X911518Y175199D02*
X942025D01*
X911523Y401099D02*
X942020D01*
X871409Y160799D02*
X894455D01*
X801287Y188699D02*
X893955D01*
X789476Y387599D02*
X892837D01*
X873588Y414599D02*
X892358D01*
X871385Y161699D02*
X891571D01*
X840061Y187799D02*
X891326D01*
X789476Y388499D02*
X890682D01*
X873939Y413699D02*
X890373D01*
X871266Y162599D02*
X889831D01*
X841051Y186899D02*
X889654D01*
X789476Y389399D02*
X889177D01*
X874180Y412799D02*
X888941D01*
X871049Y163499D02*
X888520D01*
X841656Y185999D02*
X888380D01*
X789476Y390299D02*
X887999D01*
X874320Y411899D02*
X887808D01*
X870723Y164399D02*
X887464D01*
X842022Y185099D02*
X887349D01*
X789476Y391199D02*
X887033D01*
X874364Y410999D02*
X886875D01*
X870276Y165299D02*
X886587D01*
X842204Y184199D02*
X886491D01*
X789476Y392099D02*
X886225D01*
X874315Y410099D02*
X886091D01*
X869684Y166199D02*
X885848D01*
X842219Y183299D02*
X885767D01*
X789476Y392999D02*
X885541D01*
X874169Y409199D02*
X885428D01*
X868906Y167099D02*
X885221D01*
X842071Y182399D02*
X885152D01*
X789476Y393899D02*
X884961D01*
X873922Y408299D02*
X884865D01*
X867854Y167999D02*
X884690D01*
X841743Y181499D02*
X884632D01*
X789476Y394799D02*
X884470D01*
X873565Y407399D02*
X884389D01*
X866292Y168899D02*
X884242D01*
X841192Y180599D02*
X884194D01*
X789476Y395699D02*
X884059D01*
X873081Y406499D02*
X883992D01*
X801287Y169799D02*
X883870D01*
X840299Y179699D02*
X883830D01*
X789476Y396599D02*
X883720D01*
X872442Y405599D02*
X883665D01*
X801287Y170699D02*
X883567D01*
X838482Y178799D02*
X883535D01*
X789476Y397499D02*
X883448D01*
X871599Y404699D02*
X883405D01*
X801287Y171599D02*
X883329D01*
X801287Y177899D02*
X883304D01*
X789476Y398399D02*
X883238D01*
X870443Y403799D02*
X883207D01*
X801287Y172499D02*
X883152D01*
X801287Y176999D02*
X883134D01*
X789476Y399299D02*
X883089D01*
X868616Y402899D02*
X883068D01*
X801287Y173399D02*
X883034D01*
X801287Y176099D02*
X883023D01*
X789476Y400199D02*
X882998D01*
X789476Y401999D02*
X882988D01*
X801287Y174299D02*
X882973D01*
X801287Y175199D02*
X882970D01*
X789476Y401099D02*
X882965D01*
X789476Y446999D02*
X863901D01*
X789476Y402899D02*
X862880D01*
X789476Y419099D02*
X862742D01*
X789476Y430799D02*
X862053D01*
X802925Y120299D02*
X861690D01*
X789476Y446099D02*
X861535D01*
X789476Y403799D02*
X861053D01*
X789476Y418199D02*
X860977D01*
X700980Y131099D02*
X860908D01*
X801287Y152699D02*
X860573D01*
X789476Y431699D02*
X860566D01*
X789476Y445199D02*
X860228D01*
X789476Y404699D02*
X859897D01*
X789476Y417299D02*
X859843D01*
X705938Y121199D02*
X859582D01*
X789476Y432599D02*
X859549D01*
X789476Y444299D02*
X859301D01*
X801287Y168899D02*
X859299D01*
X701887Y130199D02*
X859291D01*
X831992Y405599D02*
X859054D01*
X832166Y416399D02*
X859014D01*
X832922Y433499D02*
X858791D01*
X833424Y443399D02*
X858603D01*
X705822Y122099D02*
X858575D01*
X801287Y153599D02*
X858424D01*
X833861Y406499D02*
X858415D01*
X702659Y129299D02*
X858394D01*
X833928Y415499D02*
X858385D01*
X834281Y434399D02*
X858216D01*
X834560Y442499D02*
X858073D01*
X834824Y407399D02*
X857931D01*
X705653Y122999D02*
X857929D01*
X834865Y414599D02*
X857908D01*
X703322Y128399D02*
X857811D01*
X835090Y435299D02*
X857782D01*
X801287Y167999D02*
X857737D01*
X835271Y441599D02*
X857677D01*
X835445Y408299D02*
X857574D01*
X835472Y413699D02*
X857557D01*
X705427Y123899D02*
X857511D01*
X835619Y436199D02*
X857468D01*
X703892Y127499D02*
X857438D01*
X835736Y440699D02*
X857396D01*
X835845Y409199D02*
X857327D01*
X835862Y412799D02*
X857316D01*
X705142Y124799D02*
X857268D01*
X835950Y437099D02*
X857260D01*
X704380Y126599D02*
X857233D01*
X836016Y439799D02*
X857218D01*
X836073Y410099D02*
X857181D01*
X704794Y125699D02*
X857178D01*
X836081Y411899D02*
X857176D01*
X801287Y154499D02*
X857168D01*
X836119Y437999D02*
X857151D01*
X836141Y438899D02*
X857137D01*
X836150Y410999D02*
X857132D01*
X801287Y167099D02*
X856685D01*
X801287Y155399D02*
X856268D01*
X801287Y166199D02*
X855906D01*
X801287Y156299D02*
X855590D01*
X801287Y165299D02*
X855314D01*
X801287Y157199D02*
X855074D01*
X801287Y164399D02*
X854867D01*
X801287Y158099D02*
X854691D01*
X801287Y163499D02*
X854542D01*
X801287Y158999D02*
X854420D01*
X801287Y162599D02*
X854324D01*
X801287Y159899D02*
X854253D01*
X801287Y161699D02*
X854205D01*
X801287Y160799D02*
X854182D01*
X801287Y178799D02*
X835928D01*
X801287Y187799D02*
X834348D01*
X801287Y179699D02*
X834111D01*
X801287Y186899D02*
X833358D01*
X801287Y180599D02*
X833218D01*
X801287Y185999D02*
X832753D01*
X801287Y181499D02*
X832666D01*
X801287Y185099D02*
X832387D01*
X801287Y182399D02*
X832338D01*
X801287Y184199D02*
X832206D01*
X801287Y183299D02*
X832190D01*
X796126Y405599D02*
X829071D01*
X796300Y416399D02*
X828897D01*
X797056Y433499D02*
X828141D01*
X797558Y443399D02*
X827638D01*
X797995Y406499D02*
X827202D01*
X798062Y415499D02*
X827135D01*
X798415Y434399D02*
X826782D01*
X798694Y442499D02*
X826503D01*
X798958Y407399D02*
X826239D01*
X798999Y414599D02*
X826198D01*
X799224Y435299D02*
X825973D01*
X799405Y441599D02*
X825792D01*
X799578Y408299D02*
X825618D01*
X799606Y413699D02*
X825591D01*
X799753Y436199D02*
X825444D01*
X799870Y440699D02*
X825327D01*
X799979Y409199D02*
X825218D01*
X799996Y412799D02*
X825201D01*
X800084Y437099D02*
X825113D01*
X800150Y439799D02*
X825047D01*
X800207Y410099D02*
X824990D01*
X800215Y411899D02*
X824982D01*
X800253Y437999D02*
X824944D01*
X800275Y438899D02*
X824922D01*
X800283Y410999D02*
X824913D01*
X789476Y342599D02*
X800020D01*
X789476Y384899D02*
X799910D01*
X789476Y343499D02*
X799215D01*
X789476Y383999D02*
X799193D01*
X789476Y383099D02*
X799106D01*
X789476Y382199D02*
X799106D01*
X789476Y381299D02*
X799106D01*
X789476Y380399D02*
X799106D01*
X789476Y379499D02*
X799106D01*
X789476Y378599D02*
X799106D01*
X789476Y377699D02*
X799106D01*
X789476Y376799D02*
X799106D01*
X789476Y375899D02*
X799106D01*
X789476Y374999D02*
X799106D01*
X789476Y374099D02*
X799106D01*
X789476Y373199D02*
X799106D01*
X789476Y372299D02*
X799106D01*
X789476Y371399D02*
X799106D01*
X789476Y370499D02*
X799106D01*
X789476Y369599D02*
X799106D01*
X789476Y368699D02*
X799106D01*
X789476Y367799D02*
X799106D01*
X789476Y366899D02*
X799106D01*
X789476Y365999D02*
X799106D01*
X789476Y365099D02*
X799106D01*
X789476Y364199D02*
X799106D01*
X789476Y363299D02*
X799106D01*
X789476Y362399D02*
X799106D01*
X789476Y361499D02*
X799106D01*
X789476Y360599D02*
X799106D01*
X789476Y359699D02*
X799106D01*
X789476Y358799D02*
X799106D01*
X789476Y357899D02*
X799106D01*
X789476Y356999D02*
X799106D01*
X789476Y356099D02*
X799106D01*
X789476Y355199D02*
X799106D01*
X789476Y354299D02*
X799106D01*
X789476Y353399D02*
X799106D01*
X789476Y352499D02*
X799106D01*
X789476Y351599D02*
X799106D01*
X789476Y350699D02*
X799106D01*
X789476Y349799D02*
X799106D01*
X789476Y348899D02*
X799106D01*
X789476Y347999D02*
X799106D01*
X789476Y347099D02*
X799106D01*
X789476Y346199D02*
X799106D01*
X789476Y345299D02*
X799106D01*
X789476Y344399D02*
X799106D01*
X706000Y120299D02*
X798650D01*
X703540Y111299D02*
X798446D01*
X706009Y119399D02*
X797331D01*
X704078Y112199D02*
X797227D01*
X705966Y118499D02*
X796579D01*
X704539Y113099D02*
X796515D01*
X705870Y117599D02*
X796113D01*
X704928Y113999D02*
X796074D01*
X705721Y116699D02*
X795851D01*
X705252Y114899D02*
X795832D01*
X705515Y115799D02*
X795760D01*
X789476Y405599D02*
X793205D01*
X789476Y416399D02*
X793031D01*
X789476Y433499D02*
X792274D01*
X789476Y443399D02*
X791772D01*
X789476Y406499D02*
X791335D01*
X789476Y415499D02*
X791269D01*
X789476Y434399D02*
X790916D01*
X789477Y442499D02*
X790637D01*
X789580Y407399D02*
X790373D01*
X789624Y414599D02*
X790329D01*
X700638Y462299D02*
X729308D01*
X699487Y461399D02*
X728408D01*
X698056Y460499D02*
X727508D01*
X696135Y459599D02*
X726608D01*
X692653Y458699D02*
X725708D01*
X668044Y457799D02*
X725484D01*
X667783Y456899D02*
X725484D01*
X667468Y455999D02*
X725484D01*
X667096Y455099D02*
X725484D01*
X666663Y454199D02*
X725484D01*
X666163Y453299D02*
X725484D01*
X665590Y452399D02*
X725484D01*
X664935Y451499D02*
X725484D01*
X664184Y450599D02*
X725484D01*
X663321Y449699D02*
X725484D01*
X662319Y448799D02*
X725484D01*
X661137Y447899D02*
X725484D01*
X659699Y446999D02*
X725484D01*
X657842Y446099D02*
X725484D01*
X654998Y445199D02*
X725484D01*
X284869Y444299D02*
X725484D01*
X285999Y443399D02*
X725484D01*
X590886Y442499D02*
X725484D01*
X591786Y441599D02*
X725484D01*
X592604Y440699D02*
X725484D01*
X592626Y439799D02*
X725484D01*
X592626Y438899D02*
X725484D01*
X592626Y437999D02*
X725484D01*
X592626Y437099D02*
X725484D01*
X592626Y436199D02*
X725484D01*
X592626Y435299D02*
X725484D01*
X592626Y434399D02*
X725484D01*
X592626Y433499D02*
X725484D01*
X592626Y432599D02*
X725484D01*
X592626Y431699D02*
X725484D01*
X592626Y430799D02*
X725484D01*
X592626Y429899D02*
X725484D01*
X592626Y428999D02*
X725484D01*
X592626Y428099D02*
X725484D01*
X592626Y427199D02*
X725484D01*
X592626Y426299D02*
X725484D01*
X592626Y425399D02*
X725484D01*
X592626Y424499D02*
X725484D01*
X592626Y423599D02*
X725484D01*
X592626Y422699D02*
X725484D01*
X592626Y421799D02*
X725484D01*
X592626Y420899D02*
X725484D01*
X592626Y419999D02*
X725484D01*
X592626Y419099D02*
X725484D01*
X592626Y418199D02*
X725484D01*
X592626Y417299D02*
X725484D01*
X592626Y416399D02*
X725484D01*
X592626Y415499D02*
X725484D01*
X592626Y414599D02*
X725484D01*
X592626Y413699D02*
X725484D01*
X593027Y412799D02*
X725484D01*
X593927Y411899D02*
X725468D01*
X668254Y458699D02*
X688449D01*
X279503Y489299D02*
X688214D01*
X667081Y134699D02*
X686860D01*
X281997Y104999D02*
X685720D01*
X668414Y459599D02*
X684967D01*
X282837Y488399D02*
X684880D01*
X667455Y133799D02*
X684240D01*
X284163Y105899D02*
X683553D01*
X668527Y460499D02*
X683046D01*
X284731Y487499D02*
X682985D01*
X667772Y132899D02*
X682524D01*
X285708Y106799D02*
X682009D01*
X668592Y461399D02*
X681616D01*
X286149Y486599D02*
X681568D01*
X668035Y131999D02*
X681202D01*
X286931Y107699D02*
X680786D01*
X668610Y462299D02*
X680464D01*
X287292Y485699D02*
X680425D01*
X668247Y131099D02*
X680122D01*
X287941Y108599D02*
X679775D01*
X668582Y463199D02*
X679505D01*
X288245Y484799D02*
X679471D01*
X668409Y130199D02*
X679216D01*
X288796Y109499D02*
X678921D01*
X668507Y464099D02*
X678690D01*
X289055Y483899D02*
X678662D01*
X668523Y129299D02*
X678443D01*
X654230Y110399D02*
X678190D01*
X668385Y464999D02*
X677992D01*
X289749Y482999D02*
X677968D01*
X668590Y128399D02*
X677780D01*
X657456Y111299D02*
X677563D01*
X668214Y465899D02*
X677393D01*
X290345Y482099D02*
X677372D01*
X668610Y127499D02*
X677210D01*
X659417Y112199D02*
X677024D01*
X667994Y466799D02*
X676878D01*
X290856Y481199D02*
X676860D01*
X668584Y126599D02*
X676722D01*
X660911Y113099D02*
X676564D01*
X667722Y467699D02*
X676440D01*
X291292Y480299D02*
X676425D01*
X668511Y125699D02*
X676308D01*
X662131Y113999D02*
X676174D01*
X667395Y468599D02*
X676071D01*
X654035Y479399D02*
X676058D01*
X668390Y124799D02*
X675961D01*
X663160Y114899D02*
X675850D01*
X667011Y469499D02*
X675765D01*
X657368Y478499D02*
X675755D01*
X668222Y123899D02*
X675676D01*
X664045Y115799D02*
X675587D01*
X666564Y470399D02*
X675520D01*
X659354Y477599D02*
X675511D01*
X668003Y122999D02*
X675450D01*
X664813Y116699D02*
X675382D01*
X666050Y471299D02*
X675331D01*
X660861Y476699D02*
X675325D01*
X667733Y122099D02*
X675280D01*
X665484Y117599D02*
X675232D01*
X665460Y472199D02*
X675198D01*
X662089Y475799D02*
X675194D01*
X667408Y121199D02*
X675165D01*
X666070Y118499D02*
X675136D01*
X664786Y473099D02*
X675118D01*
X663124Y474899D02*
X675116D01*
X667026Y120299D02*
X675103D01*
X666582Y119399D02*
X675093D01*
X664014Y473999D02*
X675091D01*
X319389Y479399D02*
X648327D01*
X319585Y110399D02*
X648132D01*
X320353Y445199D02*
X647364D01*
X322723Y478499D02*
X644994D01*
X322810Y111299D02*
X644906D01*
X323197Y446099D02*
X644520D01*
X324709Y477599D02*
X643008D01*
X324772Y112199D02*
X642945D01*
X325053Y446999D02*
X642663D01*
X326215Y476699D02*
X641501D01*
X326265Y113099D02*
X641451D01*
X597007Y141899D02*
X641274D01*
X326491Y447899D02*
X641226D01*
X597416Y142799D02*
X641077D01*
X327443Y475799D02*
X640273D01*
X327485Y113999D02*
X640232D01*
X597007Y140999D02*
X640084D01*
X327673Y448799D02*
X640043D01*
X328479Y474899D02*
X639238D01*
X328514Y114899D02*
X639202D01*
X597007Y140099D02*
X639076D01*
X328675Y449699D02*
X639041D01*
X329368Y473999D02*
X638348D01*
X329399Y115799D02*
X638318D01*
X597007Y139199D02*
X638208D01*
X329538Y450599D02*
X638178D01*
X330140Y473099D02*
X637576D01*
X330167Y116699D02*
X637549D01*
X597007Y138299D02*
X637454D01*
X330289Y451499D02*
X637428D01*
X330815Y472199D02*
X636902D01*
X330838Y117599D02*
X636878D01*
X597007Y137399D02*
X636795D01*
X330944Y452399D02*
X636772D01*
X331404Y471299D02*
X636313D01*
X331425Y118499D02*
X636292D01*
X597007Y136499D02*
X636219D01*
X331517Y453299D02*
X636199D01*
X331918Y470399D02*
X635798D01*
X331936Y119399D02*
X635780D01*
X597007Y135599D02*
X635717D01*
X332017Y454199D02*
X635700D01*
X332365Y469499D02*
X635352D01*
X332380Y120299D02*
X635336D01*
X597007Y134699D02*
X635281D01*
X332450Y455099D02*
X635266D01*
X332749Y468599D02*
X634967D01*
X332763Y121199D02*
X634954D01*
X597007Y133799D02*
X634907D01*
X332822Y455999D02*
X634894D01*
X333076Y467699D02*
X634640D01*
X333087Y122099D02*
X634629D01*
X597007Y132899D02*
X634590D01*
X333137Y456899D02*
X634579D01*
X333348Y466799D02*
X634368D01*
X333357Y122999D02*
X634359D01*
X597007Y131999D02*
X634327D01*
X333398Y457799D02*
X634318D01*
X333569Y465899D02*
X634148D01*
X333576Y123899D02*
X634141D01*
X597007Y131099D02*
X634115D01*
X333608Y458699D02*
X634108D01*
X333739Y464999D02*
X633977D01*
X333745Y124799D02*
X633972D01*
X597007Y130199D02*
X633953D01*
X333769Y459599D02*
X633948D01*
X333861Y464099D02*
X633855D01*
X333865Y125699D02*
X633852D01*
X597007Y129299D02*
X633839D01*
X333881Y460499D02*
X633836D01*
X333936Y463199D02*
X633780D01*
X333938Y126599D02*
X633778D01*
X596956Y128399D02*
X633772D01*
X333946Y461399D02*
X633771D01*
X333964Y462299D02*
X633752D01*
X596377Y127499D02*
X633752D01*
X551101D02*
X587875D01*
X551680Y128399D02*
X587296D01*
X551732Y141899D02*
X587245D01*
X551732Y140999D02*
X587245D01*
X551732Y140099D02*
X587245D01*
X551732Y139199D02*
X587245D01*
X551732Y138299D02*
X587245D01*
X551732Y137399D02*
X587245D01*
X551732Y136499D02*
X587245D01*
X551732Y135599D02*
X587245D01*
X551732Y134699D02*
X587245D01*
X551732Y133799D02*
X587245D01*
X551732Y132899D02*
X587245D01*
X551732Y131999D02*
X587245D01*
X551732Y131099D02*
X587245D01*
X551732Y130199D02*
X587245D01*
X551732Y129299D02*
X587245D01*
X552140Y142799D02*
X586836D01*
X333964Y127499D02*
X542600D01*
X333944Y128399D02*
X542021D01*
X326443Y141899D02*
X541969D01*
X327633Y140999D02*
X541969D01*
X328641Y140099D02*
X541969D01*
X329508Y139199D02*
X541969D01*
X330263Y138299D02*
X541969D01*
X330921Y137399D02*
X541969D01*
X331497Y136499D02*
X541969D01*
X332000Y135599D02*
X541969D01*
X332435Y134699D02*
X541969D01*
X332809Y133799D02*
X541969D01*
X333127Y132899D02*
X541969D01*
X333390Y131999D02*
X541969D01*
X333601Y131099D02*
X541969D01*
X333764Y130199D02*
X541969D01*
X333878Y129299D02*
X541969D01*
X326640Y142799D02*
X541560D01*
X286696Y442499D02*
X404390D01*
X287144Y441599D02*
X403490D01*
X287405Y440699D02*
X402672D01*
X287506Y439799D02*
X402650D01*
X287456Y438899D02*
X402650D01*
X287252Y437999D02*
X402650D01*
X286872Y437099D02*
X402650D01*
X286271Y436199D02*
X402650D01*
X285326Y435299D02*
X402650D01*
X284824Y434399D02*
X402650D01*
X285900Y433499D02*
X402650D01*
X286633Y432599D02*
X402650D01*
X287104Y431699D02*
X402650D01*
X287384Y430799D02*
X402650D01*
X287502Y429899D02*
X402650D01*
X287469Y428999D02*
X402650D01*
X287282Y428099D02*
X402650D01*
X286924Y427199D02*
X402650D01*
X286351Y426299D02*
X402650D01*
X285456Y425399D02*
X402650D01*
X283789Y424499D02*
X402650D01*
X127423Y423599D02*
X402650D01*
X127930Y422699D02*
X402650D01*
X128209Y421799D02*
X402650D01*
X128303Y420899D02*
X402650D01*
X128222Y419999D02*
X402650D01*
X127957Y419099D02*
X402650D01*
X127469Y418199D02*
X402650D01*
X126653Y417299D02*
X402650D01*
X125020Y416399D02*
X402650D01*
X101681Y415499D02*
X402650D01*
X101681Y414599D02*
X402650D01*
X101681Y413699D02*
X402650D01*
X101681Y412799D02*
X402650D01*
X101681Y411899D02*
X402650D01*
X101681Y410999D02*
X402650D01*
X101681Y410099D02*
X402650D01*
X101681Y409199D02*
X402650D01*
X203904Y408299D02*
X402650D01*
X205611Y407399D02*
X402650D01*
X206498Y406499D02*
X402650D01*
X207057Y405599D02*
X402650D01*
X207398Y404699D02*
X402650D01*
X207563Y403799D02*
X402650D01*
X207571Y402899D02*
X402650D01*
X207420Y401999D02*
X402650D01*
X207097Y401099D02*
X402650D01*
X386037Y400199D02*
X402650D01*
X386500Y399299D02*
X402650D01*
X386524Y398399D02*
X402650D01*
X386524Y397499D02*
X402650D01*
X386524Y396599D02*
X402650D01*
X386524Y395699D02*
X402650D01*
X386524Y394799D02*
X402650D01*
X386477Y393899D02*
X402650D01*
X385917Y392999D02*
X402650D01*
X129831Y374099D02*
X402650D01*
X129831Y373199D02*
X402650D01*
X129831Y372299D02*
X402650D01*
X129831Y371399D02*
X402650D01*
X129831Y370499D02*
X402650D01*
X101681Y274199D02*
X402650D01*
X385380Y256199D02*
X402650D01*
X386336Y255299D02*
X402650D01*
X386524Y254399D02*
X402650D01*
X386524Y253499D02*
X402650D01*
X386524Y252599D02*
X402650D01*
X386524Y251699D02*
X402650D01*
X386524Y250799D02*
X402650D01*
X386524Y249899D02*
X402650D01*
X386319Y248999D02*
X402650D01*
X216262Y248099D02*
X402650D01*
X215216Y247199D02*
X402650D01*
X101681Y246299D02*
X402650D01*
X101681Y245399D02*
X402650D01*
X126503Y244499D02*
X402650D01*
X128108Y243599D02*
X402650D01*
X129129Y242699D02*
X402650D01*
X129860Y241799D02*
X402650D01*
X130395Y240899D02*
X402650D01*
X130779Y239999D02*
X402650D01*
X131034Y239099D02*
X402650D01*
X131175Y238199D02*
X402650D01*
X131207Y237299D02*
X402650D01*
X131131Y236399D02*
X402650D01*
X130945Y235499D02*
X402650D01*
X130640Y234599D02*
X402650D01*
X130199Y233699D02*
X402650D01*
X129592Y232799D02*
X402650D01*
X128760Y231899D02*
X402650D01*
X127565Y230999D02*
X402650D01*
X125492Y230099D02*
X402650D01*
X125656Y229199D02*
X402650D01*
X127682Y228299D02*
X402650D01*
X128838Y227399D02*
X402650D01*
X129648Y226499D02*
X402650D01*
X130240Y225599D02*
X402650D01*
X130670Y224699D02*
X402650D01*
X130965Y223799D02*
X402650D01*
X131141Y222899D02*
X402650D01*
X131208Y221999D02*
X402650D01*
X131167Y221099D02*
X402650D01*
X131018Y220199D02*
X402650D01*
X130753Y219299D02*
X402650D01*
X130358Y218399D02*
X402650D01*
X129809Y217499D02*
X402650D01*
X129059Y216599D02*
X402650D01*
X128007Y215699D02*
X402650D01*
X126319Y214799D02*
X402650D01*
X101681Y213899D02*
X402650D01*
X101681Y212999D02*
X402650D01*
X101681Y212099D02*
X402650D01*
X125831Y211199D02*
X402648D01*
X385335Y392099D02*
X402622D01*
X101681Y275099D02*
X402537D01*
X129831Y374999D02*
X402524D01*
X129831Y369599D02*
X402356D01*
X101681Y275999D02*
X401641D01*
X129831Y368699D02*
X401456D01*
X206125Y265199D02*
X396386D01*
X276247Y383099D02*
X396252D01*
X385823Y257099D02*
X396231D01*
X385249Y383999D02*
X395974D01*
X101681Y273299D02*
X395728D01*
X204975Y266099D02*
X395698D01*
X129831Y375899D02*
X395414D01*
X275562Y382199D02*
X395323D01*
X101681Y272399D02*
X395206D01*
X101681Y266999D02*
X395201D01*
X274337Y381299D02*
X395169D01*
X124569Y380399D02*
X395169D01*
X101681Y379499D02*
X395169D01*
X129139Y378599D02*
X395169D01*
X129767Y377699D02*
X395169D01*
X129831Y376799D02*
X395169D01*
X101681Y271499D02*
X395169D01*
X101681Y270599D02*
X395169D01*
X101681Y269699D02*
X395169D01*
X101681Y268799D02*
X395169D01*
X101681Y267899D02*
X395169D01*
X373438Y383999D02*
X379712D01*
X373524Y392099D02*
X379626D01*
X373569Y256199D02*
X379581D01*
X374013Y257099D02*
X379137D01*
X374106Y392999D02*
X379043D01*
X374226Y400199D02*
X378924D01*
X374508Y248999D02*
X378642D01*
X374525Y255299D02*
X378624D01*
X374666Y393899D02*
X378483D01*
X374689Y399299D02*
X378461D01*
X374713Y398399D02*
X378437D01*
X374713Y397499D02*
X378437D01*
X374713Y396599D02*
X378437D01*
X374713Y395699D02*
X378437D01*
X374713Y394799D02*
X378437D01*
X374713Y254399D02*
X378437D01*
X374713Y253499D02*
X378437D01*
X374713Y252599D02*
X378437D01*
X374713Y251699D02*
X378437D01*
X374713Y250799D02*
X378437D01*
X374713Y249899D02*
X378437D01*
X276650Y383999D02*
X367901D01*
X217445Y392099D02*
X367815D01*
X274563Y256199D02*
X367770D01*
X275312Y257099D02*
X367326D01*
X217578Y392999D02*
X367232D01*
X206561Y400199D02*
X367113D01*
X216907Y248999D02*
X366831D01*
X273321Y255299D02*
X366813D01*
X217553Y393899D02*
X366672D01*
X205713Y399299D02*
X366650D01*
X213533Y398399D02*
X366626D01*
X215481Y397499D02*
X366626D01*
X216419Y396599D02*
X366626D01*
X217007Y395699D02*
X366626D01*
X217369Y394799D02*
X366626D01*
X216758Y254399D02*
X366626D01*
X217220Y253499D02*
X366626D01*
X217485Y252599D02*
X366626D01*
X217585Y251699D02*
X366626D01*
X217529Y250799D02*
X366626D01*
X217310Y249899D02*
X366626D01*
X291659Y479399D02*
X313682D01*
X289526Y110399D02*
X313486D01*
X101681Y445199D02*
X312718D01*
X291962Y478499D02*
X310348D01*
X290154Y111299D02*
X310260D01*
X101681Y446099D02*
X309874D01*
X292205Y477599D02*
X308362D01*
X290693Y112199D02*
X308299D01*
X101681Y446999D02*
X308018D01*
X292391Y476699D02*
X306856D01*
X291153Y113099D02*
X306805D01*
X101681Y141899D02*
X306628D01*
X101681Y447899D02*
X306580D01*
X102090Y142799D02*
X306431D01*
X292523Y475799D02*
X305628D01*
X291542Y113999D02*
X305586D01*
X101681Y140999D02*
X305438D01*
X101681Y448799D02*
X305397D01*
X292601Y474899D02*
X304592D01*
X291866Y114899D02*
X304557D01*
X101681Y140099D02*
X304430D01*
X101681Y449699D02*
X304396D01*
X292626Y473999D02*
X303703D01*
X292130Y115799D02*
X303672D01*
X101681Y139199D02*
X303563D01*
X101681Y450599D02*
X303533D01*
X292599Y473099D02*
X302930D01*
X292335Y116699D02*
X302904D01*
X101681Y138299D02*
X302808D01*
X101681Y451499D02*
X302782D01*
X292519Y472199D02*
X302256D01*
X292485Y117599D02*
X302233D01*
X101681Y137399D02*
X302149D01*
X101681Y452399D02*
X302127D01*
X292385Y471299D02*
X301667D01*
X292580Y118499D02*
X301646D01*
X101681Y136499D02*
X301574D01*
X101681Y453299D02*
X301554D01*
X292197Y470399D02*
X301153D01*
X292623Y119399D02*
X301135D01*
X101681Y135599D02*
X301071D01*
X101681Y454199D02*
X301054D01*
X291951Y469499D02*
X300706D01*
X292614Y120299D02*
X300690D01*
X280856Y134699D02*
X300636D01*
X101681Y455099D02*
X300621D01*
X291646Y468599D02*
X300321D01*
X292552Y121199D02*
X300308D01*
X283477Y133799D02*
X300261D01*
X101681Y455999D02*
X300249D01*
X291277Y467699D02*
X299995D01*
X292436Y122099D02*
X299984D01*
X285192Y132899D02*
X299944D01*
X101681Y456899D02*
X299934D01*
X290838Y466799D02*
X299723D01*
X292267Y122999D02*
X299713D01*
X286514Y131999D02*
X299681D01*
X101681Y457799D02*
X299672D01*
X290324Y465899D02*
X299502D01*
X292041Y123899D02*
X299495D01*
X287594Y131099D02*
X299469D01*
X279268Y458699D02*
X299463D01*
X289724Y464999D02*
X299332D01*
X291756Y124799D02*
X299326D01*
X288501Y130199D02*
X299307D01*
X282749Y459599D02*
X299302D01*
X289026Y464099D02*
X299209D01*
X291409Y125699D02*
X299206D01*
X289274Y129299D02*
X299193D01*
X284670Y460499D02*
X299190D01*
X288212Y463199D02*
X299135D01*
X290994Y126599D02*
X299133D01*
X289937Y128399D02*
X299127D01*
X286101Y461399D02*
X299125D01*
X287252Y462299D02*
X299107D01*
X290506Y127499D02*
X299106D01*
X126575Y424499D02*
X280384D01*
X126502Y434399D02*
X279349D01*
X128056Y444299D02*
X279305D01*
X125298Y435299D02*
X278847D01*
X124928Y425399D02*
X278717D01*
X127381Y433499D02*
X278273D01*
X128256Y443399D02*
X278174D01*
X127506Y436199D02*
X277902D01*
X125192Y426299D02*
X277822D01*
X127905Y432599D02*
X277540D01*
X128256Y442499D02*
X277477D01*
X128180Y437099D02*
X277301D01*
X126719Y427199D02*
X277249D01*
X128197Y431699D02*
X277069D01*
X128256Y441599D02*
X277029D01*
X128256Y437999D02*
X276922D01*
X127508Y428099D02*
X276891D01*
X128302Y430799D02*
X276789D01*
X128256Y440699D02*
X276769D01*
X128256Y438899D02*
X276717D01*
X127980Y428999D02*
X276704D01*
X128233Y429899D02*
X276671D01*
X128256Y439799D02*
X276667D01*
X121787Y458699D02*
X275063D01*
X122022Y489299D02*
X274828D01*
X123376Y134699D02*
X273475D01*
X217142Y391199D02*
X273454D01*
X216634Y390299D02*
X272342D01*
X124516Y104999D02*
X272334D01*
X125269Y459599D02*
X271581D01*
X125356Y488399D02*
X271494D01*
X101681Y276899D02*
X271213D01*
X206820Y264299D02*
X271119D01*
X125997Y133799D02*
X270854D01*
X101681Y277799D02*
X270313D01*
X126683Y105899D02*
X270168D01*
X126561Y381299D02*
X270151D01*
X215829Y389399D02*
X269847D01*
X127190Y460499D02*
X269661D01*
X127251Y487499D02*
X269600D01*
X101681Y278699D02*
X269413D01*
X216027Y255299D02*
X269198D01*
X127712Y132899D02*
X269138D01*
X127681Y382199D02*
X268926D01*
X207258Y263399D02*
X268837D01*
X214405Y388499D02*
X268769D01*
X128228Y106799D02*
X268623D01*
X101681Y279599D02*
X268513D01*
X128456Y383099D02*
X268241D01*
X128620Y461399D02*
X268230D01*
X149006Y486599D02*
X268182D01*
X129826Y387599D02*
X268147D01*
X214794Y256199D02*
X267957D01*
X129014Y383999D02*
X267838D01*
X129034Y131999D02*
X267816D01*
X129803Y386699D02*
X267786D01*
X207504Y262499D02*
X267771D01*
X129408Y384899D02*
X267641D01*
X129666Y385799D02*
X267625D01*
X101681Y280499D02*
X267613D01*
X129450Y107699D02*
X267400D01*
X205056Y257099D02*
X267266D01*
X122711Y336299D02*
X267217D01*
X123631Y335399D02*
X267217D01*
X124198Y334499D02*
X267217D01*
X124538Y333599D02*
X267217D01*
X124695Y332699D02*
X267217D01*
X124689Y331799D02*
X267217D01*
X124518Y330899D02*
X267217D01*
X124163Y329999D02*
X267217D01*
X123575Y329099D02*
X267217D01*
X122616Y328199D02*
X267217D01*
X120340Y327299D02*
X267217D01*
X101681Y326399D02*
X267217D01*
X101681Y325499D02*
X267217D01*
X101681Y324599D02*
X267217D01*
X101681Y323699D02*
X267217D01*
X101681Y322799D02*
X267217D01*
X101681Y321899D02*
X267217D01*
X101681Y320999D02*
X267217D01*
X101681Y320099D02*
X267217D01*
X101681Y319199D02*
X267217D01*
X101681Y318299D02*
X267217D01*
X101681Y317399D02*
X267217D01*
X139994Y316499D02*
X267217D01*
X141483Y315599D02*
X267217D01*
X142381Y314699D02*
X267217D01*
X142989Y313799D02*
X267217D01*
X143398Y312899D02*
X267217D01*
X143648Y311999D02*
X267217D01*
X143760Y311099D02*
X267217D01*
X143740Y310199D02*
X267217D01*
X143587Y309299D02*
X267217D01*
X143290Y308399D02*
X267217D01*
X142825Y307499D02*
X267217D01*
X142142Y306599D02*
X267217D01*
X178831Y305699D02*
X267217D01*
X180787Y304799D02*
X267217D01*
X181705Y303899D02*
X267217D01*
X182271Y302999D02*
X267217D01*
X254398Y302099D02*
X267217D01*
X254976Y301199D02*
X267217D01*
X255028Y300299D02*
X267217D01*
X255028Y299399D02*
X267217D01*
X255028Y298499D02*
X267217D01*
X255028Y297599D02*
X267217D01*
X255028Y296699D02*
X267217D01*
X255028Y295799D02*
X267217D01*
X255028Y294899D02*
X267217D01*
X255028Y293999D02*
X267217D01*
X255028Y293099D02*
X267217D01*
X255028Y292199D02*
X267217D01*
X255028Y291299D02*
X267217D01*
X255028Y290399D02*
X267217D01*
X255028Y289499D02*
X267217D01*
X255028Y288599D02*
X267217D01*
X255028Y287699D02*
X267217D01*
X255028Y286799D02*
X267217D01*
X255028Y285899D02*
X267217D01*
X255027Y284999D02*
X267217D01*
X254740Y284099D02*
X267217D01*
X101681Y283199D02*
X267217D01*
X101681Y282299D02*
X267217D01*
X101681Y281399D02*
X267217D01*
X207587Y261599D02*
X267155D01*
X129772Y462299D02*
X267079D01*
X150526Y485699D02*
X267039D01*
X120742Y337199D02*
X267015D01*
X206171Y257999D02*
X266859D01*
X207513Y260699D02*
X266798D01*
X130114Y131099D02*
X266737D01*
X206849Y258899D02*
X266659D01*
X207275Y259799D02*
X266639D01*
X130461Y108599D02*
X266389D01*
X130731Y463199D02*
X266119D01*
X101681Y338099D02*
X266115D01*
X151345Y484799D02*
X266086D01*
X131021Y130199D02*
X265830D01*
X131316Y109499D02*
X265535D01*
X131546Y464099D02*
X265304D01*
X151853Y483899D02*
X265276D01*
X101681Y338999D02*
X265215D01*
X131793Y129299D02*
X265057D01*
X132046Y110399D02*
X264804D01*
X132244Y464999D02*
X264607D01*
X152148Y482999D02*
X264582D01*
X132456Y128399D02*
X264394D01*
X101681Y339899D02*
X264315D01*
X132674Y111299D02*
X264177D01*
X132843Y465899D02*
X264007D01*
X152267Y482099D02*
X263986D01*
X133026Y127499D02*
X263824D01*
X133212Y112199D02*
X263638D01*
X133358Y466799D02*
X263493D01*
X152224Y481199D02*
X263475D01*
X133514Y126599D02*
X263337D01*
X133673Y113099D02*
X263178D01*
X133796Y467699D02*
X263054D01*
X152013Y480299D02*
X263039D01*
X133928Y125699D02*
X262922D01*
X134062Y113999D02*
X262788D01*
X134166Y468599D02*
X262685D01*
X151611Y479399D02*
X262672D01*
X134276Y124799D02*
X262575D01*
X134386Y114899D02*
X262464D01*
X134471Y469499D02*
X262379D01*
X150956Y478499D02*
X262369D01*
X134560Y123899D02*
X262290D01*
X134649Y115799D02*
X262201D01*
X134717Y470399D02*
X262134D01*
X149864Y477599D02*
X262126D01*
X134786Y122999D02*
X262064D01*
X134855Y116699D02*
X261996D01*
X134905Y471299D02*
X261945D01*
X134911Y476699D02*
X261939D01*
X134956Y122099D02*
X261894D01*
X135004Y117599D02*
X261846D01*
X135039Y472199D02*
X261812D01*
X135043Y475799D02*
X261808D01*
X135071Y121199D02*
X261779D01*
X135100Y118499D02*
X261750D01*
X135118Y473099D02*
X261732D01*
X135120Y474899D02*
X261730D01*
X135134Y120299D02*
X261717D01*
X135143Y119399D02*
X261707D01*
X135146Y473999D02*
X261705D01*
X182609Y302099D02*
X236546D01*
X101681Y284099D02*
X236205D01*
X182767Y301199D02*
X235968D01*
X139804Y284999D02*
X235918D01*
X182760Y300299D02*
X235917D01*
X182588Y299399D02*
X235917D01*
X182232Y298499D02*
X235917D01*
X181643Y297599D02*
X235917D01*
X180681Y296699D02*
X235917D01*
X178380Y295799D02*
X235917D01*
X142211Y294899D02*
X235917D01*
X142873Y293999D02*
X235917D01*
X143321Y293099D02*
X235917D01*
X143605Y292199D02*
X235917D01*
X143747Y291299D02*
X235917D01*
X143756Y290399D02*
X235917D01*
X143633Y289499D02*
X235917D01*
X143369Y288599D02*
X235917D01*
X142945Y287699D02*
X235917D01*
X142317Y286799D02*
X235917D01*
X141386Y285899D02*
X235917D01*
X129831Y367799D02*
X227328D01*
X129831Y366899D02*
X226428D01*
X101681Y340799D02*
X225620D01*
X129817Y365999D02*
X225528D01*
X101681Y341699D02*
X224720D01*
X129406Y365099D02*
X224628D01*
X101681Y342599D02*
X223820D01*
X101681Y364199D02*
X223728D01*
X101681Y363299D02*
X223516D01*
X101681Y362399D02*
X223516D01*
X101681Y361499D02*
X223516D01*
X101681Y349799D02*
X223516D01*
X101681Y348899D02*
X223516D01*
X101681Y347999D02*
X223516D01*
X101681Y347099D02*
X223516D01*
X101681Y346199D02*
X223516D01*
X101681Y345299D02*
X223516D01*
X101681Y344399D02*
X223516D01*
X101681Y343499D02*
X223516D01*
X101681Y350699D02*
X223460D01*
X101681Y360599D02*
X222213D01*
X101681Y351599D02*
X221422D01*
X101681Y359699D02*
X220716D01*
X101681Y352499D02*
X220318D01*
X101681Y358799D02*
X219904D01*
X101681Y353399D02*
X219658D01*
X101681Y357899D02*
X219400D01*
X101681Y354299D02*
X219252D01*
X101681Y356999D02*
X219108D01*
X101681Y355199D02*
X219038D01*
X101681Y356099D02*
X218992D01*
X204152Y398399D02*
X211192D01*
X194405Y388499D02*
X210319D01*
X194794Y256199D02*
X209930D01*
X195216Y247199D02*
X209508D01*
X195481Y397499D02*
X209244D01*
X195829Y389399D02*
X208895D01*
X196027Y255299D02*
X208698D01*
X196262Y248099D02*
X208462D01*
X196419Y396599D02*
X208305D01*
X196634Y390299D02*
X208091D01*
X196758Y254399D02*
X207967D01*
X196907Y248999D02*
X207817D01*
X197007Y395699D02*
X207717D01*
X197142Y391199D02*
X207582D01*
X197220Y253499D02*
X207505D01*
X197310Y249899D02*
X207414D01*
X197369Y394799D02*
X207355D01*
X197445Y392099D02*
X207279D01*
X197485Y252599D02*
X207239D01*
X197529Y250799D02*
X207196D01*
X197553Y393899D02*
X207171D01*
X197578Y392999D02*
X207147D01*
X197585Y251699D02*
X207139D01*
X101681Y408299D02*
X200820D01*
X193533Y398399D02*
X200573D01*
X101681Y266099D02*
X199749D01*
X101681Y257099D02*
X199668D01*
X101681Y407399D02*
X199114D01*
X101681Y399299D02*
X199011D01*
X101681Y265199D02*
X198599D01*
X101681Y257999D02*
X198554D01*
X101681Y406499D02*
X198226D01*
X101681Y400199D02*
X198163D01*
X101681Y264299D02*
X197904D01*
X101681Y258899D02*
X197875D01*
X101681Y405599D02*
X197667D01*
X101681Y401099D02*
X197627D01*
X101681Y263399D02*
X197466D01*
X101681Y259799D02*
X197449D01*
X101681Y404699D02*
X197327D01*
X101681Y401999D02*
X197304D01*
X101681Y262499D02*
X197220D01*
X101681Y260699D02*
X197212D01*
X101681Y403799D02*
X197161D01*
X101681Y402899D02*
X197154D01*
X101681Y261599D02*
X197138D01*
X101681Y398399D02*
X191192D01*
X129735Y388499D02*
X190319D01*
X101681Y256199D02*
X189930D01*
X101681Y247199D02*
X189508D01*
X101681Y397499D02*
X189244D01*
X129526Y389399D02*
X188895D01*
X101681Y255299D02*
X188698D01*
X101681Y248099D02*
X188462D01*
X101681Y396599D02*
X188305D01*
X129188Y390299D02*
X188091D01*
X101681Y254399D02*
X187967D01*
X101681Y248999D02*
X187817D01*
X101681Y395699D02*
X187717D01*
X128700Y391199D02*
X187582D01*
X101681Y253499D02*
X187505D01*
X101681Y249899D02*
X187414D01*
X101681Y394799D02*
X187355D01*
X128021Y392099D02*
X187279D01*
X101681Y252599D02*
X187239D01*
X101681Y250799D02*
X187196D01*
X125563Y393899D02*
X187171D01*
X127062Y392999D02*
X187147D01*
X101681Y251699D02*
X187139D01*
X141224Y295799D02*
X177132D01*
X141116Y305699D02*
X176681D01*
X139458Y296699D02*
X174830D01*
X139197Y304799D02*
X174725D01*
X135564Y297599D02*
X173869D01*
X135594Y303899D02*
X173807D01*
X135866Y298499D02*
X173279D01*
X135887Y302999D02*
X173241D01*
X136063Y299399D02*
X172924D01*
X136075Y302099D02*
X172902D01*
X136162Y300299D02*
X172752D01*
X136166Y301199D02*
X172745D01*
X128668Y486599D02*
X145483D01*
X134725Y477599D02*
X144624D01*
X129811Y485699D02*
X143963D01*
X134481Y478499D02*
X143532D01*
X130765Y484799D02*
X143144D01*
X134178Y479399D02*
X142877D01*
X131574Y483899D02*
X142635D01*
X133811Y480299D02*
X142475D01*
X132268Y482999D02*
X142340D01*
X133376Y481199D02*
X142264D01*
X132864Y482099D02*
X142221D01*
X119804Y284999D02*
X135314D01*
X119994Y316499D02*
X135124D01*
X121386Y285899D02*
X133732D01*
X121483Y315599D02*
X133635D01*
X122317Y286799D02*
X132801D01*
X122381Y314699D02*
X132737D01*
X122945Y287699D02*
X132173D01*
X122989Y313799D02*
X132130D01*
X123369Y288599D02*
X131749D01*
X123398Y312899D02*
X131720D01*
X128901Y309299D02*
X131530D01*
X128249Y292199D02*
X131513D01*
X123633Y289499D02*
X131486D01*
X123648Y311999D02*
X131470D01*
X123740Y310199D02*
X131378D01*
X123747Y291299D02*
X131371D01*
X123756Y290399D02*
X131363D01*
X123760Y311099D02*
X131358D01*
X123605Y292199D02*
X126869D01*
X123588Y309299D02*
X126217D01*
X101681Y425399D02*
X122316D01*
X101681Y416399D02*
X122224D01*
X101681Y426299D02*
X122052D01*
X101681Y435299D02*
X121946D01*
X101681Y230099D02*
X121752D01*
X101681Y229199D02*
X121588D01*
X101683Y211199D02*
X121413D01*
X101681Y214799D02*
X120925D01*
X101681Y434399D02*
X120742D01*
X101681Y244499D02*
X120741D01*
X101681Y380399D02*
X120707D01*
X101681Y424499D02*
X120670D01*
X101681Y417299D02*
X120591D01*
X101681Y427199D02*
X120525D01*
X101681Y433499D02*
X119863D01*
X101681Y423599D02*
X119821D01*
X101681Y418199D02*
X119775D01*
X101681Y436199D02*
X119738D01*
X101681Y428099D02*
X119736D01*
X101681Y393899D02*
X119712D01*
X101681Y230999D02*
X119679D01*
X101681Y228299D02*
X119562D01*
X101681Y297599D02*
X119554D01*
X101681Y303899D02*
X119524D01*
X101681Y432599D02*
X119339D01*
X101681Y422699D02*
X119315D01*
X101681Y419099D02*
X119287D01*
X101681Y428999D02*
X119264D01*
X101681Y298499D02*
X119252D01*
X101681Y215699D02*
X119237D01*
X101681Y302999D02*
X119231D01*
X101681Y444299D02*
X119188D01*
X101681Y243599D02*
X119136D01*
X101681Y437099D02*
X119064D01*
X101681Y299399D02*
X119055D01*
X101681Y431699D02*
X119047D01*
X101681Y302099D02*
X119043D01*
X101681Y421799D02*
X119035D01*
X101681Y327299D02*
X119030D01*
X101681Y419999D02*
X119022D01*
X101681Y429899D02*
X119012D01*
X101681Y443399D02*
X118988D01*
X101681Y442499D02*
X118988D01*
X101681Y441599D02*
X118988D01*
X101681Y440699D02*
X118988D01*
X101681Y439799D02*
X118988D01*
X101681Y438899D02*
X118988D01*
X101681Y437999D02*
X118988D01*
X101681Y300299D02*
X118957D01*
X101681Y301199D02*
X118953D01*
X101681Y430799D02*
X118942D01*
X101681Y420899D02*
X118941D01*
X101681Y381299D02*
X118715D01*
X101681Y337199D02*
X118628D01*
X101681Y231899D02*
X118484D01*
X101681Y227399D02*
X118406D01*
X101681Y392999D02*
X118213D01*
X101681Y216599D02*
X118185D01*
X101681Y242699D02*
X118115D01*
X101681Y232799D02*
X117652D01*
X101681Y226499D02*
X117596D01*
X101681Y382199D02*
X117595D01*
X101681Y458699D02*
X117583D01*
X101681Y217499D02*
X117435D01*
X101681Y241799D02*
X117384D01*
X101681Y489299D02*
X117348D01*
X101681Y392099D02*
X117255D01*
X101681Y233699D02*
X117045D01*
X101681Y225599D02*
X117004D01*
X101681Y218399D02*
X116886D01*
X101681Y240899D02*
X116849D01*
X101681Y383099D02*
X116819D01*
X101681Y328199D02*
X116754D01*
X101681Y336299D02*
X116659D01*
X101681Y234599D02*
X116604D01*
X101681Y391199D02*
X116575D01*
X101681Y224699D02*
X116575D01*
X101681Y219299D02*
X116492D01*
X101681Y239999D02*
X116466D01*
X101681Y235499D02*
X116299D01*
X101681Y223799D02*
X116279D01*
X101681Y383999D02*
X116262D01*
X101681Y220199D02*
X116226D01*
X101681Y239099D02*
X116210D01*
X101681Y378599D02*
X116137D01*
X101681Y236399D02*
X116113D01*
X101681Y222899D02*
X116103D01*
X101681Y390299D02*
X116087D01*
X101681Y221099D02*
X116077D01*
X101681Y238199D02*
X116069D01*
X101681Y237299D02*
X116038D01*
X101681Y221999D02*
X116036D01*
X101681Y134699D02*
X115994D01*
X101681Y304799D02*
X115921D01*
X101681Y365099D02*
X115870D01*
X101681Y384899D02*
X115867D01*
X101681Y329099D02*
X115795D01*
X101681Y389399D02*
X115749D01*
X101681Y335399D02*
X115739D01*
X101681Y296699D02*
X115661D01*
X101681Y385799D02*
X115609D01*
X101681Y388499D02*
X115541D01*
X101681Y377699D02*
X115509D01*
X101681Y386699D02*
X115472D01*
X101681Y365999D02*
X115459D01*
X101681Y387599D02*
X115450D01*
X101681Y376799D02*
X115445D01*
X101681Y375899D02*
X115445D01*
X101681Y374999D02*
X115445D01*
X101681Y374099D02*
X115445D01*
X101681Y373199D02*
X115445D01*
X101681Y372299D02*
X115445D01*
X101681Y371399D02*
X115445D01*
X101681Y370499D02*
X115445D01*
X101681Y369599D02*
X115445D01*
X101681Y368699D02*
X115445D01*
X101681Y367799D02*
X115445D01*
X101681Y366899D02*
X115445D01*
X101681Y284999D02*
X115314D01*
X101681Y329999D02*
X115207D01*
X101681Y334499D02*
X115172D01*
X101681Y316499D02*
X115124D01*
X101681Y104999D02*
X114854D01*
X101681Y330899D02*
X114852D01*
X101681Y333599D02*
X114833D01*
X101681Y331799D02*
X114681D01*
X101681Y332699D02*
X114675D01*
X101681Y459599D02*
X114101D01*
X101681Y488399D02*
X114014D01*
X101681Y305699D02*
X114002D01*
X101681Y295799D02*
X113894D01*
X101681Y285899D02*
X113732D01*
X101681Y315599D02*
X113635D01*
X101681Y133799D02*
X113373D01*
X101681Y306599D02*
X112976D01*
X101681Y294899D02*
X112907D01*
X101681Y286799D02*
X112801D01*
X101681Y314699D02*
X112737D01*
X101681Y105899D02*
X112687D01*
X101681Y307499D02*
X112293D01*
X101681Y293999D02*
X112245D01*
X101681Y460499D02*
X112180D01*
X101681Y287699D02*
X112173D01*
X101681Y313799D02*
X112130D01*
X101681Y487499D02*
X112119D01*
X101681Y308399D02*
X111828D01*
X101681Y293099D02*
X111797D01*
X101681Y288599D02*
X111749D01*
X101681Y312899D02*
X111720D01*
X101681Y132899D02*
X111658D01*
X101681Y309299D02*
X111531D01*
X101681Y292199D02*
X111513D01*
X101681Y289499D02*
X111486D01*
X101681Y311999D02*
X111470D01*
X101681Y310199D02*
X111378D01*
X101681Y291299D02*
X111371D01*
X101681Y290399D02*
X111363D01*
X101681Y311099D02*
X111358D01*
X101681Y106799D02*
X111143D01*
X101681Y461399D02*
X110750D01*
X101681Y486599D02*
X110702D01*
X101681Y131999D02*
X110336D01*
X101681Y107699D02*
X109920D01*
X101681Y462299D02*
X109598D01*
X101681Y485699D02*
X109559D01*
X101681Y131099D02*
X109256D01*
X101681Y108599D02*
X108909D01*
X101681Y463199D02*
X108639D01*
X101681Y484799D02*
X108605D01*
X101681Y130199D02*
X108349D01*
X101681Y109499D02*
X108054D01*
X101681Y464099D02*
X107824D01*
X101681Y483899D02*
X107796D01*
X101681Y129299D02*
X107577D01*
X101681Y110399D02*
X107324D01*
X101681Y464999D02*
X107126D01*
X101681Y482999D02*
X107102D01*
X101681Y128399D02*
X106914D01*
X101681Y111299D02*
X106697D01*
X101681Y465899D02*
X106527D01*
X101681Y482099D02*
X106506D01*
X101681Y127499D02*
X106344D01*
X101681Y112199D02*
X106158D01*
X101681Y466799D02*
X106012D01*
X101681Y481199D02*
X105994D01*
X101681Y126599D02*
X105856D01*
X101681Y113099D02*
X105697D01*
X101681Y467699D02*
X105574D01*
X101681Y480299D02*
X105559D01*
X101681Y125699D02*
X105442D01*
X101681Y113999D02*
X105308D01*
X101681Y468599D02*
X105204D01*
X101681Y479399D02*
X105192D01*
X101681Y124799D02*
X105095D01*
X101681Y114899D02*
X104984D01*
X101681Y469499D02*
X104899D01*
X101681Y478499D02*
X104889D01*
X101681Y123899D02*
X104810D01*
X101681Y115799D02*
X104721D01*
X101681Y470399D02*
X104653D01*
X101681Y477599D02*
X104645D01*
X101681Y122999D02*
X104584D01*
X101681Y116699D02*
X104516D01*
X101681Y471299D02*
X104465D01*
X101681Y476699D02*
X104459D01*
X101681Y122099D02*
X104414D01*
X101681Y117599D02*
X104366D01*
X101681Y472199D02*
X104332D01*
X101681Y475799D02*
X104328D01*
X101681Y121199D02*
X104299D01*
X101681Y118499D02*
X104270D01*
X101681Y473099D02*
X104252D01*
X101681Y474899D02*
X104250D01*
X101681Y120299D02*
X104237D01*
X101681Y119399D02*
X104227D01*
X101681Y473999D02*
X104224D01*
X100000Y100000D02*
X1044882D01*
Y493701*
X100000*
Y100000*
X473031Y401181D02*
X475000Y403150D01*
X512402*
X514370Y401181*
Y243701*
X512402Y241732*
X475000*
X473031Y243701*
Y401181*
X40945Y100000D02*
Y290100D01*
Y100000D02*
X38445Y110000D01*
X43445*
X40945Y100000*
Y493701D02*
Y303600D01*
Y493701D02*
X43445Y483701D01*
X38445*
X40945Y493701*
X95000Y100000D02*
X35945D01*
X95000Y493701D02*
X35945D01*
X23786Y298413D02*
X24240Y298725D01*
X24922Y299663*
Y293100*
X28331Y299663D02*
X27649Y299350D01*
X27195Y298413*
X26968Y296850*
Y295913*
X27195Y294350*
X27649Y293413*
X28331Y293100*
X28786*
X29468Y293413*
X29922Y294350*
X30149Y295913*
Y296850*
X29922Y298413*
X29468Y299350*
X28786Y299663*
X28331*
X33559D02*
X32877Y299350D01*
X32422Y298413*
X32195Y296850*
Y295913*
X32422Y294350*
X32877Y293413*
X33559Y293100*
X34013*
X34695Y293413*
X35149Y294350*
X35377Y295913*
Y296850*
X35149Y298413*
X34695Y299350*
X34013Y299663*
X33559*
X37649Y293725D02*
X37422Y293413D01*
X37649Y293100*
X37877Y293413*
X37649Y293725*
X41286Y299663D02*
X40604Y299350D01*
X40149Y298413*
X39922Y296850*
Y295913*
X40149Y294350*
X40604Y293413*
X41286Y293100*
X41740*
X42422Y293413*
X42877Y294350*
X43104Y295913*
Y296850*
X42877Y298413*
X42422Y299350*
X41740Y299663*
X41286*
X45149Y297475D02*
Y293100D01*
Y296225D02*
X45831Y297163D01*
X46286Y297475*
X46968*
X47422Y297163*
X47649Y296225*
Y293100*
Y296225D02*
X48331Y297163D01*
X48786Y297475*
X49468*
X49922Y297163*
X50149Y296225*
Y293100*
X52195Y297475D02*
Y293100D01*
Y296225D02*
X52877Y297163D01*
X53331Y297475*
X54013*
X54468Y297163*
X54695Y296225*
Y293100*
Y296225D02*
X55377Y297163D01*
X55831Y297475*
X56513*
X56968Y297163*
X57195Y296225*
Y293100*
X100000Y548819D02*
X551145D01*
X100000D02*
X110000Y551319D01*
Y546319*
X100000Y548819*
X1044882D02*
X593736D01*
X1044882D02*
X1034882Y546319D01*
Y551319*
X1044882Y548819*
X100000Y498701D02*
Y553819D01*
X1044882Y498701D02*
Y553819D01*
X554373Y550069D02*
Y550381D01*
X554600Y551006*
X554827Y551319*
X555282Y551631*
X556191*
X556645Y551319*
X556873Y551006*
X557100Y550381*
Y549756*
X556873Y549131*
X556418Y548194*
X554145Y545069*
X557327*
X561645Y551631D02*
X559373Y547256D01*
X562782*
X561645Y551631D02*
Y545069D01*
X566191Y551631D02*
X565509Y551319D01*
X565055Y550381*
X564827Y548819*
Y547881*
X565055Y546319*
X565509Y545381*
X566191Y545069*
X566645*
X567327Y545381*
X567782Y546319*
X568009Y547881*
Y548819*
X567782Y550381*
X567327Y551319*
X566645Y551631*
X566191*
X570282Y545694D02*
X570055Y545381D01*
X570282Y545069*
X570509Y545381*
X570282Y545694*
X573918Y551631D02*
X573236Y551319D01*
X572782Y550381*
X572555Y548819*
Y547881*
X572782Y546319*
X573236Y545381*
X573918Y545069*
X574373*
X575055Y545381*
X575509Y546319*
X575736Y547881*
Y548819*
X575509Y550381*
X575055Y551319*
X574373Y551631*
X573918*
X577782Y549444D02*
Y545069D01*
Y548194D02*
X578464Y549131D01*
X578918Y549444*
X579600*
X580055Y549131*
X580282Y548194*
Y545069*
Y548194D02*
X580964Y549131D01*
X581418Y549444*
X582100*
X582555Y549131*
X582782Y548194*
Y545069*
X584827Y549444D02*
Y545069D01*
Y548194D02*
X585509Y549131D01*
X585964Y549444*
X586645*
X587100Y549131*
X587327Y548194*
Y545069*
Y548194D02*
X588009Y549131D01*
X588464Y549444*
X589145*
X589600Y549131*
X589827Y548194*
Y545069*
G54D51*
X465157Y139370D02*
Y150787D01*
X493701Y139370D02*
Y147150D01*
X476969Y139370D02*
Y150787D01*
X507480Y139370D02*
Y147150D01*
X271260Y259449D02*
X272244Y260433D01*
Y260827*
X370669*
Y245669D02*
Y252165D01*
Y260827D02*
X382480D01*
Y245669D02*
Y252165D01*
X399213Y269685D02*
X430118D01*
X430709Y270276*
X382480Y260827D02*
X382677Y261024D01*
X399213*
X272244Y385433D02*
X272638D01*
X275197Y387992*
X370669*
Y396654D02*
Y403150D01*
Y387992D02*
X382480D01*
X399213Y387795D02*
X382677D01*
X382480Y387992*
Y396654D02*
Y403150D01*
X426181Y377165D02*
X430709Y378543D01*
X430118Y379134*
X399213*
X224016Y293898D02*
X265354D01*
X245669Y309646D02*
Y279134D01*
G54D53*
X123622Y190709D03*
Y221890D03*
Y237480D03*
G54D56*
X862795Y160807D03*
Y125807D03*
X980138Y214173D03*
X1015138D03*
X980138Y174803D03*
X1015138D03*
X865531Y438583D03*
X830531D03*
X865531Y411024D03*
X830531D03*
X983858Y417146D03*
Y452146D03*
X759665Y438583D03*
X794665D03*
X759665Y411024D03*
X794665D03*
G54D58*
X159055Y107874D03*
X139370D03*
X198425D03*
X218110D03*
X178740D03*
X237795D03*
X257480D03*
X296850D03*
X316535D03*
Y115748D03*
X336220Y107874D03*
X355906D03*
X375591D03*
X395276D03*
X414961D03*
X434646D03*
X454331D03*
X474016D03*
X493701D03*
X513386D03*
X533071D03*
X552756D03*
X572441D03*
X611811D03*
X592126D03*
X631496D03*
X651181Y115748D03*
X670866Y107874D03*
X729921D03*
X710236D03*
X769291D03*
X749606D03*
X788976D03*
X808661D03*
X828346D03*
X848031D03*
X867717D03*
X887402D03*
X907087D03*
X926772D03*
X946457D03*
X966142D03*
X985827D03*
X1005512D03*
X107874Y139370D03*
X159055D03*
X139370D03*
X198425D03*
X178740D03*
X218110D03*
X237795D03*
X257480D03*
X296850D03*
X336220Y119685D03*
X308661Y135433D03*
X304724Y127559D03*
X308661Y119685D03*
X324409D03*
X328346Y127559D03*
X324409Y135433D03*
X316535Y139370D03*
X336220D03*
X375591Y119685D03*
X355906D03*
Y139370D03*
X375591D03*
X395276Y119685D03*
Y139370D03*
X414961Y119685D03*
Y139370D03*
X454331Y119685D03*
X434646Y139370D03*
X454331D03*
X434646Y119685D03*
X474016D03*
X493701D03*
X465157Y139370D03*
X493701D03*
X476969D03*
X513386Y119685D03*
X533071Y139370D03*
Y119685D03*
X507480Y139370D03*
X552756Y119685D03*
X572441Y139370D03*
X592126Y119685D03*
X611811Y139370D03*
X631496D03*
X643307Y119685D03*
X639370Y127559D03*
X643307Y135433D03*
X651181Y139370D03*
X670866Y127559D03*
X659055Y119685D03*
X662992Y127559D03*
X659055Y135433D03*
X710236Y139370D03*
X729921D03*
X749606D03*
X769291D03*
X788976Y127559D03*
X808661D03*
X828346D03*
X848031D03*
X887402D03*
X966142Y131496D03*
X985827D03*
X1013386Y159055D03*
X1005512Y127559D03*
X1013386Y139370D03*
X1037008Y159055D03*
Y139370D03*
X1013386Y198425D03*
X1037008Y178740D03*
Y198425D03*
X107874Y218110D03*
X139370Y237795D03*
X159055Y218110D03*
X162008Y225984D03*
X139370Y218110D03*
X198425D03*
X218110D03*
X178740D03*
X237795D03*
X257480D03*
X296850Y237795D03*
X277165Y218110D03*
X296850D03*
X316535Y237795D03*
X336220D03*
X316535Y218110D03*
X336220D03*
X355906Y237795D03*
X375591D03*
X355906Y218110D03*
X375591D03*
X395276D03*
Y237795D03*
X1037008Y218110D03*
X123622Y277165D03*
X119685Y257480D03*
X107874Y242717D03*
Y257480D03*
X139370Y249606D03*
X174803Y261417D03*
X153150Y275197D03*
X162992D03*
X142323Y266339D03*
X190551Y277165D03*
X218110D03*
X245669D03*
X257480Y243701D03*
X277165Y249606D03*
X296850D03*
X277165Y269291D03*
X271260Y259449D03*
X261417Y277165D03*
X296850Y269291D03*
X316535Y249606D03*
X336220D03*
X316535Y269291D03*
X336220D03*
X355906Y249606D03*
X370669Y245669D03*
X376575Y270276D03*
X355906Y269291D03*
X382480Y245669D03*
X1013386Y241732D03*
X1037008Y257480D03*
Y277165D03*
Y241732D03*
X178740Y316535D03*
Y285039D03*
X218110Y316535D03*
X245669Y310630D03*
X237795Y316535D03*
X224016Y293898D03*
X261417Y316535D03*
X264370Y293898D03*
X1009449Y316535D03*
X1037008Y296850D03*
Y316535D03*
X131496Y343110D03*
X115748Y344094D03*
X147244Y324409D03*
X198425Y336220D03*
X218110D03*
X178740D03*
X237795D03*
X261417D03*
X828346Y355906D03*
Y344094D03*
X962205Y355906D03*
X985827D03*
X1005512Y351969D03*
X1009449Y336220D03*
X1037008Y351969D03*
Y336220D03*
X107874Y375591D03*
X162992Y369685D03*
X198425Y371654D03*
X178740D03*
X233858Y375591D03*
X277165D03*
X296850Y399213D03*
X272244Y385433D03*
X296850Y375591D03*
X316535D03*
Y399213D03*
X336220D03*
Y375591D03*
X375591D03*
X355906D03*
Y399213D03*
X387402Y375591D03*
X808661Y395276D03*
X828346D03*
Y375591D03*
X962205Y371654D03*
X985827D03*
X1005512Y375591D03*
X1037008D03*
X123622Y407087D03*
X107874Y414961D03*
Y403150D03*
X135433Y411024D03*
X161024Y412992D03*
X144291Y420866D03*
X211220Y423819D03*
X201378D03*
X178740Y411024D03*
X229921Y416929D03*
X225984Y430709D03*
X257480Y401181D03*
X296850Y434646D03*
Y414961D03*
X281102Y401181D03*
X269291D03*
X336220Y434646D03*
X316535D03*
Y414961D03*
X336220D03*
X355906D03*
X375591D03*
X355906Y434646D03*
X370669Y403150D03*
X375591Y434646D03*
X382480Y403150D03*
X395276Y434646D03*
Y414961D03*
X611811Y434646D03*
Y414961D03*
X600000Y434646D03*
Y414961D03*
X651181Y434646D03*
Y414961D03*
X631496Y434646D03*
Y414961D03*
X670866Y434646D03*
X690551D03*
Y414961D03*
X670866D03*
X710236Y434646D03*
X722047Y414961D03*
X710236D03*
X722047Y434646D03*
X808661D03*
Y414961D03*
X828346Y426772D03*
X970079Y438583D03*
X958268D03*
X1005512Y434646D03*
X1025197D03*
X1037008D03*
X119685Y454331D03*
X107874D03*
X139370Y474016D03*
X176772Y450394D03*
X153150Y472047D03*
X171850Y445472D03*
X139370Y454331D03*
X181693Y445472D03*
X213937Y452008D03*
X237795Y474016D03*
X257480Y454331D03*
X277165D03*
X296850D03*
Y474016D03*
X336220D03*
Y454331D03*
X308661Y470079D03*
X316535Y474016D03*
X324409Y470079D03*
X328346Y462205D03*
X324409Y454331D03*
X316535Y450394D03*
X308661Y454331D03*
X304724Y462205D03*
X375591Y474016D03*
X355906Y454331D03*
Y474016D03*
X375591Y454331D03*
X395276Y474016D03*
X414961D03*
Y454331D03*
X395276D03*
X434646Y474016D03*
X454331D03*
Y454331D03*
X434646D03*
X474016Y474016D03*
X493701D03*
Y454331D03*
X474016D03*
X513386Y474016D03*
X533071D03*
Y454331D03*
X513386D03*
X552756Y474016D03*
X572441D03*
Y454331D03*
X552756D03*
X592126Y474016D03*
X611811D03*
Y454331D03*
X592126D03*
X631496Y474016D03*
X651181Y450394D03*
X643307Y454331D03*
X639370Y462205D03*
X643307Y470079D03*
X651181Y474016D03*
X631496Y454331D03*
X690551D03*
X659055D03*
Y470079D03*
X662992Y462205D03*
X729921Y466142D03*
X710236Y474016D03*
Y454331D03*
X722047D03*
X749606Y466142D03*
X769291D03*
X808661D03*
X788976D03*
X808661Y454331D03*
X848031Y466142D03*
X828346D03*
Y454331D03*
X887402Y466142D03*
X867717D03*
X926772D03*
X907087D03*
X970079Y474016D03*
Y458268D03*
X958268D03*
X946457Y466142D03*
X985827Y474016D03*
X1009449Y458268D03*
X1005512Y474016D03*
X1025197Y454331D03*
X1037008D03*
X159055Y485827D03*
X139370D03*
X218110D03*
X178740D03*
X237795D03*
X257480D03*
X296850D03*
X336220D03*
X355906D03*
X375591D03*
X395276D03*
X414961D03*
X434646D03*
X454331D03*
X474016D03*
X493701D03*
X513386D03*
X533071D03*
X572441D03*
X552756D03*
X611811D03*
X592126D03*
X631496D03*
X670866D03*
X729921D03*
X710236D03*
X769291D03*
X749606D03*
X808661D03*
X788976D03*
X848031D03*
X828346D03*
X887402D03*
X867717D03*
X926772D03*
X907087D03*
X966142D03*
X946457D03*
X1005512D03*
X985827D03*
X152272Y481890D02*
X150591D01*
X147244Y486917D02*
Y485236D01*
X142217Y481890D02*
X143898D01*
X147244Y476862D02*
Y478543D01*
X245472Y283358D02*
Y285039D01*
X235917Y292913D02*
X237598D01*
X245472Y302469D02*
Y300787D01*
X255028Y292913D02*
X253346D01*
X822154Y363780D02*
X820472D01*
X810630Y342413D02*
Y344094D01*
X799106Y363780D02*
X800787D01*
X810630Y385146D02*
Y383465D01*
X333965Y127559D02*
X332283D01*
X299106D02*
X300787D01*
X316535Y110130D02*
Y111811D01*
X668610Y462205D02*
X666929D01*
X651181Y479634D02*
Y477953D01*
X633752Y462205D02*
X635433D01*
X651181Y444776D02*
Y446457D01*
X333965Y462205D02*
X332283D01*
X316535Y479634D02*
Y477953D01*
X299106Y462205D02*
X300787D01*
X316535Y444776D02*
Y446457D01*
X668610Y127559D02*
X666929D01*
X633752D02*
X635433D01*
X651181Y110130D02*
Y111811D01*
X1034161Y344094D02*
X1032480D01*
X1029134Y349122D02*
Y347441D01*
X1024106Y344094D02*
X1025787D01*
X1029134Y339067D02*
Y340748D01*
X805815Y115748D02*
X804134D01*
X800787Y120776D02*
Y119094D01*
X795760Y115748D02*
X797441D01*
X800787Y110720D02*
Y112402D01*
X124713Y332283D02*
X123031D01*
X119685Y337311D02*
Y335630D01*
X114657Y332283D02*
X116339D01*
X119685Y327256D02*
Y328937D01*
X123622Y416185D02*
Y417866D01*
X128303Y420866D02*
X126622D01*
X118941D02*
X120622D01*
X824913Y411024D02*
X826594D01*
X830531Y405406D02*
Y407087D01*
X836150Y411024D02*
X834469D01*
X830531Y416642D02*
Y414961D01*
X824913Y438583D02*
X826594D01*
X830531Y432965D02*
Y434646D01*
X836150Y438583D02*
X834469D01*
X830531Y444201D02*
Y442520D01*
X983858Y457764D02*
Y456083D01*
X978240Y452146D02*
X979921D01*
X983858Y446528D02*
Y448209D01*
X989476Y452146D02*
X987795D01*
X862795Y120189D02*
Y121870D01*
X868413Y125807D02*
X866732D01*
X862795Y131425D02*
Y129744D01*
X857177Y125807D02*
X858858D01*
X800283Y411024D02*
X798602D01*
X794665Y416642D02*
Y414961D01*
Y405406D02*
Y407087D01*
X800283Y438583D02*
X798602D01*
X794665Y444201D02*
Y442520D01*
Y432965D02*
Y434646D01*
X1020756Y174803D02*
X1019075D01*
X1015138Y180421D02*
Y178740D01*
X1009520Y174803D02*
X1011201D01*
X1015138Y169185D02*
Y170866D01*
X1020756Y214173D02*
X1019075D01*
X1015138Y219791D02*
Y218110D01*
X1009520Y214173D02*
X1011201D01*
X1015138Y208555D02*
Y210236D01*
X123622Y245067D02*
Y243386D01*
X116035Y237480D02*
X117717D01*
X131209D02*
X129528D01*
X116035Y221890D02*
X117717D01*
X123622Y214303D02*
Y215984D01*
X131209Y221890D02*
X129528D01*
X111350Y310787D02*
X113031D01*
X117559Y316996D02*
Y315315D01*
X143768Y310787D02*
X142087D01*
X137559Y316996D02*
Y315315D01*
Y284579D02*
Y286260D01*
X143768Y290787D02*
X142087D01*
X111350D02*
X113031D01*
X117559Y284579D02*
Y286260D01*
X1035197Y390878D02*
Y392559D01*
X1008988Y397087D02*
X1010669D01*
X1015197Y390878D02*
Y392559D01*
X122638Y394520D02*
Y392839D01*
X115445Y387328D02*
X117126D01*
X129831D02*
X128150D01*
X1015197Y423295D02*
Y421614D01*
X1008988Y417087D02*
X1010669D01*
X1035197Y423295D02*
Y421614D01*
G54D59*
X374713Y252165D02*
X373031D01*
X370669Y248122D02*
Y249803D01*
X366626Y252165D02*
X368307D01*
X386524D02*
X384843D01*
X382480Y248122D02*
Y249803D01*
X378437Y252165D02*
X380118D01*
X587245Y136811D02*
X588926D01*
X597007D02*
X595326D01*
X592126Y127130D02*
Y128811D01*
X541969Y136811D02*
X543650D01*
X551731D02*
X550050D01*
X546850Y127130D02*
Y128811D01*
X378437Y396654D02*
X380118D01*
X382480Y400697D02*
Y399016D01*
X386524Y396654D02*
X384843D01*
X366626D02*
X368307D01*
X370669Y400697D02*
Y399016D01*
X374713Y396654D02*
X373031D01*
G54D110*
X123622Y440551D03*
G54D111*
Y430709D03*
Y420866D03*
G54D116*
G54D117*
Y175118D03*
G54D118*
X897244Y174803D03*
X956299D03*
X897244Y401181D03*
X956299D03*
X970079Y251575D03*
Y310630D03*
X712205Y174803D03*
X771260D03*
G54D120*
X985827Y395276D03*
X177756Y300787D03*
X224016Y355906D03*
X837205Y183661D03*
X147244Y481890D03*
X119685Y332283D03*
X800787Y115748D03*
X1029134Y344094D03*
G54D121*
X119685Y119685D03*
Y474016D03*
X1025197D03*
Y119685D03*
X277165D03*
X690551D03*
Y474016D03*
X277165D03*
G54D122*
X282087Y429646D03*
Y439646D03*
G54D123*
X316535Y127559D03*
Y462205D03*
X651181D03*
Y127559D03*
G54D126*
X245472Y292913D03*
Y355906D03*
G54D127*
X493701Y324409D03*
G74*
X0Y0D02*
M02*
