%
T1C.035F0S0
X012362Y042087
X012362Y043071
T2C.03543F0S0
X012362Y044055
T3C.03937F0S0
X013937Y010787
X010787Y013937
X013937Y013937
X010787Y021811
X013937Y021811
X013937Y02378
X010787Y024272
X013937Y024961
X010787Y025748
X011969Y025748
X014232Y026634
X015315Y02752
X012362Y027717
X014724Y032441
X011969Y033228
X01315Y034311
X011575Y034409
X010787Y037559
X010787Y040315
X012362Y040709
X013543Y041102
X010787Y041496
X014429Y042087
X010787Y045433
X011969Y045433
X013937Y045433
X015315Y047205
X013937Y047402
X014724Y048189
X013937Y048583
X015906Y048583
X017874Y048583
X017677Y045039
X017185Y044547
X018169Y044547
X016102Y041299
X017874Y041102
X017874Y037165
X016299Y036969
X017874Y033622
X017874Y031654
X017776Y030079
X017874Y028504
X016299Y02752
X01748Y026142
X016201Y022598
X015906Y021811
X017874Y021811
X015906Y013937
X017874Y013937
X015906Y010787
X017874Y010787
X019843Y010787
X021811Y010787
X019843Y013937
X021811Y013937
X019843Y021811
X021811Y021811
X019236Y025157
X021236Y025157
X020236Y026157
X019055Y027717
X021811Y027717
X022402Y02939
X021811Y031654
X019843Y033622
X021811Y033622
X022402Y035591
X019843Y037165
X021236Y039331
X019236Y039331
X020236Y040331
X022992Y041693
X021122Y042382
X020138Y042382
X022598Y043071
X021394Y045201
X021811Y048583
X02378Y048583
X025748Y048583
X02378Y047402
X025748Y045433
X025748Y040118
X023386Y037559
X02378Y033622
X02378Y031654
X024567Y031063
X024567Y027717
X025748Y02437
X02378Y021811
X025748Y021811
X02378Y013937
X025748Y013937
X025748Y010787
X02378Y010787
X029685Y010787
X030472Y012756
X029685Y013937
X029685Y021811
X027717Y021811
X029685Y02378
X029685Y024961
X027717Y024961
X027126Y025945
X027717Y026929
X029685Y026929
X026142Y027717
X026437Y02939
X026142Y031654
X026142Y033622
X027717Y037559
X029685Y037559
X027224Y038543
X029685Y039921
X02811Y040118
X026929Y040118
X029685Y041496
X029685Y043465
X027717Y045433
X029685Y045433
X030472Y04622
X029685Y047402
X029685Y048583
X031654Y047402
X030866Y047008
X032441Y047008
X032835Y04622
X032441Y045433
X030866Y045433
X031654Y045039
X031654Y043465
X031654Y041496
X031654Y039921
X031654Y037559
X031654Y026929
X031654Y024961
X031654Y02378
X031654Y021811
X031654Y013937
X030866Y013543
X032441Y013543
X032835Y012756
X032441Y011969
X030866Y011969
X031654Y011575
X031654Y010787
X033622Y010787
X035591Y010787
X033622Y011969
X035591Y011969
X035591Y013937
X033622Y013937
X035591Y021811
X033622Y021811
X035591Y02378
X033622Y02378
X035591Y024961
X033622Y024961
X035591Y026929
X033622Y026929
X035591Y037559
X033622Y037559
X033622Y039921
X035591Y039921
X033622Y041496
X035591Y041496
X033622Y043465
X035591Y043465
X033622Y045433
X035591Y045433
X035591Y047402
X033622Y047402
X033622Y048583
X035591Y048583
X037559Y048583
X037559Y047402
X037559Y045433
X037559Y043465
X037559Y041496
X037067Y040315
X038248Y040315
X037559Y037559
X037657Y027028
X038248Y024567
X037067Y024567
X037559Y02378
X037559Y021811
X037559Y013937
X037559Y011969
X037559Y010787
X039528Y010787
X041496Y010787
X039528Y011969
X041496Y011969
X039528Y013937
X041496Y013937
X039528Y021811
X039528Y02378
X03874Y037559
X039528Y041496
X039528Y043465
X039528Y045433
X041496Y045433
X039528Y047402
X041496Y047402
X039528Y048583
X041496Y048583
X043465Y048583
X045433Y048583
X047402Y048583
X043465Y047402
X045433Y047402
X047402Y047402
X043465Y045433
X045433Y045433
X047402Y045433
X043465Y013937
X046516Y013937
X047697Y013937
X045433Y013937
X045433Y011969
X043465Y011969
X047402Y011969
X043465Y010787
X047402Y010787
X045433Y010787
X04937Y010787
X051339Y010787
X04937Y011969
X051339Y011969
X04937Y013937
X050748Y013937
X051339Y045433
X04937Y045433
X051339Y047402
X04937Y047402
X04937Y048583
X051339Y048583
X053307Y048583
X055276Y048583
X057244Y048583
X053307Y047402
X055276Y047402
X057244Y047402
X055276Y045433
X053307Y045433
X057244Y045433
X057244Y013937
X053307Y013937
X055276Y011969
X053307Y011969
X057244Y010787
X053307Y010787
X055276Y010787
X059213Y010787
X06315Y010787
X061181Y010787
X059213Y011969
X061181Y013937
X06315Y013937
X061181Y041496
X06315Y041496
X06Y041496
X06315Y043465
X061181Y043465
X06Y043465
X061181Y045433
X06315Y045433
X059213Y045433
X06315Y047402
X061181Y047402
X059213Y047402
X059213Y048583
X061181Y048583
X06315Y048583
X067087Y048583
X065118Y047402
X064331Y047008
X065906Y047008
X063937Y04622
X066299Y04622
X064331Y045433
X065906Y045433
X065118Y045039
X065118Y043465
X067087Y043465
X067087Y041496
X065118Y041496
X065118Y013937
X065906Y013543
X064331Y013543
X066299Y012756
X067087Y012756
X063937Y012756
X065906Y011969
X064331Y011969
X065118Y011575
X067087Y010787
X072992Y010787
X071024Y010787
X071024Y013937
X072992Y013937
X072205Y041496
X069055Y041496
X071024Y041496
X071024Y043465
X072205Y043465
X069055Y043465
X071024Y045433
X072205Y045433
X069055Y045433
X072992Y046614
X071024Y047402
X072992Y048583
X071024Y048583
X074961Y048583
X076929Y048583
X074961Y046614
X076929Y046614
X076929Y013937
X074961Y013937
X076929Y010787
X074961Y010787
X078898Y010787
X080866Y010787
X082835Y010787
X080079Y011575
X078898Y012756
X082835Y012756
X080866Y012756
X082835Y034409
X082835Y035591
X082835Y037559
X082835Y039528
X080866Y039528
X080866Y041496
X082835Y042677
X080866Y043465
X082835Y045433
X080866Y045433
X078898Y046614
X080866Y046614
X082835Y046614
X078898Y048583
X080866Y048583
X082835Y048583
X084803Y048583
X086772Y048583
X086772Y046614
X084803Y046614
X08372Y018366
X084803Y012756
X086772Y010787
X084803Y010787
X090709Y010787
X08874Y010787
X092677Y010787
X08874Y012756
X090709Y046614
X092677Y046614
X08874Y046614
X08874Y048583
X090709Y048583
X092677Y048583
X094646Y048583
X096614Y048583
X097008Y047402
X094646Y046614
X097008Y045827
X095827Y045827
X097008Y043858
X095827Y043858
X09622Y037165
X09622Y035591
X096614Y01315
X096614Y010787
X094646Y010787
X098583Y010787
X100551Y010787
X100551Y012756
X098583Y01315
X101339Y013937
X101339Y015906
X101339Y019843
X101339Y024173
X100945Y031654
X100945Y033622
X102913Y034409
X100551Y035197
X098583Y035591
X098583Y037165
X100551Y037559
X098583Y039528
X100551Y043465
X10252Y043465
X10252Y045433
X100945Y045827
X098583Y047402
X100551Y047402
X100551Y048583
X098583Y048583
X103701Y045433
X103701Y043465
X103701Y037559
X103701Y035197
X103701Y033622
X103701Y031654
X103701Y029685
X103701Y027717
X103701Y025748
X103701Y024173
X103701Y021811
X103701Y019843
X103701Y017874
X103701Y015906
X103701Y013937
T4C.04724F0S0
X028209Y042965
X028209Y043965
X075967Y043858
X075967Y041102
X08628Y012581
X08628Y016081
X083053Y041102
X086553Y041102
X079467Y041102
X086553Y043858
X083053Y043858
X079467Y043858
X098386Y045215
X098386Y041715
X098014Y021417
X098014Y01748
X101514Y01748
X101514Y021417
T5C.05906F0S0
X012264Y037173
X012264Y038733
T6C.06063F0S0
X011756Y029079
X013756Y029079
X012756Y030079
X013756Y031079
X011756Y031079
X10152Y041709
X10252Y040709
X10152Y039709
X10352Y039709
X10352Y041709
T7C.07087F0S0
X012362Y017512
X012362Y019071
X012362Y02063
X012362Y022189
X012362Y023748
T8C.07874F0S0
X024547Y029291
X024547Y035591
X07122Y01748
X077126Y01748
X089724Y01748
X089724Y040118
X09563Y040118
X097008Y031063
X097008Y025157
X09563Y01748
T9C.11811F0S0
X081063Y028307
X081063Y036378
T10C.12598F0S0
X011969Y011969
X027717Y011969
X011969Y047402
X027717Y047402
X069055Y047402
X069055Y011969
X10252Y011969
X10252Y047402
T11C.12992F0S0
X031654Y012756
X031654Y04622
X065118Y04622
X065118Y012756
M30
