*
*
G04 PADS 9.5 Build Number: 522968 generated Gerber (RS-274-X) file*
G04 PC Version=2.1*
*
%IN "RF-GEN_RF_V2.0_PCB_2019"*%
*
%MOIN*%
*
%FSLAX35Y35*%
*
*
*
*
G04 PC Standard Apertures*
*
*
G04 Thermal Relief Aperture macro.*
%AMTER*
1,1,$1,0,0*
1,0,$1-$2,0,0*
21,0,$3,$4,0,0,45*
21,0,$3,$4,0,0,135*
%
*
*
G04 Annular Aperture macro.*
%AMANN*
1,1,$1,0,0*
1,0,$2,0,0*
%
*
*
G04 Odd Aperture macro.*
%AMODD*
1,1,$1,0,0*
1,0,$1-0.005,0,0*
%
*
*
G04 PC Custom Aperture Macros*
*
*
*
*
*
*
G04 PC Aperture Table*
*
%ADD010C,0.001*%
%ADD011R,0.04724X0.04724*%
%ADD040R,0.025X0.08*%
%ADD045R,0.04724X0.10236*%
%ADD046R,0.10236X0.04724*%
%ADD049R,0.07X0.05*%
%ADD050C,0.01*%
%ADD116C,0.00004*%
%ADD119R,0.06X0.104*%
*
*
*
*
G04 PC Circuitry*
G04 Layer Name RF-GEN_RF_V2.0_PCB_2019 - circuitry*
%LPD*%
*
*
G04 PC Custom Flashes*
G04 Layer Name RF-GEN_RF_V2.0_PCB_2019 - flashes*
%LPD*%
*
*
G04 PC Circuitry*
G04 Layer Name RF-GEN_RF_V2.0_PCB_2019 - circuitry*
%LPD*%
*
G54D10*
G01X100000Y100000D02*
X100003D01*
X100000Y493701D02*
X100003D01*
X100000D02*
X100003D01*
X1044882D02*
X1044885D01*
G54D11*
X187008Y353937D03*
X178346D03*
X162992Y322835D03*
Y314173D03*
Y354528D03*
Y363189D03*
X153740Y300787D03*
X162402D03*
X153150Y282677D03*
Y291339D03*
X162992Y282677D03*
Y291339D03*
X257480Y393701D03*
Y385039D03*
X245669D03*
Y393701D03*
Y259843D03*
Y251181D03*
X257480D03*
Y259843D03*
X219094Y470472D03*
Y461811D03*
X211220Y438976D03*
Y430315D03*
X191535Y438976D03*
Y430315D03*
X181693D03*
Y438976D03*
X201378D03*
Y430315D03*
X171850D03*
Y438976D03*
X153150Y465551D03*
Y456890D03*
X176772D03*
Y465551D03*
G54D40*
X191909Y454142D03*
X196909D03*
X201909D03*
X206909D03*
Y478142D03*
X201909D03*
X196909D03*
X191909D03*
G54D45*
X148031Y343110D03*
X138583D03*
X209055Y353937D03*
X199606D03*
G54D46*
X162992Y342913D03*
Y333465D03*
G54D49*
X164961Y455220D03*
Y467220D03*
G54D50*
X100000Y100000D02*
X1044882D01*
Y493701*
X100000*
Y100000*
X473031Y401181D02*
X475000Y403150D01*
X512402*
X514370Y401181*
Y243701*
X512402Y241732*
X475000*
X473031Y243701*
Y401181*
X40945Y100000D02*
Y290100D01*
Y100000D02*
X38445Y110000D01*
X43445*
X40945Y100000*
Y493701D02*
Y303600D01*
Y493701D02*
X43445Y483701D01*
X38445*
X40945Y493701*
X95000Y100000D02*
X35945D01*
X95000Y493701D02*
X35945D01*
X23786Y298413D02*
X24240Y298725D01*
X24922Y299663*
Y293100*
X28331Y299663D02*
X27649Y299350D01*
X27195Y298413*
X26968Y296850*
Y295913*
X27195Y294350*
X27649Y293413*
X28331Y293100*
X28786*
X29468Y293413*
X29922Y294350*
X30149Y295913*
Y296850*
X29922Y298413*
X29468Y299350*
X28786Y299663*
X28331*
X33559D02*
X32877Y299350D01*
X32422Y298413*
X32195Y296850*
Y295913*
X32422Y294350*
X32877Y293413*
X33559Y293100*
X34013*
X34695Y293413*
X35149Y294350*
X35377Y295913*
Y296850*
X35149Y298413*
X34695Y299350*
X34013Y299663*
X33559*
X37649Y293725D02*
X37422Y293413D01*
X37649Y293100*
X37877Y293413*
X37649Y293725*
X41286Y299663D02*
X40604Y299350D01*
X40149Y298413*
X39922Y296850*
Y295913*
X40149Y294350*
X40604Y293413*
X41286Y293100*
X41740*
X42422Y293413*
X42877Y294350*
X43104Y295913*
Y296850*
X42877Y298413*
X42422Y299350*
X41740Y299663*
X41286*
X45149Y297475D02*
Y293100D01*
Y296225D02*
X45831Y297163D01*
X46286Y297475*
X46968*
X47422Y297163*
X47649Y296225*
Y293100*
Y296225D02*
X48331Y297163D01*
X48786Y297475*
X49468*
X49922Y297163*
X50149Y296225*
Y293100*
X52195Y297475D02*
Y293100D01*
Y296225D02*
X52877Y297163D01*
X53331Y297475*
X54013*
X54468Y297163*
X54695Y296225*
Y293100*
Y296225D02*
X55377Y297163D01*
X55831Y297475*
X56513*
X56968Y297163*
X57195Y296225*
Y293100*
X100000Y548819D02*
X551145D01*
X100000D02*
X110000Y551319D01*
Y546319*
X100000Y548819*
X1044882D02*
X593736D01*
X1044882D02*
X1034882Y546319D01*
Y551319*
X1044882Y548819*
X100000Y498701D02*
Y553819D01*
X1044882Y498701D02*
Y553819D01*
X554373Y550069D02*
Y550381D01*
X554600Y551006*
X554827Y551319*
X555282Y551631*
X556191*
X556645Y551319*
X556873Y551006*
X557100Y550381*
Y549756*
X556873Y549131*
X556418Y548194*
X554145Y545069*
X557327*
X561645Y551631D02*
X559373Y547256D01*
X562782*
X561645Y551631D02*
Y545069D01*
X566191Y551631D02*
X565509Y551319D01*
X565055Y550381*
X564827Y548819*
Y547881*
X565055Y546319*
X565509Y545381*
X566191Y545069*
X566645*
X567327Y545381*
X567782Y546319*
X568009Y547881*
Y548819*
X567782Y550381*
X567327Y551319*
X566645Y551631*
X566191*
X570282Y545694D02*
X570055Y545381D01*
X570282Y545069*
X570509Y545381*
X570282Y545694*
X573918Y551631D02*
X573236Y551319D01*
X572782Y550381*
X572555Y548819*
Y547881*
X572782Y546319*
X573236Y545381*
X573918Y545069*
X574373*
X575055Y545381*
X575509Y546319*
X575736Y547881*
Y548819*
X575509Y550381*
X575055Y551319*
X574373Y551631*
X573918*
X577782Y549444D02*
Y545069D01*
Y548194D02*
X578464Y549131D01*
X578918Y549444*
X579600*
X580055Y549131*
X580282Y548194*
Y545069*
Y548194D02*
X580964Y549131D01*
X581418Y549444*
X582100*
X582555Y549131*
X582782Y548194*
Y545069*
X584827Y549444D02*
Y545069D01*
Y548194D02*
X585509Y549131D01*
X585964Y549444*
X586645*
X587100Y549131*
X587327Y548194*
Y545069*
Y548194D02*
X588009Y549131D01*
X588464Y549444*
X589145*
X589600Y549131*
X589827Y548194*
Y545069*
G54D116*
G54D119*
X162008Y250787D03*
Y236614D03*
X161024Y390157D03*
Y404331D03*
X0Y0D02*
M02*
