*
*
G04 PADS 9.5 Build Number: 522968 generated Gerber (RS-274-X) file*
G04 PC Version=2.1*
*
%IN "Tandem-coupler_V001_191"*%
*
%MOIN*%
*
%FSLAX35Y35*%
*
*
*
*
G04 PC Standard Apertures*
*
*
G04 Thermal Relief Aperture macro.*
%AMTER*
1,1,$1,0,0*
1,0,$1-$2,0,0*
21,0,$3,$4,0,0,45*
21,0,$3,$4,0,0,135*
%
*
*
G04 Annular Aperture macro.*
%AMANN*
1,1,$1,0,0*
1,0,$2,0,0*
%
*
*
G04 Odd Aperture macro.*
%AMODD*
1,1,$1,0,0*
1,0,$1-0.005,0,0*
%
*
*
G04 PC Custom Aperture Macros*
*
*
*
*
*
*
G04 PC Aperture Table*
*
%ADD010C,0.01*%
%ADD018R,0.07087X0.07087*%
%ADD019C,0.07087*%
%ADD022R,0.06X0.06*%
%ADD026C,0.06*%
%ADD027C,0.09055*%
%ADD029C,0.06693*%
%ADD032C,0.11024*%
%ADD039C,0.08*%
%ADD044C,0.27559*%
%ADD049C,0.025*%
%ADD069C,0.04724*%
%ADD070C,0.06299*%
%ADD085C,0.09449*%
%ADD152C,0.00004*%
*
*
*
*
G04 PC Circuitry*
G04 Layer Name Tandem-coupler_V001_191 - circuitry*
%LPD*%
*
*
G04 PC Custom Flashes*
G04 Layer Name Tandem-coupler_V001_191 - flashes*
%LPD*%
*
*
G04 PC Circuitry*
G04 Layer Name Tandem-coupler_V001_191 - circuitry*
%LPD*%
*
G54D10*
G01X269892Y199319D02*
X268217Y200995D01*
Y204517*
X269892Y206193*
X328947*
X331209Y208454*
Y217313*
X332884Y218988*
X415147*
X416823Y217313*
Y208454*
X419084Y206193*
X477569*
X479831Y208454*
Y214360*
X481506Y216035*
X492903*
X494579Y214360*
Y200995*
X492903Y199319*
X269892*
X479831Y213718D02*
X494579D01*
X479831Y212818D02*
X494579D01*
X479831Y211918D02*
X494579D01*
X479831Y211018D02*
X494579D01*
X479831Y210118D02*
X494579D01*
X479831Y209218D02*
X494579D01*
X479694Y208318D02*
X494579D01*
X478794Y207418D02*
X494579D01*
X477894Y206518D02*
X494579D01*
X269317Y205618D02*
X494579D01*
X268417Y204718D02*
X494579D01*
X268217Y203818D02*
X494579D01*
X268217Y202918D02*
X494579D01*
X268217Y202018D02*
X494579D01*
X268217Y201118D02*
X494579D01*
X480088Y214618D02*
X494321D01*
X268993Y200218D02*
X493802D01*
X480988Y215518D02*
X493421D01*
X329272Y206518D02*
X418760D01*
X330172Y207418D02*
X417860D01*
X331072Y208318D02*
X416960D01*
X331209Y216418D02*
X416823D01*
X331209Y215518D02*
X416823D01*
X331209Y214618D02*
X416823D01*
X331209Y213718D02*
X416823D01*
X331209Y212818D02*
X416823D01*
X331209Y211918D02*
X416823D01*
X331209Y211018D02*
X416823D01*
X331209Y210118D02*
X416823D01*
X331209Y209218D02*
X416823D01*
X331214Y217318D02*
X416818D01*
X332114Y218218D02*
X415918D01*
X469299Y259843D02*
G75*
G03X469299I-6543J0D01*
G01X473984Y315945D02*
G03X473984I-6149J0D01*
G01X481740Y341535D02*
G03X481740I-6346J0D01*
G01X443354Y220472D02*
G03X443354I-6346J0D01*
G01X449299Y259843D02*
G03X449299I-6543J0D01*
G01X459299Y269843D02*
G03X459299I-6543J0D01*
G01X416449Y212598D02*
G03X416449I-7000J0D01*
G01Y291339D02*
G03X416449I-7000J0D01*
G01X415795Y311024D02*
G03X415795I-6346J0D01*
G01X415992Y348425D02*
G03X415992I-7527J0D01*
G01X396764Y212598D02*
G03X396764I-7000J0D01*
G01Y291339D02*
G03X396764I-7000J0D01*
G01X408118Y364173D02*
G03X408118I-7527J0D01*
G01X365268Y212598D02*
G03X365268I-7000J0D01*
G01Y291339D02*
G03X365268I-7000J0D01*
G01X368748Y332677D02*
G03X368748I-7528J0D01*
G01X345583Y212598D02*
G03X345583I-7000J0D01*
G01Y291339D02*
G03X345583I-7000J0D01*
G01X344929Y311024D02*
G03X344929I-6346J0D01*
G01X317370Y220472D02*
G03X317370I-6346J0D01*
G01X343158Y383858D02*
G03X343158I-7528J0D01*
G01X311819Y259843D02*
G03X311819I-6543J0D01*
G01X291819D02*
G03X291819I-6543J0D01*
G01X301819Y269843D02*
G03X301819I-6543J0D01*
G01X285362Y314961D02*
G03X285362I-6149J0D01*
G01X295913Y368110D02*
G03X295913I-7527J0D01*
G01X288039Y383858D02*
G03X288039I-7527J0D01*
G01X270126D02*
G03X270126I-6346J0D01*
G01X550681Y197850D02*
Y432071D01*
G03X550181Y432571I-500J-0*
G01X197850*
G03X197350Y432071I0J-500*
G01Y197850*
G03X197850Y197350I500J0*
G01X550181*
G03X550681Y197850I0J500*
G01X547873Y212642D02*
G03Y220429I-4566J3893D01*
G01Y212642D02*
G03X547768Y212440I380J-324D01*
G01X545899Y207926D02*
G03X547768Y212440I-14403J8609D01*
G01X545899Y207926D02*
G03X545829Y207709I429J-256D01*
G01X540322Y202202D02*
G03X545829Y207709I-474J5981D01*
G01X540322Y202202D02*
G03X540105Y202133I40J-498D01*
G01X535592Y200263D02*
G03X540105Y202133I-4096J16272D01*
G01X535592Y200263D02*
G03X535389Y200159I122J-484D01*
G01X527603D02*
G03X535389I3893J4565D01*
G01X527603D02*
G03X527401Y200263I-325J-380D01*
G01X522887Y202133D02*
G03X527401Y200263I8609J14402D01*
G01X522887Y202133D02*
G03X522670Y202202I-257J-429D01*
G01X517163Y207709D02*
G03X522670Y202202I5981J474D01*
G01X517163Y207709D02*
G03X517094Y207926I-499J-39D01*
G01X515224Y212440D02*
G03X517094Y207926I16272J4095D01*
G01X515224Y212440D02*
G03X515120Y212642I-485J-122D01*
G01Y220429D02*
G03Y212642I4565J-3894D01*
G01Y220429D02*
G03X515224Y220631I-381J324D01*
G01X517094Y225145D02*
G03X515224Y220631I14402J-8610D01*
G01X517094Y225145D02*
G03X517163Y225362I-430J256D01*
G01X522670Y230869D02*
G03X517163Y225362I474J-5982D01*
G01X522670Y230869D02*
G03X522887Y230938I-40J498D01*
G01X527401Y232807D02*
G03X522887Y230938I4095J-16272D01*
G01X527401Y232807D02*
G03X527603Y232912I-123J485D01*
G01X535389D02*
G03X527603I-3893J-4566D01*
G01X535389D02*
G03X535592Y232807I325J380D01*
G01X540105Y230938D02*
G03X535592Y232807I-8609J-14403D01*
G01X540105Y230938D02*
G03X540322Y230869I257J429D01*
G01X545829Y225362D02*
G03X540322Y230869I-5981J-475D01*
G01X545829Y225362D02*
G03X545899Y225145I499J39D01*
G01X547768Y220631D02*
G03X545899Y225145I-16272J-4096D01*
G01X547768Y220631D02*
G03X547873Y220429I485J122D01*
G01X539579Y305716D02*
G03X534063Y311232I1956J7473D01*
G01X539579Y305716D02*
G03X538969Y305106I-127J-483D01*
G01Y301193D02*
G03Y305106I-7473J1957D01*
G01Y301193D02*
G03X539579Y300583I483J-127D01*
G01X534063Y295067D02*
G03X539579Y300583I7472J-1957D01*
G01X534063Y295067D02*
G03X533453Y295677I-484J126D01*
G01X529540D02*
G03X533453I1956J7473D01*
G01X529540D02*
G03X528929Y295067I-127J-484D01*
G01X523413Y300583D02*
G03X528929Y295067I-1956J-7473D01*
G01X523413Y300583D02*
G03X524024Y301193I127J483D01*
G01Y305106D02*
G03Y301193I7472J-1956D01*
G01Y305106D02*
G03X523413Y305716I-484J127D01*
G01X528929Y311232D02*
G03X523413Y305716I-7472J1957D01*
G01X528929Y311232D02*
G03X529540Y310622I484J-126D01*
G01X533453D02*
G03X529540I-1957J-7472D01*
G01X533453D02*
G03X534063Y311232I126J484D01*
G01X547873Y409493D02*
G03Y417279I-4566J3893D01*
G01Y409493D02*
G03X547768Y409290I380J-325D01*
G01X545899Y404776D02*
G03X547768Y409290I-14403J8610D01*
G01X545899Y404776D02*
G03X545829Y404559I429J-256D01*
G01X540322Y399053D02*
G03X545829Y404559I-474J5981D01*
G01X540322Y399053D02*
G03X540105Y398983I40J-499D01*
G01X535592Y397114D02*
G03X540105Y398983I-4096J16272D01*
G01X535592Y397114D02*
G03X535389Y397009I122J-485D01*
G01X527603D02*
G03X535389I3893J4566D01*
G01X527603D02*
G03X527401Y397114I-325J-380D01*
G01X522887Y398983D02*
G03X527401Y397114I8609J14403D01*
G01X522887Y398983D02*
G03X522670Y399053I-257J-429D01*
G01X517163Y404559D02*
G03X522670Y399053I5981J475D01*
G01X517163Y404559D02*
G03X517094Y404776I-499J-39D01*
G01X515224Y409290D02*
G03X517094Y404776I16272J4096D01*
G01X515224Y409290D02*
G03X515120Y409493I-485J-122D01*
G01Y417279D02*
G03Y409493I4565J-3893D01*
G01Y417279D02*
G03X515224Y417481I-381J324D01*
G01X517094Y421995D02*
G03X515224Y417481I14402J-8609D01*
G01X517094Y421995D02*
G03X517163Y422212I-430J257D01*
G01X522670Y427719D02*
G03X517163Y422212I474J-5981D01*
G01X522670Y427719D02*
G03X522887Y427788I-40J499D01*
G01X527401Y429658D02*
G03X522887Y427788I4095J-16272D01*
G01X527401Y429658D02*
G03X527603Y429762I-123J485D01*
G01X535389D02*
G03X527603I-3893J-4565D01*
G01X535389D02*
G03X535592Y429658I325J381D01*
G01X540105Y427788D02*
G03X535592Y429658I-8609J-14402D01*
G01X540105Y427788D02*
G03X540322Y427719I257J430D01*
G01X545829Y422212D02*
G03X540322Y427719I-5981J-474D01*
G01X545829Y422212D02*
G03X545899Y421995I499J40D01*
G01X547768Y417481D02*
G03X545899Y421995I-16272J-4095D01*
G01X547768Y417481D02*
G03X547873Y417279I485J122D01*
G01X508512Y212205D02*
Y205118D01*
X505512Y202118D02*
G03X508512Y205118I-0J3000D01*
G01X505512Y202118D02*
X498425D01*
X496251Y203051D02*
G03X498425Y202118I2174J2067D01*
G01X496251Y203051D02*
G03X495621Y203130I-363J-344D01*
G01Y214193D02*
G03Y203130I-3495J-5532D01*
G01Y214193D02*
G03X496251Y214271I267J423D01*
G01X498425Y215205D02*
G03X496251Y214271I0J-3000D01*
G01X498425Y215205D02*
X505512D01*
X508512Y212205D02*
G03X505512Y215205I-3000J-0D01*
G01X502073Y365603D02*
G03X497927I-2073J8255D01*
G01X502073D02*
G03X502043Y364642I122J-485D01*
G01Y351894D02*
G03Y364642I-2043J6374D01*
G01Y351894D02*
G03X502073Y350933I152J-476D01*
G01X497927D02*
G03X502073I2073J-8256D01*
G01X497927D02*
G03X497957Y351894I-122J485D01*
G01Y364642D02*
G03Y351894I2043J-6374D01*
G01Y364642D02*
G03X497927Y365603I-152J476D01*
G01X469299Y259843D02*
G03X469299I-6543J0D01*
G01X473984Y315945D02*
G03X473984I-6149J0D01*
G01X481740Y341535D02*
G03X481740I-6346J0D01*
G01X443354Y220472D02*
G03X443354I-6346J0D01*
G01X449299Y259843D02*
G03X449299I-6543J0D01*
G01X459299Y269843D02*
G03X459299I-6543J0D01*
G01X433835Y318945D02*
Y312945D01*
X430835Y309945D02*
G03X433835Y312945I-0J3000D01*
G01X430835Y309945D02*
X424835D01*
X421835Y312945D02*
G03X424835Y309945I3000J-0D01*
G01X421835Y312945D02*
Y318945D01*
X424835Y321945D02*
G03X421835Y318945I-0J-3000D01*
G01X424835Y321945D02*
X430835D01*
X433835Y318945D02*
G03X430835Y321945I-3000J-0D01*
G01X416449Y212598D02*
G03X416449I-7000J0D01*
G01Y291339D02*
G03X416449I-7000J0D01*
G01X415795Y311024D02*
G03X415795I-6346J0D01*
G01X415992Y348425D02*
G03X415992I-7527J0D01*
G01X396764Y212598D02*
G03X396764I-7000J0D01*
G01Y291339D02*
G03X396764I-7000J0D01*
G01X408118Y364173D02*
G03X408118I-7527J0D01*
G01X365268Y212598D02*
G03X365268I-7000J0D01*
G01Y291339D02*
G03X365268I-7000J0D01*
G01X368748Y332677D02*
G03X368748I-7528J0D01*
G01X345583Y212598D02*
G03X345583I-7000J0D01*
G01Y291339D02*
G03X345583I-7000J0D01*
G01X344929Y311024D02*
G03X344929I-6346J0D01*
G01X317370Y220472D02*
G03X317370I-6346J0D01*
G01X325213Y317961D02*
Y311961D01*
X322213Y308961D02*
G03X325213Y311961I-0J3000D01*
G01X322213Y308961D02*
X316213D01*
X313213Y311961D02*
G03X316213Y308961I3000J-0D01*
G01X313213Y311961D02*
Y317961D01*
X316213Y320961D02*
G03X313213Y317961I-0J-3000D01*
G01X316213Y320961D02*
X322213D01*
X325213Y317961D02*
G03X322213Y320961I-3000J-0D01*
G01X348204Y342928D02*
G03Y353922I5142J5497D01*
G01Y342928D02*
G03X347862Y343063I-342J-365D01*
G01X338583*
X334791Y344634D02*
G03X338583Y343063I3792J3791D01*
G01X334791Y344634D02*
X316090Y363334D01*
X314520Y367126D02*
G03X316090Y363334I5362J-0D01*
G01X314520Y367126D02*
Y391732D01*
X316090Y395524D02*
G03X314520Y391732I3792J-3792D01*
G01X316090Y395524D02*
X320086Y399520D01*
G03X320232Y399857I-353J354*
G01X328007Y392083D02*
G03X320233Y399857I-251J7523D01*
G01X328007Y392083D02*
G03X327670Y391937I16J-500D01*
G01X325391Y389658*
G03X325244Y389304I353J-354*
G01Y369554*
G03X325391Y369201I500J0*
G01X340657Y353934*
G03X341011Y353787I354J353*
G01X347862*
G03X348204Y353922I0J500*
G01X343158Y383858D02*
G03X343158I-7528J0D01*
G01X311819Y259843D02*
G03X311819I-6543J0D01*
G01X291819D02*
G03X291819I-6543J0D01*
G01X301819Y269843D02*
G03X301819I-6543J0D01*
G01X285362Y314961D02*
G03X285362I-6149J0D01*
G01X295913Y368110D02*
G03X295913I-7527J0D01*
G01X288039Y383858D02*
G03X288039I-7527J0D01*
G01X262449Y212205D02*
Y205118D01*
X259449Y202118D02*
G03X262449Y205118I-0J3000D01*
G01X259449Y202118D02*
X252362D01*
X250188Y203051D02*
G03X252362Y202118I2174J2067D01*
G01X250188Y203051D02*
G03X249558Y203130I-363J-344D01*
G01Y214193D02*
G03Y203130I-3495J-5532D01*
G01Y214193D02*
G03X250188Y214271I267J423D01*
G01X252362Y215205D02*
G03X250188Y214271I0J-3000D01*
G01X252362Y215205D02*
X259449D01*
X262449Y212205D02*
G03X259449Y215205I-3000J-0D01*
G01X270126Y383858D02*
G03X270126I-6346J0D01*
G01X250105Y365603D02*
G03X245958I-2074J8255D01*
G01X250105D02*
G03X250074Y364642I122J-485D01*
G01Y351894D02*
G03Y364642I-2043J6374D01*
G01Y351894D02*
G03X250105Y350933I153J-476D01*
G01X245958D02*
G03X250105I2073J-8256D01*
G01X245958D02*
G03X245989Y351894I-122J485D01*
G01Y364642D02*
G03Y351894I2042J-6374D01*
G01Y364642D02*
G03X245958Y365603I-153J476D01*
G01X232912Y212642D02*
G03Y220429I-4566J3893D01*
G01Y212642D02*
G03X232807Y212440I380J-324D01*
G01X230938Y207926D02*
G03X232807Y212440I-14403J8609D01*
G01X230938Y207926D02*
G03X230869Y207709I429J-256D01*
G01X225362Y202202D02*
G03X230869Y207709I-475J5981D01*
G01X225362Y202202D02*
G03X225145Y202133I39J-498D01*
G01X220631Y200263D02*
G03X225145Y202133I-4096J16272D01*
G01X220631Y200263D02*
G03X220429Y200159I122J-484D01*
G01X212642D02*
G03X220429I3893J4565D01*
G01X212642D02*
G03X212440Y200263I-324J-380D01*
G01X207926Y202133D02*
G03X212440Y200263I8609J14402D01*
G01X207926Y202133D02*
G03X207709Y202202I-256J-429D01*
G01X202202Y207709D02*
G03X207709Y202202I5981J474D01*
G01X202202Y207709D02*
G03X202133Y207926I-498J-39D01*
G01X200263Y212440D02*
G03X202133Y207926I16272J4095D01*
G01X200263Y212440D02*
G03X200159Y212642I-484J-122D01*
G01Y220429D02*
G03Y212642I4565J-3894D01*
G01Y220429D02*
G03X200263Y220631I-380J324D01*
G01X202133Y225145D02*
G03X200263Y220631I14402J-8610D01*
G01X202133Y225145D02*
G03X202202Y225362I-429J256D01*
G01X207709Y230869D02*
G03X202202Y225362I474J-5982D01*
G01X207709Y230869D02*
G03X207926Y230938I-39J498D01*
G01X212440Y232807D02*
G03X207926Y230938I4095J-16272D01*
G01X212440Y232807D02*
G03X212642Y232912I-122J485D01*
G01X220429D02*
G03X212642I-3894J-4566D01*
G01X220429D02*
G03X220631Y232807I324J380D01*
G01X225145Y230938D02*
G03X220631Y232807I-8610J-14403D01*
G01X225145Y230938D02*
G03X225362Y230869I256J429D01*
G01X230869Y225362D02*
G03X225362Y230869I-5982J-475D01*
G01X230869Y225362D02*
G03X230938Y225145I498J39D01*
G01X232807Y220631D02*
G03X230938Y225145I-16272J-4096D01*
G01X232807Y220631D02*
G03X232912Y220429I485J122D01*
G01X224618Y305716D02*
G03X219102Y311232I1957J7473D01*
G01X224618Y305716D02*
G03X224008Y305106I-126J-483D01*
G01Y301193D02*
G03Y305106I-7473J1957D01*
G01Y301193D02*
G03X224618Y300583I484J-127D01*
G01X219102Y295067D02*
G03X224618Y300583I7473J-1957D01*
G01X219102Y295067D02*
G03X218492Y295677I-483J126D01*
G01X214579D02*
G03X218492I1956J7473D01*
G01X214579D02*
G03X213969Y295067I-127J-484D01*
G01X208453Y300583D02*
G03X213969Y295067I-1957J-7473D01*
G01X208453Y300583D02*
G03X209063Y301193I126J483D01*
G01Y305106D02*
G03Y301193I7472J-1956D01*
G01Y305106D02*
G03X208453Y305716I-484J127D01*
G01X213969Y311232D02*
G03X208453Y305716I-7473J1957D01*
G01X213969Y311232D02*
G03X214579Y310622I483J-126D01*
G01X218492D02*
G03X214579I-1957J-7472D01*
G01X218492D02*
G03X219102Y311232I127J484D01*
G01X232912Y409493D02*
G03Y417279I-4566J3893D01*
G01Y409493D02*
G03X232807Y409290I380J-325D01*
G01X230938Y404776D02*
G03X232807Y409290I-14403J8610D01*
G01X230938Y404776D02*
G03X230869Y404559I429J-256D01*
G01X225362Y399053D02*
G03X230869Y404559I-475J5981D01*
G01X225362Y399053D02*
G03X225145Y398983I39J-499D01*
G01X220631Y397114D02*
G03X225145Y398983I-4096J16272D01*
G01X220631Y397114D02*
G03X220429Y397009I122J-485D01*
G01X212642D02*
G03X220429I3893J4566D01*
G01X212642D02*
G03X212440Y397114I-324J-380D01*
G01X207926Y398983D02*
G03X212440Y397114I8609J14403D01*
G01X207926Y398983D02*
G03X207709Y399053I-256J-429D01*
G01X202202Y404559D02*
G03X207709Y399053I5981J475D01*
G01X202202Y404559D02*
G03X202133Y404776I-498J-39D01*
G01X200263Y409290D02*
G03X202133Y404776I16272J4096D01*
G01X200263Y409290D02*
G03X200159Y409493I-484J-122D01*
G01Y417279D02*
G03Y409493I4565J-3893D01*
G01Y417279D02*
G03X200263Y417481I-380J324D01*
G01X202133Y421995D02*
G03X200263Y417481I14402J-8609D01*
G01X202133Y421995D02*
G03X202202Y422212I-429J257D01*
G01X207709Y427719D02*
G03X202202Y422212I474J-5981D01*
G01X207709Y427719D02*
G03X207926Y427788I-39J499D01*
G01X212440Y429658D02*
G03X207926Y427788I4095J-16272D01*
G01X212440Y429658D02*
G03X212642Y429762I-122J485D01*
G01X220429D02*
G03X212642I-3894J-4565D01*
G01X220429D02*
G03X220631Y429658I324J381D01*
G01X225145Y427788D02*
G03X220631Y429658I-8610J-14402D01*
G01X225145Y427788D02*
G03X225362Y427719I256J430D01*
G01X230869Y422212D02*
G03X225362Y427719I-5982J-474D01*
G01X230869Y422212D02*
G03X230938Y421995I498J40D01*
G01X232807Y417481D02*
G03X230938Y421995I-16272J-4095D01*
G01X232807Y417481D02*
G03X232912Y417279I485J122D01*
G01X197350Y431349D02*
X550681D01*
X534397Y430449D02*
X550681D01*
X536002Y429549D02*
X550681D01*
X538466Y428649D02*
X550681D01*
X540187Y427749D02*
X550681D01*
X542991Y426849D02*
X550681D01*
X544122Y425949D02*
X550681D01*
X544852Y425049D02*
X550681D01*
X545342Y424149D02*
X550681D01*
X545655Y423249D02*
X550681D01*
X545817Y422349D02*
X550681D01*
X546211Y421449D02*
X550681D01*
X546670Y420549D02*
X550681D01*
X547063Y419649D02*
X550681D01*
X547395Y418749D02*
X550681D01*
X547671Y417849D02*
X550681D01*
X548134Y416949D02*
X550681D01*
X548684Y416049D02*
X550681D01*
X549042Y415149D02*
X550681D01*
X549245Y414249D02*
X550681D01*
X549307Y413349D02*
X550681D01*
X549234Y412449D02*
X550681D01*
X549019Y411549D02*
X550681D01*
X548647Y410649D02*
X550681D01*
X548079Y409749D02*
X550681D01*
X547651Y408849D02*
X550681D01*
X547370Y407949D02*
X550681D01*
X547033Y407049D02*
X550681D01*
X546635Y406149D02*
X550681D01*
X546171Y405249D02*
X550681D01*
X545809Y404349D02*
X550681D01*
X545635Y403449D02*
X550681D01*
X545309Y402549D02*
X550681D01*
X544802Y401649D02*
X550681D01*
X544048Y400749D02*
X550681D01*
X542868Y399849D02*
X550681D01*
X540048Y398949D02*
X550681D01*
X538303Y398049D02*
X550681D01*
X535729Y397149D02*
X550681D01*
X534260Y396249D02*
X550681D01*
X333964Y395349D02*
X550681D01*
X333239Y394449D02*
X550681D01*
X332225Y393549D02*
X550681D01*
X330630Y392649D02*
X550681D01*
X327482Y391749D02*
X550681D01*
X338422Y390849D02*
X550681D01*
X340053Y389949D02*
X550681D01*
X341082Y389049D02*
X550681D01*
X341815Y388149D02*
X550681D01*
X342351Y387249D02*
X550681D01*
X342733Y386349D02*
X550681D01*
X342987Y385449D02*
X550681D01*
X343126Y384549D02*
X550681D01*
X343155Y383649D02*
X550681D01*
X343075Y382749D02*
X550681D01*
X502932Y381849D02*
X550681D01*
X504709Y380949D02*
X550681D01*
X505842Y380049D02*
X550681D01*
X506668Y379149D02*
X550681D01*
X507292Y378249D02*
X550681D01*
X507763Y377349D02*
X550681D01*
X508108Y376449D02*
X550681D01*
X508342Y375549D02*
X550681D01*
X508475Y374649D02*
X550681D01*
X508511Y373749D02*
X550681D01*
X508452Y372849D02*
X550681D01*
X508295Y371949D02*
X550681D01*
X508035Y371049D02*
X550681D01*
X507661Y370149D02*
X550681D01*
X507156Y369249D02*
X550681D01*
X506488Y368349D02*
X550681D01*
X505601Y367449D02*
X550681D01*
X504362Y366549D02*
X550681D01*
X502250Y365649D02*
X550681D01*
X501858Y364749D02*
X550681D01*
X503694Y363849D02*
X550681D01*
X504784Y362949D02*
X550681D01*
X505523Y362049D02*
X550681D01*
X506041Y361149D02*
X550681D01*
X506393Y360249D02*
X550681D01*
X506605Y359349D02*
X550681D01*
X506691Y358449D02*
X550681D01*
X506655Y357549D02*
X550681D01*
X506495Y356649D02*
X550681D01*
X506201Y355749D02*
X550681D01*
X505754Y354849D02*
X550681D01*
X505114Y353949D02*
X550681D01*
X504191Y353049D02*
X550681D01*
X502713Y352149D02*
X550681D01*
X501724Y351249D02*
X550681D01*
X503687Y350349D02*
X550681D01*
X505157Y349449D02*
X550681D01*
X506162Y348549D02*
X550681D01*
X506909Y347649D02*
X550681D01*
X507475Y346749D02*
X550681D01*
X507899Y345849D02*
X550681D01*
X508203Y344949D02*
X550681D01*
X508401Y344049D02*
X550681D01*
X508499Y343149D02*
X550681D01*
X508501Y342249D02*
X550681D01*
X508408Y341349D02*
X550681D01*
X508215Y340449D02*
X550681D01*
X507916Y339549D02*
X550681D01*
X507498Y338649D02*
X550681D01*
X506940Y337749D02*
X550681D01*
X506204Y336849D02*
X550681D01*
X505214Y335949D02*
X550681D01*
X503777Y335049D02*
X550681D01*
X368603Y334149D02*
X550681D01*
X368726Y333249D02*
X550681D01*
X368741Y332349D02*
X550681D01*
X368647Y331449D02*
X550681D01*
X368441Y330549D02*
X550681D01*
X368112Y329649D02*
X550681D01*
X367642Y328749D02*
X550681D01*
X366996Y327849D02*
X550681D01*
X366104Y326949D02*
X550681D01*
X364789Y326049D02*
X550681D01*
X197350Y325149D02*
X550681D01*
X197350Y324249D02*
X550681D01*
X197350Y323349D02*
X550681D01*
X197350Y322449D02*
X550681D01*
X470367Y321549D02*
X550681D01*
X543539Y320649D02*
X550681D01*
X545614Y319749D02*
X550681D01*
X546792Y318849D02*
X550681D01*
X547619Y317949D02*
X550681D01*
X548226Y317049D02*
X550681D01*
X548670Y316149D02*
X550681D01*
X548980Y315249D02*
X550681D01*
X549172Y314349D02*
X550681D01*
X549255Y313449D02*
X550681D01*
X549233Y312549D02*
X550681D01*
X549105Y311649D02*
X550681D01*
X548864Y310749D02*
X550681D01*
X548500Y309849D02*
X550681D01*
X547992Y308949D02*
X550681D01*
X547302Y308049D02*
X550681D01*
X546351Y307149D02*
X550681D01*
X544927Y306249D02*
X550681D01*
X538966Y305349D02*
X550681D01*
X539110Y304449D02*
X550681D01*
X539210Y303549D02*
X550681D01*
X539204Y302649D02*
X550681D01*
X539092Y301749D02*
X550681D01*
X539002Y300849D02*
X550681D01*
X545127Y299949D02*
X550681D01*
X546475Y299049D02*
X550681D01*
X547390Y298149D02*
X550681D01*
X548057Y297249D02*
X550681D01*
X548548Y296349D02*
X550681D01*
X548897Y295449D02*
X550681D01*
X549125Y294549D02*
X550681D01*
X549241Y293649D02*
X550681D01*
X549251Y292749D02*
X550681D01*
X549156Y291849D02*
X550681D01*
X548951Y290949D02*
X550681D01*
X548627Y290049D02*
X550681D01*
X548167Y289149D02*
X550681D01*
X547538Y288249D02*
X550681D01*
X546681Y287349D02*
X550681D01*
X545446Y286449D02*
X550681D01*
X543115Y285549D02*
X550681D01*
X411511Y284649D02*
X550681D01*
X197350Y283749D02*
X550681D01*
X197350Y282849D02*
X550681D01*
X197350Y281949D02*
X550681D01*
X197350Y281049D02*
X550681D01*
X197350Y280149D02*
X550681D01*
X197350Y279249D02*
X550681D01*
X197350Y278349D02*
X550681D01*
X197350Y277449D02*
X550681D01*
X197350Y276549D02*
X550681D01*
X455772Y275649D02*
X550681D01*
X457085Y274749D02*
X550681D01*
X457929Y273849D02*
X550681D01*
X458515Y272949D02*
X550681D01*
X458916Y272049D02*
X550681D01*
X459167Y271149D02*
X550681D01*
X459287Y270249D02*
X550681D01*
X459281Y269349D02*
X550681D01*
X459149Y268449D02*
X550681D01*
X458884Y267549D02*
X550681D01*
X458467Y266649D02*
X550681D01*
X465572Y265749D02*
X550681D01*
X466969Y264849D02*
X550681D01*
X467850Y263949D02*
X550681D01*
X468460Y263049D02*
X550681D01*
X468879Y262149D02*
X550681D01*
X469146Y261249D02*
X550681D01*
X469280Y260349D02*
X550681D01*
X469287Y259449D02*
X550681D01*
X469170Y258549D02*
X550681D01*
X468921Y257649D02*
X550681D01*
X468522Y256749D02*
X550681D01*
X467939Y255849D02*
X550681D01*
X467100Y254949D02*
X550681D01*
X465797Y254049D02*
X550681D01*
X197350Y253149D02*
X550681D01*
X197350Y252249D02*
X550681D01*
X197350Y251349D02*
X550681D01*
X197350Y250449D02*
X550681D01*
X197350Y249549D02*
X550681D01*
X197350Y248649D02*
X550681D01*
X197350Y247749D02*
X550681D01*
X197350Y246849D02*
X550681D01*
X197350Y245949D02*
X550681D01*
X197350Y245049D02*
X550681D01*
X197350Y244149D02*
X550681D01*
X197350Y243249D02*
X550681D01*
X197350Y242349D02*
X550681D01*
X197350Y241449D02*
X550681D01*
X197350Y240549D02*
X550681D01*
X197350Y239649D02*
X550681D01*
X197350Y238749D02*
X550681D01*
X197350Y237849D02*
X550681D01*
X197350Y236949D02*
X550681D01*
X197350Y236049D02*
X550681D01*
X197350Y235149D02*
X550681D01*
X532573Y234249D02*
X550681D01*
X534809Y233349D02*
X550681D01*
X536817Y232449D02*
X550681D01*
X538989Y231549D02*
X550681D01*
X541522Y230649D02*
X550681D01*
X543364Y229749D02*
X550681D01*
X544354Y228849D02*
X550681D01*
X545008Y227949D02*
X550681D01*
X545445Y227049D02*
X550681D01*
X545714Y226149D02*
X550681D01*
X545851Y225249D02*
X550681D01*
X546345Y224349D02*
X550681D01*
X546785Y223449D02*
X550681D01*
X547161Y222549D02*
X550681D01*
X547477Y221649D02*
X550681D01*
X547738Y220749D02*
X550681D01*
X548309Y219849D02*
X550681D01*
X548800Y218949D02*
X550681D01*
X549113Y218049D02*
X550681D01*
X549276Y217149D02*
X550681D01*
X549300Y216249D02*
X550681D01*
X549189Y215349D02*
X550681D01*
X548933Y214449D02*
X550681D01*
X548511Y213549D02*
X550681D01*
X547878Y212649D02*
X550681D01*
X547578Y211749D02*
X550681D01*
X547283Y210849D02*
X550681D01*
X546929Y209949D02*
X550681D01*
X546513Y209049D02*
X550681D01*
X546030Y208149D02*
X550681D01*
X545775Y207249D02*
X550681D01*
X545561Y206349D02*
X550681D01*
X545189Y205449D02*
X550681D01*
X544622Y204549D02*
X550681D01*
X543777Y203649D02*
X550681D01*
X542391Y202749D02*
X550681D01*
X539612Y201849D02*
X550681D01*
X537710Y200949D02*
X550681D01*
X535257Y200049D02*
X550681D01*
X533713Y199149D02*
X550681D01*
X197350Y198249D02*
X550681D01*
X197383Y432249D02*
X550648D01*
X523036Y285549D02*
X539956D01*
X523460Y320649D02*
X539532D01*
X525368Y286449D02*
X537624D01*
X525535Y319749D02*
X537457D01*
X526602Y287349D02*
X536390D01*
X526713Y318849D02*
X536279D01*
X527460Y288249D02*
X535532D01*
X527540Y317949D02*
X535452D01*
X528088Y289149D02*
X534904D01*
X528147Y317049D02*
X534845D01*
X528549Y290049D02*
X534443D01*
X528591Y316149D02*
X534401D01*
X528873Y290949D02*
X534119D01*
X528901Y315249D02*
X534091D01*
X532103Y295449D02*
X534009D01*
X529026Y311649D02*
X533966D01*
X529046Y294549D02*
X533946D01*
X532880Y310749D02*
X533929D01*
X529077Y291849D02*
X533915D01*
X529094Y314349D02*
X533899D01*
X529155Y312549D02*
X533838D01*
X529162Y293649D02*
X533830D01*
X529173Y292749D02*
X533819D01*
X529177Y313449D02*
X533815D01*
X528983Y295449D02*
X530889D01*
X217612Y234249D02*
X530419D01*
X529063Y310749D02*
X530112D01*
X218753Y199149D02*
X529279D01*
X334493Y396249D02*
X528733D01*
X219436Y430449D02*
X528595D01*
X219848Y233349D02*
X528183D01*
X220296Y200049D02*
X527736D01*
X334871Y397149D02*
X527263D01*
X221041Y429549D02*
X526990D01*
X221856Y232449D02*
X526175D01*
X222750Y200949D02*
X525282D01*
X335121Y398049D02*
X524689D01*
X223506Y428649D02*
X524526D01*
X412291Y305349D02*
X524026D01*
X224028Y231549D02*
X524003D01*
X224041Y300849D02*
X523990D01*
X224132Y301749D02*
X523900D01*
X224150Y304449D02*
X523882D01*
X224244Y302649D02*
X523788D01*
X224250Y303549D02*
X523782D01*
X224651Y201849D02*
X523380D01*
X335255Y398949D02*
X522944D01*
X225226Y427749D02*
X522805D01*
X226562Y230649D02*
X521470D01*
X507352Y202749D02*
X520601D01*
X335280Y399849D02*
X520124D01*
X228030Y426849D02*
X520002D01*
X413384Y285549D02*
X519877D01*
X228404Y229749D02*
X519628D01*
X471796Y320649D02*
X519453D01*
X508128Y203649D02*
X519215D01*
X335196Y400749D02*
X518944D01*
X229161Y425949D02*
X518870D01*
X229394Y228849D02*
X518638D01*
X508457Y204549D02*
X518370D01*
X335001Y401649D02*
X518190D01*
X229891Y425049D02*
X518140D01*
X413630Y306249D02*
X518065D01*
X230048Y227949D02*
X517984D01*
X230166Y299949D02*
X517865D01*
X508512Y205449D02*
X517803D01*
X334684Y402549D02*
X517683D01*
X230382Y424149D02*
X517650D01*
X230485Y227049D02*
X517547D01*
X414458Y286449D02*
X517546D01*
X508512Y206349D02*
X517431D01*
X472666Y319749D02*
X517378D01*
X334229Y403449D02*
X517357D01*
X230694Y423249D02*
X517337D01*
X439846Y226149D02*
X517278D01*
X508512Y207249D02*
X517217D01*
X333601Y404349D02*
X517183D01*
X230856Y422349D02*
X517175D01*
X441187Y225249D02*
X517141D01*
X508512Y208149D02*
X516963D01*
X332738Y405249D02*
X516821D01*
X231251Y421449D02*
X516781D01*
X442033Y224349D02*
X516647D01*
X414475Y307149D02*
X516641D01*
X231514Y299049D02*
X516517D01*
X508512Y209049D02*
X516479D01*
X331478Y406149D02*
X516357D01*
X231709Y420549D02*
X516322D01*
X415201Y287349D02*
X516311D01*
X442613Y223449D02*
X516207D01*
X473255Y318849D02*
X516200D01*
X508512Y209949D02*
X516063D01*
X328883Y407049D02*
X515959D01*
X232102Y419649D02*
X515929D01*
X443005Y222549D02*
X515831D01*
X508512Y210849D02*
X515709D01*
X415055Y308049D02*
X515691D01*
X232410Y407949D02*
X515622D01*
X411067Y298149D02*
X515602D01*
X232435Y418749D02*
X515597D01*
X443244Y221649D02*
X515515D01*
X415730Y288249D02*
X515454D01*
X508512Y211749D02*
X515414D01*
X473649Y317949D02*
X515373D01*
X232690Y408849D02*
X515341D01*
X232710Y417849D02*
X515321D01*
X443348Y220749D02*
X515254D01*
X508479Y212649D02*
X515114D01*
X415447Y308949D02*
X515000D01*
X413199Y297249D02*
X514935D01*
X233119Y409749D02*
X514913D01*
X233174Y416949D02*
X514858D01*
X416098Y289149D02*
X514825D01*
X473884Y317049D02*
X514766D01*
X443324Y219849D02*
X514683D01*
X468647Y309849D02*
X514492D01*
X508194Y213549D02*
X514481D01*
X414337Y296349D02*
X514444D01*
X416329Y290049D02*
X514365D01*
X233686Y410649D02*
X514346D01*
X473981Y316149D02*
X514322D01*
X233723Y416049D02*
X514309D01*
X443169Y218949D02*
X514192D01*
X471124Y310749D02*
X514128D01*
X415115Y295449D02*
X514095D01*
X507503Y214449D02*
X514059D01*
X416438Y290949D02*
X514041D01*
X473945Y315249D02*
X514012D01*
X234058Y411549D02*
X513973D01*
X234082Y415149D02*
X513950D01*
X472235Y311649D02*
X513887D01*
X442873Y218049D02*
X513879D01*
X415669Y294549D02*
X513867D01*
X416430Y291849D02*
X513836D01*
X473774Y314349D02*
X513820D01*
X440753Y215349D02*
X513803D01*
X472962Y312549D02*
X513759D01*
X234273Y412449D02*
X513759D01*
X416057Y293649D02*
X513751D01*
X234284Y414249D02*
X513747D01*
X416305Y292749D02*
X513741D01*
X473455Y313449D02*
X513737D01*
X442415Y217149D02*
X513717D01*
X441745Y216249D02*
X513692D01*
X234346Y413349D02*
X513685D01*
X415442Y351249D02*
X498276D01*
X408096Y364749D02*
X498142D01*
X407972Y365649D02*
X497750D01*
X415007Y352149D02*
X497287D01*
X342884Y381849D02*
X497068D01*
X494929Y202749D02*
X496585D01*
X495179Y214449D02*
X496434D01*
X415742Y350349D02*
X496313D01*
X408111Y363849D02*
X496306D01*
X368365Y335049D02*
X496223D01*
X414405Y353049D02*
X495809D01*
X407733Y366549D02*
X495638D01*
X342573Y380949D02*
X495291D01*
X408018Y362949D02*
X495216D01*
X413578Y353949D02*
X494886D01*
X415922Y349449D02*
X494843D01*
X478405Y335949D02*
X494786D01*
X407812Y362049D02*
X494477D01*
X407368Y367449D02*
X494399D01*
X412389Y354849D02*
X494246D01*
X342123Y380049D02*
X494158D01*
X407484Y361149D02*
X493959D01*
X415991Y348549D02*
X493838D01*
X410204Y355749D02*
X493799D01*
X479673Y336849D02*
X493796D01*
X407014Y360249D02*
X493607D01*
X406854Y368349D02*
X493512D01*
X400818Y356649D02*
X493505D01*
X406369Y359349D02*
X493395D01*
X404166Y357549D02*
X493345D01*
X341503Y379149D02*
X493332D01*
X405479Y358449D02*
X493309D01*
X477097Y347649D02*
X493091D01*
X480487Y337749D02*
X493060D01*
X406149Y369249D02*
X492844D01*
X340650Y378249D02*
X492708D01*
X479012Y346749D02*
X492525D01*
X481046Y338649D02*
X492502D01*
X405168Y370149D02*
X492339D01*
X339411Y377349D02*
X492237D01*
X480049Y345849D02*
X492101D01*
X481421Y339549D02*
X492084D01*
X403654Y371049D02*
X491965D01*
X336960Y376449D02*
X491892D01*
X480744Y344949D02*
X491797D01*
X481647Y340449D02*
X491785D01*
X325244Y371949D02*
X491705D01*
X325244Y375549D02*
X491658D01*
X481221Y344049D02*
X491599D01*
X481737Y341349D02*
X491592D01*
X325244Y372849D02*
X491548D01*
X325244Y374649D02*
X491525D01*
X481532Y343149D02*
X491501D01*
X481700Y342249D02*
X491499D01*
X325244Y373749D02*
X491489D01*
X261289Y202749D02*
X489323D01*
X439007Y214449D02*
X489073D01*
X262065Y203649D02*
X487920D01*
X416384Y213549D02*
X487776D01*
X262394Y204549D02*
X487036D01*
X416449Y212649D02*
X486938D01*
X262449Y205449D02*
X486425D01*
X416397Y211749D02*
X486357D01*
X412603Y206349D02*
X486005D01*
X416227Y210849D02*
X485959D01*
X413964Y207249D02*
X485737D01*
X415928Y209949D02*
X485711D01*
X414853Y208149D02*
X485603D01*
X415482Y209049D02*
X485594D01*
X415952Y347649D02*
X473690D01*
X368000Y335949D02*
X472382D01*
X415803Y346749D02*
X471775D01*
X367486Y336849D02*
X471114D01*
X415538Y345849D02*
X470739D01*
X366783Y337749D02*
X470300D01*
X415141Y344949D02*
X470043D01*
X365803Y338649D02*
X469742D01*
X414589Y344049D02*
X469566D01*
X364293Y339549D02*
X469366D01*
X413834Y343149D02*
X469256D01*
X256247Y340449D02*
X469141D01*
X412768Y342249D02*
X469087D01*
X411032Y341349D02*
X469050D01*
X415686Y309849D02*
X467023D01*
X432324Y321549D02*
X465303D01*
X432879Y310749D02*
X464545D01*
X433304Y320649D02*
X463874D01*
X433540Y311649D02*
X463434D01*
X433725Y319749D02*
X463003D01*
X433808Y312549D02*
X462708D01*
X433835Y318849D02*
X462414D01*
X433835Y313449D02*
X462214D01*
X433835Y317949D02*
X462021D01*
X433835Y314349D02*
X461896D01*
X433835Y317049D02*
X461785D01*
X433835Y315249D02*
X461725D01*
X433835Y316149D02*
X461688D01*
X457861Y265749D02*
X459940D01*
X445797Y254049D02*
X459714D01*
X456984Y264849D02*
X458543D01*
X447100Y254949D02*
X458412D01*
X455599Y263949D02*
X457662D01*
X447939Y255849D02*
X457573D01*
X448460Y263049D02*
X457052D01*
X448522Y256749D02*
X456990D01*
X448879Y262149D02*
X456633D01*
X448921Y257649D02*
X456591D01*
X449146Y261249D02*
X456366D01*
X449170Y258549D02*
X456342D01*
X449280Y260349D02*
X456232D01*
X449287Y259449D02*
X456224D01*
X447850Y263949D02*
X449913D01*
X298292Y275649D02*
X449739D01*
X446969Y264849D02*
X448527D01*
X299605Y274749D02*
X448427D01*
X445572Y265749D02*
X447651D01*
X300449Y273849D02*
X447583D01*
X300987Y266649D02*
X447045D01*
X301034Y272949D02*
X446997D01*
X301404Y267549D02*
X446628D01*
X301436Y272049D02*
X446596D01*
X301669Y268449D02*
X446363D01*
X301687Y271149D02*
X446344D01*
X301800Y269349D02*
X446231D01*
X301806Y270249D02*
X446225D01*
X308091Y265749D02*
X439940D01*
X308317Y254049D02*
X439714D01*
X309489Y264849D02*
X438543D01*
X309619Y254949D02*
X438412D01*
X310370Y263949D02*
X437662D01*
X310459Y255849D02*
X437573D01*
X310979Y263049D02*
X437052D01*
X311042Y256749D02*
X436990D01*
X311399Y262149D02*
X436633D01*
X311440Y257649D02*
X436591D01*
X311666Y261249D02*
X436366D01*
X311690Y258549D02*
X436342D01*
X311799Y260349D02*
X436232D01*
X311807Y259449D02*
X436224D01*
X416200Y214449D02*
X435009D01*
X313861Y226149D02*
X434170D01*
X415886Y215349D02*
X433262D01*
X315202Y225249D02*
X432829D01*
X415422Y216249D02*
X432271D01*
X316049Y224349D02*
X431983D01*
X414768Y217149D02*
X431601D01*
X316629Y223449D02*
X431403D01*
X413841Y218049D02*
X431142D01*
X317021Y222549D02*
X431011D01*
X412393Y218949D02*
X430847D01*
X317260Y221649D02*
X430771D01*
X317339Y219849D02*
X430692D01*
X317364Y220749D02*
X430667D01*
X197350Y321549D02*
X423345D01*
X415789Y310749D02*
X422790D01*
X323544Y320649D02*
X422366D01*
X415764Y311649D02*
X422129D01*
X324621Y319749D02*
X421944D01*
X415609Y312549D02*
X421861D01*
X325078Y318849D02*
X421835D01*
X325213Y317949D02*
X421835D01*
X411442Y317049D02*
X421835D01*
X413191Y316149D02*
X421835D01*
X414184Y315249D02*
X421835D01*
X414854Y314349D02*
X421835D01*
X415314Y313449D02*
X421835D01*
X391382Y298149D02*
X407831D01*
X340576Y317049D02*
X407456D01*
X391826Y284649D02*
X407387D01*
X355086Y355749D02*
X406725D01*
X341425Y305349D02*
X406607D01*
X392708Y218949D02*
X406504D01*
X392918Y206349D02*
X406295D01*
X355914Y341349D02*
X405897D01*
X342325Y316149D02*
X405706D01*
X393514Y297249D02*
X405698D01*
X393698Y285549D02*
X405514D01*
X342764Y306249D02*
X405268D01*
X394156Y218049D02*
X405057D01*
X394279Y207249D02*
X404934D01*
X343318Y315249D02*
X404713D01*
X394652Y296349D02*
X404561D01*
X357271Y354849D02*
X404541D01*
X394773Y286449D02*
X404440D01*
X343609Y307149D02*
X404422D01*
X357650Y342249D02*
X404161D01*
X395083Y217149D02*
X404130D01*
X395168Y208149D02*
X404045D01*
X343988Y314349D02*
X404043D01*
X344189Y308049D02*
X403843D01*
X395430Y295449D02*
X403783D01*
X395516Y287349D02*
X403697D01*
X344447Y313449D02*
X403584D01*
X395736Y216249D02*
X403476D01*
X344581Y308949D02*
X403451D01*
X395797Y209049D02*
X403415D01*
X358460Y353949D02*
X403351D01*
X344743Y312549D02*
X403288D01*
X395984Y294549D02*
X403228D01*
X344820Y309849D02*
X403212D01*
X396045Y288249D02*
X403167D01*
X344898Y311649D02*
X403133D01*
X344923Y310749D02*
X403108D01*
X358716Y343149D02*
X403095D01*
X396201Y215349D02*
X403012D01*
X396243Y209949D02*
X402970D01*
X396371Y293649D02*
X402841D01*
X396413Y289149D02*
X402800D01*
X396515Y214449D02*
X402698D01*
X396542Y210849D02*
X402671D01*
X396620Y292749D02*
X402592D01*
X396644Y290049D02*
X402569D01*
X359287Y353049D02*
X402525D01*
X396699Y213549D02*
X402514D01*
X396712Y211749D02*
X402501D01*
X396745Y291849D02*
X402467D01*
X396753Y290949D02*
X402460D01*
X396764Y212649D02*
X402449D01*
X359471Y344049D02*
X402340D01*
X359888Y352149D02*
X401923D01*
X360023Y344949D02*
X401788D01*
X360324Y351249D02*
X401487D01*
X360420Y345849D02*
X401392D01*
X360624Y350349D02*
X401187D01*
X360685Y346749D02*
X401126D01*
X360804Y349449D02*
X401007D01*
X360834Y347649D02*
X400977D01*
X360873Y348549D02*
X400938D01*
X337942Y356649D02*
X400363D01*
X325244Y371049D02*
X397527D01*
X337042Y357549D02*
X397015D01*
X325244Y370149D02*
X396013D01*
X336142Y358449D02*
X395702D01*
X325348Y369249D02*
X395032D01*
X335242Y359349D02*
X394812D01*
X326242Y368349D02*
X394327D01*
X334342Y360249D02*
X394167D01*
X327142Y367449D02*
X393813D01*
X333442Y361149D02*
X393697D01*
X328042Y366549D02*
X393448D01*
X332542Y362049D02*
X393369D01*
X328942Y365649D02*
X393209D01*
X331642Y362949D02*
X393163D01*
X329842Y364749D02*
X393085D01*
X330742Y363849D02*
X393070D01*
X359886Y298149D02*
X388146D01*
X360329Y284649D02*
X387702D01*
X361212Y218949D02*
X386819D01*
X361421Y206349D02*
X386610D01*
X362018Y297249D02*
X386013D01*
X362202Y285549D02*
X385829D01*
X362660Y218049D02*
X385372D01*
X362783Y207249D02*
X385249D01*
X363156Y296349D02*
X384876D01*
X363277Y286449D02*
X384754D01*
X363587Y217149D02*
X384445D01*
X363672Y208149D02*
X384360D01*
X363934Y295449D02*
X384098D01*
X364020Y287349D02*
X384012D01*
X364240Y216249D02*
X383791D01*
X364301Y209049D02*
X383730D01*
X364488Y294549D02*
X383543D01*
X364549Y288249D02*
X383482D01*
X364705Y215349D02*
X383327D01*
X364747Y209949D02*
X383284D01*
X364875Y293649D02*
X383156D01*
X364917Y289149D02*
X383115D01*
X365019Y214449D02*
X383013D01*
X365046Y210849D02*
X382986D01*
X365124Y292749D02*
X382907D01*
X365148Y290049D02*
X382884D01*
X365203Y213549D02*
X382829D01*
X365216Y211749D02*
X382815D01*
X365249Y291849D02*
X382782D01*
X365257Y290949D02*
X382775D01*
X365268Y212649D02*
X382764D01*
X255948Y339549D02*
X358148D01*
X197350Y326049D02*
X357652D01*
X340201Y298149D02*
X356650D01*
X255530Y338649D02*
X356638D01*
X197350Y326949D02*
X356336D01*
X340644Y284649D02*
X356206D01*
X254972Y337749D02*
X355658D01*
X197350Y327849D02*
X355445D01*
X341527Y218949D02*
X355323D01*
X341736Y206349D02*
X355114D01*
X254235Y336849D02*
X354955D01*
X197350Y328749D02*
X354799D01*
X342333Y297249D02*
X354517D01*
X253245Y335949D02*
X354441D01*
X342517Y285549D02*
X354333D01*
X197350Y329649D02*
X354329D01*
X251808Y335049D02*
X354076D01*
X197350Y330549D02*
X354000D01*
X342975Y218049D02*
X353876D01*
X197350Y334149D02*
X353838D01*
X197350Y331449D02*
X353794D01*
X343098Y207249D02*
X353753D01*
X197350Y333249D02*
X353715D01*
X197350Y332349D02*
X353700D01*
X343471Y296349D02*
X353379D01*
X343592Y286449D02*
X353258D01*
X343902Y217149D02*
X352949D01*
X343987Y208149D02*
X352864D01*
X344249Y295449D02*
X352602D01*
X344335Y287349D02*
X352516D01*
X344555Y216249D02*
X352295D01*
X344616Y209049D02*
X352234D01*
X344803Y294549D02*
X352047D01*
X344864Y288249D02*
X351986D01*
X345020Y215349D02*
X351831D01*
X345062Y209949D02*
X351788D01*
X345190Y293649D02*
X351660D01*
X345231Y289149D02*
X351619D01*
X338842Y355749D02*
X351607D01*
X345334Y214449D02*
X351517D01*
X345361Y210849D02*
X351490D01*
X345439Y292749D02*
X351411D01*
X345463Y290049D02*
X351387D01*
X345518Y213549D02*
X351333D01*
X345531Y211749D02*
X351319D01*
X345564Y291849D02*
X351286D01*
X345572Y290949D02*
X351279D01*
X345583Y212649D02*
X351268D01*
X256439Y341349D02*
X350779D01*
X339742Y354849D02*
X349422D01*
X256533Y342249D02*
X349043D01*
X340642Y353949D02*
X348233D01*
X256530Y343149D02*
X337626D01*
X232429Y298149D02*
X336965D01*
X325213Y317049D02*
X336590D01*
X197350Y284649D02*
X336521D01*
X224005Y305349D02*
X335741D01*
X317185Y218949D02*
X335638D01*
X256432Y344049D02*
X335484D01*
X262449Y206349D02*
X335429D01*
X325213Y316149D02*
X334840D01*
X233097Y297249D02*
X334832D01*
X228155Y285549D02*
X334648D01*
X256235Y344949D02*
X334475D01*
X229967Y306249D02*
X334402D01*
X325244Y376449D02*
X334300D01*
X316889Y218049D02*
X334191D01*
X262449Y207249D02*
X334068D01*
X325213Y315249D02*
X333847D01*
X233587Y296349D02*
X333694D01*
X255930Y345849D02*
X333575D01*
X230486Y286449D02*
X333573D01*
X231390Y307149D02*
X333556D01*
X316430Y217149D02*
X333264D01*
X262449Y208149D02*
X333179D01*
X325213Y314349D02*
X333177D01*
X232341Y308049D02*
X332976D01*
X233937Y295449D02*
X332917D01*
X326582Y390849D02*
X332838D01*
X231720Y287349D02*
X332831D01*
X325213Y313449D02*
X332718D01*
X255506Y346749D02*
X332675D01*
X315761Y216249D02*
X332610D01*
X280508Y308949D02*
X332585D01*
X262449Y209049D02*
X332549D01*
X325213Y312549D02*
X332422D01*
X234164Y294549D02*
X332362D01*
X324344Y309849D02*
X332346D01*
X232578Y288249D02*
X332301D01*
X325196Y311649D02*
X332267D01*
X324957Y310749D02*
X332242D01*
X314769Y215349D02*
X332146D01*
X262449Y209949D02*
X332103D01*
X234280Y293649D02*
X331975D01*
X233206Y289149D02*
X331934D01*
X325244Y377349D02*
X331849D01*
X313023Y214449D02*
X331832D01*
X262449Y210849D02*
X331805D01*
X254940Y347649D02*
X331775D01*
X234291Y292749D02*
X331726D01*
X233667Y290049D02*
X331702D01*
X262131Y213549D02*
X331648D01*
X262449Y211749D02*
X331634D01*
X234196Y291849D02*
X331601D01*
X233991Y290949D02*
X331594D01*
X262416Y212649D02*
X331583D01*
X325682Y389949D02*
X331207D01*
X254194Y348549D02*
X330875D01*
X325244Y378249D02*
X330610D01*
X325244Y389049D02*
X330178D01*
X253188Y349449D02*
X329975D01*
X325244Y379149D02*
X329757D01*
X325244Y388149D02*
X329445D01*
X325244Y380049D02*
X329137D01*
X251718Y350349D02*
X329075D01*
X325244Y387249D02*
X328909D01*
X325244Y380949D02*
X328687D01*
X325244Y386349D02*
X328526D01*
X325244Y381849D02*
X328375D01*
X325244Y385449D02*
X328272D01*
X325244Y382749D02*
X328185D01*
X249756Y351249D02*
X328175D01*
X325244Y384549D02*
X328134D01*
X325244Y383649D02*
X328105D01*
X250745Y352149D02*
X327275D01*
X232072Y407049D02*
X326629D01*
X252223Y353049D02*
X326375D01*
X253145Y353949D02*
X325475D01*
X253786Y354849D02*
X324575D01*
X231674Y406149D02*
X324033D01*
X254233Y355749D02*
X323675D01*
X254526Y356649D02*
X322775D01*
X231210Y405249D02*
X322774D01*
X230848Y404349D02*
X321910D01*
X254686Y357549D02*
X321875D01*
X230674Y403449D02*
X321283D01*
X254722Y358449D02*
X320975D01*
X230349Y402549D02*
X320827D01*
X229842Y401649D02*
X320511D01*
X229088Y400749D02*
X320316D01*
X227907Y399849D02*
X320232D01*
X254637Y359349D02*
X320075D01*
X225087Y398949D02*
X319515D01*
X254425Y360249D02*
X319175D01*
X223343Y398049D02*
X318615D01*
X291251Y361149D02*
X318275D01*
X220769Y397149D02*
X317715D01*
X292850Y362049D02*
X317375D01*
X219299Y396249D02*
X316815D01*
X293866Y362949D02*
X316475D01*
X197350Y395349D02*
X315923D01*
X294591Y363849D02*
X315637D01*
X197350Y394449D02*
X315259D01*
X295121Y364749D02*
X315075D01*
X281549Y320649D02*
X314881D01*
X197350Y393549D02*
X314837D01*
X295500Y365649D02*
X314727D01*
X197350Y392649D02*
X314599D01*
X295750Y366549D02*
X314551D01*
X197350Y391749D02*
X314520D01*
X283303Y390849D02*
X314520D01*
X284935Y389949D02*
X314520D01*
X285963Y389049D02*
X314520D01*
X286697Y388149D02*
X314520D01*
X287232Y387249D02*
X314520D01*
X287615Y386349D02*
X314520D01*
X287869Y385449D02*
X314520D01*
X288008Y384549D02*
X314520D01*
X288036Y383649D02*
X314520D01*
X287957Y382749D02*
X314520D01*
X287766Y381849D02*
X314520D01*
X287455Y380949D02*
X314520D01*
X287004Y380049D02*
X314520D01*
X286384Y379149D02*
X314520D01*
X285532Y378249D02*
X314520D01*
X284293Y377349D02*
X314520D01*
X281842Y376449D02*
X314520D01*
X289538Y375549D02*
X314520D01*
X292115Y374649D02*
X314520D01*
X293373Y373749D02*
X314520D01*
X294235Y372849D02*
X314520D01*
X294861Y371949D02*
X314520D01*
X295316Y371049D02*
X314520D01*
X295632Y370149D02*
X314520D01*
X295827Y369249D02*
X314520D01*
X295910Y368349D02*
X314520D01*
X295884Y367449D02*
X314520D01*
X282632Y309849D02*
X314082D01*
X283071Y319749D02*
X313804D01*
X283694Y310749D02*
X313468D01*
X283977Y318849D02*
X313347D01*
X284394Y311649D02*
X313229D01*
X284587Y317949D02*
X313213D01*
X284997Y317049D02*
X313213D01*
X285246Y316149D02*
X313213D01*
X285355Y315249D02*
X313213D01*
X285332Y314349D02*
X313213D01*
X285174Y313449D02*
X313213D01*
X284870Y312549D02*
X313213D01*
X261440Y214449D02*
X309024D01*
X230753Y226149D02*
X308186D01*
X234228Y215349D02*
X307278D01*
X230891Y225249D02*
X306845D01*
X234340Y216249D02*
X306286D01*
X231385Y224349D02*
X305999D01*
X234315Y217149D02*
X305617D01*
X231824Y223449D02*
X305419D01*
X234152Y218049D02*
X305158D01*
X232200Y222549D02*
X305027D01*
X233840Y218949D02*
X304863D01*
X232517Y221649D02*
X304787D01*
X233348Y219849D02*
X304708D01*
X232777Y220749D02*
X304683D01*
X300380Y265749D02*
X302460D01*
X288317Y254049D02*
X302234D01*
X299504Y264849D02*
X301063D01*
X289619Y254949D02*
X300932D01*
X298119Y263949D02*
X300181D01*
X290459Y255849D02*
X300092D01*
X290979Y263049D02*
X299572D01*
X291042Y256749D02*
X299510D01*
X291399Y262149D02*
X299152D01*
X291440Y257649D02*
X299111D01*
X291666Y261249D02*
X298885D01*
X291690Y258549D02*
X298861D01*
X291799Y260349D02*
X298752D01*
X291807Y259449D02*
X298744D01*
X290370Y263949D02*
X292433D01*
X197350Y275649D02*
X292259D01*
X289489Y264849D02*
X291047D01*
X197350Y274749D02*
X290947D01*
X288091Y265749D02*
X290171D01*
X197350Y273849D02*
X290102D01*
X197350Y266649D02*
X289564D01*
X197350Y272949D02*
X289517D01*
X197350Y267549D02*
X289147D01*
X197350Y272049D02*
X289116D01*
X197350Y268449D02*
X288882D01*
X197350Y271149D02*
X288864D01*
X197350Y269349D02*
X288751D01*
X197350Y270249D02*
X288745D01*
X256374Y375549D02*
X287233D01*
X254073Y361149D02*
X285521D01*
X256507Y374649D02*
X284656D01*
X253554Y362049D02*
X283922D01*
X256543Y373749D02*
X283399D01*
X252815Y362949D02*
X282906D01*
X256483Y372849D02*
X282537D01*
X197350Y265749D02*
X282460D01*
X197350Y254049D02*
X282234D01*
X251726Y363849D02*
X282180D01*
X256326Y371949D02*
X281911D01*
X249889Y364749D02*
X281650D01*
X256066Y371049D02*
X281456D01*
X250281Y365649D02*
X281272D01*
X255693Y370149D02*
X281140D01*
X197350Y264849D02*
X281063D01*
X252394Y366549D02*
X281022D01*
X255187Y369249D02*
X280945D01*
X197350Y254949D02*
X280932D01*
X253633Y367449D02*
X280887D01*
X254520Y368349D02*
X280862D01*
X197350Y263949D02*
X280181D01*
X197350Y255849D02*
X280092D01*
X197350Y263049D02*
X279572D01*
X197350Y256749D02*
X279510D01*
X256139Y376449D02*
X279182D01*
X197350Y262149D02*
X279152D01*
X197350Y257649D02*
X279111D01*
X197350Y261249D02*
X278885D01*
X197350Y258549D02*
X278861D01*
X197350Y260349D02*
X278752D01*
X197350Y259449D02*
X278744D01*
X233032Y308949D02*
X277917D01*
X197350Y390849D02*
X277720D01*
X228578Y320649D02*
X276876D01*
X255795Y377349D02*
X276731D01*
X265563Y389949D02*
X276088D01*
X233540Y309849D02*
X275794D01*
X266749Y378249D02*
X275492D01*
X230653Y319749D02*
X275354D01*
X267431Y389049D02*
X275060D01*
X233904Y310749D02*
X274731D01*
X268034Y379149D02*
X274639D01*
X231831Y318849D02*
X274448D01*
X268456Y388149D02*
X274327D01*
X234144Y311649D02*
X274031D01*
X268856Y380049D02*
X274019D01*
X232658Y317949D02*
X273838D01*
X269144Y387249D02*
X273791D01*
X269420Y380949D02*
X273569D01*
X234273Y312549D02*
X273556D01*
X233266Y317049D02*
X273428D01*
X269617Y386349D02*
X273408D01*
X269800Y381849D02*
X273257D01*
X234295Y313449D02*
X273252D01*
X233710Y316149D02*
X273179D01*
X269923Y385449D02*
X273154D01*
X234212Y314349D02*
X273093D01*
X234019Y315249D02*
X273070D01*
X270028Y382749D02*
X273066D01*
X270088Y384549D02*
X273016D01*
X270123Y383649D02*
X272987D01*
X197350Y389949D02*
X261996D01*
X255323Y378249D02*
X260811D01*
X197350Y389049D02*
X260128D01*
X254699Y379149D02*
X259525D01*
X197350Y388149D02*
X259103D01*
X253873Y380049D02*
X258703D01*
X197350Y387249D02*
X258415D01*
X252740Y380949D02*
X258139D01*
X197350Y386349D02*
X257942D01*
X250964Y381849D02*
X257759D01*
X197350Y385449D02*
X257636D01*
X197350Y382749D02*
X257531D01*
X197350Y384549D02*
X257471D01*
X197350Y383649D02*
X257436D01*
X248866Y202749D02*
X250522D01*
X249116Y214449D02*
X250371D01*
X197350Y351249D02*
X246307D01*
X197350Y364749D02*
X246174D01*
X197350Y365649D02*
X245782D01*
X197350Y352149D02*
X245318D01*
X197350Y381849D02*
X245099D01*
X197350Y350349D02*
X244345D01*
X197350Y363849D02*
X244337D01*
X197350Y335049D02*
X244255D01*
X197350Y353049D02*
X243840D01*
X197350Y366549D02*
X243669D01*
X197350Y380949D02*
X243323D01*
X227431Y202749D02*
X243260D01*
X197350Y362949D02*
X243248D01*
X233972Y214449D02*
X243010D01*
X197350Y353949D02*
X242918D01*
X197350Y349449D02*
X242875D01*
X197350Y335949D02*
X242818D01*
X197350Y362049D02*
X242509D01*
X197350Y367449D02*
X242430D01*
X197350Y354849D02*
X242277D01*
X197350Y380049D02*
X242190D01*
X197350Y361149D02*
X241990D01*
X197350Y348549D02*
X241869D01*
X228817Y203649D02*
X241857D01*
X197350Y355749D02*
X241830D01*
X197350Y336849D02*
X241828D01*
X233550Y213549D02*
X241713D01*
X197350Y360249D02*
X241638D01*
X197350Y368349D02*
X241543D01*
X197350Y356649D02*
X241537D01*
X197350Y359349D02*
X241426D01*
X197350Y357549D02*
X241377D01*
X197350Y379149D02*
X241364D01*
X197350Y358449D02*
X241341D01*
X197350Y347649D02*
X241123D01*
X197350Y337749D02*
X241091D01*
X229662Y204549D02*
X240973D01*
X197350Y369249D02*
X240876D01*
X232918Y212649D02*
X240875D01*
X197350Y378249D02*
X240740D01*
X197350Y346749D02*
X240557D01*
X197350Y338649D02*
X240533D01*
X197350Y370149D02*
X240370D01*
X230228Y205449D02*
X240362D01*
X232618Y211749D02*
X240294D01*
X197350Y377349D02*
X240268D01*
X197350Y345849D02*
X240133D01*
X197350Y339549D02*
X240115D01*
X197350Y371049D02*
X239997D01*
X230600Y206349D02*
X239942D01*
X197350Y376449D02*
X239924D01*
X232322Y210849D02*
X239896D01*
X197350Y344949D02*
X239828D01*
X197350Y340449D02*
X239816D01*
X197350Y371949D02*
X239737D01*
X197350Y375549D02*
X239689D01*
X230814Y207249D02*
X239674D01*
X231968Y209949D02*
X239648D01*
X197350Y344049D02*
X239631D01*
X197350Y341349D02*
X239624D01*
X197350Y372849D02*
X239580D01*
X197350Y374649D02*
X239556D01*
X231069Y208149D02*
X239540D01*
X197350Y343149D02*
X239533D01*
X231552Y209049D02*
X239531D01*
X197350Y342249D02*
X239530D01*
X197350Y373749D02*
X239520D01*
X208076Y285549D02*
X224995D01*
X208499Y320649D02*
X224571D01*
X210407Y286449D02*
X222664D01*
X210574Y319749D02*
X222497D01*
X211642Y287349D02*
X221429D01*
X211752Y318849D02*
X221318D01*
X212499Y288249D02*
X220572D01*
X212580Y317949D02*
X220491D01*
X213128Y289149D02*
X219943D01*
X213187Y317049D02*
X219884D01*
X213588Y290049D02*
X219483D01*
X213631Y316149D02*
X219440D01*
X213912Y290949D02*
X219159D01*
X213941Y315249D02*
X219130D01*
X217143Y295449D02*
X219048D01*
X214065Y311649D02*
X219005D01*
X214085Y294549D02*
X218986D01*
X217919Y310749D02*
X218969D01*
X214117Y291849D02*
X218954D01*
X214133Y314349D02*
X218938D01*
X214194Y312549D02*
X218877D01*
X214202Y293649D02*
X218869D01*
X214212Y292749D02*
X218859D01*
X214216Y313449D02*
X218855D01*
X214023Y295449D02*
X215928D01*
X197350Y234249D02*
X215459D01*
X214102Y310749D02*
X215152D01*
X197350Y199149D02*
X214318D01*
X197350Y396249D02*
X213772D01*
X197350Y430449D02*
X213635D01*
X197350Y233349D02*
X213223D01*
X197350Y200049D02*
X212775D01*
X197350Y397149D02*
X212302D01*
X197350Y429549D02*
X212030D01*
X197350Y232449D02*
X211215D01*
X197350Y200949D02*
X210321D01*
X197350Y398049D02*
X209728D01*
X197350Y428649D02*
X209565D01*
X197350Y305349D02*
X209065D01*
X197350Y231549D02*
X209043D01*
X197350Y300849D02*
X209029D01*
X197350Y301749D02*
X208939D01*
X197350Y304449D02*
X208921D01*
X197350Y302649D02*
X208827D01*
X197350Y303549D02*
X208821D01*
X197350Y201849D02*
X208420D01*
X197350Y398949D02*
X207984D01*
X197350Y427749D02*
X207844D01*
X197350Y230649D02*
X206509D01*
X197350Y202749D02*
X205640D01*
X197350Y399849D02*
X205164D01*
X197350Y426849D02*
X205041D01*
X197350Y285549D02*
X204916D01*
X197350Y229749D02*
X204667D01*
X197350Y320649D02*
X204493D01*
X197350Y203649D02*
X204254D01*
X197350Y400749D02*
X203983D01*
X197350Y425949D02*
X203910D01*
X197350Y228849D02*
X203677D01*
X197350Y204549D02*
X203409D01*
X197350Y401649D02*
X203229D01*
X197350Y425049D02*
X203180D01*
X197350Y306249D02*
X203104D01*
X197350Y227949D02*
X203023D01*
X197350Y299949D02*
X202905D01*
X197350Y205449D02*
X202843D01*
X197350Y402549D02*
X202722D01*
X197350Y424149D02*
X202689D01*
X197350Y227049D02*
X202586D01*
X197350Y286449D02*
X202585D01*
X197350Y206349D02*
X202471D01*
X197350Y319749D02*
X202418D01*
X197350Y403449D02*
X202396D01*
X197350Y423249D02*
X202377D01*
X197350Y226149D02*
X202318D01*
X197350Y207249D02*
X202257D01*
X197350Y404349D02*
X202223D01*
X197350Y422349D02*
X202215D01*
X197350Y225249D02*
X202180D01*
X197350Y208149D02*
X202002D01*
X197350Y405249D02*
X201861D01*
X197350Y421449D02*
X201820D01*
X197350Y224349D02*
X201686D01*
X197350Y307149D02*
X201681D01*
X197350Y299049D02*
X201557D01*
X197350Y209049D02*
X201519D01*
X197350Y406149D02*
X201397D01*
X197350Y420549D02*
X201362D01*
X197350Y287349D02*
X201351D01*
X197350Y223449D02*
X201246D01*
X197350Y318849D02*
X201240D01*
X197350Y209949D02*
X201103D01*
X197350Y407049D02*
X200998D01*
X197350Y419649D02*
X200969D01*
X197350Y222549D02*
X200871D01*
X197350Y210849D02*
X200749D01*
X197350Y308049D02*
X200730D01*
X197350Y407949D02*
X200661D01*
X197350Y298149D02*
X200641D01*
X197350Y418749D02*
X200636D01*
X197350Y221649D02*
X200554D01*
X197350Y288249D02*
X200493D01*
X197350Y211749D02*
X200453D01*
X197350Y317949D02*
X200413D01*
X197350Y408849D02*
X200381D01*
X197350Y417849D02*
X200360D01*
X197350Y220749D02*
X200294D01*
X197350Y212649D02*
X200153D01*
X197350Y308949D02*
X200039D01*
X197350Y297249D02*
X199974D01*
X197350Y409749D02*
X199952D01*
X197350Y416949D02*
X199897D01*
X197350Y289149D02*
X199865D01*
X197350Y317049D02*
X199805D01*
X197350Y219849D02*
X199722D01*
X197350Y309849D02*
X199531D01*
X197350Y213549D02*
X199520D01*
X197350Y296349D02*
X199483D01*
X197350Y290049D02*
X199404D01*
X197350Y410649D02*
X199385D01*
X197350Y316149D02*
X199361D01*
X197350Y416049D02*
X199348D01*
X197350Y218949D02*
X199231D01*
X197350Y310749D02*
X199167D01*
X197350Y295449D02*
X199134D01*
X197350Y214449D02*
X199099D01*
X197350Y290949D02*
X199080D01*
X197350Y315249D02*
X199051D01*
X197350Y411549D02*
X199012D01*
X197350Y415149D02*
X198989D01*
X197350Y311649D02*
X198927D01*
X197350Y218049D02*
X198918D01*
X197350Y294549D02*
X198907D01*
X197350Y291849D02*
X198875D01*
X197350Y314349D02*
X198859D01*
X197350Y215349D02*
X198843D01*
X197350Y312549D02*
X198798D01*
X197350Y412449D02*
X198798D01*
X197350Y293649D02*
X198790D01*
X197350Y414249D02*
X198787D01*
X197350Y292749D02*
X198780D01*
X197350Y313449D02*
X198776D01*
X197350Y217149D02*
X198756D01*
X197350Y216249D02*
X198731D01*
X197350Y413349D02*
X198725D01*
X196850Y196850D02*
X551181D01*
Y433071*
X196850*
Y196850*
G54D18*
X255906Y208661D03*
X501969D03*
G54D19*
X285276Y259843D03*
X295276Y269843D03*
X305276Y259843D03*
X442756D03*
X452756Y269843D03*
X462756Y259843D03*
X248031Y358268D03*
X500000D03*
X246063Y208661D03*
X492126D03*
G54D22*
X319213Y314961D03*
X427835Y315945D03*
G54D26*
X224887Y224887D03*
X216535Y228346D03*
X208183Y224887D03*
X204724Y216535D03*
X208183Y208183D03*
X216535Y204724D03*
X224887Y208183D03*
X228346Y216535D03*
X539848Y224887D03*
X531496Y228346D03*
X523144Y224887D03*
X519685Y216535D03*
X523144Y208183D03*
X531496Y204724D03*
X539848Y208183D03*
X543307Y216535D03*
X539848Y421738D03*
X531496Y425197D03*
X523144Y421738D03*
X519685Y413386D03*
X523144Y405034D03*
X531496Y401575D03*
X539848Y405034D03*
X543307Y413386D03*
X224887Y421738D03*
X216535Y425197D03*
X208183Y421738D03*
X204724Y413386D03*
X208183Y405034D03*
X216535Y401575D03*
X224887Y405034D03*
X228346Y413386D03*
G54D27*
X280512Y383858D03*
X335630D03*
X327756Y399606D03*
X288386Y368110D03*
X353346Y348425D03*
X408465D03*
X400591Y364173D03*
X361220Y332677D03*
G54D29*
X311024Y220472D03*
X437008D03*
X338583Y311024D03*
X409449D03*
X263780Y383858D03*
X475394Y341535D03*
G54D32*
X248031Y373858D03*
Y342677D03*
X500000D03*
Y373858D03*
G54D39*
X338583Y212598D03*
Y291339D03*
X389764Y212598D03*
Y291339D03*
X358268Y212598D03*
Y291339D03*
X409449Y212598D03*
Y291339D03*
G54D44*
X216535Y216535D03*
X531496D03*
Y413386D03*
X216535D03*
G54D49*
X533811Y293110D02*
X536811D01*
X541535Y285386D02*
Y288386D01*
X549260Y293110D02*
X546260D01*
X541535Y300835D02*
Y297835D01*
X208183Y427738D02*
Y424738D01*
X202183Y421738D02*
X205183D01*
X198724Y413386D02*
X201724D01*
X202183Y405034D02*
X205183D01*
X208183Y399034D02*
Y402034D01*
X216535Y395575D02*
Y398575D01*
X230887Y405034D02*
X227887D01*
X224887Y399034D02*
Y402034D01*
X234346Y413386D02*
X231346D01*
X531496Y431197D02*
Y428197D01*
X523144Y427738D02*
Y424738D01*
X517144Y421738D02*
X520144D01*
X513685Y413386D02*
X516685D01*
X517144Y405034D02*
X520144D01*
X523144Y399034D02*
Y402034D01*
X531496Y395575D02*
Y398575D01*
X545848Y405034D02*
X542848D01*
X539848Y399034D02*
Y402034D01*
X549307Y413386D02*
X546307D01*
X216535Y431197D02*
Y428197D01*
X545848Y224887D02*
X542848D01*
X539848Y230887D02*
Y227887D01*
X545848Y421738D02*
X542848D01*
X539848Y427738D02*
Y424738D01*
X230887Y421738D02*
X227887D01*
X224887Y427738D02*
Y424738D01*
X295913Y368110D02*
X292913D01*
X288386Y375638D02*
Y372638D01*
X280858Y368110D02*
X283858D01*
X288386Y360583D02*
Y363583D01*
X368748Y332677D02*
X365748D01*
X361220Y340205D02*
Y337205D01*
X353693Y332677D02*
X356693D01*
X361220Y325150D02*
Y328150D01*
X239520Y342677D02*
X242520D01*
X248031Y334165D02*
Y337165D01*
X256543Y342677D02*
X253543D01*
X214220Y313189D02*
X211220D01*
X206496Y320913D02*
Y317913D01*
X198772Y313189D02*
X201772D01*
X206496Y305465D02*
Y308465D01*
X234299Y313189D02*
X231299D01*
X226575Y320913D02*
Y317913D01*
X218850Y313189D02*
X221850D01*
X226575Y305465D02*
Y308465D01*
X234299Y293110D02*
X231299D01*
X226575Y300835D02*
Y297835D01*
X218850Y293110D02*
X221850D01*
X226575Y285386D02*
Y288386D01*
X214220Y293110D02*
X211220D01*
X206496Y300835D02*
Y297835D01*
X198772Y293110D02*
X201772D01*
X206496Y285386D02*
Y288386D01*
X338583Y219598D02*
Y216598D01*
X331583Y212598D02*
X334583D01*
X338583Y205598D02*
Y208598D01*
X345583Y212598D02*
X342583D01*
X358268Y219598D02*
Y216598D01*
X351268Y212598D02*
X354268D01*
X358268Y205598D02*
Y208598D01*
X365268Y212598D02*
X362268D01*
X485583Y208661D02*
X488583D01*
X492126Y202118D02*
Y205118D01*
Y215205D02*
Y212205D01*
X389764Y219598D02*
Y216598D01*
X382764Y212598D02*
X385764D01*
X389764Y205598D02*
Y208598D01*
X396764Y212598D02*
X393764D01*
X409449Y219598D02*
Y216598D01*
X402449Y212598D02*
X405449D01*
X409449Y205598D02*
Y208598D01*
X416449Y212598D02*
X413449D01*
X230887Y224887D02*
X227887D01*
X224887Y230887D02*
Y227887D01*
X216535Y234346D02*
Y231346D01*
X208183Y230887D02*
Y227887D01*
X202183Y224887D02*
X205183D01*
X198724Y216535D02*
X201724D01*
X202183Y208183D02*
X205183D01*
X208183Y202183D02*
Y205183D01*
X234346Y216535D02*
X231346D01*
X216535Y198724D02*
Y201724D01*
X230887Y208183D02*
X227887D01*
X224887Y202183D02*
Y205183D01*
X523144Y230887D02*
Y227887D01*
X517144Y224887D02*
X520144D01*
X513685Y216535D02*
X516685D01*
X517144Y208183D02*
X520144D01*
X523144Y202183D02*
Y205183D01*
X531496Y198724D02*
Y201724D01*
X545848Y208183D02*
X542848D01*
X539848Y202183D02*
Y205183D01*
X549307Y216535D02*
X546307D01*
X531496Y234346D02*
Y231346D01*
X239520Y208661D02*
X242520D01*
X246063Y202118D02*
Y205118D01*
Y215205D02*
Y212205D01*
X513732Y293110D02*
X516732D01*
X521457Y285386D02*
Y288386D01*
X529181Y293110D02*
X526181D01*
X521457Y300835D02*
Y297835D01*
X513732Y313189D02*
X516732D01*
X521457Y305465D02*
Y308465D01*
X529181Y313189D02*
X526181D01*
X521457Y320913D02*
Y317913D01*
X533811Y313189D02*
X536811D01*
X541535Y305465D02*
Y308465D01*
X549260Y313189D02*
X546260D01*
X541535Y320913D02*
Y317913D01*
X508512Y373858D02*
X505512D01*
X500000Y382370D02*
Y379370D01*
X491488Y373858D02*
X494488D01*
G54D69*
X353346Y348425D02*
X338583D01*
X319882Y367126*
Y391732*
X327756Y399606*
X283465Y201772D03*
X295276D03*
X452756D03*
X464567D03*
X346457Y204724D03*
X374016D03*
X401575D03*
X511811D03*
X204724Y244094D03*
Y259843D03*
X242126Y260827D03*
X505906D03*
X543307Y244094D03*
Y259843D03*
X204724Y275591D03*
X543307D03*
X255906Y286417D03*
X258858Y299213D03*
X358268Y303150D03*
X374016Y295276D03*
X437008Y299213D03*
X492126Y286417D03*
X232283Y322835D03*
X358268Y318898D03*
X405512Y322835D03*
X480315D03*
X496063D03*
X511811D03*
X232283Y338583D03*
X283465Y330709D03*
X307087D03*
X330709D03*
X405512Y338583D03*
X448819Y330709D03*
X232283Y354331D03*
X283465D03*
X267717Y362205D03*
X433071Y346457D03*
X472441Y362205D03*
X488189D03*
X511811D03*
X543307D03*
Y346457D03*
X527559Y362205D03*
X334646Y366142D03*
X358268D03*
X421260Y381890D03*
X444882D03*
X456693Y377953D03*
X543307D03*
X204724Y385827D03*
X236220Y401575D03*
X228346Y393701D03*
X251969Y401575D03*
X283465D03*
X267717D03*
X421260Y397638D03*
X543307Y393701D03*
X283465Y417323D03*
X338583Y409449D03*
X421260Y413386D03*
X244094Y425197D03*
X259843D03*
X275591D03*
X338583D03*
X354331D03*
X370079D03*
X401575D03*
X385827D03*
X417323D03*
X433071D03*
X464567D03*
X448819D03*
X480315D03*
X496063D03*
X511811D03*
G54D70*
X279213Y314961D03*
X467835Y315945D03*
G54D85*
X531496Y303150D03*
X541535Y293110D03*
X521457D03*
Y313189D03*
X541535D03*
X216535Y303150D03*
X206496Y313189D03*
X226575D03*
Y293110D03*
X206496D03*
G54D152*
G74*
X0Y0D02*
M02*
