%
T1C.02362F197S55
X020472Y024409
X020472Y025984
X024213Y026083
X020472Y027559
X023228Y032283
X023228Y033858
X023228Y035433
X020472Y038583
X022835Y03937
X023622Y040157
X025197Y040157
X024409Y04252
X025984Y04252
X027559Y04252
X028346Y041732
X026772Y040157
X028346Y040157
X026772Y03622
X028346Y035433
X028346Y033071
X025886Y029921
X025591Y028642
X029528Y020177
X028346Y020177
X034646Y020472
X033071Y033071
X030709Y033071
X033465Y036614
X033858Y040945
X033858Y04252
X035433Y04252
X037008Y04252
X040157Y04252
X038583Y04252
X035827Y036614
X035827Y03189
X035827Y030315
X037402Y029528
X040157Y020472
X037402Y020472
X045276Y020177
X043701Y029921
X040551Y032283
X044882Y033071
X040551Y033858
X043307Y034646
X044488Y038189
X042126Y038189
X042126Y039764
X042126Y041339
X041732Y04252
X043307Y04252
X044882Y04252
X046457Y04252
X048031Y04252
X049606Y04252
X045669Y037795
X048819Y03622
X047244Y03622
X048031Y032283
X049606Y032283
X049213Y028642
X046457Y020177
X051181Y020472
X054331Y024409
X054331Y025984
X050591Y026083
X054331Y027559
X051181Y032283
X054331Y034646
X054331Y03622
X051181Y03622
X052756Y03622
X054331Y037795
X054331Y03937
X051181Y04252
T2C.035F197S55
X031921Y031496
X042783Y031594
T3C.03543F197S55
X021654Y020472
X020818Y020818
X022489Y020818
X020472Y021654
X022835Y021654
X022489Y022489
X020818Y022489
X021654Y022835
X021654Y040157
X020818Y040503
X022489Y040503
X020472Y041339
X022835Y041339
X022489Y042174
X020818Y042174
X021654Y04252
X027921Y031496
X052314Y020818
X051969Y021654
X052314Y022489
X046783Y031594
X052314Y040503
X051969Y041339
X052314Y042174
X05315Y04252
X053985Y042174
X054331Y041339
X053985Y040503
X05315Y040157
X05315Y022835
X053985Y022489
X054331Y021654
X053985Y020818
X05315Y020472
T4C.03937F197S55
X024606Y020866
X025591Y020866
X026378Y038386
X033858Y031102
X029528Y026984
X030528Y025984
X028528Y025984
X031102Y022047
X043701Y022047
X044276Y025984
X045276Y026984
X040945Y031102
X047539Y034154
X046276Y025984
X050197Y020866
X049213Y020866
T5C.04331F139S55
X033858Y02126
X033858Y029134
X035827Y029134
X038976Y029134
X040945Y029134
X035827Y02126
X040945Y02126
X038976Y02126
T6C.05118F107S55
X028839Y036811
X028051Y038386
X032776Y039961
X033563Y038386
X040059Y036417
X035335Y034843
X036122Y033268
X040846Y034843
T7C.06299F089S55
X021654Y030315
X05315Y030315
T8C.06693F089S55
X022657Y029311
X02065Y029311
X02065Y031319
X022657Y031319
X052146Y031319
X052146Y029311
X054154Y029311
X054154Y031319
T9C.07087F081S55
X024803Y034268
X024803Y035827
X024803Y037386
X05Y037386
X05Y035827
X05Y034268
T10C.14173F035S9
X021654Y021654
X021654Y041339
X05315Y041339
X05315Y021654
M30
