*
*
G04 PADS 9.5 Build Number: 522968 generated Gerber (RS-274-X) file*
G04 PC Version=2.1*
*
%IN "Tandem-coupler_V001_191"*%
*
%MOIN*%
*
%FSLAX35Y35*%
*
*
*
*
G04 PC Standard Apertures*
*
*
G04 Thermal Relief Aperture macro.*
%AMTER*
1,1,$1,0,0*
1,0,$1-$2,0,0*
21,0,$3,$4,0,0,45*
21,0,$3,$4,0,0,135*
%
*
*
G04 Annular Aperture macro.*
%AMANN*
1,1,$1,0,0*
1,0,$2,0,0*
%
*
*
G04 Odd Aperture macro.*
%AMODD*
1,1,$1,0,0*
1,0,$1-0.005,0,0*
%
*
*
G04 PC Custom Aperture Macros*
*
*
*
*
*
*
G04 PC Aperture Table*
*
%ADD010C,0.01*%
%ADD018R,0.07087X0.07087*%
%ADD019C,0.07087*%
%ADD022R,0.06X0.06*%
%ADD026C,0.06*%
%ADD027C,0.09055*%
%ADD029C,0.06693*%
%ADD032C,0.11024*%
%ADD039C,0.08*%
%ADD044C,0.27559*%
%ADD070C,0.06299*%
%ADD085C,0.09449*%
%ADD101R,0.05X0.07*%
%ADD106R,0.07X0.05*%
%ADD116R,0.11024X0.11024*%
%ADD150R,0.078X0.06*%
%ADD152C,0.00004*%
*
*
*
*
G04 PC Circuitry*
G04 Layer Name Tandem-coupler_V001_191 - circuitry*
%LPD*%
*
*
G04 PC Custom Flashes*
G04 Layer Name Tandem-coupler_V001_191 - flashes*
%LPD*%
*
*
G04 PC Circuitry*
G04 Layer Name Tandem-coupler_V001_191 - circuitry*
%LPD*%
*
G54D10*
G01X196850Y196850D02*
X551181D01*
Y433071*
X196850*
Y196850*
G54D18*
X255906Y208661D03*
X501969D03*
G54D19*
X285276Y259843D03*
X295276Y269843D03*
X305276Y259843D03*
X442756D03*
X452756Y269843D03*
X462756Y259843D03*
X248031Y358268D03*
X500000D03*
X246063Y208661D03*
X492126D03*
G54D22*
X319213Y314961D03*
X427835Y315945D03*
G54D26*
X224887Y224887D03*
X216535Y228346D03*
X208183Y224887D03*
X204724Y216535D03*
X208183Y208183D03*
X216535Y204724D03*
X224887Y208183D03*
X228346Y216535D03*
X539848Y224887D03*
X531496Y228346D03*
X523144Y224887D03*
X519685Y216535D03*
X523144Y208183D03*
X531496Y204724D03*
X539848Y208183D03*
X543307Y216535D03*
X539848Y421738D03*
X531496Y425197D03*
X523144Y421738D03*
X519685Y413386D03*
X523144Y405034D03*
X531496Y401575D03*
X539848Y405034D03*
X543307Y413386D03*
X224887Y421738D03*
X216535Y425197D03*
X208183Y421738D03*
X204724Y413386D03*
X208183Y405034D03*
X216535Y401575D03*
X224887Y405034D03*
X228346Y413386D03*
G54D27*
X280512Y383858D03*
X335630D03*
X327756Y399606D03*
X288386Y368110D03*
X353346Y348425D03*
X408465D03*
X400591Y364173D03*
X361220Y332677D03*
G54D29*
X311024Y220472D03*
X437008D03*
X338583Y311024D03*
X409449D03*
X263780Y383858D03*
X475394Y341535D03*
G54D32*
X248031Y342677D03*
X500000Y373858D03*
G54D39*
X338583Y212598D03*
Y291339D03*
X389764Y212598D03*
Y291339D03*
X358268Y212598D03*
Y291339D03*
X409449Y212598D03*
Y291339D03*
G54D44*
X216535Y216535D03*
X531496D03*
Y413386D03*
X216535D03*
G54D70*
X279213Y314961D03*
X467835Y315945D03*
G54D85*
X531496Y303150D03*
X541535Y293110D03*
X521457D03*
Y313189D03*
X541535D03*
X216535Y303150D03*
X206496Y313189D03*
X226575D03*
Y293110D03*
X206496D03*
G54D101*
X265654Y299213D03*
X277654D03*
X443803D03*
X455803D03*
X479425D03*
X467425D03*
X293213D03*
X305213D03*
G54D106*
X295276Y208567D03*
Y220567D03*
X464567Y208567D03*
Y220567D03*
X452756Y208567D03*
Y220567D03*
X283465Y208567D03*
Y220567D03*
G54D116*
X248031Y373858D03*
X500000Y342677D03*
G54D150*
X255906Y239763D03*
Y252363D03*
Y265354D03*
Y277954D03*
X242126Y254331D03*
Y241731D03*
X492126Y239763D03*
Y252363D03*
Y265354D03*
Y277954D03*
X505906Y254331D03*
Y241731D03*
G54D152*
X0Y0D02*
M02*
