*
*
G04 PADS 9.5 Build Number: 522968 generated Gerber (RS-274-X) file*
G04 PC Version=2.1*
*
%IN "Tandem-coupler_V001_191"*%
*
%MOIN*%
*
%FSLAX35Y35*%
*
*
*
*
G04 PC Standard Apertures*
*
*
G04 Thermal Relief Aperture macro.*
%AMTER*
1,1,$1,0,0*
1,0,$1-$2,0,0*
21,0,$3,$4,0,0,45*
21,0,$3,$4,0,0,135*
%
*
*
G04 Annular Aperture macro.*
%AMANN*
1,1,$1,0,0*
1,0,$2,0,0*
%
*
*
G04 Odd Aperture macro.*
%AMODD*
1,1,$1,0,0*
1,0,$1-0.005,0,0*
%
*
*
G04 PC Custom Aperture Macros*
*
*
*
*
*
*
G04 PC Aperture Table*
*
%ADD010C,0.01*%
%ADD059C,0.008*%
%ADD062C,0.005*%
%ADD140C,0.00787*%
%ADD151C,0.00512*%
%ADD152C,0.00004*%
*
*
*
*
G04 PC Circuitry*
G04 Layer Name Tandem-coupler_V001_191 - circuitry*
%LPD*%
*
*
G04 PC Custom Flashes*
G04 Layer Name Tandem-coupler_V001_191 - flashes*
%LPD*%
*
*
G04 PC Circuitry*
G04 Layer Name Tandem-coupler_V001_191 - circuitry*
%LPD*%
*
G54D10*
G01X187402Y354331D02*
Y362205D01*
X195276*
Y354331*
X187402*
X226772Y328740D02*
Y387795D01*
X187402*
Y328740*
X226772*
X187402Y354331D02*
Y362205D01*
X195276*
Y354331*
X187402*
X560630Y362205D02*
Y354331D01*
X552756*
Y362205*
X560630*
X521260Y387795D02*
Y328740D01*
X560630*
Y387795*
X521260*
X560630Y362205D02*
Y354331D01*
X552756*
Y362205*
X560630*
X515748Y318898D02*
X547244D01*
Y287402*
X515748*
Y318898*
X539370Y303150D02*
G75*
G03X539370I-7874J0D01*
G01X232283Y287402D02*
X200787D01*
Y318898*
X232283*
Y287402*
X224409Y303150D02*
G03X224409I-7874J0D01*
G01X346083Y235969D02*
Y267969D01*
X331083*
Y235969*
X346083*
X338583D02*
Y225969D01*
Y277969D02*
Y267969D01*
X397264Y235969D02*
Y267969D01*
X382264*
Y235969*
X397264*
X389764D02*
Y225969D01*
Y277969D02*
Y267969D01*
X292813Y309961D02*
Y319961D01*
X294613Y309961D02*
Y319961D01*
X289213Y314961D02*
X284213D01*
X309213Y319961D02*
Y309961D01*
X289213*
Y319961*
X309213*
Y314961D02*
X315213D01*
X293713Y309961D02*
Y319961D01*
X454235Y320945D02*
Y310945D01*
X452435Y320945D02*
Y310945D01*
X457835Y315945D02*
X462835D01*
X437835Y310945D02*
Y320945D01*
X457835*
Y310945*
X437835*
Y315945D02*
X431835D01*
X453335Y320945D02*
Y310945D01*
X294291Y427165D02*
X321850D01*
Y340551*
X294291*
Y427165*
X284449Y389764D02*
X331693D01*
X284449Y377953D02*
X331693D01*
X367126Y391732D02*
X394685D01*
Y305118*
X367126*
Y391732*
X357283Y354331D02*
X404528D01*
X357283Y342520D02*
X404528D01*
X256306Y217761D02*
X255306D01*
X257106Y218661D02*
X254506D01*
X502369Y217761D02*
X501369D01*
X503169Y218661D02*
X500569D01*
X365768Y235969D02*
Y267969D01*
X350768*
Y235969*
X365768*
X358268D02*
Y225969D01*
Y277969D02*
Y267969D01*
X416949Y235969D02*
Y267969D01*
X401949*
Y235969*
X416949*
X409449D02*
Y225969D01*
Y277969D02*
Y267969D01*
X196850Y196850D02*
X551181D01*
Y433071*
X196850*
Y196850*
G54D59*
X319291Y259843D02*
G03X319291I-24015J0D01*
G01X300276D02*
G03X300276I-5000J0D01*
G01X476772D02*
G03X476772I-24016J0D01*
G01X457756D02*
G03X457756I-5000J0D01*
G01X261654Y303713D02*
X281654D01*
Y294713*
X261654*
Y303713*
X270669Y300713D02*
Y297713D01*
X272638Y300787D02*
Y297638D01*
X439803Y303713D02*
X459803D01*
Y294713*
X439803*
Y303713*
X448819Y300713D02*
Y297713D01*
X450787Y300787D02*
Y297638D01*
X260606Y256363D02*
Y235763D01*
X251206*
Y256363*
X260606*
Y258263*
X251206*
Y256363*
X260606*
Y256863D02*
X251206D01*
X260606Y281954D02*
Y261354D01*
X251206*
Y281954*
X260606*
Y283854*
X251206*
Y281954*
X260606*
Y282454D02*
X251206D01*
X237426Y237731D02*
Y258331D01*
X246826*
Y237731*
X237426*
Y235831*
X246826*
Y237731*
X237426*
Y237231D02*
X246826D01*
X496826Y256363D02*
Y235763D01*
X487426*
Y256363*
X496826*
Y258263*
X487426*
Y256363*
X496826*
Y256863D02*
X487426D01*
X496826Y281954D02*
Y261354D01*
X487426*
Y281954*
X496826*
Y283854*
X487426*
Y281954*
X496826*
Y282454D02*
X487426D01*
X501206Y237731D02*
Y258331D01*
X510606*
Y237731*
X501206*
Y235831*
X510606*
Y237731*
X501206*
Y237231D02*
X510606D01*
X315354Y220472D02*
G03X315354I-4330J0D01*
G01X441339D02*
G03X441339I-4331J0D01*
G01X255806Y216961D02*
X258306Y219461D01*
X253306*
X255806Y216961*
X265748Y216142D02*
Y198819D01*
X236220*
Y216142*
X265748*
Y198819D02*
Y188583D01*
X261811Y184646*
X236220*
Y198819*
X501869Y216961D02*
X504369Y219461D01*
X499369*
X501869Y216961*
X511811Y216142D02*
Y198819D01*
X482283*
Y216142*
X511811*
Y198819D02*
Y188583D01*
X507874Y184646*
X482283*
Y198819*
X290776Y204567D02*
Y224567D01*
X299776*
Y204567*
X290776*
X295276Y213067D02*
Y216067D01*
X293776Y214567D02*
X296776D01*
X460067Y204567D02*
Y224567D01*
X469067*
Y204567*
X460067*
X464567Y213067D02*
Y216067D01*
X463067Y214567D02*
X466067D01*
X483425Y294713D02*
X463425D01*
Y303713*
X483425*
Y294713*
X474925Y299213D02*
X471925D01*
X473425Y297713D02*
Y300713D01*
X448256Y204567D02*
Y224567D01*
X457256*
Y204567*
X448256*
X451256Y213583D02*
X454256D01*
X451181Y215551D02*
X454331D01*
X278965Y204567D02*
Y224567D01*
X287965*
Y204567*
X278965*
X281965Y213583D02*
X284965D01*
X281890Y215551D02*
X285039D01*
X289213Y303713D02*
X309213D01*
Y294713*
X289213*
Y303713*
X297713Y299213D02*
X300713D01*
X299213Y300713D02*
Y297713D01*
X342913Y311024D02*
G03X342913I-4330J0D01*
G01X413780D02*
G03X413780I-4331J0D01*
G01X268110Y383858D02*
G03X268110I-4330J0D01*
G01X479724Y341535D02*
G03X479724I-4330J0D01*
G54D62*
G01X279957Y239124D02*
X279616Y238968D01*
X279616D02*
X279389Y238499D01*
X279276Y237718*
Y237249*
X279389Y236468*
X279616Y235999*
X279616D02*
X279957Y235843D01*
X280185*
X280526Y235999*
X280753Y236468*
X280866Y237249*
X280866D02*
Y237718D01*
X280866D02*
X280753Y238499D01*
X280526Y238968*
X280185Y239124*
X279957*
X310276Y238499D02*
X310503Y238655D01*
X310844Y239124*
Y235843*
X312548Y239124D02*
X312207Y238968D01*
X311980Y238499*
X311866Y237718*
X311866D02*
Y237249D01*
X311866D02*
X311980Y236468D01*
X312207Y235999*
X312548Y235843*
X312776*
X313116Y235999*
X313116D02*
X313344Y236468D01*
X313457Y237249*
Y237718*
X313344Y238499*
X313116Y238968*
X313116D02*
X312776Y239124D01*
X312548*
X437438D02*
X437097Y238968D01*
X436870Y238499*
X436756Y237718*
Y237249*
X436870Y236468*
X437097Y235999*
X437438Y235843*
X437665*
X438006Y235999*
X438233Y236468*
X438347Y237249*
Y237718*
X438233Y238499*
X438006Y238968*
X437665Y239124*
X437438*
X467756Y238499D02*
X467983Y238655D01*
X468324Y239124*
Y235843*
X470029Y239124D02*
X469688Y238968D01*
X469460Y238499*
X469347Y237718*
Y237249*
X469460Y236468*
X469688Y235999*
X470029Y235843*
X470256*
X470597Y235999*
X470824Y236468*
X470938Y237249*
Y237718*
X470824Y238499*
X470597Y238968*
X470256Y239124*
X470029*
G54D140*
X438261Y414616D02*
Y409449D01*
X437008Y414616D02*
X439513D01*
X442555D02*
X441124Y409449D01*
X442555Y414616D02*
X443987Y409449D01*
X441661Y411171D02*
X443450D01*
X445598Y414616D02*
Y409449D01*
Y414616D02*
X448103Y409449D01*
Y414616D02*
Y409449D01*
X449714Y414616D02*
Y409449D01*
Y414616D02*
X450966D01*
X451503Y414370*
X451861Y413878*
X452040Y413386*
X452219Y412648*
Y411417*
X452040Y410679*
X451861Y410187*
X451503Y409695*
X450966Y409449*
X449714*
X453830Y414616D02*
Y409449D01*
Y414616D02*
X456156D01*
X453830Y412156D02*
X455261D01*
X453830Y409449D02*
X456156D01*
X457767Y414616D02*
Y409449D01*
Y414616D02*
X459198Y409449D01*
X460630Y414616D02*
X459198Y409449D01*
X460630Y414616D02*
Y409449D01*
X462241Y411663D02*
X465462D01*
X469757Y413386D02*
X469578Y413878D01*
X469220Y414370*
X468862Y414616*
X468146*
X467788Y414370*
X467430Y413878*
X467251Y413386*
X467072Y412648*
Y411417*
X467251Y410679*
X467430Y410187*
X467788Y409695*
X468146Y409449*
X468862*
X469220Y409695*
X469578Y410187*
X469757Y410679*
X472441Y414616D02*
X472083Y414370D01*
X471725Y413878*
X471546Y413386*
X471367Y412648*
Y411417*
X471546Y410679*
X471725Y410187*
X472083Y409695*
X472441Y409449*
X473157*
X473515Y409695*
X473873Y410187*
X474052Y410679*
X474230Y411417*
Y412648*
X474052Y413386*
X473873Y413878*
X473515Y414370*
X473157Y414616*
X472441*
X475841D02*
Y410925D01*
X476020Y410187*
X476378Y409695*
X476915Y409449*
X477273*
X477810Y409695*
X478168Y410187*
X478168D02*
X478346Y410925D01*
Y414616*
X479957D02*
Y409449D01*
Y414616D02*
X481568D01*
X482105Y414370*
X482283Y414124*
X482462Y413632*
Y412894*
X482283Y412402*
X482105Y412156*
X481568Y411909*
X479957*
X484073Y414616D02*
Y409449D01*
X486220*
X487831Y414616D02*
Y409449D01*
Y414616D02*
X490157D01*
X487831Y412156D02*
X489263D01*
X487831Y409449D02*
X490157D01*
X491768Y414616D02*
Y409449D01*
Y414616D02*
X493379D01*
X493916Y414370*
X494094Y414124*
X494273Y413632*
Y413140*
X494094Y412648*
X493916Y412402*
X493379Y412156*
X491768*
X493021D02*
X494273Y409449D01*
X495884Y411663D02*
X499105D01*
X501790Y414616D02*
X501253Y414370D01*
X500895Y413632*
X500716Y412402*
Y411663*
X500895Y410433*
X501253Y409695*
X501790Y409449*
X502147*
X502684Y409695*
X503042Y410433*
X503221Y411663*
Y412402*
X503042Y413632*
X502684Y414370*
X502147Y414616*
X501790*
X505906D02*
X505369Y414370D01*
X505011Y413632*
X504832Y412402*
Y411663*
X505011Y410433*
X505369Y409695*
X505906Y409449*
X506263*
X506800Y409695*
X507158Y410433*
X507337Y411663*
Y412402*
X507158Y413632*
X506800Y414370*
X506263Y414616*
X505906*
X508948Y413632D02*
X509306Y413878D01*
X509843Y414616*
Y409449*
X473694Y403789D02*
X473336Y403297D01*
X472978Y402559*
X472620Y401575*
X472441Y400344*
Y399360*
X472620Y398130*
X472978Y397146*
X473336Y396407*
X473694Y395915*
X475483Y401575D02*
Y401821D01*
X475662Y402313*
X475841Y402559*
X476199Y402805*
X476915*
X477273Y402559*
X477452Y402313*
X477631Y401821*
Y401329*
X477452Y400837*
X477094Y400098*
X475304Y397638*
X477810*
X480494Y402805D02*
X479957Y402559D01*
X479599Y401821*
X479420Y400591*
Y399852*
X479599Y398622*
X479957Y397884*
X480494Y397638*
X480852*
X481389Y397884*
X481747Y398622*
X481926Y399852*
Y400591*
X481747Y401821*
X481389Y402559*
X480852Y402805*
X480494*
X483536Y401821D02*
X483894Y402067D01*
X484431Y402805*
Y397638*
X488368Y401083D02*
X488189Y400344D01*
X487831Y399852*
X487294Y399606*
X487115*
X486578Y399852*
X486220Y400344*
X486042Y401083*
Y401329*
X486220Y402067*
X486578Y402559*
X487115Y402805*
X487294*
X487831Y402559*
X488189Y402067*
X488368Y401083*
Y399852*
X488189Y398622*
X487831Y397884*
X487294Y397638*
X486936*
X486399Y397884*
X486220Y398376*
X490157Y398130D02*
X489979Y397884D01*
X490157Y397638*
X490336Y397884*
X490157Y398130*
X491947Y401821D02*
X492305Y402067D01*
X492842Y402805*
Y397638*
X494631Y401575D02*
Y401821D01*
X494810Y402313*
X494989Y402559*
X495347Y402805*
X496063*
X496421Y402559*
X496600Y402313*
X496779Y401821*
Y401329*
X496600Y400837*
X496242Y400098*
X494452Y397638*
X496958*
X498747Y398130D02*
X498568Y397884D01*
X498747Y397638*
X498926Y397884*
X498747Y398130*
X501611Y402805D02*
X501074Y402559D01*
X500716Y401821*
X500537Y400591*
Y399852*
X500716Y398622*
X501074Y397884*
X501611Y397638*
X501969*
X502505Y397884*
X502863Y398622*
X503042Y399852*
Y400591*
X502863Y401821*
X502505Y402559*
X501969Y402805*
X501611*
X506979Y401083D02*
X506800Y400344D01*
X506442Y399852*
X505906Y399606*
X505727*
X505190Y399852*
X504832Y400344*
X504653Y401083*
Y401329*
X504832Y402067*
X505190Y402559*
X505727Y402805*
X505906*
X506442Y402559*
X506800Y402067*
X506979Y401083*
Y399852*
X506800Y398622*
X506442Y397884*
X505906Y397638*
X505548*
X505011Y397884*
X504832Y398376*
X508590Y403789D02*
X508948Y403297D01*
X509306Y402559*
X509664Y401575*
X509843Y400344*
Y399360*
X509664Y398130*
X509306Y397146*
X508948Y396407*
X508590Y395915*
X235236Y233514D02*
Y228346D01*
Y233514D02*
X237563D01*
X235236Y231053D02*
X236668D01*
X240068Y231791D02*
X239710Y231545D01*
X239352Y231053*
X239173Y230315*
Y229823*
X239352Y229085*
X239710Y228593*
X240068Y228346*
X240605*
X240963Y228593*
X241321Y229085*
X241500Y229823*
Y230315*
X241321Y231053*
X240963Y231545*
X240605Y231791*
X240068*
X243110D02*
Y228346D01*
Y230315D02*
X243289Y231053D01*
X243647Y231545*
X244005Y231791*
X244542*
X246152D02*
X246868Y228346D01*
X247584Y231791D02*
X246868Y228346D01*
X247584Y231791D02*
X248300Y228346D01*
X249016Y231791D02*
X248300Y228346D01*
X252774Y231791D02*
Y228346D01*
Y231053D02*
X252416Y231545D01*
X252058Y231791*
X251521*
X251163Y231545*
X250805Y231053*
X250626Y230315*
Y229823*
X250805Y229085*
X251163Y228593*
X251521Y228346*
X252058*
X252416Y228593*
X252774Y229085*
X254384Y231791D02*
Y228346D01*
Y230315D02*
X254563Y231053D01*
X254921Y231545*
X255279Y231791*
X255816*
X259574Y233514D02*
Y228346D01*
Y231053D02*
X259216Y231545D01*
X258858Y231791*
X258321*
X257963Y231545*
X257606Y231053*
X257427Y230315*
Y229823*
X257606Y229085*
X257963Y228593*
X258321Y228346*
X258858*
X259216Y228593*
X259574Y229085*
X482283Y232530D02*
Y227362D01*
Y232530D02*
X483894D01*
X484431Y232283*
X484610Y232037*
X484789Y231545*
Y231053*
X484610Y230561*
X484431Y230315*
X483894Y230069*
X482283*
X483536D02*
X484789Y227362D01*
X486399Y229331D02*
X488547D01*
Y229823*
X488368Y230315*
X488189Y230561*
X487831Y230807*
X487294*
X486936Y230561*
X486578Y230069*
X486399Y229331*
Y228839*
X486578Y228100*
X486936Y227608*
X487294Y227362*
X487831*
X488189Y227608*
X488547Y228100*
X491589Y232530D02*
X491231D01*
X490873Y232283*
X490694Y231545*
Y227362*
X490157Y230807D02*
X491410D01*
X493200Y232530D02*
Y227362D01*
X494810Y229331D02*
X496958D01*
Y229823*
X496779Y230315*
X496600Y230561*
X496242Y230807*
X495705*
X495347Y230561*
X494989Y230069*
X494810Y229331*
Y228839*
X494989Y228100*
X495347Y227608*
X495705Y227362*
X496242*
X496600Y227608*
X496958Y228100*
X500716Y230069D02*
X500358Y230561D01*
X500000Y230807*
X499463*
X499105Y230561*
X498747Y230069*
X498568Y229331*
Y228839*
X498747Y228100*
X499105Y227608*
X499463Y227362*
X500000*
X500358Y227608*
X500716Y228100*
X502863Y232530D02*
Y228346D01*
X503042Y227608*
X503400Y227362*
X503758*
X502326Y230807D02*
X503579D01*
X505369Y229331D02*
X507516D01*
Y229823*
X507337Y230315*
X507158Y230561*
X506800Y230807*
X506263*
X505906Y230561*
X505548Y230069*
X505369Y229331*
Y228839*
X505548Y228100*
X505906Y227608*
X506263Y227362*
X506800*
X507158Y227608*
X507516Y228100*
X511274Y232530D02*
Y227362D01*
Y230069D02*
X510916Y230561D01*
X510558Y230807*
X510021*
X509664Y230561*
X509306Y230069*
X509127Y229331*
Y228839*
X509306Y228100*
X509664Y227608*
X510021Y227362*
X510558*
X510916Y227608*
X511274Y228100*
G54D151*
X292323Y289776D02*
X293253Y286417D01*
X294184Y289776D02*
X293253Y286417D01*
X295231Y289776D02*
Y286417D01*
Y289776D02*
X296278D01*
X296627Y289616*
X296743Y289456*
X296859Y289136*
Y288816*
X296743Y288497*
X296627Y288337*
X296278Y288177*
X295231*
X296045D02*
X296859Y286417D01*
X297906Y289136D02*
X298139Y289296D01*
X298488Y289776*
Y286417*
X449803Y289776D02*
X450734Y286417D01*
X451664Y289776D02*
X450734Y286417D01*
X452711Y289776D02*
Y286417D01*
Y289776D02*
X453758D01*
X454107Y289616*
X454223Y289456*
X454340Y289136*
Y288816*
X454223Y288497*
X454107Y288337*
X453758Y288177*
X452711*
X453525D02*
X454340Y286417D01*
X455503Y288976D02*
Y289136D01*
X455619Y289456*
X455736Y289616*
X455968Y289776*
X456433*
X456666Y289616*
X456782Y289456*
X456899Y289136*
Y288816*
X456782Y288497*
X456550Y288017*
X455387Y286417*
X457015*
X261811Y373300D02*
X262303Y373479D01*
X262795Y373837*
X263041Y374195*
Y374911*
X262795Y375268*
X262303Y375626*
X261811Y375805*
X261073Y375984*
X259843*
X259104Y375805*
X258612Y375626*
X258120Y375268*
X257874Y374911*
Y374195*
X258120Y373837*
X258612Y373479*
X259104Y373300*
X263041Y371689D02*
X257874D01*
X263041D02*
X257874Y369184D01*
X263041D02*
X257874D01*
X262057Y367573D02*
X262303Y367215D01*
X263041Y366679*
X257874*
X263041Y363994D02*
X262795Y364531D01*
X262057Y364889*
X260827Y365068*
X260089*
X258858Y364889*
X258120Y364531*
X257874Y363994*
Y363636*
X258120Y363099*
X258120D02*
X258858Y362742D01*
X260089Y362563*
X260827*
X262057Y362742*
X262795Y363099*
X262795D02*
X263041Y363636D01*
Y363994*
X262057Y360952D02*
X262303Y360594D01*
X263041Y360057*
X257874*
X485236Y334377D02*
X484744Y334198D01*
X484252Y333840*
X484006Y333482*
Y332767*
X484252Y332409*
X484744Y332051*
X485236Y331872*
X485974Y331693*
X487205*
X487943Y331872*
X488435Y332051*
X488927Y332409*
X489173Y332767*
Y333482*
X488927Y333840*
X488435Y334198*
X487943Y334377*
X484006Y335988D02*
X489173D01*
X484006D02*
X489173Y338493D01*
X484006D02*
X489173D01*
X484990Y340104D02*
X484744Y340462D01*
X484006Y340999*
X489173*
X484006Y343683D02*
X484252Y343146D01*
X484990Y342788*
X486220Y342609*
X486959*
X488189Y342788*
X488927Y343146*
X489173Y343683*
Y344041*
X488927Y344578*
X488189Y344936*
X486959Y345115*
X486220*
X484990Y344936*
X484252Y344578*
X484006Y344041*
Y343683*
X485236Y346904D02*
X484990D01*
X484498Y347083*
X484252Y347262*
X484006Y347620*
Y348336*
X484252Y348694*
X484498Y348873*
X484990Y349052*
X485482*
X485974Y348873*
X486713Y348515*
X489173Y346725*
Y349230*
X504675Y292323D02*
X509843D01*
X504675D02*
Y293933D01*
X504921Y294470*
X505167Y294649*
X505659Y294828*
X506152*
X506644Y294649*
X506890Y294470*
X507136Y293933*
Y292323*
Y293576D02*
X509843Y294828D01*
X504675Y296439D02*
X509843D01*
X504675D02*
Y298765D01*
X507136Y296439D02*
Y297870D01*
X510827Y300376D02*
Y304134D01*
X504675Y306281D02*
X504921Y305923D01*
X505413Y305565*
X505413D02*
X505906Y305387D01*
X506644Y305208*
X507874*
X508612Y305387*
X509104Y305565*
X509104D02*
X509596Y305923D01*
X509843Y306281*
Y306997*
X509596Y307355*
X509104Y307713*
X508612Y307892*
X507874Y308071*
X506644*
X505906Y307892*
X505413Y307713*
X504921Y307355*
X504675Y306997*
Y306281*
Y309681D02*
X508366D01*
X509104Y309860*
X509596Y310218*
X509843Y310755*
Y311113*
X509596Y311650*
X509104Y312008*
X508366Y312187*
X504675*
Y315050D02*
X509843D01*
X504675Y313797D02*
Y316303D01*
X243356Y315945D02*
X238189D01*
X243356D02*
Y314334D01*
X243110Y313797*
X242864Y313618*
X242372Y313440*
X241880*
X241388Y313618*
X241142Y313797*
X240896Y314334*
Y315945*
Y314692D02*
X238189Y313440D01*
X243356Y311829D02*
X238189D01*
X243356D02*
Y309503D01*
X240896Y311829D02*
Y310397D01*
X237205Y307892D02*
Y304134D01*
X243356Y303060D02*
X238189D01*
X243356Y301450D02*
X238189D01*
X243356D02*
X238189Y298944D01*
X243356D02*
X238189D01*
X328740Y275012D02*
Y271654D01*
Y275012D02*
X329787D01*
X330136Y274852*
X330252Y274692*
X330369Y274373*
Y274053*
X330252Y273733*
X330136Y273573*
X329787Y273413*
X328740*
X329554D02*
X330369Y271654D01*
X331416Y274373D02*
X331648Y274532D01*
X331997Y275012*
Y271654*
X380906Y275012D02*
Y271654D01*
Y275012D02*
X381952D01*
X382301Y274852*
X382418Y274692*
X382534Y274373*
Y274053*
X382418Y273733*
X382301Y273573*
X381952Y273413*
X380906*
X381720D02*
X382534Y271654D01*
X383697Y274213D02*
Y274373D01*
X383814Y274692*
X383930Y274852*
X384162Y275012*
X384628*
X384860Y274852*
X384977Y274692*
X385093Y274373*
Y274053*
X384977Y273733*
X384744Y273253*
X383581Y271654*
X385209*
X263556Y307677D02*
X263440Y307997D01*
X263207Y308317*
X262974Y308477*
X262509*
X262276Y308317*
X262044Y307997*
X261927Y307677*
X261811Y307197*
Y306398*
X261927Y305918*
X262044Y305598*
X262276Y305278*
X262509Y305118*
X262974*
X263207Y305278*
X263440Y305598*
X263556Y305918*
X264603Y307837D02*
X264835Y307997D01*
X265184Y308477*
Y305118*
X441705Y307677D02*
X441589Y307997D01*
X441356Y308317*
X441124Y308477*
X440659*
X440426Y308317*
X440193Y307997*
X440077Y307677*
X439961Y307197*
Y306398*
X440077Y305918*
X440193Y305598*
X440426Y305278*
X440659Y305118*
X441124*
X441356Y305278*
X441589Y305598*
X441705Y305918*
X442869Y307677D02*
Y307837D01*
X442985Y308157*
X443101Y308317*
X443334Y308477*
X443799*
X444032Y308317*
X444148Y308157*
X444264Y307837*
Y307517*
X444148Y307197*
X443916Y306718*
X442752Y305118*
X444381*
X265170Y256890D02*
X261811D01*
X265170D02*
Y256076D01*
X265010Y255727*
X264690Y255494*
X264370Y255378*
X263890Y255261*
X263091*
X262611Y255378*
X262291Y255494*
X261971Y255727*
X261811Y256076*
Y256890*
X265170Y253982D02*
Y252702D01*
X263890Y253400*
Y253051*
X263730Y252819*
X263570Y252702*
X263091Y252586*
X262771*
X262291Y252702*
X261971Y252935*
X261811Y253284*
Y253633*
X261971Y253982*
X262131Y254098*
X262451Y254214*
X265170Y283465D02*
X261811D01*
X265170D02*
Y282650D01*
X265010Y282301*
X264690Y282069*
X264370Y281952*
X263890Y281836*
X263091*
X262611Y281952*
X262291Y282069*
X261971Y282301*
X261811Y282650*
Y283465*
X265170Y279626D02*
X262931Y280789D01*
Y279044*
X265170Y279626D02*
X261811D01*
X240157Y268123D02*
Y264764D01*
Y268123D02*
X240972D01*
X241321Y267963*
X241553Y267643*
X241670Y267323*
X241786Y266843*
Y266043*
X241670Y265563*
X241553Y265244*
X241321Y264924*
X240972Y264764*
X240157*
X244345Y268123D02*
X243182D01*
X243065Y266683*
X243065D02*
X243182Y266843D01*
X243531Y267003*
X243880*
X244229Y266843*
X244461Y266523*
X244578Y266043*
X244461Y265723*
X244345Y265244*
X244112Y264924*
X243763Y264764*
X243414*
X243065Y264924*
X243065D02*
X242949Y265084D01*
X242833Y265404*
X481877Y252953D02*
X485236D01*
X481877D02*
Y253767D01*
X482037Y254116*
X482357Y254349*
X482677Y254465*
X483157Y254581*
X483957*
X484437Y254465*
X484756Y254349*
X485076Y254116*
X485236Y253767*
Y252953*
X482357Y257024D02*
X482037Y256908D01*
X481877Y256559*
Y256326*
X482037Y255977*
X482517Y255744*
X483317Y255628*
X484117*
X484756Y255744*
X485076Y255977*
X485236Y256326*
Y256442*
X485076Y256791*
X484756Y257024*
X484277Y257140*
X484117*
X483637Y257024*
X483317Y256791*
X483157Y256442*
Y256326*
X483317Y255977*
X483637Y255744*
X484117Y255628*
X481877Y278543D02*
X485236D01*
X481877D02*
Y279358D01*
X482037Y279707*
X482357Y279939*
X482677Y280055*
X483157Y280172*
X483957*
X484437Y280055*
X484756Y279939*
X485076Y279707*
X485236Y279358*
Y278543*
X481877Y282847D02*
X485236Y281684D01*
X481877Y281219D02*
Y282847D01*
X502953Y268123D02*
Y264764D01*
Y268123D02*
X503767D01*
X504116Y267963*
X504349Y267643*
X504465Y267323*
X504581Y266843*
Y266043*
X504465Y265563*
X504349Y265244*
X504116Y264924*
X503767Y264764*
X502953*
X506210Y268123D02*
X505861Y267963D01*
X505744Y267643*
Y267323*
X505861Y267003*
X506093Y266843*
X506559Y266683*
X506908Y266523*
X507140Y266203*
X507257Y265883*
Y265404*
X507140Y265084*
X507024Y264924*
X506675Y264764*
X506210*
X505861Y264924*
X505744Y265084*
X505628Y265404*
Y265883*
X505744Y266203*
X505977Y266523*
X506326Y266683*
X506791Y266843*
X507024Y267003*
X507140Y267323*
Y267643*
X507024Y267963*
X506675Y268123*
X506210*
X290354Y326193D02*
Y322835D01*
Y326193D02*
X291169D01*
X291518Y326033*
X291750Y325714*
X291866Y325394*
X291866D02*
X291983Y324914D01*
Y324114*
X291866Y323634*
X291866D02*
X291750Y323314D01*
X291518Y322995*
X291169Y322835*
X290354*
X293030Y325554D02*
X293262Y325714D01*
X293611Y326193*
Y322835*
X453740Y326193D02*
Y322835D01*
Y326193D02*
X454554D01*
X454903Y326033*
X455136Y325714*
X455252Y325394*
X455369Y324914*
Y324114*
X455252Y323634*
X455136Y323314*
X454903Y322995*
X454554Y322835*
X453740*
X456532Y325394D02*
Y325554D01*
X456648Y325874*
X456764Y326033*
X456997Y326193*
X457462*
X457695Y326033*
X457811Y325874*
X457928Y325554*
Y325234*
X457811Y324914*
X457579Y324434*
X456416Y322835*
X458044*
X284717Y427411D02*
Y422244D01*
X283465Y427411D02*
X285970D01*
X287581Y426427D02*
X287938Y426673D01*
X288475Y427411*
Y422244*
X357552Y390010D02*
Y384843D01*
X356299Y390010D02*
X358805D01*
X360594Y388780D02*
Y389026D01*
X360773Y389518*
X360952Y389764*
X361310Y390010*
X362026*
X362384Y389764*
X362563Y389518*
X362742Y389026*
Y388533*
X362563Y388041*
X362205Y387303*
X360415Y384843*
X362921*
X306024Y231331D02*
Y227972D01*
Y231331D02*
X307536D01*
X306024Y229732D02*
X306954D01*
X308583Y231331D02*
X309164Y227972D01*
X309746Y231331D02*
X309164Y227972D01*
X309746Y231331D02*
X310327Y227972D01*
X310909Y231331D02*
X310327Y227972D01*
X312654Y231331D02*
X312421Y231171D01*
X312189Y230851*
X312072Y230531*
X311956Y230052*
Y229252*
X312072Y228772*
X312189Y228452*
X312421Y228132*
X312654Y227972*
X313119*
X313352Y228132*
X313584Y228452*
X313701Y228772*
X313817Y229252*
Y230052*
X313701Y230531*
X313584Y230851*
X313352Y231171*
X313119Y231331*
X312654*
X432008D02*
Y227972D01*
Y231331D02*
X433055D01*
X433404Y231171*
X433520Y231011*
X433636Y230691*
Y230372*
X433520Y230052*
X433404Y229892*
X433055Y229732*
X432008*
X432822D02*
X433636Y227972D01*
X434683Y231331D02*
X435614Y227972D01*
X436544Y231331D02*
X435614Y227972D01*
X438289Y231331D02*
X438057Y231171D01*
X437824Y230851*
X437708Y230531*
X437591Y230052*
Y229252*
X437708Y228772*
X437824Y228452*
X438057Y228132*
X438289Y227972*
X438754*
X438987Y228132*
X439220Y228452*
X439336Y228772*
X439452Y229252*
Y230052*
X439336Y230531*
X439220Y230851*
X438987Y231171*
X438754Y231331*
X438289*
X238905Y224409D02*
X238726Y224902D01*
X238368Y225394*
X238010Y225640*
X237294*
X236936Y225394*
X236578Y224902*
X236399Y224409*
X236220Y223671*
Y222441*
X236399Y221703*
X236578Y221211*
X236936Y220719*
X237294Y220472*
X238010*
X238368Y220719*
X238726Y221211*
X238905Y221703*
X240515Y225640D02*
Y220472D01*
Y225640D02*
X243021Y220472D01*
Y225640D02*
Y220472D01*
X244631Y224656D02*
X244989Y224902D01*
X245526Y225640*
Y220472*
X248210Y225640D02*
X247674Y225394D01*
X247316Y224656*
X247137Y223425*
Y222687*
X247316Y221457*
X247674Y220719*
X248210Y220472*
X248568*
X249105Y220719*
X249463Y221457*
X249642Y222687*
Y223425*
X249463Y224656*
X249105Y225394*
X248568Y225640*
X248210*
X251611D02*
X253579D01*
X252505Y223671*
X253042*
X253400Y223425*
X253579Y223179*
X253758Y222441*
Y221949*
X253579Y221211*
X253221Y220719*
X252684Y220472*
X252147*
X251611Y220719*
X251432Y220965*
X251253Y221457*
X484968Y224409D02*
X484789Y224902D01*
X484431Y225394*
X484073Y225640*
X483357*
X482999Y225394*
X482641Y224902*
X482462Y224409*
X482283Y223671*
Y222441*
X482462Y221703*
X482641Y221211*
X482999Y220719*
X483357Y220472*
X484073*
X484431Y220719*
X484789Y221211*
X484968Y221703*
X486578Y225640D02*
Y220472D01*
Y225640D02*
X489084Y220472D01*
Y225640D02*
Y220472D01*
X490694Y224656D02*
X491052Y224902D01*
X491589Y225640*
Y220472*
X494273Y225640D02*
X493737Y225394D01*
X493379Y224656*
X493200Y223425*
Y222687*
X493379Y221457*
X493737Y220719*
X494273Y220472*
X494631*
X495168Y220719*
X495526Y221457*
X495705Y222687*
Y223425*
X495526Y224656*
X495168Y225394*
X494631Y225640*
X494273*
X499105D02*
X497316Y222195D01*
X500000*
X499105Y225640D02*
Y220472D01*
X291339Y229737D02*
Y226378D01*
Y229737D02*
X292385D01*
X292734Y229577*
X292851Y229417*
X292967Y229097*
Y228777*
X292851Y228457*
X292734Y228297*
X292385Y228137*
X291339*
X292153D02*
X292967Y226378D01*
X294247Y229737D02*
X295526D01*
X294828Y228457*
X295177*
X295410Y228297*
X295526Y228137*
X295642Y227657*
Y227338*
X295526Y226858*
X295293Y226538*
X294945Y226378*
X294596*
X294247Y226538*
X294130Y226698*
X294014Y227018*
X462598Y229737D02*
Y226378D01*
Y229737D02*
X463645D01*
X463994Y229577*
X464111Y229417*
X464227Y229097*
Y228777*
X464111Y228457*
X463994Y228297*
X463645Y228137*
X462598*
X463413D02*
X464227Y226378D01*
X466786Y229737D02*
X465623D01*
X465506Y228297*
X465623Y228457*
X465972Y228617*
X466321*
X466670Y228457*
X466902Y228137*
X467019Y227657*
X466902Y227338*
X466786Y226858*
X466553Y226538*
X466204Y226378*
X465855*
X465506Y226538*
X465390Y226698*
X465274Y227018*
X463583Y308477D02*
Y305118D01*
Y308477D02*
X464630D01*
X464979Y308317*
X465095Y308157*
X465211Y307837*
Y307517*
X465095Y307197*
X464979Y307037*
X464630Y306877*
X463583*
X464397D02*
X465211Y305118D01*
X466840Y308477D02*
X466491Y308317D01*
X466374Y307997*
Y307677*
X466491Y307357*
X466723Y307197*
X467189Y307037*
X467538Y306877*
X467770Y306558*
X467887Y306238*
Y305758*
X467770Y305438*
X467654Y305278*
X467305Y305118*
X466840*
X466491Y305278*
X466374Y305438*
X466258Y305758*
Y306238*
X466374Y306558*
X466607Y306877*
X466956Y307037*
X467421Y307197*
X467654Y307357*
X467770Y307677*
Y307997*
X467654Y308317*
X467305Y308477*
X466840*
X451548Y228937D02*
X451432Y229257D01*
X451199Y229577*
X450966Y229737*
X450501*
X450268Y229577*
X450036Y229257*
X449919Y228937*
X449803Y228457*
Y227657*
X449919Y227178*
X450036Y226858*
X450268Y226538*
X450501Y226378*
X450966*
X451199Y226538*
X451432Y226858*
X451548Y227178*
X452827Y229737D02*
X454107D01*
X453409Y228457*
X453758*
X453991Y228297*
X454107Y228137*
X454223Y227657*
Y227338*
X454107Y226858*
X453874Y226538*
X453525Y226378*
X453176*
X452827Y226538*
X452711Y226698*
X452595Y227018*
X281272Y228937D02*
X281156Y229257D01*
X280923Y229577*
X280691Y229737*
X280225*
X279993Y229577*
X279760Y229257*
X279644Y228937*
X279528Y228457*
Y227657*
X279644Y227178*
X279760Y226858*
X279993Y226538*
X280225Y226378*
X280691*
X280923Y226538*
X281156Y226858*
X281272Y227178*
X283482Y229737D02*
X282319Y227498D01*
X284064*
X283482Y229737D02*
Y226378D01*
X289370Y308477D02*
Y305118D01*
Y308477D02*
X290417D01*
X290766Y308317*
X290882Y308157*
X290999Y307837*
Y307517*
X290882Y307197*
X290766Y307037*
X290417Y306877*
X289370*
X290184D02*
X290999Y305118D01*
X293674Y308477D02*
X292511Y305118D01*
X292045Y308477D02*
X293674D01*
X364173Y275012D02*
Y271654D01*
Y275012D02*
X365220D01*
X365569Y274852*
X365685Y274692*
X365802Y274373*
Y274053*
X365685Y273733*
X365569Y273573*
X365220Y273413*
X364173*
X364987D02*
X365802Y271654D01*
X368012Y275012D02*
X366849Y272773D01*
X368593*
X368012Y275012D02*
Y271654D01*
X415354Y275012D02*
Y271654D01*
Y275012D02*
X416401D01*
X416750Y274852*
X416866Y274692*
X416983Y274373*
Y274053*
X416866Y273733*
X416750Y273573*
X416401Y273413*
X415354*
X416169D02*
X416983Y271654D01*
X419426Y274532D02*
X419309Y274852D01*
X418960Y275012*
X418728*
X418379Y274852*
X418146Y274373*
X418030Y273573*
Y272773*
X418146Y272133*
X418379Y271813*
X418728Y271654*
X418844*
X419193Y271813*
X419426Y272133*
X419542Y272613*
Y272773*
X419426Y273253*
X419193Y273573*
X418844Y273733*
X418728*
X418379Y273573*
X418146Y273253*
X418030Y272773*
X333583Y321882D02*
Y318524D01*
Y321882D02*
X335095D01*
X333583Y320283D02*
X334513D01*
X336142Y321882D02*
X336723Y318524D01*
X337305Y321882D02*
X336723Y318524D01*
X337305Y321882D02*
X337887Y318524D01*
X338468Y321882D02*
X337887Y318524D01*
X339515Y321882D02*
Y318524D01*
X340562Y321882D02*
Y318524D01*
Y321882D02*
X342190Y318524D01*
Y321882D02*
Y318524D01*
X410433Y321272D02*
Y317913D01*
Y321272D02*
X411480D01*
X411829Y321112*
X411945Y320952*
X412062Y320632*
Y320313*
X412062D02*
X411945Y319993D01*
X411829Y319833*
X411480Y319673*
X410433*
X411247D02*
X412062Y317913D01*
X413108Y321272D02*
X414039Y317913D01*
X414970Y321272D02*
X414039Y317913D01*
X416016Y321272D02*
Y317913D01*
X417063Y321272D02*
Y317913D01*
Y321272D02*
X418692Y317913D01*
Y321272D02*
Y317913D01*
X258780Y394717D02*
Y391358D01*
Y394717D02*
X259826D01*
X260175Y394557*
X260292Y394397*
X260408Y394077*
Y393757*
X260292Y393438*
X260292D02*
X260175Y393278D01*
X259826Y393118*
X258780*
X259594D02*
X260408Y391358D01*
X261455Y394717D02*
Y391358D01*
Y394717D02*
X262967D01*
X261455Y393118D02*
X262385D01*
X264014Y394717D02*
Y391358D01*
X265061Y394717D02*
Y391358D01*
Y394717D02*
X266689Y391358D01*
Y394717D02*
Y391358D01*
X470394Y352394D02*
Y349035D01*
Y352394D02*
X471441D01*
X471790Y352234*
X471906Y352074*
X472022Y351754*
Y351435*
X471906Y351115*
X471790Y350955*
X471441Y350795*
X470394*
X471208D02*
X472022Y349035D01*
X473069Y352394D02*
Y349035D01*
Y352394D02*
X474581D01*
X473069Y350795D02*
X474000D01*
X476326Y352394D02*
X476093Y352234D01*
X475861Y351914*
X475744Y351594*
X475628Y351115*
Y350315*
X475744Y349835*
X475861Y349515*
X476093Y349195*
X476326Y349035*
X476791*
X477024Y349195*
X477257Y349515*
X477373Y349835*
X477489Y350315*
Y351115*
X477373Y351594*
X477257Y351914*
X477024Y352234*
X476791Y352394*
X476326*
G54D152*
G74*
X0Y0D02*
M02*
