*
*
G04 PADS 9.5 Build Number: 522968 generated Gerber (RS-274-X) file*
G04 PC Version=2.1*
*
%IN "RF-GEN_CPU_V1.0_PCB_201"*%
*
%MOIN*%
*
%FSLAX35Y35*%
*
*
*
*
G04 PC Standard Apertures*
*
*
G04 Thermal Relief Aperture macro.*
%AMTER*
1,1,$1,0,0*
1,0,$1-$2,0,0*
21,0,$3,$4,0,0,45*
21,0,$3,$4,0,0,135*
%
*
*
G04 Annular Aperture macro.*
%AMANN*
1,1,$1,0,0*
1,0,$2,0,0*
%
*
*
G04 Odd Aperture macro.*
%AMODD*
1,1,$1,0,0*
1,0,$1-0.005,0,0*
%
*
*
G04 PC Custom Aperture Macros*
*
*
*
*
*
*
G04 PC Aperture Table*
*
%ADD011C,0.01*%
%ADD013C,0.006*%
%ADD022C,0.00984*%
%ADD034C,0.04*%
%ADD038C,0.00004*%
%ADD039R,0.05906X0.05906*%
%ADD040C,0.06*%
%ADD047R,0.06X0.06*%
%ADD057C,0.06299*%
%ADD064C,0.11024*%
%ADD068R,0.11811X0.11811*%
%ADD069C,0.11811*%
%ADD070C,0.07087*%
%ADD071R,0.05512X0.05512*%
%ADD072C,0.05512*%
%ADD074C,0.12598*%
%ADD078C,0.02953*%
%ADD079C,0.04724*%
*
*
*
*
G04 PC Circuitry*
G04 Layer Name RF-GEN_CPU_V1.0_PCB_201 - circuitry*
%LPD*%
*
*
G04 PC Custom Flashes*
G04 Layer Name RF-GEN_CPU_V1.0_PCB_201 - flashes*
%LPD*%
*
*
G04 PC Circuitry*
G04 Layer Name RF-GEN_CPU_V1.0_PCB_201 - circuitry*
%LPD*%
*
G54D11*
G01X456001Y94742D02*
Y94992D01*
X456183Y95492*
X456365Y95742*
X456729Y95992*
X457456*
X457820Y95742*
X458001Y95492*
X458183Y94992*
Y94492*
X458001Y93992*
X457638Y93242*
X455820Y90742*
X458365*
X461092Y95992D02*
X460547Y95742D01*
X460183Y94992*
X460001Y93742*
Y92992*
X460183Y91742*
X460547Y90992*
X461092Y90742*
X461456*
X462001Y90992*
X462365Y91742*
X462547Y92992*
Y93742*
X462365Y94992*
X462001Y95742*
X461456Y95992*
X461092*
X464183Y94992D02*
X464547Y95242D01*
X465092Y95992*
Y90742*
X469092Y94242D02*
X468910Y93492D01*
X468547Y92992*
X468001Y92742*
X467820*
X467274Y92992*
X466910Y93492*
X466729Y94242*
Y94492*
X466910Y95242*
X467274Y95742*
X467820Y95992*
X468001*
X468547Y95742*
X468910Y95242*
X469092Y94242*
Y92992*
X468910Y91742*
X468547Y90992*
X468001Y90742*
X467638*
X467092Y90992*
X466910Y91492*
X470910Y91242D02*
X470729Y90992D01*
X470910Y90742*
X471092Y90992*
X470910Y91242*
X472729Y94992D02*
X473092Y95242D01*
X473638Y95992*
Y90742*
X475274Y94992D02*
X475638Y95242D01*
X476183Y95992*
Y90742*
X478001Y91242D02*
X477820Y90992D01*
X478001Y90742*
X478183Y90992*
X478001Y91242*
X479820Y94992D02*
X480183Y95242D01*
X480729Y95992*
Y90742*
X484910Y95992D02*
X483092Y90742D01*
X482365Y95992D02*
X484910D01*
X439595Y135410D02*
Y130160D01*
Y135410D02*
X441232D01*
X441777Y135160*
X441959Y134910*
X442141Y134410*
Y133910*
X441959Y133410*
X441777Y133160*
X441232Y132910*
X439595*
X440868D02*
X442141Y130160D01*
X443777Y135410D02*
Y130160D01*
Y135410D02*
X446141D01*
X443777Y132910D02*
X445232D01*
X447777Y132410D02*
X451050D01*
X455413Y134160D02*
X455232Y134660D01*
X454868Y135160*
X454504Y135410*
X453777*
X453413Y135160*
X453050Y134660*
X452868Y134160*
X452686Y133410*
Y132160*
X452868Y131410*
X453050Y130910*
X453413Y130410*
X453777Y130160*
X454504*
X454868Y130410*
X455232Y130910*
X455413Y131410*
Y132160*
X454504D02*
X455413D01*
X457050Y135410D02*
Y130160D01*
Y135410D02*
X459413D01*
X457050Y132910D02*
X458504D01*
X457050Y130160D02*
X459413D01*
X461050Y135410D02*
Y130160D01*
Y135410D02*
X463595Y130160D01*
Y135410D02*
Y130160D01*
X465232Y132410D02*
X468504D01*
X472868Y134160D02*
X472686Y134660D01*
X472322Y135160*
X471959Y135410*
X471232*
X470868Y135160*
X470504Y134660*
X470322Y134160*
X470141Y133410*
Y132160*
X470322Y131410*
X470504Y130910*
X470868Y130410*
X471232Y130160*
X471959*
X472322Y130410*
X472686Y130910*
X472868Y131410*
X474504Y135410D02*
Y130160D01*
Y135410D02*
X476141D01*
X476686Y135160*
X476868Y134910*
X477050Y134410*
Y133660*
X476868Y133160*
X476686Y132910*
X476141Y132660*
X474504*
X478686Y135410D02*
Y131660D01*
X478868Y130910*
X479232Y130410*
X479777Y130160*
X480141*
X480686Y130410*
X481050Y130910*
X481232Y131660*
Y135410*
X482868Y132410D02*
X486141D01*
X488868Y135410D02*
X488322Y135160D01*
X487959Y134410*
X487777Y133160*
Y132410*
X487959Y131160*
X488322Y130410*
X488868Y130160*
X489232*
X489777Y130410*
X490141Y131160*
X490322Y132410*
Y133160*
X490141Y134410*
X489777Y135160*
X489232Y135410*
X488868*
X493050D02*
X492504Y135160D01*
X492141Y134410*
X491959Y133160*
Y132410*
X492141Y131160*
X492504Y130410*
X493050Y130160*
X493413*
X493959Y130410*
X494322Y131160*
X494504Y132410*
Y133160*
X494322Y134410*
X493959Y135160*
X493413Y135410*
X493050*
X496141Y134410D02*
X496504Y134660D01*
X497050Y135410*
Y130160*
X544717Y97079D02*
X545081Y97329D01*
X545626Y98079*
Y92829*
X548354Y98079D02*
X547808Y97829D01*
X547444Y97079*
X547263Y95829*
Y95079*
X547444Y93829*
X547808Y93079*
X548354Y92829*
X548717*
X549263Y93079*
X549626Y93829*
X549808Y95079*
Y95829*
X549626Y97079*
X549263Y97829*
X548717Y98079*
X548354*
X552535D02*
X551990Y97829D01*
X551626Y97079*
X551444Y95829*
Y95079*
X551626Y93829*
X551990Y93079*
X552535Y92829*
X552899*
X553444Y93079*
X553808Y93829*
X553990Y95079*
Y95829*
X553808Y97079*
X553444Y97829*
X552899Y98079*
X552535*
X559808D02*
X562354Y92829D01*
Y98079D02*
X559808Y92829D01*
X568172Y97079D02*
X568535Y97329D01*
X569081Y98079*
Y92829*
X573081Y96329D02*
X572899Y95579D01*
X572535Y95079*
X571990Y94829*
X571808*
X571263Y95079*
X570899Y95579*
X570717Y96329*
Y96579*
X570899Y97329*
X571263Y97829*
X571808Y98079*
X571990*
X572535Y97829*
X572899Y97329*
X573081Y96329*
Y95079*
X572899Y93829*
X572535Y93079*
X571990Y92829*
X571626*
X571081Y93079*
X570899Y93579*
X575808Y98079D02*
X575263Y97829D01*
X574899Y97079*
X574717Y95829*
Y95079*
X574899Y93829*
X575263Y93079*
X575808Y92829*
X576172*
X576717Y93079*
X577081Y93829*
X577263Y95079*
Y95829*
X577081Y97079*
X576717Y97829*
X576172Y98079*
X575808*
X403368Y83722D02*
X401095Y79347D01*
X404504*
X403368Y83722D02*
Y77160D01*
X406550Y83722D02*
Y77160D01*
X409277*
X414050Y81535D02*
Y77160D01*
Y80597D02*
X413595Y81222D01*
X413141Y81535*
X412459*
X412004Y81222*
X411550Y80597*
X411322Y79660*
Y79035*
X411550Y78097*
X412004Y77472*
X412459Y77160*
X413141*
X413595Y77472*
X414050Y78097*
X416322Y81535D02*
X417686Y77160D01*
X419050Y81535D02*
X417686Y77160D01*
X417232Y75910*
X416777Y75285*
X416322Y74972*
X416095*
X421095Y79660D02*
X423822D01*
Y80285*
X423595Y80910*
X423368Y81222*
X422913Y81535*
X422232*
X421777Y81222*
X421322Y80597*
X421095Y79660*
Y79035*
X421322Y78097*
X421777Y77472*
X422232Y77160*
X422913*
X423368Y77472*
X423822Y78097*
X425868Y81535D02*
Y77160D01*
Y79660D02*
X426095Y80597D01*
X426550Y81222*
X427004Y81535*
X427686*
X430186Y77472D02*
X429959Y77160D01*
X429732Y77472*
X429959Y77785*
X430186Y77472*
Y76847*
X429959Y76222*
X429732Y75910*
X442686Y83722D02*
Y77160D01*
Y83722D02*
X445641D01*
X442686Y80597D02*
X444504D01*
X447686Y83722D02*
Y77160D01*
Y83722D02*
X449732D01*
X450413Y83410*
X450641Y83097*
X450868Y82472*
Y81847*
X450641Y81222*
X450413Y80910*
X449732Y80597*
X447686*
X449277D02*
X450868Y77160D01*
X455186Y83722D02*
X452913Y79347D01*
X456322*
X455186Y83722D02*
Y77160D01*
X458822Y77472D02*
X458595Y77160D01*
X458368Y77472*
X458595Y77785*
X458822Y77472*
Y76847*
X458595Y76222*
X458368Y75910*
X472913Y83722D02*
Y77160D01*
X471322Y83722D02*
X474504D01*
X476777Y81535D02*
X476550Y81222D01*
X476777Y80910*
X477004Y81222*
X476777Y81535*
Y77785D02*
X476550Y77472D01*
X476777Y77160*
X477004Y77472*
X476777Y77785*
X479050Y82472D02*
X479504Y82785D01*
X480186Y83722*
Y77160*
X482459Y77785D02*
X482232Y77472D01*
X482459Y77160*
X482686Y77472*
X482459Y77785*
X487459Y82785D02*
X487232Y83410D01*
X486550Y83722*
X486095*
X485413Y83410*
X484959Y82472*
X484732Y80910*
Y79347*
X484959Y78097*
X485413Y77472*
X486095Y77160*
X486322*
X487004Y77472*
X487459Y78097*
X487686Y79035*
Y79347*
X487459Y80285*
X487004Y80910*
X486322Y81222*
X486095*
X485413Y80910*
X484959Y80285*
X484732Y79347*
X490186Y77472D02*
X489959Y77160D01*
X489732Y77472*
X489959Y77785*
X490186Y77472*
Y76847*
X489959Y76222*
X489732Y75910*
X502686Y82472D02*
X503141Y82785D01*
X503822Y83722*
Y77160*
X507232Y83722D02*
X506777Y83410D01*
X506322Y82785*
X506095Y82160*
X505868Y81222*
Y79660*
X506095Y78722*
X506322Y78097*
X506777Y77472*
X507232Y77160*
X508141*
X508595Y77472*
X509050Y78097*
X509277Y78722*
X509504Y79660*
Y81222*
X509277Y82160*
X509050Y82785*
X508595Y83410*
X508141Y83722*
X507232*
X514050Y81535D02*
X511550Y77160D01*
Y81535D02*
X514050D01*
X511550Y77160D02*
X514050D01*
X516550Y77472D02*
X516322Y77160D01*
X516095Y77472*
X516322Y77785*
X516550Y77472*
Y76847*
X516322Y76222*
X516095Y75910*
X529050Y83722D02*
Y77160D01*
Y83722D02*
X531095D01*
X531777Y83410*
X532004Y83097*
X532232Y82472*
Y81535*
X532004Y80910*
X531777Y80597*
X531095Y80285*
X529050*
X537459Y82785D02*
X537004Y83410D01*
X536322Y83722*
X535413*
X534732Y83410*
X534277Y82785*
Y82160*
X534504Y81535*
X534732Y81222*
X535186Y80910*
X536550Y80285*
X537004Y79972*
X537232Y79660*
X537459Y79035*
Y78097*
X537004Y77472*
X536322Y77160*
X535413*
X534732Y77472*
X534277Y78097*
X539504Y83722D02*
Y77160D01*
Y83722D02*
X541550D01*
X542232Y83410*
X542459Y83097*
X542686Y82472*
Y81847*
X542459Y81222*
X542232Y80910*
X541550Y80597*
X539504*
X541095D02*
X542686Y77160D01*
X544959Y81535D02*
X544732Y81222D01*
X544959Y80910*
X545186Y81222*
X544959Y81535*
Y77785D02*
X544732Y77472D01*
X544959Y77160*
X545186Y77472*
X544959Y77785*
X550641Y82160D02*
X550413Y82785D01*
X549959Y83410*
X549504Y83722*
X548595*
X548141Y83410*
X547686Y82785*
X547459Y82160*
X547232Y81222*
Y79660*
X547459Y78722*
X547686Y78097*
X548141Y77472*
X548595Y77160*
X549504*
X549959Y77472*
X550413Y78097*
X550641Y78722*
Y79660*
X549504D02*
X550641D01*
X552686Y81535D02*
Y77160D01*
Y79660D02*
X552913Y80597D01*
X553368Y81222*
X553822Y81535*
X554504*
X556550Y79660D02*
X559277D01*
Y80285*
X559050Y80910*
X558822Y81222*
X558368Y81535*
X557686*
X557232Y81222*
X556777Y80597*
X556550Y79660*
Y79035*
X556777Y78097*
X557232Y77472*
X557686Y77160*
X558368*
X558822Y77472*
X559277Y78097*
X561322Y79660D02*
X564050D01*
Y80285*
X563822Y80910*
X563595Y81222*
X563141Y81535*
X562459*
X562004Y81222*
X561550Y80597*
X561322Y79660*
Y79035*
X561550Y78097*
X562004Y77472*
X562459Y77160*
X563141*
X563595Y77472*
X564050Y78097*
X566095Y81535D02*
Y77160D01*
Y80285D02*
X566777Y81222D01*
X567232Y81535*
X567913*
X568368Y81222*
X568595Y80285*
Y77160*
X633595Y97410D02*
Y92160D01*
Y97410D02*
X635232D01*
X635777Y97160*
X635959Y96910*
X636141Y96410*
Y95910*
X635959Y95410*
X635777Y95160*
X635232Y94910*
X633595*
X634868D02*
X636141Y92160D01*
X637777Y97410D02*
Y92160D01*
Y97410D02*
X640141D01*
X637777Y94910D02*
X639232D01*
X637777Y92160D02*
X640141D01*
X641777Y97410D02*
X643232Y92160D01*
X644686Y97410D02*
X643232Y92160D01*
X646504Y95660D02*
X646322Y95410D01*
X646504Y95160*
X646686Y95410*
X646504Y95660*
Y92660D02*
X646322Y92410D01*
X646504Y92160*
X646686Y92410*
X646504Y92660*
X648322Y96410D02*
X648686Y96660D01*
X649232Y97410*
Y92160*
X651050Y92660D02*
X650868Y92410D01*
X651050Y92160*
X651232Y92410*
X651050Y92660*
X653959Y97410D02*
X653413Y97160D01*
X653050Y96410*
X652868Y95160*
Y94410*
X653050Y93160*
X653413Y92410*
X653959Y92160*
X654322*
X654868Y92410*
X655232Y93160*
X655413Y94410*
Y95160*
X655232Y96410*
X654868Y97160*
X654322Y97410*
X653959*
X442217Y115579D02*
Y110329D01*
X444035Y110829D02*
X443854Y110579D01*
X444035Y110329*
X444217Y110579*
X444035Y110829*
X448581Y114329D02*
X448399Y114829D01*
X448035Y115329*
X447672Y115579*
X446944*
X446581Y115329*
X446217Y114829*
X446035Y114329*
X445854Y113579*
Y112329*
X446035Y111579*
X446217Y111079*
X446581Y110579*
X446944Y110329*
X447672*
X448035Y110579*
X448399Y111079*
X448581Y111579*
Y112329*
X447672D02*
X448581D01*
X450399Y110829D02*
X450217Y110579D01*
X450399Y110329*
X450581Y110579*
X450399Y110829*
X454035Y115579D02*
Y111579D01*
X453854Y110829*
X453672Y110579*
X453308Y110329*
X452944*
X452581Y110579*
X452399Y110829*
X452217Y111579*
Y112079*
X456763Y115579D02*
X456399Y115329D01*
X456035Y114829*
X455854Y114329*
X455672Y113579*
Y112329*
X455854Y111579*
X456035Y111079*
X456399Y110579*
X456763Y110329*
X457490*
X457854Y110579*
X458217Y111079*
X458399Y111579*
X458581Y112329*
Y113579*
X458399Y114329*
X458217Y114829*
X457854Y115329*
X457490Y115579*
X456763*
X460217D02*
Y111829D01*
X460399Y111079*
X460763Y110579*
X461308Y110329*
X461672*
X462217Y110579*
X462581Y111079*
X462763Y111829*
Y115579*
X464399D02*
Y110329D01*
Y115579D02*
X466944Y110329D01*
Y115579D02*
Y110329D01*
X471308Y114329D02*
X471126Y114829D01*
X470763Y115329*
X470399Y115579*
X469672*
X469308Y115329*
X468944Y114829*
X468763Y114329*
X468581Y113579*
Y112329*
X468763Y111579*
X468944Y111079*
X469308Y110579*
X469672Y110329*
X470399*
X470763Y110579*
X471126Y111079*
X471308Y111579*
Y112329*
X470399D02*
X471308D01*
G54D13*
X118110Y240157D02*
X122047Y236220D01*
X389764*
X393701Y232283*
Y200787*
X397638Y196850*
X862205*
X866142Y200787*
Y586614*
X862205Y590551*
X122047*
X118110Y586614*
Y240157*
X350394Y452756D02*
G75*
G03X350394I-94488J0D01*
G01X393595Y102160D02*
X673595D01*
X393595Y87160D02*
X673595D01*
X623595Y102160D02*
Y87160D01*
X393595Y72160D02*
X673595D01*
X393595Y142160D02*
X673595D01*
Y57160*
X393595*
Y142160*
X508595D02*
Y87160D01*
X393595Y122160D02*
X508595D01*
X521141Y96660D02*
X520777Y97160D01*
X520232Y97410*
X519504*
X518959Y97160*
X518595Y96660*
Y96160*
X518777Y95660*
X518959Y95410*
X519322Y95160*
X520413Y94660*
X520777Y94410*
X520959Y94160*
X521141Y93660*
Y92910*
X520777Y92410*
X520232Y92160*
X519504*
X518959Y92410*
X518595Y92910*
X522777Y97410D02*
Y92160D01*
X526959Y97410D02*
X524413Y92160D01*
Y97410D02*
X526959D01*
X524413Y92160D02*
X526959D01*
X528595Y97410D02*
Y92160D01*
Y97410D02*
X530959D01*
X528595Y94910D02*
X530050D01*
X528595Y92160D02*
X530959D01*
X532777Y95660D02*
X532595Y95410D01*
X532777Y95160*
X532959Y95410*
X532777Y95660*
Y92660D02*
X532595Y92410D01*
X532777Y92160*
X532959Y92410*
X532777Y92660*
X401095Y67410D02*
Y62160D01*
X403277*
X406368Y67410D02*
X404913Y62160D01*
X406368Y67410D02*
X407822Y62160D01*
X405459Y63910D02*
X407277D01*
X409459Y67410D02*
X410913Y64910D01*
Y62160*
X412368Y67410D02*
X410913Y64910D01*
X414004Y67410D02*
Y62160D01*
Y67410D02*
X416368D01*
X414004Y64910D02*
X415459D01*
X414004Y62160D02*
X416368D01*
X418004Y67410D02*
Y62160D01*
Y67410D02*
X419641D01*
X420186Y67160*
X420368Y66910*
X420550Y66410*
Y65910*
X420368Y65410*
X420186Y65160*
X419641Y64910*
X418004*
X419277D02*
X420550Y62160D01*
X422368Y65660D02*
X422186Y65410D01*
X422368Y65160*
X422550Y65410*
X422368Y65660*
Y62660D02*
X422186Y62410D01*
X422368Y62160*
X422550Y62410*
X422368Y62660*
X400820Y115992D02*
Y110742D01*
Y115992D02*
X402092D01*
X402638Y115742*
X403001Y115242*
X403183Y114742*
X403365Y113992*
Y112742*
X403183Y111992*
X403001Y111492*
X402638Y110992*
X402092Y110742*
X400820*
X405001Y115992D02*
Y110742D01*
Y115992D02*
X407365D01*
X405001Y113492D02*
X406456D01*
X405001Y110742D02*
X407365D01*
X411547Y115242D02*
X411183Y115742D01*
X410638Y115992*
X409910*
X409365Y115742*
X409001Y115242*
Y114742*
X409183Y114242*
X409365Y113992*
X409729Y113742*
X410820Y113242*
X411183Y112992*
X411365Y112742*
X411547Y112242*
Y111492*
X411183Y110992*
X410638Y110742*
X409910*
X409365Y110992*
X409001Y111492*
X413183Y115992D02*
Y110742D01*
X417547Y114742D02*
X417365Y115242D01*
X417001Y115742*
X416638Y115992*
X415910*
X415547Y115742*
X415183Y115242*
X415001Y114742*
X414820Y113992*
Y112742*
X415001Y111992*
X415183Y111492*
X415547Y110992*
X415910Y110742*
X416638*
X417001Y110992*
X417365Y111492*
X417547Y111992*
Y112742*
X416638D02*
X417547D01*
X419183Y115992D02*
Y110742D01*
Y115992D02*
X421729Y110742D01*
Y115992D02*
Y110742D01*
X423365Y115992D02*
Y110742D01*
Y115992D02*
X425729D01*
X423365Y113492D02*
X424820D01*
X423365Y110742D02*
X425729D01*
X427365Y115992D02*
Y110742D01*
Y115992D02*
X429001D01*
X429547Y115742*
X429729Y115492*
X429910Y114992*
Y114492*
X429729Y113992*
X429547Y113742*
X429001Y113492*
X427365*
X428638D02*
X429910Y110742D01*
X431729Y114242D02*
X431547Y113992D01*
X431729Y113742*
X431910Y113992*
X431729Y114242*
Y111242D02*
X431547Y110992D01*
X431729Y110742*
X431910Y110992*
X431729Y111242*
X402638Y135992D02*
Y131992D01*
X402456Y131242*
X402274Y130992*
X401910Y130742*
X401547*
X401183Y130992*
X401001Y131242*
X400820Y131992*
Y132492*
X405365Y135992D02*
X405001Y135742D01*
X404638Y135242*
X404456Y134742*
X404274Y133992*
Y132742*
X404456Y131992*
X404638Y131492*
X405001Y130992*
X405365Y130742*
X406092*
X406456Y130992*
X406820Y131492*
X407001Y131992*
X407183Y132742*
Y133992*
X407001Y134742*
X406820Y135242*
X406456Y135742*
X406092Y135992*
X405365*
X408820D02*
Y130742D01*
Y135992D02*
X410456D01*
X411001Y135742*
X411183Y135492*
X411365Y134992*
Y134492*
X411183Y133992*
X411001Y133742*
X410456Y133492*
X408820D02*
X410456D01*
X411001Y133242*
X411183Y132992*
X411365Y132492*
Y131742*
X411183Y131242*
X411001Y130992*
X410456Y130742*
X408820*
X417183Y135992D02*
Y130742D01*
Y135992D02*
X419729Y130742D01*
Y135992D02*
Y130742D01*
X422820Y135992D02*
X421365Y130742D01*
X422820Y135992D02*
X424274Y130742D01*
X421910Y132492D02*
X423729D01*
X425910Y135992D02*
Y130742D01*
Y135992D02*
X427365Y130742D01*
X428820Y135992D02*
X427365Y130742D01*
X428820Y135992D02*
Y130742D01*
X430456Y135992D02*
Y130742D01*
Y135992D02*
X432820D01*
X430456Y133492D02*
X431910D01*
X430456Y130742D02*
X432820D01*
X434638Y134242D02*
X434456Y133992D01*
X434638Y133742*
X434820Y133992*
X434638Y134242*
Y131242D02*
X434456Y130992D01*
X434638Y130742*
X434820Y130992*
X434638Y131242*
X402274Y95992D02*
X400820Y90742D01*
X402274Y95992D02*
X403729Y90742D01*
X401365Y92492D02*
X403183D01*
X405365Y95992D02*
Y90742D01*
Y95992D02*
X407001D01*
X407547Y95742*
X407729Y95492*
X407910Y94992*
Y94492*
X407729Y93992*
X407547Y93742*
X407001Y93492*
X405365*
X406638D02*
X407910Y90742D01*
X410820Y95992D02*
Y90742D01*
X409547Y95992D02*
X412092D01*
X413729D02*
X414638Y90742D01*
X415547Y95992D02*
X414638Y90742D01*
X415547Y95992D02*
X416456Y90742D01*
X417365Y95992D02*
X416456Y90742D01*
X420092Y95992D02*
X419729Y95742D01*
X419365Y95242*
X419183Y94742*
X419001Y93992*
Y92742*
X419183Y91992*
X419365Y91492*
X419729Y90992*
X420092Y90742*
X420820*
X421183Y90992*
X421547Y91492*
X421729Y91992*
X421910Y92742*
Y93992*
X421729Y94742*
X421547Y95242*
X421183Y95742*
X420820Y95992*
X420092*
X423547D02*
Y90742D01*
Y95992D02*
X425183D01*
X425729Y95742*
X425910Y95492*
X426092Y94992*
Y94492*
X425910Y93992*
X425729Y93742*
X425183Y93492*
X423547*
X424820D02*
X426092Y90742D01*
X429001Y95992D02*
Y90742D01*
X427729Y95992D02*
X430274D01*
X436092D02*
Y90742D01*
Y95992D02*
X437729D01*
X438274Y95742*
X438456Y95492*
X438638Y94992*
Y94242*
X438456Y93742*
X438274Y93492*
X437729Y93242*
X436092*
X440274Y95992D02*
Y90742D01*
X442456*
X445183Y95992D02*
X444820Y95742D01*
X444456Y95242*
X444274Y94742*
X444092Y93992*
Y92742*
X444274Y91992*
X444456Y91492*
X444820Y90992*
X445183Y90742*
X445910*
X446274Y90992*
X446638Y91492*
X446820Y91992*
X447001Y92742*
Y93992*
X446820Y94742*
X446638Y95242*
X446274Y95742*
X445910Y95992*
X445183*
X449910D02*
Y90742D01*
X448638Y95992D02*
X451183D01*
X453001Y94242D02*
X452820Y93992D01*
X453001Y93742*
X453183Y93992*
X453001Y94242*
Y91242D02*
X452820Y90992D01*
X453001Y90742*
X453183Y90992*
X453001Y91242*
X427075Y68390D02*
Y63140D01*
Y68390D02*
X428712D01*
X429257Y68140*
X429439Y67890*
X429621Y67390*
Y66890*
X429439Y66390*
X429257Y66140*
X428712Y65890*
X427075D02*
X428712D01*
X429257Y65640*
X429439Y65390*
X429621Y64890*
Y64140*
X429439Y63640*
X429257Y63390*
X428712Y63140*
X427075*
X432166Y66640D02*
X431803Y66390D01*
X431439Y65890*
X431257Y65140*
Y64640*
X431439Y63890*
X431803Y63390*
X432166Y63140*
X432712*
X433075Y63390*
X433439Y63890*
X433621Y64640*
Y65140*
X433439Y65890*
X433075Y66390*
X432712Y66640*
X432166*
X435803Y68390D02*
Y64140D01*
X435985Y63390*
X436348Y63140*
X436712*
X435257Y66640D02*
X436530D01*
X438894Y68390D02*
Y64140D01*
X439075Y63390*
X439439Y63140*
X439803*
X438348Y66640D02*
X439621D01*
X442348D02*
X441985Y66390D01*
X441621Y65890*
X441439Y65140*
Y64640*
X441621Y63890*
X441985Y63390*
X442348Y63140*
X442894*
X443257Y63390*
X443621Y63890*
X443803Y64640*
Y65140*
X443621Y65890*
X443257Y66390*
X442894Y66640*
X442348*
X445439D02*
Y63140D01*
Y65640D02*
X445985Y66390D01*
X446348Y66640*
X446894*
X447257Y66390*
X447439Y65640*
Y63140*
Y65640D02*
X447985Y66390D01*
X448348Y66640*
X448894*
X449257Y66390*
X449439Y65640*
Y63140*
X457803Y67640D02*
X457439Y68140D01*
X456894Y68390*
X456166*
X455621Y68140*
X455257Y67640*
Y67140*
X455439Y66640*
X455621Y66390*
X455985Y66140*
X457075Y65640*
X457439Y65390*
X457621Y65140*
X457803Y64640*
Y63890*
X457439Y63390*
X456894Y63140*
X456166*
X455621Y63390*
X455257Y63890*
X459439Y68390D02*
X459621Y68140D01*
X459803Y68390*
X459621Y68640*
X459439Y68390*
X459621Y66640D02*
Y63140D01*
X463621Y68390D02*
Y63140D01*
Y65890D02*
X463257Y66390D01*
X462894Y66640*
X462348*
X461985Y66390*
X461621Y65890*
X461439Y65140*
Y64640*
X461621Y63890*
X461985Y63390*
X462348Y63140*
X462894*
X463257Y63390*
X463621Y63890*
X465257Y65140D02*
X467439D01*
Y65640*
X467257Y66140*
X467075Y66390*
X466712Y66640*
X466166*
X465803Y66390*
X465439Y65890*
X465257Y65140*
Y64640*
X465439Y63890*
X465803Y63390*
X466166Y63140*
X466712*
X467075Y63390*
X467439Y63890*
G54D22*
X861909Y216535D02*
G03X861909I-15452J0D01*
G01X853346Y462598D02*
G03X853346I-2952J0D01*
G01X827461Y216535D02*
G03X827461I-4626J0D01*
G01X841535Y462598D02*
G03X841535I-2952J0D01*
G01X861909Y570866D02*
G03X861909I-15452J0D01*
G01X813976Y462598D02*
G03X813976I-2952J0D01*
G01Y486220D02*
G03X813976I-2952J0D01*
G01X810039Y534449D02*
G03X810039I-2952J0D01*
G01X784449Y336614D02*
G03X784449I-2953J0D01*
G01X790354Y534449D02*
G03X790354I-2952J0D01*
G01X782480Y518701D02*
G03X782480I-2952J0D01*
G01X768701Y311024D02*
G03X768701I-2953J0D01*
G01X757874Y339567D02*
G03X757874I-2953J0D01*
G01X760827Y471457D02*
G03X760827I-2953J0D01*
G01X747047Y259843D02*
G03X747047I-2953J0D01*
G01X743110Y534449D02*
G03X743110I-2953J0D01*
G01X686811Y254331D02*
G03X686811I-2953J0D01*
G01X671260Y311024D02*
G03X671260I-2953J0D01*
G01X674213Y334646D02*
G03X674213I-2953J0D01*
G01X676181Y401575D02*
G03X676181I-2953J0D01*
G01X682087Y479331D02*
G03X682087I-2953J0D01*
G01X678150Y485236D02*
G03X678150I-2953J0D01*
G01X682087Y504921D02*
G03X682087I-2953J0D01*
G01X678150Y522047D02*
G03X678150I-2953J0D01*
G01X668307Y449803D02*
G03X668307I-2953J0D01*
G01X665158Y460039D02*
G03X665158I-2953J0D01*
G01X666339Y550197D02*
G03X666339I-2953J0D01*
G01X673917Y574803D02*
G03X673917I-4626J0D01*
G01X648622Y432087D02*
G03X648622I-2953J0D01*
G01X651378Y490157D02*
G03X651378I-2953J0D01*
G01X656496Y550197D02*
G03X656496I-2953J0D01*
G01X634843Y531496D02*
G03X634843I-2953J0D01*
G01X614370Y252362D02*
G03X614370I-2953J0D01*
G01X612205Y279528D02*
G03X612205I-2953J0D01*
G01X615158Y303150D02*
G03X615158I-2953J0D01*
G01X619095Y449803D02*
G03X619095I-2953J0D01*
G01X624409Y460039D02*
G03X624409I-2952J0D01*
G01X617913Y483071D02*
G03X617913I-2952J0D01*
G01X623032Y531496D02*
G03X623032I-2953J0D01*
G01X614567Y489173D02*
G03X614567I-2953J0D01*
G01X616535Y501772D02*
G03X616535I-2952J0D01*
G01X600984Y299213D02*
G03X600984I-2953J0D01*
G01X604331Y444882D02*
G03X604331I-2953J0D01*
G01Y454724D02*
G03X604331I-2953J0D01*
G01Y464567D02*
G03X604331I-2953J0D01*
G01Y474409D02*
G03X604331I-2953J0D01*
G01X607283Y489173D02*
G03X607283I-2952J0D01*
G01X613189Y531496D02*
G03X613189I-2953J0D01*
G01X595866Y321654D02*
G03X595866I-2953J0D01*
G01X597441Y423228D02*
G03X597441I-2953J0D01*
G01X603346Y531496D02*
G03X603346I-2952J0D01*
G01X583661Y298228D02*
G03X583661I-2952J0D01*
G01X588780Y365354D02*
G03X588780I-2953J0D01*
G01X593504Y551181D02*
G03X593504I-2953J0D01*
G01X585827Y444882D02*
G03X585827I-2953J0D01*
G01X586220Y454724D02*
G03X586220I-2952J0D01*
G01X585827Y464567D02*
G03X585827I-2953J0D01*
G01X586614Y513780D02*
G03X586614I-2953J0D01*
G01X578150Y303150D02*
G03X578150I-2953J0D01*
G01X575787Y334646D02*
G03X575787I-2952J0D01*
G01Y430118D02*
G03X575787I-2952J0D01*
G01X576772Y472441D02*
G03X576772I-2953J0D01*
G01X556102Y284449D02*
G03X556102I-2952J0D01*
G01X562008Y298228D02*
G03X562008I-2953J0D01*
G01X559055Y484252D02*
G03X559055I-2953J0D01*
G01Y494094D02*
G03X559055I-2953J0D01*
G01Y503937D02*
G03X559055I-2953J0D01*
G01X550197Y462598D02*
G03X550197I-2953J0D01*
G01X547047Y515748D02*
G03X547047I-2953J0D01*
G01X555807Y535433D02*
G03X555807I-4626J0D01*
G01X540354Y298228D02*
G03X540354I-2952J0D01*
G01X532480Y284449D02*
G03X532480I-2952J0D01*
G01X536417Y321850D02*
G03X536417I-2952J0D01*
G01Y365157D02*
G03X536417I-2952J0D01*
G01X514764Y259843D02*
G03X514764I-2953J0D01*
G01X504921Y313976D02*
G03X504921I-2952J0D01*
G01X498720Y230315D02*
G03X498720I-4626J0D01*
G01X502658Y329724D02*
G03X502658I-4627J0D01*
G01Y341535D02*
G03X502658I-4627J0D01*
G01X491142Y384843D02*
G03X491142I-2953J0D01*
G01X481299Y367126D02*
G03X481299I-2953J0D01*
G01X494095Y437992D02*
G03X494095I-2953J0D01*
G01X497047Y462598D02*
G03X497047I-2953J0D01*
G01X491142Y476378D02*
G03X491142I-2953J0D01*
G01X495079Y527559D02*
G03X495079I-2953J0D01*
G01X470472Y367126D02*
G03X470472I-2952J0D01*
G01X474311Y394685D02*
G03X474311I-3839J0D01*
G01X466535Y516732D02*
G03X466535I-2952J0D01*
G01X454724Y391732D02*
G03X454724I-2952J0D01*
G01X456102Y431102D02*
G03X456102I-2952J0D01*
G01X454724Y438976D02*
G03X454724I-2952J0D01*
G01Y483268D02*
G03X454724I-2952J0D01*
G01X459646Y497047D02*
G03X459646I-2953J0D01*
G01X447539Y284449D02*
G03X447539I-4626J0D01*
G01Y336614D02*
G03X447539I-4626J0D01*
G01Y348425D02*
G03X447539I-4626J0D01*
G01X428839Y216535D02*
G03X428839I-15453J0D01*
G01X414075Y283465D02*
G03X414075I-4626J0D01*
G01Y350394D02*
G03X414075I-4626J0D01*
G01X411319Y391732D02*
G03X411319I-3839J0D01*
G01X428839Y570866D02*
G03X428839I-15453J0D01*
G01X153248Y255906D02*
G03X153248I-15453J0D01*
G01Y570866D02*
G03X153248I-15453J0D01*
G01X628937Y256890D02*
G03X628937I-2953J0D01*
G01Y301181D02*
G03X628937I-2953J0D01*
G01X625000Y334646D02*
G03X625000I-2953J0D01*
G01Y385827D02*
G03X625000I-2953J0D01*
G01X628937Y449803D02*
G03X628937I-2953J0D01*
G01X639764Y309055D02*
G03X639764I-2953J0D01*
G01X640748Y325787D02*
G03X640748I-2953J0D01*
G01X681496Y314961D02*
G03X681496I-2953J0D01*
G01X709646Y271654D02*
G03X709646I-2953J0D01*
G01X733268Y534449D02*
G03X733268I-2953J0D01*
G01X788558Y226378D02*
G03X788558I-6988J0D01*
G01X794291Y311024D02*
G03X794291I-2952J0D01*
G01X796260Y429134D02*
G03X796260I-2953J0D01*
G01X794291Y462598D02*
G03X794291I-2952J0D01*
G01Y482283D02*
G03X794291I-2952J0D01*
G01X804158Y226378D02*
G03X804158I-6988J0D01*
G01X864468Y201684D02*
Y585717D01*
G03X864324Y586065I-492J0*
G01X861656Y588734*
G03X861308Y588878I-348J-348*
G01X122944*
G03X122596Y588734I0J-492*
G01X119928Y586065*
G03X119783Y585717I348J-348*
G01Y241054*
G03X119928Y240706I493J0*
G01X122596Y238038*
G03X122944Y237894I348J348*
G01X389764*
X390947Y237404D02*
G03X389764Y237894I-1183J-1184D01*
G01X390947Y237404D02*
X394884Y233467D01*
X395374Y232283D02*
G03X394884Y233467I-1673J0D01*
G01X395374Y232283D02*
Y201684D01*
G03X395518Y201336I492J0*
G01X398187Y198668*
G03X398535Y198524I348J348*
G01X587598*
G03X588091Y199016I0J492*
G01Y213842*
G03X587862Y214258I-493J0*
G01X587177Y215504D02*
G03X587862Y214258I1477J-0D01*
G01X587177Y215504D02*
Y221504D01*
X587862Y222750D02*
G03X587177Y221504I792J-1246D01*
G01X587862Y222750D02*
G03X588091Y223166I-264J416D01*
G01Y223842*
G03X587862Y224258I-493J0*
G01X587177Y225504D02*
G03X587862Y224258I1477J-0D01*
G01X587177Y225504D02*
Y231504D01*
X587862Y232750D02*
G03X587177Y231504I792J-1246D01*
G01X587862Y232750D02*
G03X588091Y233166I-264J416D01*
G01Y246063*
X588583Y246555D02*
G03X588091Y246063I-0J-492D01*
G01X588583Y246555D02*
X700787D01*
X701280Y246063D02*
G03X700787Y246555I-493J-0D01*
G01X701280Y246063D02*
Y228754D01*
G03X701329Y228540I492J0*
G01Y224216D02*
G03Y228540I-4479J2162D01*
G01Y224216D02*
G03X701280Y224002I443J-214D01*
G01Y199016*
G03X701772Y198524I492J-0*
G01X861308*
G03X861656Y198668I-0J492*
G01X864324Y201336*
G03X864468Y201684I-348J348*
G01X861909Y216535D02*
G03X861909I-15452J0D01*
G01X847073Y252456D02*
G03X845841I-616J4434D01*
G01X847073D02*
G03X847141Y251476I68J-487D01*
G01X849409*
X850886Y250000D02*
G03X849409Y251476I-1477J0D01*
G01X850886Y250000D02*
Y244094D01*
X849409Y242618D02*
G03X850886Y244094I0J1476D01*
G01X849409Y242618D02*
X843504D01*
X842028Y244094D02*
G03X843504Y242618I1476J0D01*
G01X842028Y244094D02*
Y250000D01*
X843504Y251476D02*
G03X842028Y250000I-0J-1476D01*
G01X843504Y251476D02*
X845773D01*
G03X845841Y252456I-0J493*
G01X847073Y293795D02*
G03X845841I-616J4433D01*
G01X847073D02*
G03X847141Y292815I68J-488D01*
G01X849409*
X850886Y291339D02*
G03X849409Y292815I-1477J-0D01*
G01X850886Y291339D02*
Y285433D01*
X849409Y283957D02*
G03X850886Y285433I0J1476D01*
G01X849409Y283957D02*
X843504D01*
X842028Y285433D02*
G03X843504Y283957I1476J0D01*
G01X842028Y285433D02*
Y291339D01*
X843504Y292815D02*
G03X842028Y291339I-0J-1476D01*
G01X843504Y292815D02*
X845773D01*
G03X845841Y293795I-0J492*
G01X853346Y462598D02*
G03X853346I-2952J0D01*
G01X847073Y528047D02*
G03X845841I-616J4433D01*
G01X847073D02*
G03X847141Y527067I68J-488D01*
G01X849409*
X850886Y525591D02*
G03X849409Y527067I-1477J-0D01*
G01X850886Y525591D02*
Y519685D01*
X849409Y518209D02*
G03X850886Y519685I0J1476D01*
G01X849409Y518209D02*
X843504D01*
X842028Y519685D02*
G03X843504Y518209I1476J0D01*
G01X842028Y519685D02*
Y525591D01*
X843504Y527067D02*
G03X842028Y525591I-0J-1476D01*
G01X843504Y527067D02*
X845773D01*
G03X845841Y528047I-0J492*
G01X827461Y216535D02*
G03X827461I-4626J0D01*
G01X828114Y336514D02*
G03X822734Y341893I-2327J3053D01*
G01X828114Y336514D02*
G03Y335731I298J-392D01*
G01Y329624D02*
G03Y335731I-2327J3053D01*
G01Y329624D02*
G03Y328841I298J-392D01*
G01X827387Y322298D02*
G03X828114Y328841I-1600J3489D01*
G01X827387Y322298D02*
G03Y321403I205J-448D01*
G01X824188D02*
G03X827387I1599J-3490D01*
G01X824188D02*
G03Y322298I-205J447D01*
G01X823461Y328841D02*
G03X824188Y322298I2326J-3054D01*
G01X823461Y328841D02*
G03Y329624I-298J391D01*
G01X822734Y330351D02*
G03X823461Y329624I3053J2326D01*
G01X822734Y330351D02*
G03X821951I-391J-298D01*
G01X815733Y330505D02*
G03X821951Y330351I3165J2172D01*
G01X815733Y330505D02*
G03X814838Y330281I-406J-279D01*
G01X814188Y332881D02*
G03X814838Y330281I-3164J-2172D01*
G01X814188Y332881D02*
G03X815083Y333105I406J279D01*
G01X816571Y335731D02*
G03X815083Y333105I2327J-3054D01*
G01X816571Y335731D02*
G03Y336514I-298J391D01*
G01X815844Y337241D02*
G03X816571Y336514I3054J2326D01*
G01X815844Y337241D02*
G03X815061I-391J-299D01*
G01X808954D02*
G03X815061I3054J2326D01*
G01X808954D02*
G03X808172I-391J-299D01*
G01Y341893D02*
G03Y337241I-3054J-2326D01*
G01Y341893D02*
G03X808954I391J298D01*
G01X815061D02*
G03X808954I-3053J-2326D01*
G01X815061D02*
G03X815844I392J298D01*
G01X821951D02*
G03X815844I-3053J-2326D01*
G01X821951D02*
G03X822734I392J298D01*
G01X829188Y421629D02*
G03Y424828I3489J1599D01*
G01Y421629D02*
G03X828293I-448J-205D01*
G01X821314D02*
G03X828293I3489J1599D01*
G01X821314D02*
G03X820419I-448J-205D01*
G01X813440D02*
G03X820419I3489J1599D01*
G01X813440D02*
G03X812545I-448J-205D01*
G01X805565D02*
G03X812545I3490J1599D01*
G01X805565D02*
G03X804671I-447J-205D01*
G01Y424828D02*
G03Y421629I-3490J-1600D01*
G01Y424828D02*
G03X805565I447J205D01*
G01X812545D02*
G03X805565I-3490J-1600D01*
G01X812545D02*
G03X813440I447J205D01*
G01X820419D02*
G03X813440I-3490J-1600D01*
G01X820419D02*
G03X821314I447J205D01*
G01X828293D02*
G03X821314I-3490J-1600D01*
G01X828293D02*
G03X829188I447J205D01*
G01X841535Y462598D02*
G03X841535I-2952J0D01*
G01X861909Y570866D02*
G03X861909I-15452J0D01*
G01X813976Y462598D02*
G03X813976I-2952J0D01*
G01Y486220D02*
G03X813976I-2952J0D01*
G01X810039Y534449D02*
G03X810039I-2952J0D01*
G01X810532Y573819D02*
Y567913D01*
X809055Y566437D02*
G03X810532Y567913I0J1476D01*
G01X809055Y566437D02*
X803150D01*
X801673Y567913D02*
G03X803150Y566437I1477J0D01*
G01X801673Y567913D02*
Y570182D01*
G03X800694Y570250I-492J0*
G01Y571482D02*
G03Y570250I-4434J-616D01*
G01Y571482D02*
G03X801673Y571550I487J68D01*
G01Y573819*
X803150Y575295D02*
G03X801673Y573819I-0J-1476D01*
G01X803150Y575295D02*
X809055D01*
X810532Y573819D02*
G03X809055Y575295I-1477J-0D01*
G01X784449Y336614D02*
G03X784449I-2953J0D01*
G01X790354Y534449D02*
G03X790354I-2952J0D01*
G01X782480Y518701D02*
G03X782480I-2952J0D01*
G01X768701Y311024D02*
G03X768701I-2953J0D01*
G01X757874Y339567D02*
G03X757874I-2953J0D01*
G01X758321Y427535D02*
G03Y430733I3490J1599D01*
G01Y427535D02*
G03X757427I-447J-205D01*
G01Y430733D02*
G03Y427535I-3490J-1599D01*
G01Y430733D02*
G03X758321I447J205D01*
G01X760827Y471457D02*
G03X760827I-2953J0D01*
G01X747047Y259843D02*
G03X747047I-2953J0D01*
G01X743110Y534449D02*
G03X743110I-2953J0D01*
G01X744587Y573819D02*
Y567913D01*
X743110Y566437D02*
G03X744587Y567913I0J1476D01*
G01X743110Y566437D02*
X737205D01*
X735728Y567913D02*
G03X737205Y566437I1477J0D01*
G01X735728Y567913D02*
Y570182D01*
G03X734749Y570250I-492J0*
G01X725881D02*
G03X734749I4434J616D01*
G01X725881D02*
G03X724906I-487J-68D01*
G01Y571482D02*
G03Y570250I-4434J-616D01*
G01Y571482D02*
G03X725881I488J68D01*
G01X734749D02*
G03X725881I-4434J-616D01*
G01X734749D02*
G03X735728Y571550I487J68D01*
G01Y573819*
X737205Y575295D02*
G03X735728Y573819I-0J-1476D01*
G01X737205Y575295D02*
X743110D01*
X744587Y573819D02*
G03X743110Y575295I-1477J-0D01*
G01X686811Y254331D02*
G03X686811I-2953J0D01*
G01X692534Y312342D02*
G03X691043Y314205I1364J2619D01*
G01X692534Y312342D02*
G03X691831Y311779I-227J-437D01*
G01X690340Y313643D02*
G03X691831Y311779I-1364J-2619D01*
G01X690340Y313643D02*
G03X691043Y314205I227J436D01*
G01X683479Y468814D02*
G03X686262Y470669I2741J-1097D01*
G01X683479Y468814D02*
G03X683029Y469488I-457J182D01*
G01X685812Y471344D02*
G03X683029Y469488I-2741J1097D01*
G01X685812Y471344D02*
G03X686262Y470669I457J-183D01*
G01X693135Y513788D02*
G03X689992Y516302I-222J2944D01*
G01X693135Y513788D02*
G03X692685Y513225I37J-491D01*
G01X689542Y515740D02*
G03X692685Y513225I222J-2945D01*
G01X689542Y515740D02*
G03X689992Y516302I-37J490D01*
G01X703295Y541386D02*
Y535386D01*
X701819Y533909D02*
G03X703295Y535386I-0J1477D01*
G01X701819Y533909D02*
X695819D01*
X694342Y535386D02*
G03X695819Y533909I1477J-0D01*
G01X694342Y535386D02*
Y541386D01*
X695819Y542862D02*
G03X694342Y541386I-0J-1476D01*
G01X695819Y542862D02*
X701819D01*
X703295Y541386D02*
G03X701819Y542862I-1476J-0D01*
G01X703295Y551386D02*
Y545386D01*
X701819Y543909D02*
G03X703295Y545386I-0J1477D01*
G01X701819Y543909D02*
X695819D01*
X694342Y545386D02*
G03X695819Y543909I1477J-0D01*
G01X694342Y545386D02*
Y551386D01*
X695819Y552862D02*
G03X694342Y551386I-0J-1476D01*
G01X695819Y552862D02*
X701819D01*
X703295Y551386D02*
G03X701819Y552862I-1476J-0D01*
G01X691484Y541386D02*
Y535386D01*
X690008Y533909D02*
G03X691484Y535386I-0J1477D01*
G01X690008Y533909D02*
X684008D01*
X682531Y535386D02*
G03X684008Y533909I1477J-0D01*
G01X682531Y535386D02*
Y541386D01*
X684008Y542862D02*
G03X682531Y541386I-0J-1476D01*
G01X684008Y542862D02*
X690008D01*
X691484Y541386D02*
G03X690008Y542862I-1476J-0D01*
G01X691484Y551386D02*
Y545386D01*
X690008Y543909D02*
G03X691484Y545386I-0J1477D01*
G01X690008Y543909D02*
X684008D01*
X682531Y545386D02*
G03X684008Y543909I1477J-0D01*
G01X682531Y545386D02*
Y551386D01*
X684008Y552862D02*
G03X682531Y551386I-0J-1476D01*
G01X684008Y552862D02*
X690008D01*
X691484Y551386D02*
G03X690008Y552862I-1476J-0D01*
G01X671260Y311024D02*
G03X671260I-2953J0D01*
G01X674213Y334646D02*
G03X674213I-2953J0D01*
G01X676181Y401575D02*
G03X676181I-2953J0D01*
G01X682087Y479331D02*
G03X682087I-2953J0D01*
G01X678150Y485236D02*
G03X678150I-2953J0D01*
G01X682087Y504921D02*
G03X682087I-2953J0D01*
G01X678150Y522047D02*
G03X678150I-2953J0D01*
G01X679673Y541228D02*
Y535228D01*
X678197Y533752D02*
G03X679673Y535228I-0J1476D01*
G01X678197Y533752D02*
X672197D01*
X670720Y535228D02*
G03X672197Y533752I1477J0D01*
G01X670720Y535228D02*
Y541228D01*
X672197Y542705D02*
G03X670720Y541228I-0J-1477D01*
G01X672197Y542705D02*
X678197D01*
X679673Y541228D02*
G03X678197Y542705I-1476J0D01*
G01X679673Y551228D02*
Y545228D01*
X678197Y543752D02*
G03X679673Y545228I-0J1476D01*
G01X678197Y543752D02*
X672197D01*
X670720Y545228D02*
G03X672197Y543752I1477J0D01*
G01X670720Y545228D02*
Y551228D01*
X672197Y552705D02*
G03X670720Y551228I-0J-1477D01*
G01X672197Y552705D02*
X678197D01*
X679673Y551228D02*
G03X678197Y552705I-1476J0D01*
G01X668307Y449803D02*
G03X668307I-2953J0D01*
G01X665158Y460039D02*
G03X665158I-2953J0D01*
G01X666339Y550197D02*
G03X666339I-2953J0D01*
G01X673917Y574803D02*
G03X673917I-4626J0D01*
G01X648622Y432087D02*
G03X648622I-2953J0D01*
G01X654415Y450333D02*
G03Y455179I1687J2423D01*
G01Y450333D02*
G03X653853I-281J-404D01*
G01X650562Y450276D02*
G03X653853Y450333I1603J2480D01*
G01X650562Y450276D02*
G03X650028I-267J-413D01*
G01X645532Y452167D02*
G03X650028Y450276I2893J589D01*
G01X645532Y452167D02*
G03X644885Y452532I-482J-99D01*
G01X646791Y455904D02*
G03X644885Y452532I-2893J-589D01*
G01X646791Y455904D02*
G03X647438Y455539I482J98D01*
G01X650028Y455236D02*
G03X647438Y455539I-1603J-2480D01*
G01X650028Y455236D02*
G03X650562I267J413D01*
G01X653853Y455179D02*
G03X650562Y455236I-1688J-2423D01*
G01X653853Y455179D02*
G03X654415I281J404D01*
G01X655825Y476849D02*
G03X653793Y480913I671J2875D01*
G01X655825Y476849D02*
G03X655262Y476568I-112J-479D01*
G01X653230Y480631D02*
G03X655262Y476568I-671J-2875D01*
G01X653230Y480631D02*
G03X653793Y480913I112J480D01*
G01X651378Y490157D02*
G03X651378I-2953J0D01*
G01X650984Y501575D02*
G03Y506299I1772J2362D01*
G01Y501575D02*
G03X650394I-295J-394D01*
G01X646850D02*
G03X650394I1772J2362D01*
G01X646850D02*
G03X646260I-295J-394D01*
G01Y506299D02*
G03Y501575I-1772J-2362D01*
G01Y506299D02*
G03X646850I295J394D01*
G01X650394D02*
G03X646850I-1772J-2362D01*
G01X650394D02*
G03X650984I295J394D01*
G01X644739Y519068D02*
G03X646318Y521145I2899J-564D01*
G01X644739Y519068D02*
G03X644036Y519603I-483J95D01*
G01X639876Y523052D02*
G03X644036Y519603I2841J-808D01*
G01X639876Y523052D02*
G03X639314Y523671I-473J135D01*
G01X636649Y524531D02*
G03X639314Y523671I2131J2044D01*
G01X636649Y524531D02*
G03X635805Y524249I-355J-341D01*
G01X635005Y526651D02*
G03X635805Y524249I-2131J-2045D01*
G01X635005Y526651D02*
G03X635848Y526932I355J340D01*
G01X638644Y529524D02*
G03X635848Y526932I136J-2949D01*
G01X638644Y529524D02*
G03X639066Y530228I-23J492D01*
G01X641868Y528546D02*
G03X639066Y530228I-136J2950D01*
G01X641868Y528546D02*
G03X641446Y527843I22J-491D01*
G01X641620Y525767D02*
G03X641446Y527843I-2840J808D01*
G01X641620Y525767D02*
G03X642182Y525148I473J-135D01*
G01X645615Y521680D02*
G03X642182Y525148I-2898J564D01*
G01X645615Y521680D02*
G03X646318Y521145I483J-94D01*
G01X656496Y550197D02*
G03X656496I-2953J0D01*
G01X634843Y531496D02*
G03X634843I-2953J0D01*
G01X614370Y252362D02*
G03X614370I-2953J0D01*
G01X612205Y279528D02*
G03X612205I-2953J0D01*
G01X615158Y303150D02*
G03X615158I-2953J0D01*
G01X619095Y449803D02*
G03X619095I-2953J0D01*
G01X624409Y460039D02*
G03X624409I-2952J0D01*
G01X617913Y483071D02*
G03X617913I-2952J0D01*
G01X623032Y531496D02*
G03X623032I-2953J0D01*
G01X614567Y489173D02*
G03X614567I-2953J0D01*
G01X616535Y501772D02*
G03X616535I-2952J0D01*
G01X600984Y299213D02*
G03X600984I-2953J0D01*
G01X604331Y444882D02*
G03X604331I-2953J0D01*
G01Y454724D02*
G03X604331I-2953J0D01*
G01Y464567D02*
G03X604331I-2953J0D01*
G01Y474409D02*
G03X604331I-2953J0D01*
G01X607283Y489173D02*
G03X607283I-2952J0D01*
G01X613189Y531496D02*
G03X613189I-2953J0D01*
G01X595866Y321654D02*
G03X595866I-2953J0D01*
G01X597441Y423228D02*
G03X597441I-2953J0D01*
G01X603346Y531496D02*
G03X603346I-2952J0D01*
G01X586130Y221504D02*
Y215504D01*
X584654Y214028D02*
G03X586130Y215504I-0J1476D01*
G01X584654Y214028D02*
X578654D01*
X577177Y215504D02*
G03X578654Y214028I1477J-0D01*
G01X577177Y215504D02*
Y221504D01*
X578654Y222980D02*
G03X577177Y221504I-0J-1476D01*
G01X578654Y222980D02*
X584654D01*
X586130Y221504D02*
G03X584654Y222980I-1476J-0D01*
G01X586130Y231504D02*
Y225504D01*
X584654Y224028D02*
G03X586130Y225504I-0J1476D01*
G01X584654Y224028D02*
X578654D01*
X577177Y225504D02*
G03X578654Y224028I1477J-0D01*
G01X577177Y225504D02*
Y231504D01*
X578654Y232980D02*
G03X577177Y231504I-0J-1476D01*
G01X578654Y232980D02*
X584654D01*
X586130Y231504D02*
G03X584654Y232980I-1476J-0D01*
G01X583661Y298228D02*
G03X583661I-2952J0D01*
G01X588780Y365354D02*
G03X588780I-2953J0D01*
G01X593504Y551181D02*
G03X593504I-2953J0D01*
G01X630292Y571276D02*
G03X624426Y577143I-2339J3527D01*
G01X630292Y571276D02*
G03Y570456I272J-410D01*
G01X624426Y564590D02*
G03X630292Y570456I3527J2339D01*
G01X624426Y564590D02*
G03X623606I-410J-272D01*
G01X616552D02*
G03X623606I3527J2339D01*
G01X616552D02*
G03X615732I-410J-272D01*
G01X608678D02*
G03X615732I3527J2339D01*
G01X608678D02*
G03X607858I-410J-272D01*
G01X600804D02*
G03X607858I3527J2339D01*
G01X600804D02*
G03X599984I-410J-272D01*
G01X593396Y569853D02*
G03X599984Y564590I3061J-2924D01*
G01X593396Y569853D02*
G03X593206Y570656I-355J340D01*
G01X592224Y572047D02*
G03X593206Y570656I1477J0D01*
G01X592224Y572047D02*
Y577559D01*
X593701Y579035D02*
G03X592224Y577559I-0J-1476D01*
G01X593701Y579035D02*
X599213D01*
X600604Y578054D02*
G03X599213Y579035I-1391J-495D01*
G01X600604Y578054D02*
G03X601407Y577863I463J165D01*
G01X607858Y577143D02*
G03X601407Y577863I-3527J-2340D01*
G01X607858Y577143D02*
G03X608678I410J272D01*
G01X615732D02*
G03X608678I-3527J-2340D01*
G01X615732D02*
G03X616552I410J272D01*
G01X623606D02*
G03X616552I-3527J-2340D01*
G01X623606D02*
G03X624426I410J272D01*
G01X585827Y444882D02*
G03X585827I-2953J0D01*
G01X586220Y454724D02*
G03X586220I-2952J0D01*
G01X585827Y464567D02*
G03X585827I-2953J0D01*
G01X586614Y513780D02*
G03X586614I-2953J0D01*
G01X576130Y221504D02*
Y215504D01*
X574654Y214028D02*
G03X576130Y215504I-0J1476D01*
G01X574654Y214028D02*
X568654D01*
X567177Y215504D02*
G03X568654Y214028I1477J-0D01*
G01X567177Y215504D02*
Y221504D01*
X568654Y222980D02*
G03X567177Y221504I-0J-1476D01*
G01X568654Y222980D02*
X574654D01*
X576130Y221504D02*
G03X574654Y222980I-1476J-0D01*
G01X576130Y231504D02*
Y225504D01*
X574654Y224028D02*
G03X576130Y225504I-0J1476D01*
G01X574654Y224028D02*
X568654D01*
X567177Y225504D02*
G03X568654Y224028I1477J-0D01*
G01X567177Y225504D02*
Y231504D01*
X568654Y232980D02*
G03X567177Y231504I-0J-1476D01*
G01X568654Y232980D02*
X574654D01*
X576130Y231504D02*
G03X574654Y232980I-1476J-0D01*
G01X578150Y303150D02*
G03X578150I-2953J0D01*
G01X575787Y334646D02*
G03X575787I-2952J0D01*
G01Y430118D02*
G03X575787I-2952J0D01*
G01X576772Y472441D02*
G03X576772I-2953J0D01*
G01X566130Y221504D02*
Y215504D01*
X564654Y214028D02*
G03X566130Y215504I-0J1476D01*
G01X564654Y214028D02*
X558654D01*
X557177Y215504D02*
G03X558654Y214028I1477J-0D01*
G01X557177Y215504D02*
Y221504D01*
X558654Y222980D02*
G03X557177Y221504I-0J-1476D01*
G01X558654Y222980D02*
X564654D01*
X566130Y221504D02*
G03X564654Y222980I-1476J-0D01*
G01X566130Y231504D02*
Y225504D01*
X564654Y224028D02*
G03X566130Y225504I-0J1476D01*
G01X564654Y224028D02*
X558654D01*
X557177Y225504D02*
G03X558654Y224028I1477J-0D01*
G01X557177Y225504D02*
Y231504D01*
X558654Y232980D02*
G03X557177Y231504I-0J-1476D01*
G01X558654Y232980D02*
X564654D01*
X566130Y231504D02*
G03X564654Y232980I-1476J-0D01*
G01X556130Y221504D02*
Y215504D01*
X554654Y214028D02*
G03X556130Y215504I-0J1476D01*
G01X554654Y214028D02*
X548654D01*
X547177Y215504D02*
G03X548654Y214028I1477J-0D01*
G01X547177Y215504D02*
Y221504D01*
X548654Y222980D02*
G03X547177Y221504I-0J-1476D01*
G01X548654Y222980D02*
X554654D01*
X556130Y221504D02*
G03X554654Y222980I-1476J-0D01*
G01X556130Y231504D02*
Y225504D01*
X554654Y224028D02*
G03X556130Y225504I-0J1476D01*
G01X554654Y224028D02*
X548654D01*
X547177Y225504D02*
G03X548654Y224028I1477J-0D01*
G01X547177Y225504D02*
Y231504D01*
X548654Y232980D02*
G03X547177Y231504I-0J-1476D01*
G01X548654Y232980D02*
X554654D01*
X556130Y231504D02*
G03X554654Y232980I-1476J-0D01*
G01X556102Y284449D02*
G03X556102I-2952J0D01*
G01X562008Y298228D02*
G03X562008I-2953J0D01*
G01X546130Y221504D02*
Y215504D01*
X544654Y214028D02*
G03X546130Y215504I-0J1476D01*
G01X544654Y214028D02*
X538654D01*
X537177Y215504D02*
G03X538654Y214028I1477J-0D01*
G01X537177Y215504D02*
Y221504D01*
X538654Y222980D02*
G03X537177Y221504I-0J-1476D01*
G01X538654Y222980D02*
X544654D01*
X546130Y221504D02*
G03X544654Y222980I-1476J-0D01*
G01X546130Y231504D02*
Y225504D01*
X544654Y224028D02*
G03X546130Y225504I-0J1476D01*
G01X544654Y224028D02*
X538654D01*
X537177Y225504D02*
G03X538654Y224028I1477J-0D01*
G01X537177Y225504D02*
Y231504D01*
X538654Y232980D02*
G03X537177Y231504I-0J-1476D01*
G01X538654Y232980D02*
X544654D01*
X546130Y231504D02*
G03X544654Y232980I-1476J-0D01*
G01X552065Y392359D02*
G03Y397011I3053J2326D01*
G01Y392359D02*
G03X551282I-392J-298D01*
G01Y397011D02*
G03Y392359I-3054J-2326D01*
G01Y397011D02*
G03X552065I391J299D01*
G01X559055Y484252D02*
G03X559055I-2953J0D01*
G01Y494094D02*
G03X559055I-2953J0D01*
G01Y503937D02*
G03X559055I-2953J0D01*
G01X550197Y462598D02*
G03X550197I-2953J0D01*
G01X547047Y515748D02*
G03X547047I-2953J0D01*
G01X555807Y535433D02*
G03X555807I-4626J0D01*
G01X536130Y221504D02*
Y215504D01*
X534654Y214028D02*
G03X536130Y215504I-0J1476D01*
G01X534654Y214028D02*
X528654D01*
X527177Y215504D02*
G03X528654Y214028I1477J-0D01*
G01X527177Y215504D02*
Y221504D01*
X528654Y222980D02*
G03X527177Y221504I-0J-1476D01*
G01X528654Y222980D02*
X534654D01*
X536130Y221504D02*
G03X534654Y222980I-1476J-0D01*
G01X536130Y231504D02*
Y225504D01*
X534654Y224028D02*
G03X536130Y225504I-0J1476D01*
G01X534654Y224028D02*
X528654D01*
X527177Y225504D02*
G03X528654Y224028I1477J-0D01*
G01X527177Y225504D02*
Y231504D01*
X528654Y232980D02*
G03X527177Y231504I-0J-1476D01*
G01X528654Y232980D02*
X534654D01*
X536130Y231504D02*
G03X534654Y232980I-1476J-0D01*
G01X540354Y298228D02*
G03X540354I-2952J0D01*
G01X532480Y284449D02*
G03X532480I-2952J0D01*
G01X536417Y321850D02*
G03X536417I-2952J0D01*
G01Y365157D02*
G03X536417I-2952J0D01*
G01X526130Y221504D02*
Y215504D01*
X524654Y214028D02*
G03X526130Y215504I-0J1476D01*
G01X524654Y214028D02*
X518654D01*
X517177Y215504D02*
G03X518654Y214028I1477J-0D01*
G01X517177Y215504D02*
Y221504D01*
X518654Y222980D02*
G03X517177Y221504I-0J-1476D01*
G01X518654Y222980D02*
X524654D01*
X526130Y221504D02*
G03X524654Y222980I-1476J-0D01*
G01X526130Y231504D02*
Y225504D01*
X524654Y224028D02*
G03X526130Y225504I-0J1476D01*
G01X524654Y224028D02*
X518654D01*
X517177Y225504D02*
G03X518654Y224028I1477J-0D01*
G01X517177Y225504D02*
Y231504D01*
X518654Y232980D02*
G03X517177Y231504I-0J-1476D01*
G01X518654Y232980D02*
X524654D01*
X526130Y231504D02*
G03X524654Y232980I-1476J-0D01*
G01X514764Y259843D02*
G03X514764I-2953J0D01*
G01X504921Y313976D02*
G03X504921I-2952J0D01*
G01X498720Y230315D02*
G03X498720I-4626J0D01*
G01X502658Y329724D02*
G03X502658I-4627J0D01*
G01Y341535D02*
G03X502658I-4627J0D01*
G01X491142Y384843D02*
G03X491142I-2953J0D01*
G01X481299Y367126D02*
G03X481299I-2953J0D01*
G01X483715Y393086D02*
G03Y396284I3490J1599D01*
G01Y393086D02*
G03X482820I-447J-205D01*
G01Y396284D02*
G03Y393086I-3489J-1599D01*
G01Y396284D02*
G03X483715I448J205D01*
G01X494095Y437992D02*
G03X494095I-2953J0D01*
G01X497047Y462598D02*
G03X497047I-2953J0D01*
G01X491142Y476378D02*
G03X491142I-2953J0D01*
G01X495079Y527559D02*
G03X495079I-2953J0D01*
G01X463252Y321966D02*
G03X463126Y325503I2299J1853D01*
G01X463252Y321966D02*
G03X462465Y321938I-383J-309D01*
G01X457302Y322514D02*
G03X462465Y321938I2737J1108D01*
G01X457302Y322514D02*
G03X456403Y322542I-456J-185D01*
G01X456477Y324927D02*
G03X456403Y322542I-2737J-1108D01*
G01X456477Y324927D02*
G03X457377Y324899I456J185D01*
G01X462338Y325475D02*
G03X457377Y324899I-2299J-1853D01*
G01X462338Y325475D02*
G03X463126Y325503I384J309D01*
G01X460630Y334635D02*
G03Y334656I2953J11D01*
G01Y334635D02*
G03Y334646I-492J-1D01*
Y334656I-492J12*
G01X470472Y367126D02*
G03X470472I-2952J0D01*
G01X474311Y394685D02*
G03X474311I-3839J0D01*
G01X466535Y516732D02*
G03X466535I-2952J0D01*
G01X459646Y334646D02*
G03Y334635I492J-12D01*
G01Y334656D02*
G03Y334635I-2953J-10D01*
G01Y334656D02*
G03Y334646I492J2D01*
G01X454724Y391732D02*
G03X454724I-2952J0D01*
G01X456102Y431102D02*
G03X456102I-2952J0D01*
G01X454724Y438976D02*
G03X454724I-2952J0D01*
G01Y483268D02*
G03X454724I-2952J0D01*
G01X459646Y497047D02*
G03X459646I-2953J0D01*
G01X447539Y284449D02*
G03X447539I-4626J0D01*
G01Y336614D02*
G03X447539I-4626J0D01*
G01Y348425D02*
G03X447539I-4626J0D01*
G01X428839Y216535D02*
G03X428839I-15453J0D01*
G01X414075Y283465D02*
G03X414075I-4626J0D01*
G01Y350394D02*
G03X414075I-4626J0D01*
G01X411319Y391732D02*
G03X411319I-3839J0D01*
G01X415970Y416826D02*
G03Y425694I-616J4434D01*
G01Y416826D02*
G03Y415851I68J-487D01*
G01X414738D02*
G03X415970I616J-4434D01*
G01X414738D02*
G03Y416826I-67J488D01*
G01Y425694D02*
G03Y416826I616J-4434D01*
G01Y425694D02*
G03X414670Y426673I-68J487D01*
G01X412402*
X410925Y428150D02*
G03X412402Y426673I1477J-0D01*
G01X410925Y428150D02*
Y434055D01*
X412402Y435532D02*
G03X410925Y434055I-0J-1477D01*
G01X412402Y435532D02*
X418307D01*
X419783Y434055D02*
G03X418307Y435532I-1476J0D01*
G01X419783Y434055D02*
Y428150D01*
X418307Y426673D02*
G03X419783Y428150I0J1477D01*
G01X418307Y426673D02*
X416038D01*
G03X415970Y425694I0J-492*
G01X414738Y468016D02*
G03X415970I616J-4433D01*
G01X414738D02*
G03X414670Y468996I-68J488D01*
G01X412402*
X410925Y470472D02*
G03X412402Y468996I1477J0D01*
G01X410925Y470472D02*
Y476378D01*
X412402Y477854D02*
G03X410925Y476378I-0J-1476D01*
G01X412402Y477854D02*
X418307D01*
X419783Y476378D02*
G03X418307Y477854I-1476J-0D01*
G01X419783Y476378D02*
Y470472D01*
X418307Y468996D02*
G03X419783Y470472I0J1476D01*
G01X418307Y468996D02*
X416038D01*
G03X415970Y468016I0J-492*
G01X414738Y511324D02*
G03X415970I616J-4434D01*
G01X414738D02*
G03X414670Y512303I-68J487D01*
G01X412402*
X410925Y513780D02*
G03X412402Y512303I1477J-0D01*
G01X410925Y513780D02*
Y519685D01*
X412402Y521161D02*
G03X410925Y519685I-0J-1476D01*
G01X412402Y521161D02*
X418307D01*
X419783Y519685D02*
G03X418307Y521161I-1476J0D01*
G01X419783Y519685D02*
Y513780D01*
X418307Y512303D02*
G03X419783Y513780I0J1477D01*
G01X418307Y512303D02*
X416038D01*
G03X415970Y511324I0J-492*
G01X428839Y570866D02*
G03X428839I-15453J0D01*
G01X327825Y388923D02*
G03Y516588I-71919J63833D01*
G01Y388923D02*
G03X328392Y388147I368J-326D01*
G01X320515Y380269D02*
G03X328392Y388147I14131J-6253D01*
G01X320515Y380269D02*
G03X319738Y380836I-450J199D01*
G01X192073D02*
G03X319738I63833J71920D01*
G01X192073D02*
G03X191296Y380269I-327J-368D01*
G01X183419Y388147D02*
G03X191296Y380269I-6254J-14131D01*
G01X183419Y388147D02*
G03X183986Y388923I199J450D01*
G01Y516588D02*
G03Y388923I71920J-63832D01*
G01Y516588D02*
G03X183419Y517365I-368J327D01*
G01X191296Y525243D02*
G03X183419Y517365I-14131J6253D01*
G01X191296Y525243D02*
G03X192073Y524676I450J-199D01*
G01X319738D02*
G03X192073I-63832J-71920D01*
G01X319738D02*
G03X320515Y525243I327J368D01*
G01X328392Y517365D02*
G03X320515Y525243I6254J14131D01*
G01X328392Y517365D02*
G03X327825Y516588I-199J-450D01*
G01X153248Y255906D02*
G03X153248I-15453J0D01*
G01Y570866D02*
G03X153248I-15453J0D01*
G01X628937Y256890D02*
G03X628937I-2953J0D01*
G01Y301181D02*
G03X628937I-2953J0D01*
G01X625000Y334646D02*
G03X625000I-2953J0D01*
G01Y385827D02*
G03X625000I-2953J0D01*
G01X628937Y449803D02*
G03X628937I-2953J0D01*
G01X635236Y490020D02*
G03X632874Y492938I591J2893D01*
G01X635236Y490020D02*
G03X634646Y489542I-98J-482D01*
G01X631335Y486636D02*
G03X634646Y489542I358J2931D01*
G01X631335Y486636D02*
G03X630800Y486017I-60J-489D01*
G01X628311Y488167D02*
G03X630800Y486017I-358J-2931D01*
G01X628311Y488167D02*
G03X628845Y488786I60J489D01*
G01X632284Y492460D02*
G03X628845Y488786I-591J-2893D01*
G01X632284Y492460D02*
G03X632874Y492938I98J482D01*
G01X631516Y496092D02*
G03Y501939I-414J2924D01*
G01Y496092D02*
G03X631094Y495642I69J-487D01*
G01X626953Y498566D02*
G03X631094Y495642I1197J-2700D01*
G01X626953Y498566D02*
G03Y499466I-199J450D01*
G01X631094Y502389D02*
G03X626953Y499466I-2944J-224D01*
G01X631094Y502389D02*
G03X631516Y501939I491J38D01*
G01X639764Y309055D02*
G03X639764I-2953J0D01*
G01X640748Y325787D02*
G03X640748I-2953J0D01*
G01X681496Y314961D02*
G03X681496I-2953J0D01*
G01X720723Y225336D02*
G03Y227419I7308J1042D01*
G01Y225336D02*
G03X719749I-487J-69D01*
G01Y227419D02*
G03Y225336I-7308J-1041D01*
G01Y227419D02*
G03X720723I487J70D01*
G01X709646Y271654D02*
G03X709646I-2953J0D01*
G01X722340Y302792D02*
G03Y307444I3054J2326D01*
G01Y302792D02*
G03X721557I-391J-298D01*
G01X715451D02*
G03X721557I3053J2326D01*
G01X715451D02*
G03X714668I-392J-298D01*
G01X708949Y307881D02*
G03X714668Y302792I2665J-2763D01*
G01X708949Y307881D02*
G03X708896Y308633I-342J354D01*
G01X713045Y309325D02*
G03X708896Y308633I-2415J1699D01*
G01X713045Y309325D02*
G03X713239Y308596I403J-283D01*
G01X714668Y307444D02*
G03X713239Y308596I-3054J-2326D01*
G01X714668Y307444D02*
G03X715451I391J299D01*
G01X721557D02*
G03X715451I-3053J-2326D01*
G01X721557D02*
G03X722340I392J299D01*
G01X733268Y534449D02*
G03X733268I-2953J0D01*
G01X716391Y395021D02*
G03X710529Y399964I-2808J2617D01*
G01X716391Y395021D02*
G03Y394350I360J-336D01*
G01X710529Y389406D02*
G03X716391Y394349I3054J2326D01*
G01X710529Y389406D02*
G03X709746I-391J-298D01*
G01X703885Y394349D02*
G03X709746Y389406I2808J-2617D01*
G01X703885Y394350D02*
G03Y395021I-360J335D01*
G01X709746Y399964D02*
G03X703885Y395021I-3053J-2326D01*
G01X709746Y399964D02*
G03X710529I392J298D01*
G01X710773Y498108D02*
G03X712174Y501611I2810J908D01*
G01X710773Y498108D02*
G03X710070Y498389I-468J-151D01*
G01X711471Y501892D02*
G03X710070Y498389I-2810J-908D01*
G01X711471Y501892D02*
G03X712174Y501611I468J151D01*
G01X788558Y226378D02*
G03X788558I-6988J0D01*
G01X794291Y311024D02*
G03X794291I-2952J0D01*
G01X796260Y429134D02*
G03X796260I-2953J0D01*
G01X794291Y462598D02*
G03X794291I-2952J0D01*
G01Y482283D02*
G03X794291I-2952J0D01*
G01X804158Y226378D02*
G03X804158I-6988J0D01*
G01X851024Y585629D02*
X864468D01*
X853256Y584743D02*
X864468D01*
X854825Y583857D02*
X864468D01*
X856062Y582971D02*
X864468D01*
X857083Y582085D02*
X864468D01*
X857946Y581199D02*
X864468D01*
X858685Y580314D02*
X864468D01*
X859321Y579428D02*
X864468D01*
X859868Y578542D02*
X864468D01*
X860338Y577656D02*
X864468D01*
X860737Y576770D02*
X864468D01*
X861072Y575885D02*
X864468D01*
X861347Y574999D02*
X864468D01*
X861565Y574113D02*
X864468D01*
X861728Y573227D02*
X864468D01*
X861839Y572341D02*
X864468D01*
X861898Y571455D02*
X864468D01*
X861907Y570570D02*
X864468D01*
X861864Y569684D02*
X864468D01*
X861770Y568798D02*
X864468D01*
X861624Y567912D02*
X864468D01*
X861425Y567026D02*
X864468D01*
X861169Y566140D02*
X864468D01*
X860855Y565255D02*
X864468D01*
X860477Y564369D02*
X864468D01*
X860032Y563483D02*
X864468D01*
X859511Y562597D02*
X864468D01*
X858906Y561711D02*
X864468D01*
X858203Y560825D02*
X864468D01*
X857384Y559940D02*
X864468D01*
X856420Y559054D02*
X864468D01*
X855263Y558168D02*
X864468D01*
X853823Y557282D02*
X864468D01*
X851880Y556396D02*
X864468D01*
X848187Y555511D02*
X864468D01*
X119783Y554625D02*
X864468D01*
X592027Y553739D02*
X864468D01*
X701983Y552853D02*
X864468D01*
X703176Y551967D02*
X864468D01*
X703295Y551081D02*
X864468D01*
X703295Y550196D02*
X864468D01*
X703295Y549310D02*
X864468D01*
X703295Y548424D02*
X864468D01*
X703295Y547538D02*
X864468D01*
X703295Y546652D02*
X864468D01*
X703295Y545766D02*
X864468D01*
X703206Y544881D02*
X864468D01*
X702314Y543995D02*
X864468D01*
X344840Y543109D02*
X864468D01*
X703035Y542223D02*
X864468D01*
X703295Y541337D02*
X864468D01*
X703295Y540451D02*
X864468D01*
X703295Y539566D02*
X864468D01*
X703295Y538680D02*
X864468D01*
X703295Y537794D02*
X864468D01*
X847114Y536908D02*
X864468D01*
X849194Y536022D02*
X864468D01*
X850060Y535137D02*
X864468D01*
X850568Y534251D02*
X864468D01*
X850845Y533365D02*
X864468D01*
X850933Y532479D02*
X864468D01*
X850844Y531593D02*
X864468D01*
X850567Y530707D02*
X864468D01*
X850058Y529822D02*
X864468D01*
X849191Y528936D02*
X864468D01*
X847097Y528050D02*
X864468D01*
X846847Y527164D02*
X864468D01*
X850716Y526278D02*
X864468D01*
X850886Y525392D02*
X864468D01*
X850886Y524507D02*
X864468D01*
X850886Y523621D02*
X864468D01*
X850886Y522735D02*
X864468D01*
X850886Y521849D02*
X864468D01*
X850886Y520963D02*
X864468D01*
X850886Y520077D02*
X864468D01*
X850801Y519192D02*
X864468D01*
X849936Y518306D02*
X864468D01*
X782188Y517420D02*
X864468D01*
X781534Y516534D02*
X864468D01*
X695660Y515648D02*
X864468D01*
X695113Y514762D02*
X864468D01*
X693665Y513877D02*
X864468D01*
X692710Y512991D02*
X864468D01*
X692635Y512105D02*
X864468D01*
X692261Y511219D02*
X864468D01*
X691394Y510333D02*
X864468D01*
X419028Y509448D02*
X864468D01*
X419507Y508562D02*
X864468D01*
X680197Y507676D02*
X864468D01*
X681420Y506790D02*
X864468D01*
X681918Y505904D02*
X864468D01*
X682085Y505018D02*
X864468D01*
X681979Y504133D02*
X864468D01*
X710559Y503247D02*
X864468D01*
X711274Y502361D02*
X864468D01*
X715217Y501475D02*
X864468D01*
X716081Y500589D02*
X864468D01*
X716454Y499703D02*
X864468D01*
X716529Y498818D02*
X864468D01*
X716329Y497932D02*
X864468D01*
X715782Y497046D02*
X864468D01*
X714334Y496160D02*
X864468D01*
X637600Y495274D02*
X864468D01*
X638385Y494388D02*
X864468D01*
X638720Y493503D02*
X864468D01*
X650059Y492617D02*
X864468D01*
X650924Y491731D02*
X864468D01*
X651297Y490845D02*
X864468D01*
X651371Y489959D02*
X864468D01*
X811785Y489074D02*
X864468D01*
X813226Y488188D02*
X864468D01*
X813771Y487302D02*
X864468D01*
X813970Y486416D02*
X864468D01*
X813895Y485530D02*
X864468D01*
X813521Y484644D02*
X864468D01*
X812654Y483759D02*
X864468D01*
X794232Y482873D02*
X864468D01*
X794276Y481987D02*
X864468D01*
X794044Y481101D02*
X864468D01*
X793446Y480215D02*
X864468D01*
X682087Y479329D02*
X864468D01*
X681950Y478444D02*
X864468D01*
X681495Y477558D02*
X864468D01*
X680418Y476672D02*
X864468D01*
X654759Y475786D02*
X864468D01*
X684705Y474900D02*
X864468D01*
X759349Y474014D02*
X864468D01*
X760308Y473129D02*
X864468D01*
X760720Y472243D02*
X864468D01*
X760825Y471357D02*
X864468D01*
X760657Y470471D02*
X864468D01*
X760158Y469585D02*
X864468D01*
X758931Y468699D02*
X864468D01*
X689172Y467814D02*
X864468D01*
X689066Y466928D02*
X864468D01*
X688653Y466042D02*
X864468D01*
X851869Y465156D02*
X864468D01*
X852828Y464270D02*
X864468D01*
X853240Y463385D02*
X864468D01*
X853345Y462499D02*
X864468D01*
X853177Y461613D02*
X864468D01*
X852678Y460727D02*
X864468D01*
X851450Y459841D02*
X864468D01*
X664951Y458955D02*
X864468D01*
X664404Y458070D02*
X864468D01*
X662956Y457184D02*
X864468D01*
X646682Y456298D02*
X864468D01*
X657392Y455412D02*
X864468D01*
X658466Y454526D02*
X864468D01*
X658920Y453640D02*
X864468D01*
X665442Y452755D02*
X864468D01*
X667464Y451869D02*
X864468D01*
X668061Y450983D02*
X864468D01*
X668292Y450097D02*
X864468D01*
X668247Y449211D02*
X864468D01*
X667911Y448325D02*
X864468D01*
X667124Y447440D02*
X864468D01*
X603812Y446554D02*
X864468D01*
X604224Y445668D02*
X864468D01*
X604329Y444782D02*
X864468D01*
X604161Y443896D02*
X864468D01*
X603662Y443011D02*
X864468D01*
X602435Y442125D02*
X864468D01*
X453669Y441239D02*
X864468D01*
X492915Y440353D02*
X864468D01*
X493700Y439467D02*
X864468D01*
X494035Y438581D02*
X864468D01*
X494080Y437696D02*
X864468D01*
X493847Y436810D02*
X864468D01*
X493249Y435924D02*
X864468D01*
X645757Y435038D02*
X864468D01*
X647779Y434152D02*
X864468D01*
X648376Y433266D02*
X864468D01*
X763859Y432381D02*
X864468D01*
X795080Y431495D02*
X864468D01*
X795865Y430609D02*
X864468D01*
X796200Y429723D02*
X864468D01*
X796245Y428837D02*
X864468D01*
X796013Y427951D02*
X864468D01*
X832778Y427066D02*
X864468D01*
X835131Y426180D02*
X864468D01*
X835913Y425294D02*
X864468D01*
X836330Y424408D02*
X864468D01*
X836504Y423522D02*
X864468D01*
X836470Y422637D02*
X864468D01*
X836220Y421751D02*
X864468D01*
X835702Y420865D02*
X864468D01*
X834721Y419979D02*
X864468D01*
X419271Y419093D02*
X864468D01*
X418629Y418207D02*
X864468D01*
X417482Y417322D02*
X864468D01*
X415556Y416436D02*
X864468D01*
X417075Y415550D02*
X864468D01*
X418436Y414664D02*
X864468D01*
X419158Y413778D02*
X864468D01*
X419581Y412892D02*
X864468D01*
X419792Y412007D02*
X864468D01*
X419821Y411121D02*
X864468D01*
X419672Y410235D02*
X864468D01*
X419324Y409349D02*
X864468D01*
X418718Y408463D02*
X864468D01*
X417655Y407577D02*
X864468D01*
X340316Y406692D02*
X864468D01*
X339826Y405806D02*
X864468D01*
X339325Y404920D02*
X864468D01*
X674863Y404034D02*
X864468D01*
X675727Y403148D02*
X864468D01*
X676100Y402262D02*
X864468D01*
X714452Y401377D02*
X864468D01*
X716151Y400491D02*
X864468D01*
X716879Y399605D02*
X864468D01*
X717266Y398719D02*
X864468D01*
X717416Y397833D02*
X864468D01*
X717359Y396948D02*
X864468D01*
X717083Y396062D02*
X864468D01*
X716528Y395176D02*
X864468D01*
X716445Y394290D02*
X864468D01*
X717038Y393404D02*
X864468D01*
X717340Y392518D02*
X864468D01*
X717420Y391633D02*
X864468D01*
X717293Y390747D02*
X864468D01*
X716934Y389861D02*
X864468D01*
X716253Y388975D02*
X864468D01*
X714792Y388089D02*
X864468D01*
X624659Y387203D02*
X864468D01*
X624959Y386318D02*
X864468D01*
X624973Y385432D02*
X864468D01*
X624708Y384546D02*
X864468D01*
X624053Y383660D02*
X864468D01*
X490296Y382774D02*
X864468D01*
X347943Y381888D02*
X864468D01*
X348429Y381003D02*
X864468D01*
X348843Y380117D02*
X864468D01*
X349192Y379231D02*
X864468D01*
X349480Y378345D02*
X864468D01*
X349710Y377459D02*
X864468D01*
X349885Y376574D02*
X864468D01*
X350008Y375688D02*
X864468D01*
X350078Y374802D02*
X864468D01*
X350098Y373916D02*
X864468D01*
X350067Y373030D02*
X864468D01*
X349985Y372144D02*
X864468D01*
X349850Y371259D02*
X864468D01*
X349663Y370373D02*
X864468D01*
X480120Y369487D02*
X864468D01*
X480904Y368601D02*
X864468D01*
X587600Y367715D02*
X864468D01*
X588385Y366829D02*
X864468D01*
X588720Y365944D02*
X864468D01*
X588765Y365058D02*
X864468D01*
X588532Y364172D02*
X864468D01*
X587934Y363286D02*
X864468D01*
X534521Y362400D02*
X864468D01*
X343729Y361514D02*
X864468D01*
X342364Y360629D02*
X864468D01*
X340568Y359743D02*
X864468D01*
X337646Y358857D02*
X864468D01*
X272119Y357971D02*
X864468D01*
X265609Y357085D02*
X864468D01*
X119783Y356199D02*
X864468D01*
X119783Y355314D02*
X864468D01*
X411713Y354428D02*
X864468D01*
X412838Y353542D02*
X864468D01*
X444784Y352656D02*
X864468D01*
X446109Y351770D02*
X864468D01*
X446831Y350885D02*
X864468D01*
X447264Y349999D02*
X864468D01*
X447488Y349113D02*
X864468D01*
X447535Y348227D02*
X864468D01*
X447411Y347341D02*
X864468D01*
X447099Y346455D02*
X864468D01*
X500295Y345570D02*
X864468D01*
X501421Y344684D02*
X864468D01*
X502066Y343798D02*
X864468D01*
X827670Y342912D02*
X864468D01*
X828735Y342026D02*
X864468D01*
X829289Y341140D02*
X864468D01*
X829564Y340255D02*
X864468D01*
X829621Y339369D02*
X864468D01*
X829470Y338483D02*
X864468D01*
X829082Y337597D02*
X864468D01*
X828353Y336711D02*
X864468D01*
X828019Y335825D02*
X864468D01*
X828888Y334940D02*
X864468D01*
X829371Y334054D02*
X864468D01*
X829594Y333168D02*
X864468D01*
X829606Y332282D02*
X864468D01*
X829406Y331396D02*
X864468D01*
X828956Y330511D02*
X864468D01*
X828115Y329625D02*
X864468D01*
X828242Y328739D02*
X864468D01*
X829023Y327853D02*
X864468D01*
X829440Y326967D02*
X864468D01*
X829615Y326081D02*
X864468D01*
X829580Y325196D02*
X864468D01*
X829330Y324310D02*
X864468D01*
X828812Y323424D02*
X864468D01*
X827831Y322538D02*
X864468D01*
X827141Y321652D02*
X864468D01*
X828355Y320766D02*
X864468D01*
X829084Y319881D02*
X864468D01*
X829471Y318995D02*
X864468D01*
X829621Y318109D02*
X864468D01*
X829563Y317223D02*
X864468D01*
X829288Y316337D02*
X864468D01*
X828733Y315451D02*
X864468D01*
X827666Y314566D02*
X864468D01*
X792628Y313680D02*
X864468D01*
X793702Y312794D02*
X864468D01*
X794156Y311908D02*
X864468D01*
X794291Y311022D02*
X864468D01*
X794155Y310137D02*
X864468D01*
X793700Y309251D02*
X864468D01*
X792623Y308365D02*
X864468D01*
X728420Y307479D02*
X864468D01*
X728938Y306593D02*
X864468D01*
X729187Y305707D02*
X864468D01*
X729221Y304822D02*
X864468D01*
X729046Y303936D02*
X864468D01*
X728627Y303050D02*
X864468D01*
X848589Y302164D02*
X864468D01*
X849733Y301278D02*
X864468D01*
X850375Y300392D02*
X864468D01*
X850747Y299507D02*
X864468D01*
X850916Y298621D02*
X864468D01*
X850906Y297735D02*
X864468D01*
X850715Y296849D02*
X864468D01*
X850318Y295963D02*
X864468D01*
X849636Y295077D02*
X864468D01*
X848391Y294192D02*
X864468D01*
X846648Y293306D02*
X864468D01*
X850415Y292420D02*
X864468D01*
X850873Y291534D02*
X864468D01*
X850886Y290648D02*
X864468D01*
X850886Y289762D02*
X864468D01*
X850886Y288877D02*
X864468D01*
X850886Y287991D02*
X864468D01*
X850886Y287105D02*
X864468D01*
X850886Y286219D02*
X864468D01*
X850882Y285333D02*
X864468D01*
X850509Y284448D02*
X864468D01*
X555966Y283562D02*
X864468D01*
X555511Y282676D02*
X864468D01*
X611149Y281790D02*
X864468D01*
X611864Y280904D02*
X864468D01*
X612164Y280018D02*
X864468D01*
X612178Y279133D02*
X864468D01*
X611912Y278247D02*
X864468D01*
X611258Y277361D02*
X864468D01*
X119783Y276475D02*
X864468D01*
X119783Y275589D02*
X864468D01*
X119783Y274703D02*
X864468D01*
X708702Y273818D02*
X864468D01*
X709355Y272932D02*
X864468D01*
X709619Y272046D02*
X864468D01*
X709604Y271160D02*
X864468D01*
X709304Y270274D02*
X864468D01*
X708587Y269388D02*
X864468D01*
X146745Y268503D02*
X864468D01*
X147877Y267617D02*
X864468D01*
X148822Y266731D02*
X864468D01*
X149627Y265845D02*
X864468D01*
X150318Y264959D02*
X864468D01*
X150913Y264074D02*
X864468D01*
X151425Y263188D02*
X864468D01*
X745729Y262302D02*
X864468D01*
X746593Y261416D02*
X864468D01*
X849062Y260530D02*
X864468D01*
X849985Y259644D02*
X864468D01*
X850524Y258759D02*
X864468D01*
X850824Y257873D02*
X864468D01*
X850932Y256987D02*
X864468D01*
X850863Y256101D02*
X864468D01*
X850608Y255215D02*
X864468D01*
X850129Y254329D02*
X864468D01*
X849314Y253444D02*
X864468D01*
X847584Y252558D02*
X864468D01*
X846748Y251672D02*
X864468D01*
X850659Y250786D02*
X864468D01*
X850886Y249900D02*
X864468D01*
X850886Y249014D02*
X864468D01*
X850886Y248129D02*
X864468D01*
X850886Y247243D02*
X864468D01*
X850886Y246357D02*
X864468D01*
X850886Y245471D02*
X864468D01*
X850886Y244585D02*
X864468D01*
X850832Y243699D02*
X864468D01*
X850144Y242814D02*
X864468D01*
X701280Y241928D02*
X864468D01*
X701280Y241042D02*
X864468D01*
X701280Y240156D02*
X864468D01*
X701280Y239270D02*
X864468D01*
X701280Y238385D02*
X864468D01*
X701280Y237499D02*
X864468D01*
X701280Y236613D02*
X864468D01*
X701280Y235727D02*
X864468D01*
X701280Y234841D02*
X864468D01*
X701280Y233955D02*
X864468D01*
X799185Y233070D02*
X864468D01*
X801060Y232184D02*
X864468D01*
X851024Y231298D02*
X864468D01*
X853256Y230412D02*
X864468D01*
X854825Y229526D02*
X864468D01*
X856062Y228640D02*
X864468D01*
X857083Y227755D02*
X864468D01*
X857946Y226869D02*
X864468D01*
X858685Y225983D02*
X864468D01*
X859321Y225097D02*
X864468D01*
X859868Y224211D02*
X864468D01*
X860338Y223325D02*
X864468D01*
X860737Y222440D02*
X864468D01*
X861072Y221554D02*
X864468D01*
X861347Y220668D02*
X864468D01*
X861565Y219782D02*
X864468D01*
X861728Y218896D02*
X864468D01*
X861839Y218011D02*
X864468D01*
X861898Y217125D02*
X864468D01*
X861907Y216239D02*
X864468D01*
X861864Y215353D02*
X864468D01*
X861770Y214467D02*
X864468D01*
X861624Y213581D02*
X864468D01*
X861425Y212696D02*
X864468D01*
X861169Y211810D02*
X864468D01*
X860855Y210924D02*
X864468D01*
X860477Y210038D02*
X864468D01*
X860032Y209152D02*
X864468D01*
X859511Y208266D02*
X864468D01*
X858906Y207381D02*
X864468D01*
X858203Y206495D02*
X864468D01*
X857384Y205609D02*
X864468D01*
X856420Y204723D02*
X864468D01*
X855263Y203837D02*
X864468D01*
X853823Y202951D02*
X864468D01*
X851880Y202066D02*
X864468D01*
X848187Y201180D02*
X864168D01*
X120377Y586514D02*
X863875D01*
X701280Y200294D02*
X863282D01*
X121263Y587400D02*
X862989D01*
X701280Y199408D02*
X862396D01*
X122149Y588286D02*
X862103D01*
X839639Y459841D02*
X849337D01*
X840058Y465156D02*
X848918D01*
X840867Y460727D02*
X848110D01*
X841017Y464270D02*
X847960D01*
X841366Y461613D02*
X847610D01*
X841429Y463385D02*
X847547D01*
X841534Y462499D02*
X847443D01*
X119783Y293306D02*
X846265D01*
X685143Y251672D02*
X846166D01*
X641673Y527164D02*
X846066D01*
X641398Y528050D02*
X845817D01*
X808721Y536908D02*
X845799D01*
X686220Y252558D02*
X845329D01*
X415116Y555511D02*
X844727D01*
X701280Y201180D02*
X844727D01*
X119783Y294192D02*
X844522D01*
X727845Y302164D02*
X844324D01*
X746966Y260530D02*
X843852D01*
X643203Y528936D02*
X843723D01*
X809585Y536022D02*
X843719D01*
X686675Y253444D02*
X843600D01*
X119783Y295077D02*
X843277D01*
X628935Y301278D02*
X843180D01*
X782454Y518306D02*
X842977D01*
X747041Y259644D02*
X842928D01*
X644164Y529822D02*
X842855D01*
X809958Y535137D02*
X842854D01*
X686811Y254329D02*
X842785D01*
X701280Y242814D02*
X842770D01*
X582603Y295963D02*
X842596D01*
X628830Y300392D02*
X842538D01*
X119783Y292420D02*
X842499D01*
X556102Y284448D02*
X842405D01*
X746841Y258759D02*
X842389D01*
X644578Y530707D02*
X842346D01*
X810033Y534251D02*
X842345D01*
X686675Y255215D02*
X842305D01*
X613914Y250786D02*
X842254D01*
X599801Y296849D02*
X842198D01*
X641717Y526278D02*
X842197D01*
X628416Y299507D02*
X842167D01*
X782439Y519192D02*
X842112D01*
X746294Y257873D02*
X842090D01*
X701280Y243699D02*
X842081D01*
X807838Y531593D02*
X842069D01*
X809833Y533365D02*
X842069D01*
X686221Y256101D02*
X842050D01*
X119783Y291534D02*
X842041D01*
X555967Y285333D02*
X842031D01*
X641663Y525392D02*
X842028D01*
X676831Y524507D02*
X842028D01*
X677695Y523621D02*
X842028D01*
X678068Y522735D02*
X842028D01*
X678143Y521849D02*
X842028D01*
X781425Y520963D02*
X842028D01*
X782140Y520077D02*
X842028D01*
X119783Y290648D02*
X842028D01*
X119783Y289762D02*
X842028D01*
X444253Y288877D02*
X842028D01*
X445889Y287991D02*
X842028D01*
X554439Y287105D02*
X842028D01*
X555513Y286219D02*
X842028D01*
X613048Y249900D02*
X842028D01*
X151626Y249014D02*
X842028D01*
X151148Y248129D02*
X842028D01*
X150592Y247243D02*
X842028D01*
X701182Y246357D02*
X842028D01*
X701280Y245471D02*
X842028D01*
X701280Y244585D02*
X842028D01*
X600588Y297735D02*
X842008D01*
X627455Y298621D02*
X841998D01*
X744846Y256987D02*
X841981D01*
X809286Y532479D02*
X841980D01*
X417953Y585629D02*
X841890D01*
X802133Y231298D02*
X841890D01*
X418809Y556396D02*
X841033D01*
X701280Y202066D02*
X841033D01*
X420185Y584743D02*
X839658D01*
X802877Y230412D02*
X839658D01*
X420752Y557282D02*
X839090D01*
X701280Y202951D02*
X839090D01*
X421754Y583857D02*
X838089D01*
X803409Y229526D02*
X838089D01*
X422192Y558168D02*
X837651D01*
X701280Y203837D02*
X837651D01*
X812080Y459841D02*
X837526D01*
X812499Y465156D02*
X837107D01*
X422991Y582971D02*
X836852D01*
X803782Y228640D02*
X836852D01*
X423349Y559054D02*
X836494D01*
X701280Y204723D02*
X836494D01*
X813308Y460727D02*
X836299D01*
X813457Y464270D02*
X836149D01*
X424012Y582085D02*
X835830D01*
X804022Y227755D02*
X835830D01*
X813807Y461613D02*
X835799D01*
X813870Y463385D02*
X835736D01*
X813975Y462499D02*
X835632D01*
X424313Y559940D02*
X835530D01*
X701280Y205609D02*
X835530D01*
X424875Y581199D02*
X834967D01*
X804141Y226869D02*
X834967D01*
X425132Y560825D02*
X834710D01*
X701280Y206495D02*
X834710D01*
X425614Y580314D02*
X834228D01*
X804147Y225983D02*
X834228D01*
X425835Y561711D02*
X834008D01*
X701280Y207381D02*
X834008D01*
X669402Y579428D02*
X833593D01*
X804040Y225097D02*
X833593D01*
X426440Y562597D02*
X833403D01*
X701280Y208266D02*
X833403D01*
X672015Y578542D02*
X833045D01*
X803814Y224211D02*
X833045D01*
X630410Y563483D02*
X832882D01*
X701280Y209152D02*
X832882D01*
X824904Y427066D02*
X832577D01*
X672933Y577656D02*
X832576D01*
X803457Y223325D02*
X832576D01*
X631323Y564369D02*
X832436D01*
X701280Y210038D02*
X832436D01*
X673478Y576770D02*
X832176D01*
X802943Y222440D02*
X832176D01*
X631840Y565255D02*
X832059D01*
X701280Y210924D02*
X832059D01*
X673789Y575885D02*
X831841D01*
X802226Y221554D02*
X831841D01*
X632111Y566140D02*
X831744D01*
X701280Y211810D02*
X831744D01*
X809943Y574999D02*
X831567D01*
X824914Y220668D02*
X831567D01*
X810235Y567026D02*
X831489D01*
X825414Y212696D02*
X831489D01*
X810502Y574113D02*
X831349D01*
X826130Y219782D02*
X831349D01*
X810532Y567912D02*
X831289D01*
X826395Y213581D02*
X831289D01*
X810532Y573227D02*
X831185D01*
X826813Y218896D02*
X831185D01*
X810532Y568798D02*
X831143D01*
X826973Y214467D02*
X831143D01*
X810532Y572341D02*
X831074D01*
X827219Y218011D02*
X831074D01*
X810532Y569684D02*
X831049D01*
X827307Y215353D02*
X831049D01*
X810532Y571455D02*
X831015D01*
X827423Y217125D02*
X831015D01*
X810532Y570570D02*
X831007D01*
X827451Y216239D02*
X831007D01*
X826847Y419979D02*
X830633D01*
X827257Y426180D02*
X830223D01*
X827828Y420865D02*
X829652D01*
X828039Y425294D02*
X829442D01*
X828372Y421751D02*
X829108D01*
X817029Y427066D02*
X824703D01*
X595866Y321652D02*
X824434D01*
X696824Y314566D02*
X823909D01*
X820780Y342912D02*
X823905D01*
X595731Y322538D02*
X823744D01*
X821225Y329625D02*
X823460D01*
X814318Y328739D02*
X823333D01*
X595730Y320766D02*
X823219D01*
X696809Y315451D02*
X822842D01*
X821845Y342026D02*
X822840D01*
X639565Y323424D02*
X822763D01*
X818973Y419979D02*
X822759D01*
X813589Y327853D02*
X822552D01*
X822162Y330511D02*
X822523D01*
X595275Y319881D02*
X822491D01*
X819383Y426180D02*
X822349D01*
X696510Y316337D02*
X822287D01*
X640352Y324310D02*
X822245D01*
X811882Y326967D02*
X822135D01*
X594198Y318995D02*
X822104D01*
X695795Y317223D02*
X822011D01*
X640688Y325196D02*
X821995D01*
X640733Y326081D02*
X821960D01*
X119783Y318109D02*
X821954D01*
X819954Y420865D02*
X821778D01*
X820165Y425294D02*
X821568D01*
X820498Y421751D02*
X821234D01*
X801199Y220668D02*
X820756D01*
X701280Y212696D02*
X820255D01*
X799479Y219782D02*
X819539D01*
X701280Y213581D02*
X819275D01*
X701280Y218896D02*
X818856D01*
X701280Y214467D02*
X818697D01*
X701280Y218011D02*
X818450D01*
X701280Y215353D02*
X818362D01*
X701280Y217125D02*
X818246D01*
X701280Y216239D02*
X818218D01*
X813891Y342912D02*
X817015D01*
X809155Y427066D02*
X816829D01*
X812866Y335825D02*
X816666D01*
X814706Y329625D02*
X816570D01*
X814573Y336711D02*
X816332D01*
X814955Y342026D02*
X815950D01*
X783928Y334940D02*
X815797D01*
X814926Y330511D02*
X815729D01*
X812906Y334054D02*
X815314D01*
X813971Y333168D02*
X815091D01*
X811099Y419979D02*
X814885D01*
X811509Y426180D02*
X814475D01*
X812080Y420865D02*
X813904D01*
X812291Y425294D02*
X813694D01*
X812624Y421751D02*
X813360D01*
X805976Y335825D02*
X811150D01*
X651172Y489074D02*
X810263D01*
X640502Y326967D02*
X810165D01*
X807001Y342912D02*
X810125D01*
X792395Y459841D02*
X809967D01*
X792814Y465156D02*
X809548D01*
X807683Y336711D02*
X809443D01*
X793897Y483759D02*
X809393D01*
X782967Y334054D02*
X809141D01*
X808065Y342026D02*
X809061D01*
X801281Y427066D02*
X808955D01*
X675285Y488188D02*
X808822D01*
X793623Y460727D02*
X808740D01*
X793772Y464270D02*
X808590D01*
X793112Y484644D02*
X808527D01*
X639905Y327853D02*
X808458D01*
X677307Y487302D02*
X808276D01*
X794122Y461613D02*
X808240D01*
X794185Y463385D02*
X808177D01*
X678135Y485530D02*
X808153D01*
X677904Y486416D02*
X808077D01*
X673816Y333168D02*
X808076D01*
X794290Y462499D02*
X808073D01*
X637883Y328739D02*
X807729D01*
X673030Y332282D02*
X807522D01*
X502656Y329625D02*
X807341D01*
X502345Y331396D02*
X807247D01*
X502590Y330511D02*
X807190D01*
X803225Y419979D02*
X807011D01*
X803635Y426180D02*
X806601D01*
X788153Y531593D02*
X806335D01*
X804206Y420865D02*
X806030D01*
X804417Y425294D02*
X805820D01*
X804750Y421751D02*
X805486D01*
X789036Y536908D02*
X805452D01*
X789601Y532479D02*
X804887D01*
X789900Y536022D02*
X804588D01*
X790148Y533365D02*
X804340D01*
X784342Y335825D02*
X804260D01*
X790273Y535137D02*
X804215D01*
X790348Y534251D02*
X804140D01*
X502448Y342912D02*
X803235D01*
X784447Y336711D02*
X802553D01*
X797980Y574999D02*
X802262D01*
X756555Y342026D02*
X802171D01*
X798561Y567026D02*
X801969D01*
X784280Y337597D02*
X801823D01*
X799342Y574113D02*
X801703D01*
X800063Y573227D02*
X801673D01*
X800486Y572341D02*
X801673D01*
X800577Y569684D02*
X801673D01*
X800230Y568798D02*
X801673D01*
X799623Y567912D02*
X801673D01*
X800698Y571455D02*
X801664D01*
X757420Y341140D02*
X801617D01*
X800877Y570570D02*
X801485D01*
X783782Y338483D02*
X801436D01*
X757793Y340255D02*
X801342D01*
X782560Y339369D02*
X801285D01*
X795415Y427066D02*
X801081D01*
X419644Y419979D02*
X799137D01*
X764262Y426180D02*
X798727D01*
X596258Y420865D02*
X798156D01*
X596598Y425294D02*
X797946D01*
X597045Y421751D02*
X797638D01*
X597195Y424408D02*
X797528D01*
X597381Y422637D02*
X797388D01*
X597426Y423522D02*
X797354D01*
X783585Y233070D02*
X795155D01*
X783879Y219782D02*
X794861D01*
X743998Y574999D02*
X794539D01*
X744290Y567026D02*
X793959D01*
X785460Y232184D02*
X793280D01*
X744557Y574113D02*
X793178D01*
X785599Y220668D02*
X793141D01*
X744587Y567912D02*
X792897D01*
X744587Y573227D02*
X792457D01*
X744587Y568798D02*
X792290D01*
X786533Y231298D02*
X792207D01*
X786626Y221554D02*
X792114D01*
X744587Y572341D02*
X792033D01*
X744587Y569684D02*
X791942D01*
X744587Y571455D02*
X791822D01*
X744587Y570570D02*
X791793D01*
X764838Y431495D02*
X791534D01*
X787277Y230412D02*
X791464D01*
X787343Y222440D02*
X791397D01*
X765045Y427066D02*
X791200D01*
X787809Y229526D02*
X790931D01*
X787857Y223325D02*
X790884D01*
X765355Y430609D02*
X790749D01*
X765463Y427951D02*
X790601D01*
X788182Y228640D02*
X790558D01*
X788214Y224211D02*
X790526D01*
X765604Y429723D02*
X790414D01*
X765638Y428837D02*
X790369D01*
X788422Y227755D02*
X790319D01*
X788440Y225097D02*
X790300D01*
X665151Y459841D02*
X790282D01*
X788541Y226869D02*
X790199D01*
X788547Y225983D02*
X790193D01*
X767032Y308365D02*
X790054D01*
X767038Y313680D02*
X790049D01*
X687691Y465156D02*
X789863D01*
X678090Y484644D02*
X789565D01*
X681951Y480215D02*
X789231D01*
X665076Y460727D02*
X789055D01*
X768109Y309251D02*
X788977D01*
X768111Y312794D02*
X788975D01*
X604316Y464270D02*
X788905D01*
X677753Y483759D02*
X788781D01*
X681497Y481101D02*
X788633D01*
X664703Y461613D02*
X788555D01*
X768564Y310137D02*
X788522D01*
X768565Y311908D02*
X788521D01*
X604084Y463385D02*
X788492D01*
X676967Y482873D02*
X788445D01*
X680424Y481987D02*
X788401D01*
X663839Y462499D02*
X788387D01*
X768701Y311022D02*
X788386D01*
X740909Y531593D02*
X786650D01*
X741792Y536908D02*
X785767D01*
X742357Y532479D02*
X785202D01*
X742656Y536022D02*
X784903D01*
X742904Y533365D02*
X784655D01*
X743029Y535137D02*
X784530D01*
X743104Y534251D02*
X784455D01*
X757867Y339369D02*
X780433D01*
X674153Y334054D02*
X780025D01*
X731148Y233070D02*
X779555D01*
X731346Y219782D02*
X779261D01*
X757668Y338483D02*
X779210D01*
X674198Y334940D02*
X779064D01*
X757121Y337597D02*
X778712D01*
X673967Y335825D02*
X778651D01*
X755672Y336711D02*
X778545D01*
X732591Y232184D02*
X777680D01*
X677943Y520963D02*
X777630D01*
X732710Y220668D02*
X777541D01*
X695860Y516534D02*
X777521D01*
X677397Y520077D02*
X776915D01*
X695785Y517420D02*
X776867D01*
X694548Y519192D02*
X776616D01*
X733535Y231298D02*
X776607D01*
X695412Y518306D02*
X776601D01*
X733619Y221554D02*
X776514D01*
X734214Y230412D02*
X775864D01*
X734275Y222440D02*
X775797D01*
X734708Y229526D02*
X775331D01*
X734753Y223325D02*
X775284D01*
X735058Y228640D02*
X774958D01*
X735088Y224211D02*
X774926D01*
X735284Y227755D02*
X774719D01*
X735301Y225097D02*
X774700D01*
X735397Y226869D02*
X774599D01*
X735403Y225983D02*
X774593D01*
X727442Y308365D02*
X764464D01*
X711920Y313680D02*
X764458D01*
X713002Y309251D02*
X763387D01*
X712993Y312794D02*
X763385D01*
X713446Y310137D02*
X762932D01*
X713447Y311908D02*
X762931D01*
X713583Y311022D02*
X762795D01*
X755985Y432381D02*
X759763D01*
X756388Y426180D02*
X759360D01*
X756964Y431495D02*
X758784D01*
X757171Y427066D02*
X758577D01*
X757508Y430609D02*
X758240D01*
X689005Y468699D02*
X756817D01*
X685569Y474014D02*
X756399D01*
X688507Y469585D02*
X755590D01*
X685942Y473129D02*
X755440D01*
X687284Y470471D02*
X755091D01*
X686017Y472243D02*
X755028D01*
X685817Y471357D02*
X754923D01*
X673370Y336711D02*
X754170D01*
X502631Y342026D02*
X753287D01*
X671348Y337597D02*
X752722D01*
X502641Y341140D02*
X752423D01*
X501507Y338483D02*
X752175D01*
X502477Y340255D02*
X752050D01*
X502119Y339369D02*
X751975D01*
X648607Y432381D02*
X751889D01*
X594576Y426180D02*
X751486D01*
X648562Y431495D02*
X750910D01*
X419309Y427066D02*
X750703D01*
X648226Y430609D02*
X750393D01*
X574841Y427951D02*
X750285D01*
X647439Y429723D02*
X750144D01*
X575495Y428837D02*
X750110D01*
X685148Y256987D02*
X743343D01*
X513445Y262302D02*
X742460D01*
X628769Y257873D02*
X741895D01*
X514310Y261416D02*
X741596D01*
X628270Y258759D02*
X741348D01*
X514683Y260530D02*
X741223D01*
X627048Y259644D02*
X741148D01*
X731066Y531593D02*
X739406D01*
X731949Y536908D02*
X738523D01*
X732515Y532479D02*
X737958D01*
X732814Y536022D02*
X737659D01*
X733062Y533365D02*
X737411D01*
X733187Y535137D02*
X737286D01*
X733261Y534251D02*
X737211D01*
X732035Y574999D02*
X736317D01*
X732616Y567026D02*
X736025D01*
X733397Y574113D02*
X735758D01*
X734118Y573227D02*
X735728D01*
X734541Y572341D02*
X735728D01*
X734632Y569684D02*
X735728D01*
X734285Y568798D02*
X735728D01*
X733678Y567912D02*
X735728D01*
X734753Y571455D02*
X735719D01*
X734933Y570570D02*
X735540D01*
X644683Y531593D02*
X729564D01*
X703295Y536908D02*
X728681D01*
X722193Y574999D02*
X728594D01*
X644517Y532479D02*
X728115D01*
X722773Y567026D02*
X728014D01*
X703295Y536022D02*
X727816D01*
X644018Y533365D02*
X727568D01*
X703274Y535137D02*
X727443D01*
X702763Y534251D02*
X727369D01*
X723554Y574113D02*
X727233D01*
X723836Y567912D02*
X726952D01*
X724276Y573227D02*
X726512D01*
X724442Y568798D02*
X726345D01*
X724699Y572341D02*
X726089D01*
X724790Y569684D02*
X725998D01*
X724911Y571455D02*
X725877D01*
X725090Y570570D02*
X725698D01*
X715558Y233070D02*
X724915D01*
X715756Y219782D02*
X724717D01*
X717000Y232184D02*
X723472D01*
X717120Y220668D02*
X723353D01*
X720552Y308365D02*
X723346D01*
X720955Y302164D02*
X722942D01*
X717944Y231298D02*
X722528D01*
X718028Y221554D02*
X722444D01*
X721531Y307479D02*
X722367D01*
X718623Y230412D02*
X721849D01*
X718685Y222440D02*
X721788D01*
X719118Y229526D02*
X721355D01*
X719162Y223325D02*
X721310D01*
X719468Y228640D02*
X721005D01*
X719498Y224211D02*
X720975D01*
X719693Y227755D02*
X720779D01*
X719711Y225097D02*
X720762D01*
X673913Y574999D02*
X718752D01*
X632184Y567026D02*
X718172D01*
X673866Y574113D02*
X717391D01*
X632069Y567912D02*
X717109D01*
X673641Y573227D02*
X716669D01*
X631750Y568798D02*
X716502D01*
X713662Y308365D02*
X716456D01*
X673208Y572341D02*
X716246D01*
X631166Y569684D02*
X716155D01*
X714065Y302164D02*
X716053D01*
X672484Y571455D02*
X716035D01*
X671156Y570570D02*
X716006D01*
X714641Y307479D02*
X715477D01*
X631854Y496160D02*
X712831D01*
X707562Y401377D02*
X712713D01*
X707903Y388089D02*
X712373D01*
X633302Y497046D02*
X711383D01*
X709261Y400491D02*
X711015D01*
X709364Y388975D02*
X710912D01*
X633849Y497932D02*
X710836D01*
X696558Y313680D02*
X709340D01*
X701280Y233070D02*
X709324D01*
X628769Y302164D02*
X709163D01*
X701280Y219782D02*
X709126D01*
X690261Y308365D02*
X709082D01*
X639308Y307479D02*
X708587D01*
X628270Y303050D02*
X708380D01*
X691338Y309251D02*
X708269D01*
X695904Y312794D02*
X708267D01*
X638441Y306593D02*
X708070D01*
X627048Y303936D02*
X707962D01*
X701280Y232184D02*
X707882D01*
X613680Y305707D02*
X707821D01*
X691793Y310137D02*
X707814D01*
X691814Y311908D02*
X707813D01*
X614639Y304822D02*
X707787D01*
X701280Y220668D02*
X707762D01*
X691929Y311022D02*
X707677D01*
X701280Y231298D02*
X706938D01*
X701280Y221554D02*
X706853D01*
X681566Y503247D02*
X706764D01*
X634048Y498818D02*
X706655D01*
X701280Y230412D02*
X706259D01*
X701280Y222440D02*
X706197D01*
X680605Y502361D02*
X706049D01*
X633974Y499703D02*
X706001D01*
X676174Y401377D02*
X705824D01*
X701280Y229526D02*
X705764D01*
X654386Y501475D02*
X705750D01*
X633601Y500589D02*
X705735D01*
X701280Y223325D02*
X705720D01*
X623945Y388089D02*
X705483D01*
X701293Y228640D02*
X705414D01*
X701326Y224211D02*
X705384D01*
X701629Y227755D02*
X705189D01*
X701655Y225097D02*
X705171D01*
X701799Y226869D02*
X705075D01*
X701808Y225983D02*
X705070D01*
X145345Y269388D02*
X704799D01*
X119783Y273818D02*
X704684D01*
X675975Y400491D02*
X704125D01*
X143481Y270274D02*
X704082D01*
X119783Y272932D02*
X704031D01*
X452828Y388975D02*
X704022D01*
X558936Y394290D02*
X703831D01*
X140262Y271160D02*
X703782D01*
X119783Y272046D02*
X703766D01*
X558925Y395176D02*
X703748D01*
X675428Y399605D02*
X703397D01*
X454056Y389861D02*
X703341D01*
X558737Y393404D02*
X703238D01*
X558701Y396062D02*
X703193D01*
X673980Y398719D02*
X703010D01*
X454555Y390747D02*
X702983D01*
X558287Y392518D02*
X702936D01*
X558219Y396948D02*
X702917D01*
X557314Y397833D02*
X702859D01*
X557446Y391633D02*
X702856D01*
X690172Y552853D02*
X695654D01*
X690503Y543995D02*
X695324D01*
X690952Y534251D02*
X694875D01*
X691224Y542223D02*
X694603D01*
X691365Y551967D02*
X694462D01*
X691395Y544881D02*
X694432D01*
X691463Y535137D02*
X694364D01*
X691484Y551081D02*
X694342D01*
X691484Y550196D02*
X694342D01*
X691484Y549310D02*
X694342D01*
X691484Y548424D02*
X694342D01*
X691484Y547538D02*
X694342D01*
X691484Y546652D02*
X694342D01*
X691484Y545766D02*
X694342D01*
X691484Y541337D02*
X694342D01*
X691484Y540451D02*
X694342D01*
X691484Y539566D02*
X694342D01*
X691484Y538680D02*
X694342D01*
X691484Y537794D02*
X694342D01*
X691484Y536908D02*
X694342D01*
X691484Y536022D02*
X694342D01*
X680441Y317223D02*
X692000D01*
X681156Y316337D02*
X691285D01*
X675948Y519192D02*
X691279D01*
X681455Y315451D02*
X690986D01*
X681470Y314566D02*
X690971D01*
X690266Y313680D02*
X690855D01*
X650584Y518306D02*
X690415D01*
X650384Y517420D02*
X690042D01*
X649838Y516534D02*
X689967D01*
X648389Y515648D02*
X689003D01*
X418214Y510333D02*
X688133D01*
X669592Y308365D02*
X687692D01*
X681204Y313680D02*
X687687D01*
X586446Y514762D02*
X687562D01*
X585132Y511219D02*
X687267D01*
X586613Y513877D02*
X687016D01*
X586093Y512105D02*
X686893D01*
X586507Y512991D02*
X686817D01*
X670668Y309251D02*
X686615D01*
X680549Y312794D02*
X686613D01*
X671123Y310137D02*
X686160D01*
X671124Y311908D02*
X686159D01*
X671260Y311022D02*
X686024D01*
X604271Y465156D02*
X684750D01*
X664676Y552853D02*
X683843D01*
X603936Y466042D02*
X683788D01*
X679008Y543995D02*
X683513D01*
X415587Y468699D02*
X683436D01*
X603151Y466928D02*
X683375D01*
X416816Y467814D02*
X683269D01*
X679303Y534251D02*
X683064D01*
X679288Y542223D02*
X682792D01*
X679475Y551967D02*
X682651D01*
X679632Y544881D02*
X682621D01*
X614288Y251672D02*
X682574D01*
X628935Y256987D02*
X682568D01*
X679670Y535137D02*
X682553D01*
X679673Y551081D02*
X682531D01*
X679673Y550196D02*
X682531D01*
X679673Y549310D02*
X682531D01*
X679673Y548424D02*
X682531D01*
X679673Y547538D02*
X682531D01*
X679673Y546652D02*
X682531D01*
X679673Y545766D02*
X682531D01*
X679669Y541337D02*
X682531D01*
X679673Y540451D02*
X682531D01*
X679673Y539566D02*
X682531D01*
X679673Y538680D02*
X682531D01*
X679673Y537794D02*
X682531D01*
X679673Y536908D02*
X682531D01*
X679673Y536022D02*
X682531D01*
X574570Y469585D02*
X682320D01*
X614364Y252558D02*
X681497D01*
X628830Y256101D02*
X681495D01*
X653310Y474900D02*
X681437D01*
X614165Y253444D02*
X681042D01*
X628416Y255215D02*
X681041D01*
X627455Y254329D02*
X680905D01*
X576019Y470471D02*
X680871D01*
X604304Y474014D02*
X680572D01*
X576566Y471357D02*
X680324D01*
X604038Y473129D02*
X680199D01*
X603384Y472243D02*
X680125D01*
X419761Y507676D02*
X678070D01*
X655324Y476672D02*
X677849D01*
X658393Y481987D02*
X677844D01*
X655253Y502361D02*
X677663D01*
X653517Y506790D02*
X676848D01*
X658502Y477558D02*
X676773D01*
X659108Y481101D02*
X676771D01*
X655627Y503247D02*
X676702D01*
X119783Y317223D02*
X676646D01*
X670670Y312794D02*
X676537D01*
X654958Y505904D02*
X676349D01*
X659157Y478444D02*
X676317D01*
X659408Y480215D02*
X676317D01*
X655702Y504133D02*
X676288D01*
X655504Y505018D02*
X676183D01*
X659422Y479329D02*
X676181D01*
X503742Y316337D02*
X675931D01*
X669597Y313680D02*
X675883D01*
X504526Y315451D02*
X675632D01*
X504862Y314566D02*
X675617D01*
X650625Y488188D02*
X675109D01*
X650509Y519192D02*
X674446D01*
X644614Y524507D02*
X673563D01*
X629723Y482873D02*
X673427D01*
X649176Y487302D02*
X673087D01*
X650136Y520077D02*
X672997D01*
X645329Y523621D02*
X672698D01*
X630509Y483759D02*
X672640D01*
X630863Y486416D02*
X672490D01*
X335448Y398719D02*
X672477D01*
X649272Y520963D02*
X672450D01*
X645628Y522735D02*
X672325D01*
X630846Y484644D02*
X672304D01*
X630891Y485530D02*
X672259D01*
X645643Y521849D02*
X672251D01*
X338810Y404034D02*
X671594D01*
X343733Y543995D02*
X671386D01*
X622135Y337597D02*
X671172D01*
X345769Y542223D02*
X671106D01*
X642796Y534251D02*
X671091D01*
X336043Y399605D02*
X671029D01*
X665749Y551967D02*
X670919D01*
X342369Y544881D02*
X670762D01*
X338283Y403148D02*
X670730D01*
X346559Y541337D02*
X670724D01*
X555798Y535137D02*
X670723D01*
X666203Y551081D02*
X670720D01*
X666339Y550196D02*
X670720D01*
X666202Y549310D02*
X670720D01*
X665747Y548424D02*
X670720D01*
X664670Y547538D02*
X670720D01*
X337659Y546652D02*
X670720D01*
X340574Y545766D02*
X670720D01*
X347239Y540451D02*
X670720D01*
X553260Y539566D02*
X670720D01*
X554476Y538680D02*
X670720D01*
X555159Y537794D02*
X670720D01*
X555566Y536908D02*
X670720D01*
X555769Y536022D02*
X670720D01*
X336623Y400491D02*
X670482D01*
X337743Y402262D02*
X670357D01*
X337190Y401377D02*
X670282D01*
X623817Y332282D02*
X669490D01*
X426250Y579428D02*
X669181D01*
X624157Y336711D02*
X669150D01*
X624604Y333168D02*
X668703D01*
X624754Y335825D02*
X668553D01*
X624940Y334054D02*
X668367D01*
X624985Y334940D02*
X668322D01*
X630172Y570570D02*
X667427D01*
X639682Y308365D02*
X667023D01*
X504906Y313680D02*
X667017D01*
X629936Y578542D02*
X666567D01*
X630542Y571455D02*
X666099D01*
X639757Y309251D02*
X665946D01*
X504674Y312794D02*
X665944D01*
X631079Y577656D02*
X665650D01*
X639559Y310137D02*
X665491D01*
X637572Y311908D02*
X665490D01*
X631395Y572341D02*
X665375D01*
X639013Y311022D02*
X665354D01*
X659055Y452755D02*
X665266D01*
X631700Y576770D02*
X665104D01*
X631881Y573227D02*
X664942D01*
X632045Y575885D02*
X664794D01*
X632128Y574113D02*
X664717D01*
X632181Y574999D02*
X664669D01*
X627754Y447440D02*
X663584D01*
X658919Y451869D02*
X663244D01*
X628541Y448325D02*
X662798D01*
X658464Y450983D02*
X662647D01*
X628877Y449211D02*
X662461D01*
X657387Y450097D02*
X662416D01*
X654828Y547538D02*
X662101D01*
X654833Y552853D02*
X662096D01*
X646184Y457184D02*
X661454D01*
X655905Y548424D02*
X661025D01*
X655907Y551967D02*
X661023D01*
X623091Y462499D02*
X660571D01*
X656360Y549310D02*
X660569D01*
X656360Y551081D02*
X660569D01*
X656496Y550196D02*
X660433D01*
X644961Y458070D02*
X660005D01*
X623955Y461613D02*
X659706D01*
X624203Y458955D02*
X659458D01*
X624328Y460727D02*
X659333D01*
X624403Y459841D02*
X659259D01*
X653450Y450097D02*
X654818D01*
X653455Y455412D02*
X654813D01*
X617707Y481987D02*
X654599D01*
X617160Y481101D02*
X653884D01*
X272134Y547538D02*
X652259D01*
X592985Y552853D02*
X652254D01*
X649383Y506790D02*
X651995D01*
X604290Y474900D02*
X651808D01*
X591608Y548424D02*
X651182D01*
X593397Y551967D02*
X651180D01*
X650252Y501475D02*
X651126D01*
X615712Y480215D02*
X650925D01*
X649710Y450097D02*
X650881D01*
X649715Y455412D02*
X650876D01*
X592835Y549310D02*
X650727D01*
X593502Y551081D02*
X650726D01*
X593335Y550196D02*
X650591D01*
X603990Y475786D02*
X650359D01*
X488277Y479329D02*
X650060D01*
X603275Y476672D02*
X649812D01*
X490299Y478444D02*
X649687D01*
X490896Y477558D02*
X649613D01*
X645249Y506790D02*
X647861D01*
X633587Y487302D02*
X647674D01*
X628922Y450097D02*
X647141D01*
X646118Y501475D02*
X646992D01*
X585948Y515648D02*
X646887D01*
X638765Y492617D02*
X646791D01*
X634304Y488188D02*
X646225D01*
X628691Y450983D02*
X646064D01*
X638532Y491731D02*
X645927D01*
X634604Y489074D02*
X645679D01*
X628094Y451869D02*
X645609D01*
X419409Y435038D02*
X645581D01*
X637934Y490845D02*
X645554D01*
X634883Y489959D02*
X645479D01*
X584725Y516534D02*
X645438D01*
X546528Y517420D02*
X644891D01*
X465217Y519192D02*
X644748D01*
X545570Y518306D02*
X644692D01*
X575761Y429723D02*
X643899D01*
X556863Y506790D02*
X643727D01*
X419780Y434152D02*
X643559D01*
X575746Y430609D02*
X643113D01*
X455159Y433266D02*
X642962D01*
X632737Y501475D02*
X642858D01*
X623656Y458070D02*
X642834D01*
X575447Y431495D02*
X642776D01*
X574732Y432381D02*
X642731D01*
X626072Y452755D02*
X642427D01*
X558304Y505904D02*
X642286D01*
X631097Y502361D02*
X641991D01*
X628911Y505018D02*
X641741D01*
X630897Y503247D02*
X641617D01*
X622208Y457184D02*
X641611D01*
X630352Y504133D02*
X641542D01*
X604125Y453640D02*
X641466D01*
X603877Y456298D02*
X641113D01*
X604324Y454526D02*
X641052D01*
X604250Y455412D02*
X640946D01*
X419730Y520077D02*
X640710D01*
X632953Y534251D02*
X640669D01*
X419046Y520963D02*
X640056D01*
X635158Y522735D02*
X639805D01*
X633931Y521849D02*
X639790D01*
X635657Y523621D02*
X639635D01*
X634176Y533365D02*
X639446D01*
X634322Y529822D02*
X639074D01*
X634674Y532479D02*
X638948D01*
X634735Y530707D02*
X638887D01*
X634841Y531593D02*
X638781D01*
X502551Y328739D02*
X637707D01*
X633361Y528936D02*
X637006D01*
X635917Y524507D02*
X636672D01*
X495038Y528050D02*
X636222D01*
X504076Y311908D02*
X636050D01*
X595277Y323424D02*
X636025D01*
X634349Y527164D02*
X635886D01*
X502262Y327853D02*
X635685D01*
X594203Y324310D02*
X635239D01*
X119783Y306593D02*
X635181D01*
X501746Y326967D02*
X635088D01*
X498975Y325196D02*
X634902D01*
X500883Y326081D02*
X634857D01*
X119783Y311022D02*
X634609D01*
X119783Y307479D02*
X634314D01*
X119783Y310137D02*
X634063D01*
X631042Y495274D02*
X634053D01*
X119783Y308365D02*
X633940D01*
X119783Y309251D02*
X633865D01*
X630706Y494388D02*
X633269D01*
X629920Y493503D02*
X632933D01*
X558659Y492617D02*
X632751D01*
X346717Y521849D02*
X631817D01*
X495052Y527164D02*
X631399D01*
X621142Y534251D02*
X630826D01*
X347375Y522735D02*
X630590D01*
X494787Y526278D02*
X630440D01*
X621550Y528936D02*
X630419D01*
X347941Y523621D02*
X630091D01*
X494132Y525392D02*
X630028D01*
X348427Y524507D02*
X629923D01*
X613090Y491731D02*
X629684D01*
X622365Y533365D02*
X629604D01*
X622511Y529822D02*
X629458D01*
X622863Y532479D02*
X629105D01*
X622924Y530707D02*
X629044D01*
X614048Y490845D02*
X629031D01*
X623030Y531593D02*
X628939D01*
X614565Y489074D02*
X628782D01*
X614460Y489959D02*
X628766D01*
X628041Y488188D02*
X628523D01*
X614398D02*
X627865D01*
X558850Y505018D02*
X627389D01*
X459056Y498818D02*
X627205D01*
X615690Y499703D02*
X626519D01*
X558995Y493503D02*
X626380D01*
X617907Y482873D02*
X626183D01*
X459510Y497932D02*
X626040D01*
X622062Y578542D02*
X625970D01*
X615356Y504133D02*
X625948D01*
X616230Y452755D02*
X625896D01*
X613898Y487302D02*
X625843D01*
X616288Y500589D02*
X625653D01*
X559040Y494388D02*
X625593D01*
X622536Y563483D02*
X625496D01*
X556190Y497046D02*
X625443D01*
X616141Y503247D02*
X625402D01*
X617832Y483759D02*
X625396D01*
X616521Y501475D02*
X625279D01*
X558809Y495274D02*
X625257D01*
X612671Y486416D02*
X625246D01*
X558212Y496160D02*
X625212D01*
X616476Y502361D02*
X625203D01*
X617459Y484644D02*
X625060D01*
X616595Y485530D02*
X625015D01*
X615051Y303936D02*
X624921D01*
X514757Y259644D02*
X624921D01*
X623205Y577656D02*
X624827D01*
X623449Y564369D02*
X624583D01*
X600924Y298621D02*
X624513D01*
X613619Y254329D02*
X624513D01*
X617912Y447440D02*
X624214D01*
X618252Y451869D02*
X623874D01*
X615156Y303050D02*
X623698D01*
X514558Y258759D02*
X623698D01*
X600970Y299507D02*
X623552D01*
X612178Y255215D02*
X623552D01*
X618698Y448325D02*
X623428D01*
X618849Y450983D02*
X623277D01*
X614988Y302164D02*
X623200D01*
X514011Y257873D02*
X623200D01*
X613261Y300392D02*
X623139D01*
X153247Y256101D02*
X623139D01*
X619035Y449211D02*
X623091D01*
X619080Y450097D02*
X623046D01*
X614489Y301278D02*
X623033D01*
X512562Y256987D02*
X623033D01*
X572923Y337597D02*
X621959D01*
X603012Y457184D02*
X620705D01*
X574605Y332282D02*
X620277D01*
X408690Y388089D02*
X620150D01*
X490895Y383660D02*
X620041D01*
X574945Y336711D02*
X619937D01*
X603485Y462499D02*
X619823D01*
X575391Y333168D02*
X619491D01*
X489962Y387203D02*
X619435D01*
X491127Y384546D02*
X619387D01*
X575541Y335825D02*
X619340D01*
X351920Y458070D02*
X619257D01*
X575728Y334054D02*
X619154D01*
X490747Y386318D02*
X619136D01*
X491082Y385432D02*
X619121D01*
X575773Y334940D02*
X619109D01*
X611300Y534251D02*
X619015D01*
X550028Y461613D02*
X618958D01*
X351867Y458955D02*
X618710D01*
X611707Y528936D02*
X618608D01*
X549528Y460727D02*
X618585D01*
X548301Y459841D02*
X618511D01*
X614188Y578542D02*
X618095D01*
X612522Y533365D02*
X617793D01*
X612668Y529822D02*
X617647D01*
X614662Y563483D02*
X617622D01*
X613021Y532479D02*
X617294D01*
X613082Y530707D02*
X617233D01*
X613187Y531593D02*
X617128D01*
X615331Y577656D02*
X616953D01*
X615575Y564369D02*
X616709D01*
X603578Y452755D02*
X616054D01*
X602853Y447440D02*
X614372D01*
X348063Y480215D02*
X614209D01*
X602129Y451869D02*
X614032D01*
X351965Y448325D02*
X613585D01*
X352051Y450983D02*
X613435D01*
X558764Y485530D02*
X613326D01*
X352002Y449211D02*
X613249D01*
X352030Y450097D02*
X613204D01*
X453778Y481101D02*
X612761D01*
X559029Y484644D02*
X612462D01*
X557997Y481987D02*
X612214D01*
X559014Y483759D02*
X612089D01*
X558713Y482873D02*
X612015D01*
X559049Y504133D02*
X611809D01*
X457983Y499703D02*
X611475D01*
X600738Y300392D02*
X611148D01*
X558973Y503247D02*
X611025D01*
X339326Y500589D02*
X610877D01*
X576672Y305707D02*
X610729D01*
X558599Y502361D02*
X610689D01*
X153233Y255215D02*
X610656D01*
X557733Y501475D02*
X610645D01*
X605387Y486416D02*
X610557D01*
X606314Y578542D02*
X610221D01*
X605806Y491731D02*
X610139D01*
X600141Y301278D02*
X609921D01*
X152033Y249900D02*
X609787D01*
X577631Y304822D02*
X609771D01*
X606788Y563483D02*
X609748D01*
X598120Y302164D02*
X609421D01*
X578043Y303936D02*
X609359D01*
X606615Y487302D02*
X609330D01*
X578148Y303050D02*
X609254D01*
X153167Y254329D02*
X609215D01*
X606765Y490845D02*
X609180D01*
X601457Y534251D02*
X609173D01*
X607457Y577656D02*
X609079D01*
X152375Y250786D02*
X608920D01*
X607701Y564369D02*
X608835D01*
X607114Y488188D02*
X608831D01*
X607177Y489959D02*
X608768D01*
X601865Y528936D02*
X608765D01*
X153051Y253444D02*
X608670D01*
X607282Y489074D02*
X608663D01*
X152657Y251672D02*
X608546D01*
X152881Y252558D02*
X608471D01*
X602680Y533365D02*
X607950D01*
X602826Y529822D02*
X607804D01*
X603178Y532479D02*
X607452D01*
X603239Y530707D02*
X607391D01*
X554434Y281790D02*
X607355D01*
X603345Y531593D02*
X607285D01*
X119783Y277361D02*
X607246D01*
X445886Y280904D02*
X606640D01*
X119783Y278247D02*
X606591D01*
X444244Y280018D02*
X606340D01*
X411072Y279133D02*
X606326D01*
X558111Y486416D02*
X603274D01*
X557872Y491731D02*
X602855D01*
X600314Y578542D02*
X602347D01*
X345647Y487302D02*
X602047D01*
X344202Y490845D02*
X601897D01*
X598914Y563483D02*
X601874D01*
X345301Y488188D02*
X601547D01*
X344579Y489959D02*
X601484D01*
X344945Y489074D02*
X601380D01*
X599827Y564369D02*
X600961D01*
X584019Y451869D02*
X600627D01*
X583931Y442125D02*
X600321D01*
X584349Y447440D02*
X599903D01*
X584902Y457184D02*
X599744D01*
X584647Y466928D02*
X599605D01*
X491127Y476672D02*
X599481D01*
X576765Y472243D02*
X599372D01*
X555653Y534251D02*
X599330D01*
X584981Y462499D02*
X599271D01*
X585467Y452755D02*
X599178D01*
X585158Y443011D02*
X599094D01*
X585308Y446554D02*
X598944D01*
X494738Y528936D02*
X598923D01*
X585766Y456298D02*
X598879D01*
X585432Y466042D02*
X598820D01*
X491082Y475786D02*
X598766D01*
X576690Y473129D02*
X598717D01*
X585580Y463385D02*
X598672D01*
X586014Y453640D02*
X598631D01*
X585657Y443896D02*
X598595D01*
X585720Y445668D02*
X598532D01*
X586139Y455412D02*
X598506D01*
X585767Y465156D02*
X598485D01*
X575453Y474900D02*
X598466D01*
X576317Y474014D02*
X598452D01*
X585812Y464270D02*
X598440D01*
X586214Y454526D02*
X598432D01*
X585825Y444782D02*
X598427D01*
X555319Y533365D02*
X598108D01*
X494023Y529822D02*
X597962D01*
X577980Y302164D02*
X597943D01*
X554741Y532479D02*
X597609D01*
X350078Y530707D02*
X597548D01*
X553761Y531593D02*
X597443D01*
X583320Y296849D02*
X596262D01*
X577481Y301278D02*
X595922D01*
X583620Y297735D02*
X595475D01*
X582718Y300392D02*
X595325D01*
X583635Y298621D02*
X595139D01*
X583370Y299507D02*
X595093D01*
X415546Y426180D02*
X594400D01*
X426961Y563483D02*
X594000D01*
X428836Y570570D02*
X593357D01*
X428793Y569684D02*
X593244D01*
X427406Y564369D02*
X593087D01*
X419813Y420865D02*
X592718D01*
X428700Y568798D02*
X592659D01*
X426797Y578542D02*
X592599D01*
X427784Y565255D02*
X592570D01*
X417294Y425294D02*
X592378D01*
X428827Y571455D02*
X592348D01*
X428554Y567912D02*
X592340D01*
X428098Y566140D02*
X592299D01*
X427267Y577656D02*
X592228D01*
X428354Y567026D02*
X592226D01*
X427666Y576770D02*
X592224D01*
X428001Y575885D02*
X592224D01*
X428276Y574999D02*
X592224D01*
X428494Y574113D02*
X592224D01*
X428657Y573227D02*
X592224D01*
X428768Y572341D02*
X592224D01*
X419804Y421751D02*
X591932D01*
X418537Y424408D02*
X591781D01*
X534216Y318995D02*
X591629D01*
X535099Y324310D02*
X591624D01*
X419614Y422637D02*
X591595D01*
X419217Y423522D02*
X591550D01*
X535664Y319881D02*
X590552D01*
X535963Y323424D02*
X590550D01*
X536211Y320766D02*
X590097D01*
X536336Y322538D02*
X590096D01*
X536411Y321652D02*
X589961D01*
X265635Y548424D02*
X589494D01*
X119783Y553739D02*
X589076D01*
X119783Y549310D02*
X588267D01*
X149945Y246357D02*
X588188D01*
X119783Y552853D02*
X588117D01*
X149193Y245471D02*
X588091D01*
X148314Y244585D02*
X588091D01*
X147272Y243699D02*
X588091D01*
X146005Y242814D02*
X588091D01*
X144384Y241928D02*
X588091D01*
X142022Y241042D02*
X588091D01*
X120478Y240156D02*
X588091D01*
X121364Y239270D02*
X588091D01*
X122250Y238385D02*
X588091D01*
X390844Y237499D02*
X588091D01*
X391738Y236613D02*
X588091D01*
X392624Y235727D02*
X588091D01*
X495050Y234841D02*
X588091D01*
X496949Y233955D02*
X588091D01*
X427267Y223325D02*
X588091D01*
X428554Y213581D02*
X588091D01*
X428354Y212696D02*
X588091D01*
X428098Y211810D02*
X588091D01*
X427784Y210924D02*
X588091D01*
X427406Y210038D02*
X588091D01*
X426961Y209152D02*
X588091D01*
X426440Y208266D02*
X588091D01*
X425835Y207381D02*
X588091D01*
X425132Y206495D02*
X588091D01*
X424313Y205609D02*
X588091D01*
X423349Y204723D02*
X588091D01*
X422192Y203837D02*
X588091D01*
X420752Y202951D02*
X588091D01*
X418809Y202066D02*
X588091D01*
X415116Y201180D02*
X588091D01*
X396561Y200294D02*
X588091D01*
X397446Y199408D02*
X588091D01*
X497811Y233070D02*
X588081D01*
X585367Y224211D02*
X587924D01*
X119783Y550196D02*
X587768D01*
X119783Y551967D02*
X587705D01*
X585705Y214467D02*
X587602D01*
X119783Y551081D02*
X587600D01*
X585796Y222440D02*
X587512D01*
X585964Y232184D02*
X587343D01*
X586073Y225097D02*
X587234D01*
X586122Y215353D02*
X587185D01*
X586129Y221554D02*
X587178D01*
X586130Y231298D02*
X587177D01*
X586130Y230412D02*
X587177D01*
X586130Y229526D02*
X587177D01*
X586130Y228640D02*
X587177D01*
X586130Y227755D02*
X587177D01*
X586130Y226869D02*
X587177D01*
X586130Y225983D02*
X587177D01*
X586130Y220668D02*
X587177D01*
X586130Y219782D02*
X587177D01*
X586130Y218896D02*
X587177D01*
X586130Y218011D02*
X587177D01*
X586130Y217125D02*
X587177D01*
X586130Y216239D02*
X587177D01*
X534940Y367715D02*
X584053D01*
X535749Y363286D02*
X583719D01*
X535898Y366829D02*
X583269D01*
X536248Y364172D02*
X583121D01*
X536311Y365944D02*
X582933D01*
X536416Y365058D02*
X582889D01*
X546941Y516534D02*
X582598D01*
X352063Y451869D02*
X582517D01*
X416492Y511219D02*
X582191D01*
X351477Y442125D02*
X581817D01*
X351965Y457184D02*
X581634D01*
X351920Y447440D02*
X581399D01*
X547046Y515648D02*
X581375D01*
X415644Y512105D02*
X581229D01*
X418329Y466928D02*
X581101D01*
X352067Y452755D02*
X581068D01*
X546878Y514762D02*
X580877D01*
X545151Y512991D02*
X580816D01*
X352002Y456298D02*
X580769D01*
X550195Y462499D02*
X580767D01*
X546379Y513877D02*
X580710D01*
X351572Y443011D02*
X580590D01*
X352063Y453640D02*
X580521D01*
X351867Y446554D02*
X580440D01*
X352030Y455412D02*
X580396D01*
X352051Y454526D02*
X580322D01*
X419095Y466042D02*
X580316D01*
X550090Y463385D02*
X580168D01*
X351658Y443896D02*
X580091D01*
X351805Y445668D02*
X580028D01*
X548719Y465156D02*
X579981D01*
X549678Y464270D02*
X579936D01*
X351736Y444782D02*
X579923D01*
X560949Y295963D02*
X578814D01*
X576254Y300392D02*
X578700D01*
X561666Y296849D02*
X578098D01*
X561717Y299507D02*
X578047D01*
X575367Y224211D02*
X577940D01*
X561966Y297735D02*
X577797D01*
X561982Y298621D02*
X577782D01*
X575705Y214467D02*
X577602D01*
X575796Y222440D02*
X577512D01*
X575964Y232184D02*
X577343D01*
X576073Y225097D02*
X577234D01*
X576122Y215353D02*
X577185D01*
X576129Y221554D02*
X577178D01*
X576130Y231298D02*
X577177D01*
X576130Y230412D02*
X577177D01*
X576130Y229526D02*
X577177D01*
X576130Y228640D02*
X577177D01*
X576130Y227755D02*
X577177D01*
X576130Y226869D02*
X577177D01*
X576130Y225983D02*
X577177D01*
X576130Y220668D02*
X577177D01*
X576130Y219782D02*
X577177D01*
X576130Y218896D02*
X577177D01*
X576130Y218011D02*
X577177D01*
X576130Y217125D02*
X577177D01*
X576130Y216239D02*
X577177D01*
X561064Y300392D02*
X574140D01*
X119783Y305707D02*
X573721D01*
X419487Y469585D02*
X573068D01*
X119783Y301278D02*
X572913D01*
X119783Y304822D02*
X572763D01*
X500458Y337597D02*
X572747D01*
X119783Y302164D02*
X572413D01*
X119783Y303936D02*
X572351D01*
X119783Y303050D02*
X572246D01*
X490745Y474900D02*
X572185D01*
X419783Y470471D02*
X571619D01*
X489959Y474014D02*
X571320D01*
X419783Y471357D02*
X571072D01*
X501886Y332282D02*
X571065D01*
X419783Y473129D02*
X570947D01*
X455811Y432381D02*
X570937D01*
X419783Y472243D02*
X570873D01*
X419770Y427951D02*
X570829D01*
X465693Y336711D02*
X570725D01*
X501120Y333168D02*
X570278D01*
X456076Y431495D02*
X570222D01*
X455044Y428837D02*
X570174D01*
X466290Y335825D02*
X570128D01*
X499661Y334054D02*
X569942D01*
X456061Y430609D02*
X569923D01*
X455760Y429723D02*
X569908D01*
X466521Y334940D02*
X569897D01*
X565367Y224211D02*
X567940D01*
X565705Y214467D02*
X567602D01*
X565796Y222440D02*
X567512D01*
X565964Y232184D02*
X567343D01*
X566073Y225097D02*
X567234D01*
X566122Y215353D02*
X567185D01*
X566129Y221554D02*
X567178D01*
X566130Y231298D02*
X567177D01*
X566130Y230412D02*
X567177D01*
X566130Y229526D02*
X567177D01*
X566130Y228640D02*
X567177D01*
X566130Y227755D02*
X567177D01*
X566130Y226869D02*
X567177D01*
X566130Y225983D02*
X567177D01*
X566130Y220668D02*
X567177D01*
X566130Y219782D02*
X567177D01*
X566130Y218896D02*
X567177D01*
X566130Y218011D02*
X567177D01*
X566130Y217125D02*
X567177D01*
X566130Y216239D02*
X567177D01*
X555367Y224211D02*
X557940D01*
X555705Y214467D02*
X557602D01*
X555796Y222440D02*
X557512D01*
X555964Y232184D02*
X557343D01*
X556073Y225097D02*
X557234D01*
X556122Y215353D02*
X557185D01*
X556129Y221554D02*
X557178D01*
X556130Y231298D02*
X557177D01*
X556130Y230412D02*
X557177D01*
X556130Y229526D02*
X557177D01*
X556130Y228640D02*
X557177D01*
X556130Y227755D02*
X557177D01*
X556130Y226869D02*
X557177D01*
X556130Y225983D02*
X557177D01*
X556130Y220668D02*
X557177D01*
X556130Y219782D02*
X557177D01*
X556130Y218896D02*
X557177D01*
X556130Y218011D02*
X557177D01*
X556130Y217125D02*
X557177D01*
X556130Y216239D02*
X557177D01*
X539296Y295963D02*
X557161D01*
X539410Y300392D02*
X557046D01*
X540012Y296849D02*
X556444D01*
X540063Y299507D02*
X556393D01*
X540313Y297735D02*
X556144D01*
X540328Y298621D02*
X556129D01*
X459646Y497046D02*
X556014D01*
X419830Y506790D02*
X555341D01*
X338812Y501475D02*
X554472D01*
X343814Y491731D02*
X554332D01*
X454432Y481987D02*
X554208D01*
X345983Y486416D02*
X554093D01*
X459509Y496160D02*
X553992D01*
X419721Y505904D02*
X553900D01*
X338285Y502361D02*
X553605D01*
X343416Y492617D02*
X553546D01*
X454698Y482873D02*
X553492D01*
X453669Y485530D02*
X553441D01*
X459054Y495274D02*
X553396D01*
X419421Y505018D02*
X553355D01*
X417956Y503247D02*
X553231D01*
X343007Y493503D02*
X553210D01*
X454683Y483759D02*
X553191D01*
X454384Y484644D02*
X553176D01*
X457977Y494388D02*
X553164D01*
X418881Y504133D02*
X553156D01*
X550424Y397833D02*
X552922D01*
X550556Y391633D02*
X552791D01*
X551340Y396948D02*
X552007D01*
X530812Y281790D02*
X551865D01*
X530817Y287105D02*
X551860D01*
X551493Y392518D02*
X551854D01*
X531889Y282676D02*
X550788D01*
X531891Y286219D02*
X550786D01*
X532344Y283562D02*
X550333D01*
X532345Y285333D02*
X550332D01*
X532480Y284448D02*
X550197D01*
X347824Y539566D02*
X549102D01*
X350098Y531593D02*
X548601D01*
X545367Y224211D02*
X547940D01*
X348327Y538680D02*
X547886D01*
X350067Y532479D02*
X547621D01*
X545705Y214467D02*
X547602D01*
X545796Y222440D02*
X547512D01*
X545964Y232184D02*
X547343D01*
X546073Y225097D02*
X547234D01*
X348757Y537794D02*
X547203D01*
X546122Y215353D02*
X547185D01*
X546129Y221554D02*
X547178D01*
X546130Y231298D02*
X547177D01*
X546130Y230412D02*
X547177D01*
X546130Y229526D02*
X547177D01*
X546130Y228640D02*
X547177D01*
X546130Y227755D02*
X547177D01*
X546130Y226869D02*
X547177D01*
X546130Y225983D02*
X547177D01*
X546130Y220668D02*
X547177D01*
X546130Y219782D02*
X547177D01*
X546130Y218896D02*
X547177D01*
X546130Y218011D02*
X547177D01*
X546130Y217125D02*
X547177D01*
X546130Y216239D02*
X547177D01*
X349985Y533365D02*
X547043D01*
X349120Y536908D02*
X546797D01*
X349851Y534251D02*
X546709D01*
X349421Y536022D02*
X546593D01*
X349664Y535137D02*
X546565D01*
X495151Y459841D02*
X546187D01*
X489401Y397833D02*
X546032D01*
X489532Y391633D02*
X545901D01*
X495570Y465156D02*
X545769D01*
X490306Y396948D02*
X545127D01*
X490373Y392518D02*
X545060D01*
X496379Y460727D02*
X544960D01*
X496528Y464270D02*
X544810D01*
X490788Y396062D02*
X544645D01*
X490823Y393404D02*
X544610D01*
X496878Y461613D02*
X544461D01*
X491012Y395176D02*
X544421D01*
X491023Y394290D02*
X544410D01*
X496941Y463385D02*
X544398D01*
X497046Y462499D02*
X544293D01*
X419555Y512991D02*
X543038D01*
X466081Y518306D02*
X542619D01*
X464334Y513877D02*
X541810D01*
X466454Y517420D02*
X541661D01*
X465782Y514762D02*
X541311D01*
X466529Y516534D02*
X541248D01*
X466329Y515648D02*
X541143D01*
X535367Y224211D02*
X537940D01*
X535705Y214467D02*
X537602D01*
X535796Y222440D02*
X537512D01*
X535964Y232184D02*
X537343D01*
X536073Y225097D02*
X537234D01*
X536122Y215353D02*
X537185D01*
X536129Y221554D02*
X537178D01*
X536130Y231298D02*
X537177D01*
X536130Y230412D02*
X537177D01*
X536130Y229526D02*
X537177D01*
X536130Y228640D02*
X537177D01*
X536130Y227755D02*
X537177D01*
X536130Y226869D02*
X537177D01*
X536130Y225983D02*
X537177D01*
X536130Y220668D02*
X537177D01*
X536130Y219782D02*
X537177D01*
X536130Y218896D02*
X537177D01*
X536130Y218011D02*
X537177D01*
X536130Y217125D02*
X537177D01*
X536130Y216239D02*
X537177D01*
X119783Y295963D02*
X535507D01*
X119783Y300392D02*
X535393D01*
X119783Y296849D02*
X534791D01*
X119783Y299507D02*
X534740D01*
X119783Y297735D02*
X534490D01*
X119783Y298621D02*
X534475D01*
X119783Y318995D02*
X532713D01*
X344837Y362400D02*
X532408D01*
X481240Y367715D02*
X531989D01*
X468463Y324310D02*
X531830D01*
X119783Y319881D02*
X531265D01*
X345766Y363286D02*
X531181D01*
X481284Y366829D02*
X531031D01*
X468477Y323424D02*
X530966D01*
X460791Y320766D02*
X530718D01*
X346557Y364172D02*
X530681D01*
X481052Y365944D02*
X530618D01*
X468212Y322538D02*
X530593D01*
X467557Y321652D02*
X530518D01*
X480454Y365058D02*
X530513D01*
X446699Y281790D02*
X528243D01*
X446701Y287105D02*
X528238D01*
X525367Y224211D02*
X527940D01*
X525705Y214467D02*
X527602D01*
X525796Y222440D02*
X527512D01*
X525964Y232184D02*
X527343D01*
X526073Y225097D02*
X527234D01*
X526122Y215353D02*
X527185D01*
X526129Y221554D02*
X527178D01*
X526130Y231298D02*
X527177D01*
X526130Y230412D02*
X527177D01*
X526130Y229526D02*
X527177D01*
X526130Y228640D02*
X527177D01*
X526130Y227755D02*
X527177D01*
X526130Y226869D02*
X527177D01*
X526130Y225983D02*
X527177D01*
X526130Y220668D02*
X527177D01*
X526130Y219782D02*
X527177D01*
X526130Y218896D02*
X527177D01*
X526130Y218011D02*
X527177D01*
X526130Y217125D02*
X527177D01*
X526130Y216239D02*
X527177D01*
X447186Y282676D02*
X527166D01*
X447187Y286219D02*
X527164D01*
X447454Y283562D02*
X526711D01*
X447454Y285333D02*
X526710D01*
X447539Y284448D02*
X526575D01*
X426797Y224211D02*
X517940D01*
X428700Y214467D02*
X517602D01*
X427666Y222440D02*
X517512D01*
X498326Y232184D02*
X517343D01*
X426250Y225097D02*
X517234D01*
X428793Y215353D02*
X517185D01*
X428001Y221554D02*
X517178D01*
X498615Y231298D02*
X517177D01*
X498719Y230412D02*
X517177D01*
X498653Y229526D02*
X517177D01*
X498407Y228640D02*
X517177D01*
X497947Y227755D02*
X517177D01*
X497181Y226869D02*
X517177D01*
X495717Y225983D02*
X517177D01*
X428276Y220668D02*
X517177D01*
X428494Y219782D02*
X517177D01*
X428657Y218896D02*
X517177D01*
X428768Y218011D02*
X517177D01*
X428827Y217125D02*
X517177D01*
X428836Y216239D02*
X517177D01*
X153210Y256987D02*
X511060D01*
X151862Y262302D02*
X510177D01*
X153122Y257873D02*
X509611D01*
X152232Y261416D02*
X509312D01*
X152982Y258759D02*
X509064D01*
X152540Y260530D02*
X508939D01*
X152789Y259644D02*
X508865D01*
X119783Y316337D02*
X500195D01*
X119783Y311908D02*
X499861D01*
X119783Y315451D02*
X499411D01*
X119783Y312794D02*
X499263D01*
X119783Y314566D02*
X499075D01*
X119783Y313680D02*
X499031D01*
X468163Y325196D02*
X497088D01*
X466476Y334054D02*
X496402D01*
X446553Y345570D02*
X495768D01*
X463671Y337597D02*
X495605D01*
X467449Y326081D02*
X495180D01*
X466139Y333168D02*
X494943D01*
X445634Y344684D02*
X494642D01*
X447145Y338483D02*
X494556D01*
X119783Y326967D02*
X494317D01*
X465353Y332282D02*
X494177D01*
X119783Y343798D02*
X493997D01*
X446630Y339369D02*
X493944D01*
X119783Y327853D02*
X493801D01*
X119783Y331396D02*
X493718D01*
X119783Y342912D02*
X493615D01*
X445768Y340255D02*
X493586D01*
X119783Y328739D02*
X493512D01*
X119783Y330511D02*
X493473D01*
X119783Y342026D02*
X493432D01*
X443869Y341140D02*
X493422D01*
X119783Y329625D02*
X493407D01*
X393509Y234841D02*
X493139D01*
X417812Y459841D02*
X493038D01*
X419545Y465156D02*
X492619D01*
X425614Y225983D02*
X492472D01*
X418802Y460727D02*
X491810D01*
X419778Y464270D02*
X491661D01*
X419374Y461613D02*
X491311D01*
X419826Y463385D02*
X491248D01*
X394395Y233955D02*
X491240D01*
X419698Y462499D02*
X491143D01*
X424875Y226869D02*
X491008D01*
X395178Y233070D02*
X490378D01*
X424012Y227755D02*
X490242D01*
X350007Y529822D02*
X490229D01*
X348842Y525392D02*
X490120D01*
X395374Y232184D02*
X489863D01*
X422991Y228640D02*
X489782D01*
X417953Y231298D02*
X489574D01*
X421754Y229526D02*
X489536D01*
X349885Y528936D02*
X489514D01*
X420185Y230412D02*
X489470D01*
X349191Y526278D02*
X489465D01*
X454384Y440353D02*
X489368D01*
X349709Y528050D02*
X489214D01*
X349479Y527164D02*
X489200D01*
X350582Y435924D02*
X489034D01*
X454683Y439467D02*
X488584D01*
X453778Y436810D02*
X488436D01*
X454698Y438581D02*
X488248D01*
X454432Y437696D02*
X488204D01*
X348322Y479329D02*
X488101D01*
X419783Y474014D02*
X486419D01*
X342700Y387203D02*
X486416D01*
X347377Y382774D02*
X486082D01*
X348572Y478444D02*
X486079D01*
X419783Y474900D02*
X485633D01*
X343997Y386318D02*
X485631D01*
X346719Y383660D02*
X485483D01*
X419195Y477558D02*
X485482D01*
X419783Y475786D02*
X485296D01*
X345060Y385432D02*
X485296D01*
X345955Y384546D02*
X485251D01*
X419754Y476672D02*
X485251D01*
X481527Y397833D02*
X485009D01*
X481658Y391633D02*
X484877D01*
X482432Y396948D02*
X484104D01*
X482499Y392518D02*
X484036D01*
X483024Y396062D02*
X483511D01*
X472669Y397833D02*
X477135D01*
X472800Y391633D02*
X477003D01*
X469293Y369487D02*
X476573D01*
X469627Y365058D02*
X476239D01*
X473573Y396948D02*
X476230D01*
X473641Y392518D02*
X476162D01*
X470078Y368601D02*
X475789D01*
X474056Y396062D02*
X475747D01*
X474091Y393404D02*
X475712D01*
X470225Y365944D02*
X475641D01*
X474280Y395176D02*
X475524D01*
X474291Y394290D02*
X475512D01*
X470413Y367715D02*
X475453D01*
X470458Y366829D02*
X475409D01*
X334839Y397833D02*
X468276D01*
X454723Y391633D02*
X468145D01*
X334215Y396948D02*
X467371D01*
X454618Y392518D02*
X467304D01*
X333577Y396062D02*
X466889D01*
X454205Y393404D02*
X466854D01*
X409176Y395176D02*
X466665D01*
X453247Y394290D02*
X466654D01*
X349420Y369487D02*
X465746D01*
X347237Y365058D02*
X465412D01*
X349119Y368601D02*
X464962D01*
X347822Y365944D02*
X464814D01*
X348756Y367715D02*
X464626D01*
X348326Y366829D02*
X464582D01*
X461674Y326081D02*
X463654D01*
X462239Y321652D02*
X463545D01*
X456781Y337597D02*
X463495D01*
X419783Y513877D02*
X462831D01*
X419783Y519192D02*
X461948D01*
X458463Y332282D02*
X461813D01*
X458803Y336711D02*
X461473D01*
X419783Y514762D02*
X461383D01*
X419783Y518306D02*
X461084D01*
X459249Y333168D02*
X461026D01*
X459400Y335825D02*
X460876D01*
X419783Y515648D02*
X460836D01*
X419783Y517420D02*
X460711D01*
X459586Y334054D02*
X460690D01*
X459631Y334940D02*
X460645D01*
X419783Y516534D02*
X460637D01*
X119783Y320766D02*
X459288D01*
X455638Y326081D02*
X458405D01*
X455746Y321652D02*
X457840D01*
X456352Y325196D02*
X457541D01*
X456401Y322538D02*
X457292D01*
X447434Y337597D02*
X456605D01*
X342587Y494388D02*
X455408D01*
X339828Y499703D02*
X455403D01*
X444536Y332282D02*
X454923D01*
X447538Y336711D02*
X454583D01*
X342156Y495274D02*
X454332D01*
X340317Y498818D02*
X454330D01*
X445999Y333168D02*
X454136D01*
X447472Y335825D02*
X453986D01*
X341714Y496160D02*
X453877D01*
X340795Y497932D02*
X453876D01*
X446766Y334054D02*
X453800D01*
X447226Y334940D02*
X453755D01*
X341260Y497046D02*
X453740D01*
X119783Y326081D02*
X451843D01*
X119783Y321652D02*
X451734D01*
X419783Y428837D02*
X451255D01*
X419783Y433266D02*
X451141D01*
X119783Y325196D02*
X451128D01*
X119783Y322538D02*
X451080D01*
X119783Y324310D02*
X450828D01*
X119783Y323424D02*
X450814D01*
X410151Y388975D02*
X450715D01*
X419783Y429723D02*
X450539D01*
X419783Y432381D02*
X450488D01*
X410343Y394290D02*
X450296D01*
X419783Y430609D02*
X450238D01*
X419783Y431495D02*
X450223D01*
X346309Y485530D02*
X449874D01*
X351375Y441239D02*
X449874D01*
X347794Y481101D02*
X449766D01*
X350736Y436810D02*
X449766D01*
X410832Y389861D02*
X449488D01*
X410936Y393404D02*
X449338D01*
X346626Y484644D02*
X449159D01*
X351264Y440353D02*
X449159D01*
X347516Y481987D02*
X449111D01*
X350880Y437696D02*
X449111D01*
X411190Y390747D02*
X448988D01*
X411238Y392518D02*
X448925D01*
X346932Y483759D02*
X448860D01*
X351144Y439467D02*
X448860D01*
X347229Y482873D02*
X448845D01*
X351017Y438581D02*
X448845D01*
X411318Y391633D02*
X448821D01*
X119783Y341140D02*
X441958D01*
X412535Y280018D02*
X441582D01*
X119783Y288877D02*
X441574D01*
X119783Y332282D02*
X441291D01*
X413484Y352656D02*
X441043D01*
X119783Y344684D02*
X440193D01*
X119783Y340255D02*
X440059D01*
X413302Y280904D02*
X439941D01*
X410404Y287991D02*
X439938D01*
X119783Y333168D02*
X439827D01*
X413865Y351770D02*
X439718D01*
X119783Y345570D02*
X439274D01*
X119783Y339369D02*
X439197D01*
X413761Y281790D02*
X439128D01*
X412303Y287105D02*
X439126D01*
X119783Y334054D02*
X439061D01*
X414049Y350885D02*
X438995D01*
X411876Y346455D02*
X438728D01*
X119783Y338483D02*
X438682D01*
X414007Y282676D02*
X438641D01*
X413165Y286219D02*
X438640D01*
X119783Y334940D02*
X438601D01*
X414058Y349999D02*
X438563D01*
X412925Y347341D02*
X438416D01*
X119783Y337597D02*
X438393D01*
X414074Y283562D02*
X438373D01*
X413681Y285333D02*
X438373D01*
X119783Y335825D02*
X438355D01*
X413894Y349113D02*
X438339D01*
X413536Y348227D02*
X438292D01*
X119783Y336711D02*
X438288D01*
X413969Y284448D02*
X438287D01*
X348322Y426180D02*
X415163D01*
X344944Y416436D02*
X415153D01*
X350736Y468699D02*
X415122D01*
X331567Y512105D02*
X415065D01*
X332254Y511219D02*
X414217D01*
X350881Y467814D02*
X413893D01*
X344578Y415550D02*
X413634D01*
X348062Y425294D02*
X413414D01*
X345300Y417322D02*
X413226D01*
X340793Y407577D02*
X413054D01*
X351806Y459841D02*
X412897D01*
X337745Y503247D02*
X412753D01*
X332924Y510333D02*
X412494D01*
X351017Y466928D02*
X412380D01*
X344201Y414664D02*
X412273D01*
X347794Y424408D02*
X412172D01*
X345646Y418207D02*
X412080D01*
X341259Y408463D02*
X411991D01*
X351736Y460727D02*
X411907D01*
X337192Y504133D02*
X411828D01*
X333578Y509448D02*
X411681D01*
X345953Y520963D02*
X411663D01*
X139525Y555511D02*
X411656D01*
X395675Y201180D02*
X411656D01*
X351145Y466042D02*
X411614D01*
X343813Y413778D02*
X411551D01*
X348813Y477558D02*
X411514D01*
X347516Y423522D02*
X411492D01*
X345982Y419093D02*
X411437D01*
X348572Y427066D02*
X411399D01*
X341713Y409349D02*
X411384D01*
X351658Y461613D02*
X411335D01*
X350421Y435038D02*
X411300D01*
X336625Y505018D02*
X411288D01*
X350583Y469585D02*
X411221D01*
X334217Y508562D02*
X411202D01*
X351264Y465156D02*
X411164D01*
X330864Y512991D02*
X411153D01*
X343415Y412892D02*
X411128D01*
X347228Y422637D02*
X411095D01*
X346308Y419979D02*
X411065D01*
X342155Y410235D02*
X411037D01*
X351572Y462499D02*
X411011D01*
X336045Y505904D02*
X410988D01*
X345057Y520077D02*
X410978D01*
X349045Y476672D02*
X410955D01*
X334841Y507676D02*
X410948D01*
X348813Y427951D02*
X410939D01*
X351375Y464270D02*
X410931D01*
X350250Y434152D02*
X410928D01*
X343994Y519192D02*
X410925D01*
X342696Y518306D02*
X410925D01*
X341022Y517420D02*
X410925D01*
X338510Y516534D02*
X410925D01*
X328649Y515648D02*
X410925D01*
X329405Y514762D02*
X410925D01*
X330143Y513877D02*
X410925D01*
X349268Y475786D02*
X410925D01*
X349482Y474900D02*
X410925D01*
X349688Y474014D02*
X410925D01*
X349884Y473129D02*
X410925D01*
X350072Y472243D02*
X410925D01*
X350251Y471357D02*
X410925D01*
X350421Y470471D02*
X410925D01*
X350071Y433266D02*
X410925D01*
X349884Y432381D02*
X410925D01*
X349687Y431495D02*
X410925D01*
X349482Y430609D02*
X410925D01*
X349268Y429723D02*
X410925D01*
X349045Y428837D02*
X410925D01*
X343006Y412007D02*
X410917D01*
X346931Y421751D02*
X410905D01*
X346625Y420865D02*
X410895D01*
X342586Y411121D02*
X410888D01*
X351478Y463385D02*
X410882D01*
X335450Y506790D02*
X410879D01*
X142362Y585629D02*
X408819D01*
X395374Y231298D02*
X408819D01*
X119783Y287991D02*
X408493D01*
X143219Y556396D02*
X407962D01*
X395374Y202066D02*
X407962D01*
X119783Y279133D02*
X407826D01*
X119783Y354428D02*
X407185D01*
X119783Y346455D02*
X407022D01*
X119783Y287105D02*
X406595D01*
X144594Y584743D02*
X406587D01*
X395374Y230412D02*
X406587D01*
X119783Y280018D02*
X406363D01*
X341027Y388089D02*
X406271D01*
X119783Y353542D02*
X406059D01*
X145162Y557282D02*
X406019D01*
X395374Y202951D02*
X406019D01*
X119783Y347341D02*
X405973D01*
X332922Y395176D02*
X405784D01*
X119783Y286219D02*
X405732D01*
X119783Y280904D02*
X405596D01*
X119783Y352656D02*
X405414D01*
X119783Y348227D02*
X405362D01*
X119783Y285333D02*
X405217D01*
X119783Y281790D02*
X405137D01*
X119783Y351770D02*
X405032D01*
X146163Y583857D02*
X405018D01*
X395374Y229526D02*
X405018D01*
X119783Y349113D02*
X405004D01*
X119783Y284448D02*
X404928D01*
X119783Y282676D02*
X404891D01*
X119783Y350885D02*
X404849D01*
X119783Y349999D02*
X404840D01*
X119783Y283562D02*
X404824D01*
X338519Y388975D02*
X404810D01*
X332252Y394290D02*
X404618D01*
X146601Y558168D02*
X404580D01*
X395374Y203837D02*
X404580D01*
X328646Y389861D02*
X404129D01*
X331565Y393404D02*
X404025D01*
X147400Y582971D02*
X403781D01*
X395374Y228640D02*
X403781D01*
X329403Y390747D02*
X403770D01*
X330862Y392518D02*
X403723D01*
X330141Y391633D02*
X403643D01*
X147758Y559054D02*
X403423D01*
X395374Y204723D02*
X403423D01*
X148422Y582085D02*
X402760D01*
X395374Y227755D02*
X402760D01*
X148722Y559940D02*
X402459D01*
X395374Y205609D02*
X402459D01*
X149285Y581199D02*
X401896D01*
X395374Y226869D02*
X401896D01*
X149541Y560825D02*
X401640D01*
X395374Y206495D02*
X401640D01*
X150024Y580314D02*
X401157D01*
X395374Y225983D02*
X401157D01*
X150244Y561711D02*
X400937D01*
X395374Y207381D02*
X400937D01*
X150659Y579428D02*
X400522D01*
X395374Y225097D02*
X400522D01*
X150849Y562597D02*
X400332D01*
X395374Y208266D02*
X400332D01*
X151207Y578542D02*
X399974D01*
X395374Y224211D02*
X399974D01*
X151370Y563483D02*
X399811D01*
X395374Y209152D02*
X399811D01*
X151676Y577656D02*
X399505D01*
X395374Y223325D02*
X399505D01*
X151816Y564369D02*
X399365D01*
X395374Y210038D02*
X399365D01*
X152076Y576770D02*
X399105D01*
X395374Y222440D02*
X399105D01*
X152193Y565255D02*
X398988D01*
X395374Y210924D02*
X398988D01*
X152410Y575885D02*
X398771D01*
X395374Y221554D02*
X398771D01*
X152508Y566140D02*
X398673D01*
X395374Y211810D02*
X398673D01*
X152685Y574999D02*
X398496D01*
X395374Y220668D02*
X398496D01*
X152763Y567026D02*
X398418D01*
X395374Y212696D02*
X398418D01*
X152903Y574113D02*
X398278D01*
X395374Y219782D02*
X398278D01*
X152963Y567912D02*
X398218D01*
X395374Y213581D02*
X398218D01*
X153067Y573227D02*
X398114D01*
X395374Y218896D02*
X398114D01*
X153109Y568798D02*
X398072D01*
X395374Y214467D02*
X398072D01*
X153177Y572341D02*
X398004D01*
X395374Y218011D02*
X398004D01*
X153203Y569684D02*
X397978D01*
X395374Y215353D02*
X397978D01*
X153237Y571455D02*
X397944D01*
X395374Y217125D02*
X397944D01*
X153245Y570570D02*
X397936D01*
X395374Y216239D02*
X397936D01*
X276642Y358857D02*
X331646D01*
X276654Y546652D02*
X331633D01*
X327873Y516534D02*
X330782D01*
X327871Y388975D02*
X330772D01*
X280310Y359743D02*
X328724D01*
X280320Y545766D02*
X328717D01*
X283466Y360629D02*
X326927D01*
X283475Y544881D02*
X326923D01*
X286270Y361514D02*
X325562D01*
X286278Y543995D02*
X325559D01*
X288813Y362400D02*
X324454D01*
X288820Y543109D02*
X324451D01*
X291150Y363286D02*
X323525D01*
X291157Y542223D02*
X323523D01*
X293321Y364172D02*
X322734D01*
X293327Y541337D02*
X322732D01*
X295352Y365058D02*
X322054D01*
X295358Y540451D02*
X322052D01*
X297265Y365944D02*
X321469D01*
X297271Y539566D02*
X321467D01*
X299076Y366829D02*
X320966D01*
X299081Y538680D02*
X320964D01*
X300795Y367715D02*
X320536D01*
X300800Y537794D02*
X320535D01*
X318921Y525392D02*
X320449D01*
X318918Y380117D02*
X320448D01*
X302435Y368601D02*
X320173D01*
X302440Y536908D02*
X320172D01*
X317885Y526278D02*
X320100D01*
X317882Y379231D02*
X320100D01*
X304002Y369487D02*
X319871D01*
X304007Y536022D02*
X319871D01*
X316819Y527164D02*
X319813D01*
X316816Y378345D02*
X319812D01*
X305504Y370373D02*
X319628D01*
X305509Y535137D02*
X319628D01*
X315721Y528050D02*
X319582D01*
X315717Y377459D02*
X319581D01*
X306947Y371259D02*
X319441D01*
X306951Y534251D02*
X319440D01*
X314588Y528936D02*
X319406D01*
X314585Y376574D02*
X319406D01*
X308335Y372144D02*
X319307D01*
X308339Y533365D02*
X319306D01*
X313420Y529822D02*
X319284D01*
X313416Y375688D02*
X319284D01*
X309672Y373030D02*
X319224D01*
X309676Y532479D02*
X319224D01*
X312214Y530707D02*
X319213D01*
X312210Y374802D02*
X319213D01*
X310963Y373916D02*
X319193D01*
X310966Y531593D02*
X319193D01*
X119783Y357085D02*
X246202D01*
X119783Y548424D02*
X246176D01*
X119783Y357971D02*
X239692D01*
X119783Y547538D02*
X239677D01*
X180165Y358857D02*
X235169D01*
X180178Y546652D02*
X235157D01*
X183087Y359743D02*
X231501D01*
X183094Y545766D02*
X231491D01*
X184884Y360629D02*
X228345D01*
X184888Y544881D02*
X228336D01*
X186249Y361514D02*
X225541D01*
X186252Y543995D02*
X225533D01*
X187357Y362400D02*
X222998D01*
X187360Y543109D02*
X222991D01*
X188286Y363286D02*
X220661D01*
X188288Y542223D02*
X220654D01*
X189077Y364172D02*
X218490D01*
X189079Y541337D02*
X218484D01*
X189757Y365058D02*
X216459D01*
X189759Y540451D02*
X216453D01*
X190342Y365944D02*
X214546D01*
X190344Y539566D02*
X214540D01*
X190845Y366829D02*
X212735D01*
X190847Y538680D02*
X212730D01*
X191275Y367715D02*
X211016D01*
X191277Y537794D02*
X211011D01*
X191638Y368601D02*
X209376D01*
X191639Y536908D02*
X209371D01*
X191940Y369487D02*
X207809D01*
X191940Y536022D02*
X207804D01*
X192183Y370373D02*
X206307D01*
X192183Y535137D02*
X206302D01*
X192370Y371259D02*
X204864D01*
X192371Y534251D02*
X204860D01*
X192504Y372144D02*
X203476D01*
X192505Y533365D02*
X203473D01*
X192587Y373030D02*
X202139D01*
X192587Y532479D02*
X202135D01*
X192618Y373916D02*
X200848D01*
X192618Y531593D02*
X200845D01*
X192598Y374802D02*
X199601D01*
X192598Y530707D02*
X199598D01*
X192527Y375688D02*
X198395D01*
X192527Y529822D02*
X198391D01*
X192405Y376574D02*
X197226D01*
X192405Y528936D02*
X197223D01*
X192230Y377459D02*
X196094D01*
X192229Y528050D02*
X196090D01*
X191999Y378345D02*
X194995D01*
X191998Y527164D02*
X194992D01*
X191711Y379231D02*
X193929D01*
X191711Y526278D02*
X193926D01*
X191363Y380117D02*
X192893D01*
X191362Y525392D02*
X192890D01*
X181039Y388975D02*
X183940D01*
X181029Y516534D02*
X183938D01*
X119783Y389861D02*
X183165D01*
X119783Y515648D02*
X183162D01*
X119783Y390747D02*
X182408D01*
X119783Y514762D02*
X182406D01*
X119783Y391633D02*
X181670D01*
X119783Y513877D02*
X181668D01*
X119783Y392518D02*
X180949D01*
X119783Y512991D02*
X180947D01*
X119783Y393404D02*
X180246D01*
X119783Y512105D02*
X180244D01*
X119783Y394290D02*
X179559D01*
X119783Y511219D02*
X179557D01*
X119783Y395176D02*
X178889D01*
X119783Y510333D02*
X178887D01*
X119783Y396062D02*
X178234D01*
X119783Y509448D02*
X178233D01*
X119783Y396948D02*
X177596D01*
X119783Y508562D02*
X177594D01*
X119783Y397833D02*
X176972D01*
X119783Y507676D02*
X176970D01*
X119783Y398719D02*
X176363D01*
X119783Y506790D02*
X176361D01*
X119783Y399605D02*
X175768D01*
X119783Y505904D02*
X175766D01*
X119783Y400491D02*
X175188D01*
X119783Y505018D02*
X175186D01*
X119783Y401377D02*
X174621D01*
X119783Y504133D02*
X174619D01*
X119783Y358857D02*
X174165D01*
X119783Y546652D02*
X174152D01*
X119783Y402262D02*
X174068D01*
X119783Y503247D02*
X174066D01*
X119783Y403148D02*
X173528D01*
X119783Y502361D02*
X173526D01*
X119783Y516534D02*
X173302D01*
X119783Y388975D02*
X173292D01*
X119783Y404034D02*
X173001D01*
X119783Y501475D02*
X172999D01*
X119783Y404920D02*
X172486D01*
X119783Y500589D02*
X172485D01*
X119783Y405806D02*
X171985D01*
X119783Y499703D02*
X171983D01*
X119783Y406692D02*
X171495D01*
X119783Y498818D02*
X171494D01*
X119783Y359743D02*
X171243D01*
X119783Y545766D02*
X171237D01*
X119783Y407577D02*
X171018D01*
X119783Y497932D02*
X171016D01*
X119783Y517420D02*
X170789D01*
X119783Y388089D02*
X170784D01*
X119783Y408463D02*
X170552D01*
X119783Y497046D02*
X170551D01*
X119783Y409349D02*
X170098D01*
X119783Y496160D02*
X170097D01*
X119783Y410235D02*
X169656D01*
X119783Y495274D02*
X169655D01*
X119783Y360629D02*
X169447D01*
X119783Y544881D02*
X169442D01*
X119783Y411121D02*
X169225D01*
X119783Y494388D02*
X169224D01*
X119783Y518306D02*
X169115D01*
X119783Y387203D02*
X169111D01*
X119783Y412007D02*
X168805D01*
X119783Y493503D02*
X168804D01*
X119783Y412892D02*
X168396D01*
X119783Y492617D02*
X168395D01*
X119783Y361514D02*
X168082D01*
X119783Y543995D02*
X168079D01*
X119783Y413778D02*
X167998D01*
X119783Y491731D02*
X167997D01*
X119783Y519192D02*
X167817D01*
X119783Y386318D02*
X167814D01*
X119783Y414664D02*
X167610D01*
X119783Y490845D02*
X167609D01*
X119783Y415550D02*
X167233D01*
X119783Y489959D02*
X167232D01*
X119783Y362400D02*
X166974D01*
X119783Y543109D02*
X166971D01*
X119783Y416436D02*
X166867D01*
X119783Y489074D02*
X166866D01*
X119783Y520077D02*
X166754D01*
X119783Y385432D02*
X166751D01*
X119783Y417322D02*
X166511D01*
X119783Y488188D02*
X166510D01*
X119783Y418207D02*
X166165D01*
X119783Y487302D02*
X166164D01*
X119783Y363286D02*
X166045D01*
X119783Y542223D02*
X166042D01*
X119783Y520963D02*
X165858D01*
X119783Y384546D02*
X165856D01*
X119783Y419093D02*
X165829D01*
X119783Y486416D02*
X165828D01*
X119783Y419979D02*
X165503D01*
X119783Y485530D02*
X165502D01*
X119783Y364172D02*
X165254D01*
X119783Y541337D02*
X165252D01*
X119783Y420865D02*
X165186D01*
X119783Y484644D02*
X165185D01*
X119783Y521849D02*
X165094D01*
X119783Y383660D02*
X165092D01*
X119783Y421751D02*
X164880D01*
X119783Y483759D02*
X164879D01*
X119783Y422637D02*
X164583D01*
X119783Y482873D02*
X164582D01*
X119783Y365058D02*
X164574D01*
X119783Y540451D02*
X164572D01*
X119783Y522735D02*
X164436D01*
X119783Y382774D02*
X164434D01*
X119783Y423522D02*
X164295D01*
X119783Y481987D02*
X164295D01*
X119783Y424408D02*
X164017D01*
X119783Y481101D02*
X164017D01*
X119783Y365944D02*
X163989D01*
X119783Y539566D02*
X163987D01*
X119783Y523621D02*
X163870D01*
X119783Y381888D02*
X163868D01*
X119783Y425294D02*
X163749D01*
X119783Y480215D02*
X163748D01*
X119783Y426180D02*
X163489D01*
X119783Y479329D02*
X163489D01*
X119783Y366829D02*
X163485D01*
X119783Y538680D02*
X163484D01*
X119783Y524507D02*
X163384D01*
X119783Y381003D02*
X163382D01*
X119783Y427066D02*
X163239D01*
X119783Y478444D02*
X163239D01*
X119783Y367715D02*
X163055D01*
X119783Y537794D02*
X163054D01*
X119783Y427951D02*
X162998D01*
X119783Y477558D02*
X162998D01*
X119783Y525392D02*
X162969D01*
X119783Y380117D02*
X162968D01*
X119783Y428837D02*
X162766D01*
X119783Y476672D02*
X162766D01*
X119783Y368601D02*
X162692D01*
X119783Y536908D02*
X162691D01*
X119783Y526278D02*
X162620D01*
X119783Y379231D02*
X162619D01*
X119783Y429723D02*
X162543D01*
X119783Y475786D02*
X162543D01*
X119783Y369487D02*
X162391D01*
X119783Y536022D02*
X162390D01*
X119783Y527164D02*
X162332D01*
X119783Y378345D02*
X162331D01*
X119783Y430609D02*
X162329D01*
X119783Y474900D02*
X162329D01*
X119783Y370373D02*
X162148D01*
X119783Y535137D02*
X162148D01*
X119783Y431495D02*
X162124D01*
X119783Y474014D02*
X162123D01*
X119783Y528050D02*
X162102D01*
X119783Y377459D02*
X162101D01*
X119783Y371259D02*
X161961D01*
X119783Y534251D02*
X161960D01*
X119783Y432381D02*
X161927D01*
X119783Y473129D02*
X161927D01*
X119783Y528936D02*
X161926D01*
X119783Y376574D02*
X161926D01*
X119783Y372144D02*
X161826D01*
X119783Y533365D02*
X161826D01*
X119783Y529822D02*
X161804D01*
X119783Y375688D02*
X161803D01*
X119783Y373030D02*
X161744D01*
X119783Y532479D02*
X161744D01*
X119783Y433266D02*
X161740D01*
X119783Y472243D02*
X161739D01*
X119783Y530707D02*
X161733D01*
X119783Y374802D02*
X161733D01*
X119783Y373916D02*
X161713D01*
X119783Y531593D02*
X161713D01*
X119783Y434152D02*
X161561D01*
X119783Y471357D02*
X161560D01*
X119783Y435038D02*
X161390D01*
X119783Y470471D02*
X161390D01*
X119783Y435924D02*
X161229D01*
X119783Y469585D02*
X161228D01*
X119783Y436810D02*
X161075D01*
X119783Y468699D02*
X161075D01*
X119783Y437696D02*
X160931D01*
X119783Y467814D02*
X160930D01*
X119783Y438581D02*
X160794D01*
X119783Y466928D02*
X160794D01*
X119783Y439467D02*
X160667D01*
X119783Y466042D02*
X160666D01*
X119783Y440353D02*
X160547D01*
X119783Y465156D02*
X160547D01*
X119783Y441239D02*
X160436D01*
X119783Y464270D02*
X160436D01*
X119783Y442125D02*
X160334D01*
X119783Y463385D02*
X160333D01*
X119783Y443011D02*
X160239D01*
X119783Y462499D02*
X160239D01*
X119783Y443896D02*
X160153D01*
X119783Y461613D02*
X160153D01*
X119783Y444782D02*
X160075D01*
X119783Y460727D02*
X160075D01*
X119783Y445668D02*
X160006D01*
X119783Y459841D02*
X160005D01*
X119783Y446554D02*
X159944D01*
X119783Y458955D02*
X159944D01*
X119783Y447440D02*
X159891D01*
X119783Y458070D02*
X159891D01*
X119783Y448325D02*
X159846D01*
X119783Y457184D02*
X159846D01*
X119783Y449211D02*
X159809D01*
X119783Y456298D02*
X159809D01*
X119783Y450097D02*
X159781D01*
X119783Y455412D02*
X159781D01*
X119783Y450983D02*
X159760D01*
X119783Y454526D02*
X159760D01*
X119783Y451869D02*
X159748D01*
X119783Y453640D02*
X159748D01*
X119783Y452755D02*
X159744D01*
X119783Y555511D02*
X136065D01*
X119783Y271160D02*
X135328D01*
X119784Y241042D02*
X133569D01*
X119783Y585629D02*
X133228D01*
X119783Y556396D02*
X132372D01*
X119783Y270274D02*
X132110D01*
X119783Y241928D02*
X131206D01*
X119783Y584743D02*
X130996D01*
X119783Y557282D02*
X130429D01*
X119783Y269388D02*
X130246D01*
X119783Y242814D02*
X129586D01*
X119783Y583857D02*
X129427D01*
X119783Y558168D02*
X128989D01*
X119783Y268503D02*
X128845D01*
X119783Y243699D02*
X128319D01*
X119783Y582971D02*
X128190D01*
X119783Y559054D02*
X127832D01*
X119783Y267617D02*
X127714D01*
X119783Y244585D02*
X127277D01*
X119783Y582085D02*
X127169D01*
X119783Y559940D02*
X126868D01*
X119783Y266731D02*
X126768D01*
X119783Y245471D02*
X126397D01*
X119783Y581199D02*
X126306D01*
X119783Y560825D02*
X126049D01*
X119783Y265845D02*
X125963D01*
X119783Y246357D02*
X125646D01*
X119783Y580314D02*
X125567D01*
X119783Y561711D02*
X125346D01*
X119783Y264959D02*
X125273D01*
X119783Y247243D02*
X124999D01*
X119783Y579428D02*
X124931D01*
X119783Y562597D02*
X124741D01*
X119783Y264074D02*
X124678D01*
X119783Y248129D02*
X124442D01*
X119783Y578542D02*
X124384D01*
X119783Y563483D02*
X124220D01*
X119783Y263188D02*
X124166D01*
X119783Y249014D02*
X123964D01*
X119783Y577656D02*
X123914D01*
X119783Y564369D02*
X123775D01*
X119783Y262302D02*
X123728D01*
X119783Y249900D02*
X123557D01*
X119783Y576770D02*
X123515D01*
X119783Y565255D02*
X123397D01*
X119783Y261416D02*
X123358D01*
X119783Y250786D02*
X123215D01*
X119783Y575885D02*
X123180D01*
X119783Y566140D02*
X123083D01*
X119783Y260530D02*
X123051D01*
X119783Y251672D02*
X122934D01*
X119783Y574999D02*
X122905D01*
X119783Y567026D02*
X122827D01*
X119783Y259644D02*
X122802D01*
X119783Y252558D02*
X122709D01*
X119783Y574113D02*
X122687D01*
X119783Y567912D02*
X122627D01*
X119783Y258759D02*
X122608D01*
X119783Y253444D02*
X122540D01*
X119783Y573227D02*
X122524D01*
X119783Y568798D02*
X122482D01*
X119783Y257873D02*
X122468D01*
X119783Y254329D02*
X122423D01*
X119783Y572341D02*
X122413D01*
X119783Y569684D02*
X122388D01*
X119783Y256987D02*
X122380D01*
X119783Y255215D02*
X122358D01*
X119783Y571455D02*
X122354D01*
X119783Y570570D02*
X122345D01*
X119783Y256101D02*
X122344D01*
G54D34*
X555807Y535433D02*
X554331D01*
X551181Y540059D02*
Y538583D01*
X546555Y535433D02*
X548031D01*
X551181Y530807D02*
Y532283D01*
X827461Y216535D02*
X825984D01*
X822835Y221161D02*
Y219685D01*
X818209Y216535D02*
X819685D01*
X822835Y211909D02*
Y213386D01*
X673917Y574803D02*
X672441D01*
X669291Y579429D02*
Y577953D01*
X664665Y574803D02*
X666142D01*
X669291Y570177D02*
Y571654D01*
X414075Y350394D02*
X412598D01*
X409449Y355020D02*
Y353543D01*
X404823Y350394D02*
X406299D01*
X409449Y345768D02*
Y347244D01*
X414075Y283465D02*
X412598D01*
X409449Y288091D02*
Y286614D01*
X404823Y283465D02*
X406299D01*
X409449Y278839D02*
Y280315D01*
X715996Y570866D02*
X717472D01*
X720472Y566390D02*
Y567866D01*
Y575343D02*
Y573866D01*
X415354Y406941D02*
Y408417D01*
X419831Y411417D02*
X418354D01*
X410878D02*
X412354D01*
X415354Y502413D02*
Y503890D01*
X419831Y506890D02*
X418354D01*
X410878D02*
X412354D01*
X415354Y459106D02*
Y460583D01*
X419831Y463583D02*
X418354D01*
X410878D02*
X412354D01*
X632185Y574803D02*
X630709D01*
X627953Y579035D02*
Y577559D01*
X620079Y579035D02*
Y577559D01*
X581654Y224028D02*
Y225504D01*
Y232980D02*
Y231504D01*
X577177Y228504D02*
X578654D01*
X581654Y214028D02*
Y215504D01*
Y222980D02*
Y221504D01*
X577177Y218504D02*
X578654D01*
X571654Y224028D02*
Y225504D01*
X576130Y228504D02*
X574654D01*
X571654Y232980D02*
Y231504D01*
Y214028D02*
Y215504D01*
X576130Y218504D02*
X574654D01*
X571654Y222980D02*
Y221504D01*
X567177Y218504D02*
X568654D01*
X561654Y214028D02*
Y215504D01*
X566130Y218504D02*
X564654D01*
X735413Y226378D02*
X733937D01*
X728031Y233760D02*
Y232283D01*
Y218996D02*
Y220472D01*
X712441Y233760D02*
Y232283D01*
X705059Y226378D02*
X706535D01*
X712441Y218996D02*
Y220472D01*
X804158Y226378D02*
X802682D01*
X797170Y233366D02*
Y231890D01*
X790182Y226378D02*
X791658D01*
X797170Y219390D02*
Y220866D01*
X791783Y570866D02*
X793260D01*
X796260Y566390D02*
Y567866D01*
Y575343D02*
Y573866D01*
X846457Y536957D02*
Y535480D01*
X841980Y532480D02*
X843457D01*
X850933D02*
X849457D01*
X670720Y548228D02*
X672197D01*
X679673D02*
X678197D01*
X675197Y552705D02*
Y551228D01*
G54D38*
G54D39*
X846457Y288386D03*
X740157Y570866D03*
X846457Y247047D03*
Y522638D03*
X806102Y570866D03*
X415354Y473425D03*
Y516732D03*
Y431102D03*
G54D40*
X846457Y298228D03*
X730315Y570866D03*
X720472D03*
X846457Y256890D03*
Y532480D03*
X796260Y570866D03*
X415354Y463583D03*
Y506890D03*
Y421260D03*
Y411417D03*
G54D47*
X675197Y548228D03*
Y538228D03*
X521654Y218504D03*
Y228504D03*
X531654Y218504D03*
Y228504D03*
X541654Y218504D03*
Y228504D03*
X551654Y218504D03*
Y228504D03*
X561654Y218504D03*
Y228504D03*
X571654Y218504D03*
Y228504D03*
X581654Y218504D03*
Y228504D03*
X591654Y218504D03*
Y228504D03*
X601654Y218504D03*
Y228504D03*
X611654Y218504D03*
Y228504D03*
X687008Y538386D03*
Y548386D03*
X698819Y538386D03*
Y548386D03*
G54D57*
X442913Y336614D03*
X498031Y329724D03*
X494094Y230315D03*
X442913Y348425D03*
X498031Y341535D03*
X442913Y284449D03*
X409449Y283465D03*
Y350394D03*
X669291Y574803D03*
X822835Y216535D03*
X551181Y535433D03*
G54D64*
X781570Y226378D03*
X797170D03*
G54D68*
X665669D03*
G54D69*
X681260D03*
X712441D03*
X728031D03*
G54D70*
X696850D03*
G54D71*
X596457Y574803D03*
G54D72*
Y566929D03*
X604331Y574803D03*
Y566929D03*
X612205Y574803D03*
Y566929D03*
X620079Y574803D03*
Y566929D03*
X627953Y574803D03*
Y566929D03*
G54D74*
X846457Y216535D03*
X413386D03*
Y570866D03*
X846457D03*
X137795D03*
Y255906D03*
X334646Y374016D03*
X177165D03*
X334646Y531496D03*
X177165D03*
G54D78*
X435039Y202756D03*
X494094D03*
X484252D03*
X409449Y244094D03*
X446850D03*
X468504Y228346D03*
X482283Y289370D03*
X468504Y284449D03*
X529528D03*
X511811Y279528D03*
Y259843D03*
X553150Y284449D03*
X545276Y257874D03*
X566929D03*
X611417Y252362D03*
X588583Y257874D03*
X609252Y279528D03*
X621063Y276575D03*
X625984Y256890D03*
X683858Y254331D03*
X706693Y290354D03*
Y271654D03*
X771654Y254921D03*
X744094Y259843D03*
X453740Y323819D03*
X460039Y323622D03*
X452756Y313976D03*
X433071Y296260D03*
X465551Y323819D03*
X472441Y296260D03*
X482283D03*
X533465Y321850D03*
Y304134D03*
X511811Y313976D03*
X537402Y298228D03*
X501969Y313976D03*
X575197Y303150D03*
X562992Y321850D03*
X545276Y298228D03*
X543307Y304134D03*
X572835Y321850D03*
X566929Y298228D03*
X559055D03*
X612205Y303150D03*
X592913Y321654D03*
X598031Y299213D03*
X612205Y321850D03*
X592520Y303150D03*
X588583Y298228D03*
X609252Y297244D03*
X582677Y303150D03*
X580709Y298228D03*
X636811Y309055D03*
X625984Y301181D03*
X637795Y325787D03*
X631890Y321850D03*
X622047D03*
X648622Y310039D03*
X668307Y311024D03*
X693898Y314961D03*
X688976Y311024D03*
X678543Y314961D03*
X702756Y311024D03*
X734252D03*
X710630D03*
X744094D03*
X775591D03*
X765748D03*
X791339D03*
X811024D03*
X801181D03*
X456693Y334646D03*
X463583D03*
X473425D03*
X462598Y346457D03*
X478346Y367126D03*
X467520D03*
X533465Y365157D03*
X572835Y334646D03*
Y367126D03*
Y353346D03*
X562992Y367126D03*
X585827Y365354D03*
X612205Y367126D03*
X622047Y334646D03*
Y353346D03*
Y367126D03*
X671260Y334646D03*
Y353346D03*
X754921Y339567D03*
X761811Y352756D03*
X771654Y368307D03*
X781496Y336614D03*
X448819Y384843D03*
X458661D03*
X443898Y391732D03*
X429134D03*
X431102Y372047D03*
X435039Y391732D03*
X451772D03*
X478346Y384843D03*
X498031D03*
X468504D03*
X492126Y409449D03*
X488189Y384843D03*
X507874D03*
X517717D03*
X533465D03*
X543307D03*
X582677D03*
X592520D03*
X594488Y404528D03*
X622047Y385827D03*
X651575Y384843D03*
X638780Y401575D03*
X641732Y384843D03*
X673228Y401575D03*
X453150Y431102D03*
X435039Y438976D03*
X443898D03*
X451772D03*
X491142Y437992D03*
X481299Y442913D03*
X495079D03*
X463583Y422244D03*
Y412402D03*
X481299Y451772D03*
X539370Y442913D03*
Y447835D03*
X572835Y430118D03*
X582874Y444882D03*
X616142Y432087D03*
X601378Y444882D03*
X594488Y423228D03*
X616142Y449803D03*
X655512Y432087D03*
X625984D03*
Y449803D03*
X645669Y432087D03*
X673228Y420276D03*
X665354Y432087D03*
Y449803D03*
X781496Y429134D03*
X793307D03*
X435039Y483268D03*
X443898D03*
X451772D03*
X488189Y476378D03*
X494094Y462598D03*
X463583Y487205D03*
X492126Y482283D03*
X463583Y477362D03*
X514961Y462598D03*
X539370Y453740D03*
X544291Y486220D03*
Y476378D03*
X549213Y472441D03*
X547244Y462598D03*
X573819Y472441D03*
X556102Y484252D03*
X604331Y489173D03*
X614961Y483071D03*
X583268Y454724D03*
X611614Y489173D03*
X582874Y464567D03*
X582677Y474409D03*
X601378Y464567D03*
Y454724D03*
Y474409D03*
X631693Y489567D03*
X648425Y452756D03*
X643898Y455315D03*
X652559Y477756D03*
X652165Y452756D03*
X648425Y490157D03*
X656496Y479724D03*
X621457Y460039D03*
X656102Y452756D03*
X627953Y485236D03*
Y477362D03*
X626969Y481299D03*
X650591Y474213D03*
X683071Y472441D03*
X686220Y467717D03*
X675197Y485236D03*
X662205Y460039D03*
X673622Y475394D03*
X697835Y479331D03*
Y455709D03*
X679134Y479331D03*
X727362Y454724D03*
X739173Y461614D03*
X757874Y490157D03*
Y471457D03*
X811024Y486220D03*
X791339Y482283D03*
X781496Y462598D03*
X801181D03*
X791339D03*
X811024D03*
X830709D03*
X820866D03*
X823819Y491142D03*
X850394Y462598D03*
X838583D03*
X456693Y497047D03*
X463583Y516732D03*
X492126Y527559D03*
X495079Y515748D03*
X481299Y516732D03*
Y506890D03*
X526575Y515748D03*
Y505906D03*
X544094Y515748D03*
X556102Y494094D03*
Y503937D03*
X613583Y501772D03*
X590551Y531496D03*
X600394D03*
X583661Y513780D03*
X620079Y531496D03*
X610236D03*
X635827Y492913D03*
X628150Y495866D03*
Y502165D03*
X631102Y499016D03*
X642717Y522244D03*
X638780Y526575D03*
X632874Y524606D03*
X644488Y503937D03*
X648622D03*
X652756D03*
X647638Y518504D03*
X630906Y505512D03*
X631890Y531496D03*
X641732D03*
X675197Y522047D03*
X692913Y516732D03*
X689764Y512795D03*
X676181Y501969D03*
X697835Y504921D03*
X679134D03*
X708661Y500984D03*
X713583Y499016D03*
X703740Y511811D03*
X779528Y500984D03*
X757874Y528543D03*
X779528Y518701D03*
X514567Y539370D03*
X590551Y551181D03*
X631890Y550197D03*
X653543D03*
X675197Y554134D03*
X663386Y550197D03*
X730315Y534449D03*
X740157D03*
X720472D03*
X710630Y533465D03*
X750000Y534449D03*
X759843Y533465D03*
X816929Y534449D03*
X799213D03*
X807087D03*
X787402D03*
G54D79*
X511811Y204724D03*
X531496D03*
X551181D03*
X570866D03*
X586614D03*
X716535D03*
X748031D03*
X814961D03*
X826772D03*
X814961Y236220D03*
X826772D03*
X393701Y255906D03*
X523622Y259843D03*
X637795Y279528D03*
Y259843D03*
X728346Y275591D03*
X737205Y286417D03*
X708661Y255906D03*
X728346D03*
X393701Y295276D03*
X523622Y318898D03*
Y295276D03*
X737205Y302165D03*
Y294291D03*
X718504Y305118D03*
X725394D03*
X711614D03*
X811024Y330709D03*
X825787Y325787D03*
Y317913D03*
X862205Y322835D03*
X393701Y334646D03*
X696850Y342520D03*
X700787Y361220D03*
X714567D03*
X818898Y332677D03*
Y339567D03*
X812008D03*
X805118D03*
X825787Y332677D03*
Y339567D03*
X848425Y363189D03*
X860236D03*
X393701Y374016D03*
X407480Y391732D03*
X470472Y394685D03*
X487205D03*
X479331D03*
X548228D03*
X555118D03*
X582677Y397638D03*
X639764Y411417D03*
X706693Y391732D03*
Y397638D03*
X713583Y391732D03*
Y397638D03*
X749016Y385827D03*
X742126Y378937D03*
X749016Y392717D03*
X742126D03*
X749016Y378937D03*
X742126Y385827D03*
X770669Y403543D03*
X860236Y373031D03*
Y382874D03*
X848425Y391732D03*
X832677Y382874D03*
X848425D03*
X860236Y391732D03*
X848425Y373031D03*
X832677Y391732D03*
X393701Y413386D03*
X535433D03*
X582677Y425197D03*
X688976Y415354D03*
Y424213D03*
X761811Y429134D03*
X753937D03*
X785433Y417323D03*
X816929Y423228D03*
X801181D03*
X809055D03*
X859252Y446850D03*
X824803Y423228D03*
X832677D03*
X862205Y433071D03*
Y413386D03*
X393701Y452756D03*
X807087Y453740D03*
X859252Y454724D03*
X820866Y453740D03*
X862205Y472441D03*
X393701Y492126D03*
Y531496D03*
X862205Y511811D03*
Y492126D03*
X393701Y551181D03*
X862205D03*
X433071Y582677D03*
X452756D03*
X472441D03*
X492126D03*
X511811D03*
X531496D03*
X551181D03*
X570866D03*
X657480D03*
X677165D03*
X704724D03*
X755906D03*
X779528D03*
X822835D03*
G74*
X0Y0D02*
M02*
