%
T1C.01378F095S3
X043504Y020276
X040945Y024409
X043307Y029626
X04311Y037205
X042913Y039173
X043504Y039173
X043504Y043898
X043504Y048327
X045669Y049705
X04439Y048327
X045177Y048327
X04439Y043898
X045177Y043898
X045315Y04311
X04439Y039173
X045177Y039173
X045866Y038484
X044882Y038484
X04626Y034646
X045669Y033465
X045374Y032382
X046004Y032362
X045276Y031398
X044685Y024409
X048425Y020276
X04685Y022835
X04685Y028445
X048228Y028937
X048228Y029626
X047244Y029626
X046555Y032382
X046358Y033465
X047343Y033465
X046752Y036713
X047835Y036713
X047835Y038484
X04685Y038484
X046358Y04124
X046358Y042224
X04813Y044291
X04813Y045177
X046358Y047736
X046358Y04872
X04813Y050689
X04813Y051673
X046358Y051673
X049213Y052756
X049508Y051575
X049213Y048228
X048819Y047638
X049409Y04626
X049508Y044291
X049114Y043799
X049213Y040945
X048819Y038484
X050787Y038484
X049803Y038484
X051181Y031398
X050197Y031398
X051181Y027953
X051181Y025984
X049409Y020276
X054528Y025787
X052953Y028445
X055315Y028445
X05374Y029823
X054528Y029823
X055906Y029823
X053346Y030413
X054331Y030413
X053346Y032185
X053346Y036516
X054331Y038484
X053346Y038484
X051772Y038484
X053937Y044291
X053937Y044783
X053937Y045374
X051496Y04626
X054724Y04626
X054921Y047244
X054429Y047638
X05561Y048425
X054429Y048622
X05561Y049409
X05561Y050394
X052657Y050591
X054409Y051575
X052657Y051575
X051457Y053937
X058366Y051378
X058268Y047441
X057382Y047244
X058287Y046457
X058327Y045472
X058287Y044488
X057283Y043012
X058268Y038484
X057283Y036713
X056299Y036713
X058583Y036535
X057283Y035335
X057283Y033465
X057283Y032185
X056299Y032185
X05752Y030315
X058268Y030315
X056693Y029823
X058071Y029823
X056693Y025787
X061142Y025236
X058858Y025787
X060925Y027953
X060925Y029724
X058858Y029823
X059803Y029921
X059252Y030315
X06122Y030315
X059291Y032165
X06122Y032185
X06122Y036713
X059252Y038484
X059449Y040453
X059449Y042323
X060138Y044488
X060138Y045472
X060138Y046457
X060138Y047441
X061161Y048917
X060433Y048917
X060039Y05315
X061024Y05315
X059055Y05315
X059055Y055118
X063189Y05502
X062008Y05315
X063189Y05315
X063287Y052461
X063091Y050551
X062815Y050217
X061358Y050177
X06311Y049902
X062815Y049587
X063583Y049291
X063169Y048957
X062795Y048524
X061496Y048307
X062697Y04813
X062795Y047736
X062146Y046004
X062598Y04498
X061614Y04498
X062598Y043209
X061614Y043209
X062205Y038583
X062205Y036713
X062205Y035335
X062205Y033465
X062205Y032185
X063189Y032185
X063681Y030906
X062598Y030118
X062106Y027657
X062598Y025689
X064862Y031004
X06378Y032579
X065157Y038484
X064173Y038484
X063878Y040157
X065551Y043209
X064567Y043209
X065217Y045276
X06561Y045276
X064843Y045276
X06439Y045531
X06622Y046004
X065059Y047421
X065256Y047776
X06565Y047972
X064843Y049016
X064449Y050394
X064862Y050394
X065276Y050394
X064764Y05185
X064272Y052224
X063878Y052657
X064173Y05315
X065354Y05502
X06752Y055413
X066339Y05502
X06752Y052205
X067913Y050492
X067618Y050197
X06752Y048524
X067913Y047933
X067362Y047539
X068307Y047244
X068622Y046772
X066535Y04498
X066535Y043209
X067323Y042028
X067323Y040157
X067126Y035335
X067126Y033465
X067854Y031496
X066831Y031102
X068386Y025433
X070669Y027165
X070669Y029035
X071063Y031102
X068898Y031102
X070276Y031102
X073425Y031102
X06939Y031496
X072736Y045472
X069783Y045571
X069783Y047933
X071358Y049902
X070866Y050098
X069783Y050492
X070374Y051181
X068976Y05128
X069291Y051673
X071063Y053346
X073031Y053445
X072047Y053445
X074016Y053445
X075Y053445
X07874Y053445
X075984Y053346
X075787Y052854
X077953Y05187
X077953Y050098
X075787Y049016
X075787Y047146
X07815Y04626
X073917Y046161
X07815Y042913
X077165Y036831
X076181Y035276
X075492Y033957
X07815Y033661
X076575Y031102
X077559Y031102
X074409Y031102
X074409Y025984
X077165Y025492
X081102Y031102
X080118Y031102
X079134Y031102
X079331Y042913
X081102Y04626
X080118Y04626
X079134Y04626
X083071Y04626
X082087Y04626
X079134Y048228
X081102Y048622
X082382Y049114
X079921Y053445
X081693Y053445
X080709Y053445
X083858Y04626
X085039Y04626
T2C.02362F197S55
X03937Y025591
X03937Y029528
X03937Y033465
X03937Y037402
X040748Y039173
X03937Y041339
X03937Y045276
X03937Y049213
X03937Y05315
X03937Y055118
X043307Y058268
X045276Y058268
X047244Y058268
X04872Y039469
X047933Y039469
X047047Y039469
X051181Y020472
X05315Y020472
X052362Y025984
X052362Y029528
X052362Y03189
X053543Y041339
X051181Y058268
X049213Y058268
X05315Y058268
X055118Y058268
X057087Y058268
X058268Y04252
X058268Y039764
X055512Y039469
X054823Y039469
X055118Y020472
X057087Y020472
X058661Y020472
X06378Y025984
X06378Y027953
X063976Y041142
X065748Y058268
X067717Y058268
X070472Y058268
X068898Y042421
X068898Y041535
X070669Y039764
X071358Y039764
X070669Y039173
X071358Y039173
X070079Y036122
X071457Y036122
X069685Y034252
X072539Y030512
X07185Y030512
X071161Y030512
X07372Y030217
X07372Y029429
X07372Y028642
X072835Y027559
X072835Y025591
X070866Y025591
X071654Y020472
X074803Y020472
X074902Y037894
X074213Y037894
X074902Y038583
X074213Y038583
X074213Y039272
X074902Y039272
X077067Y040354
X078543Y041732
X075394Y042913
X076181Y042913
X075591Y058268
X077953Y058268
X082283Y058268
X080709Y045374
X082087Y045374
X081693Y042323
X08248Y042323
X083268Y042323
X080906Y042323
X080118Y042323
X083268Y039173
X083268Y038287
X080512Y033957
X082579Y033957
X081201Y033957
X08189Y033957
X082579Y033268
X08189Y033268
X081102Y033071
X082579Y032579
X082579Y031791
X081496Y023622
X082677Y023622
X081496Y020472
X082677Y020472
X08622Y032283
X086024Y036319
X084843Y036319
X084843Y037303
X086024Y037303
X084843Y038287
X086024Y038287
X084843Y039173
X086024Y039173
X08622Y041339
X08622Y043307
X085925Y044685
X085925Y045472
X08622Y047244
X08622Y049213
X08622Y051181
X08622Y055118
T3C.0315F197S55
X040945Y028346
X040945Y035039
X044291Y034843
X049803Y034154
X044291Y033661
X049803Y032972
X044291Y028445
X049409Y023031
X055118Y053543
X060433Y056693
X06122Y056693
X059646Y056693
X059646Y05748
X06122Y05748
X060433Y05748
X062008Y05748
X062795Y05748
X066929Y05748
X062795Y056693
X062008Y056693
X082283Y021654
T4C.035F197S55
X041535Y041142
X041535Y042126
X041535Y046358
X041535Y050689
X073031Y057087
X072047Y057087
X084646Y025689
X084646Y029823
X084646Y053248
X079626Y057087
T5C.03543F197S55
X041535Y04311
X041535Y047343
X041535Y051673
X074016Y057087
X08061Y057087
X084646Y024705
X084646Y028839
X084646Y052264
T6C.03937F197S55
X052165Y02185
X053165Y02185
X052165Y02285
X053165Y02285
X054165Y02285
X055165Y02285
X056165Y02285
X057165Y02285
X058165Y02285
X055165Y02185
X057165Y02185
X054165Y02185
X058165Y02185
X056165Y02185
X059165Y02185
X060165Y02185
X061165Y02185
X060165Y02285
X059165Y02285
X061165Y02285
T7C.04F139S55
X06752Y053823
X068701Y053839
X06752Y054823
X068701Y054839
X069882Y054839
X069882Y053839
T8C.05906F107S55
X078157Y022638
X079717Y022638
T9C.07087F081S55
X066567Y022638
X068126Y022638
X069685Y022638
X071244Y022638
X072803Y022638
T10C.12598F035S794
X01378Y025591
X017717Y037402
X017717Y05315
X01378Y057087
X041339Y057087
X033465Y05315
X033465Y037402
X041339Y021654
X084646Y021654
X084646Y057087
M30
