*
*
G04 PADS 9.5 Build Number: 522968 generated Gerber (RS-274-X) file*
G04 PC Version=2.1*
*
%IN "RF-GEN_CPU_V1.0_PCB_201"*%
*
%MOIN*%
*
%FSLAX35Y35*%
*
*
*
*
G04 PC Standard Apertures*
*
*
G04 Thermal Relief Aperture macro.*
%AMTER*
1,1,$1,0,0*
1,0,$1-$2,0,0*
21,0,$3,$4,0,0,45*
21,0,$3,$4,0,0,135*
%
*
*
G04 Annular Aperture macro.*
%AMANN*
1,1,$1,0,0*
1,0,$2,0,0*
%
*
*
G04 Odd Aperture macro.*
%AMODD*
1,1,$1,0,0*
1,0,$1-0.005,0,0*
%
*
*
G04 PC Custom Aperture Macros*
*
*
*
*
*
*
G04 PC Aperture Table*
*
%ADD011C,0.01*%
%ADD013C,0.006*%
%ADD036C,0.015*%
%ADD038C,0.00004*%
%ADD041R,0.105X0.075*%
%ADD042R,0.075X0.105*%
%ADD043R,0.135X0.085*%
%ADD044R,0.04X0.04*%
%ADD045R,0.05X0.034*%
%ADD046R,0.11811X0.09843*%
%ADD048R,0.08X0.025*%
%ADD049R,0.025X0.08*%
%ADD050R,0.088X0.048*%
%ADD051R,0.088X0.142*%
%ADD052R,0.06496X0.05512*%
%ADD053R,0.0315X0.0315*%
%ADD054R,0.04724X0.04724*%
%ADD055R,0.064X0.16*%
%ADD056R,0.1063X0.13386*%
%ADD058R,0.08X0.05*%
%ADD059R,0.10236X0.04724*%
%ADD060R,0.01181X0.05906*%
%ADD061R,0.05906X0.01181*%
%ADD065R,0.062X0.12*%
%ADD066R,0.05X0.13*%
%ADD067R,0.06299X0.05512*%
%ADD073R,0.09449X0.07874*%
%ADD075R,0.09449X0.05512*%
%ADD076R,0.01575X0.05709*%
%ADD077R,0.05X0.07*%
%ADD080R,0.01575X0.02362*%
*
*
*
*
G04 PC Circuitry*
G04 Layer Name RF-GEN_CPU_V1.0_PCB_201 - circuitry*
%LPD*%
*
*
G04 PC Custom Flashes*
G04 Layer Name RF-GEN_CPU_V1.0_PCB_201 - flashes*
%LPD*%
*
*
G04 PC Circuitry*
G04 Layer Name RF-GEN_CPU_V1.0_PCB_201 - circuitry*
%LPD*%
*
G54D11*
G01X789244Y298126D02*
Y292426D01*
X799944*
Y293655*
X799993Y293805*
X800086Y293934*
X800214Y294027*
X800365Y294076*
X807244*
Y296476*
X800365*
X800214Y296525*
X800086Y296618*
X799993Y296746*
X799944Y296896*
Y298126*
X789244*
Y292426D02*
Y298126D01*
X789744Y292426D02*
Y298126D01*
X790244Y292426D02*
Y298126D01*
X790744Y292426D02*
Y298126D01*
X791244Y292426D02*
Y298126D01*
X791744Y292426D02*
Y298126D01*
X792244Y292426D02*
Y298126D01*
X792744Y292426D02*
Y298126D01*
X793244Y292426D02*
Y298126D01*
X793744Y292426D02*
Y298126D01*
X794244Y292426D02*
Y298126D01*
X794744Y292426D02*
Y298126D01*
X795244Y292426D02*
Y298126D01*
X795744Y292426D02*
Y298126D01*
X796244Y292426D02*
Y298126D01*
X796744Y292426D02*
Y298126D01*
X797244Y292426D02*
Y298126D01*
X797744Y292426D02*
Y298126D01*
X798244Y292426D02*
Y298126D01*
X798744Y292426D02*
Y298126D01*
X799244Y292426D02*
Y298126D01*
X799744Y292426D02*
Y298126D01*
X800244Y294036D02*
Y296515D01*
X800744Y294076D02*
Y296476D01*
X801244Y294076D02*
Y296476D01*
X801744Y294076D02*
Y296476D01*
X802244Y294076D02*
Y296476D01*
X802744Y294076D02*
Y296476D01*
X803244Y294076D02*
Y296476D01*
X803744Y294076D02*
Y296476D01*
X804244Y294076D02*
Y296476D01*
X804744Y294076D02*
Y296476D01*
X805244Y294076D02*
Y296476D01*
X805744Y294076D02*
Y296476D01*
X806244Y294076D02*
Y296476D01*
X806744Y294076D02*
Y296476D01*
X643575Y414267D02*
Y408567D01*
X654275*
Y409797*
X654324Y409947*
X654417Y410075*
X654545Y410168*
X654696Y410217*
X661575*
Y412617*
X654696*
X654545Y412666*
X654417Y412759*
X654324Y412887*
X654324D02*
X654275Y413038D01*
Y414267*
X643575*
Y408567D02*
Y414267D01*
X644075Y408567D02*
Y414267D01*
X644575Y408567D02*
Y414267D01*
X645075Y408567D02*
Y414267D01*
X645575Y408567D02*
Y414267D01*
X646075Y408567D02*
Y414267D01*
X646575Y408567D02*
Y414267D01*
X647075Y408567D02*
Y414267D01*
X647575Y408567D02*
Y414267D01*
X648075Y408567D02*
Y414267D01*
X648575Y408567D02*
Y414267D01*
X649075Y408567D02*
Y414267D01*
X649575Y408567D02*
Y414267D01*
X650075Y408567D02*
Y414267D01*
X650575Y408567D02*
Y414267D01*
X651075Y408567D02*
Y414267D01*
X651575Y408567D02*
Y414267D01*
X652075Y408567D02*
Y414267D01*
X652575Y408567D02*
Y414267D01*
X653075Y408567D02*
Y414267D01*
X653575Y408567D02*
Y414267D01*
X654075Y408567D02*
Y414267D01*
X654575Y410178D02*
Y412657D01*
X655075Y410217D02*
Y412617D01*
X655575Y410217D02*
Y412617D01*
X656075Y410217D02*
Y412617D01*
X656575Y410217D02*
Y412617D01*
X657075Y410217D02*
Y412617D01*
X657575Y410217D02*
Y412617D01*
X658075Y410217D02*
Y412617D01*
X658575Y410217D02*
Y412617D01*
X659075Y410217D02*
Y412617D01*
X659575Y410217D02*
Y412617D01*
X660075Y410217D02*
Y412617D01*
X660575Y410217D02*
Y412617D01*
X661075Y410217D02*
Y412617D01*
X456001Y94742D02*
Y94992D01*
X456183Y95492*
X456365Y95742*
X456729Y95992*
X457456*
X457820Y95742*
X458001Y95492*
X458183Y94992*
Y94492*
X458001Y93992*
X457638Y93242*
X455820Y90742*
X458365*
X461092Y95992D02*
X460547Y95742D01*
X460183Y94992*
X460001Y93742*
Y92992*
X460183Y91742*
X460547Y90992*
X461092Y90742*
X461456*
X462001Y90992*
X462365Y91742*
X462547Y92992*
Y93742*
X462365Y94992*
X462001Y95742*
X461456Y95992*
X461092*
X464183Y94992D02*
X464547Y95242D01*
X465092Y95992*
Y90742*
X469092Y94242D02*
X468910Y93492D01*
X468547Y92992*
X468001Y92742*
X467820*
X467274Y92992*
X466910Y93492*
X466729Y94242*
Y94492*
X466910Y95242*
X467274Y95742*
X467820Y95992*
X468001*
X468547Y95742*
X468910Y95242*
X469092Y94242*
Y92992*
X468910Y91742*
X468547Y90992*
X468001Y90742*
X467638*
X467092Y90992*
X466910Y91492*
X470910Y91242D02*
X470729Y90992D01*
X470910Y90742*
X471092Y90992*
X470910Y91242*
X472729Y94992D02*
X473092Y95242D01*
X473638Y95992*
Y90742*
X475274Y94992D02*
X475638Y95242D01*
X476183Y95992*
Y90742*
X478001Y91242D02*
X477820Y90992D01*
X478001Y90742*
X478183Y90992*
X478001Y91242*
X479820Y94992D02*
X480183Y95242D01*
X480729Y95992*
Y90742*
X484910Y95992D02*
X483092Y90742D01*
X482365Y95992D02*
X484910D01*
X439595Y135410D02*
Y130160D01*
Y135410D02*
X441232D01*
X441777Y135160*
X441959Y134910*
X442141Y134410*
Y133910*
X441959Y133410*
X441777Y133160*
X441232Y132910*
X439595*
X440868D02*
X442141Y130160D01*
X443777Y135410D02*
Y130160D01*
Y135410D02*
X446141D01*
X443777Y132910D02*
X445232D01*
X447777Y132410D02*
X451050D01*
X455413Y134160D02*
X455232Y134660D01*
X454868Y135160*
X454504Y135410*
X453777*
X453413Y135160*
X453050Y134660*
X452868Y134160*
X452686Y133410*
Y132160*
X452868Y131410*
X453050Y130910*
X453413Y130410*
X453777Y130160*
X454504*
X454868Y130410*
X455232Y130910*
X455413Y131410*
Y132160*
X454504D02*
X455413D01*
X457050Y135410D02*
Y130160D01*
Y135410D02*
X459413D01*
X457050Y132910D02*
X458504D01*
X457050Y130160D02*
X459413D01*
X461050Y135410D02*
Y130160D01*
Y135410D02*
X463595Y130160D01*
Y135410D02*
Y130160D01*
X465232Y132410D02*
X468504D01*
X472868Y134160D02*
X472686Y134660D01*
X472322Y135160*
X471959Y135410*
X471232*
X470868Y135160*
X470504Y134660*
X470322Y134160*
X470141Y133410*
Y132160*
X470322Y131410*
X470504Y130910*
X470868Y130410*
X471232Y130160*
X471959*
X472322Y130410*
X472686Y130910*
X472868Y131410*
X474504Y135410D02*
Y130160D01*
Y135410D02*
X476141D01*
X476686Y135160*
X476868Y134910*
X477050Y134410*
Y133660*
X476868Y133160*
X476686Y132910*
X476141Y132660*
X474504*
X478686Y135410D02*
Y131660D01*
X478868Y130910*
X479232Y130410*
X479777Y130160*
X480141*
X480686Y130410*
X481050Y130910*
X481232Y131660*
Y135410*
X482868Y132410D02*
X486141D01*
X488868Y135410D02*
X488322Y135160D01*
X487959Y134410*
X487777Y133160*
Y132410*
X487959Y131160*
X488322Y130410*
X488868Y130160*
X489232*
X489777Y130410*
X490141Y131160*
X490322Y132410*
Y133160*
X490141Y134410*
X489777Y135160*
X489232Y135410*
X488868*
X493050D02*
X492504Y135160D01*
X492141Y134410*
X491959Y133160*
Y132410*
X492141Y131160*
X492504Y130410*
X493050Y130160*
X493413*
X493959Y130410*
X494322Y131160*
X494504Y132410*
Y133160*
X494322Y134410*
X493959Y135160*
X493413Y135410*
X493050*
X496141Y134410D02*
X496504Y134660D01*
X497050Y135410*
Y130160*
X544717Y97079D02*
X545081Y97329D01*
X545626Y98079*
Y92829*
X548354Y98079D02*
X547808Y97829D01*
X547444Y97079*
X547263Y95829*
Y95079*
X547444Y93829*
X547808Y93079*
X548354Y92829*
X548717*
X549263Y93079*
X549626Y93829*
X549808Y95079*
Y95829*
X549626Y97079*
X549263Y97829*
X548717Y98079*
X548354*
X552535D02*
X551990Y97829D01*
X551626Y97079*
X551444Y95829*
Y95079*
X551626Y93829*
X551990Y93079*
X552535Y92829*
X552899*
X553444Y93079*
X553808Y93829*
X553990Y95079*
Y95829*
X553808Y97079*
X553444Y97829*
X552899Y98079*
X552535*
X559808D02*
X562354Y92829D01*
Y98079D02*
X559808Y92829D01*
X568172Y97079D02*
X568535Y97329D01*
X569081Y98079*
Y92829*
X573081Y96329D02*
X572899Y95579D01*
X572535Y95079*
X571990Y94829*
X571808*
X571263Y95079*
X570899Y95579*
X570717Y96329*
Y96579*
X570899Y97329*
X571263Y97829*
X571808Y98079*
X571990*
X572535Y97829*
X572899Y97329*
X573081Y96329*
Y95079*
X572899Y93829*
X572535Y93079*
X571990Y92829*
X571626*
X571081Y93079*
X570899Y93579*
X575808Y98079D02*
X575263Y97829D01*
X574899Y97079*
X574717Y95829*
Y95079*
X574899Y93829*
X575263Y93079*
X575808Y92829*
X576172*
X576717Y93079*
X577081Y93829*
X577263Y95079*
Y95829*
X577081Y97079*
X576717Y97829*
X576172Y98079*
X575808*
X403368Y83722D02*
X401095Y79347D01*
X404504*
X403368Y83722D02*
Y77160D01*
X406550Y83722D02*
Y77160D01*
X409277*
X414050Y81535D02*
Y77160D01*
Y80597D02*
X413595Y81222D01*
X413141Y81535*
X412459*
X412004Y81222*
X411550Y80597*
X411322Y79660*
Y79035*
X411550Y78097*
X412004Y77472*
X412459Y77160*
X413141*
X413595Y77472*
X414050Y78097*
X416322Y81535D02*
X417686Y77160D01*
X419050Y81535D02*
X417686Y77160D01*
X417232Y75910*
X416777Y75285*
X416322Y74972*
X416095*
X421095Y79660D02*
X423822D01*
Y80285*
X423595Y80910*
X423368Y81222*
X422913Y81535*
X422232*
X421777Y81222*
X421322Y80597*
X421095Y79660*
Y79035*
X421322Y78097*
X421777Y77472*
X422232Y77160*
X422913*
X423368Y77472*
X423822Y78097*
X425868Y81535D02*
Y77160D01*
Y79660D02*
X426095Y80597D01*
X426550Y81222*
X427004Y81535*
X427686*
X430186Y77472D02*
X429959Y77160D01*
X429732Y77472*
X429959Y77785*
X430186Y77472*
Y76847*
X429959Y76222*
X429732Y75910*
X442686Y83722D02*
Y77160D01*
Y83722D02*
X445641D01*
X442686Y80597D02*
X444504D01*
X447686Y83722D02*
Y77160D01*
Y83722D02*
X449732D01*
X450413Y83410*
X450641Y83097*
X450868Y82472*
Y81847*
X450641Y81222*
X450413Y80910*
X449732Y80597*
X447686*
X449277D02*
X450868Y77160D01*
X455186Y83722D02*
X452913Y79347D01*
X456322*
X455186Y83722D02*
Y77160D01*
X458822Y77472D02*
X458595Y77160D01*
X458368Y77472*
X458595Y77785*
X458822Y77472*
Y76847*
X458595Y76222*
X458368Y75910*
X472913Y83722D02*
Y77160D01*
X471322Y83722D02*
X474504D01*
X476777Y81535D02*
X476550Y81222D01*
X476777Y80910*
X477004Y81222*
X476777Y81535*
Y77785D02*
X476550Y77472D01*
X476777Y77160*
X477004Y77472*
X476777Y77785*
X479050Y82472D02*
X479504Y82785D01*
X480186Y83722*
Y77160*
X482459Y77785D02*
X482232Y77472D01*
X482459Y77160*
X482686Y77472*
X482459Y77785*
X487459Y82785D02*
X487232Y83410D01*
X486550Y83722*
X486095*
X485413Y83410*
X484959Y82472*
X484732Y80910*
Y79347*
X484959Y78097*
X485413Y77472*
X486095Y77160*
X486322*
X487004Y77472*
X487459Y78097*
X487686Y79035*
Y79347*
X487459Y80285*
X487004Y80910*
X486322Y81222*
X486095*
X485413Y80910*
X484959Y80285*
X484732Y79347*
X490186Y77472D02*
X489959Y77160D01*
X489732Y77472*
X489959Y77785*
X490186Y77472*
Y76847*
X489959Y76222*
X489732Y75910*
X502686Y82472D02*
X503141Y82785D01*
X503822Y83722*
Y77160*
X507232Y83722D02*
X506777Y83410D01*
X506322Y82785*
X506095Y82160*
X505868Y81222*
Y79660*
X506095Y78722*
X506322Y78097*
X506777Y77472*
X507232Y77160*
X508141*
X508595Y77472*
X509050Y78097*
X509277Y78722*
X509504Y79660*
Y81222*
X509277Y82160*
X509050Y82785*
X508595Y83410*
X508141Y83722*
X507232*
X514050Y81535D02*
X511550Y77160D01*
Y81535D02*
X514050D01*
X511550Y77160D02*
X514050D01*
X516550Y77472D02*
X516322Y77160D01*
X516095Y77472*
X516322Y77785*
X516550Y77472*
Y76847*
X516322Y76222*
X516095Y75910*
X529050Y83722D02*
Y77160D01*
Y83722D02*
X531095D01*
X531777Y83410*
X532004Y83097*
X532232Y82472*
Y81535*
X532004Y80910*
X531777Y80597*
X531095Y80285*
X529050*
X537459Y82785D02*
X537004Y83410D01*
X536322Y83722*
X535413*
X534732Y83410*
X534277Y82785*
Y82160*
X534504Y81535*
X534732Y81222*
X535186Y80910*
X536550Y80285*
X537004Y79972*
X537232Y79660*
X537459Y79035*
Y78097*
X537004Y77472*
X536322Y77160*
X535413*
X534732Y77472*
X534277Y78097*
X539504Y83722D02*
Y77160D01*
Y83722D02*
X541550D01*
X542232Y83410*
X542459Y83097*
X542686Y82472*
Y81847*
X542459Y81222*
X542232Y80910*
X541550Y80597*
X539504*
X541095D02*
X542686Y77160D01*
X544959Y81535D02*
X544732Y81222D01*
X544959Y80910*
X545186Y81222*
X544959Y81535*
Y77785D02*
X544732Y77472D01*
X544959Y77160*
X545186Y77472*
X544959Y77785*
X550641Y82160D02*
X550413Y82785D01*
X549959Y83410*
X549504Y83722*
X548595*
X548141Y83410*
X547686Y82785*
X547459Y82160*
X547232Y81222*
Y79660*
X547459Y78722*
X547686Y78097*
X548141Y77472*
X548595Y77160*
X549504*
X549959Y77472*
X550413Y78097*
X550641Y78722*
Y79660*
X549504D02*
X550641D01*
X552686Y81535D02*
Y77160D01*
Y79660D02*
X552913Y80597D01*
X553368Y81222*
X553822Y81535*
X554504*
X556550Y79660D02*
X559277D01*
Y80285*
X559050Y80910*
X558822Y81222*
X558368Y81535*
X557686*
X557232Y81222*
X556777Y80597*
X556550Y79660*
Y79035*
X556777Y78097*
X557232Y77472*
X557686Y77160*
X558368*
X558822Y77472*
X559277Y78097*
X561322Y79660D02*
X564050D01*
Y80285*
X563822Y80910*
X563595Y81222*
X563141Y81535*
X562459*
X562004Y81222*
X561550Y80597*
X561322Y79660*
Y79035*
X561550Y78097*
X562004Y77472*
X562459Y77160*
X563141*
X563595Y77472*
X564050Y78097*
X566095Y81535D02*
Y77160D01*
Y80285D02*
X566777Y81222D01*
X567232Y81535*
X567913*
X568368Y81222*
X568595Y80285*
Y77160*
X633595Y97410D02*
Y92160D01*
Y97410D02*
X635232D01*
X635777Y97160*
X635959Y96910*
X636141Y96410*
Y95910*
X635959Y95410*
X635777Y95160*
X635232Y94910*
X633595*
X634868D02*
X636141Y92160D01*
X637777Y97410D02*
Y92160D01*
Y97410D02*
X640141D01*
X637777Y94910D02*
X639232D01*
X637777Y92160D02*
X640141D01*
X641777Y97410D02*
X643232Y92160D01*
X644686Y97410D02*
X643232Y92160D01*
X646504Y95660D02*
X646322Y95410D01*
X646504Y95160*
X646686Y95410*
X646504Y95660*
Y92660D02*
X646322Y92410D01*
X646504Y92160*
X646686Y92410*
X646504Y92660*
X648322Y96410D02*
X648686Y96660D01*
X649232Y97410*
Y92160*
X651050Y92660D02*
X650868Y92410D01*
X651050Y92160*
X651232Y92410*
X651050Y92660*
X653959Y97410D02*
X653413Y97160D01*
X653050Y96410*
X652868Y95160*
Y94410*
X653050Y93160*
X653413Y92410*
X653959Y92160*
X654322*
X654868Y92410*
X655232Y93160*
X655413Y94410*
Y95160*
X655232Y96410*
X654868Y97160*
X654322Y97410*
X653959*
X442217Y115579D02*
Y110329D01*
X444035Y110829D02*
X443854Y110579D01*
X444035Y110329*
X444217Y110579*
X444035Y110829*
X448581Y114329D02*
X448399Y114829D01*
X448035Y115329*
X447672Y115579*
X446944*
X446581Y115329*
X446217Y114829*
X446035Y114329*
X445854Y113579*
Y112329*
X446035Y111579*
X446217Y111079*
X446581Y110579*
X446944Y110329*
X447672*
X448035Y110579*
X448399Y111079*
X448581Y111579*
Y112329*
X447672D02*
X448581D01*
X450399Y110829D02*
X450217Y110579D01*
X450399Y110329*
X450581Y110579*
X450399Y110829*
X454035Y115579D02*
Y111579D01*
X453854Y110829*
X453672Y110579*
X453308Y110329*
X452944*
X452581Y110579*
X452399Y110829*
X452217Y111579*
Y112079*
X456763Y115579D02*
X456399Y115329D01*
X456035Y114829*
X455854Y114329*
X455672Y113579*
Y112329*
X455854Y111579*
X456035Y111079*
X456399Y110579*
X456763Y110329*
X457490*
X457854Y110579*
X458217Y111079*
X458399Y111579*
X458581Y112329*
Y113579*
X458399Y114329*
X458217Y114829*
X457854Y115329*
X457490Y115579*
X456763*
X460217D02*
Y111829D01*
X460399Y111079*
X460763Y110579*
X461308Y110329*
X461672*
X462217Y110579*
X462581Y111079*
X462763Y111829*
Y115579*
X464399D02*
Y110329D01*
Y115579D02*
X466944Y110329D01*
Y115579D02*
Y110329D01*
X471308Y114329D02*
X471126Y114829D01*
X470763Y115329*
X470399Y115579*
X469672*
X469308Y115329*
X468944Y114829*
X468763Y114329*
X468581Y113579*
Y112329*
X468763Y111579*
X468944Y111079*
X469308Y110579*
X469672Y110329*
X470399*
X470763Y110579*
X471126Y111079*
X471308Y111579*
Y112329*
X470399D02*
X471308D01*
G54D13*
X118110Y240157D02*
X122047Y236220D01*
X389764*
X393701Y232283*
Y200787*
X397638Y196850*
X862205*
X866142Y200787*
Y586614*
X862205Y590551*
X122047*
X118110Y586614*
Y240157*
X350394Y452756D02*
G75*
G03X350394I-94488J0D01*
G01X393595Y102160D02*
X673595D01*
X393595Y87160D02*
X673595D01*
X623595Y102160D02*
Y87160D01*
X393595Y72160D02*
X673595D01*
X393595Y142160D02*
X673595D01*
Y57160*
X393595*
Y142160*
X508595D02*
Y87160D01*
X393595Y122160D02*
X508595D01*
X521141Y96660D02*
X520777Y97160D01*
X520232Y97410*
X519504*
X518959Y97160*
X518595Y96660*
Y96160*
X518777Y95660*
X518959Y95410*
X519322Y95160*
X520413Y94660*
X520777Y94410*
X520959Y94160*
X521141Y93660*
Y92910*
X520777Y92410*
X520232Y92160*
X519504*
X518959Y92410*
X518595Y92910*
X522777Y97410D02*
Y92160D01*
X526959Y97410D02*
X524413Y92160D01*
Y97410D02*
X526959D01*
X524413Y92160D02*
X526959D01*
X528595Y97410D02*
Y92160D01*
Y97410D02*
X530959D01*
X528595Y94910D02*
X530050D01*
X528595Y92160D02*
X530959D01*
X532777Y95660D02*
X532595Y95410D01*
X532777Y95160*
X532959Y95410*
X532777Y95660*
Y92660D02*
X532595Y92410D01*
X532777Y92160*
X532959Y92410*
X532777Y92660*
X401095Y67410D02*
Y62160D01*
X403277*
X406368Y67410D02*
X404913Y62160D01*
X406368Y67410D02*
X407822Y62160D01*
X405459Y63910D02*
X407277D01*
X409459Y67410D02*
X410913Y64910D01*
Y62160*
X412368Y67410D02*
X410913Y64910D01*
X414004Y67410D02*
Y62160D01*
Y67410D02*
X416368D01*
X414004Y64910D02*
X415459D01*
X414004Y62160D02*
X416368D01*
X418004Y67410D02*
Y62160D01*
Y67410D02*
X419641D01*
X420186Y67160*
X420368Y66910*
X420550Y66410*
Y65910*
X420368Y65410*
X420186Y65160*
X419641Y64910*
X418004*
X419277D02*
X420550Y62160D01*
X422368Y65660D02*
X422186Y65410D01*
X422368Y65160*
X422550Y65410*
X422368Y65660*
Y62660D02*
X422186Y62410D01*
X422368Y62160*
X422550Y62410*
X422368Y62660*
X400820Y115992D02*
Y110742D01*
Y115992D02*
X402092D01*
X402638Y115742*
X403001Y115242*
X403183Y114742*
X403365Y113992*
Y112742*
X403183Y111992*
X403001Y111492*
X402638Y110992*
X402092Y110742*
X400820*
X405001Y115992D02*
Y110742D01*
Y115992D02*
X407365D01*
X405001Y113492D02*
X406456D01*
X405001Y110742D02*
X407365D01*
X411547Y115242D02*
X411183Y115742D01*
X410638Y115992*
X409910*
X409365Y115742*
X409001Y115242*
Y114742*
X409183Y114242*
X409365Y113992*
X409729Y113742*
X410820Y113242*
X411183Y112992*
X411365Y112742*
X411547Y112242*
Y111492*
X411183Y110992*
X410638Y110742*
X409910*
X409365Y110992*
X409001Y111492*
X413183Y115992D02*
Y110742D01*
X417547Y114742D02*
X417365Y115242D01*
X417001Y115742*
X416638Y115992*
X415910*
X415547Y115742*
X415183Y115242*
X415001Y114742*
X414820Y113992*
Y112742*
X415001Y111992*
X415183Y111492*
X415547Y110992*
X415910Y110742*
X416638*
X417001Y110992*
X417365Y111492*
X417547Y111992*
Y112742*
X416638D02*
X417547D01*
X419183Y115992D02*
Y110742D01*
Y115992D02*
X421729Y110742D01*
Y115992D02*
Y110742D01*
X423365Y115992D02*
Y110742D01*
Y115992D02*
X425729D01*
X423365Y113492D02*
X424820D01*
X423365Y110742D02*
X425729D01*
X427365Y115992D02*
Y110742D01*
Y115992D02*
X429001D01*
X429547Y115742*
X429729Y115492*
X429910Y114992*
Y114492*
X429729Y113992*
X429547Y113742*
X429001Y113492*
X427365*
X428638D02*
X429910Y110742D01*
X431729Y114242D02*
X431547Y113992D01*
X431729Y113742*
X431910Y113992*
X431729Y114242*
Y111242D02*
X431547Y110992D01*
X431729Y110742*
X431910Y110992*
X431729Y111242*
X402638Y135992D02*
Y131992D01*
X402456Y131242*
X402274Y130992*
X401910Y130742*
X401547*
X401183Y130992*
X401001Y131242*
X400820Y131992*
Y132492*
X405365Y135992D02*
X405001Y135742D01*
X404638Y135242*
X404456Y134742*
X404274Y133992*
Y132742*
X404456Y131992*
X404638Y131492*
X405001Y130992*
X405365Y130742*
X406092*
X406456Y130992*
X406820Y131492*
X407001Y131992*
X407183Y132742*
Y133992*
X407001Y134742*
X406820Y135242*
X406456Y135742*
X406092Y135992*
X405365*
X408820D02*
Y130742D01*
Y135992D02*
X410456D01*
X411001Y135742*
X411183Y135492*
X411365Y134992*
Y134492*
X411183Y133992*
X411001Y133742*
X410456Y133492*
X408820D02*
X410456D01*
X411001Y133242*
X411183Y132992*
X411365Y132492*
Y131742*
X411183Y131242*
X411001Y130992*
X410456Y130742*
X408820*
X417183Y135992D02*
Y130742D01*
Y135992D02*
X419729Y130742D01*
Y135992D02*
Y130742D01*
X422820Y135992D02*
X421365Y130742D01*
X422820Y135992D02*
X424274Y130742D01*
X421910Y132492D02*
X423729D01*
X425910Y135992D02*
Y130742D01*
Y135992D02*
X427365Y130742D01*
X428820Y135992D02*
X427365Y130742D01*
X428820Y135992D02*
Y130742D01*
X430456Y135992D02*
Y130742D01*
Y135992D02*
X432820D01*
X430456Y133492D02*
X431910D01*
X430456Y130742D02*
X432820D01*
X434638Y134242D02*
X434456Y133992D01*
X434638Y133742*
X434820Y133992*
X434638Y134242*
Y131242D02*
X434456Y130992D01*
X434638Y130742*
X434820Y130992*
X434638Y131242*
X402274Y95992D02*
X400820Y90742D01*
X402274Y95992D02*
X403729Y90742D01*
X401365Y92492D02*
X403183D01*
X405365Y95992D02*
Y90742D01*
Y95992D02*
X407001D01*
X407547Y95742*
X407729Y95492*
X407910Y94992*
Y94492*
X407729Y93992*
X407547Y93742*
X407001Y93492*
X405365*
X406638D02*
X407910Y90742D01*
X410820Y95992D02*
Y90742D01*
X409547Y95992D02*
X412092D01*
X413729D02*
X414638Y90742D01*
X415547Y95992D02*
X414638Y90742D01*
X415547Y95992D02*
X416456Y90742D01*
X417365Y95992D02*
X416456Y90742D01*
X420092Y95992D02*
X419729Y95742D01*
X419365Y95242*
X419183Y94742*
X419001Y93992*
Y92742*
X419183Y91992*
X419365Y91492*
X419729Y90992*
X420092Y90742*
X420820*
X421183Y90992*
X421547Y91492*
X421729Y91992*
X421910Y92742*
Y93992*
X421729Y94742*
X421547Y95242*
X421183Y95742*
X420820Y95992*
X420092*
X423547D02*
Y90742D01*
Y95992D02*
X425183D01*
X425729Y95742*
X425910Y95492*
X426092Y94992*
Y94492*
X425910Y93992*
X425729Y93742*
X425183Y93492*
X423547*
X424820D02*
X426092Y90742D01*
X429001Y95992D02*
Y90742D01*
X427729Y95992D02*
X430274D01*
X436092D02*
Y90742D01*
Y95992D02*
X437729D01*
X438274Y95742*
X438456Y95492*
X438638Y94992*
Y94242*
X438456Y93742*
X438274Y93492*
X437729Y93242*
X436092*
X440274Y95992D02*
Y90742D01*
X442456*
X445183Y95992D02*
X444820Y95742D01*
X444456Y95242*
X444274Y94742*
X444092Y93992*
Y92742*
X444274Y91992*
X444456Y91492*
X444820Y90992*
X445183Y90742*
X445910*
X446274Y90992*
X446638Y91492*
X446820Y91992*
X447001Y92742*
Y93992*
X446820Y94742*
X446638Y95242*
X446274Y95742*
X445910Y95992*
X445183*
X449910D02*
Y90742D01*
X448638Y95992D02*
X451183D01*
X453001Y94242D02*
X452820Y93992D01*
X453001Y93742*
X453183Y93992*
X453001Y94242*
Y91242D02*
X452820Y90992D01*
X453001Y90742*
X453183Y90992*
X453001Y91242*
G54D36*
X793594Y295276D03*
X647925Y411417D03*
G54D38*
G54D41*
X820866Y301807D03*
Y284807D03*
G54D42*
X854957Y322835D03*
X837957D03*
G54D43*
X785433Y409106D03*
Y390106D03*
G54D44*
X785630Y259055D03*
X793110D03*
X789370Y268504D03*
X559252Y294094D03*
X566732D03*
X562992Y284646D03*
X838386Y467717D03*
X830906D03*
X834646Y477165D03*
X451575Y487402D03*
X444095D03*
X447835Y496850D03*
X537599Y294094D03*
X545079D03*
X541339Y284646D03*
X451575Y395867D03*
X444095D03*
X447835Y405315D03*
X580906Y294094D03*
X588386D03*
X584646Y284646D03*
X451575Y443111D03*
X444095D03*
X447835Y452559D03*
X710433Y316142D03*
X702953D03*
X706693Y325590D03*
X806890Y538583D03*
X799410D03*
X803150Y548031D03*
G54D45*
X805244Y289376D03*
Y301176D03*
X659575Y405517D03*
Y417317D03*
G54D46*
X811024Y388780D03*
Y410433D03*
G54D48*
X491937Y428760D03*
Y423760D03*
Y418760D03*
Y413760D03*
X515937D03*
Y418760D03*
Y423760D03*
Y428760D03*
X491937Y501594D03*
Y496594D03*
Y491594D03*
Y486594D03*
X515937D03*
Y491594D03*
Y496594D03*
Y501594D03*
X547055Y458287D03*
Y453287D03*
Y448287D03*
Y443287D03*
X571055D03*
Y448287D03*
Y453287D03*
Y458287D03*
G54D49*
X743878Y492315D03*
X738878D03*
X733878D03*
X728878D03*
X723878D03*
X718878D03*
X713878D03*
X708878D03*
Y468315D03*
X713878D03*
X718878D03*
X723878D03*
X728878D03*
X733878D03*
X738878D03*
X743878D03*
X607894Y356488D03*
X602894D03*
X597894D03*
X592894D03*
Y332488D03*
X597894D03*
X602894D03*
X607894D03*
X558681Y356488D03*
X553681D03*
X548681D03*
X543681D03*
Y332488D03*
X548681D03*
X553681D03*
X558681D03*
X794055Y497843D03*
X799055D03*
X804055D03*
X809055D03*
X814055D03*
X819055D03*
X824055D03*
Y521843D03*
X819055D03*
X814055D03*
X809055D03*
X804055D03*
X799055D03*
X794055D03*
X693760Y303790D03*
X688760D03*
X683760D03*
X678760D03*
X673760D03*
X668760D03*
X663760D03*
X658760D03*
X653760D03*
X648760D03*
Y263140D03*
X653760D03*
X658760D03*
X663760D03*
X668760D03*
X673760D03*
X678760D03*
X683760D03*
X688760D03*
X693760D03*
X790965Y368299D03*
X785965D03*
X780965D03*
X775965D03*
Y344299D03*
X780965D03*
X785965D03*
X790965D03*
X657106Y356488D03*
X652106D03*
X647106D03*
X642106D03*
Y332488D03*
X647106D03*
X652106D03*
X657106D03*
X497657Y281685D03*
X492657D03*
X487657D03*
X482657D03*
Y257685D03*
X487657D03*
X492657D03*
X497657D03*
G54D50*
X742126Y400349D03*
Y409449D03*
Y418549D03*
G54D51*
X717726Y409449D03*
G54D52*
X727362Y449882D03*
Y440082D03*
X710630Y538307D03*
Y548107D03*
X759843Y538307D03*
Y548107D03*
X697835Y449882D03*
Y440082D03*
G54D53*
X566929Y270177D03*
Y261319D03*
X435039Y405020D03*
Y396161D03*
X545276Y270177D03*
Y261319D03*
X435039Y452264D03*
Y443406D03*
X588583Y270177D03*
Y261319D03*
X435039Y496555D03*
Y487697D03*
X816929Y547736D03*
Y538878D03*
X820866Y476870D03*
Y468012D03*
G54D54*
X478346Y371654D03*
Y380315D03*
X693307Y479331D03*
X684646D03*
X693307Y504921D03*
X684646D03*
X761811Y366535D03*
Y357874D03*
X588189Y474409D03*
X596850D03*
X590551Y537008D03*
Y545669D03*
X468110Y451772D03*
X476772D03*
Y412402D03*
X468110D03*
X631890Y545669D03*
Y537008D03*
X673228Y415748D03*
Y407087D03*
X616142Y436614D03*
Y445276D03*
X533465Y371654D03*
Y380315D03*
X811024Y325197D03*
Y316535D03*
X572835Y308661D03*
Y317323D03*
X468110Y516732D03*
X476772D03*
Y477362D03*
X468110D03*
X625984Y436614D03*
Y445276D03*
X433071Y309449D03*
Y300787D03*
X492126Y309449D03*
Y300787D03*
X594488Y409055D03*
Y417717D03*
X409449Y258268D03*
Y249606D03*
X435039Y258268D03*
Y249606D03*
X462598Y236614D03*
Y227953D03*
X435039Y236614D03*
Y227953D03*
X484252Y216929D03*
Y208268D03*
X622047Y308661D03*
Y317323D03*
X734252Y325197D03*
Y316535D03*
X641732Y371654D03*
Y380315D03*
X596850Y503937D03*
X588189D03*
X539764Y505906D03*
X531102D03*
X553150Y317323D03*
Y308661D03*
X543307Y317323D03*
Y308661D03*
X535433Y261417D03*
Y270079D03*
X468110Y506890D03*
X476772D03*
Y497047D03*
X468110D03*
X476772Y487205D03*
X468110D03*
X435039Y472835D03*
Y464173D03*
X717520Y449213D03*
Y440551D03*
X707677Y449213D03*
Y440551D03*
X562992Y380315D03*
Y371654D03*
X740157Y547638D03*
Y538976D03*
X663386Y537008D03*
Y545669D03*
X811024Y476772D03*
Y468110D03*
X596850Y494094D03*
X588189D03*
X791339Y325197D03*
Y316535D03*
X801181D03*
Y325197D03*
X761811Y377559D03*
Y386220D03*
X765748Y325197D03*
Y316535D03*
X775591D03*
Y325197D03*
X553150Y371654D03*
Y380315D03*
X750000Y268110D03*
Y259449D03*
X805118Y268110D03*
Y259449D03*
X761811Y268110D03*
Y259449D03*
X771654D03*
Y268110D03*
X730315Y547638D03*
Y538976D03*
X438976Y371654D03*
Y380315D03*
X472441Y300787D03*
Y309449D03*
X507874Y380315D03*
Y371654D03*
X543307D03*
Y380315D03*
X501969Y300787D03*
Y309449D03*
X468504Y270276D03*
Y278937D03*
Y249606D03*
Y258268D03*
X458661D03*
Y249606D03*
X446850D03*
Y258268D03*
X494094Y208268D03*
Y216929D03*
X557087Y261417D03*
Y270079D03*
X781496Y434646D03*
Y443307D03*
X578740Y261417D03*
Y270079D03*
X468110Y441929D03*
X476772D03*
X531102Y486220D03*
X539764D03*
X592520Y371654D03*
Y380315D03*
X610236Y537008D03*
Y545669D03*
X620079Y537008D03*
Y545669D03*
X641732Y537008D03*
Y545669D03*
X625984Y270079D03*
Y261417D03*
X476772Y432087D03*
X468110D03*
X476772Y422244D03*
X468110D03*
X434646Y421260D03*
X443307D03*
X631890Y380315D03*
Y371654D03*
X651575Y380315D03*
Y371654D03*
X661417D03*
Y380315D03*
X442913Y300787D03*
Y309449D03*
X452756D03*
Y300787D03*
X482283D03*
Y309449D03*
X511811D03*
Y300787D03*
X588189Y513780D03*
X596850D03*
X787402Y547638D03*
Y538976D03*
X531102Y496063D03*
X539764D03*
X750000Y366535D03*
Y357874D03*
X596850Y484252D03*
X588189D03*
X600394Y537008D03*
Y545669D03*
X572835Y380315D03*
Y371654D03*
X665354Y436614D03*
Y445276D03*
X582677Y371654D03*
Y380315D03*
X533465Y317323D03*
Y308661D03*
X750000Y547638D03*
Y538976D03*
X720472Y547638D03*
Y538976D03*
X448819Y371654D03*
Y380315D03*
X517717Y371654D03*
Y380315D03*
X554724Y472441D03*
X563386D03*
X488189Y371654D03*
Y380315D03*
X462598Y309449D03*
Y300787D03*
X458661Y371654D03*
Y380315D03*
X435039Y216929D03*
Y208268D03*
X474409D03*
Y216929D03*
X582677Y317323D03*
Y308661D03*
X801181Y476772D03*
Y468110D03*
X781496Y476772D03*
Y468110D03*
X539764Y515748D03*
X531102D03*
Y476378D03*
X539764D03*
X609252Y292717D03*
Y284055D03*
X622047Y380315D03*
Y371654D03*
X612205Y380315D03*
Y371654D03*
X602362Y317323D03*
Y308661D03*
X592520Y317323D03*
Y308661D03*
X720472Y316535D03*
Y325197D03*
X850394Y476772D03*
Y468110D03*
X435039Y516142D03*
Y507480D03*
X653543Y537008D03*
Y545669D03*
X791339Y476772D03*
Y468110D03*
X631890Y317323D03*
Y308661D03*
X645669Y445276D03*
Y436614D03*
X602362Y371654D03*
Y380315D03*
X674213Y371654D03*
Y380315D03*
X744094Y316535D03*
Y325197D03*
X562992Y308661D03*
Y317323D03*
X612205Y308661D03*
Y317323D03*
X468504Y371654D03*
Y380315D03*
X757874Y484646D03*
Y475984D03*
X779528Y505512D03*
Y514173D03*
X706693Y285827D03*
Y277165D03*
X596850Y444882D03*
X588189D03*
X596850Y454724D03*
X588189D03*
X596850Y464567D03*
X588189D03*
X635827Y445276D03*
Y436614D03*
X572835Y348819D03*
Y340157D03*
X622047Y348819D03*
Y340157D03*
X499606Y515748D03*
X508268D03*
X499606Y442913D03*
X508268D03*
X655512Y436614D03*
Y445276D03*
X671260Y348819D03*
Y340157D03*
X498031Y371654D03*
Y380315D03*
X511811Y265354D03*
Y274016D03*
X414961Y391732D03*
X423622D03*
X508268Y539370D03*
X499606D03*
X508268Y462598D03*
X499606D03*
X562598Y503937D03*
X571260D03*
X562598Y494094D03*
X571260D03*
X562598Y484252D03*
X571260D03*
X750000Y339173D03*
Y347835D03*
X793307Y434646D03*
Y443307D03*
G54D55*
X836614Y342913D03*
Y369685D03*
G54D56*
X749213Y295276D03*
X770472D03*
G54D58*
X807087Y434945D03*
Y446945D03*
X757874Y511717D03*
Y523717D03*
X710630Y511717D03*
Y523717D03*
X714567Y380016D03*
Y368016D03*
X700787Y380016D03*
Y368016D03*
X820866Y434945D03*
Y446945D03*
X761811Y415449D03*
Y403449D03*
X744094Y511717D03*
Y523717D03*
X728346Y511717D03*
Y523717D03*
G54D59*
X448819Y227559D03*
Y237008D03*
X423228Y249213D03*
Y258661D03*
X460630Y217323D03*
Y207874D03*
G54D60*
X628937Y467717D03*
X630906D03*
X632874D03*
X634843D03*
X636811D03*
X638780D03*
X640748D03*
X642717D03*
X644685D03*
X646654D03*
X648622D03*
X650591D03*
X652559D03*
X654528D03*
X656496D03*
X658465D03*
Y512598D03*
X656496D03*
X654528D03*
X652559D03*
X650591D03*
X648622D03*
X646654D03*
X644685D03*
X642717D03*
X640748D03*
X638780D03*
X636811D03*
X634843D03*
X632874D03*
X630906D03*
X628937D03*
G54D61*
X666142Y475394D03*
Y477362D03*
Y479331D03*
Y481299D03*
Y483268D03*
Y485236D03*
Y487205D03*
Y489173D03*
Y491142D03*
Y493110D03*
Y495079D03*
Y497047D03*
Y499016D03*
Y500984D03*
Y502953D03*
Y504921D03*
X621260D03*
Y502953D03*
Y500984D03*
Y499016D03*
Y497047D03*
Y495079D03*
Y493110D03*
Y491142D03*
Y489173D03*
Y487205D03*
Y485236D03*
Y483268D03*
Y481299D03*
Y479331D03*
Y477362D03*
Y475394D03*
G54D65*
X696850Y400788D03*
Y418110D03*
X842520Y432284D03*
Y449606D03*
G54D66*
X840551Y413575D03*
Y389575D03*
G54D67*
X415157Y371850D03*
X425394D03*
Y380118D03*
X415157D03*
G54D73*
X610079Y401181D03*
X630079D03*
Y417717D03*
X610079D03*
G54D75*
X807087Y347047D03*
Y365551D03*
G54D76*
X478051Y351870D03*
X475492D03*
X472933D03*
X470374D03*
X467815D03*
X465256D03*
X462697D03*
X460138D03*
X457579D03*
X455020D03*
Y329232D03*
X457579D03*
X460138D03*
X462697D03*
X465256D03*
X467815D03*
X470374D03*
X472933D03*
X475492D03*
X478051D03*
G54D77*
X446945Y431102D03*
X434945D03*
X497937Y527559D03*
X509937D03*
X497937Y452756D03*
X509937D03*
G54D80*
X628839Y295669D03*
X626280D03*
X623720D03*
X621161D03*
Y281102D03*
X623720D03*
X626280D03*
X628839D03*
G74*
X0Y0D02*
M02*
