*
*
G04 PADS 9.5 Build Number: 522968 generated Gerber (RS-274-X) file*
G04 PC Version=2.1*
*
%IN "RF-GEN_CPU_V1.0_PCB_201"*%
*
%MOIN*%
*
%FSLAX35Y35*%
*
*
*
*
G04 PC Standard Apertures*
*
*
G04 Thermal Relief Aperture macro.*
%AMTER*
1,1,$1,0,0*
1,0,$1-$2,0,0*
21,0,$3,$4,0,0,45*
21,0,$3,$4,0,0,135*
%
*
*
G04 Annular Aperture macro.*
%AMANN*
1,1,$1,0,0*
1,0,$2,0,0*
%
*
*
G04 Odd Aperture macro.*
%AMODD*
1,1,$1,0,0*
1,0,$1-0.005,0,0*
%
*
*
G04 PC Custom Aperture Macros*
*
*
*
*
*
*
G04 PC Aperture Table*
*
%ADD011C,0.01*%
%ADD013C,0.006*%
%ADD038C,0.00004*%
*
*
*
*
G04 PC Circuitry*
G04 Layer Name RF-GEN_CPU_V1.0_PCB_201 - circuitry*
%LPD*%
*
*
G04 PC Custom Flashes*
G04 Layer Name RF-GEN_CPU_V1.0_PCB_201 - flashes*
%LPD*%
*
*
G04 PC Circuitry*
G04 Layer Name RF-GEN_CPU_V1.0_PCB_201 - circuitry*
%LPD*%
*
G54D11*
G01X456001Y94742D02*
Y94992D01*
X456183Y95492*
X456365Y95742*
X456729Y95992*
X457456*
X457820Y95742*
X458001Y95492*
X458183Y94992*
Y94492*
X458001Y93992*
X457638Y93242*
X455820Y90742*
X458365*
X461092Y95992D02*
X460547Y95742D01*
X460183Y94992*
X460001Y93742*
Y92992*
X460183Y91742*
X460547Y90992*
X461092Y90742*
X461456*
X462001Y90992*
X462365Y91742*
X462547Y92992*
Y93742*
X462365Y94992*
X462001Y95742*
X461456Y95992*
X461092*
X464183Y94992D02*
X464547Y95242D01*
X465092Y95992*
Y90742*
X469092Y94242D02*
X468910Y93492D01*
X468547Y92992*
X468001Y92742*
X467820*
X467274Y92992*
X466910Y93492*
X466729Y94242*
Y94492*
X466910Y95242*
X467274Y95742*
X467820Y95992*
X468001*
X468547Y95742*
X468910Y95242*
X469092Y94242*
Y92992*
X468910Y91742*
X468547Y90992*
X468001Y90742*
X467638*
X467092Y90992*
X466910Y91492*
X470910Y91242D02*
X470729Y90992D01*
X470910Y90742*
X471092Y90992*
X470910Y91242*
X472729Y94992D02*
X473092Y95242D01*
X473638Y95992*
Y90742*
X475274Y94992D02*
X475638Y95242D01*
X476183Y95992*
Y90742*
X478001Y91242D02*
X477820Y90992D01*
X478001Y90742*
X478183Y90992*
X478001Y91242*
X479820Y94992D02*
X480183Y95242D01*
X480729Y95992*
Y90742*
X484910Y95992D02*
X483092Y90742D01*
X482365Y95992D02*
X484910D01*
X439595Y135410D02*
Y130160D01*
Y135410D02*
X441232D01*
X441777Y135160*
X441959Y134910*
X442141Y134410*
Y133910*
X441959Y133410*
X441777Y133160*
X441232Y132910*
X439595*
X440868D02*
X442141Y130160D01*
X443777Y135410D02*
Y130160D01*
Y135410D02*
X446141D01*
X443777Y132910D02*
X445232D01*
X447777Y132410D02*
X451050D01*
X455413Y134160D02*
X455232Y134660D01*
X454868Y135160*
X454504Y135410*
X453777*
X453413Y135160*
X453050Y134660*
X452868Y134160*
X452686Y133410*
Y132160*
X452868Y131410*
X453050Y130910*
X453413Y130410*
X453777Y130160*
X454504*
X454868Y130410*
X455232Y130910*
X455413Y131410*
Y132160*
X454504D02*
X455413D01*
X457050Y135410D02*
Y130160D01*
Y135410D02*
X459413D01*
X457050Y132910D02*
X458504D01*
X457050Y130160D02*
X459413D01*
X461050Y135410D02*
Y130160D01*
Y135410D02*
X463595Y130160D01*
Y135410D02*
Y130160D01*
X465232Y132410D02*
X468504D01*
X472868Y134160D02*
X472686Y134660D01*
X472322Y135160*
X471959Y135410*
X471232*
X470868Y135160*
X470504Y134660*
X470322Y134160*
X470141Y133410*
Y132160*
X470322Y131410*
X470504Y130910*
X470868Y130410*
X471232Y130160*
X471959*
X472322Y130410*
X472686Y130910*
X472868Y131410*
X474504Y135410D02*
Y130160D01*
Y135410D02*
X476141D01*
X476686Y135160*
X476868Y134910*
X477050Y134410*
Y133660*
X476868Y133160*
X476686Y132910*
X476141Y132660*
X474504*
X478686Y135410D02*
Y131660D01*
X478868Y130910*
X479232Y130410*
X479777Y130160*
X480141*
X480686Y130410*
X481050Y130910*
X481232Y131660*
Y135410*
X482868Y132410D02*
X486141D01*
X488868Y135410D02*
X488322Y135160D01*
X487959Y134410*
X487777Y133160*
Y132410*
X487959Y131160*
X488322Y130410*
X488868Y130160*
X489232*
X489777Y130410*
X490141Y131160*
X490322Y132410*
Y133160*
X490141Y134410*
X489777Y135160*
X489232Y135410*
X488868*
X493050D02*
X492504Y135160D01*
X492141Y134410*
X491959Y133160*
Y132410*
X492141Y131160*
X492504Y130410*
X493050Y130160*
X493413*
X493959Y130410*
X494322Y131160*
X494504Y132410*
Y133160*
X494322Y134410*
X493959Y135160*
X493413Y135410*
X493050*
X496141Y134410D02*
X496504Y134660D01*
X497050Y135410*
Y130160*
X544717Y97079D02*
X545081Y97329D01*
X545626Y98079*
Y92829*
X548354Y98079D02*
X547808Y97829D01*
X547444Y97079*
X547263Y95829*
Y95079*
X547444Y93829*
X547808Y93079*
X548354Y92829*
X548717*
X549263Y93079*
X549626Y93829*
X549808Y95079*
Y95829*
X549626Y97079*
X549263Y97829*
X548717Y98079*
X548354*
X552535D02*
X551990Y97829D01*
X551626Y97079*
X551444Y95829*
Y95079*
X551626Y93829*
X551990Y93079*
X552535Y92829*
X552899*
X553444Y93079*
X553808Y93829*
X553990Y95079*
Y95829*
X553808Y97079*
X553444Y97829*
X552899Y98079*
X552535*
X559808D02*
X562354Y92829D01*
Y98079D02*
X559808Y92829D01*
X568172Y97079D02*
X568535Y97329D01*
X569081Y98079*
Y92829*
X573081Y96329D02*
X572899Y95579D01*
X572535Y95079*
X571990Y94829*
X571808*
X571263Y95079*
X570899Y95579*
X570717Y96329*
Y96579*
X570899Y97329*
X571263Y97829*
X571808Y98079*
X571990*
X572535Y97829*
X572899Y97329*
X573081Y96329*
Y95079*
X572899Y93829*
X572535Y93079*
X571990Y92829*
X571626*
X571081Y93079*
X570899Y93579*
X575808Y98079D02*
X575263Y97829D01*
X574899Y97079*
X574717Y95829*
Y95079*
X574899Y93829*
X575263Y93079*
X575808Y92829*
X576172*
X576717Y93079*
X577081Y93829*
X577263Y95079*
Y95829*
X577081Y97079*
X576717Y97829*
X576172Y98079*
X575808*
X403368Y83722D02*
X401095Y79347D01*
X404504*
X403368Y83722D02*
Y77160D01*
X406550Y83722D02*
Y77160D01*
X409277*
X414050Y81535D02*
Y77160D01*
Y80597D02*
X413595Y81222D01*
X413141Y81535*
X412459*
X412004Y81222*
X411550Y80597*
X411322Y79660*
Y79035*
X411550Y78097*
X412004Y77472*
X412459Y77160*
X413141*
X413595Y77472*
X414050Y78097*
X416322Y81535D02*
X417686Y77160D01*
X419050Y81535D02*
X417686Y77160D01*
X417232Y75910*
X416777Y75285*
X416322Y74972*
X416095*
X421095Y79660D02*
X423822D01*
Y80285*
X423595Y80910*
X423368Y81222*
X422913Y81535*
X422232*
X421777Y81222*
X421322Y80597*
X421095Y79660*
Y79035*
X421322Y78097*
X421777Y77472*
X422232Y77160*
X422913*
X423368Y77472*
X423822Y78097*
X425868Y81535D02*
Y77160D01*
Y79660D02*
X426095Y80597D01*
X426550Y81222*
X427004Y81535*
X427686*
X430186Y77472D02*
X429959Y77160D01*
X429732Y77472*
X429959Y77785*
X430186Y77472*
Y76847*
X429959Y76222*
X429732Y75910*
X442686Y83722D02*
Y77160D01*
Y83722D02*
X445641D01*
X442686Y80597D02*
X444504D01*
X447686Y83722D02*
Y77160D01*
Y83722D02*
X449732D01*
X450413Y83410*
X450641Y83097*
X450868Y82472*
Y81847*
X450641Y81222*
X450413Y80910*
X449732Y80597*
X447686*
X449277D02*
X450868Y77160D01*
X455186Y83722D02*
X452913Y79347D01*
X456322*
X455186Y83722D02*
Y77160D01*
X458822Y77472D02*
X458595Y77160D01*
X458368Y77472*
X458595Y77785*
X458822Y77472*
Y76847*
X458595Y76222*
X458368Y75910*
X472913Y83722D02*
Y77160D01*
X471322Y83722D02*
X474504D01*
X476777Y81535D02*
X476550Y81222D01*
X476777Y80910*
X477004Y81222*
X476777Y81535*
Y77785D02*
X476550Y77472D01*
X476777Y77160*
X477004Y77472*
X476777Y77785*
X479050Y82472D02*
X479504Y82785D01*
X480186Y83722*
Y77160*
X482459Y77785D02*
X482232Y77472D01*
X482459Y77160*
X482686Y77472*
X482459Y77785*
X487459Y82785D02*
X487232Y83410D01*
X486550Y83722*
X486095*
X485413Y83410*
X484959Y82472*
X484732Y80910*
Y79347*
X484959Y78097*
X485413Y77472*
X486095Y77160*
X486322*
X487004Y77472*
X487459Y78097*
X487686Y79035*
Y79347*
X487459Y80285*
X487004Y80910*
X486322Y81222*
X486095*
X485413Y80910*
X484959Y80285*
X484732Y79347*
X490186Y77472D02*
X489959Y77160D01*
X489732Y77472*
X489959Y77785*
X490186Y77472*
Y76847*
X489959Y76222*
X489732Y75910*
X502686Y82472D02*
X503141Y82785D01*
X503822Y83722*
Y77160*
X507232Y83722D02*
X506777Y83410D01*
X506322Y82785*
X506095Y82160*
X505868Y81222*
Y79660*
X506095Y78722*
X506322Y78097*
X506777Y77472*
X507232Y77160*
X508141*
X508595Y77472*
X509050Y78097*
X509277Y78722*
X509504Y79660*
Y81222*
X509277Y82160*
X509050Y82785*
X508595Y83410*
X508141Y83722*
X507232*
X514050Y81535D02*
X511550Y77160D01*
Y81535D02*
X514050D01*
X511550Y77160D02*
X514050D01*
X516550Y77472D02*
X516322Y77160D01*
X516095Y77472*
X516322Y77785*
X516550Y77472*
Y76847*
X516322Y76222*
X516095Y75910*
X529050Y83722D02*
Y77160D01*
Y83722D02*
X531095D01*
X531777Y83410*
X532004Y83097*
X532232Y82472*
Y81535*
X532004Y80910*
X531777Y80597*
X531095Y80285*
X529050*
X537459Y82785D02*
X537004Y83410D01*
X536322Y83722*
X535413*
X534732Y83410*
X534277Y82785*
Y82160*
X534504Y81535*
X534732Y81222*
X535186Y80910*
X536550Y80285*
X537004Y79972*
X537232Y79660*
X537459Y79035*
Y78097*
X537004Y77472*
X536322Y77160*
X535413*
X534732Y77472*
X534277Y78097*
X539504Y83722D02*
Y77160D01*
Y83722D02*
X541550D01*
X542232Y83410*
X542459Y83097*
X542686Y82472*
Y81847*
X542459Y81222*
X542232Y80910*
X541550Y80597*
X539504*
X541095D02*
X542686Y77160D01*
X544959Y81535D02*
X544732Y81222D01*
X544959Y80910*
X545186Y81222*
X544959Y81535*
Y77785D02*
X544732Y77472D01*
X544959Y77160*
X545186Y77472*
X544959Y77785*
X550641Y82160D02*
X550413Y82785D01*
X549959Y83410*
X549504Y83722*
X548595*
X548141Y83410*
X547686Y82785*
X547459Y82160*
X547232Y81222*
Y79660*
X547459Y78722*
X547686Y78097*
X548141Y77472*
X548595Y77160*
X549504*
X549959Y77472*
X550413Y78097*
X550641Y78722*
Y79660*
X549504D02*
X550641D01*
X552686Y81535D02*
Y77160D01*
Y79660D02*
X552913Y80597D01*
X553368Y81222*
X553822Y81535*
X554504*
X556550Y79660D02*
X559277D01*
Y80285*
X559050Y80910*
X558822Y81222*
X558368Y81535*
X557686*
X557232Y81222*
X556777Y80597*
X556550Y79660*
Y79035*
X556777Y78097*
X557232Y77472*
X557686Y77160*
X558368*
X558822Y77472*
X559277Y78097*
X561322Y79660D02*
X564050D01*
Y80285*
X563822Y80910*
X563595Y81222*
X563141Y81535*
X562459*
X562004Y81222*
X561550Y80597*
X561322Y79660*
Y79035*
X561550Y78097*
X562004Y77472*
X562459Y77160*
X563141*
X563595Y77472*
X564050Y78097*
X566095Y81535D02*
Y77160D01*
Y80285D02*
X566777Y81222D01*
X567232Y81535*
X567913*
X568368Y81222*
X568595Y80285*
Y77160*
X633595Y97410D02*
Y92160D01*
Y97410D02*
X635232D01*
X635777Y97160*
X635959Y96910*
X636141Y96410*
Y95910*
X635959Y95410*
X635777Y95160*
X635232Y94910*
X633595*
X634868D02*
X636141Y92160D01*
X637777Y97410D02*
Y92160D01*
Y97410D02*
X640141D01*
X637777Y94910D02*
X639232D01*
X637777Y92160D02*
X640141D01*
X641777Y97410D02*
X643232Y92160D01*
X644686Y97410D02*
X643232Y92160D01*
X646504Y95660D02*
X646322Y95410D01*
X646504Y95160*
X646686Y95410*
X646504Y95660*
Y92660D02*
X646322Y92410D01*
X646504Y92160*
X646686Y92410*
X646504Y92660*
X648322Y96410D02*
X648686Y96660D01*
X649232Y97410*
Y92160*
X651050Y92660D02*
X650868Y92410D01*
X651050Y92160*
X651232Y92410*
X651050Y92660*
X653959Y97410D02*
X653413Y97160D01*
X653050Y96410*
X652868Y95160*
Y94410*
X653050Y93160*
X653413Y92410*
X653959Y92160*
X654322*
X654868Y92410*
X655232Y93160*
X655413Y94410*
Y95160*
X655232Y96410*
X654868Y97160*
X654322Y97410*
X653959*
X442217Y115579D02*
Y110329D01*
X444035Y110829D02*
X443854Y110579D01*
X444035Y110329*
X444217Y110579*
X444035Y110829*
X448581Y114329D02*
X448399Y114829D01*
X448035Y115329*
X447672Y115579*
X446944*
X446581Y115329*
X446217Y114829*
X446035Y114329*
X445854Y113579*
Y112329*
X446035Y111579*
X446217Y111079*
X446581Y110579*
X446944Y110329*
X447672*
X448035Y110579*
X448399Y111079*
X448581Y111579*
Y112329*
X447672D02*
X448581D01*
X450399Y110829D02*
X450217Y110579D01*
X450399Y110329*
X450581Y110579*
X450399Y110829*
X454035Y115579D02*
Y111579D01*
X453854Y110829*
X453672Y110579*
X453308Y110329*
X452944*
X452581Y110579*
X452399Y110829*
X452217Y111579*
Y112079*
X456763Y115579D02*
X456399Y115329D01*
X456035Y114829*
X455854Y114329*
X455672Y113579*
Y112329*
X455854Y111579*
X456035Y111079*
X456399Y110579*
X456763Y110329*
X457490*
X457854Y110579*
X458217Y111079*
X458399Y111579*
X458581Y112329*
Y113579*
X458399Y114329*
X458217Y114829*
X457854Y115329*
X457490Y115579*
X456763*
X460217D02*
Y111829D01*
X460399Y111079*
X460763Y110579*
X461308Y110329*
X461672*
X462217Y110579*
X462581Y111079*
X462763Y111829*
Y115579*
X464399D02*
Y110329D01*
Y115579D02*
X466944Y110329D01*
Y115579D02*
Y110329D01*
X471308Y114329D02*
X471126Y114829D01*
X470763Y115329*
X470399Y115579*
X469672*
X469308Y115329*
X468944Y114829*
X468763Y114329*
X468581Y113579*
Y112329*
X468763Y111579*
X468944Y111079*
X469308Y110579*
X469672Y110329*
X470399*
X470763Y110579*
X471126Y111079*
X471308Y111579*
Y112329*
X470399D02*
X471308D01*
G54D13*
X118110Y240157D02*
X122047Y236220D01*
X389764*
X393701Y232283*
Y200787*
X397638Y196850*
X862205*
X866142Y200787*
Y586614*
X862205Y590551*
X122047*
X118110Y586614*
Y240157*
X350394Y452756D02*
G75*
G03X350394I-94488J0D01*
G01X393595Y102160D02*
X673595D01*
X393595Y87160D02*
X673595D01*
X623595Y102160D02*
Y87160D01*
X393595Y72160D02*
X673595D01*
X393595Y142160D02*
X673595D01*
Y57160*
X393595*
Y142160*
X508595D02*
Y87160D01*
X393595Y122160D02*
X508595D01*
X521141Y96660D02*
X520777Y97160D01*
X520232Y97410*
X519504*
X518959Y97160*
X518595Y96660*
Y96160*
X518777Y95660*
X518959Y95410*
X519322Y95160*
X520413Y94660*
X520777Y94410*
X520959Y94160*
X521141Y93660*
Y92910*
X520777Y92410*
X520232Y92160*
X519504*
X518959Y92410*
X518595Y92910*
X522777Y97410D02*
Y92160D01*
X526959Y97410D02*
X524413Y92160D01*
Y97410D02*
X526959D01*
X524413Y92160D02*
X526959D01*
X528595Y97410D02*
Y92160D01*
Y97410D02*
X530959D01*
X528595Y94910D02*
X530050D01*
X528595Y92160D02*
X530959D01*
X532777Y95660D02*
X532595Y95410D01*
X532777Y95160*
X532959Y95410*
X532777Y95660*
Y92660D02*
X532595Y92410D01*
X532777Y92160*
X532959Y92410*
X532777Y92660*
X401095Y67410D02*
Y62160D01*
X403277*
X406368Y67410D02*
X404913Y62160D01*
X406368Y67410D02*
X407822Y62160D01*
X405459Y63910D02*
X407277D01*
X409459Y67410D02*
X410913Y64910D01*
Y62160*
X412368Y67410D02*
X410913Y64910D01*
X414004Y67410D02*
Y62160D01*
Y67410D02*
X416368D01*
X414004Y64910D02*
X415459D01*
X414004Y62160D02*
X416368D01*
X418004Y67410D02*
Y62160D01*
Y67410D02*
X419641D01*
X420186Y67160*
X420368Y66910*
X420550Y66410*
Y65910*
X420368Y65410*
X420186Y65160*
X419641Y64910*
X418004*
X419277D02*
X420550Y62160D01*
X422368Y65660D02*
X422186Y65410D01*
X422368Y65160*
X422550Y65410*
X422368Y65660*
Y62660D02*
X422186Y62410D01*
X422368Y62160*
X422550Y62410*
X422368Y62660*
X400820Y115992D02*
Y110742D01*
Y115992D02*
X402092D01*
X402638Y115742*
X403001Y115242*
X403183Y114742*
X403365Y113992*
Y112742*
X403183Y111992*
X403001Y111492*
X402638Y110992*
X402092Y110742*
X400820*
X405001Y115992D02*
Y110742D01*
Y115992D02*
X407365D01*
X405001Y113492D02*
X406456D01*
X405001Y110742D02*
X407365D01*
X411547Y115242D02*
X411183Y115742D01*
X410638Y115992*
X409910*
X409365Y115742*
X409001Y115242*
Y114742*
X409183Y114242*
X409365Y113992*
X409729Y113742*
X410820Y113242*
X411183Y112992*
X411365Y112742*
X411547Y112242*
Y111492*
X411183Y110992*
X410638Y110742*
X409910*
X409365Y110992*
X409001Y111492*
X413183Y115992D02*
Y110742D01*
X417547Y114742D02*
X417365Y115242D01*
X417001Y115742*
X416638Y115992*
X415910*
X415547Y115742*
X415183Y115242*
X415001Y114742*
X414820Y113992*
Y112742*
X415001Y111992*
X415183Y111492*
X415547Y110992*
X415910Y110742*
X416638*
X417001Y110992*
X417365Y111492*
X417547Y111992*
Y112742*
X416638D02*
X417547D01*
X419183Y115992D02*
Y110742D01*
Y115992D02*
X421729Y110742D01*
Y115992D02*
Y110742D01*
X423365Y115992D02*
Y110742D01*
Y115992D02*
X425729D01*
X423365Y113492D02*
X424820D01*
X423365Y110742D02*
X425729D01*
X427365Y115992D02*
Y110742D01*
Y115992D02*
X429001D01*
X429547Y115742*
X429729Y115492*
X429910Y114992*
Y114492*
X429729Y113992*
X429547Y113742*
X429001Y113492*
X427365*
X428638D02*
X429910Y110742D01*
X431729Y114242D02*
X431547Y113992D01*
X431729Y113742*
X431910Y113992*
X431729Y114242*
Y111242D02*
X431547Y110992D01*
X431729Y110742*
X431910Y110992*
X431729Y111242*
X402638Y135992D02*
Y131992D01*
X402456Y131242*
X402274Y130992*
X401910Y130742*
X401547*
X401183Y130992*
X401001Y131242*
X400820Y131992*
Y132492*
X405365Y135992D02*
X405001Y135742D01*
X404638Y135242*
X404456Y134742*
X404274Y133992*
Y132742*
X404456Y131992*
X404638Y131492*
X405001Y130992*
X405365Y130742*
X406092*
X406456Y130992*
X406820Y131492*
X407001Y131992*
X407183Y132742*
Y133992*
X407001Y134742*
X406820Y135242*
X406456Y135742*
X406092Y135992*
X405365*
X408820D02*
Y130742D01*
Y135992D02*
X410456D01*
X411001Y135742*
X411183Y135492*
X411365Y134992*
Y134492*
X411183Y133992*
X411001Y133742*
X410456Y133492*
X408820D02*
X410456D01*
X411001Y133242*
X411183Y132992*
X411365Y132492*
Y131742*
X411183Y131242*
X411001Y130992*
X410456Y130742*
X408820*
X417183Y135992D02*
Y130742D01*
Y135992D02*
X419729Y130742D01*
Y135992D02*
Y130742D01*
X422820Y135992D02*
X421365Y130742D01*
X422820Y135992D02*
X424274Y130742D01*
X421910Y132492D02*
X423729D01*
X425910Y135992D02*
Y130742D01*
Y135992D02*
X427365Y130742D01*
X428820Y135992D02*
X427365Y130742D01*
X428820Y135992D02*
Y130742D01*
X430456Y135992D02*
Y130742D01*
Y135992D02*
X432820D01*
X430456Y133492D02*
X431910D01*
X430456Y130742D02*
X432820D01*
X434638Y134242D02*
X434456Y133992D01*
X434638Y133742*
X434820Y133992*
X434638Y134242*
Y131242D02*
X434456Y130992D01*
X434638Y130742*
X434820Y130992*
X434638Y131242*
X402274Y95992D02*
X400820Y90742D01*
X402274Y95992D02*
X403729Y90742D01*
X401365Y92492D02*
X403183D01*
X405365Y95992D02*
Y90742D01*
Y95992D02*
X407001D01*
X407547Y95742*
X407729Y95492*
X407910Y94992*
Y94492*
X407729Y93992*
X407547Y93742*
X407001Y93492*
X405365*
X406638D02*
X407910Y90742D01*
X410820Y95992D02*
Y90742D01*
X409547Y95992D02*
X412092D01*
X413729D02*
X414638Y90742D01*
X415547Y95992D02*
X414638Y90742D01*
X415547Y95992D02*
X416456Y90742D01*
X417365Y95992D02*
X416456Y90742D01*
X420092Y95992D02*
X419729Y95742D01*
X419365Y95242*
X419183Y94742*
X419001Y93992*
Y92742*
X419183Y91992*
X419365Y91492*
X419729Y90992*
X420092Y90742*
X420820*
X421183Y90992*
X421547Y91492*
X421729Y91992*
X421910Y92742*
Y93992*
X421729Y94742*
X421547Y95242*
X421183Y95742*
X420820Y95992*
X420092*
X423547D02*
Y90742D01*
Y95992D02*
X425183D01*
X425729Y95742*
X425910Y95492*
X426092Y94992*
Y94492*
X425910Y93992*
X425729Y93742*
X425183Y93492*
X423547*
X424820D02*
X426092Y90742D01*
X429001Y95992D02*
Y90742D01*
X427729Y95992D02*
X430274D01*
X436092D02*
Y90742D01*
Y95992D02*
X437729D01*
X438274Y95742*
X438456Y95492*
X438638Y94992*
Y94242*
X438456Y93742*
X438274Y93492*
X437729Y93242*
X436092*
X440274Y95992D02*
Y90742D01*
X442456*
X445183Y95992D02*
X444820Y95742D01*
X444456Y95242*
X444274Y94742*
X444092Y93992*
Y92742*
X444274Y91992*
X444456Y91492*
X444820Y90992*
X445183Y90742*
X445910*
X446274Y90992*
X446638Y91492*
X446820Y91992*
X447001Y92742*
Y93992*
X446820Y94742*
X446638Y95242*
X446274Y95742*
X445910Y95992*
X445183*
X449910D02*
Y90742D01*
X448638Y95992D02*
X451183D01*
X453001Y94242D02*
X452820Y93992D01*
X453001Y93742*
X453183Y93992*
X453001Y94242*
Y91242D02*
X452820Y90992D01*
X453001Y90742*
X453183Y90992*
X453001Y91242*
G54D38*
G74*
X0Y0D02*
M02*
