*
*
G04 PADS 9.5 Build Number: 522968 generated Gerber (RS-274-X) file*
G04 PC Version=2.1*
*
%IN "RF-GEN_PWR_V1.0_PCB_201"*%
*
%MOIN*%
*
%FSLAX35Y35*%
*
*
*
*
G04 PC Standard Apertures*
*
*
G04 Thermal Relief Aperture macro.*
%AMTER*
1,1,$1,0,0*
1,0,$1-$2,0,0*
21,0,$3,$4,0,0,45*
21,0,$3,$4,0,0,135*
%
*
*
G04 Annular Aperture macro.*
%AMANN*
1,1,$1,0,0*
1,0,$2,0,0*
%
*
*
G04 Odd Aperture macro.*
%AMODD*
1,1,$1,0,0*
1,0,$1-0.005,0,0*
%
*
*
G04 PC Custom Aperture Macros*
*
*
*
*
*
*
G04 PC Aperture Table*
*
%ADD011C,0.01*%
%ADD013C,0.006*%
%ADD016C,0.005*%
%ADD026C,0.02362*%
%ADD030C,0.03937*%
%ADD034C,0.04*%
%ADD038C,0.00004*%
%ADD040C,0.06693*%
%ADD041C,0.09055*%
%ADD043O,0.07874X0.19685*%
%ADD044C,0.10236*%
%ADD045C,0.07874*%
%ADD046C,0.11811*%
%ADD049R,0.09843X0.06693*%
%ADD050O,0.09843X0.06693*%
%ADD051C,0.1378*%
%ADD052C,0.08*%
%ADD053C,0.07*%
%ADD054C,0.09843*%
%ADD055R,0.11811X0.11811*%
%ADD056C,0.07087*%
%ADD057C,0.12598*%
%ADD058R,0.06X0.06*%
%ADD059R,0.08X0.08*%
%ADD074R,0.11024X0.11024*%
%ADD075C,0.11024*%
%ADD077O,0.07X0.09*%
%ADD078O,0.09X0.07*%
%ADD080C,0.04724*%
%ADD081C,0.02953*%
%ADD082C,0.02*%
*
*
*
*
G04 PC Circuitry*
G04 Layer Name RF-GEN_PWR_V1.0_PCB_201 - circuitry*
%LPD*%
*
*
G04 PC Custom Flashes*
G04 Layer Name RF-GEN_PWR_V1.0_PCB_201 - flashes*
%LPD*%
*
*
G04 PC Circuitry*
G04 Layer Name RF-GEN_PWR_V1.0_PCB_201 - circuitry*
%LPD*%
*
G54D11*
G01X472941Y495856D02*
X474617Y497531D01*
X498239*
X500500Y499793*
Y500108*
X513278Y512886*
X581683*
X583358Y511210*
Y508475*
X581683Y506799*
X569084*
X562492Y500207*
Y496270*
X560817Y494594*
X560541*
X530996Y465050*
Y394478*
X538179Y387295*
X551958*
X553634Y385620*
Y382097*
X551958Y380421*
X538179*
X534242Y376484*
X515955*
X500500Y391939*
Y462806*
X498239Y465067*
X474617*
X472941Y466743*
Y495856*
X983177Y483257D02*
X986821Y486902D01*
X1023415*
X1027059Y483257*
Y405719*
X1023415Y402075*
X986821*
X983177Y405719*
Y483257*
X1051681Y499793D02*
X1055325Y503437D01*
X1091919*
X1095563Y499793*
Y397845*
X1091919Y394201*
X1055325*
X1051681Y397845*
Y499793*
X963689Y318691D02*
X967333Y322335D01*
X976585*
X980815Y326565*
Y354124*
X984459Y357768*
X1025383*
X1029028Y354124*
Y300207*
X1025383Y296563*
X967333*
X963689Y300207*
Y318691*
X510975Y510583D02*
X583358D01*
X510075Y509683D02*
X583358D01*
X509175Y508783D02*
X583358D01*
X511875Y511483D02*
X583086D01*
X508275Y507883D02*
X582766D01*
X512775Y512383D02*
X582186D01*
X507375Y506983D02*
X581866D01*
X506475Y506083D02*
X568368D01*
X505575Y505183D02*
X567468D01*
X504675Y504283D02*
X566568D01*
X503775Y503383D02*
X565668D01*
X502875Y502483D02*
X564768D01*
X501975Y501583D02*
X563868D01*
X501075Y500683D02*
X562968D01*
X500490Y499783D02*
X562492D01*
X499590Y498883D02*
X562492D01*
X498690Y497983D02*
X562492D01*
X474168Y497083D02*
X562492D01*
X473268Y496183D02*
X562405D01*
X472941Y495283D02*
X561505D01*
X472941Y494383D02*
X560329D01*
X472941Y493483D02*
X559429D01*
X472941Y492583D02*
X558529D01*
X472941Y491683D02*
X557629D01*
X472941Y490783D02*
X556729D01*
X472941Y489883D02*
X555829D01*
X472941Y488983D02*
X554929D01*
X472941Y488083D02*
X554029D01*
X506956Y385483D02*
X553634D01*
X507856Y384583D02*
X553634D01*
X508756Y383683D02*
X553634D01*
X509656Y382783D02*
X553634D01*
X510556Y381883D02*
X553420D01*
X472941Y487183D02*
X553129D01*
X506056Y386383D02*
X552871D01*
X511456Y380983D02*
X552520D01*
X472941Y486283D02*
X552229D01*
X505156Y387283D02*
X551971D01*
X472941Y485383D02*
X551329D01*
X472941Y484483D02*
X550429D01*
X472941Y483583D02*
X549529D01*
X472941Y482683D02*
X548629D01*
X472941Y481783D02*
X547729D01*
X472941Y480883D02*
X546829D01*
X472941Y479983D02*
X545929D01*
X472941Y479083D02*
X545029D01*
X472941Y478183D02*
X544129D01*
X472941Y477283D02*
X543229D01*
X472941Y476383D02*
X542329D01*
X472941Y475483D02*
X541429D01*
X472941Y474583D02*
X540529D01*
X472941Y473683D02*
X539629D01*
X472941Y472783D02*
X538729D01*
X512356Y380083D02*
X537840D01*
X472941Y471883D02*
X537829D01*
X504256Y388183D02*
X537291D01*
X513256Y379183D02*
X536940D01*
X472941Y470983D02*
X536929D01*
X503356Y389083D02*
X536391D01*
X514156Y378283D02*
X536040D01*
X472941Y470083D02*
X536029D01*
X502456Y389983D02*
X535491D01*
X515056Y377383D02*
X535140D01*
X472941Y469183D02*
X535129D01*
X501556Y390883D02*
X534591D01*
X472941Y468283D02*
X534229D01*
X500656Y391783D02*
X533691D01*
X472941Y467383D02*
X533329D01*
X500500Y392683D02*
X532791D01*
X473201Y466483D02*
X532429D01*
X500500Y393583D02*
X531891D01*
X474101Y465583D02*
X531529D01*
X498623Y464683D02*
X530996D01*
X499523Y463783D02*
X530996D01*
X500423Y462883D02*
X530996D01*
X500500Y461983D02*
X530996D01*
X500500Y461083D02*
X530996D01*
X500500Y460183D02*
X530996D01*
X500500Y459283D02*
X530996D01*
X500500Y458383D02*
X530996D01*
X500500Y457483D02*
X530996D01*
X500500Y456583D02*
X530996D01*
X500500Y455683D02*
X530996D01*
X500500Y454783D02*
X530996D01*
X500500Y453883D02*
X530996D01*
X500500Y452983D02*
X530996D01*
X500500Y452083D02*
X530996D01*
X500500Y451183D02*
X530996D01*
X500500Y450283D02*
X530996D01*
X500500Y449383D02*
X530996D01*
X500500Y448483D02*
X530996D01*
X500500Y447583D02*
X530996D01*
X500500Y446683D02*
X530996D01*
X500500Y445783D02*
X530996D01*
X500500Y444883D02*
X530996D01*
X500500Y443983D02*
X530996D01*
X500500Y443083D02*
X530996D01*
X500500Y442183D02*
X530996D01*
X500500Y441283D02*
X530996D01*
X500500Y440383D02*
X530996D01*
X500500Y439483D02*
X530996D01*
X500500Y438583D02*
X530996D01*
X500500Y437683D02*
X530996D01*
X500500Y436783D02*
X530996D01*
X500500Y435883D02*
X530996D01*
X500500Y434983D02*
X530996D01*
X500500Y434083D02*
X530996D01*
X500500Y433183D02*
X530996D01*
X500500Y432283D02*
X530996D01*
X500500Y431383D02*
X530996D01*
X500500Y430483D02*
X530996D01*
X500500Y429583D02*
X530996D01*
X500500Y428683D02*
X530996D01*
X500500Y427783D02*
X530996D01*
X500500Y426883D02*
X530996D01*
X500500Y425983D02*
X530996D01*
X500500Y425083D02*
X530996D01*
X500500Y424183D02*
X530996D01*
X500500Y423283D02*
X530996D01*
X500500Y422383D02*
X530996D01*
X500500Y421483D02*
X530996D01*
X500500Y420583D02*
X530996D01*
X500500Y419683D02*
X530996D01*
X500500Y418783D02*
X530996D01*
X500500Y417883D02*
X530996D01*
X500500Y416983D02*
X530996D01*
X500500Y416083D02*
X530996D01*
X500500Y415183D02*
X530996D01*
X500500Y414283D02*
X530996D01*
X500500Y413383D02*
X530996D01*
X500500Y412483D02*
X530996D01*
X500500Y411583D02*
X530996D01*
X500500Y410683D02*
X530996D01*
X500500Y409783D02*
X530996D01*
X500500Y408883D02*
X530996D01*
X500500Y407983D02*
X530996D01*
X500500Y407083D02*
X530996D01*
X500500Y406183D02*
X530996D01*
X500500Y405283D02*
X530996D01*
X500500Y404383D02*
X530996D01*
X500500Y403483D02*
X530996D01*
X500500Y402583D02*
X530996D01*
X500500Y401683D02*
X530996D01*
X500500Y400783D02*
X530996D01*
X500500Y399883D02*
X530996D01*
X500500Y398983D02*
X530996D01*
X500500Y398083D02*
X530996D01*
X500500Y397183D02*
X530996D01*
X500500Y396283D02*
X530996D01*
X500500Y395383D02*
X530996D01*
X500500Y394483D02*
X530996D01*
X983177Y483073D02*
X1027059D01*
X983177Y482173D02*
X1027059D01*
X983177Y481273D02*
X1027059D01*
X983177Y480373D02*
X1027059D01*
X983177Y479473D02*
X1027059D01*
X983177Y478573D02*
X1027059D01*
X983177Y477673D02*
X1027059D01*
X983177Y476773D02*
X1027059D01*
X983177Y475873D02*
X1027059D01*
X983177Y474973D02*
X1027059D01*
X983177Y474073D02*
X1027059D01*
X983177Y473173D02*
X1027059D01*
X983177Y472273D02*
X1027059D01*
X983177Y471373D02*
X1027059D01*
X983177Y470473D02*
X1027059D01*
X983177Y469573D02*
X1027059D01*
X983177Y468673D02*
X1027059D01*
X983177Y467773D02*
X1027059D01*
X983177Y466873D02*
X1027059D01*
X983177Y465973D02*
X1027059D01*
X983177Y465073D02*
X1027059D01*
X983177Y464173D02*
X1027059D01*
X983177Y463273D02*
X1027059D01*
X983177Y462373D02*
X1027059D01*
X983177Y461473D02*
X1027059D01*
X983177Y460573D02*
X1027059D01*
X983177Y459673D02*
X1027059D01*
X983177Y458773D02*
X1027059D01*
X983177Y457873D02*
X1027059D01*
X983177Y456973D02*
X1027059D01*
X983177Y456073D02*
X1027059D01*
X983177Y455173D02*
X1027059D01*
X983177Y454273D02*
X1027059D01*
X983177Y453373D02*
X1027059D01*
X983177Y452473D02*
X1027059D01*
X983177Y451573D02*
X1027059D01*
X983177Y450673D02*
X1027059D01*
X983177Y449773D02*
X1027059D01*
X983177Y448873D02*
X1027059D01*
X983177Y447973D02*
X1027059D01*
X983177Y447073D02*
X1027059D01*
X983177Y446173D02*
X1027059D01*
X983177Y445273D02*
X1027059D01*
X983177Y444373D02*
X1027059D01*
X983177Y443473D02*
X1027059D01*
X983177Y442573D02*
X1027059D01*
X983177Y441673D02*
X1027059D01*
X983177Y440773D02*
X1027059D01*
X983177Y439873D02*
X1027059D01*
X983177Y438973D02*
X1027059D01*
X983177Y438073D02*
X1027059D01*
X983177Y437173D02*
X1027059D01*
X983177Y436273D02*
X1027059D01*
X983177Y435373D02*
X1027059D01*
X983177Y434473D02*
X1027059D01*
X983177Y433573D02*
X1027059D01*
X983177Y432673D02*
X1027059D01*
X983177Y431773D02*
X1027059D01*
X983177Y430873D02*
X1027059D01*
X983177Y429973D02*
X1027059D01*
X983177Y429073D02*
X1027059D01*
X983177Y428173D02*
X1027059D01*
X983177Y427273D02*
X1027059D01*
X983177Y426373D02*
X1027059D01*
X983177Y425473D02*
X1027059D01*
X983177Y424573D02*
X1027059D01*
X983177Y423673D02*
X1027059D01*
X983177Y422773D02*
X1027059D01*
X983177Y421873D02*
X1027059D01*
X983177Y420973D02*
X1027059D01*
X983177Y420073D02*
X1027059D01*
X983177Y419173D02*
X1027059D01*
X983177Y418273D02*
X1027059D01*
X983177Y417373D02*
X1027059D01*
X983177Y416473D02*
X1027059D01*
X983177Y415573D02*
X1027059D01*
X983177Y414673D02*
X1027059D01*
X983177Y413773D02*
X1027059D01*
X983177Y412873D02*
X1027059D01*
X983177Y411973D02*
X1027059D01*
X983177Y411073D02*
X1027059D01*
X983177Y410173D02*
X1027059D01*
X983177Y409273D02*
X1027059D01*
X983177Y408373D02*
X1027059D01*
X983177Y407473D02*
X1027059D01*
X983177Y406573D02*
X1027059D01*
X983223Y405673D02*
X1027014D01*
X983893Y483973D02*
X1026343D01*
X984123Y404773D02*
X1026114D01*
X984793Y484873D02*
X1025443D01*
X985023Y403873D02*
X1025214D01*
X985693Y485773D02*
X1024543D01*
X985923Y402973D02*
X1024314D01*
X986593Y486673D02*
X1023643D01*
X1051681Y499499D02*
X1095563D01*
X1051681Y498599D02*
X1095563D01*
X1051681Y497699D02*
X1095563D01*
X1051681Y496799D02*
X1095563D01*
X1051681Y495899D02*
X1095563D01*
X1051681Y494999D02*
X1095563D01*
X1051681Y494099D02*
X1095563D01*
X1051681Y493199D02*
X1095563D01*
X1051681Y492299D02*
X1095563D01*
X1051681Y491399D02*
X1095563D01*
X1051681Y490499D02*
X1095563D01*
X1051681Y489599D02*
X1095563D01*
X1051681Y488699D02*
X1095563D01*
X1051681Y487799D02*
X1095563D01*
X1051681Y486899D02*
X1095563D01*
X1051681Y485999D02*
X1095563D01*
X1051681Y485099D02*
X1095563D01*
X1051681Y484199D02*
X1095563D01*
X1051681Y483299D02*
X1095563D01*
X1051681Y482399D02*
X1095563D01*
X1051681Y481499D02*
X1095563D01*
X1051681Y480599D02*
X1095563D01*
X1051681Y479699D02*
X1095563D01*
X1051681Y478799D02*
X1095563D01*
X1051681Y477899D02*
X1095563D01*
X1051681Y476999D02*
X1095563D01*
X1051681Y476099D02*
X1095563D01*
X1051681Y475199D02*
X1095563D01*
X1051681Y474299D02*
X1095563D01*
X1051681Y473399D02*
X1095563D01*
X1051681Y472499D02*
X1095563D01*
X1051681Y471599D02*
X1095563D01*
X1051681Y470699D02*
X1095563D01*
X1051681Y469799D02*
X1095563D01*
X1051681Y468899D02*
X1095563D01*
X1051681Y467999D02*
X1095563D01*
X1051681Y467099D02*
X1095563D01*
X1051681Y466199D02*
X1095563D01*
X1051681Y465299D02*
X1095563D01*
X1051681Y464399D02*
X1095563D01*
X1051681Y463499D02*
X1095563D01*
X1051681Y462599D02*
X1095563D01*
X1051681Y461699D02*
X1095563D01*
X1051681Y460799D02*
X1095563D01*
X1051681Y459899D02*
X1095563D01*
X1051681Y458999D02*
X1095563D01*
X1051681Y458099D02*
X1095563D01*
X1051681Y457199D02*
X1095563D01*
X1051681Y456299D02*
X1095563D01*
X1051681Y455399D02*
X1095563D01*
X1051681Y454499D02*
X1095563D01*
X1051681Y453599D02*
X1095563D01*
X1051681Y452699D02*
X1095563D01*
X1051681Y451799D02*
X1095563D01*
X1051681Y450899D02*
X1095563D01*
X1051681Y449999D02*
X1095563D01*
X1051681Y449099D02*
X1095563D01*
X1051681Y448199D02*
X1095563D01*
X1051681Y447299D02*
X1095563D01*
X1051681Y446399D02*
X1095563D01*
X1051681Y445499D02*
X1095563D01*
X1051681Y444599D02*
X1095563D01*
X1051681Y443699D02*
X1095563D01*
X1051681Y442799D02*
X1095563D01*
X1051681Y441899D02*
X1095563D01*
X1051681Y440999D02*
X1095563D01*
X1051681Y440099D02*
X1095563D01*
X1051681Y439199D02*
X1095563D01*
X1051681Y438299D02*
X1095563D01*
X1051681Y437399D02*
X1095563D01*
X1051681Y436499D02*
X1095563D01*
X1051681Y435599D02*
X1095563D01*
X1051681Y434699D02*
X1095563D01*
X1051681Y433799D02*
X1095563D01*
X1051681Y432899D02*
X1095563D01*
X1051681Y431999D02*
X1095563D01*
X1051681Y431099D02*
X1095563D01*
X1051681Y430199D02*
X1095563D01*
X1051681Y429299D02*
X1095563D01*
X1051681Y428399D02*
X1095563D01*
X1051681Y427499D02*
X1095563D01*
X1051681Y426599D02*
X1095563D01*
X1051681Y425699D02*
X1095563D01*
X1051681Y424799D02*
X1095563D01*
X1051681Y423899D02*
X1095563D01*
X1051681Y422999D02*
X1095563D01*
X1051681Y422099D02*
X1095563D01*
X1051681Y421199D02*
X1095563D01*
X1051681Y420299D02*
X1095563D01*
X1051681Y419399D02*
X1095563D01*
X1051681Y418499D02*
X1095563D01*
X1051681Y417599D02*
X1095563D01*
X1051681Y416699D02*
X1095563D01*
X1051681Y415799D02*
X1095563D01*
X1051681Y414899D02*
X1095563D01*
X1051681Y413999D02*
X1095563D01*
X1051681Y413099D02*
X1095563D01*
X1051681Y412199D02*
X1095563D01*
X1051681Y411299D02*
X1095563D01*
X1051681Y410399D02*
X1095563D01*
X1051681Y409499D02*
X1095563D01*
X1051681Y408599D02*
X1095563D01*
X1051681Y407699D02*
X1095563D01*
X1051681Y406799D02*
X1095563D01*
X1051681Y405899D02*
X1095563D01*
X1051681Y404999D02*
X1095563D01*
X1051681Y404099D02*
X1095563D01*
X1051681Y403199D02*
X1095563D01*
X1051681Y402299D02*
X1095563D01*
X1051681Y401399D02*
X1095563D01*
X1051681Y400499D02*
X1095563D01*
X1051681Y399599D02*
X1095563D01*
X1051681Y398699D02*
X1095563D01*
X1051727Y397799D02*
X1095518D01*
X1052288Y500399D02*
X1094956D01*
X1052627Y396899D02*
X1094618D01*
X1053188Y501299D02*
X1094056D01*
X1053527Y395999D02*
X1093718D01*
X1054088Y502199D02*
X1093156D01*
X1054427Y395099D02*
X1092818D01*
X1054988Y503099D02*
X1092256D01*
X980815Y353262D02*
X1029028D01*
X980815Y352362D02*
X1029028D01*
X980815Y351462D02*
X1029028D01*
X980815Y350562D02*
X1029028D01*
X980815Y349662D02*
X1029028D01*
X980815Y348762D02*
X1029028D01*
X980815Y347862D02*
X1029028D01*
X980815Y346962D02*
X1029028D01*
X980815Y346062D02*
X1029028D01*
X980815Y345162D02*
X1029028D01*
X980815Y344262D02*
X1029028D01*
X980815Y343362D02*
X1029028D01*
X980815Y342462D02*
X1029028D01*
X980815Y341562D02*
X1029028D01*
X980815Y340662D02*
X1029028D01*
X980815Y339762D02*
X1029028D01*
X980815Y338862D02*
X1029028D01*
X980815Y337962D02*
X1029028D01*
X980815Y337062D02*
X1029028D01*
X980815Y336162D02*
X1029028D01*
X980815Y335262D02*
X1029028D01*
X980815Y334362D02*
X1029028D01*
X980815Y333462D02*
X1029028D01*
X980815Y332562D02*
X1029028D01*
X980815Y331662D02*
X1029028D01*
X980815Y330762D02*
X1029028D01*
X980815Y329862D02*
X1029028D01*
X980815Y328962D02*
X1029028D01*
X980815Y328062D02*
X1029028D01*
X980815Y327162D02*
X1029028D01*
X980512Y326262D02*
X1029028D01*
X979612Y325362D02*
X1029028D01*
X978712Y324462D02*
X1029028D01*
X977812Y323562D02*
X1029028D01*
X976912Y322662D02*
X1029028D01*
X966760Y321762D02*
X1029028D01*
X965860Y320862D02*
X1029028D01*
X964960Y319962D02*
X1029028D01*
X964060Y319062D02*
X1029028D01*
X963689Y318162D02*
X1029028D01*
X963689Y317262D02*
X1029028D01*
X963689Y316362D02*
X1029028D01*
X963689Y315462D02*
X1029028D01*
X963689Y314562D02*
X1029028D01*
X963689Y313662D02*
X1029028D01*
X963689Y312762D02*
X1029028D01*
X963689Y311862D02*
X1029028D01*
X963689Y310962D02*
X1029028D01*
X963689Y310062D02*
X1029028D01*
X963689Y309162D02*
X1029028D01*
X963689Y308262D02*
X1029028D01*
X963689Y307362D02*
X1029028D01*
X963689Y306462D02*
X1029028D01*
X963689Y305562D02*
X1029028D01*
X963689Y304662D02*
X1029028D01*
X963689Y303762D02*
X1029028D01*
X963689Y302862D02*
X1029028D01*
X963689Y301962D02*
X1029028D01*
X963689Y301062D02*
X1029028D01*
X980853Y354162D02*
X1028989D01*
X963734Y300162D02*
X1028982D01*
X981753Y355062D02*
X1028089D01*
X964634Y299262D02*
X1028082D01*
X982653Y355962D02*
X1027189D01*
X965534Y298362D02*
X1027182D01*
X983553Y356862D02*
X1026289D01*
X966434Y297462D02*
X1026282D01*
X984453Y357762D02*
X1025389D01*
X1137508Y216535D02*
G75*
G03X1137508I-15461J0D01*
G01X1131012Y303150D02*
G03X1131012I-5028J0D01*
G01X1111327Y395669D02*
G03X1111327I-5028J0D01*
G01X1137508Y570866D02*
G03X1137508I-15461J0D01*
G01X1058177Y222441D02*
G03X1058177I-5027J0D01*
G01X981012Y519685D02*
G03X981012I-6603J0D01*
G01Y539370D02*
G03X981012I-6603J0D01*
G01X912508Y559055D02*
G03X912508I-5028J0D01*
G01X895677Y527559D02*
G03X895677I-6799J0D01*
G01X864181Y326772D02*
G03X864181I-3157J0D01*
G01X693610Y478346D02*
G03X693610I-6602J0D01*
G01X695860Y498031D02*
G03X695860I-8852J0D01*
G01X704437Y570866D02*
G03X704437I-15461J0D01*
G01X665475Y527559D02*
G03X665475I-6026J0D01*
G01X664630Y547244D02*
G03X664630I-5181J0D01*
G01X646366Y478346D02*
G03X646366I-6602J0D01*
G01X648615Y498031D02*
G03X648615I-8851J0D01*
G01X635947Y527559D02*
G03X635947I-6026J0D01*
G01X635102Y547244D02*
G03X635102I-5181J0D01*
G01X617232Y366142D02*
G03X617232I-5027J0D01*
G01X621169Y448819D02*
G03X621169I-5027J0D01*
G01X583177Y349409D02*
G03X583177I-10342J0D01*
G01Y418307D02*
G03X583177I-10342J0D01*
G01X584555Y474409D02*
G03X584555I-10342J0D01*
G01Y545276D02*
G03X584555I-10342J0D01*
G01X449797Y301181D02*
G03X449797I-8852J0D01*
G01X428846Y255906D02*
G03X428846I-15460J0D01*
G01X427862Y301181D02*
G03X427862I-6602J0D01*
G01X412158Y338583D02*
G03X412158I-5682J0D01*
G01Y368110D02*
G03X412158I-5682J0D01*
G01X435146Y481890D02*
G03X435146I-12311J0D01*
G01X410539Y539370D02*
G03X410539I-5027J0D01*
G01X428846Y570866D02*
G03X428846I-15460J0D01*
G01X480112Y368110D02*
G03X480112I-8852J0D01*
G01X575894Y250000D02*
G03X575894I-5028J0D01*
G01X544398Y208661D02*
G03X544398I-5028J0D01*
G01X499276Y259843D02*
G03X499276I-5182J0D01*
G01X500697Y301181D02*
G03X500697I-6603J0D01*
G01X480435Y259843D02*
G03X480435I-6026J0D01*
G01X483261Y301181D02*
G03X483261I-8852J0D01*
G01X704437Y216535D02*
G03X704437I-15461J0D01*
G01X648851Y220472D02*
G03X648851I-7193J0D01*
G01X665854Y268701D02*
G03X665854I-10342J0D01*
G01X810244Y446850D02*
G03X810244I-3157J0D01*
G01X820677Y527559D02*
G03X820677I-6799J0D01*
G01X774600Y488189D02*
G03X774600I-8852J0D01*
G01X750978D02*
G03X750978I-8852J0D01*
G01X1140051Y204724D02*
Y582677D01*
G03X1133858Y588870I-6193J0*
G01X401575*
G03X395382Y582677I-0J-6193*
G01Y412639*
G03X396318Y412395I500J0*
G01Y406503D02*
G03Y412395I5257J2946D01*
G01Y406503D02*
G03X395382Y406259I-436J-244D01*
G01Y204724*
G03X401575Y198532I6193J0*
G01X1133858*
G03X1140051Y204724I0J6192*
G01X864830Y206091D02*
G03X865183Y206944I-0J500D01*
G01X863820Y208308*
X863673Y208661D02*
G03X863820Y208308I500J0D01*
G01X863673Y208661D02*
Y213604D01*
G03X863419Y214039I-500J-0*
G01X862703Y214833D02*
G03X863419Y214039I1541J671D01*
G01X862703Y214833D02*
G03X861786I-459J-199D01*
G01X860244Y213823D02*
G03X861786Y214833I0J1681D01*
G01X860244Y213823D02*
X854244D01*
X852703Y214833D02*
G03X854244Y213823I1541J671D01*
G01X852703Y214833D02*
G03X851786I-459J-199D01*
G01X850244Y213823D02*
G03X851786Y214833I0J1681D01*
G01X850244Y213823D02*
X844244D01*
X842703Y214833D02*
G03X844244Y213823I1541J671D01*
G01X842703Y214833D02*
G03X841786I-459J-199D01*
G01X840244Y213823D02*
G03X841786Y214833I0J1681D01*
G01X840244Y213823D02*
X834244D01*
X832703Y214833D02*
G03X834244Y213823I1541J671D01*
G01X832703Y214833D02*
G03X831786I-459J-199D01*
G01X830523Y213846D02*
G03X831786Y214833I-279J1658D01*
G01X830523Y213846D02*
G03X830106Y213353I83J-493D01*
G01Y212023*
G03X830253Y211669I500J-0*
G01X835685Y206237*
G03X836038Y206091I353J354*
G01X864830*
X1137508Y216535D02*
G03X1137508I-15461J0D01*
G01X1131012Y303150D02*
G03X1131012I-5028J0D01*
G01X1111327Y395669D02*
G03X1111327I-5028J0D01*
G01X1110106Y432102D02*
Y430102D01*
X1099744D02*
G03X1110106I5181J0D01*
G01X1099744D02*
Y432102D01*
X1110106D02*
G03X1099744I-5181J0D01*
G01X1110106Y471472D02*
Y469472D01*
X1099744D02*
G03X1110106I5181J0D01*
G01X1099744D02*
Y471472D01*
X1110106D02*
G03X1099744I-5181J0D01*
G01X1137508Y570866D02*
G03X1137508I-15461J0D01*
G01X1058177Y222441D02*
G03X1058177I-5027J0D01*
G01X1097744Y499793D02*
Y397845D01*
X1097105Y396303D02*
G03X1097744Y397845I-1542J1542D01*
G01X1097105Y396303D02*
X1093461Y392659D01*
X1091919Y392020D02*
G03X1093461Y392659I-0J2181D01*
G01X1091919Y392020D02*
X1055325D01*
X1053783Y392659D02*
G03X1055325Y392020I1542J1542D01*
G01X1053783Y392659D02*
X1050139Y396303D01*
X1049500Y397845D02*
G03X1050139Y396303I2181J-0D01*
G01X1049500Y397845D02*
Y499793D01*
X1050139Y501335D02*
G03X1049500Y499793I1542J-1542D01*
G01X1050139Y501335D02*
X1053783Y504979D01*
X1055325Y505618D02*
G03X1053783Y504979I0J-2181D01*
G01X1055325Y505618D02*
X1091919D01*
X1093461Y504979D02*
G03X1091919Y505618I-1542J-1542D01*
G01X1093461Y504979D02*
X1097105Y501335D01*
X1097744Y499793D02*
G03X1097105Y501335I-2181J-0D01*
G01X1008307Y247982D02*
G03Y252018I3504J2018D01*
G01Y247982D02*
G03X1007441I-433J-250D01*
G01X1000864Y252628D02*
G03X1007441Y247982I3073J-2628D01*
G01X1000864Y252628D02*
G03Y253278I-380J325D01*
G01X1007010D02*
G03X1000864I-3073J2628D01*
G01X1007010D02*
G03Y252628I380J-325D01*
G01X1007441Y252018D02*
G03X1007010Y252628I-3504J-2018D01*
G01X1007441Y252018D02*
G03X1008307I433J250D01*
G01X987530Y231179D02*
G03Y237325I2627J3073D01*
G01Y231179D02*
G03X986880I-325J-380D01*
G01X981624D02*
G03X986880I2628J3073D01*
G01X981624D02*
G03X980974I-325J-380D01*
G01Y237325D02*
G03Y231179I-2628J-3073D01*
G01Y237325D02*
G03X981624I325J380D01*
G01X986880D02*
G03X981624I-2628J-3073D01*
G01X986880D02*
G03X987530I325J380D01*
G01X981419Y280837D02*
G03X974843Y285483I-3073J2628D01*
G01X981419Y280837D02*
G03Y280187I380J-325D01*
G01X974843Y275541D02*
G03X981419Y280187I3503J2018D01*
G01X974843Y275541D02*
G03X973976I-434J-249D01*
G01X967399Y280187D02*
G03X973976Y275541I3073J-2628D01*
G01X967399Y280187D02*
G03Y280837I-380J325D01*
G01X973976Y285483D02*
G03X967399Y280837I-3504J-2018D01*
G01X973976Y285483D02*
G03X974843I433J249D01*
G01X1031209Y354124D02*
Y300207D01*
X1030570Y298665D02*
G03X1031209Y300207I-1542J1542D01*
G01X1030570Y298665D02*
X1026926Y295021D01*
X1025383Y294382D02*
G03X1026926Y295021I0J2181D01*
G01X1025383Y294382D02*
X967333D01*
X965791Y295021D02*
G03X967333Y294382I1542J1542D01*
G01X965791Y295021D02*
X962147Y298665D01*
X961508Y300207D02*
G03X962147Y298665I2181J0D01*
G01X961508Y300207D02*
Y306231D01*
G03X961400Y306542I-500J0*
G01Y311568D02*
G03Y306542I3167J-2513D01*
G01Y311568D02*
G03X961508Y311879I-392J311D01*
G01Y318691*
X961787Y319757D02*
G03X961508Y318691I1902J-1066D01*
G01X961787Y319757D02*
G03X960997Y320356I-437J245D01*
G01X935862Y295220*
X934662Y294503D02*
G03X935862Y295220I-824J2741D01*
G01X934662Y294503D02*
G03X934569Y294464I144J-479D01*
G01X932771Y300387D02*
G03X934569Y294464I300J-3143D01*
G01X932771Y300387D02*
G03X933077Y300532I-47J498D01*
G01X963310Y330764*
X965334Y331602D02*
G03X963310Y330764I-0J-2862D01*
G01X965334Y331602D02*
X969033D01*
G03X969230Y331643I-0J500*
G01Y325838D02*
G03Y331643I1242J2902D01*
G01Y325838D02*
G03X969033Y325878I-197J-460D01*
G01X966726*
G03X966373Y325731I0J-500*
G01X965668Y325027*
G03X966266Y324237I354J-354*
G01X967333Y324516D02*
G03X966266Y324237I0J-2181D01*
G01X967333Y324516D02*
X975474D01*
X975474D02*
G03X975828Y324662I0J500D01*
G01X978487Y327322*
G03X978634Y327675I-353J353*
G01Y354124*
X979273Y355666D02*
G03X978634Y354124I1542J-1542D01*
G01X979273Y355666D02*
X982917Y359310D01*
X984459Y359949D02*
G03X982917Y359310I0J-2181D01*
G01X984459Y359949D02*
X1025383D01*
X1026926Y359310D02*
G03X1025383Y359949I-1543J-1542D01*
G01X1026926Y359310D02*
X1030570Y355666D01*
X1031209Y354124D02*
G03X1030570Y355666I-2181J-0D01*
G01X1029240Y483257D02*
Y405719D01*
X1028601Y404177D02*
G03X1029240Y405719I-1542J1542D01*
G01X1028601Y404177D02*
X1024957Y400533D01*
X1023415Y399894D02*
G03X1024957Y400533I-0J2181D01*
G01X1023415Y399894D02*
X986821D01*
X985279Y400533D02*
G03X986821Y399894I1542J1542D01*
G01X985279Y400533D02*
X981635Y404177D01*
X980996Y405719D02*
G03X981635Y404177I2181J-0D01*
G01X980996Y405719D02*
Y483257D01*
X981635Y484800D02*
G03X980996Y483257I1542J-1543D01*
G01X981635Y484800D02*
X985279Y488444D01*
X986821Y489083D02*
G03X985279Y488444I0J-2181D01*
G01X986821Y489083D02*
X1023415D01*
X1024957Y488444D02*
G03X1023415Y489083I-1542J-1542D01*
G01X1024957Y488444D02*
X1028601Y484800D01*
X1029240Y483257D02*
G03X1028601Y484800I-2181J0D01*
G01X981012Y519685D02*
G03X981012I-6603J0D01*
G01Y539370D02*
G03X981012I-6603J0D01*
G01X938112Y328081D02*
G03X932412Y333782I-3073J2628D01*
G01X938112Y328081D02*
G03Y327431I380J-325D01*
G01X932412Y321730D02*
G03X938112Y327431I2627J3073D01*
G01X932412Y321730D02*
G03X931762I-325J-380D01*
G01X926061Y327431D02*
G03X931762Y321730I3073J-2628D01*
G01X926061Y327431D02*
G03Y328081I-380J325D01*
G01X931762Y333782D02*
G03X926061Y328081I-2628J-3073D01*
G01X931762Y333782D02*
G03X932412I325J380D01*
G01X907980Y501969D02*
Y474409D01*
X907834Y474056D02*
G03X907980Y474409I-354J353D01*
G01X907834Y474056D02*
X905865Y472087D01*
X905512Y471941D02*
G03X905865Y472087I-0J500D01*
G01X905512Y471941D02*
X872047D01*
X871694Y472087D02*
G03X872047Y471941I353J354D01*
G01X871694Y472087D02*
X869725Y474056D01*
X869579Y474409D02*
G03X869725Y474056I500J0D01*
G01X869579Y474409D02*
Y501969D01*
X869725Y502322D02*
G03X869579Y501969I354J-353D01*
G01X869725Y502322D02*
X871694Y504291D01*
X872047Y504437D02*
G03X871694Y504291I0J-500D01*
G01X872047Y504437D02*
X905512D01*
X905865Y504291D02*
G03X905512Y504437I-353J-354D01*
G01X905865Y504291D02*
X907834Y502322D01*
X907980Y501969D02*
G03X907834Y502322I-500J-0D01*
G01X912508Y559055D02*
G03X912508I-5028J0D01*
G01X895677Y527559D02*
G03X895677I-6799J0D01*
G01X864181Y326772D02*
G03X864181I-3157J0D01*
G01X860933Y385827D02*
Y350394D01*
X859800Y347751D02*
G03X860933Y350394I-2517J2643D01*
G01X859800Y347751D02*
X840419Y329292D01*
G03X840264Y328930I345J-362*
G01Y326772*
Y322191*
G03X840410Y321838I500J0*
G01X846675Y315573*
X847744Y312992D02*
G03X846675Y315573I-3650J0D01*
G01X847744Y312992D02*
Y284685D01*
X840445D02*
G03X847744I3649J0D01*
G01X840445D02*
Y311273D01*
G03X840298Y311627I-500J0*
G01X834033Y317892*
X832965Y320472D02*
G03X834034Y317892I3649J0D01*
G01X832965Y320472D02*
Y326772D01*
Y330709*
X834097Y333351D02*
G03X832965Y330709I2517J-2642D01*
G01X834097Y333351D02*
X853479Y351810D01*
G03X853634Y352172I-345J362*
G01Y385827*
X860933D02*
G03X853634I-3650J-0D01*
G01X853397Y461873D02*
G03X859202I2902J-1243D01*
G01X853397D02*
G03X853437Y462070I-460J197D01*
G01Y532072*
G03X853291Y532425I-500J-0*
G01X845418Y540298*
G03X845064Y540445I-354J-353*
G01X801181*
X799157Y541283D02*
G03X801181Y540445I2024J2024D01*
G01X799157Y541283D02*
X778488Y561952D01*
G03X778135Y562098I-353J-354*
G01X742126*
X740102Y562937D02*
G03X742126Y562098I2024J2024D01*
G01X740102Y562937D02*
X736913Y566126D01*
X736075Y568150D02*
G03X736913Y566126I2862J-0D01*
G01X736075Y568150D02*
Y569692D01*
G03X735850Y570109I-500J-0*
G01X743528Y578041D02*
G03X735850Y570109I-4591J-3238D01*
G01X743528Y578041D02*
G03X744346I409J288D01*
G01X753528D02*
G03X744346I-4591J-3238D01*
G01X753528D02*
G03X754346I409J288D01*
G01X763528D02*
G03X754346I-4591J-3238D01*
G01X763528D02*
G03X764346I409J288D01*
G01Y571565D02*
G03Y578041I4591J3238D01*
G01Y571565D02*
G03X763528I-409J-288D01*
G01X754346D02*
G03X763528I4591J3238D01*
G01X754346D02*
G03X753528I-409J-288D01*
G01X744346D02*
G03X753528I4591J3238D01*
G01X744346D02*
G03X743528I-409J-288D01*
G01X742024Y570109D02*
G03X743528Y571565I-3087J4694D01*
G01X742024Y570109D02*
G03X741799Y569692I275J-417D01*
G01Y569542*
G03X741946Y569189I500J0*
G01X743165Y567969*
G03X743519Y567823I354J354*
G01X779528*
X781551Y566985D02*
G03X779528Y567823I-2023J-2024D01*
G01X781551Y566985D02*
X802220Y546316D01*
G03X802574Y546169I354J353*
G01X846457*
X848481Y545331D02*
G03X846457Y546169I-2024J-2024D01*
G01X848481Y545331D02*
X858323Y535488D01*
X859161Y533465D02*
G03X858323Y535488I-2862J-0D01*
G01X859161Y533465D02*
Y462070D01*
G03X859202Y461873I500J-0*
G01X825803Y553280D02*
G03Y563642I0J5181D01*
G01Y553280D02*
X823803D01*
Y563642D02*
G03Y553280I0J-5181D01*
G01Y563642D02*
X825803D01*
Y566280D02*
G03Y576642I0J5181D01*
G01Y566280D02*
X823803D01*
Y576642D02*
G03Y566280I0J-5181D01*
G01Y576642D02*
X825803D01*
X693610Y478346D02*
G03X693610I-6602J0D01*
G01X695860Y498031D02*
G03X695860I-8852J0D01*
G01X704437Y570866D02*
G03X704437I-15461J0D01*
G01X665475Y527559D02*
G03X665475I-6026J0D01*
G01X664630Y547244D02*
G03X664630I-5181J0D01*
G01X646366Y478346D02*
G03X646366I-6602J0D01*
G01X648615Y498031D02*
G03X648615I-8851J0D01*
G01X635947Y527559D02*
G03X635947I-6026J0D01*
G01X635102Y547244D02*
G03X635102I-5181J0D01*
G01X617232Y366142D02*
G03X617232I-5027J0D01*
G01X621169Y448819D02*
G03X621169I-5027J0D01*
G01X583177Y349409D02*
G03X583177I-10342J0D01*
G01Y418307D02*
G03X583177I-10342J0D01*
G01X584555Y474409D02*
G03X584555I-10342J0D01*
G01X587114Y515748D02*
Y503937D01*
X586968Y503583D02*
G03X587114Y503937I-354J354D01*
G01X586968Y503583D02*
X585489Y502105D01*
G03X585343Y501751I354J-354*
G01Y496496*
X583661Y494815D02*
G03X585343Y496496I0J1681D01*
G01X583661Y494815D02*
X573819D01*
X572283Y495812D02*
G03X573819Y494815I1536J684D01*
G01X572283Y495812D02*
G03X571473Y495962I-457J-203D01*
G01X538048Y462538*
G03X537902Y462184I354J-354*
G01Y398052*
G03X538048Y397698I500J0*
G01X540415Y395332*
G03X540769Y395185I354J353*
G01X541126*
G03X541626Y395685I-0J500*
G01Y397205*
X543307Y398886D02*
G03X541626Y397205I0J-1681D01*
G01X543307Y398886D02*
X553150D01*
X554831Y397205D02*
G03X553150Y398886I-1681J-0D01*
G01X554831Y397205D02*
Y395685D01*
G03X555331Y395185I500J0*
G01X559055*
X559409Y395039D02*
G03X559055Y395185I-354J-354D01*
G01X559409Y395039D02*
X562854Y391594D01*
X563000Y391240D02*
G03X562854Y391594I-500J0D01*
G01X563000Y391240D02*
Y376722D01*
X562854Y376369D02*
G03X563000Y376722I-354J353D01*
G01X562854Y376369D02*
X559163Y372678D01*
X558809Y372531D02*
G03X559163Y372678I0J500D01*
G01X558809Y372531D02*
X555020D01*
G03X554548Y372197I0J-500*
G01X549803Y368831D02*
G03X554548Y372197I0J5027D01*
G01X549803Y368831D02*
X546654D01*
X541908Y372197D02*
G03X546654Y368831I4746J1661D01*
G01X541908Y372197D02*
G03X541437Y372531I-471J-166D01*
G01X511811*
X511457Y372678D02*
G03X511811Y372531I354J353D01*
G01X511457Y372678D02*
X495709Y388426D01*
X495563Y388780D02*
G03X495709Y388426I500J-0D01*
G01X495563Y388780D02*
Y456279D01*
G03X495417Y456632I-500J-0*
G01X492065Y459983*
G03X491712Y460130I-353J-353*
G01X464567*
X464067Y460630D02*
G03X464567Y460130I500J-0D01*
G01X464067Y460630D02*
Y500000D01*
X464213Y500354D02*
G03X464067Y500000I354J-354D01*
G01X464213Y500354D02*
X468150Y504291D01*
X468504Y504437D02*
G03X468150Y504291I-0J-500D01*
G01X468504Y504437D02*
X495649D01*
G03X496002Y504583I-0J500*
G01X511457Y520039*
X511811Y520185D02*
G03X511457Y520039I0J-500D01*
G01X511811Y520185D02*
X571702D01*
G03X572197Y520609I0J500*
G01X577165Y524870D02*
G03X572197Y520609I0J-5027D01*
G01X577165Y524870D02*
X580315D01*
X585112Y518337D02*
G03X580315Y524870I-4797J1506D01*
G01X585112Y518337D02*
G03X585235Y517834I477J-150D01*
G01X586968Y516102*
X587114Y515748D02*
G03X586968Y516102I-500J0D01*
G01X584555Y545276D02*
G03X584555I-10342J0D01*
G01X449797Y301181D02*
G03X449797I-8852J0D01*
G01X428846Y255906D02*
G03X428846I-15460J0D01*
G01X427862Y301181D02*
G03X427862I-6602J0D01*
G01X412158Y338583D02*
G03X412158I-5682J0D01*
G01Y368110D02*
G03X412158I-5682J0D01*
G01X435146Y481890D02*
G03X435146I-12311J0D01*
G01X410539Y539370D02*
G03X410539I-5027J0D01*
G01X428846Y570866D02*
G03X428846I-15460J0D01*
G01X480112Y368110D02*
G03X480112I-8852J0D01*
G01X579135Y220573D02*
G03X574904Y224805I1731J5962D01*
G01X579135Y220573D02*
G03X578538Y219892I-139J-480D01*
G01Y213179D02*
G03Y219892I-7672J3356D01*
G01Y213179D02*
G03X579135Y212498I458J-201D01*
G01X574904Y208266D02*
G03X579135Y212498I5962J-1731D01*
G01X574904Y208266D02*
G03X574223Y208864I-481J140D01*
G01X567509D02*
G03X574223I3357J7671D01*
G01X567509D02*
G03X566829Y208266I-200J-458D01*
G01X562597Y212498D02*
G03X566829Y208266I-1731J-5963D01*
G01X562597Y212498D02*
G03X563194Y213179I139J480D01*
G01Y219892D02*
G03Y213179I7672J-3357D01*
G01Y219892D02*
G03X562597Y220573I-458J201D01*
G01X566829Y224805D02*
G03X562597Y220573I-5963J1730D01*
G01X566829Y224805D02*
G03X567509Y224207I480J-140D01*
G01X574223D02*
G03X567509I-3357J-7672D01*
G01X574223D02*
G03X574904Y224805I200J458D01*
G01X575894Y250000D02*
G03X575894I-5028J0D01*
G01X544398Y208661D02*
G03X544398I-5028J0D01*
G01X504183Y218454D02*
G03Y222491I7313J2018D01*
G01Y218454D02*
G03X503219I-482J-133D01*
G01Y222491D02*
G03Y218454I-7313J-2019D01*
G01Y222491D02*
G03X504183I482J133D01*
G01X499276Y259843D02*
G03X499276I-5182J0D01*
G01X500697Y301181D02*
G03X500697I-6603J0D01*
G01X477656Y216496D02*
G03Y224449I2659J3976D01*
G01Y216496D02*
G03X476878Y216080I-278J-416D01*
G01Y210630*
X476732Y210276D02*
G03X476878Y210630I-354J354D01*
G01X476732Y210276D02*
X474763Y208308D01*
X474409Y208161D02*
G03X474763Y208308I0J500D01*
G01X474409Y208161D02*
X438976D01*
X438623Y208308D02*
G03X438976Y208161I353J353D01*
G01X438623Y208308D02*
X436654Y210276D01*
X436508Y210630D02*
G03X436654Y210276I500J-0D01*
G01X436508Y210630D02*
Y230315D01*
X436654Y230669D02*
G03X436508Y230315I354J-354D01*
G01X436654Y230669D02*
X438623Y232637D01*
X438976Y232783D02*
G03X438623Y232637I0J-500D01*
G01X438976Y232783D02*
X474409D01*
X474763Y232637D02*
G03X474409Y232783I-354J-354D01*
G01X474763Y232637D02*
X476732Y230669D01*
X476878Y230315D02*
G03X476732Y230669I-500J-0D01*
G01X476878Y230315D02*
Y224865D01*
G03X477656Y224449I500J-0*
G01X480435Y259843D02*
G03X480435I-6026J0D01*
G01X483261Y301181D02*
G03X483261I-8852J0D01*
G01X768821Y265089D02*
G03X761994Y266215I-3073J2628D01*
G01X768821Y265089D02*
G03Y264439I380J-325D01*
G01X763120Y258738D02*
G03X768821Y264439I2628J3073D01*
G01X763120Y258738D02*
G03X762470I-325J-380D01*
G01X761344Y265565D02*
G03X762470Y258738I-1501J-3754D01*
G01X761344Y265565D02*
G03X761994Y266215I186J465D01*
G01X751309Y359132D02*
G03Y365278I2628J3073D01*
G01Y359132D02*
G03X750659I-325J-380D01*
G01X746469Y358476D02*
G03X750659Y359132I1562J3729D01*
G01X746469Y358476D02*
G03X745776Y358014I-193J-462D01*
G01Y354331*
X744707Y351750D02*
G03X745776Y354331I-2581J2581D01*
G01X744707Y351750D02*
X738048Y345091D01*
G03X737902Y344738I354J-353*
G01Y242126*
X730602D02*
G03X737902I3650J-0D01*
G01X730602D02*
Y346457D01*
X731671Y349037D02*
G03X730602Y346457I2581J-2580D01*
G01X731671Y349037D02*
X738330Y355696D01*
G03X738476Y356050I-354J354*
G01Y360355*
G03X738433Y360558I-500J-0*
G01X744754Y365278D02*
G03X738433Y360558I-2628J-3073D01*
G01X744754Y365278D02*
G03X745404I325J380D01*
G01X750659D02*
G03X745404I-2628J-3073D01*
G01X750659D02*
G03X751309I325J380D01*
G01X704437Y216535D02*
G03X704437I-15461J0D01*
G01X648851Y220472D02*
G03X648851I-7193J0D01*
G01X633251Y225984D02*
Y214961D01*
X631570Y213280D02*
G03X633251Y214961I0J1681D01*
G01X631570Y213280D02*
X620546D01*
X618865Y214961D02*
G03X620546Y213280I1681J-0D01*
G01X618865Y214961D02*
Y225984D01*
X620546Y227665D02*
G03X618865Y225984I0J-1681D01*
G01X620546Y227665D02*
X631570D01*
X633251Y225984D02*
G03X631570Y227665I-1681J0D01*
G01X707419Y239223D02*
G03Y245029I1242J2903D01*
G01Y239223D02*
G03X707222Y239264I-197J-459D01*
G01X690945*
X688921Y240102D02*
G03X690945Y239264I2024J2024D01*
G01X688921Y240102D02*
X680063Y248960D01*
G03X679710Y249106I-353J-354*
G01X620984*
X618960Y249945D02*
G03X620984Y249106I2024J2024D01*
G01X618960Y249945D02*
X597307Y271598D01*
X596468Y273622D02*
G03X597307Y271598I2863J0D01*
G01X596468Y273622D02*
Y305118D01*
X597307Y307142D02*
G03X596468Y305118I2024J-2024D01*
G01X597307Y307142D02*
X600338Y310174D01*
X601511Y310882D02*
G03X600338Y310174I851J-2732D01*
G01X601511Y310882D02*
G03X601862Y311360I-149J478D01*
G01Y324803*
X602009Y325157D02*
G03X601862Y324803I353J-354D01*
G01X602009Y325157D02*
X603977Y327125D01*
X604331Y327272D02*
G03X603977Y327125I-0J-500D01*
G01X604331Y327272D02*
X631890D01*
X632243Y327125D02*
G03X631890Y327272I-353J-353D01*
G01X632243Y327125D02*
X634212Y325157D01*
X634358Y324803D02*
G03X634212Y325157I-500J0D01*
G01X634358Y324803D02*
Y283465D01*
X634212Y283111D02*
G03X634358Y283465I-354J354D01*
G01X634212Y283111D02*
X632243Y281142D01*
X631890Y280996D02*
G03X632243Y281142I-0J500D01*
G01X631890Y280996D02*
X604331D01*
X603977Y281142D02*
G03X604331Y280996I354J354D01*
G01X603977Y281142D02*
X603046Y282073D01*
G03X602193Y281720I-353J-353*
G01Y275015*
G03X602339Y274661I500J-0*
G01X622023Y254977*
G03X622377Y254831I354J354*
G01X681102*
X683126Y253992D02*
G03X681102Y254831I-2024J-2023D01*
G01X683126Y253992D02*
X691984Y245135D01*
G03X692338Y244988I354J353*
G01X707222*
G03X707419Y245029I-0J500*
G01X702805Y295709D02*
G03X697284Y301231I-2018J3504D01*
G01X702805Y295709D02*
G03Y294842I250J-433D01*
G01X697284Y289321D02*
G03X702805Y294842I3503J2018D01*
G01X697284Y289321D02*
G03X696417I-434J-250D01*
G01X690895Y294842D02*
G03X696417Y289321I2018J-3503D01*
G01X690895Y294842D02*
G03Y295709I-249J434D01*
G01X696417Y301231D02*
G03X690895Y295709I-3504J-2018D01*
G01X696417Y301231D02*
G03X697284I433J249D01*
G01X702805Y323268D02*
G03X697284Y328790I-2018J3504D01*
G01X702805Y323268D02*
G03Y322401I250J-433D01*
G01X697284Y316880D02*
G03X702805Y322401I3503J2018D01*
G01X697284Y316880D02*
G03X696417I-434J-250D01*
G01X690895Y322401D02*
G03X696417Y316880I2018J-3503D01*
G01X690895Y322401D02*
G03Y323268I-249J434D01*
G01X696417Y328790D02*
G03X690895Y323268I-3504J-2018D01*
G01X696417Y328790D02*
G03X697284I433J249D01*
G01X665854Y268701D02*
G03X665854I-10342J0D01*
G01X804859Y314027D02*
G03Y319832I1243J2902D01*
G01Y314027D02*
G03X804663Y314067I-196J-460D01*
G01X802165*
X800141Y314905D02*
G03X802165Y314067I2024J2024D01*
G01X800141Y314905D02*
X793252Y321795D01*
X793111Y321947D02*
G03X793252Y321795I2165J1872D01*
G01X793111Y321947D02*
G03X792232Y321620I-379J-327D01*
G01Y304936*
G03X792379Y304582I500J-0*
G01X796708Y300253*
G03X797062Y300106I354J353*
G01X804663*
G03X804859Y300147I-0J500*
G01Y294342D02*
G03Y300147I1243J2902D01*
G01Y294342D02*
G03X804663Y294382I-196J-460D01*
G01X795669*
X793645Y295220D02*
G03X795669Y294382I2024J2024D01*
G01X793645Y295220D02*
X787346Y301519D01*
X786508Y303543D02*
G03X787346Y301519I2862J0D01*
G01X786508Y303543D02*
Y361599D01*
G03X786361Y361953I-500J0*
G01X772977Y375338*
G03X772623Y375484I-354J-354*
G01X685251*
G03X684897Y375338I-0J-500*
G01X681355Y371796*
G03X681209Y371442I354J-354*
G01Y359055*
X680370Y357031D02*
G03X681209Y359055I-2024J2024D01*
G01X680370Y357031D02*
X672496Y349157D01*
X670472Y348319D02*
G03X672496Y349157I0J2862D01*
G01X670472Y348319D02*
X659132D01*
G03X658965Y347348I-0J-500*
G01X652059D02*
G03X658965I3453J-9750D01*
G01X652059D02*
G03X651892Y348319I-167J471D01*
G01X606904*
G03X606551Y348172I0J-500*
G01X603796Y345418*
G03X603650Y345064I354J-354*
G01Y339370*
X602811Y337346D02*
G03X603650Y339370I-2024J2024D01*
G01X602811Y337346D02*
X597299Y331834D01*
X595276Y330996D02*
G03X597299Y331834I-0J2862D01*
G01X595276Y330996D02*
X503150D01*
X501126Y331834D02*
G03X503150Y330996I2024J2024D01*
G01X501126Y331834D02*
X497386Y335574D01*
G03X497033Y335720I-353J-354*
G01X480020*
G03X479862Y335695I-0J-500*
G01X479633Y335619*
G03X479334Y335349I157J-475*
G01X479654Y341786D02*
G03X479334Y335349I-8394J-2810D01*
G01X479654Y341786D02*
G03X480128Y341445I474J159D01*
G01X498425*
X500449Y340607D02*
G03X498425Y341445I-2024J-2024D01*
G01X500449Y340607D02*
X504189Y336867D01*
G03X504542Y336720I353J353*
G01X593883*
G03X594236Y336867I-0J500*
G01X597779Y340409*
G03X597925Y340763I-354J354*
G01Y346457*
X598764Y348481D02*
G03X597925Y346457I2023J-2024D01*
G01X598764Y348481D02*
X603488Y353205D01*
X605512Y354043D02*
G03X603488Y353205I-0J-2862D01*
G01X605512Y354043D02*
X669080D01*
G03X669433Y354190I-0J500*
G01X675338Y360094*
G03X675484Y360448I-354J354*
G01Y372835*
X676323Y374859D02*
G03X675484Y372835I2023J-2024D01*
G01X676323Y374859D02*
X681834Y380370D01*
X683858Y381209D02*
G03X681834Y380370I0J-2863D01*
G01X683858Y381209D02*
X774016D01*
X776040Y380370D02*
G03X774016Y381209I-2024J-2024D01*
G01X776040Y380370D02*
X791394Y365016D01*
X791535Y364864D02*
G03X791394Y365016I-2165J-1872D01*
G01X791535Y364864D02*
G03X792413Y365191I378J327D01*
G01Y392702*
G03X792267Y393055I-500J-0*
G01X745418Y439905*
G03X745064Y440051I-354J-354*
G01X743566*
G03X743369Y440011I-0J-500*
G01Y445816D02*
G03Y440011I-1243J-2903D01*
G01Y445816D02*
G03X743566Y445776I197J460D01*
G01X746457*
X748481Y444937D02*
G03X746457Y445776I-2024J-2024D01*
G01X748481Y444937D02*
X797299Y396118D01*
X798138Y394094D02*
G03X797299Y396118I-2862J0D01*
G01X798138Y394094D02*
Y325212D01*
G03X798284Y324858I500J-0*
G01X803204Y319938*
G03X803558Y319791I354J353*
G01X804663*
G03X804859Y319832I-0J500*
G01X810244Y446850D02*
G03X810244I-3157J0D01*
G01X843020Y501969D02*
Y474409D01*
X842873Y474056D02*
G03X843020Y474409I-353J353D01*
G01X842873Y474056D02*
X840905Y472087D01*
X840551Y471941D02*
G03X840905Y472087I0J500D01*
G01X840551Y471941D02*
X807087D01*
X806733Y472087D02*
G03X807087Y471941I354J354D01*
G01X806733Y472087D02*
X804765Y474056D01*
X804618Y474409D02*
G03X804765Y474056I500J0D01*
G01X804618Y474409D02*
Y501969D01*
X804765Y502322D02*
G03X804618Y501969I353J-353D01*
G01X804765Y502322D02*
X806733Y504291D01*
X807087Y504437D02*
G03X806733Y504291I-0J-500D01*
G01X807087Y504437D02*
X840551D01*
X840905Y504291D02*
G03X840551Y504437I-354J-354D01*
G01X840905Y504291D02*
X842873Y502322D01*
X843020Y501969D02*
G03X842873Y502322I-500J-0D01*
G01X820677Y527559D02*
G03X820677I-6799J0D01*
G01X774600Y488189D02*
G03X774600I-8852J0D01*
G01X733965Y448819D02*
Y413386D01*
X726665D02*
G03X733965I3650J-0D01*
G01X726665D02*
Y448819D01*
X733965D02*
G03X726665I-3650J-0D01*
G01X750978Y488189D02*
G03X750978I-8852J0D01*
G01X949359Y246395D02*
G03X943554I-2902J1243D01*
G01X949359D02*
G03X949319Y246198I460J-197D01*
G01Y230394*
X948481Y228370D02*
G03X949319Y230394I-2024J2024D01*
G01X948481Y228370D02*
X921315Y201204D01*
X919291Y200366D02*
G03X921315Y201204I0J2862D01*
G01X919291Y200366D02*
X834646D01*
X832622Y201204D02*
G03X834646Y200366I2024J2024D01*
G01X832622Y201204D02*
X825220Y208606D01*
X824382Y210630D02*
G03X825220Y208606I2862J-0D01*
G01X824382Y210630D02*
Y213353D01*
G03X823965Y213846I-500J0*
G01X822703Y214833D02*
G03X823965Y213846I1541J671D01*
G01X822703Y214833D02*
G03X821786I-459J-199D01*
G01X820244Y213823D02*
G03X821786Y214833I0J1681D01*
G01X820244Y213823D02*
X814244D01*
X812703Y214833D02*
G03X814244Y213823I1541J671D01*
G01X812703Y214833D02*
G03X811786I-459J-199D01*
G01X810244Y213823D02*
G03X811786Y214833I0J1681D01*
G01X810244Y213823D02*
X804244D01*
X802703Y214833D02*
G03X804244Y213823I1541J671D01*
G01X802703Y214833D02*
G03X801786I-459J-199D01*
G01X800244Y213823D02*
G03X801786Y214833I0J1681D01*
G01X800244Y213823D02*
X794244D01*
X792563Y215504D02*
G03X794244Y213823I1681J-0D01*
G01X792563Y215504D02*
Y221504D01*
X793573Y223045D02*
G03X792563Y221504I671J-1541D01*
G01X793573Y223045D02*
G03Y223962I-199J459D01*
G01X792586Y225225D02*
G03X793573Y223962I1658J279D01*
G01X792586Y225225D02*
G03X792093Y225642I-493J-83D01*
G01X770109*
G03X769753Y225492I0J-500*
G01X761908Y217522*
G03X761799Y217354I356J-350*
G01X757661Y221426D02*
G03X761799Y217354I1197J-2922D01*
G01X757661Y221426D02*
G03X757828Y221538I-189J463D01*
G01X766661Y230512*
X768701Y231366D02*
G03X766661Y230512I-0J-2862D01*
G01X768701Y231366D02*
X792093D01*
G03X792586Y231783I0J500*
G01X794244Y233185D02*
G03X792586Y231783I0J-1681D01*
G01X794244Y233185D02*
X800244D01*
X801786Y232175D02*
G03X800244Y233185I-1542J-671D01*
G01X801786Y232175D02*
G03X802703I458J199D01*
G01X804244Y233185D02*
G03X802703Y232175I0J-1681D01*
G01X804244Y233185D02*
X810244D01*
X811786Y232175D02*
G03X810244Y233185I-1542J-671D01*
G01X811786Y232175D02*
G03X812703I458J199D01*
G01X814244Y233185D02*
G03X812703Y232175I0J-1681D01*
G01X814244Y233185D02*
X820244D01*
X821786Y232175D02*
G03X820244Y233185I-1542J-671D01*
G01X821786Y232175D02*
G03X822703I458J199D01*
G01X823965Y233162D02*
G03X822703Y232175I279J-1658D01*
G01X823965Y233162D02*
G03X824382Y233655I-83J493D01*
G01Y242702*
G03X824235Y243055I-500J-0*
G01X816874Y250417*
X816035Y252441D02*
G03X816874Y250417I2863J-0D01*
G01X816035Y252441D02*
Y351102D01*
X816874Y353126D02*
G03X816035Y351102I2024J-2024D01*
G01X816874Y353126D02*
X833606Y369858D01*
X833605D02*
G03X833752Y370212I-353J354D01*
G01Y372622*
G03X833252Y373122I-500J0*
G01X811432*
G03X811078Y372976I0J-500*
G01X809144Y371041*
G03X809034Y370874I354J-353*
G01X804929Y374979D02*
G03X809034Y370874I1173J-2932D01*
G01X804929Y374979D02*
G03X805096Y375089I-186J464D01*
G01X808015Y378008*
X810039Y378846D02*
G03X808015Y378008I0J-2862D01*
G01X810039Y378846D02*
X835174D01*
G03X835371Y378887I0J500*
G01X839517Y374741D02*
G03X835371Y378887I-2903J1243D01*
G01X839517Y374741D02*
G03X839476Y374545I459J-196D01*
G01Y368819*
X838638Y366795D02*
G03X839476Y368819I-2024J2024D01*
G01X838638Y366795D02*
X821906Y350063D01*
G03X821760Y349710I354J-353*
G01Y253834*
G03X821906Y253480I500J-0*
G01X829268Y246118*
X830106Y244094D02*
G03X829268Y246118I-2862J0D01*
G01X830106Y244094D02*
Y233655D01*
G03X830523Y233162I500J-0*
G01X831786Y232175D02*
G03X830523Y233162I-1542J-671D01*
G01X831786Y232175D02*
G03X832703I458J199D01*
G01X833965Y233162D02*
G03X832703Y232175I279J-1658D01*
G01X833965Y233162D02*
G03X834382Y233655I-83J493D01*
G01Y245694*
G03X834235Y246047I-500J-0*
G01X825771Y254512*
X824933Y256535D02*
G03X825771Y254512I2862J0D01*
G01X824933Y256535D02*
Y344488D01*
X825771Y346512D02*
G03X824933Y344488I2024J-2024D01*
G01X825771Y346512D02*
X841480Y362220D01*
G03X841626Y362574I-354J354*
G01Y407615*
G03X841586Y407812I-500J0*
G01X847391D02*
G03X841586I-2903J1243D01*
G01X847391D02*
G03X847350Y407615I459J-197D01*
G01Y361181*
X846512Y359157D02*
G03X847350Y361181I-2024J2024D01*
G01X846512Y359157D02*
X830804Y343449D01*
G03X830658Y343096I354J-353*
G01X830658D02*
Y257928D01*
X830658D02*
G03X830804Y257575I500J0D01*
G01X839268Y249111*
X840106Y247087D02*
G03X839268Y249111I-2862J-0D01*
G01X840106Y247087D02*
Y233655D01*
G03X840523Y233162I500J-0*
G01X841786Y232175D02*
G03X840523Y233162I-1542J-671D01*
G01X841786Y232175D02*
G03X842703I458J199D01*
G01X844244Y233185D02*
G03X842703Y232175I0J-1681D01*
G01X844244Y233185D02*
X850244D01*
X851786Y232175D02*
G03X850244Y233185I-1542J-671D01*
G01X851786Y232175D02*
G03X852703I458J199D01*
G01X854244Y233185D02*
G03X852703Y232175I0J-1681D01*
G01X854244Y233185D02*
X860244D01*
X861786Y232175D02*
G03X860244Y233185I-1542J-671D01*
G01X861786Y232175D02*
G03X862703I458J199D01*
G01X863419Y232968D02*
G03X862703Y232175I825J-1464D01*
G01X863419Y232968D02*
G03X863673Y233404I-246J436D01*
G01Y236220*
X863820Y236574D02*
G03X863673Y236220I353J-354D01*
G01X863820Y236574D02*
X865788Y238543D01*
X866142Y238689D02*
G03X865788Y238543I-0J-500D01*
G01X866142Y238689D02*
X901575D01*
X901928Y238543D02*
G03X901575Y238689I-353J-354D01*
G01X901928Y238543D02*
X903897Y236574D01*
X904043Y236220D02*
G03X903897Y236574I-500J0D01*
G01X904043Y236220D02*
Y208661D01*
X903897Y208308D02*
G03X904043Y208661I-354J353D01*
G01X903897Y208308D02*
X902533Y206944D01*
G03X902887Y206091I354J-353*
G01X917899*
G03X918252Y206237I-0J500*
G01X943448Y231433*
G03X943594Y231786I-354J353*
G01Y246198*
G03X943554Y246395I-500J0*
G01X835573Y206349D02*
X865268D01*
X834673Y207249D02*
X864878D01*
X833773Y208149D02*
X863978D01*
X830146Y213549D02*
X863673D01*
X830106Y212649D02*
X863673D01*
X830188Y211749D02*
X863673D01*
X831073Y210849D02*
X863673D01*
X831973Y209949D02*
X863673D01*
X832873Y209049D02*
X863673D01*
X861553Y214449D02*
X862935D01*
X851553D02*
X852935D01*
X841553D02*
X842935D01*
X831553D02*
X832935D01*
X1132173Y582549D02*
X1140051D01*
X1133127Y581649D02*
X1140051D01*
X1133937Y580749D02*
X1140051D01*
X1134631Y579849D02*
X1140051D01*
X1135227Y578949D02*
X1140051D01*
X1135738Y578049D02*
X1140051D01*
X1136174Y577149D02*
X1140051D01*
X1136541Y576249D02*
X1140051D01*
X1136844Y575349D02*
X1140051D01*
X1137087Y574449D02*
X1140051D01*
X1137273Y573549D02*
X1140051D01*
X1137405Y572649D02*
X1140051D01*
X1137483Y571749D02*
X1140051D01*
X1137508Y570849D02*
X1140051D01*
X1137481Y569949D02*
X1140051D01*
X1137401Y569049D02*
X1140051D01*
X1137267Y568149D02*
X1140051D01*
X1137079Y567249D02*
X1140051D01*
X1136833Y566349D02*
X1140051D01*
X1136528Y565449D02*
X1140051D01*
X1136158Y564549D02*
X1140051D01*
X1135720Y563649D02*
X1140051D01*
X1135206Y562749D02*
X1140051D01*
X1134606Y561849D02*
X1140051D01*
X1133908Y560949D02*
X1140051D01*
X1133094Y560049D02*
X1140051D01*
X1132134Y559149D02*
X1140051D01*
X1130983Y558249D02*
X1140051D01*
X1129552Y557349D02*
X1140051D01*
X1127631Y556449D02*
X1140051D01*
X1124149Y555549D02*
X1140051D01*
X909902Y554649D02*
X1140051D01*
X827958Y553749D02*
X1140051D01*
X795687Y552849D02*
X1140051D01*
X796587Y551949D02*
X1140051D01*
X797487Y551049D02*
X1140051D01*
X798387Y550149D02*
X1140051D01*
X799287Y549249D02*
X1140051D01*
X800187Y548349D02*
X1140051D01*
X801087Y547449D02*
X1140051D01*
X801987Y546549D02*
X1140051D01*
X976450Y545649D02*
X1140051D01*
X978238Y544749D02*
X1140051D01*
X979260Y543849D02*
X1140051D01*
X979958Y542949D02*
X1140051D01*
X980444Y542049D02*
X1140051D01*
X980768Y541149D02*
X1140051D01*
X980953Y540249D02*
X1140051D01*
X981012Y539349D02*
X1140051D01*
X980947Y538449D02*
X1140051D01*
X980756Y537549D02*
X1140051D01*
X980425Y536649D02*
X1140051D01*
X979930Y535749D02*
X1140051D01*
X979221Y534849D02*
X1140051D01*
X978178Y533949D02*
X1140051D01*
X976316Y533049D02*
X1140051D01*
X893894Y532149D02*
X1140051D01*
X894589Y531249D02*
X1140051D01*
X895078Y530349D02*
X1140051D01*
X895409Y529449D02*
X1140051D01*
X895605Y528549D02*
X1140051D01*
X895677Y527649D02*
X1140051D01*
X895629Y526749D02*
X1140051D01*
X976775Y525849D02*
X1140051D01*
X978395Y524949D02*
X1140051D01*
X979364Y524049D02*
X1140051D01*
X980030Y523149D02*
X1140051D01*
X980494Y522249D02*
X1140051D01*
X980799Y521349D02*
X1140051D01*
X980967Y520449D02*
X1140051D01*
X981010Y519549D02*
X1140051D01*
X980930Y518649D02*
X1140051D01*
X980722Y517749D02*
X1140051D01*
X980372Y516849D02*
X1140051D01*
X979853Y515949D02*
X1140051D01*
X979110Y515049D02*
X1140051D01*
X978007Y514149D02*
X1140051D01*
X975883Y513249D02*
X1140051D01*
X859161Y512349D02*
X1140051D01*
X859161Y511449D02*
X1140051D01*
X859161Y510549D02*
X1140051D01*
X859161Y509649D02*
X1140051D01*
X859161Y508749D02*
X1140051D01*
X859161Y507849D02*
X1140051D01*
X859161Y506949D02*
X1140051D01*
X859161Y506049D02*
X1140051D01*
X1093270Y505149D02*
X1140051D01*
X1094191Y504249D02*
X1140051D01*
X1095091Y503349D02*
X1140051D01*
X1095991Y502449D02*
X1140051D01*
X1096891Y501549D02*
X1140051D01*
X1097569Y500649D02*
X1140051D01*
X1097744Y499749D02*
X1140051D01*
X1097744Y498849D02*
X1140051D01*
X1097744Y497949D02*
X1140051D01*
X1097744Y497049D02*
X1140051D01*
X1097744Y496149D02*
X1140051D01*
X1097744Y495249D02*
X1140051D01*
X1097744Y494349D02*
X1140051D01*
X1097744Y493449D02*
X1140051D01*
X1097744Y492549D02*
X1140051D01*
X1097744Y491649D02*
X1140051D01*
X1097744Y490749D02*
X1140051D01*
X1097744Y489849D02*
X1140051D01*
X1097744Y488949D02*
X1140051D01*
X1097744Y488049D02*
X1140051D01*
X1097744Y487149D02*
X1140051D01*
X1097744Y486249D02*
X1140051D01*
X1097744Y485349D02*
X1140051D01*
X1097744Y484449D02*
X1140051D01*
X1097744Y483549D02*
X1140051D01*
X1097744Y482649D02*
X1140051D01*
X1097744Y481749D02*
X1140051D01*
X1097744Y480849D02*
X1140051D01*
X1097744Y479949D02*
X1140051D01*
X1097744Y479049D02*
X1140051D01*
X1097744Y478149D02*
X1140051D01*
X1097744Y477249D02*
X1140051D01*
X1106675Y476349D02*
X1140051D01*
X1108246Y475449D02*
X1140051D01*
X1109094Y474549D02*
X1140051D01*
X1109627Y473649D02*
X1140051D01*
X1109947Y472749D02*
X1140051D01*
X1110093Y471849D02*
X1140051D01*
X1110106Y470949D02*
X1140051D01*
X1110106Y470049D02*
X1140051D01*
X1110096Y469149D02*
X1140051D01*
X1109960Y468249D02*
X1140051D01*
X1109651Y467349D02*
X1140051D01*
X1109133Y466449D02*
X1140051D01*
X1108309Y465549D02*
X1140051D01*
X1106817Y464649D02*
X1140051D01*
X1097744Y463749D02*
X1140051D01*
X1097744Y462849D02*
X1140051D01*
X1097744Y461949D02*
X1140051D01*
X1097744Y461049D02*
X1140051D01*
X1097744Y460149D02*
X1140051D01*
X1097744Y459249D02*
X1140051D01*
X1097744Y458349D02*
X1140051D01*
X1097744Y457449D02*
X1140051D01*
X1097744Y456549D02*
X1140051D01*
X1097744Y455649D02*
X1140051D01*
X1097744Y454749D02*
X1140051D01*
X1097744Y453849D02*
X1140051D01*
X1097744Y452949D02*
X1140051D01*
X1097744Y452049D02*
X1140051D01*
X1097744Y451149D02*
X1140051D01*
X1097744Y450249D02*
X1140051D01*
X1097744Y449349D02*
X1140051D01*
X1097744Y448449D02*
X1140051D01*
X1097744Y447549D02*
X1140051D01*
X1097744Y446649D02*
X1140051D01*
X1097744Y445749D02*
X1140051D01*
X1097744Y444849D02*
X1140051D01*
X1097744Y443949D02*
X1140051D01*
X1097744Y443049D02*
X1140051D01*
X1097744Y442149D02*
X1140051D01*
X1097744Y441249D02*
X1140051D01*
X1097744Y440349D02*
X1140051D01*
X1097744Y439449D02*
X1140051D01*
X1097744Y438549D02*
X1140051D01*
X1097744Y437649D02*
X1140051D01*
X1107217Y436749D02*
X1140051D01*
X1108504Y435849D02*
X1140051D01*
X1109254Y434949D02*
X1140051D01*
X1109727Y434049D02*
X1140051D01*
X1109999Y433149D02*
X1140051D01*
X1110104Y432249D02*
X1140051D01*
X1110106Y431349D02*
X1140051D01*
X1110106Y430449D02*
X1140051D01*
X1110077Y429549D02*
X1140051D01*
X1109898Y428649D02*
X1140051D01*
X1109541Y427749D02*
X1140051D01*
X1108958Y426849D02*
X1140051D01*
X1108023Y425949D02*
X1140051D01*
X1106069Y425049D02*
X1140051D01*
X1097744Y424149D02*
X1140051D01*
X1097744Y423249D02*
X1140051D01*
X1097744Y422349D02*
X1140051D01*
X1097744Y421449D02*
X1140051D01*
X1097744Y420549D02*
X1140051D01*
X1097744Y419649D02*
X1140051D01*
X1097744Y418749D02*
X1140051D01*
X1097744Y417849D02*
X1140051D01*
X1097744Y416949D02*
X1140051D01*
X1097744Y416049D02*
X1140051D01*
X1097744Y415149D02*
X1140051D01*
X1097744Y414249D02*
X1140051D01*
X1097744Y413349D02*
X1140051D01*
X1097744Y412449D02*
X1140051D01*
X1097744Y411549D02*
X1140051D01*
X1097744Y410649D02*
X1140051D01*
X1097744Y409749D02*
X1140051D01*
X1097744Y408849D02*
X1140051D01*
X1097744Y407949D02*
X1140051D01*
X1097744Y407049D02*
X1140051D01*
X1097744Y406149D02*
X1140051D01*
X1097744Y405249D02*
X1140051D01*
X1097744Y404349D02*
X1140051D01*
X1097744Y403449D02*
X1140051D01*
X1097744Y402549D02*
X1140051D01*
X1097744Y401649D02*
X1140051D01*
X1097744Y400749D02*
X1140051D01*
X1109093Y399849D02*
X1140051D01*
X1110110Y398949D02*
X1140051D01*
X1110728Y398049D02*
X1140051D01*
X1111104Y397149D02*
X1140051D01*
X1111293Y396249D02*
X1140051D01*
X1111317Y395349D02*
X1140051D01*
X1111176Y394449D02*
X1140051D01*
X1110858Y393549D02*
X1140051D01*
X1110319Y392649D02*
X1140051D01*
X1109447Y391749D02*
X1140051D01*
X1107728Y390849D02*
X1140051D01*
X847350Y389949D02*
X1140051D01*
X858997Y389049D02*
X1140051D01*
X860099Y388149D02*
X1140051D01*
X860645Y387249D02*
X1140051D01*
X860896Y386349D02*
X1140051D01*
X860933Y385449D02*
X1140051D01*
X860933Y384549D02*
X1140051D01*
X860933Y383649D02*
X1140051D01*
X860933Y382749D02*
X1140051D01*
X860933Y381849D02*
X1140051D01*
X860933Y380949D02*
X1140051D01*
X860933Y380049D02*
X1140051D01*
X860933Y379149D02*
X1140051D01*
X860933Y378249D02*
X1140051D01*
X860933Y377349D02*
X1140051D01*
X860933Y376449D02*
X1140051D01*
X860933Y375549D02*
X1140051D01*
X860933Y374649D02*
X1140051D01*
X860933Y373749D02*
X1140051D01*
X860933Y372849D02*
X1140051D01*
X860933Y371949D02*
X1140051D01*
X860933Y371049D02*
X1140051D01*
X860933Y370149D02*
X1140051D01*
X860933Y369249D02*
X1140051D01*
X860933Y368349D02*
X1140051D01*
X860933Y367449D02*
X1140051D01*
X860933Y366549D02*
X1140051D01*
X860933Y365649D02*
X1140051D01*
X860933Y364749D02*
X1140051D01*
X860933Y363849D02*
X1140051D01*
X860933Y362949D02*
X1140051D01*
X860933Y362049D02*
X1140051D01*
X860933Y361149D02*
X1140051D01*
X860933Y360249D02*
X1140051D01*
X1026886Y359349D02*
X1140051D01*
X1027787Y358449D02*
X1140051D01*
X1028687Y357549D02*
X1140051D01*
X1029587Y356649D02*
X1140051D01*
X1030487Y355749D02*
X1140051D01*
X1031084Y354849D02*
X1140051D01*
X1031209Y353949D02*
X1140051D01*
X1031209Y353049D02*
X1140051D01*
X1031209Y352149D02*
X1140051D01*
X1031209Y351249D02*
X1140051D01*
X1031209Y350349D02*
X1140051D01*
X1031209Y349449D02*
X1140051D01*
X1031209Y348549D02*
X1140051D01*
X1031209Y347649D02*
X1140051D01*
X1031209Y346749D02*
X1140051D01*
X1031209Y345849D02*
X1140051D01*
X1031209Y344949D02*
X1140051D01*
X1031209Y344049D02*
X1140051D01*
X1031209Y343149D02*
X1140051D01*
X1031209Y342249D02*
X1140051D01*
X1031209Y341349D02*
X1140051D01*
X1031209Y340449D02*
X1140051D01*
X1031209Y339549D02*
X1140051D01*
X1031209Y338649D02*
X1140051D01*
X1031209Y337749D02*
X1140051D01*
X1031209Y336849D02*
X1140051D01*
X1031209Y335949D02*
X1140051D01*
X1031209Y335049D02*
X1140051D01*
X1031209Y334149D02*
X1140051D01*
X1031209Y333249D02*
X1140051D01*
X1031209Y332349D02*
X1140051D01*
X1031209Y331449D02*
X1140051D01*
X1031209Y330549D02*
X1140051D01*
X1031209Y329649D02*
X1140051D01*
X1031209Y328749D02*
X1140051D01*
X1031209Y327849D02*
X1140051D01*
X1031209Y326949D02*
X1140051D01*
X1031209Y326049D02*
X1140051D01*
X1031209Y325149D02*
X1140051D01*
X1031209Y324249D02*
X1140051D01*
X1031209Y323349D02*
X1140051D01*
X1031209Y322449D02*
X1140051D01*
X1031209Y321549D02*
X1140051D01*
X1031209Y320649D02*
X1140051D01*
X1031209Y319749D02*
X1140051D01*
X1031209Y318849D02*
X1140051D01*
X1031209Y317949D02*
X1140051D01*
X1031209Y317049D02*
X1140051D01*
X1031209Y316149D02*
X1140051D01*
X1031209Y315249D02*
X1140051D01*
X1031209Y314349D02*
X1140051D01*
X1031209Y313449D02*
X1140051D01*
X1031209Y312549D02*
X1140051D01*
X1031209Y311649D02*
X1140051D01*
X1031209Y310749D02*
X1140051D01*
X1031209Y309849D02*
X1140051D01*
X1031209Y308949D02*
X1140051D01*
X1127112Y308049D02*
X1140051D01*
X1129031Y307149D02*
X1140051D01*
X1129943Y306249D02*
X1140051D01*
X1130505Y305349D02*
X1140051D01*
X1130841Y304449D02*
X1140051D01*
X1130996Y303549D02*
X1140051D01*
X1130987Y302649D02*
X1140051D01*
X1130813Y301749D02*
X1140051D01*
X1130455Y300849D02*
X1140051D01*
X1129862Y299949D02*
X1140051D01*
X1128893Y299049D02*
X1140051D01*
X1126505Y298149D02*
X1140051D01*
X1029154Y297249D02*
X1140051D01*
X1028254Y296349D02*
X1140051D01*
X1027354Y295449D02*
X1140051D01*
X1026221Y294549D02*
X1140051D01*
X847744Y293649D02*
X1140051D01*
X847744Y292749D02*
X1140051D01*
X847744Y291849D02*
X1140051D01*
X847744Y290949D02*
X1140051D01*
X847744Y290049D02*
X1140051D01*
X847744Y289149D02*
X1140051D01*
X847744Y288249D02*
X1140051D01*
X979469Y287349D02*
X1140051D01*
X981074Y286449D02*
X1140051D01*
X981811Y285549D02*
X1140051D01*
X982212Y284649D02*
X1140051D01*
X982380Y283749D02*
X1140051D01*
X982343Y282849D02*
X1140051D01*
X982095Y281949D02*
X1140051D01*
X981589Y281049D02*
X1140051D01*
X981451Y280149D02*
X1140051D01*
X982020Y279249D02*
X1140051D01*
X982312Y278349D02*
X1140051D01*
X982388Y277449D02*
X1140051D01*
X982262Y276549D02*
X1140051D01*
X981910Y275649D02*
X1140051D01*
X981254Y274749D02*
X1140051D01*
X979954Y273849D02*
X1140051D01*
X830658Y272949D02*
X1140051D01*
X830658Y272049D02*
X1140051D01*
X830658Y271149D02*
X1140051D01*
X830658Y270249D02*
X1140051D01*
X830658Y269349D02*
X1140051D01*
X830658Y268449D02*
X1140051D01*
X830658Y267549D02*
X1140051D01*
X830658Y266649D02*
X1140051D01*
X830658Y265749D02*
X1140051D01*
X830658Y264849D02*
X1140051D01*
X830658Y263949D02*
X1140051D01*
X830658Y263049D02*
X1140051D01*
X830658Y262149D02*
X1140051D01*
X830658Y261249D02*
X1140051D01*
X830658Y260349D02*
X1140051D01*
X1005884Y259449D02*
X1140051D01*
X1006996Y258549D02*
X1140051D01*
X1007585Y257649D02*
X1140051D01*
X1007891Y256749D02*
X1140051D01*
X1007980Y255849D02*
X1140051D01*
X1007866Y254949D02*
X1140051D01*
X1007529Y254049D02*
X1140051D01*
X1014347Y253149D02*
X1140051D01*
X1015171Y252249D02*
X1140051D01*
X1015623Y251349D02*
X1140051D01*
X1015829Y250449D02*
X1140051D01*
X1015829Y249549D02*
X1140051D01*
X1015622Y248649D02*
X1140051D01*
X1015170Y247749D02*
X1140051D01*
X1014345Y246849D02*
X1140051D01*
X949319Y245949D02*
X1140051D01*
X949319Y245049D02*
X1140051D01*
X949319Y244149D02*
X1140051D01*
X949319Y243249D02*
X1140051D01*
X949319Y242349D02*
X1140051D01*
X949319Y241449D02*
X1140051D01*
X949319Y240549D02*
X1140051D01*
X949319Y239649D02*
X1140051D01*
X949319Y238749D02*
X1140051D01*
X992004Y237849D02*
X1140051D01*
X993170Y236949D02*
X1140051D01*
X993779Y236049D02*
X1140051D01*
X994100Y235149D02*
X1140051D01*
X994201Y234249D02*
X1140051D01*
X994099Y233349D02*
X1140051D01*
X993777Y232449D02*
X1140051D01*
X1125738Y231549D02*
X1140051D01*
X1128359Y230649D02*
X1140051D01*
X1130074Y229749D02*
X1140051D01*
X1131396Y228849D02*
X1140051D01*
X1132476Y227949D02*
X1140051D01*
X1133383Y227049D02*
X1140051D01*
X1134155Y226149D02*
X1140051D01*
X1134818Y225249D02*
X1140051D01*
X1135388Y224349D02*
X1140051D01*
X1135876Y223449D02*
X1140051D01*
X1136290Y222549D02*
X1140051D01*
X1136638Y221649D02*
X1140051D01*
X1136923Y220749D02*
X1140051D01*
X1137149Y219849D02*
X1140051D01*
X1137318Y218949D02*
X1140051D01*
X1137434Y218049D02*
X1140051D01*
X1137496Y217149D02*
X1140051D01*
X1137505Y216249D02*
X1140051D01*
X1137462Y215349D02*
X1140051D01*
X1137366Y214449D02*
X1140051D01*
X1137217Y213549D02*
X1140051D01*
X1137011Y212649D02*
X1140051D01*
X1136748Y211749D02*
X1140051D01*
X1136424Y210849D02*
X1140051D01*
X1136035Y209949D02*
X1140051D01*
X1135574Y209049D02*
X1140051D01*
X1135036Y208149D02*
X1140051D01*
X1134408Y207249D02*
X1140051D01*
X1133678Y206349D02*
X1140051D01*
X1132823Y205449D02*
X1140051D01*
X1131812Y204549D02*
X1140049D01*
X1131031Y583449D02*
X1140003D01*
X1130590Y203649D02*
X1139957D01*
X1129613Y584349D02*
X1139821D01*
X1129045Y202749D02*
X1139728D01*
X1127718Y585249D02*
X1139492D01*
X1126879Y201849D02*
X1139343D01*
X1124385Y586149D02*
X1138986D01*
X921023Y200949D02*
X1138767D01*
X397189Y587049D02*
X1138244D01*
X397514Y200049D02*
X1137919D01*
X398325Y587949D02*
X1137108D01*
X398879Y199149D02*
X1136554D01*
X401066Y588849D02*
X1134368D01*
X1030054Y298149D02*
X1125463D01*
X1031209Y308049D02*
X1124857D01*
X1030876Y299049D02*
X1123075D01*
X1031209Y307149D02*
X1122938D01*
X1031193Y299949D02*
X1122107D01*
X1031209Y306249D02*
X1122026D01*
X1031209Y300849D02*
X1121514D01*
X1031209Y305349D02*
X1121463D01*
X1031209Y301749D02*
X1121156D01*
X1031209Y304449D02*
X1121128D01*
X1031209Y302649D02*
X1120982D01*
X1031209Y303549D02*
X1120973D01*
X911084Y555549D02*
X1119945D01*
X691314Y586149D02*
X1119710D01*
X993165Y231549D02*
X1118356D01*
X921960Y201849D02*
X1117216D01*
X911780Y556449D02*
X1116463D01*
X694648Y585249D02*
X1116376D01*
X991993Y230649D02*
X1115736D01*
X922860Y202749D02*
X1115050D01*
X912210Y557349D02*
X1114543D01*
X696542Y584349D02*
X1114481D01*
X949245Y229749D02*
X1114020D01*
X923760Y203649D02*
X1113505D01*
X912443Y558249D02*
X1113112D01*
X697960Y583449D02*
X1113064D01*
X948866Y228849D02*
X1112698D01*
X924660Y204549D02*
X1112282D01*
X912507Y559149D02*
X1111961D01*
X699103Y582549D02*
X1111921D01*
X948060Y227949D02*
X1111618D01*
X925560Y205449D02*
X1111271D01*
X912409Y560049D02*
X1111001D01*
X700056Y581649D02*
X1110968D01*
X1055160Y227049D02*
X1110712D01*
X926460Y206349D02*
X1110417D01*
X912138Y560949D02*
X1110186D01*
X700866Y580749D02*
X1110158D01*
X1056545Y226149D02*
X1109939D01*
X927360Y207249D02*
X1109686D01*
X911660Y561849D02*
X1109488D01*
X771407Y579849D02*
X1109464D01*
X1057320Y225249D02*
X1109276D01*
X928260Y208149D02*
X1109059D01*
X910891Y562749D02*
X1108889D01*
X772728Y578949D02*
X1108868D01*
X1057801Y224349D02*
X1108706D01*
X929160Y209049D02*
X1108520D01*
X909523Y563649D02*
X1108374D01*
X773523Y578049D02*
X1108356D01*
X1058075Y223449D02*
X1108219D01*
X930060Y209949D02*
X1108060D01*
X783987Y564549D02*
X1107936D01*
X774042Y577149D02*
X1107921D01*
X1058176Y222549D02*
X1107804D01*
X930960Y210849D02*
X1107670D01*
X783087Y565449D02*
X1107567D01*
X827782Y576249D02*
X1107554D01*
X1058114Y221649D02*
X1107457D01*
X931860Y211749D02*
X1107346D01*
X826649Y566349D02*
X1107261D01*
X829227Y575349D02*
X1107251D01*
X1057884Y220749D02*
X1107172D01*
X932760Y212649D02*
X1107083D01*
X828821Y567249D02*
X1107016D01*
X830036Y574449D02*
X1107007D01*
X1057458Y219849D02*
X1106946D01*
X933660Y213549D02*
X1106878D01*
X829788Y568149D02*
X1106827D01*
X830545Y573549D02*
X1106821D01*
X1056767Y218949D02*
X1106776D01*
X934560Y214449D02*
X1106728D01*
X830389Y569049D02*
X1106694D01*
X830846Y572649D02*
X1106690D01*
X1055597Y218049D02*
X1106661D01*
X935460Y215349D02*
X1106632D01*
X830759Y569949D02*
X1106614D01*
X830976Y571749D02*
X1106612D01*
X937260Y217149D02*
X1106599D01*
X936360Y216249D02*
X1106589D01*
X830948Y570849D02*
X1106587D01*
X847350Y390849D02*
X1104870D01*
X1097744Y425049D02*
X1103781D01*
X1097744Y399849D02*
X1103505D01*
X1097744Y476349D02*
X1103175D01*
X847350Y391749D02*
X1103151D01*
X1097744Y464649D02*
X1103033D01*
X1097744Y436749D02*
X1102633D01*
X1097744Y398949D02*
X1102489D01*
X1093452Y392649D02*
X1102280D01*
X1097744Y398049D02*
X1101871D01*
X1097744Y425949D02*
X1101828D01*
X1094352Y393549D02*
X1101741D01*
X1097744Y475449D02*
X1101604D01*
X1097744Y465549D02*
X1101541D01*
X1097630Y397149D02*
X1101494D01*
X1095252Y394449D02*
X1101422D01*
X1097744Y435849D02*
X1101347D01*
X1097052Y396249D02*
X1101305D01*
X1096152Y395349D02*
X1101282D01*
X1097744Y426849D02*
X1100893D01*
X1097744Y474549D02*
X1100756D01*
X1097744Y466449D02*
X1100718D01*
X1097744Y434949D02*
X1100596D01*
X1097744Y427749D02*
X1100309D01*
X1097744Y473649D02*
X1100223D01*
X1097744Y467349D02*
X1100199D01*
X1097744Y434049D02*
X1100124D01*
X1097744Y428649D02*
X1099952D01*
X1097744Y472749D02*
X1099904D01*
X1097744Y468249D02*
X1099891D01*
X1097744Y433149D02*
X1099851D01*
X1097744Y429549D02*
X1099774D01*
X1097744Y471849D02*
X1099758D01*
X1097744Y469149D02*
X1099754D01*
X1097744Y432249D02*
X1099746D01*
X1097744Y470949D02*
X1099744D01*
X1097744Y470049D02*
X1099744D01*
X1097744Y431349D02*
X1099744D01*
X1097744Y430449D02*
X1099744D01*
X859161Y505149D02*
X1053974D01*
X847350Y392649D02*
X1053792D01*
X905907Y504249D02*
X1053053D01*
X847350Y393549D02*
X1052892D01*
X906807Y503349D02*
X1052153D01*
X847350Y394449D02*
X1051992D01*
X907707Y502449D02*
X1051253D01*
X947160Y227049D02*
X1051139D01*
X847350Y395349D02*
X1051092D01*
X938160Y218049D02*
X1050703D01*
X907980Y501549D02*
X1050353D01*
X847350Y396249D02*
X1050192D01*
X946260Y226149D02*
X1049755D01*
X907980Y500649D02*
X1049675D01*
X847350Y397149D02*
X1049614D01*
X939060Y218949D02*
X1049533D01*
X907980Y499749D02*
X1049500D01*
X907980Y498849D02*
X1049500D01*
X907980Y497949D02*
X1049500D01*
X907980Y497049D02*
X1049500D01*
X907980Y496149D02*
X1049500D01*
X907980Y495249D02*
X1049500D01*
X907980Y494349D02*
X1049500D01*
X907980Y493449D02*
X1049500D01*
X907980Y492549D02*
X1049500D01*
X907980Y491649D02*
X1049500D01*
X907980Y490749D02*
X1049500D01*
X907980Y489849D02*
X1049500D01*
X1024167Y488949D02*
X1049500D01*
X1025352Y488049D02*
X1049500D01*
X1026252Y487149D02*
X1049500D01*
X1027152Y486249D02*
X1049500D01*
X1028052Y485349D02*
X1049500D01*
X1028886Y484449D02*
X1049500D01*
X1029221Y483549D02*
X1049500D01*
X1029240Y482649D02*
X1049500D01*
X1029240Y481749D02*
X1049500D01*
X1029240Y480849D02*
X1049500D01*
X1029240Y479949D02*
X1049500D01*
X1029240Y479049D02*
X1049500D01*
X1029240Y478149D02*
X1049500D01*
X1029240Y477249D02*
X1049500D01*
X1029240Y476349D02*
X1049500D01*
X1029240Y475449D02*
X1049500D01*
X1029240Y474549D02*
X1049500D01*
X1029240Y473649D02*
X1049500D01*
X1029240Y472749D02*
X1049500D01*
X1029240Y471849D02*
X1049500D01*
X1029240Y470949D02*
X1049500D01*
X1029240Y470049D02*
X1049500D01*
X1029240Y469149D02*
X1049500D01*
X1029240Y468249D02*
X1049500D01*
X1029240Y467349D02*
X1049500D01*
X1029240Y466449D02*
X1049500D01*
X1029240Y465549D02*
X1049500D01*
X1029240Y464649D02*
X1049500D01*
X1029240Y463749D02*
X1049500D01*
X1029240Y462849D02*
X1049500D01*
X1029240Y461949D02*
X1049500D01*
X1029240Y461049D02*
X1049500D01*
X1029240Y460149D02*
X1049500D01*
X1029240Y459249D02*
X1049500D01*
X1029240Y458349D02*
X1049500D01*
X1029240Y457449D02*
X1049500D01*
X1029240Y456549D02*
X1049500D01*
X1029240Y455649D02*
X1049500D01*
X1029240Y454749D02*
X1049500D01*
X1029240Y453849D02*
X1049500D01*
X1029240Y452949D02*
X1049500D01*
X1029240Y452049D02*
X1049500D01*
X1029240Y451149D02*
X1049500D01*
X1029240Y450249D02*
X1049500D01*
X1029240Y449349D02*
X1049500D01*
X1029240Y448449D02*
X1049500D01*
X1029240Y447549D02*
X1049500D01*
X1029240Y446649D02*
X1049500D01*
X1029240Y445749D02*
X1049500D01*
X1029240Y444849D02*
X1049500D01*
X1029240Y443949D02*
X1049500D01*
X1029240Y443049D02*
X1049500D01*
X1029240Y442149D02*
X1049500D01*
X1029240Y441249D02*
X1049500D01*
X1029240Y440349D02*
X1049500D01*
X1029240Y439449D02*
X1049500D01*
X1029240Y438549D02*
X1049500D01*
X1029240Y437649D02*
X1049500D01*
X1029240Y436749D02*
X1049500D01*
X1029240Y435849D02*
X1049500D01*
X1029240Y434949D02*
X1049500D01*
X1029240Y434049D02*
X1049500D01*
X1029240Y433149D02*
X1049500D01*
X1029240Y432249D02*
X1049500D01*
X1029240Y431349D02*
X1049500D01*
X1029240Y430449D02*
X1049500D01*
X1029240Y429549D02*
X1049500D01*
X1029240Y428649D02*
X1049500D01*
X1029240Y427749D02*
X1049500D01*
X1029240Y426849D02*
X1049500D01*
X1029240Y425949D02*
X1049500D01*
X1029240Y425049D02*
X1049500D01*
X1029240Y424149D02*
X1049500D01*
X1029240Y423249D02*
X1049500D01*
X1029240Y422349D02*
X1049500D01*
X1029240Y421449D02*
X1049500D01*
X1029240Y420549D02*
X1049500D01*
X1029240Y419649D02*
X1049500D01*
X1029240Y418749D02*
X1049500D01*
X1029240Y417849D02*
X1049500D01*
X1029240Y416949D02*
X1049500D01*
X1029240Y416049D02*
X1049500D01*
X1029240Y415149D02*
X1049500D01*
X1029240Y414249D02*
X1049500D01*
X1029240Y413349D02*
X1049500D01*
X1029240Y412449D02*
X1049500D01*
X1029240Y411549D02*
X1049500D01*
X1029240Y410649D02*
X1049500D01*
X1029240Y409749D02*
X1049500D01*
X1029240Y408849D02*
X1049500D01*
X1029240Y407949D02*
X1049500D01*
X1029240Y407049D02*
X1049500D01*
X1029240Y406149D02*
X1049500D01*
X1029189Y405249D02*
X1049500D01*
X1028756Y404349D02*
X1049500D01*
X1027874Y403449D02*
X1049500D01*
X1026974Y402549D02*
X1049500D01*
X1026074Y401649D02*
X1049500D01*
X1025174Y400749D02*
X1049500D01*
X847350Y399849D02*
X1049500D01*
X847350Y398949D02*
X1049500D01*
X847350Y398049D02*
X1049500D01*
X945360Y225249D02*
X1048979D01*
X939960Y219849D02*
X1048842D01*
X944460Y224349D02*
X1048498D01*
X940860Y220749D02*
X1048415D01*
X943560Y223449D02*
X1048224D01*
X941760Y221649D02*
X1048185D01*
X942660Y222549D02*
X1048123D01*
X1006471Y246849D02*
X1009277D01*
X1006930Y253149D02*
X1009275D01*
X1007296Y247749D02*
X1008452D01*
X1007297Y252249D02*
X1008451D01*
X830658Y259449D02*
X1001990D01*
X949514Y246849D02*
X1001403D01*
X835229Y253149D02*
X1000944D01*
X830658Y258549D02*
X1000878D01*
X949612Y247749D02*
X1000578D01*
X836129Y252249D02*
X1000577D01*
X834329Y254049D02*
X1000345D01*
X830743Y257649D02*
X1000289D01*
X949448Y248649D02*
X1000126D01*
X837029Y251349D02*
X1000125D01*
X833429Y254949D02*
X1000008D01*
X831629Y256749D02*
X999983D01*
X948970Y249549D02*
X999919D01*
X947894Y250449D02*
X999919D01*
X832529Y255849D02*
X999894D01*
X986087Y230649D02*
X988322D01*
X986098Y237849D02*
X988311D01*
X907980Y488949D02*
X986070D01*
X847350Y400749D02*
X985062D01*
X907980Y488049D02*
X984884D01*
X847350Y401649D02*
X984162D01*
X907980Y487149D02*
X983984D01*
X847350Y402549D02*
X983262D01*
X907980Y486249D02*
X983084D01*
X860933Y359349D02*
X982957D01*
X980182Y230649D02*
X982417D01*
X980193Y237849D02*
X982406D01*
X847350Y403449D02*
X982362D01*
X907980Y485349D02*
X982184D01*
X860933Y358449D02*
X982056D01*
X847350Y404349D02*
X981480D01*
X907980Y484449D02*
X981350D01*
X860933Y357549D02*
X981156D01*
X847350Y405249D02*
X981047D01*
X907980Y483549D02*
X981016D01*
X907980Y482649D02*
X980996D01*
X907980Y481749D02*
X980996D01*
X907980Y480849D02*
X980996D01*
X907980Y479949D02*
X980996D01*
X907980Y479049D02*
X980996D01*
X907980Y478149D02*
X980996D01*
X907980Y477249D02*
X980996D01*
X907980Y476349D02*
X980996D01*
X907980Y475449D02*
X980996D01*
X907980Y474549D02*
X980996D01*
X907427Y473649D02*
X980996D01*
X906527Y472749D02*
X980996D01*
X859161Y471849D02*
X980996D01*
X859161Y470949D02*
X980996D01*
X859161Y470049D02*
X980996D01*
X859161Y469149D02*
X980996D01*
X859161Y468249D02*
X980996D01*
X859161Y467349D02*
X980996D01*
X859161Y466449D02*
X980996D01*
X859161Y465549D02*
X980996D01*
X859161Y464649D02*
X980996D01*
X859161Y463749D02*
X980996D01*
X859161Y462849D02*
X980996D01*
X859176Y461949D02*
X980996D01*
X859429Y461049D02*
X980996D01*
X859420Y460149D02*
X980996D01*
X859139Y459249D02*
X980996D01*
X858483Y458349D02*
X980996D01*
X537902Y457449D02*
X980996D01*
X537902Y456549D02*
X980996D01*
X537902Y455649D02*
X980996D01*
X537902Y454749D02*
X980996D01*
X537902Y453849D02*
X980996D01*
X619008Y452949D02*
X980996D01*
X732014Y452049D02*
X980996D01*
X733124Y451149D02*
X980996D01*
X733673Y450249D02*
X980996D01*
X809017Y449349D02*
X980996D01*
X809809Y448449D02*
X980996D01*
X810166Y447549D02*
X980996D01*
X810238Y446649D02*
X980996D01*
X810046Y445749D02*
X980996D01*
X809529Y444849D02*
X980996D01*
X808332Y443949D02*
X980996D01*
X750369Y443049D02*
X980996D01*
X751269Y442149D02*
X980996D01*
X752169Y441249D02*
X980996D01*
X753069Y440349D02*
X980996D01*
X753969Y439449D02*
X980996D01*
X754869Y438549D02*
X980996D01*
X755769Y437649D02*
X980996D01*
X756669Y436749D02*
X980996D01*
X757569Y435849D02*
X980996D01*
X758469Y434949D02*
X980996D01*
X759369Y434049D02*
X980996D01*
X760269Y433149D02*
X980996D01*
X761169Y432249D02*
X980996D01*
X762069Y431349D02*
X980996D01*
X762969Y430449D02*
X980996D01*
X763869Y429549D02*
X980996D01*
X764769Y428649D02*
X980996D01*
X765669Y427749D02*
X980996D01*
X766569Y426849D02*
X980996D01*
X767469Y425949D02*
X980996D01*
X768369Y425049D02*
X980996D01*
X769269Y424149D02*
X980996D01*
X770169Y423249D02*
X980996D01*
X771069Y422349D02*
X980996D01*
X771969Y421449D02*
X980996D01*
X772869Y420549D02*
X980996D01*
X773769Y419649D02*
X980996D01*
X774669Y418749D02*
X980996D01*
X775569Y417849D02*
X980996D01*
X776469Y416949D02*
X980996D01*
X777369Y416049D02*
X980996D01*
X778269Y415149D02*
X980996D01*
X779169Y414249D02*
X980996D01*
X780069Y413349D02*
X980996D01*
X780969Y412449D02*
X980996D01*
X846425Y411549D02*
X980996D01*
X847214Y410649D02*
X980996D01*
X847568Y409749D02*
X980996D01*
X847639Y408849D02*
X980996D01*
X847446Y407949D02*
X980996D01*
X847350Y407049D02*
X980996D01*
X847350Y406149D02*
X980996D01*
X860933Y356649D02*
X980256D01*
X860933Y355749D02*
X979356D01*
X860933Y354849D02*
X978758D01*
X860933Y353949D02*
X978634D01*
X860933Y353049D02*
X978634D01*
X860933Y352149D02*
X978634D01*
X860933Y351249D02*
X978634D01*
X860933Y350349D02*
X978634D01*
X860809Y349449D02*
X978634D01*
X860433Y348549D02*
X978634D01*
X859694Y347649D02*
X978634D01*
X858749Y346749D02*
X978634D01*
X857804Y345849D02*
X978634D01*
X856859Y344949D02*
X978634D01*
X855914Y344049D02*
X978634D01*
X854969Y343149D02*
X978634D01*
X854024Y342249D02*
X978634D01*
X853079Y341349D02*
X978634D01*
X852134Y340449D02*
X978634D01*
X851189Y339549D02*
X978634D01*
X850244Y338649D02*
X978634D01*
X849299Y337749D02*
X978634D01*
X848354Y336849D02*
X978634D01*
X847409Y335949D02*
X978634D01*
X846464Y335049D02*
X978634D01*
X937164Y334149D02*
X978634D01*
X938185Y333249D02*
X978634D01*
X938735Y332349D02*
X978634D01*
X972095Y331449D02*
X978634D01*
X973060Y330549D02*
X978634D01*
X973496Y329649D02*
X978634D01*
X973630Y328749D02*
X978634D01*
X973502Y327849D02*
X978634D01*
X973073Y326949D02*
X978115D01*
X971595Y287349D02*
X977224D01*
X972124Y326049D02*
X977215D01*
X972080Y273849D02*
X976739D01*
X949319Y230649D02*
X976511D01*
X949319Y237849D02*
X976500D01*
X965790Y325149D02*
X976315D01*
X973200Y286449D02*
X975619D01*
X973380Y274749D02*
X975439D01*
X949319Y231549D02*
X975339D01*
X949319Y236949D02*
X975334D01*
X973937Y285549D02*
X974882D01*
X974060Y275649D02*
X974759D01*
X949319Y232449D02*
X974727D01*
X949319Y236049D02*
X974724D01*
X949319Y233349D02*
X974405D01*
X949319Y235149D02*
X974404D01*
X949319Y234249D02*
X974303D01*
X859161Y513249D02*
X972936D01*
X892889Y533049D02*
X972502D01*
X848102Y545649D02*
X972368D01*
X895459Y525849D02*
X972044D01*
X859161Y514149D02*
X970812D01*
X891201Y533949D02*
X970641D01*
X849062Y544749D02*
X970581D01*
X895156Y524949D02*
X970424D01*
X859161Y515049D02*
X969708D01*
X858804Y534849D02*
X969598D01*
X849962Y543849D02*
X969559D01*
X894701Y524049D02*
X969455D01*
X847744Y287349D02*
X969350D01*
X859161Y515949D02*
X968966D01*
X858062Y535749D02*
X968889D01*
X830658Y273849D02*
X968865D01*
X850862Y542949D02*
X968861D01*
X894053Y523149D02*
X968789D01*
X859161Y516849D02*
X968447D01*
X857162Y536649D02*
X968394D01*
X851762Y542049D02*
X968375D01*
X893125Y522249D02*
X968325D01*
X859161Y517749D02*
X968097D01*
X856262Y537549D02*
X968063D01*
X852662Y541149D02*
X968051D01*
X891647Y521349D02*
X968020D01*
X859161Y518649D02*
X967889D01*
X855362Y538449D02*
X967872D01*
X853562Y540249D02*
X967866D01*
X859161Y520449D02*
X967851D01*
X859161Y519549D02*
X967808D01*
X854462Y539349D02*
X967807D01*
X847744Y286449D02*
X967745D01*
X830658Y274749D02*
X967565D01*
X830658Y280149D02*
X967368D01*
X844410Y281049D02*
X967230D01*
X847744Y285549D02*
X967008D01*
X830658Y275649D02*
X966909D01*
X830658Y279249D02*
X966799D01*
X846510Y281949D02*
X966724D01*
X847744Y284649D02*
X966607D01*
X830658Y276549D02*
X966557D01*
X830658Y278349D02*
X966507D01*
X934802Y294549D02*
X966496D01*
X847249Y282849D02*
X966476D01*
X847622Y283749D02*
X966439D01*
X830658Y277449D02*
X966431D01*
X965757Y324249D02*
X966288D01*
X936090Y295449D02*
X965362D01*
X936990Y296349D02*
X964462D01*
X939014Y331449D02*
X964410D01*
X937890Y297249D02*
X963562D01*
X939080Y330549D02*
X963095D01*
X938790Y298149D02*
X962662D01*
X938941Y329649D02*
X962195D01*
X939690Y299049D02*
X961841D01*
X960390Y319749D02*
X961782D01*
X940590Y299949D02*
X961523D01*
X959490Y318849D02*
X961514D01*
X958590Y317949D02*
X961508D01*
X957690Y317049D02*
X961508D01*
X956790Y316149D02*
X961508D01*
X955890Y315249D02*
X961508D01*
X954990Y314349D02*
X961508D01*
X954090Y313449D02*
X961508D01*
X953190Y312549D02*
X961508D01*
X945990Y305349D02*
X961508D01*
X945090Y304449D02*
X961508D01*
X944190Y303549D02*
X961508D01*
X943290Y302649D02*
X961508D01*
X942390Y301749D02*
X961508D01*
X941490Y300849D02*
X961508D01*
X946890Y306249D02*
X961508D01*
X952290Y311649D02*
X961452D01*
X938576Y328749D02*
X961295D01*
X947790Y307149D02*
X961001D01*
X951390Y310749D02*
X960896D01*
X948690Y308049D02*
X960651D01*
X950490Y309849D02*
X960602D01*
X949590Y308949D02*
X960525D01*
X938001Y327849D02*
X960395D01*
X938466Y326949D02*
X959495D01*
X938886Y326049D02*
X958595D01*
X939068Y325149D02*
X957695D01*
X939045Y324249D02*
X956795D01*
X938812Y323349D02*
X955895D01*
X938327Y322449D02*
X954995D01*
X937439Y321549D02*
X954095D01*
X841599Y320649D02*
X953195D01*
X842499Y319749D02*
X952295D01*
X843399Y318849D02*
X951395D01*
X844299Y317949D02*
X950495D01*
X845199Y317049D02*
X949595D01*
X846099Y316149D02*
X948695D01*
X846963Y315249D02*
X947795D01*
X847482Y314349D02*
X946895D01*
X847715Y313449D02*
X945995D01*
X847744Y312549D02*
X945095D01*
X837929Y250449D02*
X945019D01*
X847744Y311649D02*
X944195D01*
X838829Y249549D02*
X943943D01*
X840106Y245949D02*
X943594D01*
X840106Y245049D02*
X943594D01*
X840106Y244149D02*
X943594D01*
X840106Y243249D02*
X943594D01*
X840106Y242349D02*
X943594D01*
X840106Y241449D02*
X943594D01*
X840106Y240549D02*
X943594D01*
X840106Y239649D02*
X943594D01*
X840106Y238749D02*
X943594D01*
X902622Y237849D02*
X943594D01*
X903522Y236949D02*
X943594D01*
X904043Y236049D02*
X943594D01*
X904043Y235149D02*
X943594D01*
X904043Y234249D02*
X943594D01*
X904043Y233349D02*
X943594D01*
X904043Y232449D02*
X943594D01*
X904043Y231549D02*
X943535D01*
X839642Y248649D02*
X943466D01*
X840106Y246849D02*
X943399D01*
X840029Y247749D02*
X943301D01*
X847744Y310749D02*
X943295D01*
X904043Y230649D02*
X942664D01*
X847744Y309849D02*
X942395D01*
X904043Y229749D02*
X941764D01*
X847744Y308949D02*
X941495D01*
X904043Y228849D02*
X940864D01*
X847744Y308049D02*
X940595D01*
X904043Y227949D02*
X939964D01*
X847744Y307149D02*
X939695D01*
X904043Y227049D02*
X939064D01*
X847744Y306249D02*
X938795D01*
X904043Y226149D02*
X938164D01*
X847744Y305349D02*
X937895D01*
X904043Y225249D02*
X937264D01*
X847744Y304449D02*
X936995D01*
X904043Y224349D02*
X936364D01*
X847744Y303549D02*
X936095D01*
X904043Y223449D02*
X935464D01*
X847744Y302649D02*
X935195D01*
X904043Y222549D02*
X934564D01*
X847744Y301749D02*
X934295D01*
X904043Y221649D02*
X933664D01*
X847744Y300849D02*
X933395D01*
X931258Y334149D02*
X932915D01*
X904043Y220749D02*
X932764D01*
X931534Y321549D02*
X932639D01*
X904043Y219849D02*
X931864D01*
X847744Y299949D02*
X931442D01*
X847744Y294549D02*
X931426D01*
X904043Y218949D02*
X930964D01*
X847744Y299049D02*
X930480D01*
X847744Y295449D02*
X930473D01*
X904043Y218049D02*
X930064D01*
X847744Y298149D02*
X930046D01*
X847744Y296349D02*
X930043D01*
X847744Y297249D02*
X929913D01*
X904043Y217149D02*
X929164D01*
X904043Y216249D02*
X928264D01*
X904043Y215349D02*
X927364D01*
X845519Y334149D02*
X927010D01*
X840699Y321549D02*
X926734D01*
X904043Y214449D02*
X926464D01*
X863992Y327849D02*
X926172D01*
X844574Y333249D02*
X925988D01*
X840264Y322449D02*
X925846D01*
X864176Y326949D02*
X925707D01*
X863485Y328749D02*
X925597D01*
X904043Y213549D02*
X925564D01*
X843629Y332349D02*
X925438D01*
X840264Y323349D02*
X925361D01*
X864097Y326049D02*
X925287D01*
X862324Y329649D02*
X925232D01*
X842684Y331449D02*
X925159D01*
X862923Y324249D02*
X925129D01*
X863732Y325149D02*
X925105D01*
X841739Y330549D02*
X925094D01*
X904043Y212649D02*
X924664D01*
X904043Y211749D02*
X923764D01*
X904043Y210849D02*
X922864D01*
X904043Y209949D02*
X921964D01*
X904043Y209049D02*
X921064D01*
X903738Y208149D02*
X920164D01*
X902838Y207249D02*
X919264D01*
X902449Y206349D02*
X918364D01*
X784887Y563649D02*
X905438D01*
X829313Y554649D02*
X905059D01*
X828711Y562749D02*
X904070D01*
X830089Y555549D02*
X903877D01*
X829723Y561849D02*
X903301D01*
X830578Y556449D02*
X903181D01*
X830348Y560949D02*
X902823D01*
X830864Y557349D02*
X902751D01*
X830735Y560049D02*
X902552D01*
X830980Y558249D02*
X902518D01*
X830938Y559149D02*
X902454D01*
X859120Y533949D02*
X886555D01*
X859161Y521349D02*
X886109D01*
X859161Y533049D02*
X884867D01*
X859161Y522249D02*
X884631D01*
X859161Y532149D02*
X883862D01*
X859161Y523149D02*
X883703D01*
X859161Y531249D02*
X883167D01*
X859161Y524049D02*
X883055D01*
X859161Y530349D02*
X882678D01*
X859161Y524949D02*
X882600D01*
X859161Y529449D02*
X882347D01*
X859161Y525849D02*
X882297D01*
X859161Y528549D02*
X882151D01*
X859161Y526749D02*
X882127D01*
X859161Y527649D02*
X882079D01*
X859161Y504249D02*
X871652D01*
X859161Y472749D02*
X871032D01*
X859161Y503349D02*
X870752D01*
X859161Y473649D02*
X870132D01*
X859161Y502449D02*
X869852D01*
X859161Y501549D02*
X869579D01*
X859161Y500649D02*
X869579D01*
X859161Y499749D02*
X869579D01*
X859161Y498849D02*
X869579D01*
X859161Y497949D02*
X869579D01*
X859161Y497049D02*
X869579D01*
X859161Y496149D02*
X869579D01*
X859161Y495249D02*
X869579D01*
X859161Y494349D02*
X869579D01*
X859161Y493449D02*
X869579D01*
X859161Y492549D02*
X869579D01*
X859161Y491649D02*
X869579D01*
X859161Y490749D02*
X869579D01*
X859161Y489849D02*
X869579D01*
X859161Y488949D02*
X869579D01*
X859161Y488049D02*
X869579D01*
X859161Y487149D02*
X869579D01*
X859161Y486249D02*
X869579D01*
X859161Y485349D02*
X869579D01*
X859161Y484449D02*
X869579D01*
X859161Y483549D02*
X869579D01*
X859161Y482649D02*
X869579D01*
X859161Y481749D02*
X869579D01*
X859161Y480849D02*
X869579D01*
X859161Y479949D02*
X869579D01*
X859161Y479049D02*
X869579D01*
X859161Y478149D02*
X869579D01*
X859161Y477249D02*
X869579D01*
X859161Y476349D02*
X869579D01*
X859161Y475449D02*
X869579D01*
X859161Y474549D02*
X869579D01*
X840106Y237849D02*
X865095D01*
X840106Y236949D02*
X864195D01*
X840106Y236049D02*
X863673D01*
X840106Y235149D02*
X863673D01*
X840106Y234249D02*
X863673D01*
X840211Y233349D02*
X863670D01*
X861634Y232449D02*
X862854D01*
X840794Y329649D02*
X859724D01*
X840264Y324249D02*
X859125D01*
X840264Y328749D02*
X858562D01*
X840264Y325149D02*
X858315D01*
X840264Y327849D02*
X858056D01*
X840264Y326049D02*
X857950D01*
X840264Y326949D02*
X857871D01*
X847350Y389049D02*
X855570D01*
X847350Y388149D02*
X854468D01*
X537902Y458349D02*
X854116D01*
X847350Y387249D02*
X853922D01*
X847350Y386349D02*
X853671D01*
X847350Y385449D02*
X853634D01*
X847350Y384549D02*
X853634D01*
X847350Y383649D02*
X853634D01*
X847350Y382749D02*
X853634D01*
X847350Y381849D02*
X853634D01*
X847350Y380949D02*
X853634D01*
X847350Y380049D02*
X853634D01*
X847350Y379149D02*
X853634D01*
X847350Y378249D02*
X853634D01*
X847350Y377349D02*
X853634D01*
X847350Y376449D02*
X853634D01*
X847350Y375549D02*
X853634D01*
X847350Y374649D02*
X853634D01*
X847350Y373749D02*
X853634D01*
X847350Y372849D02*
X853634D01*
X847350Y371949D02*
X853634D01*
X847350Y371049D02*
X853634D01*
X847350Y370149D02*
X853634D01*
X847350Y369249D02*
X853634D01*
X847350Y368349D02*
X853634D01*
X847350Y367449D02*
X853634D01*
X847350Y366549D02*
X853634D01*
X847350Y365649D02*
X853634D01*
X847350Y364749D02*
X853634D01*
X847350Y363849D02*
X853634D01*
X847350Y362949D02*
X853634D01*
X847350Y362049D02*
X853634D01*
X847350Y361149D02*
X853634D01*
X847194Y360249D02*
X853634D01*
X846687Y359349D02*
X853634D01*
X845804Y358449D02*
X853634D01*
X844904Y357549D02*
X853634D01*
X844004Y356649D02*
X853634D01*
X843104Y355749D02*
X853634D01*
X842204Y354849D02*
X853634D01*
X841304Y353949D02*
X853634D01*
X840404Y353049D02*
X853634D01*
X839504Y352149D02*
X853633D01*
X537902Y459249D02*
X853460D01*
X819589Y531249D02*
X853437D01*
X820078Y530349D02*
X853437D01*
X820409Y529449D02*
X853437D01*
X820605Y528549D02*
X853437D01*
X820677Y527649D02*
X853437D01*
X820629Y526749D02*
X853437D01*
X820459Y525849D02*
X853437D01*
X820156Y524949D02*
X853437D01*
X819701Y524049D02*
X853437D01*
X819053Y523149D02*
X853437D01*
X818125Y522249D02*
X853437D01*
X816647Y521349D02*
X853437D01*
X585306Y520449D02*
X853437D01*
X585334Y519549D02*
X853437D01*
X585199Y518649D02*
X853437D01*
X585320Y517749D02*
X853437D01*
X586220Y516849D02*
X853437D01*
X587072Y515949D02*
X853437D01*
X587114Y515049D02*
X853437D01*
X587114Y514149D02*
X853437D01*
X587114Y513249D02*
X853437D01*
X587114Y512349D02*
X853437D01*
X587114Y511449D02*
X853437D01*
X587114Y510549D02*
X853437D01*
X587114Y509649D02*
X853437D01*
X587114Y508749D02*
X853437D01*
X587114Y507849D02*
X853437D01*
X587114Y506949D02*
X853437D01*
X690759Y506049D02*
X853437D01*
X692270Y505149D02*
X853437D01*
X840946Y504249D02*
X853437D01*
X841846Y503349D02*
X853437D01*
X842746Y502449D02*
X853437D01*
X843020Y501549D02*
X853437D01*
X843020Y500649D02*
X853437D01*
X843020Y499749D02*
X853437D01*
X843020Y498849D02*
X853437D01*
X843020Y497949D02*
X853437D01*
X843020Y497049D02*
X853437D01*
X843020Y496149D02*
X853437D01*
X843020Y495249D02*
X853437D01*
X843020Y494349D02*
X853437D01*
X843020Y493449D02*
X853437D01*
X843020Y492549D02*
X853437D01*
X843020Y491649D02*
X853437D01*
X843020Y490749D02*
X853437D01*
X843020Y489849D02*
X853437D01*
X843020Y488949D02*
X853437D01*
X843020Y488049D02*
X853437D01*
X843020Y487149D02*
X853437D01*
X843020Y486249D02*
X853437D01*
X843020Y485349D02*
X853437D01*
X843020Y484449D02*
X853437D01*
X843020Y483549D02*
X853437D01*
X843020Y482649D02*
X853437D01*
X843020Y481749D02*
X853437D01*
X843020Y480849D02*
X853437D01*
X843020Y479949D02*
X853437D01*
X843020Y479049D02*
X853437D01*
X843020Y478149D02*
X853437D01*
X843020Y477249D02*
X853437D01*
X843020Y476349D02*
X853437D01*
X843020Y475449D02*
X853437D01*
X843020Y474549D02*
X853437D01*
X842466Y473649D02*
X853437D01*
X841566Y472749D02*
X853437D01*
X688181Y471849D02*
X853437D01*
X583959Y470949D02*
X853437D01*
X583591Y470049D02*
X853437D01*
X583117Y469149D02*
X853437D01*
X582520Y468249D02*
X853437D01*
X581770Y467349D02*
X853437D01*
X580816Y466449D02*
X853437D01*
X579548Y465549D02*
X853437D01*
X577634Y464649D02*
X853437D01*
X539259Y463749D02*
X853437D01*
X538359Y462849D02*
X853437D01*
X818894Y532149D02*
X853431D01*
X537902Y461949D02*
X853422D01*
X537902Y460149D02*
X853179D01*
X537902Y461049D02*
X853170D01*
X838604Y351249D02*
X852890D01*
X851634Y232449D02*
X852854D01*
X817889Y533049D02*
X852667D01*
X837704Y350349D02*
X851945D01*
X816201Y533949D02*
X851767D01*
X836804Y349449D02*
X851000D01*
X407711Y534849D02*
X850867D01*
X835904Y348549D02*
X850055D01*
X578239Y535749D02*
X849967D01*
X835004Y347649D02*
X849110D01*
X579918Y536649D02*
X849067D01*
X581088Y537549D02*
X848167D01*
X834104Y346749D02*
X848165D01*
X581982Y538449D02*
X847267D01*
X833204Y345849D02*
X847220D01*
X582689Y539349D02*
X846367D01*
X832304Y344949D02*
X846275D01*
X583252Y540249D02*
X845467D01*
X831404Y344049D02*
X845330D01*
X830660Y343149D02*
X844385D01*
X830658Y281049D02*
X843779D01*
X830658Y342249D02*
X843440D01*
X841634Y232449D02*
X842854D01*
X781869Y411549D02*
X842552D01*
X830658Y341349D02*
X842495D01*
X782769Y410649D02*
X841763D01*
X830658Y281949D02*
X841679D01*
X786369Y407049D02*
X841626D01*
X787269Y406149D02*
X841626D01*
X788169Y405249D02*
X841626D01*
X789069Y404349D02*
X841626D01*
X789969Y403449D02*
X841626D01*
X790869Y402549D02*
X841626D01*
X791769Y401649D02*
X841626D01*
X792669Y400749D02*
X841626D01*
X793569Y399849D02*
X841626D01*
X794469Y398949D02*
X841626D01*
X795369Y398049D02*
X841626D01*
X796269Y397149D02*
X841626D01*
X797169Y396249D02*
X841626D01*
X797848Y395349D02*
X841626D01*
X798116Y394449D02*
X841626D01*
X798138Y393549D02*
X841626D01*
X798138Y392649D02*
X841626D01*
X798138Y391749D02*
X841626D01*
X798138Y390849D02*
X841626D01*
X798138Y389949D02*
X841626D01*
X798138Y389049D02*
X841626D01*
X798138Y388149D02*
X841626D01*
X798138Y387249D02*
X841626D01*
X798138Y386349D02*
X841626D01*
X798138Y385449D02*
X841626D01*
X798138Y384549D02*
X841626D01*
X798138Y383649D02*
X841626D01*
X798138Y382749D02*
X841626D01*
X798138Y381849D02*
X841626D01*
X798138Y380949D02*
X841626D01*
X798138Y380049D02*
X841626D01*
X798138Y379149D02*
X841626D01*
X838814Y378249D02*
X841626D01*
X839461Y377349D02*
X841626D01*
X839737Y376449D02*
X841626D01*
X839742Y375549D02*
X841626D01*
X839487Y374649D02*
X841626D01*
X839476Y373749D02*
X841626D01*
X839476Y372849D02*
X841626D01*
X839476Y371949D02*
X841626D01*
X839476Y371049D02*
X841626D01*
X839476Y370149D02*
X841626D01*
X839476Y369249D02*
X841626D01*
X839438Y368349D02*
X841626D01*
X839127Y367449D02*
X841626D01*
X838392Y366549D02*
X841626D01*
X837492Y365649D02*
X841626D01*
X836592Y364749D02*
X841626D01*
X835692Y363849D02*
X841626D01*
X834792Y362949D02*
X841626D01*
X830658Y340449D02*
X841550D01*
X785469Y407949D02*
X841531D01*
X783669Y409749D02*
X841408D01*
X784569Y408849D02*
X841337D01*
X833892Y362049D02*
X841308D01*
X830658Y282849D02*
X840940D01*
X830658Y339549D02*
X840605D01*
X830658Y283749D02*
X840567D01*
X830658Y284649D02*
X840445D01*
X830658Y310749D02*
X840445D01*
X830658Y309849D02*
X840445D01*
X830658Y308949D02*
X840445D01*
X830658Y308049D02*
X840445D01*
X830658Y307149D02*
X840445D01*
X830658Y306249D02*
X840445D01*
X830658Y305349D02*
X840445D01*
X830658Y304449D02*
X840445D01*
X830658Y303549D02*
X840445D01*
X830658Y302649D02*
X840445D01*
X830658Y301749D02*
X840445D01*
X830658Y300849D02*
X840445D01*
X830658Y299949D02*
X840445D01*
X830658Y299049D02*
X840445D01*
X830658Y298149D02*
X840445D01*
X830658Y297249D02*
X840445D01*
X830658Y296349D02*
X840445D01*
X830658Y295449D02*
X840445D01*
X830658Y294549D02*
X840445D01*
X830658Y293649D02*
X840445D01*
X830658Y292749D02*
X840445D01*
X830658Y291849D02*
X840445D01*
X830658Y290949D02*
X840445D01*
X830658Y290049D02*
X840445D01*
X830658Y289149D02*
X840445D01*
X830658Y288249D02*
X840445D01*
X830658Y287349D02*
X840445D01*
X830658Y286449D02*
X840445D01*
X830658Y285549D02*
X840445D01*
X832992Y361149D02*
X840408D01*
X830658Y311649D02*
X840276D01*
X830658Y338649D02*
X839660D01*
X832092Y360249D02*
X839508D01*
X830658Y312549D02*
X839376D01*
X830658Y337749D02*
X838715D01*
X831192Y359349D02*
X838608D01*
X830658Y313449D02*
X838476D01*
X830658Y336849D02*
X837770D01*
X830292Y358449D02*
X837708D01*
X830658Y314349D02*
X837576D01*
X830658Y335949D02*
X836825D01*
X829392Y357549D02*
X836808D01*
X830658Y315249D02*
X836676D01*
X828492Y356649D02*
X835908D01*
X830658Y335049D02*
X835880D01*
X830658Y316149D02*
X835776D01*
X827592Y355749D02*
X835008D01*
X830658Y334149D02*
X834935D01*
X830658Y317049D02*
X834876D01*
X829942Y245049D02*
X834382D01*
X830106Y244149D02*
X834382D01*
X830106Y243249D02*
X834382D01*
X830106Y242349D02*
X834382D01*
X830106Y241449D02*
X834382D01*
X830106Y240549D02*
X834382D01*
X830106Y239649D02*
X834382D01*
X830106Y238749D02*
X834382D01*
X830106Y237849D02*
X834382D01*
X830106Y236949D02*
X834382D01*
X830106Y236049D02*
X834382D01*
X830106Y235149D02*
X834382D01*
X830106Y234249D02*
X834382D01*
X829424Y245949D02*
X834312D01*
X830211Y233349D02*
X834278D01*
X826692Y354849D02*
X834108D01*
X830658Y333249D02*
X833994D01*
X830658Y317949D02*
X833977D01*
X810052Y371949D02*
X833752D01*
X809152Y371049D02*
X833752D01*
X808626Y370149D02*
X833748D01*
X810952Y372849D02*
X833697D01*
X828537Y246849D02*
X833434D01*
X830658Y332349D02*
X833354D01*
X830658Y318849D02*
X833345D01*
X825792Y353949D02*
X833208D01*
X830658Y331449D02*
X833040D01*
X830658Y319749D02*
X833037D01*
X807565Y369249D02*
X832997D01*
X830658Y330549D02*
X832965D01*
X830658Y329649D02*
X832965D01*
X830658Y328749D02*
X832965D01*
X830658Y327849D02*
X832965D01*
X830658Y326949D02*
X832965D01*
X830658Y326049D02*
X832965D01*
X830658Y325149D02*
X832965D01*
X830658Y324249D02*
X832965D01*
X830658Y323349D02*
X832965D01*
X830658Y322449D02*
X832965D01*
X830658Y321549D02*
X832965D01*
X830658Y320649D02*
X832965D01*
X583575Y200949D02*
X832914D01*
X831634Y232449D02*
X832854D01*
X827637Y247749D02*
X832534D01*
X824892Y353049D02*
X832308D01*
X798138Y368349D02*
X832097D01*
X693808Y201849D02*
X831977D01*
X826737Y248649D02*
X831634D01*
X823992Y352149D02*
X831408D01*
X798138Y367449D02*
X831197D01*
X695974Y202749D02*
X831077D01*
X825837Y249549D02*
X830734D01*
X823092Y351249D02*
X830508D01*
X798138Y366549D02*
X830297D01*
X697519Y203649D02*
X830177D01*
X824937Y250449D02*
X829834D01*
X822192Y350349D02*
X829608D01*
X798138Y365649D02*
X829397D01*
X698742Y204549D02*
X829277D01*
X824037Y251349D02*
X828934D01*
X821760Y349449D02*
X828708D01*
X798138Y364749D02*
X828497D01*
X699752Y205449D02*
X828377D01*
X823137Y252249D02*
X828034D01*
X821760Y348549D02*
X827808D01*
X798138Y363849D02*
X827597D01*
X700607Y206349D02*
X827477D01*
X822237Y253149D02*
X827134D01*
X821760Y347649D02*
X826908D01*
X798138Y362949D02*
X826697D01*
X701337Y207249D02*
X826577D01*
X821760Y254049D02*
X826234D01*
X821760Y346749D02*
X826008D01*
X798138Y362049D02*
X825797D01*
X701965Y208149D02*
X825677D01*
X821760Y254949D02*
X825413D01*
X821760Y345849D02*
X825277D01*
X821760Y255849D02*
X825017D01*
X821760Y344949D02*
X824970D01*
X821760Y344049D02*
X824933D01*
X821760Y343149D02*
X824933D01*
X821760Y342249D02*
X824933D01*
X821760Y341349D02*
X824933D01*
X821760Y340449D02*
X824933D01*
X821760Y339549D02*
X824933D01*
X821760Y338649D02*
X824933D01*
X821760Y337749D02*
X824933D01*
X821760Y336849D02*
X824933D01*
X821760Y335949D02*
X824933D01*
X821760Y335049D02*
X824933D01*
X821760Y334149D02*
X824933D01*
X821760Y333249D02*
X824933D01*
X821760Y332349D02*
X824933D01*
X821760Y331449D02*
X824933D01*
X821760Y330549D02*
X824933D01*
X821760Y329649D02*
X824933D01*
X821760Y328749D02*
X824933D01*
X821760Y327849D02*
X824933D01*
X821760Y326949D02*
X824933D01*
X821760Y326049D02*
X824933D01*
X821760Y325149D02*
X824933D01*
X821760Y324249D02*
X824933D01*
X821760Y323349D02*
X824933D01*
X821760Y322449D02*
X824933D01*
X821760Y321549D02*
X824933D01*
X821760Y320649D02*
X824933D01*
X821760Y319749D02*
X824933D01*
X821760Y318849D02*
X824933D01*
X821760Y317949D02*
X824933D01*
X821760Y317049D02*
X824933D01*
X821760Y316149D02*
X824933D01*
X821760Y315249D02*
X824933D01*
X821760Y314349D02*
X824933D01*
X821760Y313449D02*
X824933D01*
X821760Y312549D02*
X824933D01*
X821760Y311649D02*
X824933D01*
X821760Y310749D02*
X824933D01*
X821760Y309849D02*
X824933D01*
X821760Y308949D02*
X824933D01*
X821760Y308049D02*
X824933D01*
X821760Y307149D02*
X824933D01*
X821760Y306249D02*
X824933D01*
X821760Y305349D02*
X824933D01*
X821760Y304449D02*
X824933D01*
X821760Y303549D02*
X824933D01*
X821760Y302649D02*
X824933D01*
X821760Y301749D02*
X824933D01*
X821760Y300849D02*
X824933D01*
X821760Y299949D02*
X824933D01*
X821760Y299049D02*
X824933D01*
X821760Y298149D02*
X824933D01*
X821760Y297249D02*
X824933D01*
X821760Y296349D02*
X824933D01*
X821760Y295449D02*
X824933D01*
X821760Y294549D02*
X824933D01*
X821760Y293649D02*
X824933D01*
X821760Y292749D02*
X824933D01*
X821760Y291849D02*
X824933D01*
X821760Y290949D02*
X824933D01*
X821760Y290049D02*
X824933D01*
X821760Y289149D02*
X824933D01*
X821760Y288249D02*
X824933D01*
X821760Y287349D02*
X824933D01*
X821760Y286449D02*
X824933D01*
X821760Y285549D02*
X824933D01*
X821760Y284649D02*
X824933D01*
X821760Y283749D02*
X824933D01*
X821760Y282849D02*
X824933D01*
X821760Y281949D02*
X824933D01*
X821760Y281049D02*
X824933D01*
X821760Y280149D02*
X824933D01*
X821760Y279249D02*
X824933D01*
X821760Y278349D02*
X824933D01*
X821760Y277449D02*
X824933D01*
X821760Y276549D02*
X824933D01*
X821760Y275649D02*
X824933D01*
X821760Y274749D02*
X824933D01*
X821760Y273849D02*
X824933D01*
X821760Y272949D02*
X824933D01*
X821760Y272049D02*
X824933D01*
X821760Y271149D02*
X824933D01*
X821760Y270249D02*
X824933D01*
X821760Y269349D02*
X824933D01*
X821760Y268449D02*
X824933D01*
X821760Y267549D02*
X824933D01*
X821760Y266649D02*
X824933D01*
X821760Y265749D02*
X824933D01*
X821760Y264849D02*
X824933D01*
X821760Y263949D02*
X824933D01*
X821760Y263049D02*
X824933D01*
X821760Y262149D02*
X824933D01*
X821760Y261249D02*
X824933D01*
X821760Y260349D02*
X824933D01*
X821760Y259449D02*
X824933D01*
X821760Y258549D02*
X824933D01*
X821760Y257649D02*
X824933D01*
X821760Y256749D02*
X824933D01*
X798138Y361149D02*
X824897D01*
X702504Y209049D02*
X824858D01*
X702964Y209949D02*
X824464D01*
X737902Y242349D02*
X824382D01*
X737838Y241449D02*
X824382D01*
X737543Y240549D02*
X824382D01*
X736932Y239649D02*
X824382D01*
X735636Y238749D02*
X824382D01*
X395382Y237849D02*
X824382D01*
X395382Y236949D02*
X824382D01*
X395382Y236049D02*
X824382D01*
X395382Y235149D02*
X824382D01*
X395382Y234249D02*
X824382D01*
X703941Y212649D02*
X824382D01*
X703677Y211749D02*
X824382D01*
X703353Y210849D02*
X824382D01*
X704146Y213549D02*
X824342D01*
X395382Y233349D02*
X824278D01*
X737902Y243249D02*
X824042D01*
X798138Y360249D02*
X823997D01*
X737902Y244149D02*
X823142D01*
X798138Y359349D02*
X823097D01*
X782187Y566349D02*
X822957D01*
X821553Y214449D02*
X822935D01*
X821634Y232449D02*
X822854D01*
X737902Y245049D02*
X822242D01*
X798138Y358449D02*
X822197D01*
X774366Y576249D02*
X821825D01*
X794787Y553749D02*
X821648D01*
X737902Y245949D02*
X821342D01*
X798138Y357549D02*
X821297D01*
X785787Y562749D02*
X820896D01*
X781247Y567249D02*
X820785D01*
X737902Y246849D02*
X820442D01*
X798138Y356649D02*
X820397D01*
X774529Y575349D02*
X820379D01*
X793887Y554649D02*
X820294D01*
X786687Y561849D02*
X819884D01*
X742985Y568149D02*
X819818D01*
X774544Y574449D02*
X819571D01*
X737902Y247749D02*
X819542D01*
X792987Y555549D02*
X819517D01*
X798138Y355749D02*
X819497D01*
X787587Y560949D02*
X819259D01*
X742085Y569049D02*
X819217D01*
X774413Y573549D02*
X819062D01*
X792087Y556449D02*
X819028D01*
X788487Y560049D02*
X818872D01*
X771766Y569949D02*
X818847D01*
X774126Y572649D02*
X818760D01*
X791187Y557349D02*
X818743D01*
X789387Y559149D02*
X818668D01*
X772928Y570849D02*
X818658D01*
X737902Y248649D02*
X818642D01*
X773653Y571749D02*
X818630D01*
X790287Y558249D02*
X818626D01*
X798138Y354849D02*
X818597D01*
X737902Y249549D02*
X817742D01*
X798138Y353949D02*
X817697D01*
X737902Y250449D02*
X816842D01*
X798138Y353049D02*
X816799D01*
X737902Y251349D02*
X816252D01*
X798138Y352149D02*
X816234D01*
X737902Y252249D02*
X816042D01*
X798138Y351249D02*
X816039D01*
X798138Y350349D02*
X816035D01*
X798138Y349449D02*
X816035D01*
X798138Y348549D02*
X816035D01*
X798138Y347649D02*
X816035D01*
X798138Y346749D02*
X816035D01*
X798138Y345849D02*
X816035D01*
X798138Y344949D02*
X816035D01*
X798138Y344049D02*
X816035D01*
X798138Y343149D02*
X816035D01*
X798138Y342249D02*
X816035D01*
X798138Y341349D02*
X816035D01*
X798138Y340449D02*
X816035D01*
X798138Y339549D02*
X816035D01*
X798138Y338649D02*
X816035D01*
X798138Y337749D02*
X816035D01*
X798138Y336849D02*
X816035D01*
X798138Y335949D02*
X816035D01*
X798138Y335049D02*
X816035D01*
X798138Y334149D02*
X816035D01*
X798138Y333249D02*
X816035D01*
X798138Y332349D02*
X816035D01*
X798138Y331449D02*
X816035D01*
X798138Y330549D02*
X816035D01*
X798138Y329649D02*
X816035D01*
X798138Y328749D02*
X816035D01*
X798138Y327849D02*
X816035D01*
X798138Y326949D02*
X816035D01*
X798138Y326049D02*
X816035D01*
X798142Y325149D02*
X816035D01*
X798893Y324249D02*
X816035D01*
X799793Y323349D02*
X816035D01*
X800693Y322449D02*
X816035D01*
X801593Y321549D02*
X816035D01*
X802493Y320649D02*
X816035D01*
X807523Y319749D02*
X816035D01*
X808609Y318849D02*
X816035D01*
X809091Y317949D02*
X816035D01*
X809258Y317049D02*
X816035D01*
X809162Y316149D02*
X816035D01*
X808776Y315249D02*
X816035D01*
X807923Y314349D02*
X816035D01*
X792232Y313449D02*
X816035D01*
X792232Y312549D02*
X816035D01*
X792232Y311649D02*
X816035D01*
X792232Y310749D02*
X816035D01*
X792232Y309849D02*
X816035D01*
X792232Y308949D02*
X816035D01*
X792232Y308049D02*
X816035D01*
X792232Y307149D02*
X816035D01*
X792232Y306249D02*
X816035D01*
X792232Y305349D02*
X816035D01*
X792512Y304449D02*
X816035D01*
X793412Y303549D02*
X816035D01*
X794312Y302649D02*
X816035D01*
X795212Y301749D02*
X816035D01*
X796112Y300849D02*
X816035D01*
X807731Y299949D02*
X816035D01*
X808693Y299049D02*
X816035D01*
X809127Y298149D02*
X816035D01*
X809260Y297249D02*
X816035D01*
X809130Y296349D02*
X816035D01*
X808700Y295449D02*
X816035D01*
X807748Y294549D02*
X816035D01*
X737902Y293649D02*
X816035D01*
X737902Y292749D02*
X816035D01*
X737902Y291849D02*
X816035D01*
X737902Y290949D02*
X816035D01*
X737902Y290049D02*
X816035D01*
X737902Y289149D02*
X816035D01*
X737902Y288249D02*
X816035D01*
X737902Y287349D02*
X816035D01*
X737902Y286449D02*
X816035D01*
X737902Y285549D02*
X816035D01*
X737902Y284649D02*
X816035D01*
X737902Y283749D02*
X816035D01*
X737902Y282849D02*
X816035D01*
X737902Y281949D02*
X816035D01*
X737902Y281049D02*
X816035D01*
X737902Y280149D02*
X816035D01*
X737902Y279249D02*
X816035D01*
X737902Y278349D02*
X816035D01*
X737902Y277449D02*
X816035D01*
X737902Y276549D02*
X816035D01*
X737902Y275649D02*
X816035D01*
X737902Y274749D02*
X816035D01*
X737902Y273849D02*
X816035D01*
X737902Y272949D02*
X816035D01*
X737902Y272049D02*
X816035D01*
X767885Y271149D02*
X816035D01*
X768900Y270249D02*
X816035D01*
X769447Y269349D02*
X816035D01*
X769724Y268449D02*
X816035D01*
X769788Y267549D02*
X816035D01*
X769648Y266649D02*
X816035D01*
X769280Y265749D02*
X816035D01*
X768708Y264849D02*
X816035D01*
X769180Y263949D02*
X816035D01*
X769597Y263049D02*
X816035D01*
X769777Y262149D02*
X816035D01*
X769752Y261249D02*
X816035D01*
X769518Y260349D02*
X816035D01*
X769030Y259449D02*
X816035D01*
X768137Y258549D02*
X816035D01*
X737902Y257649D02*
X816035D01*
X737902Y256749D02*
X816035D01*
X737902Y255849D02*
X816035D01*
X737902Y254949D02*
X816035D01*
X737902Y254049D02*
X816035D01*
X737902Y253149D02*
X816035D01*
X811553Y214449D02*
X812935D01*
X811634Y232449D02*
X812854D01*
X395382Y533949D02*
X811555D01*
X585112Y521349D02*
X811109D01*
X661933Y533049D02*
X809867D01*
X662298Y522249D02*
X809631D01*
X663353Y532149D02*
X808862D01*
X663555Y523149D02*
X808703D01*
X798138Y378249D02*
X808289D01*
X664213Y531249D02*
X808167D01*
X664347Y524049D02*
X808055D01*
X664790Y530349D02*
X807678D01*
X664880Y524949D02*
X807600D01*
X798138Y377349D02*
X807356D01*
X665171Y529449D02*
X807347D01*
X665227Y525849D02*
X807297D01*
X665393Y528549D02*
X807151D01*
X665420Y526749D02*
X807127D01*
X665474Y527649D02*
X807079D01*
X693308Y504249D02*
X806692D01*
X798138Y376449D02*
X806456D01*
X690509Y472749D02*
X806071D01*
X749469Y443949D02*
X805841D01*
X694084Y503349D02*
X805792D01*
X798138Y375549D02*
X805556D01*
X691647Y473649D02*
X805171D01*
X733926Y449349D02*
X805156D01*
X694678Y502449D02*
X804892D01*
X748569Y444849D02*
X804644D01*
X798138Y369249D02*
X804639D01*
X695131Y501549D02*
X804618D01*
X695464Y500649D02*
X804618D01*
X695691Y499749D02*
X804618D01*
X695822Y498849D02*
X804618D01*
X695859Y497949D02*
X804618D01*
X695805Y497049D02*
X804618D01*
X769620Y496149D02*
X804618D01*
X771087Y495249D02*
X804618D01*
X772105Y494349D02*
X804618D01*
X772867Y493449D02*
X804618D01*
X773451Y492549D02*
X804618D01*
X773895Y491649D02*
X804618D01*
X774221Y490749D02*
X804618D01*
X774443Y489849D02*
X804618D01*
X774567Y488949D02*
X804618D01*
X774599Y488049D02*
X804618D01*
X774538Y487149D02*
X804618D01*
X774385Y486249D02*
X804618D01*
X774132Y485349D02*
X804618D01*
X773771Y484449D02*
X804618D01*
X773286Y483549D02*
X804618D01*
X772652Y482649D02*
X804618D01*
X771821Y481749D02*
X804618D01*
X770696Y480849D02*
X804618D01*
X768982Y479949D02*
X804618D01*
X693573Y479049D02*
X804618D01*
X693607Y478149D02*
X804618D01*
X693518Y477249D02*
X804618D01*
X693301Y476349D02*
X804618D01*
X692941Y475449D02*
X804618D01*
X692409Y474549D02*
X804618D01*
X733965Y448449D02*
X804364D01*
X798138Y374649D02*
X804313D01*
X746845Y445749D02*
X804127D01*
X733965Y447549D02*
X804007D01*
X733965Y446649D02*
X803936D01*
X798138Y370149D02*
X803579D01*
X798138Y373749D02*
X803443D01*
X798138Y371049D02*
X803107D01*
X798138Y372849D02*
X803048D01*
X798138Y371949D02*
X802946D01*
X801553Y214449D02*
X802935D01*
X801634Y232449D02*
X802854D01*
X792232Y314349D02*
X800926D01*
X792232Y315249D02*
X799798D01*
X583696Y541149D02*
X799301D01*
X792232Y316149D02*
X798898D01*
X584039Y542049D02*
X798391D01*
X792232Y317049D02*
X797998D01*
X662347Y542949D02*
X797491D01*
X792232Y317949D02*
X797098D01*
X663363Y543849D02*
X796591D01*
X792232Y318849D02*
X796198D01*
X663990Y544749D02*
X795691D01*
X792232Y319749D02*
X795298D01*
X664378Y545649D02*
X794791D01*
X737902Y294549D02*
X794705D01*
X792232Y320649D02*
X794398D01*
X664583Y546549D02*
X793891D01*
X767742Y223449D02*
X793871D01*
X792232Y321549D02*
X793498D01*
X737902Y295449D02*
X793417D01*
X768627Y224349D02*
X793022D01*
X664626Y547449D02*
X792991D01*
X704296Y214449D02*
X792935D01*
X766856Y222549D02*
X792927D01*
X582757Y232449D02*
X792854D01*
X769513Y225249D02*
X792582D01*
X758987Y215349D02*
X792570D01*
X765970Y221649D02*
X792569D01*
X765084Y220749D02*
X792563D01*
X764198Y219849D02*
X792563D01*
X763312Y218949D02*
X792563D01*
X762427Y218049D02*
X792563D01*
X761710Y217149D02*
X792563D01*
X761069Y216249D02*
X792563D01*
X737902Y296349D02*
X792517D01*
X692667Y231549D02*
X792480D01*
X561798Y392649D02*
X792413D01*
X562698Y391749D02*
X792413D01*
X563000Y390849D02*
X792413D01*
X563000Y389949D02*
X792413D01*
X563000Y389049D02*
X792413D01*
X563000Y388149D02*
X792413D01*
X563000Y387249D02*
X792413D01*
X563000Y386349D02*
X792413D01*
X563000Y385449D02*
X792413D01*
X563000Y384549D02*
X792413D01*
X563000Y383649D02*
X792413D01*
X563000Y382749D02*
X792413D01*
X563000Y381849D02*
X792413D01*
X775207Y380949D02*
X792413D01*
X776361Y380049D02*
X792413D01*
X777261Y379149D02*
X792413D01*
X778161Y378249D02*
X792413D01*
X779061Y377349D02*
X792413D01*
X779961Y376449D02*
X792413D01*
X780861Y375549D02*
X792413D01*
X781761Y374649D02*
X792413D01*
X782661Y373749D02*
X792413D01*
X783561Y372849D02*
X792413D01*
X784461Y371949D02*
X792413D01*
X785361Y371049D02*
X792413D01*
X786261Y370149D02*
X792413D01*
X787161Y369249D02*
X792413D01*
X788061Y368349D02*
X792413D01*
X788961Y367449D02*
X792413D01*
X789861Y366549D02*
X792413D01*
X790761Y365649D02*
X792413D01*
X791680Y364749D02*
X792147D01*
X664511Y548349D02*
X792091D01*
X560898Y393549D02*
X791773D01*
X737902Y297249D02*
X791617D01*
X664226Y549249D02*
X791191D01*
X559998Y394449D02*
X790873D01*
X737902Y298149D02*
X790717D01*
X663739Y550149D02*
X790291D01*
X554960Y395349D02*
X789973D01*
X737902Y299049D02*
X789817D01*
X662965Y551049D02*
X789391D01*
X554831Y396249D02*
X789073D01*
X737902Y299949D02*
X788917D01*
X661618Y551949D02*
X788491D01*
X554831Y397149D02*
X788173D01*
X737902Y300849D02*
X788017D01*
X581256Y552849D02*
X787591D01*
X554603Y398049D02*
X787273D01*
X737902Y301749D02*
X787140D01*
X580143Y553749D02*
X786691D01*
X737902Y302649D02*
X786651D01*
X757840Y361149D02*
X786508D01*
X757476Y360249D02*
X786508D01*
X756799Y359349D02*
X786508D01*
X755435Y358449D02*
X786508D01*
X745776Y357549D02*
X786508D01*
X745776Y356649D02*
X786508D01*
X745776Y355749D02*
X786508D01*
X745776Y354849D02*
X786508D01*
X745756Y353949D02*
X786508D01*
X745543Y353049D02*
X786508D01*
X745052Y352149D02*
X786508D01*
X744206Y351249D02*
X786508D01*
X743306Y350349D02*
X786508D01*
X742406Y349449D02*
X786508D01*
X741506Y348549D02*
X786508D01*
X740606Y347649D02*
X786508D01*
X739706Y346749D02*
X786508D01*
X738806Y345849D02*
X786508D01*
X737948Y344949D02*
X786508D01*
X737902Y344049D02*
X786508D01*
X737902Y343149D02*
X786508D01*
X737902Y342249D02*
X786508D01*
X737902Y341349D02*
X786508D01*
X737902Y340449D02*
X786508D01*
X737902Y339549D02*
X786508D01*
X737902Y338649D02*
X786508D01*
X737902Y337749D02*
X786508D01*
X737902Y336849D02*
X786508D01*
X737902Y335949D02*
X786508D01*
X737902Y335049D02*
X786508D01*
X737902Y334149D02*
X786508D01*
X737902Y333249D02*
X786508D01*
X737902Y332349D02*
X786508D01*
X737902Y331449D02*
X786508D01*
X737902Y330549D02*
X786508D01*
X737902Y329649D02*
X786508D01*
X737902Y328749D02*
X786508D01*
X737902Y327849D02*
X786508D01*
X737902Y326949D02*
X786508D01*
X737902Y326049D02*
X786508D01*
X737902Y325149D02*
X786508D01*
X737902Y324249D02*
X786508D01*
X737902Y323349D02*
X786508D01*
X737902Y322449D02*
X786508D01*
X737902Y321549D02*
X786508D01*
X737902Y320649D02*
X786508D01*
X737902Y319749D02*
X786508D01*
X737902Y318849D02*
X786508D01*
X737902Y317949D02*
X786508D01*
X737902Y317049D02*
X786508D01*
X737902Y316149D02*
X786508D01*
X737902Y315249D02*
X786508D01*
X737902Y314349D02*
X786508D01*
X737902Y313449D02*
X786508D01*
X737902Y312549D02*
X786508D01*
X737902Y311649D02*
X786508D01*
X737902Y310749D02*
X786508D01*
X737902Y309849D02*
X786508D01*
X737902Y308949D02*
X786508D01*
X737902Y308049D02*
X786508D01*
X737902Y307149D02*
X786508D01*
X737902Y306249D02*
X786508D01*
X737902Y305349D02*
X786508D01*
X737902Y304449D02*
X786508D01*
X737902Y303549D02*
X786508D01*
X537902Y398949D02*
X786373D01*
X757977Y362049D02*
X786265D01*
X578584Y554649D02*
X785791D01*
X537902Y399849D02*
X785473D01*
X757911Y362949D02*
X785365D01*
X691079Y555549D02*
X784891D01*
X537902Y400749D02*
X784573D01*
X757631Y363849D02*
X784465D01*
X694560Y556449D02*
X783991D01*
X537902Y401649D02*
X783673D01*
X757079Y364749D02*
X783565D01*
X696481Y557349D02*
X783091D01*
X537902Y402549D02*
X782773D01*
X756055Y365649D02*
X782665D01*
X697912Y558249D02*
X782191D01*
X537902Y403449D02*
X781873D01*
X681209Y366549D02*
X781765D01*
X699063Y559149D02*
X781291D01*
X537902Y404349D02*
X780973D01*
X681209Y367449D02*
X780865D01*
X700023Y560049D02*
X780391D01*
X537902Y405249D02*
X780073D01*
X681209Y368349D02*
X779965D01*
X700837Y560949D02*
X779491D01*
X537902Y406149D02*
X779173D01*
X681209Y369249D02*
X779065D01*
X701535Y561849D02*
X778591D01*
X537902Y407049D02*
X778273D01*
X681209Y370149D02*
X778165D01*
X537902Y407949D02*
X777373D01*
X681209Y371049D02*
X777265D01*
X577020Y408849D02*
X776473D01*
X681509Y371949D02*
X776365D01*
X730621Y409749D02*
X775573D01*
X682409Y372849D02*
X775465D01*
X732730Y410649D02*
X774673D01*
X683309Y373749D02*
X774565D01*
X733469Y411549D02*
X773773D01*
X684209Y374649D02*
X773665D01*
X733842Y412449D02*
X772873D01*
X733964Y413349D02*
X771973D01*
X733965Y414249D02*
X771073D01*
X733965Y415149D02*
X770173D01*
X733965Y416049D02*
X769273D01*
X733965Y416949D02*
X768373D01*
X733965Y417849D02*
X767473D01*
X695288Y230649D02*
X766806D01*
X733965Y418749D02*
X766573D01*
X761407Y579849D02*
X766467D01*
X761766Y569949D02*
X766108D01*
X697003Y229749D02*
X765910D01*
X733965Y419649D02*
X765673D01*
X762728Y578949D02*
X765146D01*
X698325Y228849D02*
X765024D01*
X762928Y570849D02*
X764946D01*
X733965Y420549D02*
X764773D01*
X763523Y578049D02*
X764351D01*
X699405Y227949D02*
X764139D01*
X763771Y571749D02*
X764103D01*
X733965Y421449D02*
X763873D01*
X737902Y271149D02*
X763611D01*
X762232Y258549D02*
X763359D01*
X700312Y227049D02*
X763253D01*
X733965Y422349D02*
X762973D01*
X737902Y270249D02*
X762596D01*
X745360Y479949D02*
X762514D01*
X701085Y226149D02*
X762367D01*
X733965Y423249D02*
X762073D01*
X737902Y269349D02*
X762049D01*
X760759Y265749D02*
X761943D01*
X745998Y496149D02*
X761876D01*
X737902Y266649D02*
X761848D01*
X737902Y268449D02*
X761772D01*
X737902Y267549D02*
X761708D01*
X701748Y225249D02*
X761481D01*
X733965Y424149D02*
X761173D01*
X747074Y480849D02*
X760800D01*
X702317Y224349D02*
X760595D01*
X747465Y495249D02*
X760409D01*
X733965Y425049D02*
X760273D01*
X702805Y223449D02*
X759709D01*
X748199Y481749D02*
X759675D01*
X748482Y494349D02*
X759392D01*
X733965Y425949D02*
X759373D01*
X737902Y265749D02*
X758926D01*
X749030Y482649D02*
X758844D01*
X703220Y222549D02*
X758824D01*
X704391Y215349D02*
X758729D01*
X749245Y493449D02*
X758629D01*
X733965Y426849D02*
X758473D01*
X749664Y483549D02*
X758210D01*
X749829Y492549D02*
X758045D01*
X703567Y221649D02*
X757938D01*
X750149Y484449D02*
X757725D01*
X750273Y491649D02*
X757601D01*
X733965Y427749D02*
X757573D01*
X737902Y258549D02*
X757453D01*
X750510Y485349D02*
X757364D01*
X750599Y490749D02*
X757275D01*
X737902Y264849D02*
X757174D01*
X750762Y486249D02*
X757112D01*
X750821Y489849D02*
X757053D01*
X750916Y487149D02*
X756958D01*
X750945Y488949D02*
X756929D01*
X750977Y488049D02*
X756897D01*
X733965Y428649D02*
X756673D01*
X704434Y216249D02*
X756648D01*
X703852Y220749D02*
X756638D01*
X737902Y259449D02*
X756561D01*
X751407Y579849D02*
X756467D01*
X737902Y263949D02*
X756411D01*
X751766Y569949D02*
X756108D01*
X737902Y260349D02*
X756073D01*
X704425Y217149D02*
X756006D01*
X704078Y219849D02*
X756002D01*
X737902Y263049D02*
X755993D01*
X737902Y261249D02*
X755838D01*
X737902Y262149D02*
X755813D01*
X733965Y429549D02*
X755773D01*
X704363Y218049D02*
X755734D01*
X704247Y218949D02*
X755732D01*
X752728Y578949D02*
X755146D01*
X752928Y570849D02*
X754946D01*
X733965Y430449D02*
X754873D01*
X753523Y578049D02*
X754351D01*
X753771Y571749D02*
X754103D01*
X733965Y431349D02*
X753973D01*
X733965Y432249D02*
X753073D01*
X749529Y358449D02*
X752439D01*
X733965Y433149D02*
X752173D01*
X750149Y365649D02*
X751819D01*
X733965Y434049D02*
X751273D01*
X733965Y434949D02*
X750373D01*
X733965Y435849D02*
X749473D01*
X733965Y436749D02*
X748573D01*
X733965Y437649D02*
X747673D01*
X733965Y438549D02*
X746773D01*
X746028Y358449D02*
X746534D01*
X741407Y579849D02*
X746467D01*
X741871Y569949D02*
X746108D01*
X744244Y365649D02*
X745914D01*
X733965Y439449D02*
X745873D01*
X742728Y578949D02*
X745146D01*
X742928Y570849D02*
X744946D01*
X743523Y578049D02*
X744351D01*
X743771Y571749D02*
X744103D01*
X733965Y445749D02*
X740737D01*
X702135Y562749D02*
X740309D01*
X733965Y440349D02*
X740284D01*
X681209Y365649D02*
X740008D01*
X733965Y444849D02*
X739631D01*
X733965Y441249D02*
X739443D01*
X702649Y563649D02*
X739390D01*
X733965Y443949D02*
X739143D01*
X733965Y442149D02*
X739062D01*
X681209Y364749D02*
X738984D01*
X733965Y443049D02*
X738971D01*
X693413Y479949D02*
X738892D01*
X703088Y564549D02*
X738490D01*
X681209Y360249D02*
X738476D01*
X681209Y359349D02*
X738476D01*
X681144Y358449D02*
X738476D01*
X680780Y357549D02*
X738476D01*
X679988Y356649D02*
X738476D01*
X681209Y363849D02*
X738432D01*
X679088Y355749D02*
X738376D01*
X695657Y496149D02*
X738254D01*
X681209Y361149D02*
X738223D01*
X681209Y362949D02*
X738152D01*
X681209Y362049D02*
X738086D01*
X703457Y565449D02*
X737590D01*
X678188Y354849D02*
X737483D01*
X693118Y480849D02*
X737178D01*
X695411Y495249D02*
X736787D01*
X703762Y566349D02*
X736712D01*
X677288Y353949D02*
X736583D01*
X701560Y579849D02*
X736467D01*
X704008Y567249D02*
X736220D01*
X704330Y569049D02*
X736075D01*
X704196Y568149D02*
X736075D01*
X692666Y481749D02*
X736053D01*
X704410Y569949D02*
X736003D01*
X695057Y494349D02*
X735769D01*
X676388Y353049D02*
X735683D01*
X692016Y482649D02*
X735222D01*
X702156Y578949D02*
X735146D01*
X694581Y493449D02*
X735007D01*
X704437Y570849D02*
X734946D01*
X675488Y352149D02*
X734783D01*
X691073Y483549D02*
X734588D01*
X693957Y492549D02*
X734423D01*
X702667Y578049D02*
X734351D01*
X704412Y571749D02*
X734221D01*
X689528Y484449D02*
X734103D01*
X693141Y491649D02*
X733979D01*
X674588Y351249D02*
X733883D01*
X703103Y577149D02*
X733832D01*
X704334Y572649D02*
X733748D01*
X560859Y485349D02*
X733742D01*
X692040Y490749D02*
X733653D01*
X703470Y576249D02*
X733508D01*
X561759Y486249D02*
X733489D01*
X704202Y573549D02*
X733461D01*
X690384Y489849D02*
X733431D01*
X703773Y575349D02*
X733345D01*
X562659Y487149D02*
X733336D01*
X704016Y574449D02*
X733330D01*
X564459Y488949D02*
X733307D01*
X563559Y488049D02*
X733275D01*
X673688Y350349D02*
X732983D01*
X395382Y238749D02*
X732868D01*
X672788Y349449D02*
X732083D01*
X710620Y239649D02*
X731572D01*
X671597Y348549D02*
X731262D01*
X711397Y240549D02*
X730961D01*
X658661Y347649D02*
X730803D01*
X711746Y241449D02*
X730666D01*
X660332Y346749D02*
X730614D01*
X661748Y345849D02*
X730602D01*
X662788Y344949D02*
X730602D01*
X663596Y344049D02*
X730602D01*
X664239Y343149D02*
X730602D01*
X664750Y342249D02*
X730602D01*
X665150Y341349D02*
X730602D01*
X665454Y340449D02*
X730602D01*
X665669Y339549D02*
X730602D01*
X665801Y338649D02*
X730602D01*
X665853Y337749D02*
X730602D01*
X665827Y336849D02*
X730602D01*
X665722Y335949D02*
X730602D01*
X665535Y335049D02*
X730602D01*
X665262Y334149D02*
X730602D01*
X664895Y333249D02*
X730602D01*
X664423Y332349D02*
X730602D01*
X663828Y331449D02*
X730602D01*
X702229Y330549D02*
X730602D01*
X703628Y329649D02*
X730602D01*
X704314Y328749D02*
X730602D01*
X704685Y327849D02*
X730602D01*
X704827Y326949D02*
X730602D01*
X704766Y326049D02*
X730602D01*
X704491Y325149D02*
X730602D01*
X703947Y324249D02*
X730602D01*
X702940Y323349D02*
X730602D01*
X702737Y322449D02*
X730602D01*
X703840Y321549D02*
X730602D01*
X704432Y320649D02*
X730602D01*
X704740Y319749D02*
X730602D01*
X704830Y318849D02*
X730602D01*
X704718Y317949D02*
X730602D01*
X704383Y317049D02*
X730602D01*
X703753Y316149D02*
X730602D01*
X702530Y315249D02*
X730602D01*
X634358Y314349D02*
X730602D01*
X634358Y313449D02*
X730602D01*
X634358Y312549D02*
X730602D01*
X634358Y311649D02*
X730602D01*
X634358Y310749D02*
X730602D01*
X634358Y309849D02*
X730602D01*
X634358Y308949D02*
X730602D01*
X634358Y308049D02*
X730602D01*
X634358Y307149D02*
X730602D01*
X634358Y306249D02*
X730602D01*
X634358Y305349D02*
X730602D01*
X634358Y304449D02*
X730602D01*
X634358Y303549D02*
X730602D01*
X702918Y302649D02*
X730602D01*
X703936Y301749D02*
X730602D01*
X704485Y300849D02*
X730602D01*
X704763Y299949D02*
X730602D01*
X704827Y299049D02*
X730602D01*
X704688Y298149D02*
X730602D01*
X704322Y297249D02*
X730602D01*
X703642Y296349D02*
X730602D01*
X702586Y295449D02*
X730602D01*
X703245Y294549D02*
X730602D01*
X704106Y293649D02*
X730602D01*
X704577Y292749D02*
X730602D01*
X704798Y291849D02*
X730602D01*
X704812Y290949D02*
X730602D01*
X704620Y290049D02*
X730602D01*
X704187Y289149D02*
X730602D01*
X703396Y288249D02*
X730602D01*
X701445Y287349D02*
X730602D01*
X634358Y286449D02*
X730602D01*
X634358Y285549D02*
X730602D01*
X634358Y284649D02*
X730602D01*
X634358Y283749D02*
X730602D01*
X633950Y282849D02*
X730602D01*
X633050Y281949D02*
X730602D01*
X632114Y281049D02*
X730602D01*
X602193Y280149D02*
X730602D01*
X602193Y279249D02*
X730602D01*
X659237Y278349D02*
X730602D01*
X661029Y277449D02*
X730602D01*
X662248Y276549D02*
X730602D01*
X663173Y275649D02*
X730602D01*
X663901Y274749D02*
X730602D01*
X664482Y273849D02*
X730602D01*
X664942Y272949D02*
X730602D01*
X665297Y272049D02*
X730602D01*
X665560Y271149D02*
X730602D01*
X665738Y270249D02*
X730602D01*
X665834Y269349D02*
X730602D01*
X665851Y268449D02*
X730602D01*
X665790Y267549D02*
X730602D01*
X665649Y266649D02*
X730602D01*
X665424Y265749D02*
X730602D01*
X665110Y264849D02*
X730602D01*
X664698Y263949D02*
X730602D01*
X664174Y263049D02*
X730602D01*
X663515Y262149D02*
X730602D01*
X662684Y261249D02*
X730602D01*
X661612Y260349D02*
X730602D01*
X660135Y259449D02*
X730602D01*
X657489Y258549D02*
X730602D01*
X619351Y257649D02*
X730602D01*
X620251Y256749D02*
X730602D01*
X621151Y255849D02*
X730602D01*
X622054Y254949D02*
X730602D01*
X683068Y254049D02*
X730602D01*
X683970Y253149D02*
X730602D01*
X684870Y252249D02*
X730602D01*
X685770Y251349D02*
X730602D01*
X686670Y250449D02*
X730602D01*
X687570Y249549D02*
X730602D01*
X688470Y248649D02*
X730602D01*
X689370Y247749D02*
X730602D01*
X690270Y246849D02*
X730602D01*
X691170Y245949D02*
X730602D01*
X709855Y245049D02*
X730602D01*
X711086Y244149D02*
X730602D01*
X711612Y243249D02*
X730602D01*
X711811Y242349D02*
X730602D01*
X578642Y409749D02*
X730009D01*
X619994Y452049D02*
X728616D01*
X579786Y410649D02*
X727900D01*
X620597Y451149D02*
X727506D01*
X580664Y411549D02*
X727161D01*
X620962Y450249D02*
X726957D01*
X581358Y412449D02*
X726788D01*
X621141Y449349D02*
X726704D01*
X581911Y413349D02*
X726666D01*
X621156Y448449D02*
X726665D01*
X621006Y447549D02*
X726665D01*
X620677Y446649D02*
X726665D01*
X620123Y445749D02*
X726665D01*
X619227Y444849D02*
X726665D01*
X617391Y443949D02*
X726665D01*
X537902Y443049D02*
X726665D01*
X537902Y442149D02*
X726665D01*
X537902Y441249D02*
X726665D01*
X537902Y440349D02*
X726665D01*
X537902Y439449D02*
X726665D01*
X537902Y438549D02*
X726665D01*
X537902Y437649D02*
X726665D01*
X537902Y436749D02*
X726665D01*
X537902Y435849D02*
X726665D01*
X537902Y434949D02*
X726665D01*
X537902Y434049D02*
X726665D01*
X537902Y433149D02*
X726665D01*
X537902Y432249D02*
X726665D01*
X537902Y431349D02*
X726665D01*
X537902Y430449D02*
X726665D01*
X537902Y429549D02*
X726665D01*
X572941Y428649D02*
X726665D01*
X577056Y427749D02*
X726665D01*
X578666Y426849D02*
X726665D01*
X579804Y425949D02*
X726665D01*
X580678Y425049D02*
X726665D01*
X581369Y424149D02*
X726665D01*
X581920Y423249D02*
X726665D01*
X582355Y422349D02*
X726665D01*
X582688Y421449D02*
X726665D01*
X582931Y420549D02*
X726665D01*
X583090Y419649D02*
X726665D01*
X583168Y418749D02*
X726665D01*
X583167Y417849D02*
X726665D01*
X583088Y416949D02*
X726665D01*
X582928Y416049D02*
X726665D01*
X582683Y415149D02*
X726665D01*
X582348Y414249D02*
X726665D01*
X692098Y245049D02*
X707468D01*
X693571Y287349D02*
X700130D01*
X694355Y330549D02*
X699345D01*
X694656Y315249D02*
X699045D01*
X695044Y302649D02*
X698657D01*
X695522Y288249D02*
X698179D01*
X695754Y329649D02*
X697947D01*
X695879Y316149D02*
X697822D01*
X696062Y301749D02*
X697639D01*
X696313Y289149D02*
X697388D01*
X696443Y328749D02*
X697258D01*
X696578Y317049D02*
X697123D01*
X634358Y287349D02*
X692256D01*
X663080Y330549D02*
X691471D01*
X634358Y315249D02*
X691171D01*
X634358Y295449D02*
X691115D01*
X634358Y322449D02*
X690964D01*
X634358Y302649D02*
X690783D01*
X634358Y323349D02*
X690761D01*
X634358Y294549D02*
X690456D01*
X634358Y288249D02*
X690305D01*
X662128Y329649D02*
X690073D01*
X634358Y296349D02*
X690059D01*
X634358Y316149D02*
X689948D01*
X634358Y321549D02*
X689861D01*
X634358Y301749D02*
X689765D01*
X634358Y324249D02*
X689753D01*
X634358Y293649D02*
X689595D01*
X634358Y289149D02*
X689514D01*
X395382Y239649D02*
X689511D01*
X660865Y328749D02*
X689387D01*
X634358Y297249D02*
X689379D01*
X634358Y317049D02*
X689317D01*
X634358Y320649D02*
X689269D01*
X634358Y300849D02*
X689216D01*
X634219Y325149D02*
X689210D01*
X634358Y292749D02*
X689124D01*
X634358Y290049D02*
X689081D01*
X658964Y327849D02*
X689016D01*
X634358Y298149D02*
X689012D01*
X634358Y317949D02*
X688983D01*
X634358Y319749D02*
X688961D01*
X634358Y299949D02*
X688938D01*
X633319Y326049D02*
X688935D01*
X634358Y291849D02*
X688902D01*
X634358Y290949D02*
X688889D01*
X632419Y326949D02*
X688874D01*
X634358Y299049D02*
X688873D01*
X634358Y318849D02*
X688870D01*
X415178Y240549D02*
X688474D01*
X418867Y241449D02*
X687574D01*
X575406Y555549D02*
X686874D01*
X420819Y242349D02*
X686674D01*
X415723Y586149D02*
X686639D01*
X640937Y471849D02*
X685835D01*
X422265Y243249D02*
X685774D01*
X584528Y231549D02*
X685286D01*
X423427Y244149D02*
X684874D01*
X642284Y484449D02*
X684488D01*
X584939Y201849D02*
X684145D01*
X571741Y245049D02*
X683974D01*
X643140Y489849D02*
X683631D01*
X643265Y472749D02*
X683506D01*
X418970Y556449D02*
X683392D01*
X419057Y585249D02*
X683305D01*
X643515Y506049D02*
X683257D01*
X573844Y245949D02*
X683074D01*
X643829Y483549D02*
X682943D01*
X563000Y380949D02*
X682667D01*
X585516Y230649D02*
X682665D01*
X644403Y473649D02*
X682368D01*
X574784Y246849D02*
X682174D01*
X644772Y482649D02*
X682000D01*
X585787Y202749D02*
X681979D01*
X644796Y490749D02*
X681976D01*
X645026Y505149D02*
X681746D01*
X645165Y474549D02*
X681607D01*
X563000Y380049D02*
X681513D01*
X420891Y557349D02*
X681472D01*
X420952Y584349D02*
X681411D01*
X645422Y481749D02*
X681350D01*
X575362Y247749D02*
X681274D01*
X645696Y475449D02*
X681075D01*
X586178Y229749D02*
X680949D01*
X645873Y480849D02*
X680898D01*
X645897Y491649D02*
X680875D01*
X646057Y476349D02*
X680715D01*
X646064Y504249D02*
X680708D01*
X563000Y379149D02*
X680613D01*
X646169Y479949D02*
X680603D01*
X646274Y477249D02*
X680497D01*
X646329Y479049D02*
X680443D01*
X586363Y203649D02*
X680434D01*
X646363Y478149D02*
X680408D01*
X575709Y248649D02*
X680374D01*
X646713Y492549D02*
X680058D01*
X422321Y558249D02*
X680041D01*
X422369Y583449D02*
X679993D01*
X646840Y503349D02*
X679931D01*
X563000Y378249D02*
X679713D01*
X586628Y228849D02*
X679627D01*
X647337Y493449D02*
X679435D01*
X647434Y502449D02*
X679337D01*
X586749Y204549D02*
X679211D01*
X647813Y494349D02*
X678959D01*
X423473Y559149D02*
X678890D01*
X647887Y501549D02*
X678885D01*
X423512Y582549D02*
X678850D01*
X563000Y377349D02*
X678813D01*
X648167Y495249D02*
X678605D01*
X648220Y500649D02*
X678552D01*
X586912Y227949D02*
X678548D01*
X648413Y496149D02*
X678359D01*
X648447Y499749D02*
X678324D01*
X648561Y497049D02*
X678211D01*
X586979Y205449D02*
X678200D01*
X648578Y498849D02*
X678194D01*
X648615Y497949D02*
X678157D01*
X424432Y560049D02*
X677930D01*
X562919Y376449D02*
X677913D01*
X424466Y581649D02*
X677897D01*
X644571Y227049D02*
X677641D01*
X587072Y206349D02*
X677346D01*
X425247Y560949D02*
X677115D01*
X425275Y580749D02*
X677087D01*
X562034Y375549D02*
X677013D01*
X646076Y226149D02*
X676868D01*
X587034Y207249D02*
X676615D01*
X425945Y561849D02*
X676418D01*
X425969Y579849D02*
X676393D01*
X647036Y225249D02*
X676205D01*
X561134Y374649D02*
X676133D01*
X586861Y208149D02*
X675988D01*
X426544Y562749D02*
X675818D01*
X426565Y578949D02*
X675797D01*
X647717Y224349D02*
X675636D01*
X560234Y373749D02*
X675634D01*
X559334Y372849D02*
X675484D01*
X554454Y371949D02*
X675484D01*
X613298Y371049D02*
X675484D01*
X615241Y370149D02*
X675484D01*
X616157Y369249D02*
X675484D01*
X616722Y368349D02*
X675484D01*
X617059Y367449D02*
X675484D01*
X617216Y366549D02*
X675484D01*
X617208Y365649D02*
X675484D01*
X617036Y364749D02*
X675484D01*
X616679Y363849D02*
X675484D01*
X616088Y362949D02*
X675484D01*
X615125Y362049D02*
X675484D01*
X612796Y361149D02*
X675484D01*
X586543Y209049D02*
X675449D01*
X475329Y360249D02*
X675443D01*
X427059Y563649D02*
X675304D01*
X427077Y578049D02*
X675286D01*
X648206Y223449D02*
X675148D01*
X586052Y209949D02*
X674989D01*
X427497Y564549D02*
X674865D01*
X427512Y577149D02*
X674850D01*
X648545Y222549D02*
X674733D01*
X585332Y210849D02*
X674599D01*
X575693Y359349D02*
X674593D01*
X427866Y565449D02*
X674496D01*
X427879Y576249D02*
X674483D01*
X648754Y221649D02*
X674386D01*
X584237Y211749D02*
X674275D01*
X428172Y566349D02*
X674190D01*
X428182Y575349D02*
X674180D01*
X648846Y220749D02*
X674101D01*
X581948Y212649D02*
X674012D01*
X428417Y567249D02*
X673945D01*
X428426Y574449D02*
X673937D01*
X648824Y219849D02*
X673875D01*
X643609Y213549D02*
X673807D01*
X428606Y568149D02*
X673756D01*
X428612Y573549D02*
X673750D01*
X648688Y218949D02*
X673705D01*
X577860Y358449D02*
X673693D01*
X645590Y214449D02*
X673657D01*
X428739Y569049D02*
X673623D01*
X428743Y572649D02*
X673619D01*
X648431Y218049D02*
X673590D01*
X646707Y215349D02*
X673561D01*
X428819Y569949D02*
X673543D01*
X428821Y571749D02*
X673541D01*
X648037Y217149D02*
X673528D01*
X647481Y216249D02*
X673518D01*
X428846Y570849D02*
X673516D01*
X579215Y357549D02*
X672793D01*
X580221Y356649D02*
X671893D01*
X581006Y355749D02*
X670993D01*
X581631Y354849D02*
X670093D01*
X632091Y551949D02*
X657279D01*
X632405Y533049D02*
X656965D01*
X632770Y522249D02*
X656600D01*
X632819Y542949D02*
X656551D01*
X633438Y551049D02*
X655932D01*
X633825Y532149D02*
X655545D01*
X633835Y543849D02*
X655535D01*
X634028Y523149D02*
X655342D01*
X634211Y550149D02*
X655159D01*
X634462Y544749D02*
X654908D01*
X634685Y531249D02*
X654685D01*
X634699Y549249D02*
X654671D01*
X634819Y524049D02*
X654551D01*
X634851Y545649D02*
X654519D01*
X634983Y548349D02*
X654387D01*
X635056Y546549D02*
X654315D01*
X635098Y547449D02*
X654272D01*
X635262Y530349D02*
X654108D01*
X635353Y524949D02*
X654018D01*
X635643Y529449D02*
X653727D01*
X635699Y525849D02*
X653671D01*
X618451Y258549D02*
X653534D01*
X635865Y528549D02*
X653505D01*
X635892Y526749D02*
X653478D01*
X635946Y527649D02*
X653424D01*
X606028Y347649D02*
X652362D01*
X395382Y327849D02*
X652060D01*
X602193Y278349D02*
X651786D01*
X617551Y259449D02*
X650889D01*
X605128Y346749D02*
X650692D01*
X395382Y328749D02*
X650159D01*
X602193Y277449D02*
X649995D01*
X616651Y260349D02*
X649411D01*
X604228Y345849D02*
X649275D01*
X395382Y329649D02*
X648895D01*
X602193Y276549D02*
X648776D01*
X615751Y261249D02*
X648340D01*
X603650Y344949D02*
X648236D01*
X473968Y330549D02*
X647944D01*
X602193Y275649D02*
X647851D01*
X614851Y262149D02*
X647509D01*
X603650Y344049D02*
X647427D01*
X596821Y331449D02*
X647196D01*
X602269Y274749D02*
X647122D01*
X613951Y263049D02*
X646850D01*
X603650Y343149D02*
X646785D01*
X597814Y332349D02*
X646600D01*
X603151Y273849D02*
X646542D01*
X613051Y263949D02*
X646325D01*
X603650Y342249D02*
X646274D01*
X598714Y333249D02*
X646128D01*
X604051Y272949D02*
X646082D01*
X612151Y264849D02*
X645913D01*
X603650Y341349D02*
X645873D01*
X599614Y334149D02*
X645761D01*
X604951Y272049D02*
X645726D01*
X611251Y265749D02*
X645599D01*
X603650Y340449D02*
X645570D01*
X600514Y335049D02*
X645488D01*
X605851Y271149D02*
X645463D01*
X610351Y266649D02*
X645375D01*
X603650Y339549D02*
X645355D01*
X601414Y335949D02*
X645302D01*
X606751Y270249D02*
X645286D01*
X609451Y267549D02*
X645234D01*
X603557Y338649D02*
X645223D01*
X602314Y336849D02*
X645196D01*
X607651Y269349D02*
X645190D01*
X608551Y268449D02*
X645172D01*
X603146Y337749D02*
X645170D01*
X632483Y213549D02*
X639708D01*
X632871Y227049D02*
X638745D01*
X584233Y471849D02*
X638591D01*
X633171Y214449D02*
X637727D01*
X576697Y484449D02*
X637244D01*
X633243Y226149D02*
X637241D01*
X633251Y215349D02*
X636610D01*
X565359Y489849D02*
X636387D01*
X633251Y225249D02*
X636280D01*
X584421Y472749D02*
X636262D01*
X587114Y506049D02*
X636013D01*
X633251Y216249D02*
X635836D01*
X579054Y483549D02*
X635699D01*
X633251Y224349D02*
X635599D01*
X633251Y217149D02*
X635279D01*
X584527Y473649D02*
X635124D01*
X633251Y223449D02*
X635110D01*
X633251Y218049D02*
X634886D01*
X633251Y222549D02*
X634772D01*
X580464Y482649D02*
X634756D01*
X566259Y490749D02*
X634732D01*
X633251Y218949D02*
X634628D01*
X633251Y221649D02*
X634562D01*
X587114Y505149D02*
X634501D01*
X633251Y219849D02*
X634492D01*
X633251Y220749D02*
X634471D01*
X584554Y474549D02*
X634363D01*
X581499Y481749D02*
X634106D01*
X584503Y475449D02*
X633831D01*
X582306Y480849D02*
X633654D01*
X567159Y491649D02*
X633631D01*
X584372Y476349D02*
X633471D01*
X587114Y504249D02*
X633463D01*
X582946Y479949D02*
X633359D01*
X584158Y477249D02*
X633253D01*
X583456Y479049D02*
X633199D01*
X583855Y478149D02*
X633164D01*
X568059Y492549D02*
X632814D01*
X586733Y503349D02*
X632687D01*
X568959Y493449D02*
X632191D01*
X585833Y502449D02*
X632093D01*
X569859Y494349D02*
X631714D01*
X585343Y501549D02*
X631641D01*
X584789Y495249D02*
X631361D01*
X585343Y500649D02*
X631308D01*
X585306Y496149D02*
X631115D01*
X585343Y499749D02*
X631080D01*
X585343Y497049D02*
X630967D01*
X585343Y498849D02*
X630950D01*
X585343Y497949D02*
X630912D01*
X582114Y551949D02*
X627752D01*
X395382Y533049D02*
X627437D01*
X584729Y522249D02*
X627073D01*
X584290Y542949D02*
X627024D01*
X582794Y551049D02*
X626405D01*
X395382Y532149D02*
X626017D01*
X584456Y543849D02*
X626007D01*
X584102Y523149D02*
X625815D01*
X583335Y550149D02*
X625631D01*
X584542Y544749D02*
X625380D01*
X395382Y531249D02*
X625157D01*
X583761Y549249D02*
X625144D01*
X583068Y524049D02*
X625023D01*
X584548Y545649D02*
X624992D01*
X584088Y548349D02*
X624859D01*
X584476Y546549D02*
X624787D01*
X584324Y547449D02*
X624744D01*
X395382Y530349D02*
X624580D01*
X395382Y524949D02*
X624490D01*
X395382Y529449D02*
X624199D01*
X395382Y525849D02*
X624143D01*
X395382Y528549D02*
X623977D01*
X395382Y526749D02*
X623950D01*
X395382Y527649D02*
X623896D01*
X578690Y213549D02*
X619633D01*
X575873Y249549D02*
X619455D01*
X587054Y227049D02*
X619246D01*
X578976Y214449D02*
X618945D01*
X587063Y226149D02*
X618873D01*
X586940Y225249D02*
X618865D01*
X586677Y224349D02*
X618865D01*
X586253Y223449D02*
X618865D01*
X585626Y222549D02*
X618865D01*
X584696Y221649D02*
X618865D01*
X583117Y220749D02*
X618865D01*
X578557Y219849D02*
X618865D01*
X578885Y218949D02*
X618865D01*
X579102Y218049D02*
X618865D01*
X579218Y217149D02*
X618865D01*
X579235Y216249D02*
X618865D01*
X579156Y215349D02*
X618865D01*
X575874Y250449D02*
X618456D01*
X575709Y251349D02*
X617556D01*
X575363Y252249D02*
X616656D01*
X574785Y253149D02*
X615756D01*
X537902Y443949D02*
X614892D01*
X573846Y254049D02*
X614856D01*
X571751Y254949D02*
X613956D01*
X537902Y452949D02*
X613275D01*
X537902Y444849D02*
X613057D01*
X497395Y255849D02*
X613056D01*
X537902Y452049D02*
X612289D01*
X537902Y445749D02*
X612160D01*
X498251Y256749D02*
X612156D01*
X537902Y451149D02*
X611687D01*
X476727Y361149D02*
X611613D01*
X537902Y446649D02*
X611606D01*
X537902Y450249D02*
X611322D01*
X537902Y447549D02*
X611277D01*
X498788Y257649D02*
X611256D01*
X537902Y449349D02*
X611142D01*
X537902Y448449D02*
X611128D01*
X553973Y371049D02*
X611112D01*
X499112Y258549D02*
X610356D01*
X499261Y259449D02*
X609456D01*
X477711Y362049D02*
X609285D01*
X553197Y370149D02*
X609169D01*
X499251Y260349D02*
X608556D01*
X478451Y362949D02*
X608321D01*
X551811Y369249D02*
X608252D01*
X479018Y363849D02*
X607730D01*
X480108Y368349D02*
X607688D01*
X499081Y261249D02*
X607656D01*
X479449Y364749D02*
X607374D01*
X480087Y367449D02*
X607350D01*
X479762Y365649D02*
X607201D01*
X479973Y366549D02*
X607194D01*
X498734Y262149D02*
X606756D01*
X498164Y263049D02*
X605856D01*
X497254Y263949D02*
X604956D01*
X582128Y353949D02*
X604783D01*
X602193Y281049D02*
X604107D01*
X495428Y264849D02*
X604056D01*
X395382Y326949D02*
X603801D01*
X582516Y353049D02*
X603332D01*
X602249Y281949D02*
X603171D01*
X475603Y265749D02*
X603156D01*
X395382Y326049D02*
X602901D01*
X582808Y352149D02*
X602432D01*
X424504Y266649D02*
X602256D01*
X395382Y325149D02*
X602001D01*
X395382Y324249D02*
X601862D01*
X395382Y323349D02*
X601862D01*
X395382Y322449D02*
X601862D01*
X395382Y321549D02*
X601862D01*
X395382Y320649D02*
X601862D01*
X395382Y319749D02*
X601862D01*
X395382Y318849D02*
X601862D01*
X395382Y317949D02*
X601862D01*
X395382Y317049D02*
X601862D01*
X395382Y316149D02*
X601862D01*
X395382Y315249D02*
X601862D01*
X395382Y314349D02*
X601862D01*
X395382Y313449D02*
X601862D01*
X395382Y312549D02*
X601862D01*
X395382Y311649D02*
X601862D01*
X583012Y351249D02*
X601532D01*
X423557Y267549D02*
X601356D01*
X395382Y310749D02*
X601164D01*
X583134Y350349D02*
X600632D01*
X422424Y268449D02*
X600456D01*
X476203Y309849D02*
X600014D01*
X583177Y349449D02*
X599732D01*
X421021Y269349D02*
X599556D01*
X478653Y308949D02*
X599114D01*
X583141Y348549D02*
X598832D01*
X419156Y270249D02*
X598656D01*
X479994Y308049D02*
X598214D01*
X583026Y347649D02*
X598185D01*
X582829Y346749D02*
X597940D01*
X582545Y345849D02*
X597925D01*
X582166Y344949D02*
X597925D01*
X581680Y344049D02*
X597925D01*
X581067Y343149D02*
X597925D01*
X580298Y342249D02*
X597925D01*
X579315Y341349D02*
X597925D01*
X578000Y340449D02*
X597815D01*
X415968Y271149D02*
X597756D01*
X496918Y307149D02*
X597314D01*
X395382Y272049D02*
X596939D01*
X575956Y339549D02*
X596919D01*
X498326Y306249D02*
X596701D01*
X395382Y272949D02*
X596549D01*
X499215Y305349D02*
X596478D01*
X499831Y304449D02*
X596468D01*
X500258Y303549D02*
X596468D01*
X500532Y302649D02*
X596468D01*
X500672Y301749D02*
X596468D01*
X500689Y300849D02*
X596468D01*
X500581Y299949D02*
X596468D01*
X500343Y299049D02*
X596468D01*
X499959Y298149D02*
X596468D01*
X499398Y297249D02*
X596468D01*
X498594Y296349D02*
X596468D01*
X497371Y295449D02*
X596468D01*
X480272Y294549D02*
X596468D01*
X479059Y293649D02*
X596468D01*
X477103Y292749D02*
X596468D01*
X395382Y291849D02*
X596468D01*
X395382Y290949D02*
X596468D01*
X395382Y290049D02*
X596468D01*
X395382Y289149D02*
X596468D01*
X395382Y288249D02*
X596468D01*
X395382Y287349D02*
X596468D01*
X395382Y286449D02*
X596468D01*
X395382Y285549D02*
X596468D01*
X395382Y284649D02*
X596468D01*
X395382Y283749D02*
X596468D01*
X395382Y282849D02*
X596468D01*
X395382Y281949D02*
X596468D01*
X395382Y281049D02*
X596468D01*
X395382Y280149D02*
X596468D01*
X395382Y279249D02*
X596468D01*
X395382Y278349D02*
X596468D01*
X395382Y277449D02*
X596468D01*
X395382Y276549D02*
X596468D01*
X395382Y275649D02*
X596468D01*
X395382Y274749D02*
X596468D01*
X395382Y273849D02*
X596468D01*
X502407Y338649D02*
X596019D01*
X503307Y337749D02*
X595119D01*
X504208Y336849D02*
X594218D01*
X578620Y212649D02*
X579784D01*
X562757Y232449D02*
X578975D01*
X563575Y200949D02*
X578157D01*
X564528Y231549D02*
X577204D01*
X564939Y201849D02*
X576794D01*
X565516Y230649D02*
X576216D01*
X565787Y202749D02*
X575946D01*
X566178Y229749D02*
X575554D01*
X566363Y203649D02*
X575369D01*
X566628Y228849D02*
X575105D01*
X566749Y204549D02*
X574984D01*
X566861Y208149D02*
X574871D01*
X566912Y227949D02*
X574821D01*
X573878Y224349D02*
X574811D01*
X566940Y225249D02*
X574792D01*
X566979Y205449D02*
X574753D01*
X567034Y207249D02*
X574699D01*
X567054Y227049D02*
X574679D01*
X567063Y226149D02*
X574669D01*
X567072Y206349D02*
X574660D01*
X395382Y524049D02*
X574412D01*
X395382Y523149D02*
X573378D01*
X415488Y555549D02*
X573019D01*
X395382Y522249D02*
X572751D01*
X537902Y428649D02*
X572728D01*
X570759Y495249D02*
X572691D01*
X395382Y521349D02*
X572369D01*
X395382Y520449D02*
X572143D01*
X559959Y484449D02*
X571728D01*
X540159Y464649D02*
X570792D01*
X409000Y535749D02*
X570186D01*
X424394Y245049D02*
X569992D01*
X495797Y254949D02*
X569981D01*
X472523Y359349D02*
X569976D01*
X395382Y554649D02*
X569842D01*
X501507Y339549D02*
X569714D01*
X559059Y483549D02*
X569372D01*
X541059Y465549D02*
X568878D01*
X537902Y408849D02*
X568650D01*
X537902Y427749D02*
X568614D01*
X409739Y536649D02*
X568507D01*
X395382Y553749D02*
X568282D01*
X558159Y482649D02*
X567961D01*
X425214Y245949D02*
X567888D01*
X476067Y254049D02*
X567886D01*
X566922Y224349D02*
X567854D01*
X395382Y358449D02*
X567809D01*
X500607Y340449D02*
X567669D01*
X541959Y466449D02*
X567610D01*
X410198Y537549D02*
X567337D01*
X395382Y552849D02*
X567169D01*
X537902Y409749D02*
X567027D01*
X537902Y426849D02*
X567003D01*
X425916Y246849D02*
X566948D01*
X428599Y253149D02*
X566947D01*
X557259Y481749D02*
X566926D01*
X542859Y467349D02*
X566655D01*
X395382Y357549D02*
X566454D01*
X410454Y538449D02*
X566443D01*
X426520Y247749D02*
X566371D01*
X428408Y252249D02*
X566370D01*
X499160Y341349D02*
X566354D01*
X395382Y551949D02*
X566311D01*
X556359Y480849D02*
X566119D01*
X427038Y248649D02*
X566023D01*
X428160Y251349D02*
X566023D01*
X543759Y468249D02*
X565905D01*
X537902Y410649D02*
X565883D01*
X537902Y425949D02*
X565866D01*
X427479Y249549D02*
X565859D01*
X427852Y250449D02*
X565859D01*
X410539Y539349D02*
X565736D01*
X395382Y551049D02*
X565632D01*
X555459Y479949D02*
X565479D01*
X395382Y356649D02*
X565448D01*
X479484Y342249D02*
X565372D01*
X544659Y469149D02*
X565308D01*
X410462Y540249D02*
X565174D01*
X395382Y550149D02*
X565090D01*
X537902Y411549D02*
X565005D01*
X537902Y425049D02*
X564992D01*
X554559Y479049D02*
X564969D01*
X545559Y470049D02*
X564834D01*
X410214Y541149D02*
X564729D01*
X395382Y549249D02*
X564664D01*
X395382Y355749D02*
X564663D01*
X479066Y343149D02*
X564602D01*
X553659Y478149D02*
X564570D01*
X546459Y470949D02*
X564466D01*
X409766Y542049D02*
X564386D01*
X395382Y548349D02*
X564337D01*
X537902Y412449D02*
X564311D01*
X537902Y424149D02*
X564300D01*
X552759Y477249D02*
X564268D01*
X547359Y471849D02*
X564192D01*
X409043Y542949D02*
X564135D01*
X395382Y547449D02*
X564101D01*
X551859Y476349D02*
X564054D01*
X395382Y354849D02*
X564038D01*
X548259Y472749D02*
X564004D01*
X478514Y344049D02*
X563990D01*
X407795Y543849D02*
X563969D01*
X395382Y546549D02*
X563949D01*
X550959Y475449D02*
X563922D01*
X549159Y473649D02*
X563898D01*
X395382Y544749D02*
X563883D01*
X395382Y545649D02*
X563877D01*
X550059Y474549D02*
X563871D01*
X537902Y413349D02*
X563758D01*
X537902Y423249D02*
X563749D01*
X395382Y353949D02*
X563542D01*
X477793Y344949D02*
X563503D01*
X537902Y414249D02*
X563321D01*
X537902Y422349D02*
X563315D01*
X519057Y219849D02*
X563176D01*
X395382Y353049D02*
X563154D01*
X476838Y345849D02*
X563124D01*
X561948Y212649D02*
X563113D01*
X540548Y213549D02*
X563043D01*
X537902Y415149D02*
X562986D01*
X537902Y421449D02*
X562981D01*
X395382Y352149D02*
X562862D01*
X518928Y218949D02*
X562847D01*
X475495Y346749D02*
X562840D01*
X516109Y214449D02*
X562756D01*
X537902Y416049D02*
X562742D01*
X537902Y420549D02*
X562738D01*
X395382Y351249D02*
X562657D01*
X473031Y347649D02*
X562643D01*
X518685Y218049D02*
X562630D01*
X537902Y416949D02*
X562582D01*
X537902Y419649D02*
X562580D01*
X517091Y215349D02*
X562577D01*
X395382Y350349D02*
X562535D01*
X395382Y348549D02*
X562528D01*
X518316Y217149D02*
X562515D01*
X537902Y417849D02*
X562502D01*
X537902Y418749D02*
X562502D01*
X517798Y216249D02*
X562497D01*
X395382Y349449D02*
X562492D01*
X542432Y212649D02*
X559784D01*
X474951Y232449D02*
X558975D01*
X519078Y220749D02*
X558615D01*
X396666Y200949D02*
X558157D01*
X543338Y211749D02*
X557495D01*
X475851Y231549D02*
X557204D01*
X518991Y221649D02*
X557036D01*
X396090Y201849D02*
X556794D01*
X543897Y210849D02*
X556401D01*
X476750Y230649D02*
X556216D01*
X518793Y222549D02*
X556106D01*
X395705Y202749D02*
X555946D01*
X544230Y209949D02*
X555680D01*
X476878Y229749D02*
X555554D01*
X518474Y223449D02*
X555479D01*
X539761Y203649D02*
X555369D01*
X544383Y209049D02*
X555189D01*
X476878Y228849D02*
X555105D01*
X518017Y224349D02*
X555055D01*
X542262Y204549D02*
X554984D01*
X544371Y208149D02*
X554871D01*
X512783Y227949D02*
X554821D01*
X517390Y225249D02*
X554792D01*
X543238Y205449D02*
X554753D01*
X544195Y207249D02*
X554699D01*
X515278Y227049D02*
X554679D01*
X516529Y226149D02*
X554669D01*
X543834Y206349D02*
X554660D01*
X480038Y369249D02*
X544646D01*
X479874Y370149D02*
X543260D01*
X479609Y371049D02*
X542484D01*
X479236Y371949D02*
X542003D01*
X537902Y398049D02*
X541853D01*
X538597Y397149D02*
X541626D01*
X539497Y396249D02*
X541626D01*
X540397Y395349D02*
X541496D01*
X395476Y203649D02*
X538979D01*
X514598Y213549D02*
X538192D01*
X395384Y204549D02*
X536478D01*
X476878Y212649D02*
X536308D01*
X395382Y205449D02*
X535503D01*
X476878Y211749D02*
X535402D01*
X395382Y206349D02*
X534906D01*
X476878Y210849D02*
X534843D01*
X395382Y207249D02*
X534545D01*
X476404Y209949D02*
X534510D01*
X395382Y208149D02*
X534369D01*
X475504Y209049D02*
X534357D01*
X478736Y372849D02*
X511286D01*
X395382Y519549D02*
X510968D01*
X478083Y373749D02*
X510386D01*
X497193Y227949D02*
X510209D01*
X395382Y518649D02*
X510068D01*
X477226Y374649D02*
X509486D01*
X395382Y517749D02*
X509168D01*
X476057Y375549D02*
X508586D01*
X499008Y213549D02*
X508394D01*
X395382Y516849D02*
X508268D01*
X499688Y227049D02*
X507714D01*
X474229Y376449D02*
X507686D01*
X395382Y515949D02*
X507368D01*
X500518Y214449D02*
X506883D01*
X395382Y377349D02*
X506786D01*
X395382Y515049D02*
X506468D01*
X500939Y226149D02*
X506463D01*
X501501Y215349D02*
X505901D01*
X395382Y378249D02*
X505886D01*
X501800Y225249D02*
X505602D01*
X395382Y514149D02*
X505568D01*
X502208Y216249D02*
X505194D01*
X395382Y379149D02*
X504986D01*
X502427Y224349D02*
X504975D01*
X502726Y217149D02*
X504676D01*
X395382Y513249D02*
X504668D01*
X502884Y223449D02*
X504518D01*
X503095Y218049D02*
X504307D01*
X503202Y222549D02*
X504199D01*
X395382Y380049D02*
X504086D01*
X395382Y512349D02*
X503768D01*
X395382Y380949D02*
X503186D01*
X395382Y511449D02*
X502868D01*
X395382Y381849D02*
X502286D01*
X395382Y510549D02*
X501968D01*
X475917Y331449D02*
X501604D01*
X395382Y382749D02*
X501386D01*
X395382Y509649D02*
X501068D01*
X477128Y332349D02*
X500611D01*
X395382Y383649D02*
X500486D01*
X395382Y508749D02*
X500168D01*
X478009Y333249D02*
X499711D01*
X395382Y384549D02*
X499586D01*
X395382Y507849D02*
X499268D01*
X478679Y334149D02*
X498811D01*
X395382Y385449D02*
X498686D01*
X395382Y506949D02*
X498368D01*
X479193Y335049D02*
X497911D01*
X395382Y386349D02*
X497786D01*
X395382Y506049D02*
X497468D01*
X395382Y387249D02*
X496886D01*
X395382Y505149D02*
X496568D01*
X395382Y388149D02*
X495986D01*
X395382Y455649D02*
X495563D01*
X395382Y454749D02*
X495563D01*
X395382Y453849D02*
X495563D01*
X395382Y452949D02*
X495563D01*
X395382Y452049D02*
X495563D01*
X395382Y451149D02*
X495563D01*
X395382Y450249D02*
X495563D01*
X395382Y449349D02*
X495563D01*
X395382Y448449D02*
X495563D01*
X395382Y447549D02*
X495563D01*
X395382Y446649D02*
X495563D01*
X395382Y445749D02*
X495563D01*
X395382Y444849D02*
X495563D01*
X395382Y443949D02*
X495563D01*
X395382Y443049D02*
X495563D01*
X395382Y442149D02*
X495563D01*
X395382Y441249D02*
X495563D01*
X395382Y440349D02*
X495563D01*
X395382Y439449D02*
X495563D01*
X395382Y438549D02*
X495563D01*
X395382Y437649D02*
X495563D01*
X395382Y436749D02*
X495563D01*
X395382Y435849D02*
X495563D01*
X395382Y434949D02*
X495563D01*
X395382Y434049D02*
X495563D01*
X395382Y433149D02*
X495563D01*
X395382Y432249D02*
X495563D01*
X395382Y431349D02*
X495563D01*
X395382Y430449D02*
X495563D01*
X395382Y429549D02*
X495563D01*
X395382Y428649D02*
X495563D01*
X395382Y427749D02*
X495563D01*
X395382Y426849D02*
X495563D01*
X395382Y425949D02*
X495563D01*
X395382Y425049D02*
X495563D01*
X395382Y424149D02*
X495563D01*
X395382Y423249D02*
X495563D01*
X395382Y422349D02*
X495563D01*
X395382Y421449D02*
X495563D01*
X395382Y420549D02*
X495563D01*
X395382Y419649D02*
X495563D01*
X395382Y418749D02*
X495563D01*
X395382Y417849D02*
X495563D01*
X395382Y416949D02*
X495563D01*
X395382Y416049D02*
X495563D01*
X403529Y415149D02*
X495563D01*
X405217Y414249D02*
X495563D01*
X406168Y413349D02*
X495563D01*
X406801Y412449D02*
X495563D01*
X407223Y411549D02*
X495563D01*
X407480Y410649D02*
X495563D01*
X407593Y409749D02*
X495563D01*
X407571Y408849D02*
X495563D01*
X407411Y407949D02*
X495563D01*
X407102Y407049D02*
X495563D01*
X406617Y406149D02*
X495563D01*
X405896Y405249D02*
X495563D01*
X404785Y404349D02*
X495563D01*
X402135Y403449D02*
X495563D01*
X395382Y402549D02*
X495563D01*
X395382Y401649D02*
X495563D01*
X395382Y400749D02*
X495563D01*
X395382Y399849D02*
X495563D01*
X395382Y398949D02*
X495563D01*
X395382Y398049D02*
X495563D01*
X395382Y397149D02*
X495563D01*
X395382Y396249D02*
X495563D01*
X395382Y395349D02*
X495563D01*
X395382Y394449D02*
X495563D01*
X395382Y393549D02*
X495563D01*
X395382Y392649D02*
X495563D01*
X395382Y391749D02*
X495563D01*
X395382Y390849D02*
X495563D01*
X395382Y389949D02*
X495563D01*
X395382Y389049D02*
X495563D01*
X395382Y456549D02*
X495484D01*
X476878Y227949D02*
X494618D01*
X395382Y457449D02*
X494600D01*
X395382Y458349D02*
X493700D01*
X476878Y213549D02*
X492803D01*
X395382Y459249D02*
X492800D01*
X477763Y264849D02*
X492761D01*
X477926Y254949D02*
X492392D01*
X476878Y227049D02*
X492123D01*
X476878Y214449D02*
X491293D01*
X480947Y307149D02*
X491271D01*
X478819Y263949D02*
X490935D01*
X476878Y226149D02*
X490872D01*
X481155Y295449D02*
X490818D01*
X478922Y255849D02*
X490794D01*
X476878Y215349D02*
X490310D01*
X479511Y263049D02*
X490025D01*
X480578Y225249D02*
X490011D01*
X479581Y256749D02*
X489938D01*
X481667Y306249D02*
X489863D01*
X482562Y216249D02*
X489603D01*
X481826Y296349D02*
X489595D01*
X479976Y262149D02*
X489455D01*
X480022Y257649D02*
X489401D01*
X483118Y224349D02*
X489384D01*
X480269Y261249D02*
X489108D01*
X483756Y217149D02*
X489086D01*
X480295Y258549D02*
X489077D01*
X482218Y305349D02*
X488974D01*
X480414Y260349D02*
X488938D01*
X480422Y259449D02*
X488928D01*
X484060Y223449D02*
X488927D01*
X482340Y297249D02*
X488791D01*
X484440Y218049D02*
X488716D01*
X484625Y222549D02*
X488609D01*
X484850Y218949D02*
X488473D01*
X484952Y221649D02*
X488411D01*
X482636Y304449D02*
X488358D01*
X485058Y219849D02*
X488345D01*
X485091Y220749D02*
X488324D01*
X482726Y298149D02*
X488229D01*
X482939Y303549D02*
X487931D01*
X483001Y299049D02*
X487846D01*
X483139Y302649D02*
X487657D01*
X483175Y299949D02*
X487608D01*
X483243Y301749D02*
X487517D01*
X483255Y300849D02*
X487500D01*
X476878Y225249D02*
X480052D01*
X476907Y216249D02*
X478068D01*
X425308Y265749D02*
X473216D01*
X428735Y254049D02*
X472752D01*
X442739Y309849D02*
X472615D01*
X443638Y292749D02*
X471716D01*
X425997Y264849D02*
X471056D01*
X428817Y254949D02*
X470893D01*
X445189Y308949D02*
X470166D01*
X426589Y263949D02*
X470000D01*
X395382Y359349D02*
X469997D01*
X428846Y255849D02*
X469897D01*
X445595Y293649D02*
X469760D01*
X395382Y347649D02*
X469489D01*
X427097Y263049D02*
X469308D01*
X428823Y256749D02*
X469238D01*
X427530Y262149D02*
X468842D01*
X446529Y308049D02*
X468825D01*
X428748Y257649D02*
X468797D01*
X395382Y330549D02*
X468552D01*
X427894Y261249D02*
X468550D01*
X446807Y294549D02*
X468547D01*
X428619Y258549D02*
X468524D01*
X428194Y260349D02*
X468405D01*
X428435Y259449D02*
X468396D01*
X395382Y376449D02*
X468291D01*
X395382Y504249D02*
X468109D01*
X447482Y307149D02*
X467872D01*
X447690Y295449D02*
X467664D01*
X395382Y503349D02*
X467209D01*
X395382Y360249D02*
X467191D01*
X448202Y306249D02*
X467152D01*
X395382Y346749D02*
X467025D01*
X448361Y296349D02*
X466993D01*
X395382Y331449D02*
X466602D01*
X448754Y305349D02*
X466600D01*
X448875Y297249D02*
X466479D01*
X395382Y375549D02*
X466462D01*
X395382Y502449D02*
X466309D01*
X449171Y304449D02*
X466183D01*
X449261Y298149D02*
X466093D01*
X449474Y303549D02*
X465880D01*
X449536Y299049D02*
X465818D01*
X395382Y361149D02*
X465792D01*
X395382Y345849D02*
X465681D01*
X449674Y302649D02*
X465680D01*
X449710Y299949D02*
X465644D01*
X449778Y301749D02*
X465576D01*
X449790Y300849D02*
X465564D01*
X395382Y501549D02*
X465409D01*
X395382Y332349D02*
X465392D01*
X395382Y374649D02*
X465294D01*
X395382Y362049D02*
X464809D01*
X395382Y344949D02*
X464727D01*
X408433Y333249D02*
X464511D01*
X395382Y500649D02*
X464509D01*
X407168Y373749D02*
X464437D01*
X395382Y460149D02*
X464430D01*
X408851Y362949D02*
X464069D01*
X395382Y499749D02*
X464067D01*
X395382Y498849D02*
X464067D01*
X395382Y497949D02*
X464067D01*
X395382Y497049D02*
X464067D01*
X395382Y496149D02*
X464067D01*
X395382Y495249D02*
X464067D01*
X395382Y494349D02*
X464067D01*
X427071Y493449D02*
X464067D01*
X428994Y492549D02*
X464067D01*
X430339Y491649D02*
X464067D01*
X431383Y490749D02*
X464067D01*
X432227Y489849D02*
X464067D01*
X432921Y488949D02*
X464067D01*
X433494Y488049D02*
X464067D01*
X433966Y487149D02*
X464067D01*
X434348Y486249D02*
X464067D01*
X434650Y485349D02*
X464067D01*
X434877Y484449D02*
X464067D01*
X435033Y483549D02*
X464067D01*
X435122Y482649D02*
X464067D01*
X435145Y481749D02*
X464067D01*
X435102Y480849D02*
X464067D01*
X434992Y479949D02*
X464067D01*
X434813Y479049D02*
X464067D01*
X434564Y478149D02*
X464067D01*
X434238Y477249D02*
X464067D01*
X433828Y476349D02*
X464067D01*
X433327Y475449D02*
X464067D01*
X432718Y474549D02*
X464067D01*
X431981Y473649D02*
X464067D01*
X431081Y472749D02*
X464067D01*
X429958Y471849D02*
X464067D01*
X428479Y470949D02*
X464067D01*
X426205Y470049D02*
X464067D01*
X395382Y469149D02*
X464067D01*
X395382Y468249D02*
X464067D01*
X395382Y467349D02*
X464067D01*
X395382Y466449D02*
X464067D01*
X395382Y465549D02*
X464067D01*
X395382Y464649D02*
X464067D01*
X395382Y463749D02*
X464067D01*
X395382Y462849D02*
X464067D01*
X395382Y461949D02*
X464067D01*
X395382Y461049D02*
X464067D01*
X408024Y344049D02*
X464006D01*
X410029Y334149D02*
X463840D01*
X409610Y372849D02*
X463784D01*
X410234Y363849D02*
X463501D01*
X409856Y343149D02*
X463453D01*
X410925Y335049D02*
X463327D01*
X410664Y371949D02*
X463284D01*
X411057Y364749D02*
X463071D01*
X410816Y342249D02*
X463035D01*
X411510Y335949D02*
X462942D01*
X411338Y371049D02*
X462910D01*
X411597Y365649D02*
X462757D01*
X411438Y341349D02*
X462732D01*
X411887Y336849D02*
X462668D01*
X411779Y370149D02*
X462646D01*
X411939Y366549D02*
X462547D01*
X411842Y340449D02*
X462532D01*
X412096Y337749D02*
X462494D01*
X412042Y369249D02*
X462482D01*
X412119Y367449D02*
X462433D01*
X412075Y339549D02*
X462427D01*
X412157Y338649D02*
X462414D01*
X412152Y368349D02*
X462411D01*
X395382Y309849D02*
X439151D01*
X395382Y232449D02*
X438435D01*
X395382Y292749D02*
X438252D01*
X395382Y209049D02*
X437882D01*
X395382Y231549D02*
X437535D01*
X395382Y209949D02*
X436982D01*
X395382Y308949D02*
X436701D01*
X395382Y230649D02*
X436636D01*
X395382Y229749D02*
X436508D01*
X395382Y228849D02*
X436508D01*
X395382Y227949D02*
X436508D01*
X395382Y227049D02*
X436508D01*
X395382Y226149D02*
X436508D01*
X395382Y225249D02*
X436508D01*
X395382Y224349D02*
X436508D01*
X395382Y223449D02*
X436508D01*
X395382Y222549D02*
X436508D01*
X395382Y221649D02*
X436508D01*
X395382Y220749D02*
X436508D01*
X395382Y219849D02*
X436508D01*
X395382Y218949D02*
X436508D01*
X395382Y218049D02*
X436508D01*
X395382Y217149D02*
X436508D01*
X395382Y216249D02*
X436508D01*
X395382Y215349D02*
X436508D01*
X395382Y214449D02*
X436508D01*
X395382Y213549D02*
X436508D01*
X395382Y212649D02*
X436508D01*
X395382Y211749D02*
X436508D01*
X395382Y210849D02*
X436508D01*
X395382Y293649D02*
X436295D01*
X395382Y308049D02*
X435361D01*
X395382Y294549D02*
X435082D01*
X424084Y307149D02*
X434408D01*
X424536Y295449D02*
X434200D01*
X425492Y306249D02*
X433688D01*
X425759Y296349D02*
X433528D01*
X426380Y305349D02*
X433136D01*
X426564Y297249D02*
X433014D01*
X426997Y304449D02*
X432719D01*
X427125Y298149D02*
X432629D01*
X427423Y303549D02*
X432416D01*
X427509Y299049D02*
X432354D01*
X427697Y302649D02*
X432216D01*
X427746Y299949D02*
X432179D01*
X427838Y301749D02*
X432111D01*
X427854Y300849D02*
X432099D01*
X395382Y470049D02*
X419464D01*
X395382Y493449D02*
X418599D01*
X395382Y307149D02*
X418436D01*
X395382Y295449D02*
X417983D01*
X395382Y470949D02*
X417190D01*
X395382Y306249D02*
X417028D01*
X395382Y296349D02*
X416761D01*
X395382Y492549D02*
X416675D01*
X395382Y305349D02*
X416139D01*
X395382Y297249D02*
X415956D01*
X395382Y471849D02*
X415711D01*
X395382Y304449D02*
X415523D01*
X395382Y298149D02*
X415395D01*
X395382Y491649D02*
X415330D01*
X395382Y303549D02*
X415097D01*
X395382Y299049D02*
X415011D01*
X395382Y302649D02*
X414823D01*
X395382Y299949D02*
X414773D01*
X395382Y301749D02*
X414682D01*
X395382Y300849D02*
X414666D01*
X395382Y472749D02*
X414588D01*
X395382Y490749D02*
X414286D01*
X395382Y473649D02*
X413688D01*
X395382Y489849D02*
X413443D01*
X395382Y474549D02*
X412952D01*
X395382Y488949D02*
X412749D01*
X395382Y475449D02*
X412343D01*
X395382Y488049D02*
X412175D01*
X395382Y476349D02*
X411841D01*
X395382Y487149D02*
X411704D01*
X395382Y240549D02*
X411594D01*
X395382Y477249D02*
X411432D01*
X395382Y486249D02*
X411321D01*
X395382Y555549D02*
X411284D01*
X395382Y478149D02*
X411106D01*
X396447Y586149D02*
X411048D01*
X395382Y485349D02*
X411020D01*
X395382Y479049D02*
X410856D01*
X395382Y271149D02*
X410804D01*
X395382Y484449D02*
X410793D01*
X395382Y479949D02*
X410678D01*
X395382Y483549D02*
X410636D01*
X395382Y480849D02*
X410568D01*
X395382Y482649D02*
X410547D01*
X395382Y481749D02*
X410524D01*
X395382Y241449D02*
X407905D01*
X395382Y556449D02*
X407802D01*
X395941Y585249D02*
X407715D01*
X395382Y270249D02*
X407616D01*
X395382Y242349D02*
X405952D01*
X395382Y557349D02*
X405881D01*
X395612Y584349D02*
X405820D01*
X395382Y373749D02*
X405785D01*
X395382Y269349D02*
X405750D01*
X395382Y344049D02*
X404929D01*
X395382Y333249D02*
X404520D01*
X395382Y243249D02*
X404506D01*
X395382Y558249D02*
X404450D01*
X395430Y583449D02*
X404402D01*
X395382Y268449D02*
X404348D01*
X395382Y362949D02*
X404102D01*
X395382Y244149D02*
X403345D01*
X395382Y372849D02*
X403343D01*
X395382Y534849D02*
X403312D01*
X395382Y559149D02*
X403299D01*
X395382Y582549D02*
X403260D01*
X395382Y543849D02*
X403228D01*
X395382Y267549D02*
X403214D01*
X395382Y343149D02*
X403097D01*
X395382Y334149D02*
X402924D01*
X395382Y363849D02*
X402719D01*
X395382Y245049D02*
X402378D01*
X395382Y560049D02*
X402339D01*
X395382Y581649D02*
X402306D01*
X395382Y371949D02*
X402288D01*
X395382Y266649D02*
X402268D01*
X395382Y342249D02*
X402137D01*
X395382Y335049D02*
X402028D01*
X395382Y535749D02*
X402024D01*
X395382Y542949D02*
X401981D01*
X395382Y364749D02*
X401896D01*
X395382Y371049D02*
X401614D01*
X395382Y245949D02*
X401558D01*
X395382Y560949D02*
X401525D01*
X395382Y341349D02*
X401514D01*
X395382Y580749D02*
X401496D01*
X395382Y265749D02*
X401464D01*
X395382Y335949D02*
X401443D01*
X395382Y365649D02*
X401356D01*
X395382Y536649D02*
X401284D01*
X395382Y542049D02*
X401257D01*
X395382Y370149D02*
X401174D01*
X395382Y340449D02*
X401111D01*
X395382Y336849D02*
X401066D01*
X395382Y403449D02*
X401014D01*
X395382Y366549D02*
X401014D01*
X395382Y369249D02*
X400911D01*
X395382Y339549D02*
X400878D01*
X395382Y337749D02*
X400857D01*
X395382Y246849D02*
X400855D01*
X395382Y367449D02*
X400834D01*
X395382Y561849D02*
X400827D01*
X395382Y537549D02*
X400826D01*
X395382Y541149D02*
X400810D01*
X395382Y579849D02*
X400803D01*
X395382Y368349D02*
X400800D01*
X395382Y338649D02*
X400796D01*
X395382Y264849D02*
X400775D01*
X395382Y538449D02*
X400569D01*
X395382Y540249D02*
X400562D01*
X395382Y539349D02*
X400484D01*
X395382Y247749D02*
X400252D01*
X395382Y562749D02*
X400227D01*
X395382Y578949D02*
X400206D01*
X395382Y263949D02*
X400182D01*
X395382Y248649D02*
X399734D01*
X395382Y563649D02*
X399713D01*
X395382Y578049D02*
X399695D01*
X395382Y263049D02*
X399674D01*
X395382Y415149D02*
X399621D01*
X395382Y249549D02*
X399292D01*
X395382Y564549D02*
X399275D01*
X395382Y577149D02*
X399259D01*
X395382Y262149D02*
X399242D01*
X395382Y250449D02*
X398920D01*
X395382Y565449D02*
X398905D01*
X395382Y576249D02*
X398893D01*
X395382Y261249D02*
X398878D01*
X395382Y251349D02*
X398612D01*
X395382Y566349D02*
X398600D01*
X395382Y575349D02*
X398589D01*
X395382Y260349D02*
X398578D01*
X395382Y404349D02*
X398365D01*
X395382Y252249D02*
X398364D01*
X395382Y567249D02*
X398354D01*
X395382Y574449D02*
X398346D01*
X395382Y259449D02*
X398337D01*
X395382Y253149D02*
X398173D01*
X395382Y568149D02*
X398166D01*
X395382Y573549D02*
X398160D01*
X395382Y258549D02*
X398153D01*
X395382Y254049D02*
X398037D01*
X395382Y569049D02*
X398032D01*
X395382Y572649D02*
X398028D01*
X395382Y257649D02*
X398024D01*
X395382Y254949D02*
X397955D01*
X395382Y569949D02*
X397952D01*
X395382Y571749D02*
X397950D01*
X395382Y256749D02*
X397948D01*
X395382Y414249D02*
X397932D01*
X395382Y255849D02*
X397925D01*
X395382Y570849D02*
X397925D01*
X395382Y405249D02*
X397254D01*
X395382Y413349D02*
X396981D01*
X395382Y406149D02*
X396533D01*
X395419Y412449D02*
X396349D01*
X393701Y204724D02*
G03X401575Y196850I7874J0D01*
G01X1133858*
G03X1141732Y204724I0J7874*
G01Y582677*
G03X1133858Y590551I-7874J0*
G01X401575*
G03X393701Y582677I-0J-7874*
G01Y204724*
X456001Y94742D02*
Y94992D01*
X456183Y95492*
X456365Y95742*
X456729Y95992*
X457456*
X457820Y95742*
X458001Y95492*
X458183Y94992*
Y94492*
X458001Y93992*
X457638Y93242*
X455820Y90742*
X458365*
X461092Y95992D02*
X460547Y95742D01*
X460183Y94992*
X460001Y93742*
Y92992*
X460183Y91742*
X460547Y90992*
X461092Y90742*
X461456*
X462001Y90992*
X462365Y91742*
X462547Y92992*
Y93742*
X462365Y94992*
X462001Y95742*
X461456Y95992*
X461092*
X464183Y94992D02*
X464547Y95242D01*
X465092Y95992*
Y90742*
X469092Y94242D02*
X468910Y93492D01*
X468547Y92992*
X468001Y92742*
X467820*
X467274Y92992*
X466910Y93492*
X466729Y94242*
Y94492*
X466910Y95242*
X467274Y95742*
X467820Y95992*
X468001*
X468547Y95742*
X468910Y95242*
X469092Y94242*
Y92992*
X468910Y91742*
X468547Y90992*
X468001Y90742*
X467638*
X467092Y90992*
X466910Y91492*
X470910Y91242D02*
X470729Y90992D01*
X470910Y90742*
X471092Y90992*
X470910Y91242*
X472729Y94992D02*
X473092Y95242D01*
X473638Y95992*
Y90742*
X475274Y94992D02*
X475638Y95242D01*
X476183Y95992*
Y90742*
X478001Y91242D02*
X477820Y90992D01*
X478001Y90742*
X478183Y90992*
X478001Y91242*
X480001Y94742D02*
Y94992D01*
X480183Y95492*
X480365Y95742*
X480729Y95992*
X481456*
X481820Y95742*
X482001Y95492*
X482183Y94992*
Y94492*
X482001Y93992*
X481638Y93242*
X479820Y90742*
X482365*
X484910Y95992D02*
X484365Y95742D01*
X484183Y95242*
Y94742*
X484365Y94242*
X484729Y93992*
X485456Y93742*
X486001Y93492*
X486365Y92992*
X486547Y92492*
Y91742*
X486365Y91242*
X486183Y90992*
X485638Y90742*
X484910*
X484365Y90992*
X484183Y91242*
X484001Y91742*
Y92492*
X484183Y92992*
X484547Y93492*
X485092Y93742*
X485820Y93992*
X486183Y94242*
X486365Y94742*
Y95242*
X486183Y95742*
X485638Y95992*
X484910*
X439595Y135410D02*
Y130160D01*
Y135410D02*
X441232D01*
X441777Y135160*
X441959Y134910*
X442141Y134410*
Y133910*
X441959Y133410*
X441777Y133160*
X441232Y132910*
X439595*
X440868D02*
X442141Y130160D01*
X443777Y135410D02*
Y130160D01*
Y135410D02*
X446141D01*
X443777Y132910D02*
X445232D01*
X447777Y132410D02*
X451050D01*
X455413Y134160D02*
X455232Y134660D01*
X454868Y135160*
X454504Y135410*
X453777*
X453413Y135160*
X453050Y134660*
X452868Y134160*
X452686Y133410*
Y132160*
X452868Y131410*
X453050Y130910*
X453413Y130410*
X453777Y130160*
X454504*
X454868Y130410*
X455232Y130910*
X455413Y131410*
Y132160*
X454504D02*
X455413D01*
X457050Y135410D02*
Y130160D01*
Y135410D02*
X459413D01*
X457050Y132910D02*
X458504D01*
X457050Y130160D02*
X459413D01*
X461050Y135410D02*
Y130160D01*
Y135410D02*
X463595Y130160D01*
Y135410D02*
Y130160D01*
X465232Y132410D02*
X468504D01*
X470141Y135410D02*
Y130160D01*
Y135410D02*
X471777D01*
X472322Y135160*
X472504Y134910*
X472686Y134410*
Y133660*
X472504Y133160*
X472322Y132910*
X471777Y132660*
X470141*
X474322Y135410D02*
X475232Y130160D01*
X476141Y135410D02*
X475232Y130160D01*
X476141Y135410D02*
X477050Y130160D01*
X477959Y135410D02*
X477050Y130160D01*
X479595Y135410D02*
Y130160D01*
Y135410D02*
X481232D01*
X481777Y135160*
X481959Y134910*
X482141Y134410*
Y133910*
X481959Y133410*
X481777Y133160*
X481232Y132910*
X479595*
X480868D02*
X482141Y130160D01*
X483777Y132410D02*
X487050D01*
X489777Y135410D02*
X489232Y135160D01*
X488868Y134410*
X488686Y133160*
Y132410*
X488868Y131160*
X489232Y130410*
X489777Y130160*
X490141*
X490686Y130410*
X491050Y131160*
X491232Y132410*
Y133160*
X491050Y134410*
X490686Y135160*
X490141Y135410*
X489777*
X493959D02*
X493413Y135160D01*
X493050Y134410*
X492868Y133160*
Y132410*
X493050Y131160*
X493413Y130410*
X493959Y130160*
X494322*
X494868Y130410*
X495232Y131160*
X495413Y132410*
Y133160*
X495232Y134410*
X494868Y135160*
X494322Y135410*
X493959*
X497050Y134410D02*
X497413Y134660D01*
X497959Y135410*
Y130160*
X544717Y97079D02*
X545081Y97329D01*
X545626Y98079*
Y92829*
X549626Y96329D02*
X549444Y95579D01*
X549081Y95079*
X548535Y94829*
X548354*
X547808Y95079*
X547444Y95579*
X547263Y96329*
Y96579*
X547444Y97329*
X547808Y97829*
X548354Y98079*
X548535*
X549081Y97829*
X549444Y97329*
X549626Y96329*
Y95079*
X549444Y93829*
X549081Y93079*
X548535Y92829*
X548172*
X547626Y93079*
X547444Y93579*
X552354Y98079D02*
X551808Y97829D01*
X551444Y97079*
X551263Y95829*
Y95079*
X551444Y93829*
X551808Y93079*
X552354Y92829*
X552717*
X553263Y93079*
X553626Y93829*
X553808Y95079*
Y95829*
X553626Y97079*
X553263Y97829*
X552717Y98079*
X552354*
X559626D02*
X562172Y92829D01*
Y98079D02*
X559626Y92829D01*
X567990Y97079D02*
X568354Y97329D01*
X568899Y98079*
Y92829*
X571626Y98079D02*
X571081Y97829D01*
X570717Y97079*
X570535Y95829*
Y95079*
X570717Y93829*
X571081Y93079*
X571626Y92829*
X571990*
X572535Y93079*
X572899Y93829*
X573081Y95079*
Y95829*
X572899Y97079*
X572535Y97829*
X571990Y98079*
X571626*
X575808D02*
X575263Y97829D01*
X574899Y97079*
X574717Y95829*
Y95079*
X574899Y93829*
X575263Y93079*
X575808Y92829*
X576172*
X576717Y93079*
X577081Y93829*
X577263Y95079*
Y95829*
X577081Y97079*
X576717Y97829*
X576172Y98079*
X575808*
X403368Y83722D02*
X401095Y79347D01*
X404504*
X403368Y83722D02*
Y77160D01*
X406550Y83722D02*
Y77160D01*
X409277*
X414050Y81535D02*
Y77160D01*
Y80597D02*
X413595Y81222D01*
X413141Y81535*
X412459*
X412004Y81222*
X411550Y80597*
X411322Y79660*
Y79035*
X411550Y78097*
X412004Y77472*
X412459Y77160*
X413141*
X413595Y77472*
X414050Y78097*
X416322Y81535D02*
X417686Y77160D01*
X419050Y81535D02*
X417686Y77160D01*
X417232Y75910*
X416777Y75285*
X416322Y74972*
X416095*
X421095Y79660D02*
X423822D01*
Y80285*
X423595Y80910*
X423368Y81222*
X422913Y81535*
X422232*
X421777Y81222*
X421322Y80597*
X421095Y79660*
Y79035*
X421322Y78097*
X421777Y77472*
X422232Y77160*
X422913*
X423368Y77472*
X423822Y78097*
X425868Y81535D02*
Y77160D01*
Y79660D02*
X426095Y80597D01*
X426550Y81222*
X427004Y81535*
X427686*
X430186Y77472D02*
X429959Y77160D01*
X429732Y77472*
X429959Y77785*
X430186Y77472*
Y76847*
X429959Y76222*
X429732Y75910*
X442686Y83722D02*
Y77160D01*
Y83722D02*
X445641D01*
X442686Y80597D02*
X444504D01*
X447686Y83722D02*
Y77160D01*
Y83722D02*
X449732D01*
X450413Y83410*
X450641Y83097*
X450868Y82472*
Y81847*
X450641Y81222*
X450413Y80910*
X449732Y80597*
X447686*
X449277D02*
X450868Y77160D01*
X455186Y83722D02*
X452913Y79347D01*
X456322*
X455186Y83722D02*
Y77160D01*
X458822Y77472D02*
X458595Y77160D01*
X458368Y77472*
X458595Y77785*
X458822Y77472*
Y76847*
X458595Y76222*
X458368Y75910*
X472913Y83722D02*
Y77160D01*
X471322Y83722D02*
X474504D01*
X476777Y81535D02*
X476550Y81222D01*
X476777Y80910*
X477004Y81222*
X476777Y81535*
Y77785D02*
X476550Y77472D01*
X476777Y77160*
X477004Y77472*
X476777Y77785*
X479050Y82472D02*
X479504Y82785D01*
X480186Y83722*
Y77160*
X482459Y77785D02*
X482232Y77472D01*
X482459Y77160*
X482686Y77472*
X482459Y77785*
X487459Y82785D02*
X487232Y83410D01*
X486550Y83722*
X486095*
X485413Y83410*
X484959Y82472*
X484732Y80910*
Y79347*
X484959Y78097*
X485413Y77472*
X486095Y77160*
X486322*
X487004Y77472*
X487459Y78097*
X487686Y79035*
Y79347*
X487459Y80285*
X487004Y80910*
X486322Y81222*
X486095*
X485413Y80910*
X484959Y80285*
X484732Y79347*
X490186Y77472D02*
X489959Y77160D01*
X489732Y77472*
X489959Y77785*
X490186Y77472*
Y76847*
X489959Y76222*
X489732Y75910*
X502686Y82472D02*
X503141Y82785D01*
X503822Y83722*
Y77160*
X507232Y83722D02*
X506777Y83410D01*
X506322Y82785*
X506095Y82160*
X505868Y81222*
Y79660*
X506095Y78722*
X506322Y78097*
X506777Y77472*
X507232Y77160*
X508141*
X508595Y77472*
X509050Y78097*
X509277Y78722*
X509504Y79660*
Y81222*
X509277Y82160*
X509050Y82785*
X508595Y83410*
X508141Y83722*
X507232*
X514050Y81535D02*
X511550Y77160D01*
Y81535D02*
X514050D01*
X511550Y77160D02*
X514050D01*
X516550Y77472D02*
X516322Y77160D01*
X516095Y77472*
X516322Y77785*
X516550Y77472*
Y76847*
X516322Y76222*
X516095Y75910*
X529050Y83722D02*
Y77160D01*
Y83722D02*
X531095D01*
X531777Y83410*
X532004Y83097*
X532232Y82472*
Y81535*
X532004Y80910*
X531777Y80597*
X531095Y80285*
X529050*
X537459Y82785D02*
X537004Y83410D01*
X536322Y83722*
X535413*
X534732Y83410*
X534277Y82785*
Y82160*
X534504Y81535*
X534732Y81222*
X535186Y80910*
X536550Y80285*
X537004Y79972*
X537232Y79660*
X537459Y79035*
Y78097*
X537004Y77472*
X536322Y77160*
X535413*
X534732Y77472*
X534277Y78097*
X539504Y83722D02*
Y77160D01*
Y83722D02*
X541550D01*
X542232Y83410*
X542459Y83097*
X542686Y82472*
Y81847*
X542459Y81222*
X542232Y80910*
X541550Y80597*
X539504*
X541095D02*
X542686Y77160D01*
X544959Y81535D02*
X544732Y81222D01*
X544959Y80910*
X545186Y81222*
X544959Y81535*
Y77785D02*
X544732Y77472D01*
X544959Y77160*
X545186Y77472*
X544959Y77785*
X550641Y82160D02*
X550413Y82785D01*
X549959Y83410*
X549504Y83722*
X548595*
X548141Y83410*
X547686Y82785*
X547459Y82160*
X547232Y81222*
Y79660*
X547459Y78722*
X547686Y78097*
X548141Y77472*
X548595Y77160*
X549504*
X549959Y77472*
X550413Y78097*
X550641Y78722*
Y79660*
X549504D02*
X550641D01*
X552686Y81535D02*
Y77160D01*
Y79660D02*
X552913Y80597D01*
X553368Y81222*
X553822Y81535*
X554504*
X556550Y79660D02*
X559277D01*
Y80285*
X559050Y80910*
X558822Y81222*
X558368Y81535*
X557686*
X557232Y81222*
X556777Y80597*
X556550Y79660*
Y79035*
X556777Y78097*
X557232Y77472*
X557686Y77160*
X558368*
X558822Y77472*
X559277Y78097*
X561322Y79660D02*
X564050D01*
Y80285*
X563822Y80910*
X563595Y81222*
X563141Y81535*
X562459*
X562004Y81222*
X561550Y80597*
X561322Y79660*
Y79035*
X561550Y78097*
X562004Y77472*
X562459Y77160*
X563141*
X563595Y77472*
X564050Y78097*
X566095Y81535D02*
Y77160D01*
Y80285D02*
X566777Y81222D01*
X567232Y81535*
X567913*
X568368Y81222*
X568595Y80285*
Y77160*
X633595Y97410D02*
Y92160D01*
Y97410D02*
X635232D01*
X635777Y97160*
X635959Y96910*
X636141Y96410*
Y95910*
X635959Y95410*
X635777Y95160*
X635232Y94910*
X633595*
X634868D02*
X636141Y92160D01*
X637777Y97410D02*
Y92160D01*
Y97410D02*
X640141D01*
X637777Y94910D02*
X639232D01*
X637777Y92160D02*
X640141D01*
X641777Y97410D02*
X643232Y92160D01*
X644686Y97410D02*
X643232Y92160D01*
X646504Y95660D02*
X646322Y95410D01*
X646504Y95160*
X646686Y95410*
X646504Y95660*
Y92660D02*
X646322Y92410D01*
X646504Y92160*
X646686Y92410*
X646504Y92660*
X648322Y96410D02*
X648686Y96660D01*
X649232Y97410*
Y92160*
X651050Y92660D02*
X650868Y92410D01*
X651050Y92160*
X651232Y92410*
X651050Y92660*
X653959Y97410D02*
X653413Y97160D01*
X653050Y96410*
X652868Y95160*
Y94410*
X653050Y93160*
X653413Y92410*
X653959Y92160*
X654322*
X654868Y92410*
X655232Y93160*
X655413Y94410*
Y95160*
X655232Y96410*
X654868Y97160*
X654322Y97410*
X653959*
X442217Y115579D02*
Y110329D01*
X444035Y110829D02*
X443854Y110579D01*
X444035Y110329*
X444217Y110579*
X444035Y110829*
X448581Y114329D02*
X448399Y114829D01*
X448035Y115329*
X447672Y115579*
X446944*
X446581Y115329*
X446217Y114829*
X446035Y114329*
X445854Y113579*
Y112329*
X446035Y111579*
X446217Y111079*
X446581Y110579*
X446944Y110329*
X447672*
X448035Y110579*
X448399Y111079*
X448581Y111579*
Y112329*
X447672D02*
X448581D01*
X450399Y110829D02*
X450217Y110579D01*
X450399Y110329*
X450581Y110579*
X450399Y110829*
X454035Y115579D02*
Y111579D01*
X453854Y110829*
X453672Y110579*
X453308Y110329*
X452944*
X452581Y110579*
X452399Y110829*
X452217Y111579*
Y112079*
X456763Y115579D02*
X456399Y115329D01*
X456035Y114829*
X455854Y114329*
X455672Y113579*
Y112329*
X455854Y111579*
X456035Y111079*
X456399Y110579*
X456763Y110329*
X457490*
X457854Y110579*
X458217Y111079*
X458399Y111579*
X458581Y112329*
Y113579*
X458399Y114329*
X458217Y114829*
X457854Y115329*
X457490Y115579*
X456763*
X460217D02*
Y111829D01*
X460399Y111079*
X460763Y110579*
X461308Y110329*
X461672*
X462217Y110579*
X462581Y111079*
X462763Y111829*
Y115579*
X464399D02*
Y110329D01*
Y115579D02*
X466944Y110329D01*
Y115579D02*
Y110329D01*
X471308Y114329D02*
X471126Y114829D01*
X470763Y115329*
X470399Y115579*
X469672*
X469308Y115329*
X468944Y114829*
X468763Y114329*
X468581Y113579*
Y112329*
X468763Y111579*
X468944Y111079*
X469308Y110579*
X469672Y110329*
X470399*
X470763Y110579*
X471126Y111079*
X471308Y111579*
Y112329*
X470399D02*
X471308D01*
G54D13*
X393595Y102160D02*
X673595D01*
X393595Y87160D02*
X673595D01*
X623595Y102160D02*
Y87160D01*
X393595Y72160D02*
X673595D01*
X393595Y142160D02*
X673595D01*
Y57160*
X393595*
Y142160*
X508595D02*
Y87160D01*
X393595Y122160D02*
X508595D01*
X521141Y96660D02*
X520777Y97160D01*
X520232Y97410*
X519504*
X518959Y97160*
X518595Y96660*
Y96160*
X518777Y95660*
X518959Y95410*
X519322Y95160*
X520413Y94660*
X520777Y94410*
X520959Y94160*
X521141Y93660*
Y92910*
X520777Y92410*
X520232Y92160*
X519504*
X518959Y92410*
X518595Y92910*
X522777Y97410D02*
Y92160D01*
X526959Y97410D02*
X524413Y92160D01*
Y97410D02*
X526959D01*
X524413Y92160D02*
X526959D01*
X528595Y97410D02*
Y92160D01*
Y97410D02*
X530959D01*
X528595Y94910D02*
X530050D01*
X528595Y92160D02*
X530959D01*
X532777Y95660D02*
X532595Y95410D01*
X532777Y95160*
X532959Y95410*
X532777Y95660*
Y92660D02*
X532595Y92410D01*
X532777Y92160*
X532959Y92410*
X532777Y92660*
X401095Y67410D02*
Y62160D01*
X403277*
X406368Y67410D02*
X404913Y62160D01*
X406368Y67410D02*
X407822Y62160D01*
X405459Y63910D02*
X407277D01*
X409459Y67410D02*
X410913Y64910D01*
Y62160*
X412368Y67410D02*
X410913Y64910D01*
X414004Y67410D02*
Y62160D01*
Y67410D02*
X416368D01*
X414004Y64910D02*
X415459D01*
X414004Y62160D02*
X416368D01*
X418004Y67410D02*
Y62160D01*
Y67410D02*
X419641D01*
X420186Y67160*
X420368Y66910*
X420550Y66410*
Y65910*
X420368Y65410*
X420186Y65160*
X419641Y64910*
X418004*
X419277D02*
X420550Y62160D01*
X422368Y65660D02*
X422186Y65410D01*
X422368Y65160*
X422550Y65410*
X422368Y65660*
Y62660D02*
X422186Y62410D01*
X422368Y62160*
X422550Y62410*
X422368Y62660*
X400820Y115992D02*
Y110742D01*
Y115992D02*
X402092D01*
X402638Y115742*
X403001Y115242*
X403183Y114742*
X403365Y113992*
Y112742*
X403183Y111992*
X403001Y111492*
X402638Y110992*
X402092Y110742*
X400820*
X405001Y115992D02*
Y110742D01*
Y115992D02*
X407365D01*
X405001Y113492D02*
X406456D01*
X405001Y110742D02*
X407365D01*
X411547Y115242D02*
X411183Y115742D01*
X410638Y115992*
X409910*
X409365Y115742*
X409001Y115242*
Y114742*
X409183Y114242*
X409365Y113992*
X409729Y113742*
X410820Y113242*
X411183Y112992*
X411365Y112742*
X411547Y112242*
Y111492*
X411183Y110992*
X410638Y110742*
X409910*
X409365Y110992*
X409001Y111492*
X413183Y115992D02*
Y110742D01*
X417547Y114742D02*
X417365Y115242D01*
X417001Y115742*
X416638Y115992*
X415910*
X415547Y115742*
X415183Y115242*
X415001Y114742*
X414820Y113992*
Y112742*
X415001Y111992*
X415183Y111492*
X415547Y110992*
X415910Y110742*
X416638*
X417001Y110992*
X417365Y111492*
X417547Y111992*
Y112742*
X416638D02*
X417547D01*
X419183Y115992D02*
Y110742D01*
Y115992D02*
X421729Y110742D01*
Y115992D02*
Y110742D01*
X423365Y115992D02*
Y110742D01*
Y115992D02*
X425729D01*
X423365Y113492D02*
X424820D01*
X423365Y110742D02*
X425729D01*
X427365Y115992D02*
Y110742D01*
Y115992D02*
X429001D01*
X429547Y115742*
X429729Y115492*
X429910Y114992*
Y114492*
X429729Y113992*
X429547Y113742*
X429001Y113492*
X427365*
X428638D02*
X429910Y110742D01*
X431729Y114242D02*
X431547Y113992D01*
X431729Y113742*
X431910Y113992*
X431729Y114242*
Y111242D02*
X431547Y110992D01*
X431729Y110742*
X431910Y110992*
X431729Y111242*
X402638Y135992D02*
Y131992D01*
X402456Y131242*
X402274Y130992*
X401910Y130742*
X401547*
X401183Y130992*
X401001Y131242*
X400820Y131992*
Y132492*
X405365Y135992D02*
X405001Y135742D01*
X404638Y135242*
X404456Y134742*
X404274Y133992*
Y132742*
X404456Y131992*
X404638Y131492*
X405001Y130992*
X405365Y130742*
X406092*
X406456Y130992*
X406820Y131492*
X407001Y131992*
X407183Y132742*
Y133992*
X407001Y134742*
X406820Y135242*
X406456Y135742*
X406092Y135992*
X405365*
X408820D02*
Y130742D01*
Y135992D02*
X410456D01*
X411001Y135742*
X411183Y135492*
X411365Y134992*
Y134492*
X411183Y133992*
X411001Y133742*
X410456Y133492*
X408820D02*
X410456D01*
X411001Y133242*
X411183Y132992*
X411365Y132492*
Y131742*
X411183Y131242*
X411001Y130992*
X410456Y130742*
X408820*
X417183Y135992D02*
Y130742D01*
Y135992D02*
X419729Y130742D01*
Y135992D02*
Y130742D01*
X422820Y135992D02*
X421365Y130742D01*
X422820Y135992D02*
X424274Y130742D01*
X421910Y132492D02*
X423729D01*
X425910Y135992D02*
Y130742D01*
Y135992D02*
X427365Y130742D01*
X428820Y135992D02*
X427365Y130742D01*
X428820Y135992D02*
Y130742D01*
X430456Y135992D02*
Y130742D01*
Y135992D02*
X432820D01*
X430456Y133492D02*
X431910D01*
X430456Y130742D02*
X432820D01*
X434638Y134242D02*
X434456Y133992D01*
X434638Y133742*
X434820Y133992*
X434638Y134242*
Y131242D02*
X434456Y130992D01*
X434638Y130742*
X434820Y130992*
X434638Y131242*
X402274Y95992D02*
X400820Y90742D01*
X402274Y95992D02*
X403729Y90742D01*
X401365Y92492D02*
X403183D01*
X405365Y95992D02*
Y90742D01*
Y95992D02*
X407001D01*
X407547Y95742*
X407729Y95492*
X407910Y94992*
Y94492*
X407729Y93992*
X407547Y93742*
X407001Y93492*
X405365*
X406638D02*
X407910Y90742D01*
X410820Y95992D02*
Y90742D01*
X409547Y95992D02*
X412092D01*
X413729D02*
X414638Y90742D01*
X415547Y95992D02*
X414638Y90742D01*
X415547Y95992D02*
X416456Y90742D01*
X417365Y95992D02*
X416456Y90742D01*
X420092Y95992D02*
X419729Y95742D01*
X419365Y95242*
X419183Y94742*
X419001Y93992*
Y92742*
X419183Y91992*
X419365Y91492*
X419729Y90992*
X420092Y90742*
X420820*
X421183Y90992*
X421547Y91492*
X421729Y91992*
X421910Y92742*
Y93992*
X421729Y94742*
X421547Y95242*
X421183Y95742*
X420820Y95992*
X420092*
X423547D02*
Y90742D01*
Y95992D02*
X425183D01*
X425729Y95742*
X425910Y95492*
X426092Y94992*
Y94492*
X425910Y93992*
X425729Y93742*
X425183Y93492*
X423547*
X424820D02*
X426092Y90742D01*
X429001Y95992D02*
Y90742D01*
X427729Y95992D02*
X430274D01*
X436092D02*
Y90742D01*
Y95992D02*
X437729D01*
X438274Y95742*
X438456Y95492*
X438638Y94992*
Y94242*
X438456Y93742*
X438274Y93492*
X437729Y93242*
X436092*
X440274Y95992D02*
Y90742D01*
X442456*
X445183Y95992D02*
X444820Y95742D01*
X444456Y95242*
X444274Y94742*
X444092Y93992*
Y92742*
X444274Y91992*
X444456Y91492*
X444820Y90992*
X445183Y90742*
X445910*
X446274Y90992*
X446638Y91492*
X446820Y91992*
X447001Y92742*
Y93992*
X446820Y94742*
X446638Y95242*
X446274Y95742*
X445910Y95992*
X445183*
X449910D02*
Y90742D01*
X448638Y95992D02*
X451183D01*
X453001Y94242D02*
X452820Y93992D01*
X453001Y93742*
X453183Y93992*
X453001Y94242*
Y91242D02*
X452820Y90992D01*
X453001Y90742*
X453183Y90992*
X453001Y91242*
X433641Y66660D02*
X433277Y67160D01*
X432732Y67410*
X432004*
X431459Y67160*
X431095Y66660*
Y66160*
X431277Y65660*
X431459Y65410*
X431822Y65160*
X432913Y64660*
X433277Y64410*
X433459Y64160*
X433641Y63660*
Y62910*
X433277Y62410*
X432732Y62160*
X432004*
X431459Y62410*
X431095Y62910*
X436186Y65660D02*
X435822Y65410D01*
X435459Y64910*
X435277Y64160*
Y63660*
X435459Y62910*
X435822Y62410*
X436186Y62160*
X436732*
X437095Y62410*
X437459Y62910*
X437641Y63660*
Y64160*
X437459Y64910*
X437095Y65410*
X436732Y65660*
X436186*
X439277Y67410D02*
Y62160D01*
X443095Y67410D02*
Y62160D01*
Y64910D02*
X442732Y65410D01*
X442368Y65660*
X441822*
X441459Y65410*
X441095Y64910*
X440913Y64160*
Y63660*
X441095Y62910*
X441459Y62410*
X441822Y62160*
X442368*
X442732Y62410*
X443095Y62910*
X444732Y64160D02*
X446913D01*
Y64660*
X446732Y65160*
X446550Y65410*
X446186Y65660*
X445641*
X445277Y65410*
X444913Y64910*
X444732Y64160*
Y63660*
X444913Y62910*
X445277Y62410*
X445641Y62160*
X446186*
X446550Y62410*
X446913Y62910*
X448550Y65660D02*
Y62160D01*
Y64160D02*
X448732Y64910D01*
X449095Y65410*
X449459Y65660*
X450004*
X458368Y66660D02*
X458004Y67160D01*
X457459Y67410*
X456732*
X456186Y67160*
X455822Y66660*
Y66160*
X456004Y65660*
X456186Y65410*
X456550Y65160*
X457641Y64660*
X458004Y64410*
X458186Y64160*
X458368Y63660*
Y62910*
X458004Y62410*
X457459Y62160*
X456732*
X456186Y62410*
X455822Y62910*
X460004Y67410D02*
X460186Y67160D01*
X460368Y67410*
X460186Y67660*
X460004Y67410*
X460186Y65660D02*
Y62160D01*
X464186Y67410D02*
Y62160D01*
Y64910D02*
X463822Y65410D01*
X463459Y65660*
X462913*
X462550Y65410*
X462186Y64910*
X462004Y64160*
Y63660*
X462186Y62910*
X462550Y62410*
X462913Y62160*
X463459*
X463822Y62410*
X464186Y62910*
X465822Y64160D02*
X468004D01*
Y64660*
X467822Y65160*
X467641Y65410*
X467277Y65660*
X466732*
X466368Y65410*
X466004Y64910*
X465822Y64160*
Y63660*
X466004Y62910*
X466368Y62410*
X466732Y62160*
X467277*
X467641Y62410*
X468004Y62910*
G54D16*
X614550Y116847D02*
X614277Y116472D01*
X614004Y115910*
X613732Y115160*
X613595Y114222*
Y113472*
X613732Y112535*
X614004Y111785*
X614277Y111222*
X614550Y110847*
X616732Y116097D02*
Y112160D01*
X615777Y116097D02*
X617686D01*
X618913Y113660D02*
X620550D01*
Y114035*
X620413Y114410*
X620277Y114597*
X620004Y114785*
X619595*
X619322Y114597*
X619050Y114222*
X618913Y113660*
Y113285*
X619050Y112722*
X619322Y112347*
X619595Y112160*
X620004*
X620277Y112347*
X620550Y112722*
X621777Y116097D02*
Y112160D01*
X623141Y114785D02*
X623004Y114597D01*
X623141Y114410*
X623277Y114597*
X623141Y114785*
Y112535D02*
X623004Y112347D01*
X623141Y112160*
X623277Y112347*
X623141Y112535*
X624504Y116097D02*
X626413Y112160D01*
Y116097D02*
X624504Y112160D01*
X627641Y116097D02*
X629550Y112160D01*
Y116097D02*
X627641Y112160D01*
X630777Y116847D02*
X631050Y116472D01*
X631322Y115910*
X631595Y115160*
X631732Y114222*
Y113472*
X631595Y112535*
X631322Y111785*
X631050Y111222*
X630777Y110847*
G54D26*
X479476Y338583D02*
X473470Y340576D01*
X476657Y338583*
X473470Y336589*
X479476Y338583*
X476657D02*
X479476D01*
X474016Y336771D02*
Y336931D01*
Y340234D02*
Y340395D01*
X476378Y337555D02*
Y338408D01*
Y338757D02*
Y339611D01*
X478740Y338338D02*
Y338827D01*
X834646Y203228D02*
X827244Y210630D01*
Y218504*
X834646Y203228D02*
X919291D01*
X946457Y230394*
Y247638*
X708661Y242126D02*
X690945D01*
X681102Y251969*
X620984*
X599331Y273622*
Y305118*
X602362Y308150*
X611043*
X758858Y218504D02*
X768701Y228504D01*
X797244*
X837244D02*
Y247087D01*
X827795Y256535*
Y344488*
X844488Y361181*
Y409055*
X827244Y228504D02*
Y244094D01*
X818898Y252441*
Y351102*
X836614Y368819*
Y375984*
X806102Y297244D02*
X795669D01*
X789370Y303543*
Y362992*
X774016Y378346*
X683858*
X806102Y316929D02*
X802165D01*
X795276Y323819*
Y394094*
X746457Y442913*
X742126*
X933071Y297244D02*
X933838D01*
X965334Y328740*
X970472*
X503150Y333858D02*
X595276D01*
X600787Y339370*
Y346457*
X605512Y351181*
X670472*
X678346Y359055*
Y372835*
X683858Y378346*
X503150Y333858D02*
X498425Y338583D01*
X471476*
X806102Y372047D02*
X810039Y375984D01*
X836614*
X856299Y460630D02*
Y533465D01*
X846457Y543307*
X801181*
X779528Y564961*
X742126*
X738937Y568150*
Y574803*
G54D30*
X734252Y242126D02*
Y346457D01*
X742126Y354331*
Y362205*
X844094Y284685D02*
Y312992D01*
X836614Y320472*
Y326772*
Y330709*
X857283Y350394*
Y385827*
X730315Y413386D02*
Y448819D01*
G54D34*
X974409Y545972D02*
Y544291D01*
X967807Y539370D02*
X969488D01*
X974409Y532768D02*
Y534449D01*
X981012Y539370D02*
X979331D01*
X548228Y368831D02*
Y370512D01*
X847244Y233185D02*
Y231504D01*
X748937Y569185D02*
Y570866D01*
Y580421D02*
Y578740D01*
X580866Y200327D02*
Y202008D01*
X587075Y206535D02*
X585394D01*
X580866Y212744D02*
Y211063D01*
X574657Y206535D02*
X576339D01*
X560866Y200327D02*
Y202008D01*
X567075Y206535D02*
X565394D01*
X560866Y212744D02*
Y211063D01*
X554657Y206535D02*
X556339D01*
X659449Y552425D02*
Y550744D01*
X654268Y547244D02*
X655949D01*
X659449Y542063D02*
Y543744D01*
X664630Y547244D02*
X662949D01*
X560866Y220327D02*
Y222008D01*
X567075Y226535D02*
X565394D01*
X560866Y232744D02*
Y231063D01*
X554657Y226535D02*
X556339D01*
X499276Y259843D02*
X497594D01*
X494094Y265024D02*
Y263343D01*
X488913Y259843D02*
X490594D01*
X494094Y254661D02*
Y256343D01*
X648851Y220472D02*
X647170D01*
X641658Y227665D02*
Y225984D01*
X634465Y220472D02*
X636146D01*
X641658Y213280D02*
Y214961D01*
X414657Y301181D02*
X416339D01*
X421260Y294579D02*
Y296260D01*
X427862Y301181D02*
X426181D01*
X421260Y307783D02*
Y306102D01*
X1131012Y303150D02*
X1129331D01*
X1125984Y308177D02*
Y306496D01*
X1120957Y303150D02*
X1122638D01*
X1125984Y298122D02*
Y299803D01*
X857244Y233185D02*
Y231504D01*
Y213823D02*
Y215504D01*
X580866Y220327D02*
Y222008D01*
X587075Y226535D02*
X585394D01*
X580866Y232744D02*
Y231063D01*
X574657Y226535D02*
X576339D01*
X495906Y228059D02*
Y226378D01*
X488319Y220472D02*
X490000D01*
X495906Y212886D02*
Y214567D01*
X412157Y338583D02*
X410476D01*
X406476Y344264D02*
Y342583D01*
X400795Y338583D02*
X402476D01*
X406476Y332902D02*
Y334583D01*
X1110106Y431102D02*
X1108425D01*
X1104925Y437283D02*
Y435602D01*
X1099744Y431102D02*
X1101425D01*
X1104925Y424921D02*
Y426602D01*
X1110106Y470472D02*
X1108425D01*
X1104925Y476654D02*
Y474972D01*
X1099744Y470472D02*
X1101425D01*
X1104925Y464291D02*
Y465972D01*
X687008Y471744D02*
Y473425D01*
X693610Y478346D02*
X691929D01*
X687008Y484949D02*
Y483268D01*
X680406Y478346D02*
X682087D01*
X639764Y471744D02*
Y473425D01*
X646366Y478346D02*
X644685D01*
X639764Y484949D02*
Y483268D01*
X633161Y478346D02*
X634843D01*
X629921Y552425D02*
Y550744D01*
X624740Y547244D02*
X626421D01*
X629921Y542063D02*
Y543744D01*
X635102Y547244D02*
X633421D01*
X824803Y553280D02*
Y554961D01*
X830984Y558461D02*
X829303D01*
X824803Y563642D02*
Y561961D01*
X818622Y558461D02*
X820303D01*
X758937Y569185D02*
Y570866D01*
Y580421D02*
Y578740D01*
X412157Y368110D02*
X410476D01*
X406476Y373791D02*
Y372110D01*
X400795Y368110D02*
X402476D01*
X406476Y362429D02*
Y364110D01*
X500697Y301181D02*
X499016D01*
X494094Y307783D02*
Y306102D01*
X487492Y301181D02*
X489173D01*
X494094Y294579D02*
Y296260D01*
X519083Y220472D02*
X517402D01*
X511496Y228059D02*
Y226378D01*
Y212886D02*
Y214567D01*
X847244Y213823D02*
Y215504D01*
X895677Y527559D02*
X893996D01*
X888878Y534358D02*
Y532677D01*
X882079Y527559D02*
X883760D01*
X888878Y520760D02*
Y522441D01*
X837244Y213823D02*
Y215504D01*
X410539Y539370D02*
X408858D01*
X405512Y544398D02*
Y542717D01*
X400484Y539370D02*
X402165D01*
X405512Y534343D02*
Y536024D01*
X544398Y208661D02*
X542717D01*
X539370Y213689D02*
Y212008D01*
X534343Y208661D02*
X536024D01*
X539370Y203634D02*
Y205315D01*
X912508Y559055D02*
X910827D01*
X907480Y564083D02*
Y562402D01*
X902453Y559055D02*
X904134D01*
X907480Y554028D02*
Y555709D01*
G54D38*
G54D40*
X616142Y448819D03*
X401575Y409449D03*
X612205Y366142D03*
X1106299Y395669D03*
X1125984Y303150D03*
X907480Y559055D03*
X539370Y208661D03*
X405512Y539370D03*
X1053150Y222441D03*
X570866Y250000D03*
G54D41*
Y216535D03*
X580866Y206535D03*
Y226535D03*
X560866D03*
Y206535D03*
G54D43*
X899606Y488189D03*
X812992D03*
X877559D03*
X835039D03*
G54D44*
X888878Y527559D03*
X813878D03*
G54D45*
X768937Y574803D03*
X758937D03*
X748937D03*
X738937D03*
G54D46*
X765737Y488303D03*
X742137D03*
X464724Y220472D03*
X495906D03*
X511496D03*
G54D49*
X578740Y499843D03*
X548228Y393858D03*
G54D50*
X578740Y509843D03*
Y519843D03*
X548228Y383858D03*
Y373858D03*
G54D51*
X482283Y482283D03*
X423228D03*
G54D52*
X406476Y338583D03*
X471476D03*
X406476Y368110D03*
X471476D03*
X626043Y313150D03*
X611043Y308150D03*
X626543Y303150D03*
X611043Y298150D03*
X626043Y293150D03*
X611043Y288150D03*
G54D53*
X659449Y527559D03*
Y547244D03*
X629921Y527559D03*
Y547244D03*
X474409Y259843D03*
X494094D03*
G54D54*
X687008Y498031D03*
Y478346D03*
X639764Y498031D03*
Y478346D03*
X440945Y301181D03*
X421260D03*
X474409D03*
X494094D03*
X974409Y519685D03*
Y539370D03*
G54D55*
X449134Y220472D03*
G54D56*
X480315D03*
G54D57*
X688976Y216535D03*
X1122047D03*
Y570866D03*
X688976D03*
X413386D03*
Y255906D03*
G54D58*
X797244Y218504D03*
Y228504D03*
X807244Y218504D03*
Y228504D03*
X817244Y218504D03*
Y228504D03*
X827244Y218504D03*
Y228504D03*
X837244Y218504D03*
Y228504D03*
X847244Y218504D03*
Y228504D03*
X857244Y218504D03*
Y228504D03*
X867244Y218504D03*
Y228504D03*
X877244Y218504D03*
Y228504D03*
X887244Y218504D03*
Y228504D03*
G54D59*
X611043Y318150D03*
G54D74*
X626058Y220472D03*
G54D75*
X641658D03*
X655512Y337598D03*
Y268701D03*
X572835Y418307D03*
Y349409D03*
X574213Y474409D03*
Y545276D03*
G54D77*
X1091925Y431102D03*
X1104925D03*
X1091925Y470472D03*
X1104925D03*
G54D78*
X824803Y571461D03*
Y558461D03*
G54D80*
X547244Y208661D03*
X596457Y204724D03*
X614173D03*
X645669D03*
X669291D03*
X708661D03*
X740157D03*
X759843D03*
X787402D03*
X818898D03*
X937008D03*
X962598Y205709D03*
X1000000Y202756D03*
Y209646D03*
X990157Y205709D03*
X1039370Y201772D03*
X1027559D03*
X1014764Y202756D03*
Y209646D03*
X1078740Y204724D03*
X1066929D03*
X1055118D03*
X1102362D03*
X1090551D03*
X507874Y240157D03*
X519685D03*
X547244Y244094D03*
Y232283D03*
Y220472D03*
X596457Y226378D03*
X669291Y232283D03*
X708661D03*
X978346Y234252D03*
X990157D03*
X984252D03*
X1011811Y250000D03*
X1003937D03*
X1110236Y236220D03*
Y244094D03*
X1086614Y224409D03*
X1094488D03*
X1102362D03*
Y216535D03*
X1133858Y236220D03*
X401575Y275591D03*
Y283465D03*
X419291Y275591D03*
X507874Y287402D03*
Y275591D03*
Y263780D03*
Y251969D03*
X519685Y287402D03*
Y275591D03*
Y263780D03*
Y251969D03*
X547244Y291339D03*
Y279528D03*
Y267717D03*
Y255906D03*
X716535Y259843D03*
X700787D03*
X692913D03*
X716535Y267717D03*
X692913D03*
X700787D03*
X692913Y291339D03*
X700787D03*
X724409Y267717D03*
Y259843D03*
X759843Y261811D03*
X795276Y283465D03*
X765748Y261811D03*
Y267717D03*
X952756Y263780D03*
X978346Y277559D03*
X970472D03*
X978346Y283465D03*
X970472D03*
X1003937Y255906D03*
X1110236Y251969D03*
Y259843D03*
X1102362D03*
X1094488D03*
X1086614D03*
X1133858Y275591D03*
Y255906D03*
X401575Y295276D03*
Y307087D03*
Y318898D03*
Y330709D03*
X496063Y322835D03*
X507874D03*
Y311024D03*
Y299213D03*
X519685Y322835D03*
Y311024D03*
Y299213D03*
X547244Y314961D03*
Y303150D03*
X570866Y326772D03*
X692913Y299213D03*
X700787D03*
X692913Y326772D03*
Y318898D03*
X700787Y326772D03*
Y318898D03*
X775591Y303150D03*
Y314961D03*
X929134Y330709D03*
X935039D03*
Y324803D03*
X929134D03*
X964567Y309055D03*
X992126D03*
X1133858Y314961D03*
Y295276D03*
X401575Y346457D03*
Y358268D03*
X511811Y354331D03*
X496063D03*
X497047Y370079D03*
X539370Y350394D03*
X555118D03*
X547244D03*
X531496D03*
X523622D03*
X539370Y366142D03*
X531496D03*
X523622D03*
Y358268D03*
X531496D03*
X539370D03*
X547244D03*
X555118D03*
X720472Y350394D03*
Y362205D03*
X696850D03*
Y350394D03*
X748031Y362205D03*
X742126D03*
X753937D03*
X775591Y354331D03*
X767717Y362205D03*
X996063Y342520D03*
X1019685D03*
X1011811D03*
X1003937D03*
X1047244Y346457D03*
Y370079D03*
X1059055D03*
X1072835D03*
Y358268D03*
X1059055D03*
X1047244D03*
X1086614Y346457D03*
Y370079D03*
Y358268D03*
X1133858Y354331D03*
Y334646D03*
X554134Y407480D03*
X546260D03*
X618110Y385827D03*
Y397638D03*
Y409449D03*
X633858Y380906D03*
X653543Y385827D03*
X669291D03*
X643701Y380906D03*
X685039Y385827D03*
X700787D03*
X716535D03*
X732283D03*
X787402Y379921D03*
X935039Y401575D03*
Y393701D03*
X956693D03*
X948819Y401575D03*
X956693Y385827D03*
Y375984D03*
X935039D03*
Y385827D03*
X1000000D03*
Y375984D03*
X976378D03*
Y385827D03*
X1003937Y409449D03*
X1074803Y399606D03*
Y407480D03*
X1082677D03*
Y399606D03*
X1133858Y393701D03*
Y374016D03*
X546260Y415354D03*
X554134D03*
X618110Y421260D03*
Y433071D03*
X667323Y420276D03*
X677165Y442913D03*
X755906Y448819D03*
X783465D03*
X854331D03*
X938976D03*
Y437008D03*
X935039Y425197D03*
Y413386D03*
X948819D03*
Y425197D03*
Y437008D03*
Y448819D03*
X964567Y437008D03*
Y448819D03*
X992126Y444882D03*
Y433071D03*
X1015748D03*
Y444882D03*
X1003937Y421260D03*
Y433071D03*
Y444882D03*
X1059055Y433071D03*
Y444882D03*
X1070866Y433071D03*
X1078740Y421260D03*
Y433071D03*
Y444882D03*
X1070866D03*
X1074803Y415354D03*
X1082677D03*
X1090551Y444882D03*
X1133858Y433071D03*
Y413386D03*
X618110Y464567D03*
Y476378D03*
X633858Y468504D03*
X641732D03*
X673228Y476378D03*
X665354D03*
X657480D03*
X649606D03*
Y468504D03*
X657480D03*
X665354D03*
X673228D03*
X681102D03*
X688976D03*
X938976Y460630D03*
Y472441D03*
X948819Y460630D03*
Y472441D03*
X1015748Y456693D03*
X1003937D03*
Y480315D03*
Y468504D03*
X1059055Y456693D03*
X1070866D03*
X1078740D03*
Y468504D03*
Y480315D03*
X1090551Y456693D03*
X1133858Y472441D03*
Y452756D03*
X1062992Y492126D03*
X1078740D03*
X1070866D03*
X1082677Y527559D03*
X1074803D03*
X1066929Y519685D03*
Y527559D03*
X1090551Y492126D03*
X1133858Y531496D03*
Y511811D03*
Y492126D03*
X633858Y559055D03*
X622047D03*
Y570866D03*
X633858D03*
X669291Y559055D03*
X657480D03*
X645669D03*
Y570866D03*
X657480D03*
X669291D03*
X712598Y566929D03*
X838583Y555118D03*
X870079D03*
X862205D03*
X854331D03*
X846457D03*
X881890Y539370D03*
X917323D03*
X893701D03*
X960630Y562992D03*
X940945D03*
Y547244D03*
X976378Y551181D03*
Y559055D03*
Y566929D03*
X988189Y543307D03*
Y551181D03*
Y559055D03*
Y566929D03*
X1000000D03*
Y559055D03*
Y551181D03*
Y543307D03*
X1009843D03*
Y551181D03*
Y559055D03*
Y566929D03*
X1082677Y535433D03*
Y543307D03*
Y551181D03*
Y559055D03*
Y566929D03*
X1074803D03*
Y559055D03*
Y551181D03*
Y543307D03*
Y535433D03*
X1066929D03*
Y543307D03*
Y551181D03*
Y559055D03*
Y566929D03*
X1102362Y551181D03*
X1090551Y566929D03*
Y559055D03*
Y551181D03*
Y543307D03*
Y535433D03*
X1133858Y551181D03*
X633858Y582677D03*
X622047D03*
X669291D03*
X657480D03*
X645669D03*
X712598D03*
X748031Y586614D03*
X732283Y582677D03*
X767717Y586614D03*
X787402D03*
X807087D03*
X826772D03*
X848425D03*
X870079D03*
X893701D03*
X921260D03*
X960630Y582677D03*
X940945D03*
X976378Y574803D03*
Y582677D03*
X988189Y574803D03*
Y582677D03*
X1000000D03*
Y574803D03*
X1009843D03*
Y582677D03*
X1082677Y574803D03*
Y582677D03*
X1074803D03*
Y574803D03*
X1066929D03*
Y582677D03*
X1102362D03*
X1090551D03*
Y574803D03*
G54D81*
X708661Y242126D03*
X734252D03*
X758858D03*
Y230315D03*
X733268D03*
X729331Y224409D03*
X758858Y218504D03*
X946457Y247638D03*
X982283Y244094D03*
X968504Y243110D03*
X777559Y285433D03*
X857283Y277559D03*
X844094Y284685D03*
X938976Y272638D03*
X1081693Y275591D03*
X836614Y326772D03*
X806102Y307087D03*
Y326772D03*
Y297244D03*
Y316929D03*
X861024Y326772D03*
X860236Y311024D03*
X933071Y297244D03*
X970472Y328740D03*
X777559Y334646D03*
X836614Y340551D03*
X806102Y352362D03*
Y362205D03*
Y391732D03*
X839567Y385827D03*
X806102Y372047D03*
X836614Y375984D03*
X857283Y385827D03*
X844488Y409055D03*
X647638Y442913D03*
X742126D03*
X730315Y413386D03*
Y448819D03*
X792323Y433071D03*
X807087Y446850D03*
X826772D03*
X859252Y421260D03*
Y433071D03*
X856299Y460630D03*
X1109252Y501969D03*
X1095472Y529528D03*
X940945Y538386D03*
G54D82*
X523595Y137003D02*
X528368Y127160D01*
Y137003D02*
X523595Y127160D01*
X531436Y137003D02*
X536209Y127160D01*
Y137003D02*
X531436Y127160D01*
X539277Y137003D02*
X544050Y127160D01*
Y137003D02*
X539277Y127160D01*
G74*
X0Y0D02*
M02*
