*
*
G04 PADS 9.5 Build Number: 522968 generated Gerber (RS-274-X) file*
G04 PC Version=2.1*
*
%IN "RF-GEN_PWR_V1.0_PCB_201"*%
*
%MOIN*%
*
%FSLAX35Y35*%
*
*
*
*
G04 PC Standard Apertures*
*
*
G04 Thermal Relief Aperture macro.*
%AMTER*
1,1,$1,0,0*
1,0,$1-$2,0,0*
21,0,$3,$4,0,0,45*
21,0,$3,$4,0,0,135*
%
*
*
G04 Annular Aperture macro.*
%AMANN*
1,1,$1,0,0*
1,0,$2,0,0*
%
*
*
G04 Odd Aperture macro.*
%AMODD*
1,1,$1,0,0*
1,0,$1-0.005,0,0*
%
*
*
G04 PC Custom Aperture Macros*
*
*
*
*
*
*
G04 PC Aperture Table*
*
%ADD011C,0.01*%
%ADD013C,0.006*%
%ADD016C,0.005*%
%ADD034C,0.04*%
%ADD038C,0.00004*%
%ADD040C,0.06693*%
%ADD041C,0.09055*%
%ADD043O,0.07874X0.19685*%
%ADD044C,0.10236*%
%ADD045C,0.07874*%
%ADD046C,0.11811*%
%ADD049R,0.09843X0.06693*%
%ADD050O,0.09843X0.06693*%
%ADD051C,0.1378*%
%ADD052C,0.08*%
%ADD053C,0.07*%
%ADD054C,0.09843*%
%ADD055R,0.11811X0.11811*%
%ADD056C,0.07087*%
%ADD057C,0.12598*%
%ADD058R,0.06X0.06*%
%ADD059R,0.08X0.08*%
%ADD075C,0.11024*%
%ADD077O,0.07X0.09*%
%ADD078O,0.09X0.07*%
%ADD080C,0.04724*%
%ADD081C,0.02953*%
%ADD082C,0.02*%
*
*
*
*
G04 PC Circuitry*
G04 Layer Name RF-GEN_PWR_V1.0_PCB_201 - circuitry*
%LPD*%
*
*
G04 PC Custom Flashes*
G04 Layer Name RF-GEN_PWR_V1.0_PCB_201 - flashes*
%LPD*%
*
*
G04 PC Circuitry*
G04 Layer Name RF-GEN_PWR_V1.0_PCB_201 - circuitry*
%LPD*%
*
G54D11*
G01X1137508Y216535D02*
G75*
G03X1137508I-15461J0D01*
G01X1131012Y303150D02*
G03X1131012I-5028J0D01*
G01X1111327Y395669D02*
G03X1111327I-5028J0D01*
G01X1137508Y570866D02*
G03X1137508I-15461J0D01*
G01X1094595Y444882D02*
G03X1094595I-4044J0D01*
G01Y456693D02*
G03X1094595I-4044J0D01*
G01Y492126D02*
G03X1094595I-4044J0D01*
G01X1082783Y468504D02*
G03X1082783I-4043J0D01*
G01Y480315D02*
G03X1082783I-4043J0D01*
G01X1058177Y222441D02*
G03X1058177I-5027J0D01*
G01X1063098Y433071D02*
G03X1063098I-4043J0D01*
G01Y444882D02*
G03X1063098I-4043J0D01*
G01Y456693D02*
G03X1063098I-4043J0D01*
G01X996169Y309055D02*
G03X996169I-4043J0D01*
G01X1019791Y433071D02*
G03X1019791I-4043J0D01*
G01Y444882D02*
G03X1019791I-4043J0D01*
G01Y456693D02*
G03X1019791I-4043J0D01*
G01X1007980Y409449D02*
G03X1007980I-4043J0D01*
G01Y421260D02*
G03X1007980I-4043J0D01*
G01Y433071D02*
G03X1007980I-4043J0D01*
G01Y444882D02*
G03X1007980I-4043J0D01*
G01Y456693D02*
G03X1007980I-4043J0D01*
G01Y468504D02*
G03X1007980I-4043J0D01*
G01Y480315D02*
G03X1007980I-4043J0D01*
G01X996169Y433071D02*
G03X996169I-4043J0D01*
G01Y444882D02*
G03X996169I-4043J0D01*
G01X968610Y309055D02*
G03X968610I-4043J0D01*
G01X973630Y328740D02*
G03X973630I-3158J0D01*
G01X981012Y519685D02*
G03X981012I-6603J0D01*
G01Y539370D02*
G03X981012I-6603J0D01*
G01X949614Y247638D02*
G03X949614I-3157J0D01*
G01X936228Y297244D02*
G03X936228I-3157J0D01*
G01X912508Y559055D02*
G03X912508I-5028J0D01*
G01X895677Y527559D02*
G03X895677I-6799J0D01*
G01X864181Y326772D02*
G03X864181I-3157J0D01*
G01X860441Y385827D02*
G03X860441I-3158J0D01*
G01X859457Y460630D02*
G03X859457I-3158J0D01*
G01X847252Y284685D02*
G03X847252I-3158J0D01*
G01X847646Y409055D02*
G03X847646I-3158J0D01*
G01X839772Y326772D02*
G03X839772I-3158J0D01*
G01Y375984D02*
G03X839772I-3158J0D01*
G01X809260Y297244D02*
G03X809260I-3158J0D01*
G01Y316929D02*
G03X809260I-3158J0D01*
G01Y372047D02*
G03X809260I-3158J0D01*
G01X810244Y446850D02*
G03X810244I-3157J0D01*
G01X820677Y527559D02*
G03X820677I-6799J0D01*
G01X762016Y218504D02*
G03X762016I-3158J0D01*
G01X774600Y488189D02*
G03X774600I-8852J0D01*
G01X745283Y442913D02*
G03X745283I-3157J0D01*
G01X737409Y242126D02*
G03X737409I-3157J0D01*
G01X733472Y413386D02*
G03X733472I-3157J0D01*
G01Y448819D02*
G03X733472I-3157J0D01*
G01X750978Y488189D02*
G03X750978I-8852J0D01*
G01X711819Y242126D02*
G03X711819I-3158J0D01*
G01X704437Y216535D02*
G03X704437I-15461J0D01*
G01X693610Y478346D02*
G03X693610I-6602J0D01*
G01X695860Y498031D02*
G03X695860I-8852J0D01*
G01X704437Y570866D02*
G03X704437I-15461J0D01*
G01X648851Y220472D02*
G03X648851I-7193J0D01*
G01X665854Y268701D02*
G03X665854I-10342J0D01*
G01Y337598D02*
G03X665854I-10342J0D01*
G01X665475Y527559D02*
G03X665475I-6026J0D01*
G01X664630Y547244D02*
G03X664630I-5181J0D01*
G01X633251Y220472D02*
G03X633251I-7193J0D01*
G01X646366Y478346D02*
G03X646366I-6602J0D01*
G01X648615Y498031D02*
G03X648615I-8851J0D01*
G01X635947Y527559D02*
G03X635947I-6026J0D01*
G01X635102Y547244D02*
G03X635102I-5181J0D01*
G01X617232Y366142D02*
G03X617232I-5027J0D01*
G01X621169Y448819D02*
G03X621169I-5027J0D01*
G01X575894Y250000D02*
G03X575894I-5028J0D01*
G01X583177Y349409D02*
G03X583177I-10342J0D01*
G01Y418307D02*
G03X583177I-10342J0D01*
G01X584555Y474409D02*
G03X584555I-10342J0D01*
G01Y545276D02*
G03X584555I-10342J0D01*
G01X544398Y208661D02*
G03X544398I-5028J0D01*
G01X499276Y259843D02*
G03X499276I-5182J0D01*
G01X500697Y301181D02*
G03X500697I-6603J0D01*
G01X480435Y259843D02*
G03X480435I-6026J0D01*
G01X483261Y301181D02*
G03X483261I-8852J0D01*
G01X480112Y338976D02*
G03X480112I-8852J0D01*
G01Y368110D02*
G03X480112I-8852J0D01*
G01X490854Y482283D02*
G03X490854I-8571J0D01*
G01X449797Y301181D02*
G03X449797I-8852J0D01*
G01X428846Y255906D02*
G03X428846I-15460J0D01*
G01X427862Y301181D02*
G03X427862I-6602J0D01*
G01X412158Y338583D02*
G03X412158I-5682J0D01*
G01Y368110D02*
G03X412158I-5682J0D01*
G01X435146Y481890D02*
G03X435146I-12311J0D01*
G01X410539Y539370D02*
G03X410539I-5027J0D01*
G01X428846Y570866D02*
G03X428846I-15460J0D01*
G01X1140051Y204724D02*
Y582677D01*
G03X1133858Y588870I-6193J0*
G01X401575*
G03X395382Y582677I-0J-6193*
G01Y412639*
G03X396318Y412395I500J0*
G01Y406503D02*
G03Y412395I5257J2946D01*
G01Y406503D02*
G03X395382Y406259I-436J-244D01*
G01Y204724*
G03X401575Y198532I6193J0*
G01X1133858*
G03X1140051Y204724I0J6192*
G01X1137508Y216535D02*
G03X1137508I-15461J0D01*
G01X1131012Y303150D02*
G03X1131012I-5028J0D01*
G01X1111327Y395669D02*
G03X1111327I-5028J0D01*
G01X1110106Y432102D02*
Y430102D01*
X1099744D02*
G03X1110106I5181J0D01*
G01X1099744D02*
Y432102D01*
X1110106D02*
G03X1099744I-5181J0D01*
G01X1110106Y471472D02*
Y469472D01*
X1099744D02*
G03X1110106I5181J0D01*
G01X1099744D02*
Y471472D01*
X1110106D02*
G03X1099744I-5181J0D01*
G01X1137508Y570866D02*
G03X1137508I-15461J0D01*
G01X1097106Y432102D02*
Y430102D01*
X1086744D02*
G03X1097106I5181J0D01*
G01X1086744D02*
Y432102D01*
X1097106D02*
G03X1086744I-5181J0D01*
G01X1084695Y411851D02*
G03X1083026Y419383I-2018J3503D01*
G01X1084695Y411851D02*
G03Y410984I250J-434D01*
G01Y403977D02*
G03Y410984I-2018J3503D01*
G01Y403977D02*
G03Y403110I250J-434D01*
G01X1079173Y397588D02*
G03X1084695Y403110I3504J2018D01*
G01X1079173Y397588D02*
G03X1078307I-433J-249D01*
G01X1072785Y403110D02*
G03X1078307Y397588I2018J-3504D01*
G01X1072785Y403110D02*
G03Y403977I-249J433D01*
G01Y410984D02*
G03Y403977I2018J-3504D01*
G01Y410984D02*
G03Y411851I-249J433D01*
G01X1074454Y419383D02*
G03X1072785Y411851I349J-4029D01*
G01X1074454Y419383D02*
G03X1074888Y420032I-43J498D01*
G01X1082593D02*
G03X1074888I-3853J1228D01*
G01X1082593D02*
G03X1083026Y419383I476J-151D01*
G01X1094595Y444882D02*
G03X1094595I-4044J0D01*
G01Y456693D02*
G03X1094595I-4044J0D01*
G01X1097106Y471472D02*
Y469472D01*
X1086744D02*
G03X1097106I5181J0D01*
G01X1086744D02*
Y471472D01*
X1097106D02*
G03X1086744I-5181J0D01*
G01X1094595Y492126D02*
G03X1094595I-4044J0D01*
G01X1075236Y431053D02*
G03Y435089I3504J2018D01*
G01Y431053D02*
G03X1074370I-433J-250D01*
G01Y435089D02*
G03Y431053I-3504J-2018D01*
G01Y435089D02*
G03X1075236I433J249D01*
G01Y442864D02*
G03Y446900I3504J2018D01*
G01Y442864D02*
G03X1074370I-433J-250D01*
G01Y446900D02*
G03Y442864I-3504J-2018D01*
G01Y446900D02*
G03X1075236I433J249D01*
G01Y454675D02*
G03Y458711I3504J2018D01*
G01Y454675D02*
G03X1074370I-433J-250D01*
G01Y458711D02*
G03Y454675I-3504J-2018D01*
G01Y458711D02*
G03X1075236I433J249D01*
G01X1082783Y468504D02*
G03X1082783I-4043J0D01*
G01Y480315D02*
G03X1082783I-4043J0D01*
G01X1058177Y222441D02*
G03X1058177I-5027J0D01*
G01X1063098Y433071D02*
G03X1063098I-4043J0D01*
G01Y444882D02*
G03X1063098I-4043J0D01*
G01Y456693D02*
G03X1063098I-4043J0D01*
G01X1075236Y490108D02*
G03Y494144I3504J2018D01*
G01Y490108D02*
G03X1074370I-433J-250D01*
G01X1067362D02*
G03X1074370I3504J2018D01*
G01X1067362D02*
G03X1066496I-433J-250D01*
G01Y494144D02*
G03Y490108I-3504J-2018D01*
G01Y494144D02*
G03X1067362I433J250D01*
G01X1074370D02*
G03X1067362I-3504J-2018D01*
G01X1074370D02*
G03X1075236I433J250D01*
G01X1008307Y247982D02*
G03Y252018I3504J2018D01*
G01Y247982D02*
G03X1007441I-433J-250D01*
G01X1000864Y252628D02*
G03X1007441Y247982I3073J-2628D01*
G01X1000864Y252628D02*
G03Y253278I-380J325D01*
G01X1007010D02*
G03X1000864I-3073J2628D01*
G01X1007010D02*
G03Y252628I380J-325D01*
G01X1007441Y252018D02*
G03X1007010Y252628I-3504J-2018D01*
G01X1007441Y252018D02*
G03X1008307I433J250D01*
G01X987530Y231179D02*
G03Y237325I2627J3073D01*
G01Y231179D02*
G03X986880I-325J-380D01*
G01X981624D02*
G03X986880I2628J3073D01*
G01X981624D02*
G03X980974I-325J-380D01*
G01Y237325D02*
G03Y231179I-2628J-3073D01*
G01Y237325D02*
G03X981624I325J380D01*
G01X986880D02*
G03X981624I-2628J-3073D01*
G01X986880D02*
G03X987530I325J380D01*
G01X996169Y309055D02*
G03X996169I-4043J0D01*
G01X1016181Y340502D02*
G03Y344538I3504J2018D01*
G01Y340502D02*
G03X1015315I-433J-250D01*
G01X1008307D02*
G03X1015315I3504J2018D01*
G01X1008307D02*
G03X1007441I-433J-250D01*
G01X1000433D02*
G03X1007441I3504J2018D01*
G01X1000433D02*
G03X999567I-433J-250D01*
G01Y344538D02*
G03Y340502I-3504J-2018D01*
G01Y344538D02*
G03X1000433I433J249D01*
G01X1007441D02*
G03X1000433I-3504J-2018D01*
G01X1007441D02*
G03X1008307I433J249D01*
G01X1015315D02*
G03X1008307I-3504J-2018D01*
G01X1015315D02*
G03X1016181I433J249D01*
G01X1019791Y433071D02*
G03X1019791I-4043J0D01*
G01Y444882D02*
G03X1019791I-4043J0D01*
G01Y456693D02*
G03X1019791I-4043J0D01*
G01X1007980Y409449D02*
G03X1007980I-4043J0D01*
G01Y421260D02*
G03X1007980I-4043J0D01*
G01Y433071D02*
G03X1007980I-4043J0D01*
G01Y444882D02*
G03X1007980I-4043J0D01*
G01Y456693D02*
G03X1007980I-4043J0D01*
G01Y468504D02*
G03X1007980I-4043J0D01*
G01Y480315D02*
G03X1007980I-4043J0D01*
G01X996169Y433071D02*
G03X996169I-4043J0D01*
G01Y444882D02*
G03X996169I-4043J0D01*
G01X981419Y280837D02*
G03X974843Y285483I-3073J2628D01*
G01X981419Y280837D02*
G03Y280187I380J-325D01*
G01X974843Y275541D02*
G03X981419Y280187I3503J2018D01*
G01X974843Y275541D02*
G03X973976I-434J-249D01*
G01X967399Y280187D02*
G03X973976Y275541I3073J-2628D01*
G01X967399Y280187D02*
G03Y280837I-380J325D01*
G01X973976Y285483D02*
G03X967399Y280837I-3504J-2018D01*
G01X973976Y285483D02*
G03X974843I433J249D01*
G01X968610Y309055D02*
G03X968610I-4043J0D01*
G01X973630Y328740D02*
G03X973630I-3158J0D01*
G01X981012Y519685D02*
G03X981012I-6603J0D01*
G01Y539370D02*
G03X981012I-6603J0D01*
G01X949614Y247638D02*
G03X949614I-3157J0D01*
G01X936228Y297244D02*
G03X936228I-3157J0D01*
G01X938112Y328081D02*
G03X932412Y333782I-3073J2628D01*
G01X938112Y328081D02*
G03Y327431I380J-325D01*
G01X932412Y321730D02*
G03X938112Y327431I2627J3073D01*
G01X932412Y321730D02*
G03X931762I-325J-380D01*
G01X926061Y327431D02*
G03X931762Y321730I3073J-2628D01*
G01X926061Y327431D02*
G03Y328081I-380J325D01*
G01X931762Y333782D02*
G03X926061Y328081I-2628J-3073D01*
G01X931762Y333782D02*
G03X932412I325J380D01*
G01X904043Y236220D02*
Y208661D01*
X903897Y208308D02*
G03X904043Y208661I-354J353D01*
G01X903897Y208308D02*
X901928Y206339D01*
X901575Y206193D02*
G03X901928Y206339I-0J500D01*
G01X901575Y206193D02*
X866142D01*
X865788Y206339D02*
G03X866142Y206193I354J354D01*
G01X865788Y206339D02*
X863820Y208308D01*
X863673Y208661D02*
G03X863820Y208308I500J0D01*
G01X863673Y208661D02*
Y213604D01*
G03X863419Y214039I-500J-0*
G01X862703Y214833D02*
G03X863419Y214039I1541J671D01*
G01X862703Y214833D02*
G03X861786I-459J-199D01*
G01X860244Y213823D02*
G03X861786Y214833I0J1681D01*
G01X860244Y213823D02*
X854244D01*
X852703Y214833D02*
G03X854244Y213823I1541J671D01*
G01X852703Y214833D02*
G03X851786I-459J-199D01*
G01X850244Y213823D02*
G03X851786Y214833I0J1681D01*
G01X850244Y213823D02*
X844244D01*
X842703Y214833D02*
G03X844244Y213823I1541J671D01*
G01X842703Y214833D02*
G03X841786I-459J-199D01*
G01X840244Y213823D02*
G03X841786Y214833I0J1681D01*
G01X840244Y213823D02*
X834244D01*
X832703Y214833D02*
G03X834244Y213823I1541J671D01*
G01X832703Y214833D02*
G03X831786I-459J-199D01*
G01X830244Y213823D02*
G03X831786Y214833I0J1681D01*
G01X830244Y213823D02*
X824244D01*
X822703Y214833D02*
G03X824244Y213823I1541J671D01*
G01X822703Y214833D02*
G03X821786I-459J-199D01*
G01X820244Y213823D02*
G03X821786Y214833I0J1681D01*
G01X820244Y213823D02*
X814244D01*
X812703Y214833D02*
G03X814244Y213823I1541J671D01*
G01X812703Y214833D02*
G03X811786I-459J-199D01*
G01X810244Y213823D02*
G03X811786Y214833I0J1681D01*
G01X810244Y213823D02*
X804244D01*
X802703Y214833D02*
G03X804244Y213823I1541J671D01*
G01X802703Y214833D02*
G03X801786I-459J-199D01*
G01X800244Y213823D02*
G03X801786Y214833I0J1681D01*
G01X800244Y213823D02*
X794244D01*
X792563Y215504D02*
G03X794244Y213823I1681J-0D01*
G01X792563Y215504D02*
Y221504D01*
X793573Y223045D02*
G03X792563Y221504I671J-1541D01*
G01X793573Y223045D02*
G03Y223962I-199J459D01*
G01X792563Y225504D02*
G03X793573Y223962I1681J-0D01*
G01X792563Y225504D02*
Y231504D01*
X794244Y233185D02*
G03X792563Y231504I0J-1681D01*
G01X794244Y233185D02*
X800244D01*
X801786Y232175D02*
G03X800244Y233185I-1542J-671D01*
G01X801786Y232175D02*
G03X802703I458J199D01*
G01X804244Y233185D02*
G03X802703Y232175I0J-1681D01*
G01X804244Y233185D02*
X810244D01*
X811786Y232175D02*
G03X810244Y233185I-1542J-671D01*
G01X811786Y232175D02*
G03X812703I458J199D01*
G01X814244Y233185D02*
G03X812703Y232175I0J-1681D01*
G01X814244Y233185D02*
X820244D01*
X821786Y232175D02*
G03X820244Y233185I-1542J-671D01*
G01X821786Y232175D02*
G03X822703I458J199D01*
G01X824244Y233185D02*
G03X822703Y232175I0J-1681D01*
G01X824244Y233185D02*
X830244D01*
X831786Y232175D02*
G03X830244Y233185I-1542J-671D01*
G01X831786Y232175D02*
G03X832703I458J199D01*
G01X834244Y233185D02*
G03X832703Y232175I0J-1681D01*
G01X834244Y233185D02*
X840244D01*
X841786Y232175D02*
G03X840244Y233185I-1542J-671D01*
G01X841786Y232175D02*
G03X842703I458J199D01*
G01X844244Y233185D02*
G03X842703Y232175I0J-1681D01*
G01X844244Y233185D02*
X850244D01*
X851786Y232175D02*
G03X850244Y233185I-1542J-671D01*
G01X851786Y232175D02*
G03X852703I458J199D01*
G01X854244Y233185D02*
G03X852703Y232175I0J-1681D01*
G01X854244Y233185D02*
X860244D01*
X861786Y232175D02*
G03X860244Y233185I-1542J-671D01*
G01X861786Y232175D02*
G03X862703I458J199D01*
G01X863419Y232968D02*
G03X862703Y232175I825J-1464D01*
G01X863419Y232968D02*
G03X863673Y233404I-246J436D01*
G01Y236220*
X863820Y236574D02*
G03X863673Y236220I353J-354D01*
G01X863820Y236574D02*
X865788Y238543D01*
X866142Y238689D02*
G03X865788Y238543I-0J-500D01*
G01X866142Y238689D02*
X901575D01*
X901928Y238543D02*
G03X901575Y238689I-353J-354D01*
G01X901928Y238543D02*
X903897Y236574D01*
X904043Y236220D02*
G03X903897Y236574I-500J0D01*
G01X905224Y494094D02*
Y482283D01*
X893988D02*
G03X905224I5618J0D01*
G01X893988D02*
Y494094D01*
X905224D02*
G03X893988I-5618J0D01*
G01X912508Y559055D02*
G03X912508I-5028J0D01*
G01X883177Y494094D02*
Y482283D01*
X871941D02*
G03X883177I5618J0D01*
G01X871941D02*
Y494094D01*
X883177D02*
G03X871941I-5618J0D01*
G01X895677Y527559D02*
G03X895677I-6799J0D01*
G01X864181Y326772D02*
G03X864181I-3157J0D01*
G01X860441Y385827D02*
G03X860441I-3158J0D01*
G01X859457Y460630D02*
G03X859457I-3158J0D01*
G01X847252Y284685D02*
G03X847252I-3158J0D01*
G01X847646Y409055D02*
G03X847646I-3158J0D01*
G01X839772Y326772D02*
G03X839772I-3158J0D01*
G01Y375984D02*
G03X839772I-3158J0D01*
G01X840658Y494094D02*
Y482283D01*
X829421D02*
G03X840658I5618J0D01*
G01X829421D02*
Y494094D01*
X840658D02*
G03X829421I-5619J0D01*
G01X809260Y297244D02*
G03X809260I-3158J0D01*
G01Y316929D02*
G03X809260I-3158J0D01*
G01Y372047D02*
G03X809260I-3158J0D01*
G01X810244Y446850D02*
G03X810244I-3157J0D01*
G01X818610Y494094D02*
Y482283D01*
X807374D02*
G03X818610I5618J0D01*
G01X807374D02*
Y494094D01*
X818610D02*
G03X807374I-5618J0D01*
G01X820677Y527559D02*
G03X820677I-6799J0D01*
G01X825803Y553280D02*
G03Y563642I0J5181D01*
G01Y553280D02*
X823803D01*
Y563642D02*
G03Y553280I0J-5181D01*
G01Y563642D02*
X825803D01*
Y566280D02*
G03Y576642I0J5181D01*
G01Y566280D02*
X823803D01*
Y576642D02*
G03Y566280I0J-5181D01*
G01Y576642D02*
X825803D01*
X762016Y218504D02*
G03X762016I-3158J0D01*
G01X768821Y265089D02*
G03X761994Y266215I-3073J2628D01*
G01X768821Y265089D02*
G03Y264439I380J-325D01*
G01X763120Y258738D02*
G03X768821Y264439I2628J3073D01*
G01X763120Y258738D02*
G03X762470I-325J-380D01*
G01X761344Y265565D02*
G03X762470Y258738I-1501J-3754D01*
G01X761344Y265565D02*
G03X761994Y266215I186J465D01*
G01X751309Y359132D02*
G03Y365278I2628J3073D01*
G01Y359132D02*
G03X750659I-325J-380D01*
G01X745404D02*
G03X750659I2627J3073D01*
G01X745404D02*
G03X744754I-325J-380D01*
G01Y365278D02*
G03Y359132I-2628J-3073D01*
G01Y365278D02*
G03X745404I325J380D01*
G01X750659D02*
G03X745404I-2628J-3073D01*
G01X750659D02*
G03X751309I325J380D01*
G01X774600Y488189D02*
G03X774600I-8852J0D01*
G01X745283Y442913D02*
G03X745283I-3157J0D01*
G01X737409Y242126D02*
G03X737409I-3157J0D01*
G01X733472Y413386D02*
G03X733472I-3157J0D01*
G01Y448819D02*
G03X733472I-3157J0D01*
G01X750978Y488189D02*
G03X750978I-8852J0D01*
G01X764346Y571565D02*
G03Y578041I4591J3238D01*
G01Y571565D02*
G03X763528I-409J-288D01*
G01X754346D02*
G03X763528I4591J3238D01*
G01X754346D02*
G03X753528I-409J-288D01*
G01X744346D02*
G03X753528I4591J3238D01*
G01X744346D02*
G03X743528I-409J-288D01*
G01Y578041D02*
G03Y571565I-4591J-3238D01*
G01Y578041D02*
G03X744346I409J288D01*
G01X753528D02*
G03X744346I-4591J-3238D01*
G01X753528D02*
G03X754346I409J288D01*
G01X763528D02*
G03X754346I-4591J-3238D01*
G01X763528D02*
G03X764346I409J288D01*
G01X711819Y242126D02*
G03X711819I-3158J0D01*
G01X704437Y216535D02*
G03X704437I-15461J0D01*
G01X702805Y295709D02*
G03X697284Y301231I-2018J3504D01*
G01X702805Y295709D02*
G03Y294842I250J-433D01*
G01X697284Y289321D02*
G03X702805Y294842I3503J2018D01*
G01X697284Y289321D02*
G03X696417I-434J-250D01*
G01X690895Y294842D02*
G03X696417Y289321I2018J-3503D01*
G01X690895Y294842D02*
G03Y295709I-249J434D01*
G01X696417Y301231D02*
G03X690895Y295709I-3504J-2018D01*
G01X696417Y301231D02*
G03X697284I433J249D01*
G01X702805Y323268D02*
G03X697284Y328790I-2018J3504D01*
G01X702805Y323268D02*
G03Y322401I250J-433D01*
G01X697284Y316880D02*
G03X702805Y322401I3503J2018D01*
G01X697284Y316880D02*
G03X696417I-434J-250D01*
G01X690895Y322401D02*
G03X696417Y316880I2018J-3503D01*
G01X690895Y322401D02*
G03Y323268I-249J434D01*
G01X696417Y328790D02*
G03X690895Y323268I-3504J-2018D01*
G01X696417Y328790D02*
G03X697284I433J249D01*
G01X693610Y478346D02*
G03X693610I-6602J0D01*
G01X695860Y498031D02*
G03X695860I-8852J0D01*
G01X704437Y570866D02*
G03X704437I-15461J0D01*
G01X648851Y220472D02*
G03X648851I-7193J0D01*
G01X665854Y268701D02*
G03X665854I-10342J0D01*
G01Y337598D02*
G03X665854I-10342J0D01*
G01X665475Y527559D02*
G03X665475I-6026J0D01*
G01X664630Y547244D02*
G03X664630I-5181J0D01*
G01X633251Y220472D02*
G03X633251I-7193J0D01*
G01X646366Y478346D02*
G03X646366I-6602J0D01*
G01X629642Y298388D02*
G03Y307912I-3099J4762D01*
G01Y298388D02*
G03X629601Y297579I272J-419D01*
G01X622945Y297912D02*
G03X629601Y297579I3098J-4762D01*
G01X622945Y297912D02*
G03X622986Y298720I-273J419D01*
G01Y307579D02*
G03Y298720I3557J-4429D01*
G01Y307579D02*
G03X622945Y308388I-314J390D01*
G01X629601Y308720D02*
G03X622945Y308388I-3558J4430D01*
G01X629601Y308720D02*
G03X629642Y307912I313J-389D01*
G01X648615Y498031D02*
G03X648615I-8851J0D01*
G01X635947Y527559D02*
G03X635947I-6026J0D01*
G01X635102Y547244D02*
G03X635102I-5181J0D01*
G01X616724Y322150D02*
Y314150D01*
X615623Y312572D02*
G03X616724Y314150I-580J1578D01*
G01X615623Y312572D02*
G03X615411Y311783I172J-470D01*
G01X614383Y303554D02*
G03X615411Y311783I-3340J4596D01*
G01X614383Y303554D02*
G03Y302745I294J-404D01*
G01Y293554D02*
G03Y302745I-3340J4596D01*
G01Y293554D02*
G03Y292745I294J-404D01*
G01X607703D02*
G03X614383I3340J-4595D01*
G01X607703D02*
G03Y293554I-294J405D01*
G01Y302745D02*
G03Y293554I3340J-4595D01*
G01Y302745D02*
G03Y303554I-294J405D01*
G01X606676Y311783D02*
G03X607703Y303554I4367J-3633D01*
G01X606676Y311783D02*
G03X606464Y312572I-385J319D01*
G01X605362Y314150D02*
G03X606464Y312572I1681J-0D01*
G01X605362Y314150D02*
Y322150D01*
X607043Y323831D02*
G03X605362Y322150I0J-1681D01*
G01X607043Y323831D02*
X615043D01*
X616724Y322150D02*
G03X615043Y323831I-1681J-0D01*
G01X617232Y366142D02*
G03X617232I-5027J0D01*
G01X621169Y448819D02*
G03X621169I-5027J0D01*
G01X579135Y220573D02*
G03X574904Y224805I1731J5962D01*
G01X579135Y220573D02*
G03X578538Y219892I-139J-480D01*
G01Y213179D02*
G03Y219892I-7672J3356D01*
G01Y213179D02*
G03X579135Y212498I458J-201D01*
G01X574904Y208266D02*
G03X579135Y212498I5962J-1731D01*
G01X574904Y208266D02*
G03X574223Y208864I-481J140D01*
G01X567509D02*
G03X574223I3357J7671D01*
G01X567509D02*
G03X566829Y208266I-200J-458D01*
G01X562597Y212498D02*
G03X566829Y208266I-1731J-5963D01*
G01X562597Y212498D02*
G03X563194Y213179I139J480D01*
G01Y219892D02*
G03Y213179I7672J-3357D01*
G01Y219892D02*
G03X562597Y220573I-458J201D01*
G01X566829Y224805D02*
G03X562597Y220573I-5963J1730D01*
G01X566829Y224805D02*
G03X567509Y224207I480J-140D01*
G01X574223D02*
G03X567509I-3357J-7672D01*
G01X574223D02*
G03X574904Y224805I200J458D01*
G01X575894Y250000D02*
G03X575894I-5028J0D01*
G01X583177Y349409D02*
G03X583177I-10342J0D01*
G01Y418307D02*
G03X583177I-10342J0D01*
G01X584555Y474409D02*
G03X584555I-10342J0D01*
G01X582459Y515295D02*
G03X580315Y524870I-2144J4548D01*
G01X582459Y515295D02*
G03Y514390I213J-452D01*
G01X583269Y505775D02*
G03X582459Y514390I-2954J4068D01*
G01X583269Y505775D02*
G03X583563Y504870I294J-405D01*
G01X583661*
X585343Y503189D02*
G03X583661Y504870I-1682J-0D01*
G01X585343Y503189D02*
Y496496D01*
X583661Y494815D02*
G03X585343Y496496I0J1681D01*
G01X583661Y494815D02*
X573819D01*
X572138Y496496D02*
G03X573819Y494815I1681J0D01*
G01X572138Y496496D02*
Y503189D01*
X573819Y504870D02*
G03X572138Y503189I-0J-1681D01*
G01X573819Y504870D02*
X573917D01*
G03X574211Y505775I0J500*
G01X575022Y514390D02*
G03X574211Y505775I2143J-4547D01*
G01X575022Y514390D02*
G03Y515295I-213J453D01*
G01X577165Y524870D02*
G03X575022Y515295I0J-5027D01*
G01X577165Y524870D02*
X580315D01*
X584555Y545276D02*
G03X584555I-10342J0D01*
G01X544398Y208661D02*
G03X544398I-5028J0D01*
G01X554831Y397205D02*
Y390512D01*
X553150Y388831D02*
G03X554831Y390512I-0J1681D01*
G01X553150Y388831D02*
X553051D01*
G03X552758Y387926I0J-500*
G01X551947Y379311D02*
G03X552758Y387926I-2144J4547D01*
G01X551947Y379311D02*
G03Y378406I213J-453D01*
G01X549803Y368831D02*
G03X551947Y378406I0J5027D01*
G01X549803Y368831D02*
X546654D01*
X544510Y378406D02*
G03X546654Y368831I2144J-4548D01*
G01X544510Y378406D02*
G03Y379311I-213J452D01*
G01X543699Y387926D02*
G03X544510Y379311I2955J-4068D01*
G01X543699Y387926D02*
G03X543405Y388831I-294J405D01*
G01X543307*
X541626Y390512D02*
G03X543307Y388831I1681J-0D01*
G01X541626Y390512D02*
Y397205D01*
X543307Y398886D02*
G03X541626Y397205I0J-1681D01*
G01X543307Y398886D02*
X553150D01*
X554831Y397205D02*
G03X553150Y398886I-1681J-0D01*
G01X504183Y218454D02*
G03Y222491I7313J2018D01*
G01Y218454D02*
G03X503219I-482J-133D01*
G01Y222491D02*
G03Y218454I-7313J-2019D01*
G01Y222491D02*
G03X504183I482J133D01*
G01X499276Y259843D02*
G03X499276I-5182J0D01*
G01X500697Y301181D02*
G03X500697I-6603J0D01*
G01X477656Y216496D02*
G03Y224449I2659J3976D01*
G01Y216496D02*
G03X476878Y216080I-278J-416D01*
G01Y210630*
X476732Y210276D02*
G03X476878Y210630I-354J354D01*
G01X476732Y210276D02*
X474763Y208308D01*
X474409Y208161D02*
G03X474763Y208308I0J500D01*
G01X474409Y208161D02*
X438976D01*
X438623Y208308D02*
G03X438976Y208161I353J353D01*
G01X438623Y208308D02*
X436654Y210276D01*
X436508Y210630D02*
G03X436654Y210276I500J-0D01*
G01X436508Y210630D02*
Y230315D01*
X436654Y230669D02*
G03X436508Y230315I354J-354D01*
G01X436654Y230669D02*
X438623Y232637D01*
X438976Y232783D02*
G03X438623Y232637I0J-500D01*
G01X438976Y232783D02*
X474409D01*
X474763Y232637D02*
G03X474409Y232783I-354J-354D01*
G01X474763Y232637D02*
X476732Y230669D01*
X476878Y230315D02*
G03X476732Y230669I-500J-0D01*
G01X476878Y230315D02*
Y224865D01*
G03X477656Y224449I500J-0*
G01X480435Y259843D02*
G03X480435I-6026J0D01*
G01X483261Y301181D02*
G03X483261I-8852J0D01*
G01X480112Y338976D02*
G03X480112I-8852J0D01*
G01Y368110D02*
G03X480112I-8852J0D01*
G01X490854Y482283D02*
G03X490854I-8571J0D01*
G01X449797Y301181D02*
G03X449797I-8852J0D01*
G01X428846Y255906D02*
G03X428846I-15460J0D01*
G01X427862Y301181D02*
G03X427862I-6602J0D01*
G01X412158Y338583D02*
G03X412158I-5682J0D01*
G01Y368110D02*
G03X412158I-5682J0D01*
G01X435146Y481890D02*
G03X435146I-12311J0D01*
G01X410539Y539370D02*
G03X410539I-5027J0D01*
G01X428846Y570866D02*
G03X428846I-15460J0D01*
G01X1132730Y582043D02*
X1140051D01*
X1133598Y581143D02*
X1140051D01*
X1134340Y580243D02*
X1140051D01*
X1134977Y579343D02*
X1140051D01*
X1135524Y578443D02*
X1140051D01*
X1135992Y577543D02*
X1140051D01*
X1136388Y576643D02*
X1140051D01*
X1136719Y575743D02*
X1140051D01*
X1136988Y574843D02*
X1140051D01*
X1137199Y573943D02*
X1140051D01*
X1137354Y573043D02*
X1140051D01*
X1137455Y572143D02*
X1140051D01*
X1137503Y571243D02*
X1140051D01*
X1137499Y570343D02*
X1140051D01*
X1137442Y569443D02*
X1140051D01*
X1137332Y568543D02*
X1140051D01*
X1137168Y567643D02*
X1140051D01*
X1136948Y566743D02*
X1140051D01*
X1136669Y565843D02*
X1140051D01*
X1136328Y564943D02*
X1140051D01*
X1135921Y564043D02*
X1140051D01*
X1135441Y563143D02*
X1140051D01*
X1134880Y562243D02*
X1140051D01*
X1134227Y561343D02*
X1140051D01*
X1133466Y560443D02*
X1140051D01*
X1132574Y559543D02*
X1140051D01*
X1131514Y558643D02*
X1140051D01*
X1130221Y557743D02*
X1140051D01*
X1128557Y556843D02*
X1140051D01*
X1126088Y555943D02*
X1140051D01*
X910510Y555043D02*
X1140051D01*
X908551Y554143D02*
X1140051D01*
X580807Y553243D02*
X1140051D01*
X660369Y552343D02*
X1140051D01*
X662484Y551443D02*
X1140051D01*
X663444Y550543D02*
X1140051D01*
X664041Y549643D02*
X1140051D01*
X664408Y548743D02*
X1140051D01*
X664595Y547843D02*
X1140051D01*
X664621Y546943D02*
X1140051D01*
X664489Y546043D02*
X1140051D01*
X977614Y545143D02*
X1140051D01*
X978865Y544243D02*
X1140051D01*
X979683Y543343D02*
X1140051D01*
X980253Y542443D02*
X1140051D01*
X980644Y541543D02*
X1140051D01*
X980888Y540643D02*
X1140051D01*
X981001Y539743D02*
X1140051D01*
X980991Y538843D02*
X1140051D01*
X980856Y537943D02*
X1140051D01*
X980588Y537043D02*
X1140051D01*
X980169Y536143D02*
X1140051D01*
X979563Y535243D02*
X1140051D01*
X978689Y534343D02*
X1140051D01*
X977318Y533443D02*
X1140051D01*
X893503Y532543D02*
X1140051D01*
X894314Y531643D02*
X1140051D01*
X894886Y530743D02*
X1140051D01*
X895282Y529843D02*
X1140051D01*
X895535Y528943D02*
X1140051D01*
X895660Y528043D02*
X1140051D01*
X895664Y527143D02*
X1140051D01*
X975176Y526243D02*
X1140051D01*
X977813Y525343D02*
X1140051D01*
X978987Y524443D02*
X1140051D01*
X979768Y523543D02*
X1140051D01*
X980312Y522643D02*
X1140051D01*
X980683Y521743D02*
X1140051D01*
X980910Y520843D02*
X1140051D01*
X981007Y519943D02*
X1140051D01*
X980981Y519043D02*
X1140051D01*
X980829Y518143D02*
X1140051D01*
X980544Y517243D02*
X1140051D01*
X980103Y516343D02*
X1140051D01*
X979469Y515443D02*
X1140051D01*
X978551Y514543D02*
X1140051D01*
X977071Y513643D02*
X1140051D01*
X584422Y512743D02*
X1140051D01*
X584927Y511843D02*
X1140051D01*
X585221Y510943D02*
X1140051D01*
X585339Y510043D02*
X1140051D01*
X585294Y509143D02*
X1140051D01*
X585081Y508243D02*
X1140051D01*
X584677Y507343D02*
X1140051D01*
X689765Y506443D02*
X1140051D01*
X691691Y505543D02*
X1140051D01*
X692894Y504643D02*
X1140051D01*
X693771Y503743D02*
X1140051D01*
X694438Y502843D02*
X1140051D01*
X694949Y501943D02*
X1140051D01*
X695332Y501043D02*
X1140051D01*
X695604Y500143D02*
X1140051D01*
X901855Y499243D02*
X1140051D01*
X903283Y498343D02*
X1140051D01*
X904118Y497443D02*
X1140051D01*
X904663Y496543D02*
X1140051D01*
X1092546Y495643D02*
X1140051D01*
X1093634Y494743D02*
X1140051D01*
X1094212Y493843D02*
X1140051D01*
X1094511Y492943D02*
X1140051D01*
X1094594Y492043D02*
X1140051D01*
X1094473Y491143D02*
X1140051D01*
X1094129Y490243D02*
X1140051D01*
X1093484Y489343D02*
X1140051D01*
X1092219Y488443D02*
X1140051D01*
X905224Y487543D02*
X1140051D01*
X905224Y486643D02*
X1140051D01*
X905224Y485743D02*
X1140051D01*
X905224Y484843D02*
X1140051D01*
X1080525Y483943D02*
X1140051D01*
X1081725Y483043D02*
X1140051D01*
X1082347Y482143D02*
X1140051D01*
X1082676Y481243D02*
X1140051D01*
X1082783Y480343D02*
X1140051D01*
X1082688Y479443D02*
X1140051D01*
X1082374Y478543D02*
X1140051D01*
X1081775Y477643D02*
X1140051D01*
X1080634Y476743D02*
X1140051D01*
X1107708Y475843D02*
X1140051D01*
X1108772Y474943D02*
X1140051D01*
X1109424Y474043D02*
X1140051D01*
X1109830Y473143D02*
X1140051D01*
X1110049Y472243D02*
X1140051D01*
X1110106Y471343D02*
X1140051D01*
X1110106Y470443D02*
X1140051D01*
X1110106Y469543D02*
X1140051D01*
X1110039Y468643D02*
X1140051D01*
X1109809Y467743D02*
X1140051D01*
X1109389Y466843D02*
X1140051D01*
X1108718Y465943D02*
X1140051D01*
X1107613Y465043D02*
X1140051D01*
X575463Y464143D02*
X1140051D01*
X858072Y463243D02*
X1140051D01*
X858952Y462343D02*
X1140051D01*
X859350Y461443D02*
X1140051D01*
X1091787Y460543D02*
X1140051D01*
X1093316Y459643D02*
X1140051D01*
X1094036Y458743D02*
X1140051D01*
X1094428Y457843D02*
X1140051D01*
X1094587Y456943D02*
X1140051D01*
X1094542Y456043D02*
X1140051D01*
X1094286Y455143D02*
X1140051D01*
X1093768Y454243D02*
X1140051D01*
X1092815Y453343D02*
X1140051D01*
X619627Y452443D02*
X1140051D01*
X731912Y451543D02*
X1140051D01*
X732892Y450643D02*
X1140051D01*
X808353Y449743D02*
X1140051D01*
X1091363Y448843D02*
X1140051D01*
X1093193Y447943D02*
X1140051D01*
X1093969Y447043D02*
X1140051D01*
X1094393Y446143D02*
X1140051D01*
X1094578Y445243D02*
X1140051D01*
X1094558Y444343D02*
X1140051D01*
X1094330Y443443D02*
X1140051D01*
X1093849Y442543D02*
X1140051D01*
X1092971Y441643D02*
X1140051D01*
X744419Y440743D02*
X1140051D01*
X742862Y439843D02*
X1140051D01*
X395382Y438943D02*
X1140051D01*
X395382Y438043D02*
X1140051D01*
X1106124Y437143D02*
X1140051D01*
X1108040Y436243D02*
X1140051D01*
X1108968Y435343D02*
X1140051D01*
X1109548Y434443D02*
X1140051D01*
X1109902Y433543D02*
X1140051D01*
X1110078Y432643D02*
X1140051D01*
X1110106Y431743D02*
X1140051D01*
X1110106Y430843D02*
X1140051D01*
X1110104Y429943D02*
X1140051D01*
X1109997Y429043D02*
X1140051D01*
X1109721Y428143D02*
X1140051D01*
X1109246Y427243D02*
X1140051D01*
X1108490Y426343D02*
X1140051D01*
X1107191Y425443D02*
X1140051D01*
X1081100Y424543D02*
X1140051D01*
X1082007Y423643D02*
X1140051D01*
X1082502Y422743D02*
X1140051D01*
X1082741Y421843D02*
X1140051D01*
X1082771Y420943D02*
X1140051D01*
X1082596Y420043D02*
X1140051D01*
X1084090Y419143D02*
X1140051D01*
X1085507Y418243D02*
X1140051D01*
X1086198Y417343D02*
X1140051D01*
X1086571Y416443D02*
X1140051D01*
X1086716Y415543D02*
X1140051D01*
X1086657Y414643D02*
X1140051D01*
X1086385Y413743D02*
X1140051D01*
X1085846Y412843D02*
X1140051D01*
X1084847Y411943D02*
X1140051D01*
X1084613Y411043D02*
X1140051D01*
X1085720Y410143D02*
X1140051D01*
X1086316Y409243D02*
X1140051D01*
X1086627Y408343D02*
X1140051D01*
X1086720Y407443D02*
X1140051D01*
X1086610Y406543D02*
X1140051D01*
X1086279Y405643D02*
X1140051D01*
X1085653Y404743D02*
X1140051D01*
X1084544Y403843D02*
X1140051D01*
X1084961Y402943D02*
X1140051D01*
X1085904Y402043D02*
X1140051D01*
X1086417Y401143D02*
X1140051D01*
X1108387Y400243D02*
X1140051D01*
X1109732Y399343D02*
X1140051D01*
X1110493Y398443D02*
X1140051D01*
X1110965Y397543D02*
X1140051D01*
X1111232Y396643D02*
X1140051D01*
X1111326Y395743D02*
X1140051D01*
X1111258Y394843D02*
X1140051D01*
X1111021Y393943D02*
X1140051D01*
X1110586Y393043D02*
X1140051D01*
X1109883Y392143D02*
X1140051D01*
X1108683Y391243D02*
X1140051D01*
X554822Y390343D02*
X1140051D01*
X554447Y389443D02*
X1140051D01*
X858894Y388543D02*
X1140051D01*
X859866Y387643D02*
X1140051D01*
X860305Y386743D02*
X1140051D01*
X860441Y385843D02*
X1140051D01*
X860315Y384943D02*
X1140051D01*
X859889Y384043D02*
X1140051D01*
X858947Y383143D02*
X1140051D01*
X554564Y382243D02*
X1140051D01*
X554156Y381343D02*
X1140051D01*
X553492Y380443D02*
X1140051D01*
X552383Y379543D02*
X1140051D01*
X838318Y378643D02*
X1140051D01*
X839237Y377743D02*
X1140051D01*
X839653Y376843D02*
X1140051D01*
X839771Y375943D02*
X1140051D01*
X839628Y375043D02*
X1140051D01*
X839179Y374143D02*
X1140051D01*
X838181Y373243D02*
X1140051D01*
X809246Y372343D02*
X1140051D01*
X809201Y371443D02*
X1140051D01*
X808878Y370543D02*
X1140051D01*
X808149Y369643D02*
X1140051D01*
X616507Y368743D02*
X1140051D01*
X616936Y367843D02*
X1140051D01*
X617168Y366943D02*
X1140051D01*
X755209Y366043D02*
X1140051D01*
X756715Y365143D02*
X1140051D01*
X757429Y364243D02*
X1140051D01*
X757817Y363343D02*
X1140051D01*
X757973Y362443D02*
X1140051D01*
X757926Y361543D02*
X1140051D01*
X757666Y360643D02*
X1140051D01*
X757144Y359743D02*
X1140051D01*
X756183Y358843D02*
X1140051D01*
X578678Y357943D02*
X1140051D01*
X579813Y357043D02*
X1140051D01*
X580685Y356143D02*
X1140051D01*
X581375Y355243D02*
X1140051D01*
X581925Y354343D02*
X1140051D01*
X582358Y353443D02*
X1140051D01*
X582691Y352543D02*
X1140051D01*
X582933Y351643D02*
X1140051D01*
X583091Y350743D02*
X1140051D01*
X583168Y349843D02*
X1140051D01*
X583167Y348943D02*
X1140051D01*
X583086Y348043D02*
X1140051D01*
X659496Y347143D02*
X1140051D01*
X1021262Y346243D02*
X1140051D01*
X1022580Y345343D02*
X1140051D01*
X1023242Y344443D02*
X1140051D01*
X1023597Y343543D02*
X1140051D01*
X1023726Y342643D02*
X1140051D01*
X1023653Y341743D02*
X1140051D01*
X1023364Y340843D02*
X1140051D01*
X1022801Y339943D02*
X1140051D01*
X1021749Y339043D02*
X1140051D01*
X665840Y338143D02*
X1140051D01*
X665848Y337243D02*
X1140051D01*
X665778Y336343D02*
X1140051D01*
X665627Y335443D02*
X1140051D01*
X936323Y334543D02*
X1140051D01*
X937821Y333643D02*
X1140051D01*
X938534Y332743D02*
X1140051D01*
X971059Y331843D02*
X1140051D01*
X972735Y330943D02*
X1140051D01*
X973349Y330043D02*
X1140051D01*
X973604Y329143D02*
X1140051D01*
X973591Y328243D02*
X1140051D01*
X973304Y327343D02*
X1140051D01*
X972639Y326443D02*
X1140051D01*
X939014Y325543D02*
X1140051D01*
X939080Y324643D02*
X1140051D01*
X938941Y323743D02*
X1140051D01*
X938576Y322843D02*
X1140051D01*
X937897Y321943D02*
X1140051D01*
X936525Y321043D02*
X1140051D01*
X704634Y320143D02*
X1140051D01*
X808251Y319243D02*
X1140051D01*
X808926Y318343D02*
X1140051D01*
X809218Y317443D02*
X1140051D01*
X809236Y316543D02*
X1140051D01*
X808986Y315643D02*
X1140051D01*
X808380Y314743D02*
X1140051D01*
X806769Y313843D02*
X1140051D01*
X993237Y312943D02*
X1140051D01*
X994850Y312043D02*
X1140051D01*
X995589Y311143D02*
X1140051D01*
X995991Y310243D02*
X1140051D01*
X996159Y309343D02*
X1140051D01*
X996123Y308443D02*
X1140051D01*
X1128429Y307543D02*
X1140051D01*
X1129600Y306643D02*
X1140051D01*
X1130291Y305743D02*
X1140051D01*
X1130718Y304843D02*
X1140051D01*
X1130949Y303943D02*
X1140051D01*
X1131011Y303043D02*
X1140051D01*
X1130910Y302143D02*
X1140051D01*
X1130636Y301243D02*
X1140051D01*
X1130155Y300343D02*
X1140051D01*
X1129381Y299443D02*
X1140051D01*
X1127998Y298543D02*
X1140051D01*
X936203Y297643D02*
X1140051D01*
X936188Y296743D02*
X1140051D01*
X935900Y295843D02*
X1140051D01*
X935233Y294943D02*
X1140051D01*
X703793Y294043D02*
X1140051D01*
X704406Y293143D02*
X1140051D01*
X704728Y292243D02*
X1140051D01*
X704831Y291343D02*
X1140051D01*
X704730Y290443D02*
X1140051D01*
X704410Y289543D02*
X1140051D01*
X703801Y288643D02*
X1140051D01*
X844882Y287743D02*
X1140051D01*
X980568Y286843D02*
X1140051D01*
X981541Y285943D02*
X1140051D01*
X982069Y285043D02*
X1140051D01*
X982332Y284143D02*
X1140051D01*
X982384Y283243D02*
X1140051D01*
X982231Y282343D02*
X1140051D01*
X981848Y281443D02*
X1140051D01*
X981300Y280543D02*
X1140051D01*
X981812Y279643D02*
X1140051D01*
X982213Y278743D02*
X1140051D01*
X982380Y277843D02*
X1140051D01*
X982343Y276943D02*
X1140051D01*
X982095Y276043D02*
X1140051D01*
X981588Y275143D02*
X1140051D01*
X980660Y274243D02*
X1140051D01*
X664754Y273343D02*
X1140051D01*
X665154Y272443D02*
X1140051D01*
X767055Y271543D02*
X1140051D01*
X768538Y270643D02*
X1140051D01*
X769247Y269743D02*
X1140051D01*
X769631Y268843D02*
X1140051D01*
X769785Y267943D02*
X1140051D01*
X769735Y267043D02*
X1140051D01*
X769473Y266143D02*
X1140051D01*
X768946Y265243D02*
X1140051D01*
X768901Y264343D02*
X1140051D01*
X769447Y263443D02*
X1140051D01*
X769725Y262543D02*
X1140051D01*
X769788Y261643D02*
X1140051D01*
X769648Y260743D02*
X1140051D01*
X1004857Y259843D02*
X1140051D01*
X1006606Y258943D02*
X1140051D01*
X1007369Y258043D02*
X1140051D01*
X1007786Y257143D02*
X1140051D01*
X1007966Y256243D02*
X1140051D01*
X1007941Y255343D02*
X1140051D01*
X1007706Y254443D02*
X1140051D01*
X1013760Y253543D02*
X1140051D01*
X1014871Y252643D02*
X1140051D01*
X1015459Y251743D02*
X1140051D01*
X1015766Y250843D02*
X1140051D01*
X1015854Y249943D02*
X1140051D01*
X1015739Y249043D02*
X1140051D01*
X1015403Y248143D02*
X1140051D01*
X1014768Y247243D02*
X1140051D01*
X1013535Y246343D02*
X1140051D01*
X948726Y245443D02*
X1140051D01*
X947082Y244543D02*
X1140051D01*
X737021Y243643D02*
X1140051D01*
X737349Y242743D02*
X1140051D01*
X737397Y241843D02*
X1140051D01*
X737179Y240943D02*
X1140051D01*
X736625Y240043D02*
X1140051D01*
X735287Y239143D02*
X1140051D01*
X990807Y238243D02*
X1140051D01*
X992764Y237343D02*
X1140051D01*
X993556Y236443D02*
X1140051D01*
X993989Y235543D02*
X1140051D01*
X994182Y234643D02*
X1140051D01*
X994169Y233743D02*
X1140051D01*
X993947Y232843D02*
X1140051D01*
X1123330Y231943D02*
X1140051D01*
X1127392Y231043D02*
X1140051D01*
X1129387Y230143D02*
X1140051D01*
X1130854Y229243D02*
X1140051D01*
X1132028Y228343D02*
X1140051D01*
X1133005Y227443D02*
X1140051D01*
X1133832Y226543D02*
X1140051D01*
X1134541Y225643D02*
X1140051D01*
X1135150Y224743D02*
X1140051D01*
X1135672Y223843D02*
X1140051D01*
X1136118Y222943D02*
X1140051D01*
X1136494Y222043D02*
X1140051D01*
X1136805Y221143D02*
X1140051D01*
X1137057Y220243D02*
X1140051D01*
X1137251Y219343D02*
X1140051D01*
X1137390Y218443D02*
X1140051D01*
X1137475Y217543D02*
X1140051D01*
X1137508Y216643D02*
X1140051D01*
X1137488Y215743D02*
X1140051D01*
X1137415Y214843D02*
X1140051D01*
X1137289Y213943D02*
X1140051D01*
X1137108Y213043D02*
X1140051D01*
X1136871Y212143D02*
X1140051D01*
X1136574Y211243D02*
X1140051D01*
X1136213Y210343D02*
X1140051D01*
X1135785Y209443D02*
X1140051D01*
X1135282Y208543D02*
X1140051D01*
X1134694Y207643D02*
X1140051D01*
X1134011Y206743D02*
X1140051D01*
X1133214Y205843D02*
X1140051D01*
X1132277Y204943D02*
X1140051D01*
X1131701Y582943D02*
X1140045D01*
X1131156Y204043D02*
X1140014D01*
X1130452Y583843D02*
X1139940D01*
X1129772Y203143D02*
X1139846D01*
X1128864Y584743D02*
X1139697D01*
X1127942Y202243D02*
X1139532D01*
X1126595Y585643D02*
X1139295D01*
X1124913Y201343D02*
X1139046D01*
X396737Y586543D02*
X1138697D01*
X582061Y200443D02*
X1138333D01*
X397620Y587443D02*
X1137813D01*
X398183Y199543D02*
X1137250D01*
X399074Y588343D02*
X1136359D01*
X400406Y198643D02*
X1135027D01*
X935949Y298543D02*
X1123971D01*
X995876Y307543D02*
X1123540D01*
X935337Y299443D02*
X1122588D01*
X995371Y306643D02*
X1122368D01*
X933677Y300343D02*
X1121813D01*
X994445Y305743D02*
X1121677D01*
X704284Y301243D02*
X1121332D01*
X631966Y304843D02*
X1121250D01*
X703574Y302143D02*
X1121059D01*
X632169Y303943D02*
X1121020D01*
X702083Y303043D02*
X1120958D01*
X993477Y231943D02*
X1120765D01*
X691843Y201343D02*
X1119181D01*
X911429Y555943D02*
X1118007D01*
X693524Y585643D02*
X1117499D01*
X992617Y231043D02*
X1116702D01*
X694871Y202243D02*
X1116152D01*
X911995Y556843D02*
X1115537D01*
X695793Y584743D02*
X1115230D01*
X904043Y230143D02*
X1114708D01*
X696701Y203143D02*
X1114323D01*
X912334Y557743D02*
X1113874D01*
X697381Y583843D02*
X1113643D01*
X904043Y229243D02*
X1113241D01*
X698085Y204043D02*
X1112939D01*
X912491Y558643D02*
X1112580D01*
X698630Y582943D02*
X1112394D01*
X904043Y228343D02*
X1112066D01*
X699206Y204943D02*
X1111818D01*
X912484Y559543D02*
X1111520D01*
X699659Y582043D02*
X1111365D01*
X1053658Y227443D02*
X1111090D01*
X700143Y205843D02*
X1110880D01*
X912313Y560443D02*
X1110629D01*
X700527Y581143D02*
X1110496D01*
X1056057Y226543D02*
X1110262D01*
X902332Y206743D02*
X1110083D01*
X911957Y561343D02*
X1109868D01*
X770342Y580243D02*
X1109755D01*
X1057026Y225643D02*
X1109554D01*
X903232Y207643D02*
X1109400D01*
X911368Y562243D02*
X1109215D01*
X772247Y579343D02*
X1109117D01*
X1057619Y224743D02*
X1108945D01*
X904029Y208543D02*
X1108813D01*
X910407Y563143D02*
X1108654D01*
X773217Y578443D02*
X1108570D01*
X1057978Y223843D02*
X1108422D01*
X904043Y209443D02*
X1108309D01*
X908113Y564043D02*
X1108174D01*
X773842Y577543D02*
X1108103D01*
X1058152Y222943D02*
X1107977D01*
X904043Y210343D02*
X1107881D01*
X703257Y564943D02*
X1107766D01*
X774245Y576643D02*
X1107706D01*
X1058161Y222043D02*
X1107601D01*
X904043Y211243D02*
X1107521D01*
X703598Y565843D02*
X1107425D01*
X828720Y575743D02*
X1107376D01*
X1058007Y221143D02*
X1107289D01*
X904043Y212143D02*
X1107224D01*
X827945Y566743D02*
X1107147D01*
X829728Y574843D02*
X1107107D01*
X1057671Y220243D02*
X1107038D01*
X904043Y213043D02*
X1106986D01*
X829306Y567643D02*
X1106926D01*
X830351Y573943D02*
X1106896D01*
X1057109Y219343D02*
X1106844D01*
X904043Y213943D02*
X1106806D01*
X830085Y568543D02*
X1106762D01*
X830737Y573043D02*
X1106741D01*
X1056198Y218443D02*
X1106705D01*
X904043Y214843D02*
X1106680D01*
X830575Y569443D02*
X1106652D01*
X830939Y572143D02*
X1106639D01*
X1054283Y217543D02*
X1106619D01*
X904043Y215743D02*
X1106607D01*
X830862Y570343D02*
X1106595D01*
X830980Y571243D02*
X1106591D01*
X904043Y216643D02*
X1106587D01*
X1086670Y400243D02*
X1104211D01*
X554831Y391243D02*
X1103915D01*
X1093124Y437143D02*
X1103726D01*
X1086712Y399343D02*
X1102867D01*
X554831Y392143D02*
X1102716D01*
X1094191Y425443D02*
X1102660D01*
X1094613Y465043D02*
X1102238D01*
X1094708Y475843D02*
X1102142D01*
X1086549Y398443D02*
X1102106D01*
X554831Y393043D02*
X1102012D01*
X1095040Y436243D02*
X1101811D01*
X1086154Y397543D02*
X1101634D01*
X554831Y393943D02*
X1101577D01*
X1085428Y396643D02*
X1101367D01*
X1095490Y426343D02*
X1101360D01*
X554831Y394843D02*
X1101340D01*
X1083870Y395743D02*
X1101272D01*
X1095718Y465943D02*
X1101132D01*
X1095772Y474943D02*
X1101078D01*
X1095968Y435343D02*
X1100882D01*
X1096246Y427243D02*
X1100605D01*
X1096389Y466843D02*
X1100461D01*
X1096424Y474043D02*
X1100427D01*
X1096548Y434443D02*
X1100303D01*
X1096721Y428143D02*
X1100129D01*
X1096809Y467743D02*
X1100041D01*
X1096830Y473143D02*
X1100021D01*
X1096902Y433543D02*
X1099948D01*
X1096997Y429043D02*
X1099854D01*
X1097039Y468643D02*
X1099811D01*
X1097049Y472243D02*
X1099802D01*
X1097078Y432643D02*
X1099772D01*
X1097104Y429943D02*
X1099747D01*
X1097106Y471343D02*
X1099744D01*
X1097106Y470443D02*
X1099744D01*
X1097106Y469543D02*
X1099744D01*
X1097106Y431743D02*
X1099744D01*
X1097106Y430843D02*
X1099744D01*
X395382Y437143D02*
X1090726D01*
X1079552Y448843D02*
X1089739D01*
X580321Y425443D02*
X1089660D01*
X1079976Y460543D02*
X1089315D01*
X1080830Y465043D02*
X1089238D01*
X693117Y475843D02*
X1089142D01*
X1080408Y488443D02*
X1088883D01*
X1081248Y436243D02*
X1088811D01*
X1080735Y495643D02*
X1088556D01*
X579346Y426343D02*
X1088360D01*
X1081004Y453343D02*
X1088287D01*
X1081869Y465943D02*
X1088132D01*
X1081160Y441643D02*
X1088131D01*
X692665Y474943D02*
X1088078D01*
X1081382Y447943D02*
X1087909D01*
X1082085Y435343D02*
X1087882D01*
X1081505Y459643D02*
X1087786D01*
X1081673Y489343D02*
X1087618D01*
X578042Y427243D02*
X1087605D01*
X1081823Y494743D02*
X1087469D01*
X1082426Y466843D02*
X1087461D01*
X692015Y474043D02*
X1087427D01*
X1081957Y454243D02*
X1087335D01*
X1082544Y434443D02*
X1087303D01*
X1082038Y442543D02*
X1087253D01*
X1082158Y447043D02*
X1087134D01*
X576033Y428143D02*
X1087129D01*
X1082225Y458743D02*
X1087066D01*
X1082711Y467743D02*
X1087041D01*
X691072Y473143D02*
X1087021D01*
X1082318Y490243D02*
X1086973D01*
X1082756Y433543D02*
X1086948D01*
X1082401Y493843D02*
X1086890D01*
X1079091Y429043D02*
X1086854D01*
X1082475Y455143D02*
X1086817D01*
X1082781Y468643D02*
X1086811D01*
X1080279Y472243D02*
X1086802D01*
X1082519Y443443D02*
X1086773D01*
X1082761Y432643D02*
X1086772D01*
X1081302Y429943D02*
X1086747D01*
X1081619Y471343D02*
X1086744D01*
X1082288Y470443D02*
X1086744D01*
X1082648Y469543D02*
X1086744D01*
X1082559Y431743D02*
X1086744D01*
X1082114Y430843D02*
X1086744D01*
X1082582Y446143D02*
X1086709D01*
X1082617Y457843D02*
X1086675D01*
X1082662Y491143D02*
X1086629D01*
X1082700Y492943D02*
X1086591D01*
X1082731Y456043D02*
X1086560D01*
X1082747Y444343D02*
X1086544D01*
X1082767Y445243D02*
X1086524D01*
X1082776Y456943D02*
X1086516D01*
X1082783Y492043D02*
X1086509D01*
X1075996Y395743D02*
X1081485D01*
X1077554Y396643D02*
X1079927D01*
X1078280Y397543D02*
X1079200D01*
X1071217Y429043D02*
X1078389D01*
X1071678Y448843D02*
X1077928D01*
X1072102Y460543D02*
X1077504D01*
X1005476Y472243D02*
X1077201D01*
X1072534Y488443D02*
X1077072D01*
X1005722Y483943D02*
X1076955D01*
X1005831Y476743D02*
X1076846D01*
X1072861Y495643D02*
X1076745D01*
X1006027Y465043D02*
X1076650D01*
X1073130Y453343D02*
X1076476D01*
X1006297Y424543D02*
X1076380D01*
X1073286Y441643D02*
X1076320D01*
X1073374Y436243D02*
X1076233D01*
X1073428Y429943D02*
X1076178D01*
X1073508Y447943D02*
X1076098D01*
X1073631Y459643D02*
X1075975D01*
X1006816Y471343D02*
X1075861D01*
X1073799Y489343D02*
X1075807D01*
X1006922Y483043D02*
X1075756D01*
X1006971Y477643D02*
X1075706D01*
X1073948Y494743D02*
X1075658D01*
X1007066Y465943D02*
X1075611D01*
X1074083Y454243D02*
X1075524D01*
X1007204Y423643D02*
X1075474D01*
X1074164Y442543D02*
X1075442D01*
X1074211Y435343D02*
X1075395D01*
X1074240Y430843D02*
X1075366D01*
X1074284Y447043D02*
X1075323D01*
X1074351Y458743D02*
X1075255D01*
X1007485Y470443D02*
X1075192D01*
X1007544Y482143D02*
X1075134D01*
X1074483Y490243D02*
X1075123D01*
X1007571Y478543D02*
X1075106D01*
X1007623Y466843D02*
X1075054D01*
X1007699Y422743D02*
X1074979D01*
X1007793Y420043D02*
X1074884D01*
X1007845Y469543D02*
X1074833D01*
X1007872Y481243D02*
X1074805D01*
X1007885Y479443D02*
X1074792D01*
X1007908Y467743D02*
X1074769D01*
X1007938Y421843D02*
X1074739D01*
X1007968Y420943D02*
X1074709D01*
X1007978Y468643D02*
X1074699D01*
X1007980Y480343D02*
X1074697D01*
X554831Y395743D02*
X1073611D01*
X1007382Y419143D02*
X1073390D01*
X403785Y403843D02*
X1072936D01*
X1007653Y411043D02*
X1072867D01*
X1007120Y411943D02*
X1072633D01*
X395382Y402943D02*
X1072519D01*
X554831Y396643D02*
X1072053D01*
X1006629Y418243D02*
X1071974D01*
X405338Y404743D02*
X1071828D01*
X1007920Y410143D02*
X1071760D01*
X1006135Y412843D02*
X1071634D01*
X395382Y402043D02*
X1071576D01*
X554796Y397543D02*
X1071326D01*
X1004940Y417343D02*
X1071283D01*
X1005302Y405643D02*
X1071201D01*
X1007975Y409243D02*
X1071164D01*
X733452Y413743D02*
X1071095D01*
X395382Y401143D02*
X1071063D01*
X554287Y398443D02*
X1070931D01*
X731105Y416443D02*
X1070909D01*
X1006748Y406543D02*
X1070870D01*
X1007826Y408343D02*
X1070853D01*
X733211Y414643D02*
X1070823D01*
X395382Y400243D02*
X1070810D01*
X395382Y399343D02*
X1070768D01*
X732621Y415543D02*
X1070764D01*
X1007448Y407443D02*
X1070760D01*
X1059406Y429043D02*
X1070515D01*
X1059867Y448843D02*
X1070054D01*
X1060291Y460543D02*
X1069630D01*
X1064660Y488443D02*
X1069198D01*
X1064987Y495643D02*
X1068871D01*
X1061319Y453343D02*
X1068602D01*
X1061475Y441643D02*
X1068446D01*
X1061563Y436243D02*
X1068359D01*
X1061617Y429943D02*
X1068304D01*
X1061697Y447943D02*
X1068224D01*
X1061820Y459643D02*
X1068101D01*
X1065925Y489343D02*
X1067933D01*
X1066074Y494743D02*
X1067784D01*
X1062272Y454243D02*
X1067650D01*
X1062353Y442543D02*
X1067568D01*
X1062400Y435343D02*
X1067521D01*
X1062429Y430843D02*
X1067492D01*
X1062473Y447043D02*
X1067449D01*
X1062540Y458743D02*
X1067381D01*
X1066609Y490243D02*
X1067249D01*
X1062789Y455143D02*
X1067132D01*
X1062834Y443443D02*
X1067088D01*
X1062859Y434443D02*
X1067063D01*
X1062874Y431743D02*
X1067047D01*
X1062897Y446143D02*
X1067024D01*
X1062931Y457843D02*
X1066990D01*
X1063046Y456043D02*
X1066875D01*
X1063062Y444343D02*
X1066859D01*
X1063071Y433543D02*
X1066850D01*
X1063076Y432643D02*
X1066846D01*
X1063082Y445243D02*
X1066839D01*
X1063091Y456943D02*
X1066831D01*
X905224Y488443D02*
X1061324D01*
X905007Y495643D02*
X1060997D01*
X905224Y489343D02*
X1060059D01*
X905187Y494743D02*
X1059910D01*
X905224Y490243D02*
X1059414D01*
X905224Y493843D02*
X1059331D01*
X905224Y491143D02*
X1059070D01*
X905224Y492943D02*
X1059032D01*
X905224Y492043D02*
X1058950D01*
X1016099Y429043D02*
X1058704D01*
X1016560Y448843D02*
X1058243D01*
X1016984Y460543D02*
X1057819D01*
X1018012Y453343D02*
X1056791D01*
X1018168Y441643D02*
X1056635D01*
X1018256Y436243D02*
X1056548D01*
X1018310Y429943D02*
X1056493D01*
X1018390Y447943D02*
X1056413D01*
X1018513Y459643D02*
X1056290D01*
X1018964Y454243D02*
X1055839D01*
X1019046Y442543D02*
X1055757D01*
X1019093Y435343D02*
X1055710D01*
X1019122Y430843D02*
X1055681D01*
X1019165Y447043D02*
X1055638D01*
X1019233Y458743D02*
X1055570D01*
X1019482Y455143D02*
X1055321D01*
X1019527Y443443D02*
X1055277D01*
X1019551Y434443D02*
X1055252D01*
X1019567Y431743D02*
X1055236D01*
X1019590Y446143D02*
X1055213D01*
X1019624Y457843D02*
X1055179D01*
X1019739Y456043D02*
X1055064D01*
X1019755Y444343D02*
X1055048D01*
X1019764Y433543D02*
X1055039D01*
X1019769Y432643D02*
X1055035D01*
X1019775Y445243D02*
X1055028D01*
X1019784Y456943D02*
X1055020D01*
X904043Y227443D02*
X1052641D01*
X904043Y217543D02*
X1052016D01*
X904043Y226543D02*
X1050242D01*
X904043Y218443D02*
X1050101D01*
X904043Y225643D02*
X1049273D01*
X904043Y219343D02*
X1049190D01*
X904043Y224743D02*
X1048680D01*
X904043Y220243D02*
X1048628D01*
X904043Y223843D02*
X1048321D01*
X904043Y221143D02*
X1048293D01*
X904043Y222943D02*
X1048147D01*
X904043Y222043D02*
X1048138D01*
X1013388Y346243D02*
X1018108D01*
X1013875Y339043D02*
X1017621D01*
X1014706Y345343D02*
X1016790D01*
X1014927Y339943D02*
X1016569D01*
X1015386Y344443D02*
X1016110D01*
X1004288Y429043D02*
X1015397D01*
X1004749Y448843D02*
X1014936D01*
X1005173Y460543D02*
X1014512D01*
X1006201Y453343D02*
X1013484D01*
X1006357Y441643D02*
X1013328D01*
X1006444Y436243D02*
X1013241D01*
X1006499Y429943D02*
X1013186D01*
X1006579Y447943D02*
X1013106D01*
X1006702Y459643D02*
X1012983D01*
X1007153Y454243D02*
X1012532D01*
X1007235Y442543D02*
X1012450D01*
X1007282Y435343D02*
X1012403D01*
X1007311Y430843D02*
X1012374D01*
X1007354Y447043D02*
X1012331D01*
X1007422Y458743D02*
X1012263D01*
X1007671Y455143D02*
X1012014D01*
X1007716Y443443D02*
X1011969D01*
X1007740Y434443D02*
X1011945D01*
X1007756Y431743D02*
X1011929D01*
X1007779Y446143D02*
X1011906D01*
X1007813Y457843D02*
X1011872D01*
X1007928Y456043D02*
X1011757D01*
X1007944Y444343D02*
X1011741D01*
X1007953Y433543D02*
X1011732D01*
X1007958Y432643D02*
X1011727D01*
X1007964Y445243D02*
X1011721D01*
X1007973Y456943D02*
X1011712D01*
X1005514Y346243D02*
X1010234D01*
X1005661Y246343D02*
X1010087D01*
X1007218Y253543D02*
X1009862D01*
X1006001Y339043D02*
X1009747D01*
X1006832Y345343D02*
X1008916D01*
X1006894Y247243D02*
X1008854D01*
X1006998Y252643D02*
X1008751D01*
X1007053Y339943D02*
X1008695D01*
X1007512Y344443D02*
X1008236D01*
X1007588Y248143D02*
X1008160D01*
X992477Y429043D02*
X1003586D01*
X992938Y448843D02*
X1003125D01*
X769280Y259843D02*
X1003017D01*
X583132Y417343D02*
X1002934D01*
X859456Y460543D02*
X1002701D01*
X406247Y405643D02*
X1002572D01*
X689525Y472243D02*
X1002398D01*
X997640Y346243D02*
X1002360D01*
X949336Y246343D02*
X1002213D01*
X905224Y483943D02*
X1002152D01*
X900536Y476743D02*
X1002043D01*
X998127Y339043D02*
X1001873D01*
X578598Y465043D02*
X1001847D01*
X733425Y412843D02*
X1001739D01*
X618335Y453343D02*
X1001673D01*
X581086Y424543D02*
X1001577D01*
X994546Y441643D02*
X1001517D01*
X994633Y436243D02*
X1001430D01*
X994688Y429943D02*
X1001375D01*
X994768Y447943D02*
X1001295D01*
X768598Y258943D02*
X1001268D01*
X583177Y418243D02*
X1001245D01*
X859298Y459643D02*
X1001172D01*
X846401Y406543D02*
X1001126D01*
X584090Y471343D02*
X1001058D01*
X998958Y345343D02*
X1001042D01*
X949589Y247243D02*
X1000980D01*
X905224Y483043D02*
X1000952D01*
X902773Y477643D02*
X1000903D01*
X575143Y252643D02*
X1000876D01*
X999179Y339943D02*
X1000821D01*
X580153Y465943D02*
X1000808D01*
X845765Y411943D02*
X1000754D01*
X395382Y454243D02*
X1000721D01*
X581695Y423643D02*
X1000670D01*
X574433Y253543D02*
X1000656D01*
X995424Y442543D02*
X1000639D01*
X995471Y435343D02*
X1000592D01*
X995500Y430843D02*
X1000563D01*
X995543Y447043D02*
X1000520D01*
X767214Y258043D02*
X1000505D01*
X583143Y419143D02*
X1000492D01*
X858831Y458743D02*
X1000452D01*
X847203Y407443D02*
X1000426D01*
X583764Y470443D02*
X1000389D01*
X999638Y344443D02*
X1000362D01*
X949574Y248143D02*
X1000345D01*
X905223Y482143D02*
X1000330D01*
X903798Y478543D02*
X1000303D01*
X575582Y251743D02*
X1000289D01*
X581263Y466843D02*
X1000251D01*
X846942Y411043D02*
X1000221D01*
X395382Y455143D02*
X1000203D01*
X582178Y422743D02*
X1000175D01*
X573219Y254443D02*
X1000168D01*
X995905Y443443D02*
X1000158D01*
X995929Y434443D02*
X1000134D01*
X995945Y431743D02*
X1000118D01*
X995968Y446143D02*
X1000095D01*
X498517Y257143D02*
X1000088D01*
X583031Y420043D02*
X1000081D01*
X857783Y457843D02*
X1000061D01*
X847564Y408343D02*
X1000048D01*
X583339Y469543D02*
X1000029D01*
X949284Y249043D02*
X1000009D01*
X905127Y481243D02*
X1000002D01*
X904453Y479443D02*
X999989D01*
X575823Y250843D02*
X999982D01*
X582120Y467743D02*
X999966D01*
X847452Y410143D02*
X999954D01*
X395382Y456043D02*
X999946D01*
X582554Y421843D02*
X999936D01*
X496663Y255343D02*
X999933D01*
X996133Y444343D02*
X999930D01*
X996142Y433543D02*
X999921D01*
X996147Y432643D02*
X999916D01*
X996153Y445243D02*
X999910D01*
X497821Y256243D02*
X999908D01*
X582836Y420943D02*
X999906D01*
X395382Y456943D02*
X999901D01*
X847640Y409243D02*
X999899D01*
X582798Y468643D02*
X999896D01*
X948615Y249943D02*
X999894D01*
X904879Y480343D02*
X999894D01*
X661190Y346243D02*
X994486D01*
X665753Y339043D02*
X993999D01*
X662367Y345343D02*
X993168D01*
X665585Y339943D02*
X992947D01*
X663266Y344443D02*
X992506D01*
X665332Y340843D02*
X992384D01*
X663975Y343543D02*
X992151D01*
X664988Y341743D02*
X992095D01*
X664541Y342643D02*
X992022D01*
X395382Y429043D02*
X991775D01*
X809536Y448843D02*
X991314D01*
X965678Y312943D02*
X991015D01*
X966886Y305743D02*
X989807D01*
X745017Y441643D02*
X989706D01*
X395382Y436243D02*
X989619D01*
X395382Y429943D02*
X989564D01*
X984902Y238243D02*
X989508D01*
X810049Y447943D02*
X989484D01*
X967291Y312043D02*
X989402D01*
X967812Y306643D02*
X988881D01*
X745262Y442543D02*
X988828D01*
X395382Y435343D02*
X988781D01*
X395382Y430843D02*
X988752D01*
X810238Y447043D02*
X988709D01*
X968030Y311143D02*
X988663D01*
X968317Y307543D02*
X988376D01*
X745239Y443443D02*
X988347D01*
X395382Y434443D02*
X988323D01*
X395382Y431743D02*
X988307D01*
X810164Y446143D02*
X988284D01*
X968432Y310243D02*
X988261D01*
X968564Y308443D02*
X988129D01*
X809005Y444343D02*
X988119D01*
X395382Y433543D02*
X988110D01*
X395382Y432643D02*
X988105D01*
X809804Y445243D02*
X988099D01*
X968600Y309343D02*
X988093D01*
X986712Y231043D02*
X987698D01*
X986859Y237343D02*
X987551D01*
X978996Y238243D02*
X983602D01*
X980806Y231043D02*
X981792D01*
X980953Y237343D02*
X981645D01*
X902228Y238243D02*
X977697D01*
X972694Y286843D02*
X976125D01*
X972786Y274243D02*
X976033D01*
X904043Y231043D02*
X975887D01*
X903128Y237343D02*
X975740D01*
X973667Y285943D02*
X975152D01*
X973714Y275143D02*
X975105D01*
X904043Y231943D02*
X975027D01*
X903991Y236443D02*
X974948D01*
X904043Y232843D02*
X974557D01*
X904043Y235543D02*
X974515D01*
X904043Y233743D02*
X974335D01*
X904043Y234643D02*
X974322D01*
X895549Y526243D02*
X973643D01*
X583607Y513643D02*
X971748D01*
X892285Y533443D02*
X971501D01*
X664185Y545143D02*
X971205D01*
X895306Y525343D02*
X971006D01*
X582271Y514543D02*
X970268D01*
X889337Y534343D02*
X970130D01*
X663672Y544243D02*
X969954D01*
X938920Y331843D02*
X969886D01*
X894921Y524443D02*
X969832D01*
X582748Y515443D02*
X969350D01*
X576725Y535243D02*
X969256D01*
X662858Y543343D02*
X969136D01*
X894364Y523543D02*
X969051D01*
X583924Y516343D02*
X968716D01*
X579066Y536143D02*
X968650D01*
X661396Y542443D02*
X968566D01*
X893575Y522643D02*
X968507D01*
X938735Y326443D02*
X968306D01*
X584618Y517243D02*
X968275D01*
X846400Y286843D02*
X968251D01*
X580473Y537043D02*
X968231D01*
X939076Y330943D02*
X968210D01*
X583858Y541543D02*
X968175D01*
X664244Y274243D02*
X968159D01*
X892399Y521743D02*
X968136D01*
X585046Y518143D02*
X967990D01*
X581506Y537943D02*
X967963D01*
X583460Y540643D02*
X967931D01*
X889937Y520843D02*
X967909D01*
X585279Y519043D02*
X967838D01*
X582311Y538843D02*
X967828D01*
X582951Y539743D02*
X967818D01*
X585342Y519943D02*
X967812D01*
X938186Y327343D02*
X967641D01*
X939027Y330043D02*
X967596D01*
X395382Y280543D02*
X967519D01*
X938244Y328243D02*
X967354D01*
X938767Y329143D02*
X967341D01*
X846991Y285943D02*
X967278D01*
X663603Y275143D02*
X967231D01*
X395382Y279643D02*
X967007D01*
X395382Y281443D02*
X966971D01*
X847232Y285043D02*
X966750D01*
X662796Y276043D02*
X966724D01*
X657987Y278743D02*
X966606D01*
X846212Y282343D02*
X966588D01*
X847205Y284143D02*
X966486D01*
X661760Y276943D02*
X966476D01*
X660348Y277843D02*
X966439D01*
X846903Y283243D02*
X966435D01*
X631721Y312943D02*
X963456D01*
X631598Y305743D02*
X962248D01*
X631616Y312043D02*
X961843D01*
X631024Y306643D02*
X961322D01*
X631358Y311143D02*
X961104D01*
X630145Y307543D02*
X960817D01*
X630924Y310243D02*
X960702D01*
X629427Y308443D02*
X960570D01*
X630260Y309343D02*
X960534D01*
X736284Y244543D02*
X945832D01*
X575893Y249943D02*
X944299D01*
X572989Y245443D02*
X944187D01*
X575802Y249043D02*
X943629D01*
X574316Y246343D02*
X943577D01*
X575538Y248143D02*
X943340D01*
X575070Y247243D02*
X943324D01*
X930418Y334543D02*
X933756D01*
X930620Y321043D02*
X933553D01*
X806709Y300343D02*
X932464D01*
X808264Y294943D02*
X930909D01*
X808369Y299443D02*
X930805D01*
X808932Y295843D02*
X930241D01*
X808980Y298543D02*
X930193D01*
X809220Y296743D02*
X929953D01*
X809235Y297643D02*
X929939D01*
X665393Y334543D02*
X927850D01*
X704215Y321043D02*
X927648D01*
X665068Y333643D02*
X926352D01*
X703447Y321943D02*
X926276D01*
X864129Y327343D02*
X925988D01*
X863817Y328243D02*
X925929D01*
X664644Y332743D02*
X925639D01*
X702555Y322843D02*
X925598D01*
X864164Y326443D02*
X925438D01*
X863109Y329143D02*
X925406D01*
X664105Y331843D02*
X925253D01*
X861916Y323743D02*
X925232D01*
X863932Y325543D02*
X925159D01*
X703164Y330043D02*
X925146D01*
X663428Y330943D02*
X925097D01*
X863356Y324643D02*
X925094D01*
X702850Y564043D02*
X906848D01*
X828667Y554143D02*
X906410D01*
X828022Y563143D02*
X904553D01*
X829697Y555043D02*
X904451D01*
X829344Y562243D02*
X903592D01*
X830331Y555943D02*
X903532D01*
X830109Y561343D02*
X903003D01*
X830725Y556843D02*
X902966D01*
X830590Y560443D02*
X902648D01*
X830934Y557743D02*
X902627D01*
X830870Y559543D02*
X902476D01*
X830981Y558643D02*
X902470D01*
X878489Y476743D02*
X898677D01*
X879808Y499243D02*
X897357D01*
X880726Y477643D02*
X896440D01*
X881235Y498343D02*
X895930D01*
X881751Y478543D02*
X895415D01*
X882070Y497443D02*
X895095D01*
X882406Y479443D02*
X894759D01*
X882616Y496543D02*
X894550D01*
X882831Y480343D02*
X894334D01*
X882960Y495643D02*
X894206D01*
X883080Y481243D02*
X894085D01*
X883140Y494743D02*
X894026D01*
X883175Y482143D02*
X893990D01*
X883177Y493843D02*
X893988D01*
X883177Y492943D02*
X893988D01*
X883177Y492043D02*
X893988D01*
X883177Y491143D02*
X893988D01*
X883177Y490243D02*
X893988D01*
X883177Y489343D02*
X893988D01*
X883177Y488443D02*
X893988D01*
X883177Y487543D02*
X893988D01*
X883177Y486643D02*
X893988D01*
X883177Y485743D02*
X893988D01*
X883177Y484843D02*
X893988D01*
X883177Y483943D02*
X893988D01*
X883177Y483043D02*
X893988D01*
X814337Y534343D02*
X888419D01*
X814937Y520843D02*
X887819D01*
X817285Y533443D02*
X885470D01*
X817399Y521743D02*
X885357D01*
X818503Y532543D02*
X884253D01*
X818575Y522643D02*
X884181D01*
X819314Y531643D02*
X883442D01*
X819364Y523543D02*
X883392D01*
X819886Y530743D02*
X882870D01*
X819921Y524443D02*
X882835D01*
X820282Y529843D02*
X882474D01*
X820306Y525343D02*
X882450D01*
X820535Y528943D02*
X882221D01*
X820549Y526243D02*
X882207D01*
X820660Y528043D02*
X882096D01*
X820664Y527143D02*
X882091D01*
X835969Y476743D02*
X876629D01*
X837288Y499243D02*
X875310D01*
X838206Y477643D02*
X874392D01*
X838716Y498343D02*
X873883D01*
X839231Y478543D02*
X873367D01*
X839551Y497443D02*
X873048D01*
X839886Y479443D02*
X872712D01*
X840096Y496543D02*
X872502D01*
X840312Y480343D02*
X872287D01*
X840440Y495643D02*
X872158D01*
X840560Y481243D02*
X872038D01*
X840620Y494743D02*
X871978D01*
X840656Y482143D02*
X871943D01*
X840658Y493843D02*
X871941D01*
X840658Y492943D02*
X871941D01*
X840658Y492043D02*
X871941D01*
X840658Y491143D02*
X871941D01*
X840658Y490243D02*
X871941D01*
X840658Y489343D02*
X871941D01*
X840658Y488443D02*
X871941D01*
X840658Y487543D02*
X871941D01*
X840658Y486643D02*
X871941D01*
X840658Y485743D02*
X871941D01*
X840658Y484843D02*
X871941D01*
X840658Y483943D02*
X871941D01*
X840658Y483043D02*
X871941D01*
X395382Y238243D02*
X865488D01*
X700940Y206743D02*
X865385D01*
X395382Y237343D02*
X864588D01*
X701624Y207643D02*
X864485D01*
X395382Y236443D02*
X863725D01*
X702211Y208543D02*
X863687D01*
X395382Y235543D02*
X863673D01*
X395382Y234643D02*
X863673D01*
X395382Y233743D02*
X863673D01*
X704037Y213043D02*
X863673D01*
X703800Y212143D02*
X863673D01*
X703503Y211243D02*
X863673D01*
X703143Y210343D02*
X863673D01*
X702714Y209443D02*
X863673D01*
X860868Y213943D02*
X863541D01*
X861261Y232843D02*
X863227D01*
X861790Y214843D02*
X862698D01*
X861991Y231943D02*
X862497D01*
X837506Y323743D02*
X860132D01*
X838699Y329143D02*
X858939D01*
X838946Y324643D02*
X858692D01*
X839408Y328243D02*
X858230D01*
X839523Y325543D02*
X858115D01*
X839720Y327343D02*
X857918D01*
X839755Y326443D02*
X857883D01*
X552599Y388543D02*
X855673D01*
X554780Y383143D02*
X855620D01*
X395382Y457843D02*
X854815D01*
X553113Y387643D02*
X854700D01*
X554827Y384043D02*
X854678D01*
X395382Y463243D02*
X854526D01*
X553921Y386743D02*
X854262D01*
X554712Y384943D02*
X854252D01*
X554422Y385843D02*
X854126D01*
X395382Y458743D02*
X853768D01*
X395382Y462343D02*
X853647D01*
X850868Y213943D02*
X853620D01*
X395382Y459643D02*
X853300D01*
X395382Y461443D02*
X853248D01*
X851261Y232843D02*
X853227D01*
X395382Y460543D02*
X853143D01*
X851790Y214843D02*
X852698D01*
X851991Y231943D02*
X852497D01*
X840868Y213943D02*
X843620D01*
X702636Y287743D02*
X843307D01*
X841261Y232843D02*
X843227D01*
X733123Y411943D02*
X843211D01*
X841790Y214843D02*
X842698D01*
X406854Y406543D02*
X842576D01*
X841991Y231943D02*
X842497D01*
X732432Y411043D02*
X842035D01*
X395382Y282343D02*
X841977D01*
X616572Y286843D02*
X841789D01*
X407257Y407443D02*
X841773D01*
X579184Y410143D02*
X841524D01*
X575606Y408343D02*
X841412D01*
X577815Y409243D02*
X841336D01*
X613907Y283243D02*
X841286D01*
X616278Y285943D02*
X841198D01*
X615071Y284143D02*
X840984D01*
X615800Y285043D02*
X840957D01*
X703466Y323743D02*
X835722D01*
X809025Y373243D02*
X835048D01*
X551709Y378643D02*
X834911D01*
X704062Y329143D02*
X834529D01*
X704225Y324643D02*
X834282D01*
X813922Y476743D02*
X834110D01*
X808464Y374143D02*
X834049D01*
X552995Y377743D02*
X833992D01*
X704554Y328243D02*
X833820D01*
X704639Y325543D02*
X833706D01*
X830868Y213943D02*
X833620D01*
X807101Y375043D02*
X833600D01*
X553849Y376843D02*
X833576D01*
X704790Y327343D02*
X833509D01*
X704817Y326443D02*
X833474D01*
X554378Y375943D02*
X833457D01*
X831261Y232843D02*
X833227D01*
X815241Y499243D02*
X832790D01*
X831790Y214843D02*
X832698D01*
X831991Y231943D02*
X832497D01*
X816159Y477643D02*
X831873D01*
X816668Y498343D02*
X831363D01*
X817184Y478543D02*
X830848D01*
X817503Y497443D02*
X830528D01*
X817839Y479443D02*
X830192D01*
X818049Y496543D02*
X829983D01*
X818264Y480343D02*
X829767D01*
X818393Y495643D02*
X829639D01*
X818513Y481243D02*
X829518D01*
X818573Y494743D02*
X829459D01*
X818608Y482143D02*
X829423D01*
X818610Y493843D02*
X829421D01*
X818610Y492943D02*
X829421D01*
X818610Y492043D02*
X829421D01*
X818610Y491143D02*
X829421D01*
X818610Y490243D02*
X829421D01*
X818610Y489343D02*
X829421D01*
X818610Y488443D02*
X829421D01*
X818610Y487543D02*
X829421D01*
X818610Y486643D02*
X829421D01*
X818610Y485743D02*
X829421D01*
X818610Y484843D02*
X829421D01*
X818610Y483943D02*
X829421D01*
X818610Y483043D02*
X829421D01*
X820868Y213943D02*
X823620D01*
X821261Y232843D02*
X823227D01*
X821790Y214843D02*
X822698D01*
X821991Y231943D02*
X822497D01*
X703877Y566743D02*
X821662D01*
X702370Y563143D02*
X821585D01*
X579536Y554143D02*
X820940D01*
X774476Y575743D02*
X820886D01*
X704097Y567643D02*
X820301D01*
X701809Y562243D02*
X820262D01*
X577614Y555043D02*
X819909D01*
X774555Y574843D02*
X819878D01*
X704261Y568543D02*
X819522D01*
X701156Y561343D02*
X819498D01*
X693017Y555943D02*
X819275D01*
X774489Y573943D02*
X819255D01*
X770619Y569443D02*
X819031D01*
X700395Y560443D02*
X819016D01*
X695486Y556843D02*
X818881D01*
X774272Y573043D02*
X818870D01*
X772353Y570343D02*
X818744D01*
X699503Y559543D02*
X818736D01*
X697150Y557743D02*
X818672D01*
X773885Y572143D02*
X818667D01*
X773283Y571243D02*
X818627D01*
X698443Y558643D02*
X818625D01*
X810868Y213943D02*
X813620D01*
X405565Y534343D02*
X813419D01*
X811261Y232843D02*
X813227D01*
X585242Y520843D02*
X812819D01*
X811790Y214843D02*
X812698D01*
X811991Y231943D02*
X812497D01*
X693413Y476743D02*
X812062D01*
X695776Y499243D02*
X810743D01*
X660750Y533443D02*
X810470D01*
X661024Y521743D02*
X810357D01*
X693573Y477643D02*
X809826D01*
X695854Y498343D02*
X809316D01*
X662836Y532543D02*
X809253D01*
X662933Y522643D02*
X809181D01*
X693607Y478543D02*
X808800D01*
X695840Y497443D02*
X808481D01*
X663880Y531643D02*
X808442D01*
X663941Y523543D02*
X808392D01*
X767110Y479443D02*
X808145D01*
X768675Y496543D02*
X807936D01*
X664565Y530743D02*
X807870D01*
X664606Y524443D02*
X807835D01*
X769846Y480343D02*
X807720D01*
X770522Y495643D02*
X807592D01*
X665025Y529843D02*
X807474D01*
X771235Y481243D02*
X807471D01*
X665052Y525343D02*
X807450D01*
X771698Y494743D02*
X807412D01*
X772213Y482143D02*
X807376D01*
X772559Y493843D02*
X807374D01*
X773215Y492943D02*
X807374D01*
X773717Y492043D02*
X807374D01*
X774092Y491143D02*
X807374D01*
X774358Y490243D02*
X807374D01*
X774524Y489343D02*
X807374D01*
X774596Y488443D02*
X807374D01*
X774576Y487543D02*
X807374D01*
X774464Y486643D02*
X807374D01*
X774255Y485743D02*
X807374D01*
X773943Y484843D02*
X807374D01*
X773515Y483943D02*
X807374D01*
X772950Y483043D02*
X807374D01*
X665314Y528943D02*
X807221D01*
X665329Y526243D02*
X807207D01*
X665455Y528043D02*
X807096D01*
X665460Y527143D02*
X807091D01*
X733334Y449743D02*
X805820D01*
X704670Y300343D02*
X805496D01*
X631682Y313843D02*
X805436D01*
X744941Y444343D02*
X805168D01*
X554689Y375043D02*
X805104D01*
X733472Y448843D02*
X804637D01*
X744258Y445243D02*
X804369D01*
X733348Y447943D02*
X804124D01*
X615813Y369643D02*
X804056D01*
X731991Y446143D02*
X804009D01*
X704816Y319243D02*
X803954D01*
X702682Y294943D02*
X803940D01*
X732926Y447043D02*
X803935D01*
X704824Y299443D02*
X803836D01*
X631496Y314743D02*
X803824D01*
X554823Y374143D02*
X803740D01*
X800868Y213943D02*
X803620D01*
X614635Y370543D02*
X803326D01*
X704792Y318343D02*
X803279D01*
X703022Y295843D02*
X803273D01*
X801261Y232843D02*
X803227D01*
X704775Y298543D02*
X803224D01*
X703186Y315643D02*
X803219D01*
X554793Y373243D02*
X803180D01*
X554212Y371443D02*
X803003D01*
X704560Y317443D02*
X802987D01*
X703989Y296743D02*
X802985D01*
X704514Y297643D02*
X802970D01*
X704074Y316543D02*
X802969D01*
X554597Y372343D02*
X802959D01*
X801790Y214843D02*
X802698D01*
X801991Y231943D02*
X802497D01*
X702601Y223843D02*
X793742D01*
X704218Y213943D02*
X793620D01*
X703047Y222943D02*
X793375D01*
X395382Y232843D02*
X793227D01*
X702079Y224743D02*
X792745D01*
X704344Y214843D02*
X792698D01*
X703423Y222043D02*
X792652D01*
X690259Y231943D02*
X792621D01*
X694321Y231043D02*
X792563D01*
X696316Y230143D02*
X792563D01*
X697783Y229243D02*
X792563D01*
X698957Y228343D02*
X792563D01*
X699934Y227443D02*
X792563D01*
X700761Y226543D02*
X792563D01*
X701470Y225643D02*
X792563D01*
X760592Y221143D02*
X792563D01*
X761494Y220243D02*
X792563D01*
X761902Y219343D02*
X792563D01*
X762015Y218443D02*
X792563D01*
X761866Y217543D02*
X792563D01*
X761409Y216643D02*
X792563D01*
X760390Y215743D02*
X792563D01*
X760342Y580243D02*
X767532D01*
X760619Y569443D02*
X767255D01*
X762247Y579343D02*
X765627D01*
X762353Y570343D02*
X765521D01*
X763217Y578443D02*
X764657D01*
X763283Y571243D02*
X764591D01*
X665456Y271543D02*
X764441D01*
X743488Y479443D02*
X764386D01*
X761308Y258043D02*
X764282D01*
X665670Y270643D02*
X762958D01*
X745053Y496543D02*
X762821D01*
X665802Y269743D02*
X762249D01*
X665533Y266143D02*
X762017D01*
X665853Y268843D02*
X761865D01*
X665721Y267043D02*
X761761D01*
X665827Y267943D02*
X761711D01*
X746223Y480343D02*
X761651D01*
X746900Y495643D02*
X760974D01*
X747613Y481243D02*
X760261D01*
X748076Y494743D02*
X759798D01*
X748591Y482143D02*
X759283D01*
X748937Y493843D02*
X758937D01*
X749328Y483043D02*
X758546D01*
X498953Y258043D02*
X758377D01*
X749593Y492943D02*
X758281D01*
X749893Y483943D02*
X757981D01*
X750095Y492043D02*
X757779D01*
X665259Y265243D02*
X757704D01*
X750321Y484843D02*
X757553D01*
X750342Y580243D02*
X757532D01*
X750470Y491143D02*
X757404D01*
X704417Y215743D02*
X757327D01*
X750619Y569443D02*
X757255D01*
X750633Y485743D02*
X757241D01*
X750736Y490243D02*
X757138D01*
X703735Y221143D02*
X757124D01*
X750842Y486643D02*
X757032D01*
X658940Y258943D02*
X756993D01*
X750902Y489343D02*
X756972D01*
X750954Y487543D02*
X756920D01*
X750974Y488443D02*
X756900D01*
X664891Y264343D02*
X756690D01*
X660851Y259843D02*
X756311D01*
X704437Y216643D02*
X756308D01*
X703986Y220243D02*
X756223D01*
X664418Y263443D02*
X756143D01*
X662118Y260743D02*
X755943D01*
X663821Y262543D02*
X755866D01*
X704404Y217543D02*
X755851D01*
X704180Y219343D02*
X755814D01*
X663072Y261643D02*
X755803D01*
X704319Y218443D02*
X755701D01*
X752247Y579343D02*
X755627D01*
X752353Y570343D02*
X755521D01*
X753217Y578443D02*
X754657D01*
X753283Y571243D02*
X754591D01*
X749303Y366043D02*
X752665D01*
X750278Y358843D02*
X751691D01*
X740342Y580243D02*
X747532D01*
X740619Y569443D02*
X747255D01*
X743398Y366043D02*
X746760D01*
X744372Y358843D02*
X745785D01*
X742247Y579343D02*
X745627D01*
X742353Y570343D02*
X745521D01*
X743217Y578443D02*
X744657D01*
X743283Y571243D02*
X744591D01*
X395382Y439843D02*
X741390D01*
X617231Y366043D02*
X740854D01*
X693519Y479443D02*
X740764D01*
X619676Y445243D02*
X739994D01*
X577075Y358843D02*
X739880D01*
X395382Y440743D02*
X739833D01*
X617132Y365143D02*
X739348D01*
X618431Y444343D02*
X739311D01*
X395382Y441643D02*
X739235D01*
X695733Y496543D02*
X739199D01*
X395382Y443443D02*
X739013D01*
X395382Y442543D02*
X738990D01*
X573271Y359743D02*
X738919D01*
X616860Y364243D02*
X738634D01*
X476013Y360643D02*
X738397D01*
X616381Y363343D02*
X738246D01*
X614236Y361543D02*
X738137D01*
X615610Y362443D02*
X738090D01*
X693301Y480343D02*
X738028D01*
X701269Y580243D02*
X737532D01*
X695531Y495643D02*
X737352D01*
X704371Y569443D02*
X737255D01*
X692941Y481243D02*
X736639D01*
X695226Y494743D02*
X736176D01*
X692410Y482143D02*
X735661D01*
X701906Y579343D02*
X735627D01*
X704428Y570343D02*
X735521D01*
X694806Y493843D02*
X735315D01*
X691649Y483043D02*
X734924D01*
X694251Y492943D02*
X734659D01*
X702453Y578443D02*
X734657D01*
X704432Y571243D02*
X734591D01*
X690511Y483943D02*
X734359D01*
X693526Y492043D02*
X734157D01*
X702921Y577543D02*
X734032D01*
X704384Y572143D02*
X733989D01*
X688187Y484843D02*
X733931D01*
X692566Y491143D02*
X733782D01*
X703317Y576643D02*
X733629D01*
X490125Y485743D02*
X733619D01*
X704283Y573043D02*
X733602D01*
X691214Y490243D02*
X733516D01*
X489663Y486643D02*
X733410D01*
X703648Y575743D02*
X733398D01*
X704128Y573943D02*
X733385D01*
X688699Y489343D02*
X733350D01*
X703917Y574843D02*
X733319D01*
X489051Y487543D02*
X733298D01*
X488244Y488443D02*
X733278D01*
X709696Y239143D02*
X733217D01*
X710693Y244543D02*
X732220D01*
X711034Y240043D02*
X731879D01*
X711431Y243643D02*
X731483D01*
X711589Y240943D02*
X731325D01*
X711758Y242743D02*
X731155D01*
X711806Y241843D02*
X731107D01*
X583008Y416443D02*
X729524D01*
X620367Y451543D02*
X728718D01*
X620398Y446143D02*
X728639D01*
X580197Y411043D02*
X728198D01*
X582801Y415543D02*
X728009D01*
X620827Y450643D02*
X727738D01*
X620845Y447043D02*
X727704D01*
X580987Y411943D02*
X727507D01*
X582506Y414643D02*
X727418D01*
X621084Y449743D02*
X727296D01*
X621092Y447943D02*
X727281D01*
X581616Y412843D02*
X727205D01*
X582116Y413743D02*
X727178D01*
X621169Y448843D02*
X727158D01*
X395382Y239143D02*
X707627D01*
X423870Y244543D02*
X706629D01*
X395382Y240043D02*
X706289D01*
X422802Y243643D02*
X705892D01*
X417278Y240943D02*
X705734D01*
X421496Y242743D02*
X705565D01*
X419810Y241843D02*
X705517D01*
X694209Y303043D02*
X699492D01*
X694762Y287743D02*
X698938D01*
X695290Y330043D02*
X698411D01*
X695312Y315643D02*
X698389D01*
X695700Y302143D02*
X698001D01*
X695927Y288643D02*
X697774D01*
X696188Y329143D02*
X697512D01*
X696200Y316543D02*
X697501D01*
X696410Y301243D02*
X697291D01*
X696685Y289543D02*
X697016D01*
X632223Y303043D02*
X691618D01*
X616575Y322843D02*
X691146D01*
X627787Y287743D02*
X691064D01*
X631434Y294943D02*
X691019D01*
X631046Y295843D02*
X690679D01*
X662574Y330043D02*
X690537D01*
X631148Y315643D02*
X690515D01*
X616724Y321943D02*
X690253D01*
X615580Y323743D02*
X690235D01*
X632135Y302143D02*
X690127D01*
X631654Y294043D02*
X689907D01*
X629502Y288643D02*
X689900D01*
X630444Y296743D02*
X689712D01*
X661468Y329143D02*
X689638D01*
X630600Y316543D02*
X689627D01*
X616724Y321043D02*
X689486D01*
X395382Y324643D02*
X689476D01*
X631895Y301243D02*
X689417D01*
X631724Y293143D02*
X689295D01*
X630433Y289543D02*
X689291D01*
X629535Y297643D02*
X689187D01*
X659921Y328243D02*
X689147D01*
X629764Y317443D02*
X689141D01*
X616724Y320143D02*
X689067D01*
X395382Y325543D02*
X689061D01*
X631483Y300343D02*
X689031D01*
X631652Y292243D02*
X688972D01*
X631038Y290443D02*
X688971D01*
X629868Y298543D02*
X688926D01*
X656850Y327343D02*
X688911D01*
X628347Y318343D02*
X688908D01*
X616724Y319243D02*
X688885D01*
X395382Y326443D02*
X688883D01*
X630848Y299443D02*
X688877D01*
X631429Y291343D02*
X688870D01*
X583917Y231943D02*
X687694D01*
X584270Y201343D02*
X686110D01*
X640942Y484843D02*
X685829D01*
X641454Y489343D02*
X685317D01*
X417426Y555943D02*
X684936D01*
X642281Y472243D02*
X684491D01*
X417934Y585643D02*
X684429D01*
X642521Y506443D02*
X684251D01*
X585136Y231043D02*
X683631D01*
X643267Y483943D02*
X683505D01*
X585352Y202243D02*
X683081D01*
X643827Y473143D02*
X682944D01*
X643969Y490243D02*
X682802D01*
X419896Y556843D02*
X682467D01*
X644404Y483043D02*
X682367D01*
X644447Y505543D02*
X682325D01*
X420203Y584743D02*
X682159D01*
X644771Y474043D02*
X682001D01*
X585919Y230143D02*
X681637D01*
X645166Y482143D02*
X681606D01*
X645322Y491143D02*
X681449D01*
X645421Y474943D02*
X681350D01*
X586066Y203143D02*
X681252D01*
X645650Y504643D02*
X681122D01*
X645697Y481243D02*
X681075D01*
X645873Y475843D02*
X680899D01*
X421560Y557743D02*
X680803D01*
X646057Y480343D02*
X680715D01*
X646168Y476743D02*
X680603D01*
X421790Y583843D02*
X680572D01*
X646275Y479443D02*
X680497D01*
X646282Y492043D02*
X680490D01*
X646329Y477643D02*
X680443D01*
X646363Y478543D02*
X680408D01*
X646526Y503743D02*
X680245D01*
X586453Y229243D02*
X680170D01*
X586552Y204043D02*
X679868D01*
X647007Y492943D02*
X679765D01*
X647194Y502843D02*
X679578D01*
X422853Y558643D02*
X679510D01*
X423039Y582943D02*
X679323D01*
X647562Y493843D02*
X679210D01*
X647704Y501943D02*
X679067D01*
X586806Y228343D02*
X678995D01*
X647982Y494743D02*
X678790D01*
X586867Y204943D02*
X678747D01*
X648087Y501043D02*
X678684D01*
X648287Y495643D02*
X678485D01*
X423913Y559543D02*
X678450D01*
X648360Y500143D02*
X678412D01*
X424068Y582043D02*
X678294D01*
X648489Y496543D02*
X678282D01*
X648532Y499243D02*
X678239D01*
X648596Y497443D02*
X678176D01*
X648610Y498343D02*
X678162D01*
X643434Y227443D02*
X678019D01*
X587036Y205843D02*
X677810D01*
X424804Y560443D02*
X677558D01*
X424937Y581143D02*
X677426D01*
X645517Y226543D02*
X677191D01*
X587071Y206743D02*
X677012D01*
X425565Y561343D02*
X676797D01*
X425679Y580243D02*
X676684D01*
X646659Y225643D02*
X676483D01*
X586975Y207643D02*
X676329D01*
X426218Y562243D02*
X676144D01*
X426316Y579343D02*
X676047D01*
X647446Y224743D02*
X675874D01*
X586741Y208543D02*
X675742D01*
X426779Y563143D02*
X675583D01*
X426863Y578443D02*
X675499D01*
X648013Y223843D02*
X675352D01*
X586352Y209443D02*
X675239D01*
X427259Y564043D02*
X675103D01*
X427331Y577543D02*
X675032D01*
X648414Y222943D02*
X674906D01*
X585770Y210343D02*
X674810D01*
X427667Y564943D02*
X674695D01*
X427727Y576643D02*
X674635D01*
X648678Y222043D02*
X674530D01*
X584914Y211243D02*
X674450D01*
X428008Y565843D02*
X674355D01*
X428057Y575743D02*
X674305D01*
X648820Y221143D02*
X674218D01*
X583532Y212143D02*
X674153D01*
X428286Y566743D02*
X674076D01*
X428326Y574843D02*
X674036D01*
X648848Y220243D02*
X673967D01*
X578500Y213043D02*
X673915D01*
X428507Y567643D02*
X673855D01*
X428537Y573943D02*
X673825D01*
X648762Y219343D02*
X673773D01*
X644675Y213943D02*
X673735D01*
X428671Y568543D02*
X673691D01*
X428692Y573043D02*
X673670D01*
X648559Y218443D02*
X673634D01*
X646135Y214843D02*
X673609D01*
X428781Y569443D02*
X673581D01*
X428794Y572143D02*
X673569D01*
X648228Y217543D02*
X673549D01*
X647078Y215743D02*
X673536D01*
X428838Y570343D02*
X673525D01*
X428842Y571243D02*
X673520D01*
X647747Y216643D02*
X673516D01*
X630842Y552343D02*
X658528D01*
X631222Y533443D02*
X658148D01*
X631497Y521743D02*
X657873D01*
X631868Y542443D02*
X657502D01*
X632957Y551443D02*
X656413D01*
X633309Y532543D02*
X656062D01*
X633331Y543343D02*
X656039D01*
X633406Y522643D02*
X655964D01*
X633917Y550543D02*
X655453D01*
X634145Y544243D02*
X655226D01*
X634352Y531643D02*
X655018D01*
X634414Y523543D02*
X654957D01*
X634514Y549643D02*
X654856D01*
X634657Y545143D02*
X654713D01*
X634881Y548743D02*
X654489D01*
X634961Y546043D02*
X654409D01*
X635037Y530743D02*
X654333D01*
X635068Y547843D02*
X654302D01*
X635079Y524443D02*
X654291D01*
X635094Y546943D02*
X654276D01*
X395382Y327343D02*
X654174D01*
X635498Y529843D02*
X653872D01*
X635525Y525343D02*
X653845D01*
X635786Y528943D02*
X653584D01*
X635802Y526243D02*
X653568D01*
X635928Y528043D02*
X653442D01*
X635933Y527143D02*
X653437D01*
X395382Y278743D02*
X653037D01*
X499197Y258943D02*
X652084D01*
X582926Y347143D02*
X651528D01*
X395382Y328243D02*
X651103D01*
X395382Y277843D02*
X650675D01*
X499276Y259843D02*
X650173D01*
X582680Y346243D02*
X649833D01*
X395382Y329143D02*
X649556D01*
X395382Y276943D02*
X649264D01*
X499197Y260743D02*
X648906D01*
X582344Y345343D02*
X648657D01*
X395382Y330043D02*
X648449D01*
X395382Y276043D02*
X648227D01*
X498953Y261643D02*
X647952D01*
X581907Y344443D02*
X647758D01*
X474976Y330943D02*
X647595D01*
X395382Y275143D02*
X647421D01*
X498516Y262543D02*
X647202D01*
X581352Y343543D02*
X647048D01*
X476500Y331843D02*
X646919D01*
X395382Y274243D02*
X646779D01*
X497820Y263443D02*
X646606D01*
X580656Y342643D02*
X646483D01*
X477544Y332743D02*
X646380D01*
X395382Y273343D02*
X646270D01*
X496662Y264343D02*
X646132D01*
X579777Y341743D02*
X646036D01*
X478324Y333643D02*
X645956D01*
X395382Y272443D02*
X645870D01*
X477083Y265243D02*
X645764D01*
X578630Y340843D02*
X645691D01*
X478921Y334543D02*
X645631D01*
X395382Y271543D02*
X645567D01*
X424972Y266143D02*
X645491D01*
X577000Y339943D02*
X645438D01*
X479376Y335443D02*
X645396D01*
X418060Y270643D02*
X645353D01*
X424109Y267043D02*
X645303D01*
X480111Y339043D02*
X645271D01*
X479711Y336343D02*
X645246D01*
X420282Y269743D02*
X645222D01*
X423088Y267943D02*
X645197D01*
X480072Y338143D02*
X645184D01*
X479940Y337243D02*
X645175D01*
X421851Y268843D02*
X645170D01*
X627834Y227443D02*
X639883D01*
X629075Y213943D02*
X638641D01*
X490463Y484843D02*
X638585D01*
X487144Y489343D02*
X638073D01*
X629917Y226543D02*
X637800D01*
X584326Y472243D02*
X637247D01*
X630535Y214843D02*
X637181D01*
X584019Y506443D02*
X637007D01*
X631059Y225643D02*
X636658D01*
X578223Y483943D02*
X636261D01*
X631478Y215743D02*
X636239D01*
X631846Y224743D02*
X635870D01*
X584477Y473143D02*
X635700D01*
X632147Y216643D02*
X635570D01*
X485463Y490243D02*
X635558D01*
X632413Y223843D02*
X635304D01*
X579908Y483043D02*
X635123D01*
X632628Y217543D02*
X635089D01*
X583094Y505543D02*
X635081D01*
X632814Y222943D02*
X634903D01*
X632959Y218443D02*
X634758D01*
X584549Y474043D02*
X634757D01*
X633078Y222043D02*
X634639D01*
X633162Y219343D02*
X634555D01*
X633220Y221143D02*
X634497D01*
X633248Y220243D02*
X634469D01*
X581080Y482143D02*
X634362D01*
X430955Y491143D02*
X634205D01*
X584541Y474943D02*
X634106D01*
X584506Y504643D02*
X633878D01*
X581976Y481243D02*
X633831D01*
X584455Y475843D02*
X633655D01*
X582684Y480343D02*
X633470D01*
X584288Y476743D02*
X633359D01*
X583248Y479443D02*
X633253D01*
X429797Y492043D02*
X633246D01*
X584037Y477643D02*
X633199D01*
X583693Y478543D02*
X633164D01*
X585249Y503743D02*
X633001D01*
X428256Y492943D02*
X632521D01*
X585343Y502843D02*
X632334D01*
X425782Y493843D02*
X631966D01*
X585343Y501943D02*
X631823D01*
X395382Y494743D02*
X631546D01*
X585343Y501043D02*
X631440D01*
X585110Y495643D02*
X631241D01*
X585343Y500143D02*
X631168D01*
X585343Y496543D02*
X631038D01*
X585343Y499243D02*
X630995D01*
X585343Y497443D02*
X630932D01*
X585343Y498343D02*
X630918D01*
X581764Y552343D02*
X629001D01*
X395382Y533443D02*
X628620D01*
X584970Y521743D02*
X628346D01*
X584160Y542443D02*
X627974D01*
X582515Y551443D02*
X626886D01*
X395382Y532543D02*
X626534D01*
X584373Y543343D02*
X626512D01*
X584490Y522643D02*
X626437D01*
X583113Y550543D02*
X625926D01*
X584503Y544243D02*
X625698D01*
X395382Y531643D02*
X625490D01*
X583719Y523543D02*
X625429D01*
X583588Y549643D02*
X625329D01*
X584554Y545143D02*
X625185D01*
X583957Y548743D02*
X624962D01*
X584527Y546043D02*
X624881D01*
X395382Y530743D02*
X624805D01*
X584231Y547843D02*
X624775D01*
X582343Y524443D02*
X624764D01*
X584420Y546943D02*
X624749D01*
X395382Y529843D02*
X624345D01*
X395382Y525343D02*
X624318D01*
X616710Y287743D02*
X624299D01*
X587008Y227443D02*
X624283D01*
X395382Y528943D02*
X624056D01*
X395382Y526243D02*
X624041D01*
X395382Y528043D02*
X623915D01*
X395382Y527143D02*
X623910D01*
X616724Y318343D02*
X623740D01*
X616711Y298543D02*
X623125D01*
X578829Y213943D02*
X623041D01*
X616692Y307543D02*
X622941D01*
X616717Y308443D02*
X622862D01*
X616703Y288643D02*
X622584D01*
X616702Y297643D02*
X622567D01*
X616724Y317443D02*
X622323D01*
X616575Y299443D02*
X622238D01*
X587075Y226543D02*
X622200D01*
X616521Y306643D02*
X622063D01*
X616598Y309343D02*
X621826D01*
X616551Y289543D02*
X621654D01*
X616547Y296743D02*
X621643D01*
X616284Y300343D02*
X621604D01*
X579067Y214843D02*
X621581D01*
X616189Y305743D02*
X621489D01*
X616724Y316543D02*
X621487D01*
X615809Y301243D02*
X621192D01*
X616325Y310243D02*
X621162D01*
X615663Y304843D02*
X621120D01*
X587010Y225643D02*
X621058D01*
X616241Y290443D02*
X621048D01*
X616235Y295843D02*
X621041D01*
X615084Y302143D02*
X620952D01*
X616724Y315643D02*
X620938D01*
X614861Y303943D02*
X620918D01*
X614189Y303043D02*
X620863D01*
X615872Y311143D02*
X620728D01*
X615742Y291343D02*
X620657D01*
X615733Y294943D02*
X620653D01*
X579203Y215743D02*
X620639D01*
X616724Y314743D02*
X620590D01*
X615299Y312043D02*
X620471D01*
X614983Y292243D02*
X620435D01*
X614969Y294043D02*
X620433D01*
X616696Y313843D02*
X620405D01*
X616214Y312943D02*
X620366D01*
X614177Y293143D02*
X620362D01*
X586810Y224743D02*
X620270D01*
X579239Y216643D02*
X619970D01*
X586461Y223843D02*
X619704D01*
X579179Y217543D02*
X619489D01*
X585930Y222943D02*
X619303D01*
X579020Y218443D02*
X619158D01*
X585151Y222043D02*
X619039D01*
X578756Y219343D02*
X618955D01*
X583943Y221143D02*
X618897D01*
X578519Y220243D02*
X618869D01*
X395382Y453343D02*
X613948D01*
X395382Y444343D02*
X613852D01*
X395382Y452443D02*
X612657D01*
X395382Y445243D02*
X612608D01*
X395382Y451543D02*
X611916D01*
X395382Y446143D02*
X611886D01*
X395382Y450643D02*
X611457D01*
X395382Y447043D02*
X611438D01*
X395382Y449743D02*
X611200D01*
X395382Y447943D02*
X611191D01*
X395382Y448843D02*
X611114D01*
X477195Y361543D02*
X610173D01*
X553583Y370543D02*
X609774D01*
X478059Y362443D02*
X608800D01*
X552543Y369643D02*
X608597D01*
X395382Y283243D02*
X608180D01*
X478718Y363343D02*
X608028D01*
X478116Y293143D02*
X607909D01*
X480089Y368743D02*
X607902D01*
X500429Y303043D02*
X607898D01*
X479222Y364243D02*
X607550D01*
X480107Y367843D02*
X607474D01*
X479599Y365143D02*
X607277D01*
X480034Y366943D02*
X607241D01*
X500092Y303943D02*
X607225D01*
X479867Y366043D02*
X607178D01*
X479644Y294043D02*
X607118D01*
X395382Y292243D02*
X607104D01*
X395382Y284143D02*
X607016D01*
X500626Y302143D02*
X607002D01*
X395382Y312043D02*
X606788D01*
X395382Y323743D02*
X606507D01*
X499588Y304843D02*
X606424D01*
X496257Y294943D02*
X606354D01*
X395382Y291343D02*
X606344D01*
X395382Y285043D02*
X606287D01*
X500697Y301243D02*
X606278D01*
X395382Y311143D02*
X606215D01*
X498868Y305743D02*
X605897D01*
X395382Y312943D02*
X605873D01*
X497980Y295843D02*
X605852D01*
X395382Y290443D02*
X605846D01*
X395382Y285943D02*
X605808D01*
X500643Y300343D02*
X605803D01*
X395382Y310243D02*
X605762D01*
X497804Y306643D02*
X605566D01*
X498983Y296743D02*
X605539D01*
X395382Y289543D02*
X605536D01*
X395382Y286843D02*
X605515D01*
X395382Y322843D02*
X605512D01*
X500464Y299443D02*
X605511D01*
X477836Y309343D02*
X605489D01*
X495861Y307543D02*
X605395D01*
X395382Y313843D02*
X605390D01*
X499669Y297643D02*
X605385D01*
X395382Y288643D02*
X605384D01*
X395382Y287743D02*
X605377D01*
X500147Y298543D02*
X605376D01*
X479471Y308443D02*
X605370D01*
X395382Y321943D02*
X605362D01*
X395382Y321043D02*
X605362D01*
X395382Y320143D02*
X605362D01*
X395382Y319243D02*
X605362D01*
X395382Y318343D02*
X605362D01*
X395382Y317443D02*
X605362D01*
X395382Y316543D02*
X605362D01*
X395382Y315643D02*
X605362D01*
X395382Y314743D02*
X605362D01*
X562061Y200443D02*
X579671D01*
X563917Y231943D02*
X577815D01*
X564270Y201343D02*
X577463D01*
X565136Y231043D02*
X576596D01*
X565352Y202243D02*
X576381D01*
X565919Y230143D02*
X575813D01*
X566066Y203143D02*
X575666D01*
X566453Y229243D02*
X575279D01*
X395382Y514543D02*
X575209D01*
X566552Y204043D02*
X575180D01*
X395382Y524443D02*
X575137D01*
X566806Y228343D02*
X574926D01*
X572529Y224743D02*
X574917D01*
X573365Y208543D02*
X574904D01*
X566867Y204943D02*
X574865D01*
X566975Y207643D02*
X574757D01*
X395382Y515443D02*
X574732D01*
X567008Y227443D02*
X574724D01*
X567010Y225643D02*
X574722D01*
X567036Y205843D02*
X574696D01*
X567071Y206743D02*
X574661D01*
X567075Y226543D02*
X574657D01*
X395382Y505543D02*
X574386D01*
X395382Y513643D02*
X573874D01*
X395382Y523543D02*
X573762D01*
X395382Y516343D02*
X573556D01*
X395382Y506443D02*
X573462D01*
X395382Y512743D02*
X573059D01*
X395382Y522643D02*
X572990D01*
X395382Y504643D02*
X572975D01*
X395382Y464143D02*
X572962D01*
X395382Y517243D02*
X572862D01*
X395382Y507343D02*
X572803D01*
X395382Y511843D02*
X572553D01*
X395382Y521743D02*
X572511D01*
X395382Y518143D02*
X572434D01*
X395382Y508243D02*
X572399D01*
X474147Y359743D02*
X572398D01*
X395382Y495643D02*
X572370D01*
X395382Y510943D02*
X572260D01*
X395382Y520843D02*
X572238D01*
X395382Y503743D02*
X572232D01*
X395382Y519043D02*
X572202D01*
X395382Y509143D02*
X572187D01*
X395382Y510043D02*
X572142D01*
X395382Y519943D02*
X572139D01*
X395382Y502843D02*
X572138D01*
X395382Y501943D02*
X572138D01*
X395382Y501043D02*
X572138D01*
X395382Y500143D02*
X572138D01*
X395382Y499243D02*
X572138D01*
X395382Y498343D02*
X572138D01*
X395382Y497443D02*
X572138D01*
X395382Y496543D02*
X572138D01*
X408383Y535243D02*
X571700D01*
X395382Y555043D02*
X570811D01*
X490692Y483943D02*
X570202D01*
X407498Y408343D02*
X570063D01*
X395382Y465043D02*
X569827D01*
X395382Y428143D02*
X569637D01*
X409367Y536143D02*
X569359D01*
X566815Y224743D02*
X569204D01*
X395382Y554143D02*
X568889D01*
X424768Y245443D02*
X568743D01*
X480059Y339943D02*
X568669D01*
X395382Y358843D02*
X568594D01*
X490821Y483043D02*
X568518D01*
X477084Y254443D02*
X568513D01*
X566828Y208543D02*
X568368D01*
X395382Y465943D02*
X568273D01*
X409968Y537043D02*
X567952D01*
X407597Y409243D02*
X567854D01*
X395382Y427243D02*
X567627D01*
X395382Y553243D02*
X567618D01*
X425534Y246343D02*
X567416D01*
X490853Y482143D02*
X567345D01*
X428665Y253543D02*
X567299D01*
X395382Y466843D02*
X567162D01*
X479913Y340843D02*
X567040D01*
X395382Y357943D02*
X566991D01*
X410333Y537943D02*
X566919D01*
X426192Y247243D02*
X566662D01*
X395382Y552343D02*
X566661D01*
X428498Y252643D02*
X566589D01*
X407561Y410143D02*
X566485D01*
X490791Y481243D02*
X566449D01*
X395382Y426343D02*
X566323D01*
X395382Y467743D02*
X566305D01*
X426756Y248143D02*
X566194D01*
X428276Y251743D02*
X566150D01*
X410512Y538843D02*
X566114D01*
X427240Y249043D02*
X565931D01*
X395382Y551443D02*
X565910D01*
X427994Y250843D02*
X565910D01*
X479668Y341743D02*
X565893D01*
X395382Y357043D02*
X565856D01*
X427650Y249943D02*
X565839D01*
X490632Y480343D02*
X565741D01*
X395382Y468643D02*
X565627D01*
X410526Y539743D02*
X565474D01*
X407386Y411043D02*
X565473D01*
X395382Y425443D02*
X565348D01*
X395382Y550543D02*
X565312D01*
X490370Y479443D02*
X565177D01*
X395382Y469543D02*
X565087D01*
X479316Y342643D02*
X565013D01*
X395382Y356143D02*
X564984D01*
X410376Y540643D02*
X564966D01*
X395382Y549643D02*
X564837D01*
X489995Y478543D02*
X564732D01*
X407060Y411943D02*
X564682D01*
X427365Y470443D02*
X564661D01*
X395382Y424543D02*
X564583D01*
X410046Y541543D02*
X564567D01*
X395382Y548743D02*
X564469D01*
X489489Y477643D02*
X564388D01*
X429185Y471343D02*
X564335D01*
X478843Y343543D02*
X564317D01*
X395382Y355243D02*
X564294D01*
X409491Y542443D02*
X564266D01*
X395382Y547843D02*
X564194D01*
X488823Y476743D02*
X564137D01*
X430483Y472243D02*
X564100D01*
X406554Y412843D02*
X564053D01*
X408593Y543343D02*
X564052D01*
X395382Y546943D02*
X564005D01*
X395382Y423643D02*
X563975D01*
X487938Y475843D02*
X563970D01*
X431498Y473143D02*
X563948D01*
X406750Y544243D02*
X563922D01*
X395382Y546043D02*
X563899D01*
X486708Y474943D02*
X563884D01*
X484640Y474043D02*
X563877D01*
X395382Y545143D02*
X563871D01*
X478222Y344443D02*
X563763D01*
X395382Y354343D02*
X563745D01*
X405802Y413743D02*
X563554D01*
X395382Y422743D02*
X563492D01*
X477410Y345343D02*
X563325D01*
X395382Y353443D02*
X563311D01*
X541836Y213043D02*
X563232D01*
X519079Y220243D02*
X563213D01*
X404630Y414643D02*
X563163D01*
X395382Y421843D02*
X563115D01*
X476315Y346243D02*
X562989D01*
X395382Y352543D02*
X562978D01*
X518998Y219343D02*
X562977D01*
X515359Y213943D02*
X562904D01*
X395382Y415543D02*
X562868D01*
X395382Y420943D02*
X562834D01*
X474675Y347143D02*
X562744D01*
X395382Y351643D02*
X562736D01*
X518806Y218443D02*
X562712D01*
X516582Y214843D02*
X562665D01*
X395382Y416443D02*
X562662D01*
X395382Y420043D02*
X562639D01*
X395382Y348043D02*
X562583D01*
X395382Y350743D02*
X562578D01*
X518494Y217543D02*
X562553D01*
X395382Y417343D02*
X562537D01*
X517428Y215743D02*
X562530D01*
X395382Y419143D02*
X562526D01*
X395382Y348943D02*
X562503D01*
X395382Y349843D02*
X562501D01*
X518045Y216643D02*
X562493D01*
X395382Y418243D02*
X562492D01*
X397100Y200443D02*
X559671D01*
X542997Y212143D02*
X558201D01*
X475457Y231943D02*
X557815D01*
X519053Y221143D02*
X557789D01*
X396387Y201343D02*
X557463D01*
X543684Y211243D02*
X556818D01*
X476357Y231043D02*
X556596D01*
X518918Y222043D02*
X556581D01*
X395901Y202243D02*
X556381D01*
X544108Y210343D02*
X555962D01*
X476878Y230143D02*
X555813D01*
X518669Y222943D02*
X555802D01*
X395587Y203143D02*
X555666D01*
X544337Y209443D02*
X555380D01*
X476878Y229243D02*
X555279D01*
X518293Y223843D02*
X555272D01*
X541356Y204043D02*
X555180D01*
X544396Y208543D02*
X554991D01*
X476878Y228343D02*
X554926D01*
X517767Y224743D02*
X554922D01*
X542754Y204943D02*
X554865D01*
X544293Y207643D02*
X554757D01*
X514491Y227443D02*
X554724D01*
X517048Y225643D02*
X554722D01*
X543533Y205843D02*
X554696D01*
X544017Y206743D02*
X554661D01*
X516047Y226543D02*
X554657D01*
X395382Y378643D02*
X544748D01*
X395382Y379543D02*
X544074D01*
X479978Y369643D02*
X543914D01*
X395382Y388543D02*
X543858D01*
X395382Y377743D02*
X543462D01*
X395382Y387643D02*
X543344D01*
X395382Y380443D02*
X542964D01*
X479771Y370543D02*
X542874D01*
X472707Y376843D02*
X542608D01*
X395382Y386743D02*
X542536D01*
X395382Y381343D02*
X542301D01*
X479460Y371443D02*
X542244D01*
X395382Y398443D02*
X542170D01*
X475383Y375943D02*
X542078D01*
X395382Y385843D02*
X542034D01*
X395382Y389443D02*
X542010D01*
X395382Y382243D02*
X541893D01*
X479034Y372343D02*
X541860D01*
X476764Y375043D02*
X541767D01*
X395382Y384943D02*
X541744D01*
X395382Y383143D02*
X541677D01*
X478472Y373243D02*
X541664D01*
X395382Y397543D02*
X541660D01*
X395382Y390343D02*
X541634D01*
X477738Y374143D02*
X541634D01*
X395382Y384043D02*
X541629D01*
X395382Y396643D02*
X541626D01*
X395382Y395743D02*
X541626D01*
X395382Y394843D02*
X541626D01*
X395382Y393943D02*
X541626D01*
X395382Y393043D02*
X541626D01*
X395382Y392143D02*
X541626D01*
X395382Y391243D02*
X541626D01*
X395420Y204043D02*
X537384D01*
X513031Y213043D02*
X536904D01*
X395382Y204943D02*
X535987D01*
X476878Y212143D02*
X535743D01*
X395382Y205843D02*
X535207D01*
X476878Y211243D02*
X535056D01*
X395382Y206743D02*
X534723D01*
X476787Y210343D02*
X534632D01*
X395382Y207643D02*
X534447D01*
X475898Y209443D02*
X534404D01*
X474998Y208543D02*
X534344D01*
X497441Y213043D02*
X509961D01*
X498901Y227443D02*
X508501D01*
X499768Y213943D02*
X507633D01*
X500456Y226543D02*
X506945D01*
X500991Y214843D02*
X506410D01*
X501458Y225643D02*
X505944D01*
X501837Y215743D02*
X505564D01*
X502176Y224743D02*
X505225D01*
X502455Y216643D02*
X504947D01*
X502702Y223843D02*
X504699D01*
X502904Y217543D02*
X504498D01*
X503079Y222943D02*
X504323D01*
X503216Y218443D02*
X504186D01*
X476878Y213043D02*
X494370D01*
X476878Y227443D02*
X492910D01*
X480564Y307543D02*
X492328D01*
X476878Y213943D02*
X492043D01*
X480689Y294943D02*
X491932D01*
X478417Y264343D02*
X491527D01*
X478417Y255343D02*
X491526D01*
X476878Y226543D02*
X491355D01*
X476878Y214843D02*
X490820D01*
X481375Y306643D02*
X490385D01*
X479242Y263443D02*
X490369D01*
X479242Y256243D02*
X490368D01*
X476878Y225643D02*
X490354D01*
X481470Y295843D02*
X490209D01*
X481033Y215743D02*
X489974D01*
X479796Y262543D02*
X489673D01*
X479797Y257143D02*
X489672D01*
X482471Y224743D02*
X489635D01*
X483182Y216643D02*
X489356D01*
X481995Y305743D02*
X489321D01*
X480160Y261643D02*
X489236D01*
X480160Y258043D02*
X489236D01*
X482068Y296743D02*
X489206D01*
X483710Y223843D02*
X489109D01*
X480368Y260743D02*
X488992D01*
X480368Y258943D02*
X488992D01*
X480435Y259843D02*
X488913D01*
X484097Y217543D02*
X488907D01*
X484412Y222943D02*
X488732D01*
X482468Y304843D02*
X488601D01*
X484647Y218443D02*
X488595D01*
X482523Y297643D02*
X488520D01*
X484834Y222043D02*
X488483D01*
X484964Y219343D02*
X488403D01*
X485052Y221143D02*
X488349D01*
X485093Y220243D02*
X488322D01*
X482819Y303943D02*
X488097D01*
X482859Y298543D02*
X488042D01*
X483063Y303043D02*
X487760D01*
X483089Y299443D02*
X487725D01*
X483209Y302143D02*
X487563D01*
X483221Y300343D02*
X487546D01*
X483261Y301243D02*
X487492D01*
X432321Y474043D02*
X479927D01*
X476878Y215743D02*
X479597D01*
X431878Y490243D02*
X479104D01*
X476893Y224743D02*
X478159D01*
X432998Y474943D02*
X477859D01*
X432633Y489343D02*
X477423D01*
X433558Y475843D02*
X476629D01*
X433257Y488443D02*
X476323D01*
X434018Y476743D02*
X475744D01*
X433771Y487543D02*
X475516D01*
X434390Y477643D02*
X475078D01*
X434191Y486643D02*
X474904D01*
X434682Y478543D02*
X474572D01*
X434527Y485743D02*
X474442D01*
X434900Y479443D02*
X474197D01*
X434786Y484843D02*
X474104D01*
X435048Y480343D02*
X473935D01*
X434973Y483943D02*
X473875D01*
X435129Y481243D02*
X473776D01*
X435092Y483043D02*
X473746D01*
X435143Y482143D02*
X473714D01*
X425708Y265243D02*
X471736D01*
X428777Y254443D02*
X471735D01*
X444371Y309343D02*
X470983D01*
X444651Y293143D02*
X470703D01*
X426341Y264343D02*
X470402D01*
X428836Y255343D02*
X470402D01*
X395382Y376843D02*
X469813D01*
X426885Y263443D02*
X469577D01*
X428843Y256243D02*
X469577D01*
X446007Y308443D02*
X469348D01*
X446179Y294043D02*
X469175D01*
X427349Y262543D02*
X469022D01*
X428797Y257143D02*
X469022D01*
X427743Y261643D02*
X468659D01*
X428698Y258043D02*
X468659D01*
X428070Y260743D02*
X468451D01*
X428545Y258943D02*
X468451D01*
X428337Y259843D02*
X468384D01*
X395382Y359743D02*
X468372D01*
X447100Y307543D02*
X468255D01*
X447225Y294943D02*
X468130D01*
X395382Y347143D02*
X467845D01*
X395382Y330943D02*
X467543D01*
X447911Y306643D02*
X467444D01*
X448006Y295843D02*
X467349D01*
X395382Y375943D02*
X467136D01*
X448531Y305743D02*
X466824D01*
X448603Y296743D02*
X466751D01*
X395382Y360643D02*
X466507D01*
X449004Y304843D02*
X466351D01*
X449059Y297643D02*
X466296D01*
X395382Y346243D02*
X466205D01*
X395382Y331843D02*
X466019D01*
X449355Y303943D02*
X466000D01*
X449394Y298543D02*
X465960D01*
X395382Y375043D02*
X465756D01*
X449599Y303043D02*
X465756D01*
X449624Y299443D02*
X465730D01*
X449744Y302143D02*
X465610D01*
X449757Y300343D02*
X465598D01*
X449796Y301243D02*
X465558D01*
X395382Y361543D02*
X465325D01*
X395382Y345343D02*
X465110D01*
X395382Y332743D02*
X464975D01*
X395382Y374143D02*
X464782D01*
X406870Y362443D02*
X464460D01*
X395382Y344443D02*
X464298D01*
X409282Y333643D02*
X464196D01*
X408912Y373243D02*
X464048D01*
X409566Y363343D02*
X463802D01*
X409246Y343543D02*
X463677D01*
X410471Y334543D02*
X463599D01*
X410266Y372343D02*
X463486D01*
X410638Y364243D02*
X463298D01*
X410450Y342643D02*
X463203D01*
X411211Y335443D02*
X463144D01*
X411077Y371443D02*
X463059D01*
X411321Y365143D02*
X462920D01*
X411197Y341743D02*
X462852D01*
X411697Y336343D02*
X462809D01*
X411610Y370543D02*
X462749D01*
X411768Y366043D02*
X462653D01*
X411689Y340843D02*
X462607D01*
X411997Y337243D02*
X462580D01*
X411947Y369643D02*
X462542D01*
X412036Y366943D02*
X462485D01*
X411992Y339943D02*
X462461D01*
X412140Y338143D02*
X462448D01*
X412122Y368743D02*
X462431D01*
X412151Y367843D02*
X462412D01*
X412139Y339043D02*
X462408D01*
X395382Y208543D02*
X438388D01*
X395382Y231943D02*
X437929D01*
X395382Y309343D02*
X437519D01*
X395382Y209443D02*
X437488D01*
X395382Y293143D02*
X437238D01*
X395382Y231043D02*
X437029D01*
X395382Y210343D02*
X436599D01*
X395382Y230143D02*
X436508D01*
X395382Y229243D02*
X436508D01*
X395382Y228343D02*
X436508D01*
X395382Y227443D02*
X436508D01*
X395382Y226543D02*
X436508D01*
X395382Y225643D02*
X436508D01*
X395382Y224743D02*
X436508D01*
X395382Y223843D02*
X436508D01*
X395382Y222943D02*
X436508D01*
X395382Y222043D02*
X436508D01*
X395382Y221143D02*
X436508D01*
X395382Y220243D02*
X436508D01*
X395382Y219343D02*
X436508D01*
X395382Y218443D02*
X436508D01*
X395382Y217543D02*
X436508D01*
X395382Y216643D02*
X436508D01*
X395382Y215743D02*
X436508D01*
X395382Y214843D02*
X436508D01*
X395382Y213943D02*
X436508D01*
X395382Y213043D02*
X436508D01*
X395382Y212143D02*
X436508D01*
X395382Y211243D02*
X436508D01*
X395382Y308443D02*
X435883D01*
X395382Y294043D02*
X435711D01*
X423026Y307543D02*
X434790D01*
X423422Y294943D02*
X434665D01*
X424969Y306643D02*
X433979D01*
X425145Y295843D02*
X433884D01*
X426033Y305743D02*
X433359D01*
X426148Y296743D02*
X433286D01*
X426754Y304843D02*
X432886D01*
X426834Y297643D02*
X432831D01*
X427257Y303943D02*
X432535D01*
X427312Y298543D02*
X432496D01*
X427594Y303043D02*
X432291D01*
X427629Y299443D02*
X432266D01*
X427792Y302143D02*
X432146D01*
X427809Y300343D02*
X432133D01*
X427862Y301243D02*
X432093D01*
X395382Y493843D02*
X419887D01*
X395382Y307543D02*
X419493D01*
X395382Y294943D02*
X419098D01*
X395382Y470443D02*
X418304D01*
X395382Y306643D02*
X417550D01*
X395382Y492943D02*
X417413D01*
X395382Y295843D02*
X417375D01*
X395382Y305743D02*
X416487D01*
X395382Y471343D02*
X416485D01*
X395382Y296743D02*
X416372D01*
X395382Y492043D02*
X415872D01*
X395382Y304843D02*
X415766D01*
X395382Y297643D02*
X415686D01*
X395382Y303943D02*
X415263D01*
X395382Y298543D02*
X415208D01*
X395382Y472243D02*
X415186D01*
X395382Y303043D02*
X414925D01*
X395382Y299443D02*
X414890D01*
X395382Y302143D02*
X414728D01*
X395382Y491143D02*
X414714D01*
X395382Y300343D02*
X414711D01*
X395382Y301243D02*
X414658D01*
X395382Y473143D02*
X414171D01*
X395382Y490243D02*
X413791D01*
X395382Y474043D02*
X413349D01*
X395382Y489343D02*
X413036D01*
X395382Y474943D02*
X412671D01*
X395382Y488443D02*
X412413D01*
X395382Y475843D02*
X412111D01*
X395382Y487543D02*
X411898D01*
X395382Y476743D02*
X411651D01*
X395382Y486643D02*
X411478D01*
X395382Y477643D02*
X411279D01*
X395382Y485743D02*
X411142D01*
X395382Y478543D02*
X410987D01*
X395382Y484843D02*
X410883D01*
X395382Y479443D02*
X410769D01*
X395382Y483943D02*
X410696D01*
X395382Y480343D02*
X410621D01*
X395382Y483043D02*
X410578D01*
X395382Y481243D02*
X410541D01*
X395382Y482143D02*
X410526D01*
X395382Y240943D02*
X409494D01*
X395382Y555943D02*
X409345D01*
X396138Y585643D02*
X408838D01*
X395382Y270643D02*
X408712D01*
X395382Y241843D02*
X406962D01*
X395382Y556843D02*
X406876D01*
X395737Y584743D02*
X406569D01*
X395382Y269743D02*
X406489D01*
X395382Y362443D02*
X406083D01*
X395382Y534343D02*
X405458D01*
X395382Y242743D02*
X405276D01*
X395382Y557743D02*
X405212D01*
X395493Y583843D02*
X404981D01*
X395382Y268843D02*
X404921D01*
X395382Y544243D02*
X404274D01*
X395382Y373243D02*
X404041D01*
X395382Y243643D02*
X403970D01*
X395382Y558643D02*
X403919D01*
X395388Y582943D02*
X403733D01*
X395382Y343543D02*
X403706D01*
X395382Y267943D02*
X403683D01*
X395382Y333643D02*
X403671D01*
X395382Y363343D02*
X403387D01*
X395382Y244543D02*
X402902D01*
X395382Y559543D02*
X402859D01*
X395382Y582043D02*
X402703D01*
X395382Y372343D02*
X402687D01*
X395382Y267043D02*
X402662D01*
X395382Y535243D02*
X402641D01*
X395382Y342643D02*
X402503D01*
X395382Y334543D02*
X402482D01*
X395382Y543343D02*
X402431D01*
X395382Y364243D02*
X402315D01*
X395382Y245443D02*
X402003D01*
X395382Y560443D02*
X401967D01*
X395382Y371443D02*
X401875D01*
X395382Y581143D02*
X401835D01*
X395382Y266143D02*
X401800D01*
X395382Y341743D02*
X401755D01*
X395382Y335443D02*
X401742D01*
X395382Y536143D02*
X401657D01*
X395382Y365143D02*
X401632D01*
X395382Y542443D02*
X401532D01*
X395382Y370543D02*
X401342D01*
X395382Y340843D02*
X401264D01*
X395382Y336343D02*
X401255D01*
X395382Y246343D02*
X401237D01*
X395382Y561343D02*
X401206D01*
X395382Y366043D02*
X401185D01*
X395382Y580243D02*
X401093D01*
X395382Y265243D02*
X401063D01*
X395382Y537043D02*
X401055D01*
X395382Y369643D02*
X401006D01*
X395382Y541543D02*
X400978D01*
X395382Y339943D02*
X400960D01*
X395382Y337243D02*
X400956D01*
X395382Y366943D02*
X400917D01*
X395382Y368743D02*
X400831D01*
X395382Y339043D02*
X400814D01*
X395382Y338143D02*
X400812D01*
X395382Y367843D02*
X400802D01*
X395382Y537943D02*
X400691D01*
X395382Y540643D02*
X400648D01*
X395382Y247243D02*
X400580D01*
X395382Y562243D02*
X400553D01*
X395382Y538843D02*
X400512D01*
X395382Y539743D02*
X400498D01*
X395382Y579343D02*
X400456D01*
X395382Y264343D02*
X400430D01*
X395382Y248143D02*
X400015D01*
X395382Y563143D02*
X399992D01*
X395382Y578443D02*
X399909D01*
X395382Y263443D02*
X399887D01*
X395382Y249043D02*
X399532D01*
X395382Y564043D02*
X399512D01*
X395382Y577543D02*
X399441D01*
X395382Y262543D02*
X399422D01*
X395382Y403843D02*
X399365D01*
X395382Y249943D02*
X399121D01*
X395382Y564943D02*
X399105D01*
X395382Y576643D02*
X399045D01*
X395382Y261643D02*
X399029D01*
X395382Y250843D02*
X398778D01*
X395382Y565843D02*
X398764D01*
X395382Y575743D02*
X398714D01*
X395382Y260743D02*
X398701D01*
X395382Y414643D02*
X398520D01*
X395382Y251743D02*
X398496D01*
X395382Y566743D02*
X398485D01*
X395382Y574843D02*
X398445D01*
X395382Y259843D02*
X398435D01*
X395382Y252643D02*
X398273D01*
X395382Y567643D02*
X398265D01*
X395382Y573943D02*
X398234D01*
X395382Y258943D02*
X398226D01*
X395382Y253543D02*
X398107D01*
X395382Y568543D02*
X398101D01*
X395382Y573043D02*
X398079D01*
X395382Y258043D02*
X398074D01*
X395382Y254443D02*
X397995D01*
X395382Y569443D02*
X397991D01*
X395382Y572143D02*
X397978D01*
X395382Y257143D02*
X397975D01*
X395382Y255343D02*
X397935D01*
X395382Y570343D02*
X397934D01*
X395382Y571243D02*
X397930D01*
X395382Y256243D02*
X397929D01*
X395382Y404743D02*
X397811D01*
X395382Y413743D02*
X397347D01*
X395382Y405643D02*
X396903D01*
X395382Y412843D02*
X396596D01*
X395471Y406543D02*
X396293D01*
X393701Y204724D02*
G03X401575Y196850I7874J0D01*
G01X1133858*
G03X1141732Y204724I0J7874*
G01Y582677*
G03X1133858Y590551I-7874J0*
G01X401575*
G03X393701Y582677I-0J-7874*
G01Y204724*
X456001Y94742D02*
Y94992D01*
X456183Y95492*
X456365Y95742*
X456729Y95992*
X457456*
X457820Y95742*
X458001Y95492*
X458183Y94992*
Y94492*
X458001Y93992*
X457638Y93242*
X455820Y90742*
X458365*
X461092Y95992D02*
X460547Y95742D01*
X460183Y94992*
X460001Y93742*
Y92992*
X460183Y91742*
X460547Y90992*
X461092Y90742*
X461456*
X462001Y90992*
X462365Y91742*
X462547Y92992*
Y93742*
X462365Y94992*
X462001Y95742*
X461456Y95992*
X461092*
X464183Y94992D02*
X464547Y95242D01*
X465092Y95992*
Y90742*
X469092Y94242D02*
X468910Y93492D01*
X468547Y92992*
X468001Y92742*
X467820*
X467274Y92992*
X466910Y93492*
X466729Y94242*
Y94492*
X466910Y95242*
X467274Y95742*
X467820Y95992*
X468001*
X468547Y95742*
X468910Y95242*
X469092Y94242*
Y92992*
X468910Y91742*
X468547Y90992*
X468001Y90742*
X467638*
X467092Y90992*
X466910Y91492*
X470910Y91242D02*
X470729Y90992D01*
X470910Y90742*
X471092Y90992*
X470910Y91242*
X472729Y94992D02*
X473092Y95242D01*
X473638Y95992*
Y90742*
X475274Y94992D02*
X475638Y95242D01*
X476183Y95992*
Y90742*
X478001Y91242D02*
X477820Y90992D01*
X478001Y90742*
X478183Y90992*
X478001Y91242*
X480001Y94742D02*
Y94992D01*
X480183Y95492*
X480365Y95742*
X480729Y95992*
X481456*
X481820Y95742*
X482001Y95492*
X482183Y94992*
Y94492*
X482001Y93992*
X481638Y93242*
X479820Y90742*
X482365*
X484910Y95992D02*
X484365Y95742D01*
X484183Y95242*
Y94742*
X484365Y94242*
X484729Y93992*
X485456Y93742*
X486001Y93492*
X486365Y92992*
X486547Y92492*
Y91742*
X486365Y91242*
X486183Y90992*
X485638Y90742*
X484910*
X484365Y90992*
X484183Y91242*
X484001Y91742*
Y92492*
X484183Y92992*
X484547Y93492*
X485092Y93742*
X485820Y93992*
X486183Y94242*
X486365Y94742*
Y95242*
X486183Y95742*
X485638Y95992*
X484910*
X439595Y135410D02*
Y130160D01*
Y135410D02*
X441232D01*
X441777Y135160*
X441959Y134910*
X442141Y134410*
Y133910*
X441959Y133410*
X441777Y133160*
X441232Y132910*
X439595*
X440868D02*
X442141Y130160D01*
X443777Y135410D02*
Y130160D01*
Y135410D02*
X446141D01*
X443777Y132910D02*
X445232D01*
X447777Y132410D02*
X451050D01*
X455413Y134160D02*
X455232Y134660D01*
X454868Y135160*
X454504Y135410*
X453777*
X453413Y135160*
X453050Y134660*
X452868Y134160*
X452686Y133410*
Y132160*
X452868Y131410*
X453050Y130910*
X453413Y130410*
X453777Y130160*
X454504*
X454868Y130410*
X455232Y130910*
X455413Y131410*
Y132160*
X454504D02*
X455413D01*
X457050Y135410D02*
Y130160D01*
Y135410D02*
X459413D01*
X457050Y132910D02*
X458504D01*
X457050Y130160D02*
X459413D01*
X461050Y135410D02*
Y130160D01*
Y135410D02*
X463595Y130160D01*
Y135410D02*
Y130160D01*
X465232Y132410D02*
X468504D01*
X470141Y135410D02*
Y130160D01*
Y135410D02*
X471777D01*
X472322Y135160*
X472504Y134910*
X472686Y134410*
Y133660*
X472504Y133160*
X472322Y132910*
X471777Y132660*
X470141*
X474322Y135410D02*
X475232Y130160D01*
X476141Y135410D02*
X475232Y130160D01*
X476141Y135410D02*
X477050Y130160D01*
X477959Y135410D02*
X477050Y130160D01*
X479595Y135410D02*
Y130160D01*
Y135410D02*
X481232D01*
X481777Y135160*
X481959Y134910*
X482141Y134410*
Y133910*
X481959Y133410*
X481777Y133160*
X481232Y132910*
X479595*
X480868D02*
X482141Y130160D01*
X483777Y132410D02*
X487050D01*
X489777Y135410D02*
X489232Y135160D01*
X488868Y134410*
X488686Y133160*
Y132410*
X488868Y131160*
X489232Y130410*
X489777Y130160*
X490141*
X490686Y130410*
X491050Y131160*
X491232Y132410*
Y133160*
X491050Y134410*
X490686Y135160*
X490141Y135410*
X489777*
X493959D02*
X493413Y135160D01*
X493050Y134410*
X492868Y133160*
Y132410*
X493050Y131160*
X493413Y130410*
X493959Y130160*
X494322*
X494868Y130410*
X495232Y131160*
X495413Y132410*
Y133160*
X495232Y134410*
X494868Y135160*
X494322Y135410*
X493959*
X497050Y134410D02*
X497413Y134660D01*
X497959Y135410*
Y130160*
X544717Y97079D02*
X545081Y97329D01*
X545626Y98079*
Y92829*
X549626Y96329D02*
X549444Y95579D01*
X549081Y95079*
X548535Y94829*
X548354*
X547808Y95079*
X547444Y95579*
X547263Y96329*
Y96579*
X547444Y97329*
X547808Y97829*
X548354Y98079*
X548535*
X549081Y97829*
X549444Y97329*
X549626Y96329*
Y95079*
X549444Y93829*
X549081Y93079*
X548535Y92829*
X548172*
X547626Y93079*
X547444Y93579*
X552354Y98079D02*
X551808Y97829D01*
X551444Y97079*
X551263Y95829*
Y95079*
X551444Y93829*
X551808Y93079*
X552354Y92829*
X552717*
X553263Y93079*
X553626Y93829*
X553808Y95079*
Y95829*
X553626Y97079*
X553263Y97829*
X552717Y98079*
X552354*
X559626D02*
X562172Y92829D01*
Y98079D02*
X559626Y92829D01*
X567990Y97079D02*
X568354Y97329D01*
X568899Y98079*
Y92829*
X571626Y98079D02*
X571081Y97829D01*
X570717Y97079*
X570535Y95829*
Y95079*
X570717Y93829*
X571081Y93079*
X571626Y92829*
X571990*
X572535Y93079*
X572899Y93829*
X573081Y95079*
Y95829*
X572899Y97079*
X572535Y97829*
X571990Y98079*
X571626*
X575808D02*
X575263Y97829D01*
X574899Y97079*
X574717Y95829*
Y95079*
X574899Y93829*
X575263Y93079*
X575808Y92829*
X576172*
X576717Y93079*
X577081Y93829*
X577263Y95079*
Y95829*
X577081Y97079*
X576717Y97829*
X576172Y98079*
X575808*
X403368Y83722D02*
X401095Y79347D01*
X404504*
X403368Y83722D02*
Y77160D01*
X406550Y83722D02*
Y77160D01*
X409277*
X414050Y81535D02*
Y77160D01*
Y80597D02*
X413595Y81222D01*
X413141Y81535*
X412459*
X412004Y81222*
X411550Y80597*
X411322Y79660*
Y79035*
X411550Y78097*
X412004Y77472*
X412459Y77160*
X413141*
X413595Y77472*
X414050Y78097*
X416322Y81535D02*
X417686Y77160D01*
X419050Y81535D02*
X417686Y77160D01*
X417232Y75910*
X416777Y75285*
X416322Y74972*
X416095*
X421095Y79660D02*
X423822D01*
Y80285*
X423595Y80910*
X423368Y81222*
X422913Y81535*
X422232*
X421777Y81222*
X421322Y80597*
X421095Y79660*
Y79035*
X421322Y78097*
X421777Y77472*
X422232Y77160*
X422913*
X423368Y77472*
X423822Y78097*
X425868Y81535D02*
Y77160D01*
Y79660D02*
X426095Y80597D01*
X426550Y81222*
X427004Y81535*
X427686*
X430186Y77472D02*
X429959Y77160D01*
X429732Y77472*
X429959Y77785*
X430186Y77472*
Y76847*
X429959Y76222*
X429732Y75910*
X442686Y83722D02*
Y77160D01*
Y83722D02*
X445641D01*
X442686Y80597D02*
X444504D01*
X447686Y83722D02*
Y77160D01*
Y83722D02*
X449732D01*
X450413Y83410*
X450641Y83097*
X450868Y82472*
Y81847*
X450641Y81222*
X450413Y80910*
X449732Y80597*
X447686*
X449277D02*
X450868Y77160D01*
X455186Y83722D02*
X452913Y79347D01*
X456322*
X455186Y83722D02*
Y77160D01*
X458822Y77472D02*
X458595Y77160D01*
X458368Y77472*
X458595Y77785*
X458822Y77472*
Y76847*
X458595Y76222*
X458368Y75910*
X472913Y83722D02*
Y77160D01*
X471322Y83722D02*
X474504D01*
X476777Y81535D02*
X476550Y81222D01*
X476777Y80910*
X477004Y81222*
X476777Y81535*
Y77785D02*
X476550Y77472D01*
X476777Y77160*
X477004Y77472*
X476777Y77785*
X479050Y82472D02*
X479504Y82785D01*
X480186Y83722*
Y77160*
X482459Y77785D02*
X482232Y77472D01*
X482459Y77160*
X482686Y77472*
X482459Y77785*
X487459Y82785D02*
X487232Y83410D01*
X486550Y83722*
X486095*
X485413Y83410*
X484959Y82472*
X484732Y80910*
Y79347*
X484959Y78097*
X485413Y77472*
X486095Y77160*
X486322*
X487004Y77472*
X487459Y78097*
X487686Y79035*
Y79347*
X487459Y80285*
X487004Y80910*
X486322Y81222*
X486095*
X485413Y80910*
X484959Y80285*
X484732Y79347*
X490186Y77472D02*
X489959Y77160D01*
X489732Y77472*
X489959Y77785*
X490186Y77472*
Y76847*
X489959Y76222*
X489732Y75910*
X502686Y82472D02*
X503141Y82785D01*
X503822Y83722*
Y77160*
X507232Y83722D02*
X506777Y83410D01*
X506322Y82785*
X506095Y82160*
X505868Y81222*
Y79660*
X506095Y78722*
X506322Y78097*
X506777Y77472*
X507232Y77160*
X508141*
X508595Y77472*
X509050Y78097*
X509277Y78722*
X509504Y79660*
Y81222*
X509277Y82160*
X509050Y82785*
X508595Y83410*
X508141Y83722*
X507232*
X514050Y81535D02*
X511550Y77160D01*
Y81535D02*
X514050D01*
X511550Y77160D02*
X514050D01*
X516550Y77472D02*
X516322Y77160D01*
X516095Y77472*
X516322Y77785*
X516550Y77472*
Y76847*
X516322Y76222*
X516095Y75910*
X529050Y83722D02*
Y77160D01*
Y83722D02*
X531095D01*
X531777Y83410*
X532004Y83097*
X532232Y82472*
Y81535*
X532004Y80910*
X531777Y80597*
X531095Y80285*
X529050*
X537459Y82785D02*
X537004Y83410D01*
X536322Y83722*
X535413*
X534732Y83410*
X534277Y82785*
Y82160*
X534504Y81535*
X534732Y81222*
X535186Y80910*
X536550Y80285*
X537004Y79972*
X537232Y79660*
X537459Y79035*
Y78097*
X537004Y77472*
X536322Y77160*
X535413*
X534732Y77472*
X534277Y78097*
X539504Y83722D02*
Y77160D01*
Y83722D02*
X541550D01*
X542232Y83410*
X542459Y83097*
X542686Y82472*
Y81847*
X542459Y81222*
X542232Y80910*
X541550Y80597*
X539504*
X541095D02*
X542686Y77160D01*
X544959Y81535D02*
X544732Y81222D01*
X544959Y80910*
X545186Y81222*
X544959Y81535*
Y77785D02*
X544732Y77472D01*
X544959Y77160*
X545186Y77472*
X544959Y77785*
X550641Y82160D02*
X550413Y82785D01*
X549959Y83410*
X549504Y83722*
X548595*
X548141Y83410*
X547686Y82785*
X547459Y82160*
X547232Y81222*
Y79660*
X547459Y78722*
X547686Y78097*
X548141Y77472*
X548595Y77160*
X549504*
X549959Y77472*
X550413Y78097*
X550641Y78722*
Y79660*
X549504D02*
X550641D01*
X552686Y81535D02*
Y77160D01*
Y79660D02*
X552913Y80597D01*
X553368Y81222*
X553822Y81535*
X554504*
X556550Y79660D02*
X559277D01*
Y80285*
X559050Y80910*
X558822Y81222*
X558368Y81535*
X557686*
X557232Y81222*
X556777Y80597*
X556550Y79660*
Y79035*
X556777Y78097*
X557232Y77472*
X557686Y77160*
X558368*
X558822Y77472*
X559277Y78097*
X561322Y79660D02*
X564050D01*
Y80285*
X563822Y80910*
X563595Y81222*
X563141Y81535*
X562459*
X562004Y81222*
X561550Y80597*
X561322Y79660*
Y79035*
X561550Y78097*
X562004Y77472*
X562459Y77160*
X563141*
X563595Y77472*
X564050Y78097*
X566095Y81535D02*
Y77160D01*
Y80285D02*
X566777Y81222D01*
X567232Y81535*
X567913*
X568368Y81222*
X568595Y80285*
Y77160*
X633595Y97410D02*
Y92160D01*
Y97410D02*
X635232D01*
X635777Y97160*
X635959Y96910*
X636141Y96410*
Y95910*
X635959Y95410*
X635777Y95160*
X635232Y94910*
X633595*
X634868D02*
X636141Y92160D01*
X637777Y97410D02*
Y92160D01*
Y97410D02*
X640141D01*
X637777Y94910D02*
X639232D01*
X637777Y92160D02*
X640141D01*
X641777Y97410D02*
X643232Y92160D01*
X644686Y97410D02*
X643232Y92160D01*
X646504Y95660D02*
X646322Y95410D01*
X646504Y95160*
X646686Y95410*
X646504Y95660*
Y92660D02*
X646322Y92410D01*
X646504Y92160*
X646686Y92410*
X646504Y92660*
X648322Y96410D02*
X648686Y96660D01*
X649232Y97410*
Y92160*
X651050Y92660D02*
X650868Y92410D01*
X651050Y92160*
X651232Y92410*
X651050Y92660*
X653959Y97410D02*
X653413Y97160D01*
X653050Y96410*
X652868Y95160*
Y94410*
X653050Y93160*
X653413Y92410*
X653959Y92160*
X654322*
X654868Y92410*
X655232Y93160*
X655413Y94410*
Y95160*
X655232Y96410*
X654868Y97160*
X654322Y97410*
X653959*
X442217Y115579D02*
Y110329D01*
X444035Y110829D02*
X443854Y110579D01*
X444035Y110329*
X444217Y110579*
X444035Y110829*
X448581Y114329D02*
X448399Y114829D01*
X448035Y115329*
X447672Y115579*
X446944*
X446581Y115329*
X446217Y114829*
X446035Y114329*
X445854Y113579*
Y112329*
X446035Y111579*
X446217Y111079*
X446581Y110579*
X446944Y110329*
X447672*
X448035Y110579*
X448399Y111079*
X448581Y111579*
Y112329*
X447672D02*
X448581D01*
X450399Y110829D02*
X450217Y110579D01*
X450399Y110329*
X450581Y110579*
X450399Y110829*
X454035Y115579D02*
Y111579D01*
X453854Y110829*
X453672Y110579*
X453308Y110329*
X452944*
X452581Y110579*
X452399Y110829*
X452217Y111579*
Y112079*
X456763Y115579D02*
X456399Y115329D01*
X456035Y114829*
X455854Y114329*
X455672Y113579*
Y112329*
X455854Y111579*
X456035Y111079*
X456399Y110579*
X456763Y110329*
X457490*
X457854Y110579*
X458217Y111079*
X458399Y111579*
X458581Y112329*
Y113579*
X458399Y114329*
X458217Y114829*
X457854Y115329*
X457490Y115579*
X456763*
X460217D02*
Y111829D01*
X460399Y111079*
X460763Y110579*
X461308Y110329*
X461672*
X462217Y110579*
X462581Y111079*
X462763Y111829*
Y115579*
X464399D02*
Y110329D01*
Y115579D02*
X466944Y110329D01*
Y115579D02*
Y110329D01*
X471308Y114329D02*
X471126Y114829D01*
X470763Y115329*
X470399Y115579*
X469672*
X469308Y115329*
X468944Y114829*
X468763Y114329*
X468581Y113579*
Y112329*
X468763Y111579*
X468944Y111079*
X469308Y110579*
X469672Y110329*
X470399*
X470763Y110579*
X471126Y111079*
X471308Y111579*
Y112329*
X470399D02*
X471308D01*
G54D13*
X393595Y102160D02*
X673595D01*
X393595Y87160D02*
X673595D01*
X623595Y102160D02*
Y87160D01*
X393595Y72160D02*
X673595D01*
X393595Y142160D02*
X673595D01*
Y57160*
X393595*
Y142160*
X508595D02*
Y87160D01*
X393595Y122160D02*
X508595D01*
X521141Y96660D02*
X520777Y97160D01*
X520232Y97410*
X519504*
X518959Y97160*
X518595Y96660*
Y96160*
X518777Y95660*
X518959Y95410*
X519322Y95160*
X520413Y94660*
X520777Y94410*
X520959Y94160*
X521141Y93660*
Y92910*
X520777Y92410*
X520232Y92160*
X519504*
X518959Y92410*
X518595Y92910*
X522777Y97410D02*
Y92160D01*
X526959Y97410D02*
X524413Y92160D01*
Y97410D02*
X526959D01*
X524413Y92160D02*
X526959D01*
X528595Y97410D02*
Y92160D01*
Y97410D02*
X530959D01*
X528595Y94910D02*
X530050D01*
X528595Y92160D02*
X530959D01*
X532777Y95660D02*
X532595Y95410D01*
X532777Y95160*
X532959Y95410*
X532777Y95660*
Y92660D02*
X532595Y92410D01*
X532777Y92160*
X532959Y92410*
X532777Y92660*
X401095Y67410D02*
Y62160D01*
X403277*
X406368Y67410D02*
X404913Y62160D01*
X406368Y67410D02*
X407822Y62160D01*
X405459Y63910D02*
X407277D01*
X409459Y67410D02*
X410913Y64910D01*
Y62160*
X412368Y67410D02*
X410913Y64910D01*
X414004Y67410D02*
Y62160D01*
Y67410D02*
X416368D01*
X414004Y64910D02*
X415459D01*
X414004Y62160D02*
X416368D01*
X418004Y67410D02*
Y62160D01*
Y67410D02*
X419641D01*
X420186Y67160*
X420368Y66910*
X420550Y66410*
Y65910*
X420368Y65410*
X420186Y65160*
X419641Y64910*
X418004*
X419277D02*
X420550Y62160D01*
X422368Y65660D02*
X422186Y65410D01*
X422368Y65160*
X422550Y65410*
X422368Y65660*
Y62660D02*
X422186Y62410D01*
X422368Y62160*
X422550Y62410*
X422368Y62660*
X400820Y115992D02*
Y110742D01*
Y115992D02*
X402092D01*
X402638Y115742*
X403001Y115242*
X403183Y114742*
X403365Y113992*
Y112742*
X403183Y111992*
X403001Y111492*
X402638Y110992*
X402092Y110742*
X400820*
X405001Y115992D02*
Y110742D01*
Y115992D02*
X407365D01*
X405001Y113492D02*
X406456D01*
X405001Y110742D02*
X407365D01*
X411547Y115242D02*
X411183Y115742D01*
X410638Y115992*
X409910*
X409365Y115742*
X409001Y115242*
Y114742*
X409183Y114242*
X409365Y113992*
X409729Y113742*
X410820Y113242*
X411183Y112992*
X411365Y112742*
X411547Y112242*
Y111492*
X411183Y110992*
X410638Y110742*
X409910*
X409365Y110992*
X409001Y111492*
X413183Y115992D02*
Y110742D01*
X417547Y114742D02*
X417365Y115242D01*
X417001Y115742*
X416638Y115992*
X415910*
X415547Y115742*
X415183Y115242*
X415001Y114742*
X414820Y113992*
Y112742*
X415001Y111992*
X415183Y111492*
X415547Y110992*
X415910Y110742*
X416638*
X417001Y110992*
X417365Y111492*
X417547Y111992*
Y112742*
X416638D02*
X417547D01*
X419183Y115992D02*
Y110742D01*
Y115992D02*
X421729Y110742D01*
Y115992D02*
Y110742D01*
X423365Y115992D02*
Y110742D01*
Y115992D02*
X425729D01*
X423365Y113492D02*
X424820D01*
X423365Y110742D02*
X425729D01*
X427365Y115992D02*
Y110742D01*
Y115992D02*
X429001D01*
X429547Y115742*
X429729Y115492*
X429910Y114992*
Y114492*
X429729Y113992*
X429547Y113742*
X429001Y113492*
X427365*
X428638D02*
X429910Y110742D01*
X431729Y114242D02*
X431547Y113992D01*
X431729Y113742*
X431910Y113992*
X431729Y114242*
Y111242D02*
X431547Y110992D01*
X431729Y110742*
X431910Y110992*
X431729Y111242*
X402638Y135992D02*
Y131992D01*
X402456Y131242*
X402274Y130992*
X401910Y130742*
X401547*
X401183Y130992*
X401001Y131242*
X400820Y131992*
Y132492*
X405365Y135992D02*
X405001Y135742D01*
X404638Y135242*
X404456Y134742*
X404274Y133992*
Y132742*
X404456Y131992*
X404638Y131492*
X405001Y130992*
X405365Y130742*
X406092*
X406456Y130992*
X406820Y131492*
X407001Y131992*
X407183Y132742*
Y133992*
X407001Y134742*
X406820Y135242*
X406456Y135742*
X406092Y135992*
X405365*
X408820D02*
Y130742D01*
Y135992D02*
X410456D01*
X411001Y135742*
X411183Y135492*
X411365Y134992*
Y134492*
X411183Y133992*
X411001Y133742*
X410456Y133492*
X408820D02*
X410456D01*
X411001Y133242*
X411183Y132992*
X411365Y132492*
Y131742*
X411183Y131242*
X411001Y130992*
X410456Y130742*
X408820*
X417183Y135992D02*
Y130742D01*
Y135992D02*
X419729Y130742D01*
Y135992D02*
Y130742D01*
X422820Y135992D02*
X421365Y130742D01*
X422820Y135992D02*
X424274Y130742D01*
X421910Y132492D02*
X423729D01*
X425910Y135992D02*
Y130742D01*
Y135992D02*
X427365Y130742D01*
X428820Y135992D02*
X427365Y130742D01*
X428820Y135992D02*
Y130742D01*
X430456Y135992D02*
Y130742D01*
Y135992D02*
X432820D01*
X430456Y133492D02*
X431910D01*
X430456Y130742D02*
X432820D01*
X434638Y134242D02*
X434456Y133992D01*
X434638Y133742*
X434820Y133992*
X434638Y134242*
Y131242D02*
X434456Y130992D01*
X434638Y130742*
X434820Y130992*
X434638Y131242*
X402274Y95992D02*
X400820Y90742D01*
X402274Y95992D02*
X403729Y90742D01*
X401365Y92492D02*
X403183D01*
X405365Y95992D02*
Y90742D01*
Y95992D02*
X407001D01*
X407547Y95742*
X407729Y95492*
X407910Y94992*
Y94492*
X407729Y93992*
X407547Y93742*
X407001Y93492*
X405365*
X406638D02*
X407910Y90742D01*
X410820Y95992D02*
Y90742D01*
X409547Y95992D02*
X412092D01*
X413729D02*
X414638Y90742D01*
X415547Y95992D02*
X414638Y90742D01*
X415547Y95992D02*
X416456Y90742D01*
X417365Y95992D02*
X416456Y90742D01*
X420092Y95992D02*
X419729Y95742D01*
X419365Y95242*
X419183Y94742*
X419001Y93992*
Y92742*
X419183Y91992*
X419365Y91492*
X419729Y90992*
X420092Y90742*
X420820*
X421183Y90992*
X421547Y91492*
X421729Y91992*
X421910Y92742*
Y93992*
X421729Y94742*
X421547Y95242*
X421183Y95742*
X420820Y95992*
X420092*
X423547D02*
Y90742D01*
Y95992D02*
X425183D01*
X425729Y95742*
X425910Y95492*
X426092Y94992*
Y94492*
X425910Y93992*
X425729Y93742*
X425183Y93492*
X423547*
X424820D02*
X426092Y90742D01*
X429001Y95992D02*
Y90742D01*
X427729Y95992D02*
X430274D01*
X436092D02*
Y90742D01*
Y95992D02*
X437729D01*
X438274Y95742*
X438456Y95492*
X438638Y94992*
Y94242*
X438456Y93742*
X438274Y93492*
X437729Y93242*
X436092*
X440274Y95992D02*
Y90742D01*
X442456*
X445183Y95992D02*
X444820Y95742D01*
X444456Y95242*
X444274Y94742*
X444092Y93992*
Y92742*
X444274Y91992*
X444456Y91492*
X444820Y90992*
X445183Y90742*
X445910*
X446274Y90992*
X446638Y91492*
X446820Y91992*
X447001Y92742*
Y93992*
X446820Y94742*
X446638Y95242*
X446274Y95742*
X445910Y95992*
X445183*
X449910D02*
Y90742D01*
X448638Y95992D02*
X451183D01*
X453001Y94242D02*
X452820Y93992D01*
X453001Y93742*
X453183Y93992*
X453001Y94242*
Y91242D02*
X452820Y90992D01*
X453001Y90742*
X453183Y90992*
X453001Y91242*
X427075Y68390D02*
Y63140D01*
Y68390D02*
X428712D01*
X429257Y68140*
X429439Y67890*
X429621Y67390*
Y66890*
X429439Y66390*
X429257Y66140*
X428712Y65890*
X427075D02*
X428712D01*
X429257Y65640*
X429439Y65390*
X429621Y64890*
Y64140*
X429439Y63640*
X429257Y63390*
X428712Y63140*
X427075*
X432166Y66640D02*
X431803Y66390D01*
X431439Y65890*
X431257Y65140*
Y64640*
X431439Y63890*
X431803Y63390*
X432166Y63140*
X432712*
X433075Y63390*
X433439Y63890*
X433621Y64640*
Y65140*
X433439Y65890*
X433075Y66390*
X432712Y66640*
X432166*
X435803Y68390D02*
Y64140D01*
X435985Y63390*
X436348Y63140*
X436712*
X435257Y66640D02*
X436530D01*
X438894Y68390D02*
Y64140D01*
X439075Y63390*
X439439Y63140*
X439803*
X438348Y66640D02*
X439621D01*
X442348D02*
X441985Y66390D01*
X441621Y65890*
X441439Y65140*
Y64640*
X441621Y63890*
X441985Y63390*
X442348Y63140*
X442894*
X443257Y63390*
X443621Y63890*
X443803Y64640*
Y65140*
X443621Y65890*
X443257Y66390*
X442894Y66640*
X442348*
X445439D02*
Y63140D01*
Y65640D02*
X445985Y66390D01*
X446348Y66640*
X446894*
X447257Y66390*
X447439Y65640*
Y63140*
Y65640D02*
X447985Y66390D01*
X448348Y66640*
X448894*
X449257Y66390*
X449439Y65640*
Y63140*
X457803Y67640D02*
X457439Y68140D01*
X456894Y68390*
X456166*
X455621Y68140*
X455257Y67640*
Y67140*
X455439Y66640*
X455621Y66390*
X455985Y66140*
X457075Y65640*
X457439Y65390*
X457621Y65140*
X457803Y64640*
Y63890*
X457439Y63390*
X456894Y63140*
X456166*
X455621Y63390*
X455257Y63890*
X459439Y68390D02*
X459621Y68140D01*
X459803Y68390*
X459621Y68640*
X459439Y68390*
X459621Y66640D02*
Y63140D01*
X463621Y68390D02*
Y63140D01*
Y65890D02*
X463257Y66390D01*
X462894Y66640*
X462348*
X461985Y66390*
X461621Y65890*
X461439Y65140*
Y64640*
X461621Y63890*
X461985Y63390*
X462348Y63140*
X462894*
X463257Y63390*
X463621Y63890*
X465257Y65140D02*
X467439D01*
Y65640*
X467257Y66140*
X467075Y66390*
X466712Y66640*
X466166*
X465803Y66390*
X465439Y65890*
X465257Y65140*
Y64640*
X465439Y63890*
X465803Y63390*
X466166Y63140*
X466712*
X467075Y63390*
X467439Y63890*
G54D16*
X614550Y116847D02*
X614277Y116472D01*
X614004Y115910*
X613732Y115160*
X613595Y114222*
Y113472*
X613732Y112535*
X614004Y111785*
X614277Y111222*
X614550Y110847*
X616732Y116097D02*
Y112160D01*
X615777Y116097D02*
X617686D01*
X618913Y113660D02*
X620550D01*
Y114035*
X620413Y114410*
X620277Y114597*
X620004Y114785*
X619595*
X619322Y114597*
X619050Y114222*
X618913Y113660*
Y113285*
X619050Y112722*
X619322Y112347*
X619595Y112160*
X620004*
X620277Y112347*
X620550Y112722*
X621777Y116097D02*
Y112160D01*
X623141Y114785D02*
X623004Y114597D01*
X623141Y114410*
X623277Y114597*
X623141Y114785*
Y112535D02*
X623004Y112347D01*
X623141Y112160*
X623277Y112347*
X623141Y112535*
X624504Y116097D02*
X626413Y112160D01*
Y116097D02*
X624504Y112160D01*
X627641Y116097D02*
X629550Y112160D01*
Y116097D02*
X627641Y112160D01*
X630777Y116847D02*
X631050Y116472D01*
X631322Y115910*
X631595Y115160*
X631732Y114222*
Y113472*
X631595Y112535*
X631322Y111785*
X631050Y111222*
X630777Y110847*
G54D34*
X974409Y545972D02*
Y544291D01*
X967807Y539370D02*
X969488D01*
X974409Y532768D02*
Y534449D01*
X981012Y539370D02*
X979331D01*
X548228Y368831D02*
Y370512D01*
X554831Y373858D02*
X553150D01*
X541626D02*
X543307D01*
X554338Y398393D02*
X552169Y396225D01*
X554338Y389323D02*
X552169Y391492D01*
X542118Y389323D02*
X544287Y391492D01*
X542118Y398393D02*
X544287Y396225D01*
X847244Y233185D02*
Y231504D01*
X748937Y569185D02*
Y570866D01*
Y580421D02*
Y578740D01*
X580866Y200327D02*
Y202008D01*
X587075Y206535D02*
X585394D01*
X580866Y212744D02*
Y211063D01*
X574657Y206535D02*
X576339D01*
X560866Y200327D02*
Y202008D01*
X567075Y206535D02*
X565394D01*
X560866Y212744D02*
Y211063D01*
X554657Y206535D02*
X556339D01*
X659449Y552425D02*
Y550744D01*
X654268Y547244D02*
X655949D01*
X659449Y542063D02*
Y543744D01*
X664630Y547244D02*
X662949D01*
X560866Y220327D02*
Y222008D01*
X567075Y226535D02*
X565394D01*
X560866Y232744D02*
Y231063D01*
X554657Y226535D02*
X556339D01*
X499276Y259843D02*
X497594D01*
X494094Y265024D02*
Y263343D01*
X488913Y259843D02*
X490594D01*
X494094Y254661D02*
Y256343D01*
X648851Y220472D02*
X647170D01*
X641658Y227665D02*
Y225984D01*
X634465Y220472D02*
X636146D01*
X641658Y213280D02*
Y214961D01*
X414657Y301181D02*
X416339D01*
X421260Y294579D02*
Y296260D01*
X427862Y301181D02*
X426181D01*
X421260Y307783D02*
Y306102D01*
X1131012Y303150D02*
X1129331D01*
X1125984Y308177D02*
Y306496D01*
X1120957Y303150D02*
X1122638D01*
X1125984Y298122D02*
Y299803D01*
X857244Y233185D02*
Y231504D01*
Y213823D02*
Y215504D01*
X580866Y220327D02*
Y222008D01*
X587075Y226535D02*
X585394D01*
X580866Y232744D02*
Y231063D01*
X574657Y226535D02*
X576339D01*
X495906Y228059D02*
Y226378D01*
X488319Y220472D02*
X490000D01*
X495906Y212886D02*
Y214567D01*
X412157Y338583D02*
X410476D01*
X406476Y344264D02*
Y342583D01*
X400795Y338583D02*
X402476D01*
X406476Y332902D02*
Y334583D01*
X1110106Y431102D02*
X1108425D01*
X1104925Y437283D02*
Y435602D01*
X1099744Y431102D02*
X1101425D01*
X1104925Y424921D02*
Y426602D01*
X1110106Y470472D02*
X1108425D01*
X1104925Y476654D02*
Y474972D01*
X1099744Y470472D02*
X1101425D01*
X1104925Y464291D02*
Y465972D01*
X687008Y471744D02*
Y473425D01*
X693610Y478346D02*
X691929D01*
X687008Y484949D02*
Y483268D01*
X680406Y478346D02*
X682087D01*
X639764Y471744D02*
Y473425D01*
X646366Y478346D02*
X644685D01*
X639764Y484949D02*
Y483268D01*
X633161Y478346D02*
X634843D01*
X629921Y552425D02*
Y550744D01*
X624740Y547244D02*
X626421D01*
X629921Y542063D02*
Y543744D01*
X635102Y547244D02*
X633421D01*
X824803Y553280D02*
Y554961D01*
X830984Y558461D02*
X829303D01*
X824803Y563642D02*
Y561961D01*
X818622Y558461D02*
X820303D01*
X758937Y569185D02*
Y570866D01*
Y580421D02*
Y578740D01*
X412157Y368110D02*
X410476D01*
X406476Y373791D02*
Y372110D01*
X400795Y368110D02*
X402476D01*
X406476Y362429D02*
Y364110D01*
X500697Y301181D02*
X499016D01*
X494094Y307783D02*
Y306102D01*
X487492Y301181D02*
X489173D01*
X494094Y294579D02*
Y296260D01*
X519083Y220472D02*
X517402D01*
X511496Y228059D02*
Y226378D01*
Y212886D02*
Y214567D01*
X847244Y213823D02*
Y215504D01*
X895677Y527559D02*
X893996D01*
X888878Y534358D02*
Y532677D01*
X882079Y527559D02*
X883760D01*
X888878Y520760D02*
Y522441D01*
X837244Y213823D02*
Y215504D01*
X410539Y539370D02*
X408858D01*
X405512Y544398D02*
Y542717D01*
X400484Y539370D02*
X402165D01*
X405512Y534343D02*
Y536024D01*
X544398Y208661D02*
X542717D01*
X539370Y213689D02*
Y212008D01*
X534343Y208661D02*
X536024D01*
X539370Y203634D02*
Y205315D01*
X912508Y559055D02*
X910827D01*
X907480Y564083D02*
Y562402D01*
X902453Y559055D02*
X904134D01*
X907480Y554028D02*
Y555709D01*
G54D38*
G54D40*
X616142Y448819D03*
X401575Y409449D03*
X612205Y366142D03*
X1106299Y395669D03*
X1125984Y303150D03*
X907480Y559055D03*
X539370Y208661D03*
X405512Y539370D03*
X1053150Y222441D03*
X570866Y250000D03*
G54D41*
Y216535D03*
X580866Y206535D03*
Y226535D03*
X560866D03*
Y206535D03*
G54D43*
X899606Y488189D03*
X812992D03*
X877559D03*
X835039D03*
G54D44*
X888878Y527559D03*
X813878D03*
G54D45*
X768937Y574803D03*
X758937D03*
X748937D03*
X738937D03*
G54D46*
X765737Y488303D03*
X742137D03*
X464724Y220472D03*
X495906D03*
X511496D03*
G54D49*
X578740Y499843D03*
X548228Y393858D03*
G54D50*
X578740Y509843D03*
Y519843D03*
X548228Y383858D03*
Y373858D03*
G54D51*
X482283Y482283D03*
X423228D03*
G54D52*
X406476Y338583D03*
X471476D03*
X406476Y368110D03*
X471476D03*
X626043Y313150D03*
X611043Y308150D03*
X626543Y303150D03*
X611043Y298150D03*
X626043Y293150D03*
X611043Y288150D03*
G54D53*
X659449Y527559D03*
Y547244D03*
X629921Y527559D03*
Y547244D03*
X474409Y259843D03*
X494094D03*
G54D54*
X687008Y498031D03*
Y478346D03*
X639764Y498031D03*
Y478346D03*
X440945Y301181D03*
X421260D03*
X474409D03*
X494094D03*
X974409Y519685D03*
Y539370D03*
G54D55*
X449134Y220472D03*
G54D56*
X480315D03*
G54D57*
X688976Y216535D03*
X1122047D03*
Y570866D03*
X688976D03*
X413386D03*
Y255906D03*
G54D58*
X797244Y218504D03*
Y228504D03*
X807244Y218504D03*
Y228504D03*
X817244Y218504D03*
Y228504D03*
X827244Y218504D03*
Y228504D03*
X837244Y218504D03*
Y228504D03*
X847244Y218504D03*
Y228504D03*
X857244Y218504D03*
Y228504D03*
X867244Y218504D03*
Y228504D03*
X877244Y218504D03*
Y228504D03*
X887244Y218504D03*
Y228504D03*
G54D59*
X611043Y318150D03*
G54D75*
X626058Y220472D03*
X641658D03*
X655512Y337598D03*
Y268701D03*
X572835Y418307D03*
Y349409D03*
X574213Y474409D03*
Y545276D03*
G54D77*
X1091925Y431102D03*
X1104925D03*
X1091925Y470472D03*
X1104925D03*
G54D78*
X824803Y571461D03*
Y558461D03*
G54D80*
X547244Y208661D03*
X596457Y204724D03*
X614173D03*
X645669D03*
X669291D03*
X708661D03*
X740157D03*
X759843D03*
X787402D03*
X818898D03*
X937008D03*
X962598Y205709D03*
X1000000Y202756D03*
Y209646D03*
X990157Y205709D03*
X1039370Y201772D03*
X1027559D03*
X1014764Y202756D03*
Y209646D03*
X1078740Y204724D03*
X1066929D03*
X1055118D03*
X1102362D03*
X1090551D03*
X507874Y240157D03*
X519685D03*
X547244Y244094D03*
Y232283D03*
Y220472D03*
X596457Y226378D03*
X669291Y232283D03*
X708661D03*
X978346Y234252D03*
X990157D03*
X984252D03*
X1011811Y250000D03*
X1003937D03*
X1110236Y236220D03*
Y244094D03*
X1086614Y224409D03*
X1094488D03*
X1102362D03*
Y216535D03*
X1133858Y236220D03*
X401575Y275591D03*
Y283465D03*
X419291Y275591D03*
X507874Y287402D03*
Y275591D03*
Y263780D03*
Y251969D03*
X519685Y287402D03*
Y275591D03*
Y263780D03*
Y251969D03*
X547244Y291339D03*
Y279528D03*
Y267717D03*
Y255906D03*
X716535Y259843D03*
X700787D03*
X692913D03*
X716535Y267717D03*
X692913D03*
X700787D03*
X692913Y291339D03*
X700787D03*
X724409Y267717D03*
Y259843D03*
X759843Y261811D03*
X795276Y283465D03*
X765748Y261811D03*
Y267717D03*
X952756Y263780D03*
X978346Y277559D03*
X970472D03*
X978346Y283465D03*
X970472D03*
X1003937Y255906D03*
X1110236Y251969D03*
Y259843D03*
X1102362D03*
X1094488D03*
X1086614D03*
X1133858Y275591D03*
Y255906D03*
X401575Y295276D03*
Y307087D03*
Y318898D03*
Y330709D03*
X496063Y322835D03*
X507874D03*
Y311024D03*
Y299213D03*
X519685Y322835D03*
Y311024D03*
Y299213D03*
X547244Y314961D03*
Y303150D03*
X570866Y326772D03*
X692913Y299213D03*
X700787D03*
X692913Y326772D03*
Y318898D03*
X700787Y326772D03*
Y318898D03*
X775591Y303150D03*
Y314961D03*
X929134Y330709D03*
X935039D03*
Y324803D03*
X929134D03*
X964567Y309055D03*
X992126D03*
X1133858Y314961D03*
Y295276D03*
X401575Y346457D03*
Y358268D03*
X511811Y354331D03*
X496063D03*
X497047Y370079D03*
X539370Y350394D03*
X555118D03*
X547244D03*
X531496D03*
X523622D03*
X539370Y366142D03*
X531496D03*
X523622D03*
Y358268D03*
X531496D03*
X539370D03*
X547244D03*
X555118D03*
X720472Y350394D03*
Y362205D03*
X696850D03*
Y350394D03*
X748031Y362205D03*
X742126D03*
X753937D03*
X775591Y354331D03*
X767717Y362205D03*
X996063Y342520D03*
X1019685D03*
X1011811D03*
X1003937D03*
X1047244Y346457D03*
Y370079D03*
X1059055D03*
X1072835D03*
Y358268D03*
X1059055D03*
X1047244D03*
X1086614Y346457D03*
Y370079D03*
Y358268D03*
X1133858Y354331D03*
Y334646D03*
X554134Y407480D03*
X546260D03*
X618110Y385827D03*
Y397638D03*
Y409449D03*
X633858Y380906D03*
X653543Y385827D03*
X669291D03*
X643701Y380906D03*
X685039Y385827D03*
X700787D03*
X716535D03*
X732283D03*
X787402Y379921D03*
X935039Y401575D03*
Y393701D03*
X956693D03*
X948819Y401575D03*
X956693Y385827D03*
Y375984D03*
X935039D03*
Y385827D03*
X1000000D03*
Y375984D03*
X976378D03*
Y385827D03*
X1003937Y409449D03*
X1074803Y399606D03*
Y407480D03*
X1082677D03*
Y399606D03*
X1133858Y393701D03*
Y374016D03*
X546260Y415354D03*
X554134D03*
X618110Y421260D03*
Y433071D03*
X667323Y420276D03*
X677165Y442913D03*
X755906Y448819D03*
X783465D03*
X854331D03*
X938976D03*
Y437008D03*
X935039Y425197D03*
Y413386D03*
X948819D03*
Y425197D03*
Y437008D03*
Y448819D03*
X964567Y437008D03*
Y448819D03*
X992126Y444882D03*
Y433071D03*
X1015748D03*
Y444882D03*
X1003937Y421260D03*
Y433071D03*
Y444882D03*
X1059055Y433071D03*
Y444882D03*
X1070866Y433071D03*
X1078740Y421260D03*
Y433071D03*
Y444882D03*
X1070866D03*
X1074803Y415354D03*
X1082677D03*
X1090551Y444882D03*
X1133858Y433071D03*
Y413386D03*
X618110Y464567D03*
Y476378D03*
X633858Y468504D03*
X641732D03*
X673228Y476378D03*
X665354D03*
X657480D03*
X649606D03*
Y468504D03*
X657480D03*
X665354D03*
X673228D03*
X681102D03*
X688976D03*
X938976Y460630D03*
Y472441D03*
X948819Y460630D03*
Y472441D03*
X1015748Y456693D03*
X1003937D03*
Y480315D03*
Y468504D03*
X1059055Y456693D03*
X1070866D03*
X1078740D03*
Y468504D03*
Y480315D03*
X1090551Y456693D03*
X1133858Y472441D03*
Y452756D03*
X1062992Y492126D03*
X1078740D03*
X1070866D03*
X1082677Y527559D03*
X1074803D03*
X1066929Y519685D03*
Y527559D03*
X1090551Y492126D03*
X1133858Y531496D03*
Y511811D03*
Y492126D03*
X633858Y559055D03*
X622047D03*
Y570866D03*
X633858D03*
X669291Y559055D03*
X657480D03*
X645669D03*
Y570866D03*
X657480D03*
X669291D03*
X712598Y566929D03*
X838583Y555118D03*
X870079D03*
X862205D03*
X854331D03*
X846457D03*
X881890Y539370D03*
X917323D03*
X893701D03*
X960630Y562992D03*
X940945D03*
Y547244D03*
X976378Y551181D03*
Y559055D03*
Y566929D03*
X988189Y543307D03*
Y551181D03*
Y559055D03*
Y566929D03*
X1000000D03*
Y559055D03*
Y551181D03*
Y543307D03*
X1009843D03*
Y551181D03*
Y559055D03*
Y566929D03*
X1082677Y535433D03*
Y543307D03*
Y551181D03*
Y559055D03*
Y566929D03*
X1074803D03*
Y559055D03*
Y551181D03*
Y543307D03*
Y535433D03*
X1066929D03*
Y543307D03*
Y551181D03*
Y559055D03*
Y566929D03*
X1102362Y551181D03*
X1090551Y566929D03*
Y559055D03*
Y551181D03*
Y543307D03*
Y535433D03*
X1133858Y551181D03*
X633858Y582677D03*
X622047D03*
X669291D03*
X657480D03*
X645669D03*
X712598D03*
X748031Y586614D03*
X732283Y582677D03*
X767717Y586614D03*
X787402D03*
X807087D03*
X826772D03*
X848425D03*
X870079D03*
X893701D03*
X921260D03*
X960630Y582677D03*
X940945D03*
X976378Y574803D03*
Y582677D03*
X988189Y574803D03*
Y582677D03*
X1000000D03*
Y574803D03*
X1009843D03*
Y582677D03*
X1082677Y574803D03*
Y582677D03*
X1074803D03*
Y574803D03*
X1066929D03*
Y582677D03*
X1102362D03*
X1090551D03*
Y574803D03*
G54D81*
X708661Y242126D03*
X734252D03*
X758858D03*
Y230315D03*
X733268D03*
X729331Y224409D03*
X758858Y218504D03*
X946457Y247638D03*
X982283Y244094D03*
X968504Y243110D03*
X777559Y285433D03*
X857283Y277559D03*
X844094Y284685D03*
X938976Y272638D03*
X1081693Y275591D03*
X836614Y326772D03*
X806102Y307087D03*
Y326772D03*
Y297244D03*
Y316929D03*
X861024Y326772D03*
X860236Y311024D03*
X933071Y297244D03*
X970472Y328740D03*
X777559Y334646D03*
X836614Y340551D03*
X806102Y352362D03*
Y362205D03*
Y391732D03*
X839567Y385827D03*
X806102Y372047D03*
X836614Y375984D03*
X857283Y385827D03*
X844488Y409055D03*
X647638Y442913D03*
X742126D03*
X730315Y413386D03*
Y448819D03*
X792323Y433071D03*
X807087Y446850D03*
X826772D03*
X859252Y421260D03*
Y433071D03*
X856299Y460630D03*
X1109252Y501969D03*
X1095472Y529528D03*
X940945Y538386D03*
G54D82*
X523595Y137003D02*
X528368Y127160D01*
Y137003D02*
X523595Y127160D01*
X531436Y137003D02*
X536209Y127160D01*
Y137003D02*
X531436Y127160D01*
X539277Y137003D02*
X544050Y127160D01*
Y137003D02*
X539277Y127160D01*
G74*
X0Y0D02*
M02*
