%
T1C.01378F095S3
X070866Y024213
X064764Y044291
X073031Y044882
X074213Y044291
X073031Y041339
X073425Y024213
X075886Y024213
X073327Y023031
X075886Y023031
X072933Y022441
X075886Y02185
X077756Y028543
X08061Y029724
X08061Y030709
X08061Y031693
X08061Y032677
X077756Y033465
X08061Y035236
X08061Y03622
X08061Y037205
X08061Y039173
X079232Y043307
X080709Y044685
X08563Y046063
X082677Y044685
X085925Y043307
X085925Y042126
X084449Y040906
X085728Y038583
X083957Y038583
X083661Y037598
X083661Y034055
X086102Y032677
X083661Y032677
X086024Y031102
X084409Y028469
X085728Y027756
X09685Y024311
X094646Y024764
X093898Y027264
X093307Y029724
X097047Y032874
X094094Y053839
X109547Y052953
X110925Y050197
X108169Y027559
X098228Y024409
T2C.02362F197S55
X040157Y027559
X041929Y027559
X040157Y028346
X040157Y029528
X040157Y030709
X040157Y03189
X040157Y033071
X040157Y034646
X040157Y035827
X049705Y037008
X052362Y036614
X052362Y035827
X051181Y035433
X049606Y035433
X052362Y035039
X050787Y032283
X051969Y032283
X049606Y032283
X050787Y031102
X051969Y031102
X050787Y029921
X051969Y029921
X051969Y02874
X050787Y02874
X051969Y027559
X050787Y027559
X051969Y026378
X050787Y026378
X051969Y025197
X050787Y025197
X051969Y024016
X050787Y024016
X054724Y020866
X054724Y022047
X054724Y023228
X054724Y024409
X054724Y025591
X054724Y026772
X054724Y027953
X054724Y029134
X054724Y030315
X054724Y031496
X053937Y035039
X054724Y035039
X05315Y035039
X05315Y035827
X053937Y035827
X054724Y035827
X05315Y036614
X053937Y036614
X054626Y040748
X054626Y041535
X062205Y058268
X062205Y057087
X062205Y055906
X061811Y047638
X061811Y046457
X061811Y043307
X061811Y042126
X055413Y041535
X061811Y040945
X055413Y040748
X061811Y039764
X061811Y038583
X055512Y035827
X055512Y035039
X057087Y032677
X059646Y022638
X061417Y020472
X059646Y020472
X064567Y020472
X066929Y020472
X066929Y023228
X063386Y038091
X06437Y038091
X065354Y038583
X066929Y038583
X066732Y042028
X063386Y04685
X064173Y04685
X064961Y04685
X065748Y04685
X066535Y04685
X067323Y04685
X064961Y047638
X067323Y047638
X066535Y047638
X065748Y047638
X064567Y055906
X063386Y055906
X066929Y055906
X065748Y055906
X063386Y057087
X064567Y057087
X065748Y057087
X066929Y057087
X064567Y058268
X063386Y058268
X066929Y058268
X065748Y058268
X06811Y04685
X068898Y04685
X067717Y044291
X068504Y038583
X070079Y038583
X069685Y03622
X069685Y035039
X070079Y032677
X069291Y032677
X069291Y03189
X070079Y03189
X069291Y029921
X070079Y029921
X069291Y029134
X070079Y029134
X070079Y026772
X069291Y026772
X069291Y025984
X070079Y025984
X070866Y020472
X074016Y020472
X070866Y023228
X071654Y025984
X072441Y025984
X072441Y026772
X071654Y026772
X072047Y035039
X072047Y03622
X074803Y03622
X074213Y03622
X073228Y038583
X071654Y038583
X07126Y056693
X07126Y058268
X073228Y058268
X074803Y058661
X076772Y058661
X07874Y058661
X075591Y044882
X078346Y044882
X07874Y037992
X075394Y03622
X076772Y03622
X077559Y035433
X077559Y031496
X077559Y030315
X079528Y028346
X076575Y026772
X075984Y026181
X076575Y026181
X07874Y020472
X075984Y020472
X08189Y020472
X085433Y044882
X083858Y055512
X084646Y055512
X087008Y055512
X08622Y055512
X085433Y055512
X082677Y058661
X084843Y058661
X080709Y058661
X087008Y058661
X08937Y058661
X092126Y058661
X094094Y058268
X094094Y056299
X094094Y054724
X091732Y053937
X08937Y053937
X088189Y053937
X093898Y047244
X094882Y047244
X093898Y046063
X094882Y046063
X093898Y044882
X094882Y044882
X094882Y043701
X093898Y043701
X094882Y04252
X093504Y04252
X094882Y041339
X093504Y041339
X094882Y040157
X093504Y040157
X093504Y03937
X093504Y038583
X093504Y037598
X092913Y033071
X093504Y033071
X092913Y03248
X093504Y03248
X093701Y020472
X09626Y020571
X095276Y026378
X097047Y027756
X097047Y028346
X096457Y030906
X097638Y037598
X095669Y037598
X095669Y038583
X097638Y038583
X095669Y03937
X096457Y043701
X096457Y044882
X097638Y055118
X097638Y055906
X096063Y056299
X097638Y056693
X097638Y05748
X096063Y058268
X097638Y058268
X098819Y058268
X1Y058268
X098819Y05748
X1Y05748
X098819Y056693
X1Y056693
X098819Y055906
X1Y055906
X098819Y055118
X1Y055118
X098819Y054331
X1Y054331
X099213Y044488
X099213Y043307
X1Y038583
X1Y037598
X099606Y034252
X099213Y030906
X097835Y028346
X097835Y027756
X097835Y023425
X099016Y023425
X098425Y023425
X1Y020965
X099016Y020571
X1Y020276
X101476Y020276
X101476Y020965
X100394Y025
X101181Y025
X100394Y025591
X101181Y034252
X100394Y034252
X101969Y034252
X100394Y040945
X100394Y042126
X100394Y043307
X101575Y043307
X101575Y044488
X100394Y044488
X100394Y045669
X101575Y045669
X100394Y04685
X100394Y048031
X100984Y054331
X100984Y055118
X100984Y055906
X100984Y056693
X100984Y05748
X100984Y058268
X10748Y058268
X106693Y058268
X10748Y05748
X106693Y05748
X10748Y056693
X106693Y056693
X10748Y055906
X106693Y055906
X10748Y055118
X106693Y055118
X10748Y054331
X106693Y054331
X10748Y053543
X106693Y053543
X10748Y052756
X106693Y052756
X106693Y051969
X107087Y049213
X106299Y049213
X107087Y045669
X105906Y045669
X107087Y044488
X105906Y044488
X107087Y043307
X105906Y043307
X10748Y041535
X10748Y040748
X10748Y039961
X107283Y037008
X105906Y037008
X104724Y037008
X107283Y035827
X105906Y035827
X104724Y035827
X104724Y034646
X105512Y020472
X106693Y020472
X102756Y020177
X103937Y020177
X109055Y020472
X107874Y020472
X108661Y022441
X109449Y022441
X109449Y025984
X108661Y025984
X108661Y034646
X108661Y035827
X108661Y037008
X108268Y039961
X108268Y040748
X108268Y041535
X107874Y042126
X107874Y043307
X109055Y044488
X107874Y044488
X107874Y045669
X109055Y045669
X107874Y04685
X107874Y048031
X107874Y049213
X109055Y049213
X108268Y052756
X108268Y053543
X109055Y053543
X109055Y054331
X108268Y054331
X109055Y055118
X108268Y055118
X109055Y055906
X108268Y055906
X108268Y056693
X109055Y056693
X108268Y05748
X109055Y05748
X109055Y058268
X108268Y058268
X110236Y058268
X110236Y055118
X113386Y055118
X113386Y05315
X113386Y051181
X113386Y049213
X113386Y047244
X113386Y045276
X113386Y043307
X113386Y041339
X113386Y03937
X113386Y037402
X113386Y035433
X113386Y033465
X113386Y031496
X113386Y029528
X113386Y027559
X111024Y025984
X110236Y025984
X113386Y025591
X111024Y025197
X111024Y024409
X111024Y023622
X113386Y023622
X110236Y022441
X110236Y021654
X110236Y020472
T3C.0315F197S55
X081299Y048819
X083504Y048819
X087756Y048819
X089961Y048819
T4C.03937F197S55
X047441Y025984
X049409Y025984
X040157Y040945
X040551Y053937
X061614Y044882
X06122Y036614
X057087Y025
X053937Y020866
X062992Y052756
X065945Y052756
X062992Y054724
X065945Y054724
X074894Y05748
X073894Y05748
X076894Y05748
X075894Y05748
X079724Y02285
X079724Y02185
X080724Y02185
X081724Y02185
X084724Y02185
X082724Y02185
X083724Y02185
X084724Y02285
X081724Y02285
X082724Y02285
X080724Y02285
X083724Y02285
X085724Y02285
X086724Y02285
X087724Y02285
X088724Y02285
X087724Y02185
X086724Y02185
X088724Y02185
X085724Y02185
X105315Y022244
X090748Y055906
X11063Y039567
X112598Y030315
T5C.043F139S55
X08248Y055846
X08248Y057146
X109193Y047047
X109193Y04311
X110493Y04311
X110493Y047047
T6C.04331F139S55
X040648Y033858
X047148Y033858
X040648Y036811
X047148Y036811
T7C.04724F139S55
X042126Y030118
X044094Y030118
X047441Y030118
X049409Y030118
X063976Y049803
X068701Y049803
X068701Y047835
X063976Y047835
X097441Y051969
X097441Y053937
T8C.05F107S55
X061104Y028815
X062604Y029315
X061104Y029815
X062654Y030315
X061104Y030815
X062604Y031315
X061104Y031815
T9C.05512F107S55
X054823Y037386
X054823Y038386
X054823Y039386
X057874Y051984
X057874Y050984
X057874Y049984
T10C.05906F107S55
X062606Y022047
X064166Y022047
X081388Y052756
X088888Y052756
T11C.06063F089S55
X056087Y020654
X057087Y021654
X056087Y022654
X058087Y022654
X058087Y020654
T12C.06299F089S55
X057421Y047441
X057421Y054528
T13C.07087F081S55
X044913Y022047
X046472Y022047
X048031Y022047
X049591Y022047
X074214Y04883
X05115Y022047
X076574Y04883
T14C.07874F081S55
X057283Y034941
X057283Y041831
X048228Y048228
X042323Y048228
X065551Y03376
X065551Y02687
T15C.12598F035S794
X041339Y025591
X041339Y057087
X068898Y057087
X068898Y021654
X112205Y021654
X112205Y057087
M30
